<svg width="139" height="151" viewBox="0 0 139 151" fill="none" xmlns="http://www.w3.org/2000/svg">
<g clip-path="url(#clip0_2126_61859)">
<path d="M107.02 27.4028C112.908 34.435 116.325 43.5422 116.531 52.7582C116.737 61.976 113.734 71.238 108.167 78.5485C108.167 78.5485 96.6268 91.7541 54.9587 86.808C52.6681 86.5371 35.8228 83.9885 28.446 73.77C21.071 63.5534 19.6041 45.3648 27.2058 33.2279L29.5314 29.2401C29.1721 22.5967 28.8127 15.9551 28.4552 9.31177C28.2967 6.38537 28.4755 2.81213 31.0333 1.42633C32.9978 0.36302 35.4063 1.1886 37.4279 2.1266C40.2382 3.43132 45.2378 6.10526 48.9234 9.21778C53.3794 12.9808 56.1492 16.7015 56.1492 16.7015C60.4927 15.1019 65.354 14.9379 69.9537 15.3857L78.8527 17.2857C78.8527 17.2857 85.1202 11.9378 89.3605 7.65138C93.0664 3.90493 97.5961 0.490175 101.593 0.757384C104.424 0.947195 108.085 5.30179 107.606 8.17843C107.029 11.6485 107.435 15.3618 107.131 19.5413C106.827 23.7208 107.017 27.3954 107.017 27.3954L107.02 27.4028Z" fill="white"/>
<path d="M50.63 139.902C51.1036 139.902 51.1055 139.165 50.63 139.165C50.1546 139.165 50.1546 139.902 50.63 139.902Z" fill="#555A60"/>
<path d="M62.9774 124.352C64.1255 121.758 65.4892 118.739 68.4396 117.842C69.7351 117.447 71.1209 117.617 72.186 118.492C73.2512 119.367 73.9054 120.604 74.3477 121.863C75.2009 124.29 75.2119 126.964 74.4896 129.426C74.1302 130.653 73.5884 131.821 72.8752 132.883C72.1123 134.02 71.1504 134.947 70.0797 135.792C68.8892 136.734 67.6343 137.757 67.2233 139.29C67.0335 139.996 67.0648 140.75 67.4002 141.408C67.7043 142.005 68.2516 142.498 68.8947 142.699C69.2191 142.799 69.5508 142.804 69.8825 142.744C70.3487 142.659 70.1515 141.947 69.6872 142.032C69.0827 142.143 68.493 141.756 68.1724 141.267C67.7872 140.687 67.7725 139.996 67.977 139.344C68.4525 137.832 69.8788 136.913 71.0435 135.962C73.1148 134.272 74.5743 131.943 75.2728 129.368C75.9601 126.84 75.9233 124.081 75.0369 121.606C74.5706 120.307 73.8888 119.01 72.8384 118.085C71.788 117.16 70.3616 116.738 68.9279 116.972C65.8246 117.48 64.0297 120.287 62.8153 122.92C62.6531 123.272 62.4965 123.628 62.338 123.982C62.2569 124.164 62.2845 124.378 62.4707 124.487C62.6273 124.579 62.8945 124.538 62.9756 124.354L62.9774 124.352Z" fill="#555A60"/>
<path d="M76.1222 147.24C76.3065 146.995 76.4908 146.748 76.6751 146.503C76.7285 146.431 76.734 146.3 76.7119 146.219C76.6898 146.138 76.6216 146.04 76.5424 145.998C76.4576 145.952 76.3526 145.93 76.2586 145.961L76.1701 145.998C76.1148 146.031 76.0706 146.075 76.0374 146.13C75.8532 146.376 75.6689 146.622 75.4846 146.868C75.4312 146.939 75.4256 147.07 75.4477 147.151C75.4699 147.232 75.538 147.33 75.6173 147.373C75.702 147.419 75.8071 147.441 75.9011 147.409L75.9895 147.373C76.0448 147.339 76.089 147.295 76.1222 147.24Z" fill="#555A60"/>
<path d="M35.805 25.2413C34.9333 20.8536 34.4321 16.405 34.3068 11.9472C34.2902 11.3778 34.2828 10.7955 34.4616 10.2518C34.6403 9.70819 35.0402 9.20141 35.6115 9.02266C36.2952 8.80889 37.036 9.10005 37.6828 9.40596C41.8089 11.3612 46.0916 14.4424 48.9112 17.9014C48.9112 17.9014 44.3741 19.5894 42.4797 20.8388C40.5853 22.0883 35.8068 25.2413 35.8068 25.2413H35.805Z" fill="#FAC985"/>
<path d="M100.427 25.2358C101.197 20.8296 101.597 16.37 101.621 11.9103C101.625 11.3409 101.619 10.7586 101.428 10.2205C101.236 9.68237 100.825 9.18297 100.25 9.01711C99.5609 8.81809 98.8274 9.12584 98.188 9.44833C94.108 11.4976 88.7306 14.6598 85.9922 18.1833C85.9922 18.1833 91.7326 19.781 93.6546 20.9881C95.5767 22.1933 100.427 25.2376 100.427 25.2376V25.2358Z" fill="#FAC985"/>
<path d="M28.0169 51.9881C23.5959 50.8953 19.0589 50.3682 14.5034 50.429C13.5267 50.4419 13.5231 51.9623 14.5034 51.9494C18.9281 51.8904 23.3158 52.3916 27.6114 53.455C28.5605 53.689 28.9659 52.2239 28.015 51.9881H28.0169Z" fill="#555A60"/>
<path d="M27.9302 58.9299C23.2678 59.1658 18.7382 60.2623 14.4739 62.1585C13.9155 62.4073 14.0463 63.1887 14.4739 63.4706L14.7595 63.6604C15.5777 64.2022 16.3406 62.8864 15.5261 62.3483L15.2405 62.1585V63.4706C19.2468 61.6886 23.5516 60.6732 27.9283 60.4502C28.9013 60.4005 28.9087 58.8801 27.9283 58.9299H27.9302Z" fill="#555A60"/>
<path d="M106.132 55.0783C111.784 54.4057 117.482 54.3098 123.155 54.789C124.129 54.8719 124.124 53.3497 123.155 53.2686C117.484 52.7895 111.784 52.8835 106.132 53.558C105.172 53.6722 105.161 55.1944 106.132 55.0783Z" fill="#555A60"/>
<path d="M104.42 61.9318C109.851 62.5455 115.205 63.9387 120.206 66.1537L120.388 64.7642C120.261 64.8177 120.132 64.873 120.005 64.9264C119.117 65.3005 119.508 66.7729 120.409 66.3933C120.536 66.3399 120.665 66.2846 120.792 66.2311C121.308 66.0137 121.649 65.1402 120.974 64.8416C115.708 62.5105 110.14 61.0602 104.422 60.4115C103.451 60.3009 103.46 61.8231 104.422 61.9318H104.42Z" fill="#555A60"/>
<path d="M80.5737 57.1665C82.7049 57.1665 84.4326 54.9512 84.4326 52.2185C84.4326 49.4858 82.7049 47.2705 80.5737 47.2705C78.4425 47.2705 76.7148 49.4858 76.7148 52.2185C76.7148 54.9512 78.4425 57.1665 80.5737 57.1665Z" fill="#555A60"/>
<path d="M53.619 57.2019C55.7212 56.8512 57.0608 54.3819 56.6112 51.6864C56.1616 48.991 54.093 47.0901 51.9909 47.4408C49.8887 47.7914 48.5491 50.2608 48.9987 52.9562C49.4483 55.6517 51.5169 57.5525 53.619 57.2019Z" fill="#555A60"/>
<path d="M62.7869 57.2474C62.6948 58.7364 64.3257 60.7174 66.5721 60.8593C68.8185 61.0012 70.6539 59.1418 70.7479 57.6528C70.8401 56.1638 69.1244 55.2443 66.878 55.1042C64.6316 54.9641 62.8809 55.7602 62.7869 57.2492V57.2474Z" fill="#555A60"/>
<path d="M66.2089 59.5862C66.2678 60.9518 66.2218 62.3173 66.2808 63.6828C66.3231 64.6577 67.8435 64.6632 67.8011 63.6828C67.7421 62.3173 67.7882 60.9518 67.7292 59.5862C67.6868 58.6114 66.1665 58.6059 66.2089 59.5862Z" fill="#555A60"/>
<path d="M36.907 79.6083C31.0229 75.9687 26.7678 70.1344 24.6173 63.62C23.1282 59.1088 22.6215 54.4722 23.1393 49.7509C23.6055 45.4995 24.6523 41.3089 26.0639 37.2768C26.9392 34.7761 27.9564 32.3178 29.1635 29.9571C29.3404 29.6107 29.6242 29.2347 29.7292 28.8533C29.8619 28.3723 29.7053 27.6978 29.6832 27.1947C29.6555 26.5903 29.6316 25.9877 29.6095 25.3832C29.5597 24.003 29.5247 22.6227 29.4934 21.2406C29.4362 18.6662 29.3975 16.0899 29.3164 13.5155C29.2483 11.3243 29.0105 9.10927 29.1082 6.91631C29.1819 5.24487 29.5192 3.20855 31.0229 2.20606C32.5266 1.20356 34.7141 1.76009 36.286 2.18947C40.7014 3.39836 44.5658 6.52195 48.0248 9.39307C49.9432 10.9853 51.751 12.7046 53.4298 14.5474C53.931 15.0984 54.4231 15.6605 54.8985 16.2355C55.0459 16.4124 55.1897 16.5911 55.3334 16.7717C55.4772 16.9523 55.3758 16.8233 55.4145 16.8749C55.608 17.1311 55.9323 17.3448 56.2733 17.2251C58.9085 16.2963 61.8718 15.9941 64.6378 15.8024C68.1945 15.5555 71.7327 15.8853 75.1935 16.7496C76.185 16.9966 77.1709 17.2822 78.1328 17.6268C78.6341 17.8056 78.9787 17.9604 79.4541 17.601C80.6944 16.6648 81.7319 15.2975 82.8283 14.201C85.0858 11.9454 87.4096 9.75058 89.855 7.69767C92.6064 5.38861 95.6304 2.89527 99.1392 1.89278C100.42 1.52606 101.905 1.30492 103.192 1.77668C104.367 2.2079 105.335 3.42969 105.941 4.47826C107.41 7.01767 106.829 10.4472 106.709 13.2575C106.503 18.0359 106.19 22.8107 105.808 27.578C105.788 27.8342 105.967 28.1143 106.184 28.2341C108.029 29.2495 109.564 31.8129 110.635 33.6557C113.224 38.1098 114.753 43.1259 115.404 48.225C115.885 51.9991 115.66 55.6055 114.917 59.3317C114.061 63.631 112.811 67.9377 110.954 71.9164C109.923 74.1222 108.672 76.1917 106.796 77.7839C106.17 78.3165 105.48 78.779 104.749 79.1531C104.507 79.2766 104.264 79.3909 104.008 79.4793C103.918 79.5106 103.422 79.6231 103.671 79.5936C102.711 79.7078 102.7 81.23 103.671 81.1139C104.762 80.9849 105.821 80.3602 106.709 79.7502C108.517 78.5081 109.995 76.8349 111.099 74.946C113.434 70.9452 114.868 66.3234 115.925 61.838C116.86 57.8796 117.457 53.8714 117.096 49.8043C116.637 44.6407 115.345 39.4735 113.003 34.8332C111.869 32.5887 110.531 30.3791 108.814 28.5289C108.274 27.9466 107.657 27.3108 106.953 26.922L107.329 27.578C107.673 23.2677 107.959 18.9518 108.167 14.6322C108.237 13.1764 108.298 11.7206 108.337 10.2629C108.377 8.72412 108.475 7.15219 108.068 5.65029C107.389 3.15511 105.342 0.499604 102.663 0.0868112C99.259 -0.43655 95.8497 1.36942 93.1555 3.24357C90.2475 5.26699 87.5515 7.59447 84.966 10.0123C83.0439 11.809 81.1956 13.6776 79.3565 15.5573C79.1316 15.7877 78.9105 16.0199 78.6801 16.2428C78.623 16.2981 78.5272 16.3589 78.4885 16.4271C78.4738 16.4529 78.4148 16.4732 78.4056 16.5008C78.4479 16.3755 79.0377 16.311 79.0561 16.3497C78.9308 16.0696 77.5007 15.8098 77.2298 15.7268C73.5497 14.6138 69.6522 14.0573 65.808 14.2121C62.5462 14.3447 58.973 14.6617 55.8697 15.7545L56.7284 16.1046C54.8266 13.591 52.5637 11.3096 50.1938 9.24196C46.8749 6.3432 43.2003 3.38178 39.1387 1.58871C36.1625 0.274779 31.4136 -1.04468 29.0529 2.00335C27.927 3.45549 27.6303 5.37571 27.5787 7.16694C27.5068 9.57366 27.7556 12.0062 27.8238 14.4129C27.8993 17.1071 27.9362 19.8013 28.0025 22.4937C28.0357 23.8168 28.0762 25.14 28.1315 26.4631C28.1463 26.8262 28.1628 27.1892 28.1794 27.5522C28.1794 27.5467 28.2974 28.5253 28.3379 28.2636C28.3324 28.3023 28.2863 28.3391 28.2753 28.3778C28.0818 29.0191 27.5971 29.6789 27.3059 30.2833C26.7089 31.5309 26.1578 32.7988 25.6419 34.0832C22.2916 42.4238 20.1926 51.8425 22.2382 60.7526C24.1215 68.9586 28.8926 76.4313 36.1386 80.913C36.9734 81.429 37.7381 80.1151 36.9052 79.6009L36.907 79.6083Z" fill="#555A60"/>
<path d="M60.8583 65.9999C63.0078 67.5194 66.3466 66.9732 67.4194 64.1744C67.8127 63.148 66.4573 62.2533 66.0602 63.2904C65.3157 65.2327 63.1471 65.543 61.6524 64.4868C60.7934 63.8811 60.0031 65.3964 60.8583 65.9999Z" fill="#555A60"/>
<path d="M72.4711 64.6942C70.9361 65.5825 68.4999 65.4314 67.6632 63.6567C67.2467 62.7722 65.9347 63.5425 66.3511 64.4233C67.5416 66.948 71.0356 67.2815 73.2378 66.0063C74.0836 65.5161 73.3188 64.2022 72.4711 64.6942Z" fill="#555A60"/>
<path opacity="0.5" d="M112.363 145.266H23.0742C18.136 145.266 14.1328 149.269 14.1328 154.207V154.698C14.1328 159.636 18.136 163.639 23.0742 163.639H112.363C117.301 163.639 121.304 159.636 121.304 154.698V154.207C121.304 149.269 117.301 145.266 112.363 145.266Z" fill="#5E331A"/>
<path d="M105.746 80.3988L103.596 81.2889L105.562 83.1317L109.08 87.4199L125.42 86.7234L117.421 80.0376L105.746 80.3988Z" fill="#BA8E5C"/>
<path d="M12.7168 86.5485L22.3492 78.8713L36.0598 78.7681L35.507 80.9168L37.7184 79.5697L31.7734 86.5485L30.1941 86.2555L12.7168 86.5485Z" fill="#BA8E5C"/>
<path d="M117.9 160.569H17.5342C16.0562 160.569 14.8584 159.371 14.8584 157.893V87.833H120.225L120.577 157.881C120.585 159.364 119.385 160.571 117.902 160.571L117.9 160.569Z" fill="#E9C294" stroke="#555A60" stroke-width="1.28998" stroke-linecap="round" stroke-linejoin="round"/>
<path d="M20.1712 114.751C32.6692 114.751 45.1672 114.751 57.6652 114.751C70.1633 114.751 82.7829 114.751 95.3436 114.751C102.389 114.751 109.434 114.751 116.479 114.751C118.069 114.751 119.593 113.352 119.52 111.71C119.446 110.068 118.184 108.669 116.479 108.669C103.981 108.669 91.4829 108.669 78.9849 108.669C66.4868 108.669 53.8672 108.669 41.3065 108.669C34.2614 108.669 27.2163 108.669 20.1712 108.669C18.5808 108.669 17.0568 110.068 17.1305 111.71C17.2042 113.352 18.4665 114.751 20.1712 114.751Z" fill="#B18F7B"/>
<path d="M105.782 79.6045L116.658 79.6837L126.419 86.9113L10.751 87.1011L22.5874 78.9927L31.1897 79.0553" stroke="#555A60" stroke-width="1.10569" stroke-linecap="round" stroke-linejoin="round"/>
<path d="M67.3402 137.41C66.2124 137.41 65.2983 136.496 65.2983 135.368V134.882C65.2983 130.31 71.0074 129.337 71.0074 125.704C71.0074 124.05 70.1302 123.11 68.1529 123.11C66.5496 123.11 65.4476 123.943 64.6718 125.758C64.2424 126.762 63.1256 127.282 62.0973 126.915L61.1446 126.576C60.085 126.198 59.5432 125.037 59.897 123.97C60.9824 120.709 63.5679 118.213 68.1529 118.213C72.4006 118.213 76.4548 120.386 76.4548 125.736C76.4548 131.996 70.7457 133.131 70.7457 134.946V135.368C70.7457 136.496 69.8317 137.41 68.7039 137.41H67.3402ZM65.0717 142.922C65.0717 141.107 66.1092 139.843 68.0865 139.843C70.0639 139.843 71.1014 141.107 71.1014 142.922C71.1014 144.737 70.0639 146.003 68.0865 146.003C66.1092 146.003 65.0717 144.739 65.0717 142.922Z" fill="#B1724E"/>
<path d="M1.99174 111.189H136.499C137.574 111.189 138.268 110.052 137.778 109.096L126.832 87.7888C126.585 87.3097 126.091 87.0074 125.551 87.0093L11.6408 87.1659C11.0787 87.1659 10.5682 87.4958 10.336 88.0063L0.683331 109.154C0.248425 110.105 0.945012 111.187 1.98989 111.187L1.99174 111.189Z" fill="#EAC294" stroke="#555A60" stroke-width="1.10569" stroke-linecap="round" stroke-linejoin="round"/>
<path d="M28.6312 92.8158C30.7873 96.166 34.777 98.1673 38.7612 98.1802C42.7454 98.1931 46.6374 96.3134 49.3316 93.3797C50.9791 91.5866 52.223 89.3697 52.5897 86.963C52.9565 84.5562 52.3815 81.9634 50.7985 80.115C48.6959 77.6622 45.2148 76.8606 41.9843 76.9104C37.4602 76.9785 30.9384 79.1586 28.6109 82.1532C26.2834 85.1478 26.4769 89.4655 28.6312 92.8158Z" fill="white"/>
<path d="M27.959 93.0756C30.9535 97.5961 36.5871 99.6361 41.8299 98.4733C47.1575 97.2902 52.2474 92.8508 53.2572 87.3426C53.6884 84.9893 53.4913 82.5218 52.1239 80.4984C50.7473 78.4621 48.6962 77.1444 46.3337 76.5234C41.524 75.2574 36.0047 76.4497 31.6704 78.7182C29.3171 79.9511 27.3987 81.6907 26.5805 84.2872C25.6481 87.245 26.3465 90.4939 27.959 93.0775C28.4768 93.9049 29.7926 93.1438 29.271 92.3109C27.9626 90.2156 27.3066 87.6706 27.8981 85.2252C28.3957 83.1686 29.6949 81.6741 31.4658 80.5832C34.982 78.4178 39.5245 77.2661 43.6451 77.6033C47.7656 77.9405 52.0189 80.5905 51.9525 85.2639C51.8806 90.3114 47.9315 94.6844 43.3723 96.4259C38.3451 98.348 32.3228 96.9179 29.2729 92.3109C28.7348 91.4982 27.4172 92.2593 27.9608 93.0775L27.959 93.0756Z" fill="#555A60"/>
<path d="M84.9278 88.8429C85.3701 84.8845 88.0551 81.3168 91.6172 79.5348C95.1794 77.7528 99.5027 77.7067 103.22 79.1367C105.492 80.0102 107.591 81.444 108.99 83.4361C110.388 85.4281 111.026 88.0081 110.429 90.3669C109.636 93.4979 106.874 95.7645 103.959 97.1559C99.8749 99.1056 93.0639 100.053 89.6473 98.4035C86.2307 96.7541 84.4837 92.8013 84.926 88.8429H84.9278Z" fill="white"/>
<path d="M85.9784 86.1798C87.6462 81.8068 92.0561 78.9081 96.6871 78.7956C101.318 78.6832 106.578 81.289 108.822 85.6307C110.046 87.9969 110.232 90.9951 108.876 93.3503C107.744 95.3184 105.715 96.5936 103.62 97.3381C99.7369 98.7184 95.152 98.6686 91.2176 97.5058C89.0725 96.8719 87.2721 95.7515 86.2198 93.7151C85.0109 91.3784 85.1178 88.6068 85.9766 86.1798C86.3028 85.2547 84.834 84.8585 84.5097 85.7763C82.8843 90.3741 84.1411 96.0869 88.8717 98.2485C93.1507 100.206 98.7566 100.403 103.238 99.0593C105.667 98.3314 108.03 97.0617 109.587 95.0106C111.314 92.7366 111.719 89.7181 110.976 86.9925C109.502 81.582 103.974 77.983 98.622 77.3656C92.6126 76.6727 86.6824 80.0893 84.5115 85.7763C84.1633 86.6903 85.632 87.0865 85.9784 86.1798Z" fill="#555A60"/>
<path d="M36.609 91.9442C36.6901 93.542 36.773 95.1415 36.8541 96.7393C36.9205 98.0366 38.9476 98.0458 38.8812 96.7393C38.8001 95.1415 38.7172 93.542 38.6361 91.9442C38.5698 90.6469 36.5427 90.6377 36.609 91.9442Z" fill="#555A60"/>
<path d="M43.8296 91.0302C43.9992 92.3718 44.1687 93.7115 44.3383 95.0531C44.4083 95.6004 44.7547 96.0611 45.3518 96.0666C45.8457 96.0722 46.4336 95.5967 46.3654 95.0531C46.1958 93.7115 46.0263 92.3718 45.8567 91.0302C45.7867 90.4829 45.4403 90.0222 44.8432 90.0166C44.3493 90.0111 43.7615 90.4866 43.8296 91.0302Z" fill="#555A60"/>
<path d="M93.3866 91.5997C92.9112 93.531 92.4357 95.4641 91.9603 97.3954C91.6488 98.6614 93.6022 99.2032 93.9155 97.9335C94.391 96.0022 94.8664 94.0691 95.3419 92.1378C95.6533 90.8718 93.6999 90.33 93.3866 91.5997Z" fill="#555A60"/>
<path d="M100.64 92.5909C100.144 94.3121 99.6484 96.0333 99.1527 97.7526C98.7915 99.0094 100.747 99.5438 101.108 98.2907C101.604 96.5695 102.099 94.8483 102.595 93.129C102.956 91.8722 101.001 91.3378 100.64 92.5909Z" fill="#555A60"/>
</g>
<defs>
<clipPath id="clip0_2126_61859">
<rect width="138.49" height="163.639" fill="white"/>
</clipPath>
</defs>
</svg>
