<svg width="71" height="58" viewBox="0 0 71 58" fill="none" xmlns="http://www.w3.org/2000/svg">
<path d="M12.8758 16.6571C14.7773 15.3755 21.0154 11.2833 21.0154 11.2833C21.0154 11.2833 19.2599 9.42646 18.4582 8.79459C17.6535 8.15975 16.8189 7.51001 15.7758 7.37291C15.3764 7.31926 14.9651 7.35801 14.5925 7.51299C13.4629 7.98092 13.3437 9.0986 13.2692 10.109C13.1172 12.1953 12.9711 14.2816 12.8311 16.368" fill="#A6ACB2"/>
<path d="M48.7515 11.0739C51.5919 11.7773 54.2802 12.9814 56.6169 14.5968C56.76 12.1618 56.9031 9.72971 57.0431 7.29467C57.0759 6.7552 57.0282 6.07863 56.3517 5.94451C56.1341 5.90278 55.9076 5.93557 55.6989 6.01306C52.9152 7.02642 50.4772 8.79384 48.7723 11.0232" fill="#A6ACB2"/>
<path d="M1.16823 34.7119C5.26638 33.8357 9.41222 34.2231 13.3017 35.764C14.4194 36.2051 14.9023 34.4019 13.7965 33.9638C9.59403 32.3007 5.0816 31.9669 0.670495 32.9117C-0.503812 33.1621 -0.00607194 34.9623 1.16525 34.7119H1.16823Z" fill="#A6ACB2"/>
<path d="M2.50922 42.4085C5.86821 40.4861 9.73389 39.887 13.5131 40.7335C14.6845 40.9958 15.1822 39.1956 14.0079 38.9333C9.73687 37.9795 5.36749 38.6233 1.56739 40.7961C0.524222 41.3922 1.46307 43.0046 2.50922 42.4085Z" fill="#A6ACB2"/>
<path d="M57.3414 34.2119C61.4842 32.8707 65.8029 32.987 69.8743 34.5249C70.9979 34.9511 71.4837 33.1479 70.369 32.7247C66.0146 31.0795 61.2696 30.9751 56.8436 32.4117C55.7051 32.7813 56.1939 34.5845 57.3384 34.2119H57.3414Z" fill="#A6ACB2"/>
<path d="M57.4426 37.6804C61.4067 38.354 65.2455 39.5134 68.8996 41.1914C69.9844 41.6892 70.9322 40.0797 69.8414 39.579C66.0353 37.8324 62.0683 36.5806 57.9374 35.8802C56.7631 35.6805 56.2564 37.4777 57.4426 37.6804Z" fill="#A6ACB2"/>
<path d="M23.4532 27.8305L28.3621 31.7558C29.292 32.4979 30.6213 31.1865 29.6824 30.4354L24.7736 26.5101C23.8437 25.768 22.5144 27.0794 23.4532 27.8305Z" fill="#A6ACB2"/>
<path d="M26.088 32.459C26.6215 30.331 27.5574 28.4145 28.8837 26.6709C29.6109 25.7142 27.9895 24.7843 27.2712 25.7291C25.8525 27.5919 24.8571 29.6931 24.2878 31.9643C23.9957 33.1296 25.7959 33.6274 26.088 32.459Z" fill="#A6ACB2"/>
<path d="M45.6341 26.5101C43.9978 27.8185 42.3615 29.127 40.7252 30.4354C39.7864 31.1865 41.1157 32.4979 42.0456 31.7558C43.6819 30.4473 45.3181 29.1389 46.9544 27.8305C47.8933 27.0794 46.564 25.768 45.6341 26.5101Z" fill="#A6ACB2"/>
<path d="M46.1197 31.9613C45.5504 29.6932 44.5549 27.589 43.1362 25.7262C42.4179 24.7814 40.7966 25.7113 41.5238 26.668C42.8501 28.4116 43.786 30.328 44.3195 32.4561C44.6116 33.6215 46.4118 33.1267 46.1197 31.9613Z" fill="#A6ACB2"/>
<path d="M34.4244 32.5575C34.4334 33.4307 34.4453 34.301 34.4542 35.1743C34.4721 36.7748 36.9608 36.7778 36.9429 35.1743C36.934 34.301 36.9221 33.4307 36.9131 32.5575C36.8952 30.9569 34.4065 30.954 34.4244 32.5575Z" fill="#A6ACB2"/>
<path d="M31.9922 38.1103C34.2961 36.0359 37.4286 36.0508 39.8577 37.9016C40.8115 38.6289 41.7443 37.0105 40.7995 36.2892C37.6879 33.9167 33.548 34.1969 30.6719 36.7899C29.7777 37.5947 31.1011 38.912 31.9922 38.1103Z" fill="#A6ACB2"/>
<path d="M32.8476 30.8729C32.8715 31.8654 34.0726 33.0844 35.5688 33.0456C37.065 33.0069 38.1767 31.6687 38.1499 30.6762C38.1261 29.6837 36.9339 29.174 35.4347 29.2098C33.9355 29.2455 32.8208 29.8774 32.8476 30.8699V30.8729Z" fill="#A6ACB2"/>
<path d="M42.7576 10.5081C37.196 8.48134 31.1636 8.72574 25.7391 11.0475L27.0147 11.3813C24.7287 8.39789 22.1893 5.26243 19.0509 3.14629C16.9944 1.76037 14.2523 0.60097 11.8292 1.76335C9.75183 2.75585 9.06036 4.94352 8.79808 7.07158C8.50599 9.45298 8.37783 11.8672 8.17814 14.2575C8.08575 15.3692 7.99335 16.4779 7.89798 17.5897C7.84731 18.2007 7.64463 18.9845 7.72809 19.5955C7.77875 19.9502 8.00527 19.1485 7.7877 19.3452C7.6506 19.4703 7.54032 19.7446 7.44792 19.9025C6.91442 20.7996 6.42264 21.7266 5.97259 22.6684C4.76848 25.1869 3.7879 27.8544 3.45111 30.6412C2.74772 36.4501 4.23497 43.0876 7.79962 47.7759C11.1228 52.1483 16.13 55.0244 21.3697 56.4729C28.1473 58.3476 35.369 58.0764 42.3075 57.4714C48.3728 56.9438 54.6884 55.8202 59.645 52.038C64.6641 48.2081 67.6982 42.0921 68.0618 35.8212C68.4582 28.9483 65.6089 22.2154 60.9534 17.2469C60.3275 16.5763 59.1055 17.2678 59.3946 18.156L59.4453 18.3139C59.7254 19.1753 60.9862 19.2259 61.2455 18.3139C62.2827 14.6748 62.6463 10.8717 62.2082 7.10734C61.925 4.69018 61.5465 0.943724 58.7329 0.133035C57.3381 -0.269329 55.9402 0.314844 54.6884 0.901998C53.1207 1.63519 51.6036 2.48761 50.1521 3.43242C47.3147 5.27733 44.7336 7.48884 42.4506 9.98052C41.6399 10.8657 42.9573 12.1891 43.771 11.3009C45.6159 9.28905 47.6366 7.45308 49.866 5.8764C51.9166 4.42491 54.3606 2.72903 56.8046 2.04054C60.2142 1.08082 60.3603 6.57682 60.4855 8.76448C60.6613 11.8344 60.2887 14.8685 59.4453 17.8221H61.2455L61.1948 17.6642L59.636 18.5732C67.269 26.7278 68.8099 39.8777 60.8729 48.4227C56.8284 52.7771 51.0672 54.5386 45.3268 55.2927C39.5864 56.0467 33.4168 56.3954 27.578 55.7546C21.7393 55.1138 16.3238 53.3136 12.0051 49.5523C7.68636 45.7909 5.69243 40.6496 5.2543 35.1417C4.85193 30.0779 6.41072 25.3747 8.95008 21.0381C10.1572 18.9786 9.88297 16.2067 10.0797 13.87C10.2734 11.5751 10.3449 9.22944 10.6847 6.95236C10.8635 5.75719 11.1854 4.42492 12.2286 3.69172C13.6592 2.6873 15.5101 3.27445 16.9109 4.02553C19.1314 5.21474 20.9107 7.08648 22.5768 8.94034C23.2474 9.68843 23.9001 10.4514 24.535 11.2293C24.7704 11.5155 25.0029 11.8046 25.2324 12.0967C25.301 12.1831 25.5603 12.5199 25.4112 12.3232C25.748 12.7643 26.1713 12.8775 26.6869 12.657C31.6553 10.5319 37.208 10.4604 42.2658 12.3053C43.3954 12.7166 43.8842 10.9134 42.7606 10.5051L42.7576 10.5081Z" fill="#A6ACB2"/>
</svg>
