<svg width="139" height="164" viewBox="0 0 139 164" fill="none" xmlns="http://www.w3.org/2000/svg">
<g clip-path="url(#clip0_2126_110824)">
<path d="M107.53 27.5741C113.418 34.6064 116.834 43.7136 117.041 52.9296C117.247 62.1474 114.243 71.4094 108.676 78.7198C108.676 78.7198 97.1365 91.9255 55.4685 86.9794C53.1778 86.7085 36.3326 84.1599 28.9558 73.9414C21.5808 63.7248 20.1139 45.5361 27.7155 33.3993L30.0412 29.4114C29.6818 22.7681 29.3225 16.1265 28.965 9.48315C28.8065 6.55675 28.9852 2.98352 31.5431 1.59772C33.5075 0.534407 35.9161 1.35999 37.9377 2.29799C40.748 3.60271 45.7476 6.27664 49.4332 9.38917C53.8892 13.1522 56.6589 16.8729 56.6589 16.8729C61.0024 15.2733 65.8638 15.1093 70.4635 15.5571L79.3625 17.457C79.3625 17.457 85.6299 12.1092 89.8703 7.82277C93.5762 4.07631 98.1058 0.661561 102.103 0.928771C104.934 1.11858 108.595 5.47317 108.116 8.34982C107.539 11.8199 107.945 15.5331 107.641 19.7127C107.337 23.8922 107.526 27.5668 107.526 27.5668L107.53 27.5741Z" fill="white"/>
<path d="M51.1398 140.073C51.6134 140.073 51.6152 139.336 51.1398 139.336C50.6643 139.336 50.6643 140.073 51.1398 140.073Z" fill="#555A60"/>
<path d="M63.4872 124.523C64.6353 121.928 65.999 118.91 68.9493 118.012C70.2448 117.618 71.6306 117.788 72.6958 118.663C73.7609 119.538 74.4151 120.775 74.8574 122.033C75.7106 124.46 75.7217 127.134 74.9993 129.596C74.64 130.824 74.0982 131.992 73.385 133.054C72.6221 134.191 71.6601 135.118 70.5894 135.963C69.399 136.905 68.144 137.928 67.7331 139.461C67.5433 140.167 67.5746 140.921 67.91 141.578C68.214 142.176 68.7614 142.669 69.4045 142.87C69.7288 142.97 70.0606 142.975 70.3923 142.915C70.8585 142.83 70.6613 142.118 70.1969 142.203C69.5925 142.314 69.0028 141.927 68.6821 141.438C68.297 140.858 68.2822 140.167 68.4868 139.514C68.9622 138.003 70.3886 137.084 71.5532 136.133C73.6246 134.443 75.0841 132.114 75.7825 129.539C76.4699 127.011 76.433 124.252 75.5466 121.777C75.0804 120.478 74.3986 119.181 73.3482 118.256C72.2977 117.331 70.8714 116.909 69.4377 117.143C66.3344 117.651 64.5395 120.458 63.325 123.091C63.1629 123.443 63.0062 123.799 62.8477 124.153C62.7667 124.335 62.7943 124.549 62.9804 124.658C63.1371 124.75 63.4043 124.709 63.4854 124.525L63.4872 124.523Z" fill="#555A60"/>
<path d="M76.632 147.411C76.8163 147.166 77.0005 146.919 77.1848 146.674C77.2383 146.602 77.2438 146.471 77.2217 146.39C77.1996 146.309 77.1314 146.211 77.0521 146.169C76.9674 146.123 76.8623 146.1 76.7683 146.132L76.6799 146.169C76.6246 146.202 76.5804 146.246 76.5472 146.301C76.3629 146.546 76.1786 146.793 75.9944 147.038C75.9409 147.11 75.9354 147.241 75.9575 147.322C75.9796 147.403 76.0478 147.501 76.127 147.543C76.2118 147.589 76.3169 147.612 76.4108 147.58L76.4993 147.543C76.5546 147.51 76.5988 147.466 76.632 147.411Z" fill="#555A60"/>
<path d="M36.3148 25.4122C35.4431 21.0245 34.9419 16.5759 34.8166 12.1181C34.8 11.5487 34.7926 10.9663 34.9713 10.4227C35.1501 9.87908 35.55 9.37231 36.1213 9.19355C36.805 8.97979 37.5458 9.27095 38.1926 9.57686C42.3187 11.5321 46.6014 14.6133 49.4209 18.0723C49.4209 18.0723 44.8839 19.7603 42.9895 21.0097C41.095 22.2592 36.3166 25.4122 36.3166 25.4122H36.3148Z" fill="#FAC985"/>
<path d="M100.937 25.4067C101.707 21.0005 102.107 16.5409 102.131 12.0812C102.135 11.5118 102.129 10.9295 101.937 10.3914C101.746 9.85327 101.335 9.35387 100.76 9.18801C100.071 8.98899 99.3372 9.29674 98.6978 9.61923C94.6177 11.6685 89.2404 14.8307 86.502 18.3542C86.502 18.3542 92.2423 19.9519 94.1644 21.159C96.0865 22.3642 100.937 25.4085 100.937 25.4085V25.4067Z" fill="#FAC985"/>
<path d="M28.5266 52.1595C24.1057 51.0667 19.5687 50.5396 15.0132 50.6004C14.0365 50.6133 14.0328 52.1337 15.0132 52.1208C19.4378 52.0618 23.8256 52.563 28.1212 53.6263C29.0703 53.8604 29.4757 52.3953 28.5248 52.1595H28.5266Z" fill="#555A60"/>
<path d="M28.4399 59.1008C23.7776 59.3367 19.2479 60.4332 14.9836 62.3294C14.4253 62.5782 14.5561 63.3596 14.9836 63.6415L15.2693 63.8313C16.0875 64.3731 16.8504 63.0573 16.0359 62.5192L15.7502 62.3294V63.6415C19.7565 61.8595 24.0614 60.8441 28.4381 60.6211C29.4111 60.5714 29.4185 59.051 28.4381 59.1008H28.4399Z" fill="#555A60"/>
<path d="M106.642 55.2492C112.294 54.5766 117.992 54.4807 123.664 54.9599C124.639 55.0428 124.634 53.5206 123.664 53.4395C117.994 52.9604 112.294 53.0544 106.642 53.7289C105.682 53.8431 105.671 55.3653 106.642 55.2492Z" fill="#555A60"/>
<path d="M104.93 62.1032C110.361 62.7169 115.714 64.1101 120.716 66.3251L120.898 64.9356C120.771 64.9891 120.642 65.0444 120.515 65.0978C119.627 65.4719 120.017 66.9443 120.918 66.5647C121.046 66.5112 121.175 66.456 121.302 66.4025C121.818 66.1851 122.159 65.3116 121.484 65.013C116.217 62.6819 110.65 61.2316 104.932 60.5829C103.961 60.4723 103.97 61.9945 104.932 62.1032H104.93Z" fill="#555A60"/>
<path d="M81.0835 57.3374C83.2147 57.3374 84.9424 55.1221 84.9424 52.3894C84.9424 49.6567 83.2147 47.4414 81.0835 47.4414C78.9523 47.4414 77.2246 49.6567 77.2246 52.3894C77.2246 55.1221 78.9523 57.3374 81.0835 57.3374Z" fill="#555A60"/>
<path d="M54.1288 57.3723C56.231 57.0216 57.5706 54.5523 57.121 51.8568C56.6714 49.1614 54.6028 47.2605 52.5006 47.6112C50.3985 47.9618 49.0588 50.4312 49.5084 53.1266C49.958 55.8221 52.0267 57.7229 54.1288 57.3723Z" fill="#555A60"/>
<path d="M63.2967 57.4188C63.2045 58.9078 64.8354 60.8888 67.0818 61.0307C69.3282 61.1726 71.1637 59.3132 71.2577 57.8242C71.3498 56.3352 69.6342 55.4156 67.3878 55.2756C65.1414 55.1355 63.3907 55.9316 63.2967 57.4206V57.4188Z" fill="#555A60"/>
<path d="M66.7186 59.7567C66.7776 61.1222 66.7315 62.4877 66.7905 63.8532C66.8329 64.8281 68.3532 64.8336 68.3108 63.8532C68.2519 62.4877 68.2979 61.1222 68.239 59.7567C68.1966 58.7818 66.6763 58.7763 66.7186 59.7567Z" fill="#555A60"/>
<path d="M37.4168 79.7792C31.5327 76.1396 27.2776 70.3053 25.127 63.7909C23.638 59.2797 23.1312 54.6431 23.6491 49.9218C24.1153 45.6704 25.162 41.4798 26.5736 37.4477C27.449 34.947 28.4662 32.4887 29.6733 30.128C29.8502 29.7816 30.134 29.4056 30.239 29.0242C30.3717 28.5432 30.2151 27.8687 30.1929 27.3656C30.1653 26.7612 30.1413 26.1586 30.1192 25.5541C30.0695 24.1739 30.0345 22.7936 30.0031 21.4115C29.946 18.8371 29.9073 16.2608 29.8262 13.6864C29.758 11.4952 29.5203 9.28017 29.618 7.08721C29.6917 5.41577 30.0289 3.37945 31.5327 2.37696C33.0364 1.37446 35.2238 1.93099 36.7958 2.36037C41.2112 3.56926 45.0756 6.69285 48.5346 9.56397C50.4529 11.1562 52.2607 12.8755 53.9395 14.7183C54.4408 15.2693 54.9328 15.8314 55.4083 16.4064C55.5557 16.5833 55.6994 16.762 55.8432 16.9426C55.9869 17.1232 55.8856 16.9942 55.9243 17.0458C56.1178 17.302 56.4421 17.5157 56.783 17.396C59.4183 16.4672 62.3815 16.165 65.1476 15.9733C68.7042 15.7264 72.2425 16.0562 75.7033 16.9205C76.6947 17.1675 77.6806 17.4531 78.6426 17.7977C79.1438 17.9765 79.4884 18.1313 79.9639 17.7719C81.2041 16.8357 82.2416 15.4684 83.3381 14.3719C85.5956 12.1163 87.9194 9.92147 90.3648 7.86857C93.1161 5.55951 96.1402 3.06617 99.6489 2.06368C100.93 1.69695 102.415 1.47582 103.701 1.94758C104.877 2.3788 105.845 3.60059 106.451 4.64916C107.92 7.18857 107.339 10.6181 107.219 13.4284C107.013 18.2068 106.7 22.9816 106.318 27.7489C106.298 28.0051 106.477 28.2852 106.694 28.405C108.539 29.4204 110.074 31.9838 111.144 33.8266C113.734 38.2807 115.263 43.2968 115.914 48.3959C116.395 52.17 116.17 55.7764 115.427 59.5026C114.57 63.8019 113.321 68.1086 111.463 72.0873C110.433 74.2931 109.182 76.3626 107.306 77.9548C106.679 78.4874 105.99 78.9499 105.258 79.324C105.017 79.4475 104.774 79.5618 104.518 79.6502C104.427 79.6815 103.932 79.794 104.18 79.7645C103.22 79.8787 103.209 81.4009 104.18 81.2848C105.271 81.1558 106.331 80.5311 107.219 79.9211C109.027 78.679 110.505 77.0058 111.609 75.1169C113.944 71.1161 115.377 66.4943 116.435 62.0089C117.37 58.0505 117.967 54.0423 117.605 49.9752C117.147 44.8116 115.855 39.6444 113.512 35.0041C112.379 32.7596 111.041 30.55 109.324 28.6998C108.784 28.1175 108.166 27.4817 107.463 27.0929L107.838 27.7489C108.183 23.4386 108.469 19.1227 108.677 14.8031C108.747 13.3473 108.808 11.8915 108.846 10.4338C108.887 8.89502 108.985 7.32309 108.577 5.82119C107.899 3.32601 105.852 0.670502 103.172 0.25771C99.7687 -0.265652 96.3595 1.54031 93.6653 3.41447C90.7573 5.43789 88.0613 7.76537 85.4758 10.1832C83.5537 11.9799 81.7054 13.8485 79.8662 15.7282C79.6414 15.9586 79.4203 16.1908 79.1899 16.4137C79.1328 16.469 79.037 16.5298 78.9983 16.598C78.9835 16.6238 78.9245 16.6441 78.9153 16.6717C78.9577 16.5464 79.5474 16.4819 79.5658 16.5206C79.4405 16.2405 78.0105 15.9807 77.7396 15.8977C74.0595 14.7847 70.1619 14.2282 66.3178 14.3829C63.056 14.5156 59.4828 14.8326 56.3795 15.9254L57.2382 16.2755C55.3364 13.7619 53.0734 11.4805 50.7036 9.41285C47.3846 6.51409 43.71 3.55268 39.6485 1.75961C36.6723 0.445678 31.9233 -0.873784 29.5627 2.17425C28.4367 3.62639 28.14 5.54661 28.0884 7.33784C28.0166 9.74456 28.2653 12.1771 28.3335 14.5838C28.4091 17.278 28.4459 19.9722 28.5123 22.6646C28.5455 23.9877 28.586 25.3109 28.6413 26.634C28.656 26.9971 28.6726 27.3601 28.6892 27.7231C28.6892 27.7176 28.8071 28.6962 28.8477 28.4345C28.8421 28.4732 28.7961 28.51 28.785 28.5487C28.5915 29.19 28.1069 29.8498 27.8157 30.4542C27.2186 31.7018 26.6676 32.9697 26.1516 34.2541C22.8014 42.5947 20.7024 52.0134 22.7479 60.9235C24.6313 69.1295 29.4024 76.6022 36.6483 81.0839C37.4831 81.5999 38.2479 80.286 37.415 79.7718L37.4168 79.7792Z" fill="#555A60"/>
<path d="M61.368 66.1708C63.5176 67.6903 66.8564 67.1441 67.9292 64.3453C68.3225 63.3189 66.9671 62.4242 66.57 63.4613C65.8255 65.4036 63.6569 65.7139 62.1622 64.6577C61.3031 64.052 60.5128 65.5673 61.368 66.1708Z" fill="#555A60"/>
<path d="M72.9809 64.8656C71.4458 65.7539 69.0096 65.6027 68.173 63.8281C67.7565 62.9435 66.4444 63.7138 66.8609 64.5947C68.0514 67.1194 71.5454 67.4529 73.7475 66.1777C74.5934 65.6875 73.8286 64.3736 72.9809 64.8656Z" fill="#555A60"/>
<path opacity="0.5" d="M112.872 145.438H23.584C18.6458 145.438 14.6426 149.441 14.6426 154.379V154.869C14.6426 159.807 18.6458 163.81 23.584 163.81H112.872C117.811 163.81 121.814 159.807 121.814 154.869V154.379C121.814 149.441 117.811 145.438 112.872 145.438Z" fill="#5E331A"/>
<path d="M106.256 80.5702L104.105 81.4603L106.072 83.3031L109.59 87.5913L125.93 86.8947L117.93 80.209L106.256 80.5702Z" fill="#BA8E5C"/>
<path d="M13.2266 86.7189L22.859 79.0417L36.5696 78.9385L36.0168 81.0872L38.2281 79.7401L32.2832 86.7189L30.7039 86.4259L13.2266 86.7189Z" fill="#BA8E5C"/>
<path d="M118.41 160.74H18.0439C16.566 160.74 15.3682 159.542 15.3682 158.064V88.0039H120.735L121.087 158.051C121.095 159.535 119.895 160.742 118.411 160.742L118.41 160.74Z" fill="#E9C294" stroke="#555A60" stroke-width="1.28998" stroke-linecap="round" stroke-linejoin="round"/>
<path d="M20.6809 114.922C33.1789 114.922 45.677 114.922 58.175 114.922C70.673 114.922 83.2927 114.922 95.8534 114.922C102.898 114.922 109.944 114.922 116.989 114.922C118.579 114.922 120.103 113.523 120.029 111.881C119.956 110.24 118.693 108.841 116.989 108.841C104.491 108.841 91.9926 108.841 79.4946 108.841C66.9966 108.841 54.3769 108.841 41.8163 108.841C34.7711 108.841 27.726 108.841 20.6809 108.841C19.0906 108.841 17.5666 110.24 17.6403 111.881C17.714 113.523 18.9763 114.922 20.6809 114.922Z" fill="#B18F7B"/>
<path d="M106.291 79.7759L117.168 79.8551L126.929 87.0827L11.2607 87.2725L23.0972 79.1641L31.6995 79.2267" stroke="#555A60" stroke-width="1.10569" stroke-linecap="round" stroke-linejoin="round"/>
<path d="M67.8499 137.581C66.7221 137.581 65.8081 136.667 65.8081 135.54V135.053C65.8081 130.481 71.5172 129.508 71.5172 125.876C71.5172 124.221 70.64 123.281 68.6626 123.281C67.0594 123.281 65.9574 124.114 65.1815 125.929C64.7522 126.934 63.6354 127.453 62.6071 127.087L61.6544 126.747C60.5947 126.37 60.053 125.209 60.4068 124.142C61.4922 120.88 64.0777 118.385 68.6626 118.385C72.9103 118.385 76.9645 120.557 76.9645 125.907C76.9645 132.167 71.2555 133.302 71.2555 135.118V135.54C71.2555 136.667 70.3414 137.581 69.2136 137.581H67.8499ZM65.5814 143.093C65.5814 141.278 66.6189 140.014 68.5963 140.014C70.5736 140.014 71.6111 141.278 71.6111 143.093C71.6111 144.909 70.5736 146.175 68.5963 146.175C66.6189 146.175 65.5814 144.91 65.5814 143.093Z" fill="#B1724E"/>
<path d="M2.5015 111.359H137.009C138.084 111.359 138.778 110.222 138.288 109.266L127.342 87.9592C127.095 87.4801 126.601 87.1779 126.061 87.1797L12.1505 87.3363C11.5885 87.3363 11.078 87.6662 10.8458 88.1767L1.1931 109.325C0.758191 110.276 1.45478 111.358 2.49966 111.358L2.5015 111.359Z" fill="#EAC294" stroke="#555A60" stroke-width="1.10569" stroke-linecap="round" stroke-linejoin="round"/>
<path d="M29.141 92.9867C31.2971 96.3369 35.2868 98.3382 39.271 98.3511C43.2551 98.364 47.1472 96.4843 49.8414 93.5506C51.4889 91.7575 52.7328 89.5406 53.0995 87.1339C53.4662 84.7271 52.8913 82.1343 51.3083 80.2859C49.2056 77.8331 45.7245 77.0315 42.4941 77.0813C37.9699 77.1494 31.4482 79.3295 29.1207 82.3241C26.7932 85.3187 26.9867 89.6364 29.141 92.9867Z" fill="white"/>
<path d="M28.4687 93.2465C31.4633 97.767 37.0968 99.807 42.3397 98.6442C47.6673 97.4611 52.7571 93.0217 53.767 87.5135C54.1982 85.1602 54.001 82.6927 52.6337 80.6693C51.2571 78.633 49.206 77.3153 46.8435 76.6943C42.0337 75.4283 36.5145 76.6206 32.1802 78.8891C29.8269 80.122 27.9085 81.8616 27.0903 84.4581C26.1578 87.4159 26.8563 90.6647 28.4687 93.2484C28.9866 94.0758 30.3023 93.3147 29.7808 92.4818C28.4724 90.3865 27.8164 87.8415 28.4079 85.3961C28.9055 83.3395 30.2047 81.845 31.9756 80.754C35.4917 78.5887 40.0343 77.437 44.1548 77.7742C48.2754 78.1114 52.5286 80.7614 52.4623 85.4348C52.3904 90.4823 48.4412 94.8553 43.8821 96.5968C38.8549 98.5189 32.8325 97.0888 29.7827 92.4818C29.2445 91.6691 27.9269 92.4302 28.4706 93.2484L28.4687 93.2465Z" fill="#555A60"/>
<path d="M85.4376 89.0133C85.8798 85.0549 88.5648 81.4872 92.127 79.7052C95.6892 77.9232 100.012 77.8771 103.729 79.3072C106.002 80.1807 108.101 81.6144 109.499 83.6065C110.898 85.5986 111.536 88.1785 110.939 90.5373C110.146 93.6683 107.384 95.935 104.468 97.3263C100.385 99.276 93.5736 100.223 90.157 98.5739C86.7404 96.9245 84.9934 92.9717 85.4357 89.0133H85.4376Z" fill="white"/>
<path d="M86.4882 86.3512C88.156 81.9782 92.5658 79.0794 97.1968 78.967C101.828 78.8546 107.087 81.4604 109.332 85.8021C110.555 88.1682 110.742 91.1665 109.385 93.5216C108.254 95.4898 106.225 96.765 104.13 97.5095C100.247 98.8898 95.6618 98.84 91.7273 97.6772C89.5823 97.0433 87.7819 95.9228 86.7296 93.8865C85.5207 91.5498 85.6276 88.7782 86.4864 86.3512C86.8125 85.4261 85.3438 85.0299 85.0195 85.9476C83.3941 90.5455 84.6509 96.2582 89.3814 98.4199C93.6605 100.377 99.2663 100.574 103.748 99.2307C106.177 98.5028 108.539 97.2331 110.097 95.182C111.823 92.908 112.229 89.8894 111.486 87.1639C110.012 81.7534 104.483 78.1543 99.1318 77.537C93.1224 76.8441 87.1922 80.2607 85.0213 85.9476C84.673 86.8617 86.1417 87.2579 86.4882 86.3512Z" fill="#555A60"/>
<path d="M37.1188 92.1151C37.1999 93.7129 37.2828 95.3124 37.3639 96.9102C37.4302 98.2075 39.4573 98.2167 39.391 96.9102C39.3099 95.3124 39.227 93.7129 39.1459 92.1151C39.0795 90.8178 37.0524 90.8086 37.1188 92.1151Z" fill="#555A60"/>
<path d="M44.3394 91.2011C44.5089 92.5427 44.6785 93.8824 44.848 95.224C44.9181 95.7713 45.2645 96.232 45.8616 96.2375C46.3555 96.2431 46.9433 95.7676 46.8751 95.224C46.7056 93.8824 46.5361 92.5427 46.3665 91.2011C46.2965 90.6538 45.95 90.1931 45.353 90.1875C44.8591 90.182 44.2712 90.6575 44.3394 91.2011Z" fill="#555A60"/>
<path d="M93.8964 91.7706C93.4209 93.7019 92.9455 95.635 92.47 97.5663C92.1586 98.8323 94.112 99.3741 94.4253 98.1044C94.9007 96.1731 95.3762 94.24 95.8516 92.3087C96.1631 91.0427 94.2097 90.5009 93.8964 91.7706Z" fill="#555A60"/>
<path d="M101.15 92.7618C100.654 94.483 100.158 96.2042 99.6625 97.9235C99.3013 99.1803 101.257 99.7147 101.618 98.4616C102.113 96.7404 102.609 95.0192 103.105 93.2999C103.466 92.0431 101.511 91.5087 101.15 92.7618Z" fill="#555A60"/>
</g>
<defs>
<clipPath id="clip0_2126_110824">
<rect width="138.49" height="163.639" fill="white" transform="translate(0.509766 0.170898)"/>
</clipPath>
</defs>
</svg>
