<svg width="25" height="24" viewBox="0 0 25 24" fill="none" xmlns="http://www.w3.org/2000/svg">
<path d="M15.0219 17.8969L4.34192 14.9839" stroke="#F79009" stroke-width="2" stroke-linecap="round" stroke-linejoin="round"/>
<path d="M18.7759 2.62222C18.9731 2.42511 19.2071 2.26875 19.4646 2.16207C19.7221 2.05539 19.9982 2.00049 20.2769 2.00049C20.5557 2.00049 20.8317 2.05539 21.0893 2.16207C21.3468 2.26875 21.5808 2.42511 21.7779 2.62222C21.9751 2.81934 22.1314 3.05335 22.2381 3.31089C22.3448 3.56843 22.3997 3.84446 22.3997 4.12322C22.3997 4.40198 22.3448 4.67802 22.2381 4.93556C22.1314 5.1931 21.9751 5.42711 21.7779 5.62422L17.7599 9.64322C17.6662 9.73699 17.6135 9.86414 17.6135 9.99672C17.6135 10.1293 17.6662 10.2565 17.7599 10.3502L18.7039 11.2942C19.1558 11.7462 19.4097 12.3591 19.4097 12.9982C19.4097 13.6373 19.1558 14.2503 18.7039 14.7022L17.7599 15.6462C17.6662 15.74 17.539 15.7926 17.4064 15.7926C17.2739 15.7926 17.1467 15.74 17.0529 15.6462L8.75394 7.34822C8.6602 7.25446 8.60754 7.12731 8.60754 6.99472C8.60754 6.86214 8.6602 6.73499 8.75394 6.64122L9.69794 5.69722C10.1499 5.24534 10.7628 4.99148 11.4019 4.99148C12.041 4.99148 12.654 5.24534 13.1059 5.69722L14.0499 6.64122C14.1437 6.73496 14.2709 6.78762 14.4034 6.78762C14.536 6.78762 14.6632 6.73496 14.7569 6.64122L18.7759 2.62222Z" stroke="#F79009" stroke-width="2" stroke-linecap="round" stroke-linejoin="round"/>
<path d="M9.39995 8C7.59595 10.71 5.42995 11.46 2.81695 11.948C2.73026 11.9638 2.6492 12.002 2.58175 12.0587C2.5143 12.1154 2.4628 12.1887 2.43231 12.2713C2.40183 12.354 2.39341 12.4432 2.4079 12.5301C2.42239 12.617 2.45929 12.6987 2.51495 12.767L9.83495 21.65C9.98362 21.8079 10.1796 21.9132 10.3934 21.95C10.6071 21.9868 10.827 21.9531 11.0199 21.854C13.1349 20.405 16.3999 16.792 16.3999 15" stroke="#F79009" stroke-width="2" stroke-linecap="round" stroke-linejoin="round"/>
</svg>
