<svg width="24" height="24" viewBox="0 0 24 24" fill="none" xmlns="http://www.w3.org/2000/svg">
<path d="M22.8829 1.20323C23.1718 1.49215 23.1714 1.96097 22.8829 2.24946L11.4465 13.6859L10.3998 12.6393L21.8358 1.20323C22.1248 0.914306 22.5936 0.91473 22.8821 1.20323L22.8829 1.20323Z" fill="#2E3D51"/>
<path d="M10.0694 11.1744L12.912 14.0169C14.164 15.2689 14.1635 17.3016 12.912 18.5532L5.53315 11.1744C6.78516 9.92236 8.81781 9.92279 10.0694 11.1744Z" fill="#AC8074"/>
<path d="M2.28586 15.6393V16.2075C2.28586 16.4061 2.44726 16.5675 2.64586 16.5675H3.21406C3.41266 16.5675 3.57406 16.7289 3.57406 16.9275V17.4957C3.57406 17.6943 3.73546 17.8557 3.93406 17.8557H4.50226C4.70086 17.8557 4.86226 18.0171 4.86226 18.2157V18.7839C4.86226 18.9825 5.02366 19.1439 5.22226 19.1439H5.79046C5.98906 19.1439 6.15046 19.3053 6.15046 19.5039V20.0721C6.15046 20.2707 6.31186 20.4321 6.51046 20.4321H7.07866C7.27726 20.4321 7.43866 20.5935 7.43866 20.7921V21.3602C7.43866 21.5588 7.60006 21.7203 7.79866 21.7203H8.36686C8.56546 21.7203 8.72686 21.8817 8.72686 22.0803V22.6515C8.72686 22.8507 8.88826 23.0115 9.08686 23.0115H9.29926C9.41086 23.0115 9.51646 22.9593 9.58426 22.8711L12.9095 18.5517L5.53066 11.1729L1.03786 14.6319C0.949061 14.7003 0.897461 14.8053 0.897461 14.9175C0.897461 15.1161 1.05886 15.2775 1.25746 15.2775H1.92346C2.12206 15.2775 2.28346 15.4389 2.28346 15.6375L2.28586 15.6393Z" fill="#E9D1C0"/>
<path d="M12.7783 12.7221L11.3621 11.3059C11.0413 10.9851 10.5212 10.9851 10.2004 11.3059C9.87966 11.6267 9.87966 12.1468 10.2004 12.4676L11.6166 13.8837C11.9374 14.2045 12.4575 14.2045 12.7783 13.8837C13.099 13.563 13.099 13.0429 12.7783 12.7221Z" fill="#AC8074"/>
</svg>
