<svg width="172" height="172" viewBox="0 0 172 172" fill="none" xmlns="http://www.w3.org/2000/svg">
<rect width="172" height="172" fill="#EFF1F3"/>
<g clip-path="url(#clip0_840_25279)">
<path d="M59.5975 90.4022C63.4263 88.2018 64.4451 82.8232 61.8732 78.3888C59.3012 73.9544 54.1125 72.1435 50.2837 74.3439C46.455 76.5443 45.4361 81.9229 48.0081 86.3573C50.58 90.7917 55.7688 92.6026 59.5975 90.4022Z" fill="#C1C7CD"/>
<path d="M75.9135 77.0234C80.7195 75.7879 83.3556 69.9295 81.8013 63.9384C80.247 57.9472 75.0909 54.092 70.2849 55.3274C65.4788 56.5629 62.8427 62.4212 64.397 68.4124C65.9513 74.4036 71.1074 78.2588 75.9135 77.0234Z" fill="#C1C7CD"/>
<path d="M106.67 67.2705C107.431 61.1293 104.054 55.6606 99.1277 55.0559C94.2012 54.4512 89.5909 58.9394 88.8301 65.0806C88.0693 71.2218 91.4462 76.6904 96.3726 77.2952C101.299 77.8999 105.909 73.4117 106.67 67.2705Z" fill="#C1C7CD"/>
<path d="M124.8 86.0932C126.613 81.0978 124.299 75.6867 119.631 74.0073C114.963 72.3279 109.708 75.0161 107.895 80.0116C106.081 85.007 108.395 90.4181 113.063 92.0975C117.731 93.7769 122.986 91.0887 124.8 86.0932Z" fill="#C1C7CD"/>
<path d="M84.4135 81.3631C84.4135 81.3631 74.5718 80.9262 67.7194 91.0713C60.867 101.216 59.0204 100.604 58.9334 107.689C58.8464 114.774 66.1378 118.36 75.8035 116.523C85.4693 114.687 84.9414 115.124 90.2142 115.736C95.4869 116.348 101.11 118.273 106.206 115.299C111.303 112.326 113.411 105.44 108.227 99.1735C105.127 95.4265 101.371 88.8415 96.1018 84.9468C92.5609 82.3314 87.6282 81.5363 84.4155 81.3611L84.4135 81.3631Z" fill="#C1C7CD"/>
</g>
<defs>
<clipPath id="clip0_840_25279">
<rect width="78.8286" height="62" fill="white" transform="translate(46.5857 55)"/>
</clipPath>
</defs>
</svg>
