<svg width="278" height="173" viewBox="0 0 278 173" fill="none" xmlns="http://www.w3.org/2000/svg">
<rect width="278" height="173" rx="20" fill="#FEF4E7"/>
<g clip-path="url(#clip0_679_2097)">
<path d="M109.687 91.9702C114.01 89.4858 115.161 83.4132 112.257 78.4067C109.353 73.4001 103.495 71.3555 99.1718 73.8398C94.849 76.3242 93.6987 82.3967 96.6025 87.4033C99.5063 92.4099 105.365 94.4545 109.687 91.9702Z" fill="#FEDBCF"/>
<path d="M128.11 76.8652C133.536 75.4704 136.512 68.8561 134.757 62.0919C133.002 55.3277 127.181 50.975 121.755 52.3698C116.328 53.7647 113.352 60.379 115.107 67.1432C116.862 73.9074 122.683 78.2601 128.11 76.8652Z" fill="#FEDBCF"/>
<path d="M162.834 65.8534C163.693 58.9198 159.88 52.7455 154.318 52.0627C148.756 51.38 143.55 56.4473 142.691 63.3809C141.833 70.3145 145.645 76.4888 151.207 77.1715C156.769 77.8543 161.975 72.787 162.834 65.8534Z" fill="#FEDBCF"/>
<path d="M183.305 87.1046C185.353 81.4646 182.74 75.3554 177.469 73.4593C172.199 71.5632 166.266 74.5982 164.218 80.2383C162.171 85.8783 164.783 91.9875 170.054 93.8836C175.325 95.7797 181.257 92.7447 183.305 87.1046Z" fill="#FEDBCF"/>
<path d="M137.706 81.7651C137.706 81.7651 126.594 81.2718 118.858 92.7259C111.121 104.18 109.036 103.489 108.938 111.488C108.84 119.487 117.072 123.535 127.985 121.462C138.898 119.389 138.302 119.882 144.255 120.573C150.208 121.264 156.556 123.438 162.311 120.08C168.065 116.723 170.445 108.948 164.592 101.874C161.092 97.643 156.851 90.2084 150.902 85.8112C146.904 82.8583 141.335 81.9606 137.708 81.7628L137.706 81.7651Z" fill="#FEDBCF"/>
</g>
<defs>
<clipPath id="clip0_679_2097">
<rect width="89" height="70" fill="white" transform="translate(95 52)"/>
</clipPath>
</defs>
</svg>
