<svg width="205" height="205" viewBox="0 0 205 205" fill="none" xmlns="http://www.w3.org/2000/svg">
<rect width="205" height="205" rx="18" fill="#FEF4E7"/>
<g clip-path="url(#clip0_2508_55678)">
<path d="M71.033 107.747C75.5962 105.124 76.8105 98.7136 73.7451 93.4286C70.6798 88.1436 64.4956 85.9852 59.9324 88.6077C55.3692 91.2303 54.1549 97.6406 57.2202 102.926C60.2855 108.211 66.4697 110.369 71.033 107.747Z" fill="#FEDBCF"/>
<path d="M90.4783 91.8014C96.2063 90.3289 99.3481 83.3468 97.4956 76.2063C95.6432 69.0658 89.498 64.471 83.7699 65.9435C78.0419 67.4159 74.9002 74.3981 76.7526 81.5386C78.6051 88.6791 84.7503 93.2739 90.4783 91.8014Z" fill="#FEDBCF"/>
<path d="M127.136 80.1775C128.042 72.8582 124.018 66.3404 118.146 65.6197C112.275 64.899 106.78 70.2481 105.873 77.5674C104.966 84.8867 108.991 91.4045 114.863 92.1252C120.734 92.8459 126.229 87.4967 127.136 80.1775Z" fill="#FEDBCF"/>
<path d="M148.743 102.611C150.904 96.6571 148.146 90.2081 142.582 88.2065C137.019 86.2049 130.756 89.4088 128.595 95.3626C126.433 101.316 129.191 107.765 134.755 109.767C140.318 111.769 146.581 108.565 148.743 102.611Z" fill="#FEDBCF"/>
<path d="M100.609 96.9739C100.609 96.9739 88.8795 96.4532 80.7126 108.544C72.5456 120.636 70.3448 119.906 70.2412 128.35C70.1375 136.794 78.8275 141.068 90.3475 138.879C101.867 136.691 101.238 137.212 107.523 137.941C113.807 138.67 120.508 140.964 126.583 137.42C132.657 133.876 135.169 125.669 128.991 118.201C125.296 113.735 120.819 105.887 114.54 101.245C110.32 98.1279 104.441 97.1803 100.612 96.9715L100.609 96.9739Z" fill="#FEDBCF"/>
</g>
<defs>
<clipPath id="clip0_2508_55678">
<rect width="93.9506" height="73.8938" fill="white" transform="translate(55.5244 65.5531)"/>
</clipPath>
</defs>
</svg>
