<svg width="240" height="184" viewBox="0 0 240 184" fill="none" xmlns="http://www.w3.org/2000/svg">
<path d="M186.4 69.9292C183.945 68.721 182.927 65.7585 184.131 63.3123L184.651 62.255C189.529 52.3447 202.998 56.3524 206.871 48.4818C208.636 44.896 207.73 41.9197 203.423 39.8C199.93 38.081 196.645 38.7065 193.017 41.808C191.011 43.5226 188.024 43.4563 186.177 41.5585L184.466 39.8026C182.563 37.8471 182.619 34.7519 184.53 32.8192C190.375 26.9109 198.665 24.2762 208.646 29.188C217.897 33.7409 224.404 42.7953 218.698 54.3896C212.022 67.9558 198.379 64.3013 196.443 68.2354L195.992 69.1524C194.789 71.5961 191.822 72.6004 189.364 71.391L186.397 69.9304L186.4 69.9292ZM175.579 79.4448C177.515 75.5107 181.124 73.8818 185.429 76.0004C189.734 78.1189 190.645 81.9728 188.709 85.9069C186.773 89.841 183.161 91.4747 178.856 89.3561C174.552 87.2376 173.64 83.3838 175.579 79.4448Z" fill="#7D4423"/>
<path opacity="0.5" d="M106.5 180C142.122 180 171 172.389 171 163C171 153.611 142.122 146 106.5 146C70.8776 146 42 153.611 42 163C42 172.389 70.8776 180 106.5 180Z" fill="#5E331A"/>
<path d="M122.248 96.126C120.207 96.126 118.203 96.2746 116.243 96.5566C114.284 96.2746 112.279 96.126 110.237 96.126C87.8154 96.126 69.6379 113.815 69.6379 135.633C69.6379 157.451 87.8154 175.139 110.237 175.139C112.279 175.139 114.282 174.991 116.243 174.709C118.202 174.991 120.207 175.139 122.248 175.139C125.213 175.139 128.96 172.218 128.96 172.218C128.96 172.218 145.117 172.15 155.079 161.845C160.883 155.84 162.845 139.6 162.845 135.633C162.845 113.813 144.668 96.126 122.246 96.126H122.248Z" fill="white"/>
<path d="M82.9526 153.037C82.9526 153.037 81.2242 163.39 88.9061 172.346C96.5881 181.301 101.005 183.397 104.27 182.826C107.535 182.254 114.257 183.207 120.018 178.253C125.78 173.298 131.925 169.868 131.925 169.868L100.621 162.627L83.7208 153.1L82.9526 153.037Z" fill="white"/>
<path d="M47.7019 143.043C47.7019 143.043 39.4227 148.294 44.6291 158.626C49.8356 168.957 61.5295 173.87 69.7243 173.953C77.919 174.037 87.6482 166.924 87.6482 166.924L121.194 149.986L96.6112 133.218L82.3573 135.674L80.5655 137.961L65.2015 144.481C65.2015 144.481 56.4095 141.602 52.313 141.349C48.2166 141.095 47.7038 143.043 47.7038 143.043H47.7019Z" fill="white"/>
<path d="M151.034 108.17C154.921 112.526 157.464 117.694 159.095 123.252C160.735 128.849 161.895 134.632 161.693 140.484C161.499 146.09 160.037 151.617 157.011 156.383C154.384 160.518 150.725 163.99 146.51 166.509C141.724 169.369 136.241 170.975 130.644 170.96C129.285 170.956 129.283 173.052 130.644 173.056C141.219 173.083 151.357 167.667 157.583 159.262C161.03 154.609 162.962 149.11 163.596 143.391C164.295 137.09 163.289 130.842 161.699 124.746C159.961 118.081 157.163 111.878 152.53 106.688C151.628 105.676 150.137 107.162 151.036 108.17H151.034Z" fill="#7D4423"/>
<path d="M126.73 172.975C121.259 176.54 115.595 180.256 109.058 181.502C105.979 182.089 102.73 182.091 99.707 181.208C96.9627 180.408 94.562 178.842 92.5897 176.801C88.716 172.788 86.4595 167.39 84.4468 162.289C83.3022 159.392 82.0865 155.902 83.498 152.879C84.5947 150.53 86.9569 148.973 89.4497 148.405C92.9315 147.613 96.5881 148.859 99.5227 150.688C102.711 152.676 105.28 155.482 107.812 158.207C108.735 159.202 110.226 157.716 109.306 156.725C104.602 151.662 99.0099 146.012 91.5238 146.079C88.5048 146.105 85.48 147.266 83.3655 149.438C81.036 151.831 80.4195 155.042 80.9956 158.251C81.5718 161.46 83.1447 164.802 84.5274 167.872C85.7988 170.696 87.2392 173.472 89.1193 175.951C90.9073 178.31 93.0698 180.402 95.7009 181.822C98.6777 183.426 102.092 184.093 105.463 183.992C113.823 183.745 121.025 179.198 127.796 174.785C128.927 174.048 127.871 172.232 126.73 172.975Z" fill="#7D4423"/>
<path d="M100.827 149.745C102.417 148.838 104.007 147.929 105.595 147.022C106.773 146.349 105.711 144.537 104.53 145.211C102.939 146.118 101.349 147.027 99.761 147.934C98.5837 148.607 99.6458 150.419 100.827 149.745Z" fill="#7D4423"/>
<path d="M70.0508 148.722C65.4167 144.6 60.0796 139.955 53.4808 139.939C50.8516 139.934 48.0996 140.627 45.9563 142.182C43.5326 143.941 42.194 146.542 42.0212 149.513C41.8368 152.699 42.8393 155.93 44.1184 158.815C45.3148 161.514 46.9665 164.004 48.9369 166.207C52.9719 170.721 58.4626 173.941 64.4468 175.083C71.6583 176.46 79.3134 175.067 85.4974 171.113C86.6362 170.386 85.5781 168.57 84.4315 169.303C74.6024 175.588 61.3337 174.73 52.6223 166.919C48.67 163.375 45.7412 158.686 44.5313 153.522C43.8822 150.746 43.8092 147.541 45.7297 145.22C47.2219 143.415 49.538 142.436 51.8311 142.135C58.4741 141.262 63.9744 146.129 68.5567 150.204C69.5669 151.102 71.0649 149.625 70.0508 148.722Z" fill="#7D4423"/>
<path d="M55.4724 142.132C53.7574 144.767 54.0339 147.959 55.9371 150.402C56.7169 151.402 58.0747 150.129 57.5965 149.131C57.5254 148.98 57.4524 148.832 57.3814 148.681C56.7975 147.464 54.9769 148.527 55.5569 149.739C55.6279 149.889 55.7009 150.038 55.772 150.188L57.4313 148.917C56.1004 147.21 56.1426 144.96 57.2969 143.188C58.0362 142.052 56.2079 141 55.4724 142.13V142.132Z" fill="#7D4423"/>
<path d="M48.3492 142.224C46.8781 145.498 47.4177 149.255 49.8126 151.955C50.7133 152.969 52.2017 151.483 51.3067 150.473C49.5917 148.539 49.1116 145.644 50.1736 143.281C50.7229 142.06 48.9023 140.993 48.3492 142.224Z" fill="#7D4423"/>
<path d="M95.1036 148.083C93.2791 150.371 92.5935 153.229 93.2887 156.08L95.3264 155.524C95.2764 155.366 95.2246 155.209 95.1747 155.051C94.7637 153.771 92.7222 154.318 93.137 155.608C93.1869 155.766 93.2388 155.922 93.2887 156.08C93.7016 157.362 95.6471 156.84 95.3264 155.524C94.8232 153.464 95.263 151.238 96.5977 149.565C97.4332 148.519 95.9467 147.025 95.1036 148.083Z" fill="#7D4423"/>
<path d="M86.7898 148.076C85.3399 151.163 85.3245 154.56 86.7265 157.664L88.5509 156.607C88.4184 156.386 88.284 156.165 88.1515 155.944C87.4543 154.787 85.6279 155.839 86.327 157.001C86.4595 157.222 86.594 157.443 86.7265 157.664C87.439 158.848 89.0964 157.813 88.5509 156.607C87.4851 154.248 87.5139 151.475 88.6143 149.133C89.1847 147.918 87.3641 146.853 86.7898 148.076Z" fill="#7D4423"/>
<path d="M60.6509 164.937C62.2575 163.867 62.2232 161.024 60.5744 158.586C58.9256 156.147 56.2867 155.038 54.6801 156.107C53.0736 157.177 53.1079 160.02 54.7566 162.459C56.4054 164.897 59.0444 166.006 60.6509 164.937Z" fill="#7D4423"/>
<path d="M98.2556 171.929C99.8622 170.86 99.8279 168.016 98.1791 165.578C96.5304 163.14 93.8914 162.03 92.2849 163.1C90.6783 164.169 90.7126 167.013 92.3614 169.451C94.0102 171.889 96.6491 172.999 98.2556 171.929Z" fill="#7D4423"/>
<path d="M65.0018 142.66C64.683 142.792 64.3661 142.925 64.0473 143.057C63.7823 143.167 63.5672 143.282 63.4154 143.539C63.2829 143.764 63.2272 144.095 63.3098 144.347C63.3924 144.598 63.5518 144.844 63.7957 144.974C64.0396 145.103 64.3546 145.185 64.61 145.079C64.9288 144.947 65.2457 144.814 65.5645 144.682C65.8295 144.572 66.0446 144.457 66.1963 144.2C66.3288 143.975 66.3845 143.644 66.3019 143.392C66.2194 143.141 66.06 142.895 65.8161 142.765C65.5722 142.636 65.2572 142.554 65.0018 142.66Z" fill="#7D4423"/>
<path d="M152.77 54.2944C158.912 61.4895 162.478 70.8036 162.701 80.2301C162.924 89.6566 159.799 99.1269 154.003 106.598C154.003 106.598 141.987 120.093 98.5605 115.007C96.1733 114.727 78.6161 112.109 70.9226 101.655C63.2291 91.2019 61.6889 72.6005 69.6013 60.1976L72.023 56.1217C71.6447 49.3286 71.2644 42.5355 70.8861 35.7424C70.719 32.7489 70.9034 29.0961 73.5671 27.6822C75.6125 26.5961 78.1225 27.4421 80.2312 28.4044C83.16 29.7401 88.3722 32.4783 92.2151 35.6643C96.8608 39.5153 99.7512 43.3225 99.7512 43.3225C104.278 41.6895 109.342 41.5256 114.136 41.9868L123.41 43.9361C123.41 43.9361 129.938 38.473 134.355 34.0904C138.213 30.2622 142.932 26.7733 147.097 27.0496C150.047 27.2458 153.867 31.7009 153.37 34.6411C152.77 38.1891 153.197 41.9868 152.884 46.2608C152.569 50.5348 152.77 54.2924 152.77 54.2924V54.2944Z" fill="white"/>
<path d="M78.5335 52.3589C77.6251 47.8219 77.1028 43.2221 76.9722 38.6127C76.9549 38.0239 76.9472 37.4217 77.1335 36.8596C77.3198 36.2975 77.7365 35.7735 78.3319 35.5886C79.0444 35.3676 79.8164 35.6687 80.4905 35.985C84.7905 38.0067 89.2537 41.1927 92.1921 44.7693C92.1921 44.7693 87.4638 46.5148 85.4896 47.8067C83.5153 49.0986 78.5354 52.3589 78.5354 52.3589H78.5335Z" fill="#FAC985"/>
<path d="M145.88 52.353C146.682 47.797 147.099 43.1857 147.124 38.5744C147.128 37.9856 147.122 37.3834 146.923 36.827C146.723 36.2706 146.295 35.7542 145.695 35.5827C144.977 35.3769 144.213 35.6952 143.546 36.0286C139.294 38.1475 133.69 41.4174 130.836 45.0607C130.836 45.0607 136.819 46.7127 138.822 47.9608C140.825 49.2089 145.88 52.3549 145.88 52.3549V52.353Z" fill="#FAC985"/>
<path d="M79.8165 108.348C74.4737 105.072 70.2179 99.876 67.9056 94.0928C66.0427 89.4319 65.0671 84.4205 65.4416 79.4033C65.7911 74.7101 66.8628 70.074 68.2513 65.5827C69.2634 62.3072 70.456 59.0793 71.8484 55.9447C72.1134 55.3483 72.4284 54.7652 72.6742 54.1631C72.9757 53.42 72.7837 52.551 72.7395 51.7622C72.6704 50.5369 72.6031 49.3098 72.534 48.0846C72.4072 45.8037 72.2805 43.5228 72.1518 41.2419C72.0231 38.961 71.7908 36.5449 71.8004 34.1992C71.8081 32.5033 71.9425 30.3901 73.2446 29.1287C74.5544 27.8596 76.6842 28.2388 78.2936 28.6123C82.97 29.6946 87.0145 32.8501 90.6558 35.8113C92.7434 37.5091 94.7177 39.3326 96.546 41.3048C97.1125 41.9165 97.6656 42.5396 98.1995 43.1798C98.3589 43.3704 98.5164 43.5647 98.6739 43.7572C98.889 44.0201 98.718 43.8105 98.7449 43.8448C99.0138 44.1993 99.4651 44.4908 99.9376 44.3269C102.661 43.3742 105.724 43.0617 108.586 42.8635C112.271 42.6101 115.931 42.9454 119.515 43.8334C120.548 44.0887 121.576 44.3841 122.578 44.7404C123.191 44.9576 123.64 45.0891 124.213 44.6451C125.497 43.6505 126.579 42.2709 127.729 41.1295C130.082 38.7972 132.503 36.5277 135.052 34.405C137.883 32.046 140.998 29.4945 144.612 28.4694C145.901 28.1035 147.403 27.871 148.695 28.3493C149.853 28.7781 150.806 29.9957 151.403 31.0208C152.24 32.4557 152.331 33.9915 152.306 35.6093C152.283 37.0632 152.231 38.5152 152.167 39.9671C151.952 44.9081 151.626 49.8452 151.228 54.7748C151.199 55.1273 151.447 55.5141 151.751 55.6799C152.231 55.9428 152.457 56.1848 152.986 56.7107C154.305 58.0294 155.357 59.5919 156.295 61.1925C158.968 65.7561 160.554 70.8991 161.228 76.1259C161.728 80.0035 161.499 83.7116 160.731 87.5398C159.844 91.9605 158.551 96.3984 156.627 100.491C155.563 102.753 154.274 104.872 152.334 106.505C151.699 107.041 150.996 107.504 150.255 107.881C149.988 108.016 149.784 108.112 149.546 108.192C149.427 108.232 148.841 108.35 149.264 108.3C147.931 108.458 147.913 110.556 149.264 110.396C150.452 110.255 151.593 109.611 152.565 108.95C154.485 107.641 156.06 105.882 157.234 103.889C159.678 99.7331 161.184 94.9312 162.29 90.2742C163.268 86.1602 163.898 81.9891 163.519 77.7608C163.037 72.372 161.682 66.989 159.218 62.1471C158.027 59.8072 156.615 57.5034 154.81 55.5751C154.232 54.9577 153.569 54.285 152.817 53.8735C152.991 54.1745 153.166 54.4775 153.339 54.7786C153.698 50.3216 153.996 45.8589 154.213 41.3925C154.286 39.8871 154.349 38.3818 154.389 36.8745C154.432 35.2606 154.53 33.6123 154.099 32.0365C153.37 29.3726 151.161 26.5467 148.282 26.1008C144.66 25.5406 141.044 27.408 138.171 29.3916C135.121 31.4972 132.294 33.9172 129.582 36.4324C127.579 38.2903 125.653 40.2225 123.736 42.1661C123.502 42.4043 123.272 42.6444 123.032 42.8749C122.968 42.9359 122.88 42.995 122.832 43.0655C122.813 43.0941 122.763 43.1112 122.745 43.1417C122.847 42.9531 123.602 42.8292 123.679 42.9188C123.592 42.8197 123.254 42.7587 123.139 42.7187C122.688 42.5586 122.233 42.4119 121.776 42.2747C117.919 41.1181 113.83 40.5369 109.801 40.6989C106.379 40.8361 102.63 41.1657 99.3749 42.3033L100.567 42.7854C98.4991 40.0719 96.0313 37.6119 93.4386 35.3959C89.8607 32.3413 85.9045 29.1592 81.4797 27.4042C78.0785 26.0551 73.1025 25.0471 70.8689 28.78C69.8415 30.4987 69.6648 32.6348 69.6936 34.5879C69.7301 37.1203 69.9548 39.6585 70.095 42.187C70.2294 44.5842 70.3619 46.9794 70.4964 49.3765C70.5674 50.6551 70.6289 51.9337 70.7095 53.2103C70.7211 53.3876 70.9035 52.8674 70.8248 53.1589C70.7979 53.2599 70.7249 53.3666 70.6788 53.4619C69.4362 56.0743 68.3569 58.7725 67.389 61.4954C65.7431 66.1239 64.4353 70.8972 63.7381 75.76C62.9853 81.0116 63.1927 86.1564 64.6984 91.2669C66.9703 98.9747 71.7927 105.892 78.7506 110.156C79.9106 110.867 80.9727 109.055 79.8165 108.346V108.348Z" fill="#7D4423"/>
<path d="M70.4886 79.7612C65.8602 78.6255 61.105 78.0767 56.3364 78.1396C54.9786 78.1568 54.9748 80.2528 56.3364 80.2357C60.9245 80.1747 65.4722 80.6892 69.9278 81.7829C71.2472 82.1069 71.8099 80.0851 70.4886 79.7612Z" fill="#7D4423"/>
<path d="M70.3292 86.9323C65.4204 87.18 60.6614 88.3252 56.1732 90.305C55.3973 90.648 55.5798 91.7246 56.1732 92.1153L56.4709 92.3115C57.6078 93.0585 58.666 91.2445 57.5368 90.5013L57.2391 90.305V92.1153C61.3682 90.2936 65.816 89.2551 70.3292 89.0284C71.6812 88.9598 71.6908 86.8637 70.3292 86.9323Z" fill="#7D4423"/>
<path d="M151.825 83.4719C157.716 82.7764 163.654 82.6773 169.565 83.1727C170.919 83.2871 170.911 81.1891 169.565 81.0767C163.656 80.5813 157.716 80.6784 151.825 81.3758C150.493 81.534 150.475 83.632 151.825 83.4719Z" fill="#7D4423"/>
<path d="M150.043 90.5599C155.653 91.1906 161.195 92.6197 166.362 94.8892L166.613 92.9741C166.481 93.0294 166.346 93.0866 166.214 93.1418C164.981 93.6582 165.522 95.6876 166.775 95.1636C166.907 95.1083 167.041 95.0511 167.174 94.9959C167.892 94.6948 168.365 93.4924 167.426 93.0809C161.891 90.6494 156.052 89.1403 150.041 88.4657C148.693 88.3152 148.703 90.4113 150.041 90.5618L150.043 90.5599Z" fill="#7D4423"/>
<path d="M126.04 79.7823C128.231 79.4197 129.627 76.8664 129.159 74.0792C128.69 71.2921 126.534 69.3266 124.344 69.6892C122.153 70.0518 120.757 72.6051 121.225 75.3922C121.694 78.1794 123.85 80.1449 126.04 79.7823Z" fill="#7D4423"/>
<path d="M97.0981 79.8917C99.2889 79.5291 100.685 76.9757 100.216 74.1886C99.7478 71.4015 97.592 69.436 95.4013 69.7986C93.2105 70.1612 91.8144 72.7145 92.283 75.5016C92.7515 78.2887 94.9074 80.2542 97.0981 79.8917Z" fill="#7D4423"/>
<path d="M106.654 79.9385C106.558 81.4781 108.257 83.5266 110.598 83.6733C112.939 83.8181 114.852 81.8974 114.95 80.3577C115.046 78.8181 113.258 77.8672 110.917 77.7224C108.576 77.5776 106.751 78.4008 106.654 79.9404V79.9385Z" fill="#7D4423"/>
<path d="M109.957 82.3566C110.018 83.7685 109.97 85.1805 110.032 86.5925C110.093 88.0044 112.202 87.9435 112.144 86.5925C112.087 85.2415 112.131 83.7685 112.069 82.3566C112.008 80.9446 109.899 81.0056 109.957 82.3566Z" fill="#7D4423"/>
<path d="M105.428 89.9963C108.877 88.1728 113.001 87.9632 116.412 89.9811C117.581 90.6728 118.645 88.8626 117.477 88.1709C113.41 85.7642 108.47 86.0138 104.36 88.1861C103.16 88.8206 104.226 90.6309 105.426 89.9963H105.428Z" fill="#7D4423"/>
<path d="M149.264 110.396C150.623 110.396 150.625 108.3 149.264 108.3C147.902 108.3 147.902 110.396 149.264 110.396Z" fill="#7D4423"/>
<path d="M125.618 126.288C129.281 132.95 127.591 140.84 128.467 148.057C129.191 154.028 132.014 160.528 138.269 162.481C144.211 164.337 150.673 161.363 154.299 156.645C158.344 151.385 159.442 144.312 159.091 137.856C158.67 130.103 156.049 122.026 151.013 115.991C150.145 114.95 148.659 116.441 149.519 117.473C153.677 122.456 156.049 129.154 156.78 135.528C157.474 141.566 156.961 148.218 153.831 153.575C151.048 158.339 145.486 161.94 139.763 160.705C133.635 159.381 131.057 152.912 130.498 147.342C129.753 139.92 131.201 132.068 127.441 125.231C126.79 124.045 124.965 125.103 125.616 126.288H125.618Z" fill="#7D4423"/>
<path d="M138.445 155.564C139.448 158.567 141.639 160.837 144.257 162.558C145.394 163.305 146.452 161.49 145.323 160.747C143.183 159.343 141.303 157.468 140.483 155.008C140.059 153.733 138.017 154.28 138.445 155.564Z" fill="#7D4423"/>
<path d="M147.295 151.654C147.752 153.908 149.552 155.731 151.795 156.278C153.114 156.6 153.679 154.578 152.356 154.256C150.775 153.872 149.651 152.671 149.331 151.095C149.062 149.775 147.026 150.333 147.293 151.652L147.295 151.654Z" fill="#7D4423"/>
<path d="M65.3455 144.63C70.9303 143.765 76.2635 141.616 80.8765 138.376C81.977 137.603 80.9226 135.785 79.8107 136.566C75.3244 139.716 70.2139 141.768 64.7847 142.61C63.4461 142.818 64.0146 144.838 65.3455 144.632V144.63Z" fill="#7D4423"/>
<path d="M86.6515 112.111C85.3474 114.388 83.8706 116.572 82.6203 118.879C81.5064 120.935 80.7594 123.113 80.3138 125.404C79.5015 129.592 79.0175 133.664 79.8567 137.873C80.1198 139.196 82.1575 138.635 81.8944 137.317C81.1147 133.405 81.6255 129.537 82.411 125.655C82.8335 123.563 83.5249 121.598 84.5581 119.727C85.7892 117.5 87.2103 115.377 88.4759 113.169C89.1481 111.995 87.3236 110.937 86.6515 112.111Z" fill="#7D4423"/>
<path d="M79.732 109.02C70.7902 116.932 66.7955 129.538 68.3338 141.19C68.5086 142.509 70.6231 142.526 70.4464 141.19C68.9753 130.034 72.6511 118.09 81.2261 110.501C82.2421 109.601 80.7441 108.122 79.732 109.018V109.02Z" fill="#7D4423"/>
</svg>
