<svg width="97" height="77" viewBox="0 0 97 77" fill="none" xmlns="http://www.w3.org/2000/svg">
<path d="M77.0225 0.511719C79.184 0.656794 81.8177 2.63863 81.8379 6.1582L81.832 6.50293C81.6227 11.5045 81.6822 12.7984 81.416 16.457C81.2814 18.3074 81.2563 20.0443 81.2646 21.3174C81.2688 21.9543 81.2814 22.4766 81.293 22.8398C81.2987 23.0214 81.3035 23.1638 81.3076 23.2607C81.3097 23.3089 81.3113 23.3459 81.3125 23.3711C81.3131 23.3837 81.3141 23.3938 81.3145 23.4004V23.4102L81.8145 23.3848L81.3145 23.4111L81.3203 23.5146L81.3672 23.6084L81.3701 23.6152L81.3965 23.667L81.4336 23.7119C86.3672 29.6044 89.2972 37.1854 89.6377 44.9023L89.6621 45.6494C89.8423 53.6994 88.8106 61.7624 81.502 67.6094C74.262 73.4014 60.9138 77.8112 37.3301 75.1484L36.1992 75.0166C30.1995 74.2917 19.9433 72.6096 13.582 64.1875L13.2822 63.7812C10.1149 59.3935 8.19768 53.2615 7.9043 46.8965C7.61105 40.5334 8.94339 33.9877 12.2129 28.7676L12.2207 28.7539L14.2607 25.2549L14.3369 25.126L14.3281 24.9766L13.3848 7.49121L13.3623 7.01074C13.3216 5.88122 13.3591 4.70507 13.6084 3.66895C13.8746 2.56279 14.3674 1.67223 15.2119 1.14062L15.3848 1.03906C16.1163 0.643126 16.9518 0.586007 17.8477 0.741211C18.5227 0.858217 19.2117 1.09295 19.8828 1.37402L20.5469 1.66797C22.8422 2.7336 26.8011 4.84278 29.9111 7.31836L30.5215 7.81836C32.4539 9.45029 34.0217 11.0742 35.1064 12.29C35.6486 12.8977 36.0691 13.4029 36.3535 13.7549C36.4955 13.9307 36.6037 14.068 36.6758 14.1611C36.7117 14.2075 36.739 14.2431 36.7568 14.2666C36.7656 14.2782 36.7721 14.2873 36.7764 14.293C36.7783 14.2956 36.7803 14.2975 36.7812 14.2988L36.7822 14.3008L37.0059 14.6006L37.3564 14.4717C41.0688 13.1046 45.2496 12.9565 49.2471 13.3457C51.231 13.5389 53.1565 13.9494 54.5898 14.3135C55.3053 14.4952 55.8959 14.6643 56.3066 14.7881C56.5118 14.8499 56.6718 14.9008 56.7803 14.9355C56.8344 14.9529 56.8759 14.9666 56.9033 14.9756C56.917 14.9801 56.9279 14.9831 56.9346 14.9854C56.9376 14.9864 56.9399 14.9868 56.9414 14.9873L56.9434 14.9883L57.2119 15.0791L57.4277 14.8955L57.1035 14.5146C57.3949 14.8562 57.4247 14.891 57.4277 14.8945H57.4287L57.4326 14.8916C57.4353 14.8893 57.4391 14.8853 57.4443 14.8809C57.455 14.8718 57.4707 14.8584 57.4912 14.8408C57.5326 14.8053 57.5938 14.7526 57.6729 14.6846C57.831 14.5485 58.0613 14.3504 58.3486 14.1006C58.9236 13.6008 59.7295 12.8947 60.6514 12.0713C62.2633 10.6317 64.2364 8.82753 65.958 7.13184L66.6787 6.41309C68.2894 4.78479 70.0641 3.24426 71.8555 2.14258C73.5417 1.10558 75.1972 0.485063 76.7197 0.5L77.0225 0.511719Z" fill="white" stroke="#555A60"/>
<path d="M19.3332 21.4948C18.5684 17.645 18.1286 13.7418 18.0187 9.83061C18.0042 9.331 17.9977 8.82007 18.1545 8.34309C18.3114 7.86611 18.6622 7.42147 19.1635 7.26463C19.7633 7.07707 20.4133 7.33254 20.9808 7.60094C24.601 9.31645 28.3586 12.0199 30.8325 15.0547C30.8325 15.0547 26.8517 16.5358 25.1896 17.6321C23.5274 18.7283 19.3348 21.4948 19.3348 21.4948H19.3332Z" fill="#FAC985"/>
<path d="M76.0322 21.49C76.7081 17.6241 77.0589 13.7112 77.0799 9.79837C77.0832 9.29876 77.0783 8.78783 76.9102 8.3157C76.742 7.84357 76.3814 7.40539 75.877 7.25988C75.2723 7.08525 74.6287 7.35527 74.0677 7.63823C70.4879 9.43619 65.7699 12.2108 63.3672 15.3022C63.3672 15.3022 68.4038 16.7041 70.0902 17.7631C71.7766 18.8206 76.0322 21.4916 76.0322 21.4916V21.49Z" fill="#FAC985"/>
<path d="M12.5005 44.9624C8.6216 44.0035 4.64084 43.5411 0.643922 43.5945C-0.213023 43.6058 -0.216257 44.9397 0.643922 44.9284C4.52605 44.8767 8.37583 45.3165 12.1448 46.2494C12.9775 46.4547 13.3332 45.1693 12.4989 44.9624H12.5005Z" fill="#555A60"/>
<path d="M12.4242 51.0528C8.33354 51.2598 4.35925 52.2218 0.617794 53.8856C0.12788 54.1039 0.242679 54.7894 0.617794 55.0368L0.86841 55.2033C1.5863 55.6787 2.25569 54.5242 1.54103 54.0521L1.29041 53.8856V55.0368C4.80551 53.4733 8.58254 52.5824 12.4226 52.3867C13.2763 52.3431 13.2828 51.0092 12.4226 51.0528H12.4242Z" fill="#555A60"/>
<path d="M81.0388 47.6732C85.9977 47.083 90.9971 46.9989 95.9739 47.4193C96.8292 47.4921 96.8243 46.1565 95.9739 46.0854C90.9987 45.665 85.9977 45.7475 81.0388 46.3392C80.1964 46.4395 80.1867 47.775 81.0388 47.6732Z" fill="#555A60"/>
<path d="M79.5368 53.6871C84.3017 54.2255 88.9987 55.4479 93.3869 57.3914L93.547 56.1722C93.4355 56.2191 93.3223 56.2676 93.2107 56.3145C92.4314 56.6428 92.7741 57.9346 93.5648 57.6016C93.6764 57.5547 93.7895 57.5062 93.9011 57.4593C94.3538 57.2685 94.653 56.5021 94.0612 56.2402C89.4401 54.1948 84.5556 52.9223 79.5384 52.3532C78.6863 52.2562 78.6944 53.5917 79.5384 53.6871H79.5368Z" fill="#555A60"/>
<path d="M58.6143 49.5054C60.4842 49.5054 62 47.5617 62 45.1641C62 42.7664 60.4842 40.8228 58.6143 40.8228C56.7444 40.8228 55.2285 42.7664 55.2285 45.1641C55.2285 47.5617 56.7444 49.5054 58.6143 49.5054Z" fill="#555A60"/>
<path d="M34.9635 49.5361C36.8079 49.2284 37.9833 47.0618 37.5888 44.6968C37.1943 42.3319 35.3793 40.6641 33.5349 40.9717C31.6905 41.2794 30.5151 43.446 30.9096 45.811C31.3041 48.1759 33.1191 49.8437 34.9635 49.5361Z" fill="#555A60"/>
<path d="M43.0081 49.5769C42.9273 50.8834 44.3582 52.6215 46.3292 52.746C48.3002 52.8705 49.9106 51.2391 49.9931 49.9326C50.0739 48.6262 48.5686 47.8194 46.5976 47.6965C44.6266 47.5736 43.0906 48.2721 43.0081 49.5785V49.5769Z" fill="#555A60"/>
<path d="M46.0105 51.6282C46.0623 52.8263 46.0218 54.0244 46.0736 55.2225C46.1108 56.0778 47.4447 56.0827 47.4075 55.2225C47.3558 54.0244 47.3962 52.8263 47.3445 51.6282C47.3073 50.7729 45.9733 50.768 46.0105 51.6282Z" fill="#555A60"/>
<path d="M41.3151 57.2561C43.2011 58.5893 46.1305 58.1101 47.0718 55.6545C47.4169 54.7539 46.2277 53.9689 45.8793 54.8788C45.2261 56.583 43.3233 56.8553 42.0119 55.9286C41.2582 55.3972 40.5647 56.7266 41.3151 57.2561Z" fill="#555A60"/>
<path d="M51.5048 56.1108C50.158 56.8901 48.0205 56.7576 47.2864 55.2005C46.921 54.4244 45.7698 55.1003 46.1352 55.8731C47.1797 58.0882 50.2453 58.3809 52.1775 57.262C52.9196 56.8319 52.2486 55.6791 51.5048 56.1108Z" fill="#555A60"/>
</svg>
