<svg width="84" height="23" viewBox="0 0 84 23" fill="none" xmlns="http://www.w3.org/2000/svg">
<path d="M65.1095 22.259C64.9246 22.6981 64.5283 23 64.0527 23H60.6182L69.7065 0.713604C69.8915 0.274463 70.2878 0 70.7633 0H73.6695C74.1186 0 74.5414 0.274463 74.6999 0.713604L83.9996 23H80.3537C79.9046 23 79.4818 22.7255 79.2969 22.2864L77.3683 17.4558C77.1833 17.0167 76.787 16.7422 76.3115 16.7422H69.7065L70.8426 13.778C71.0011 13.3389 71.4238 13.037 71.8994 13.037H75.5717L72.7184 5.95585C72.4806 5.37948 71.688 5.37948 71.4767 5.95585L65.0831 22.259H65.1095Z" fill="#6F757B"/>
<path d="M50.0223 1.56444V17.7303C50.0223 18.6086 50.7144 19.2948 51.5395 19.2948H58.8862V23H47.4137C46.5619 23 45.8965 22.2864 45.8965 21.4356V1.56444C45.8965 0.686158 46.5886 0 47.4137 0H48.5051C49.3569 0 50.0223 0.713604 50.0223 1.56444Z" fill="#6F757B"/>
<path d="M20.7832 11.5271C20.7832 3.84235 24.4131 0 31.6987 0C38.9843 0 42.4327 3.84235 42.4327 11.5271C42.4327 19.2118 38.8547 23 31.6987 23C24.5427 23 21.1203 19.1847 20.7832 11.5271ZM31.6728 19.3471C36.0545 19.3471 38.2324 16.7224 38.2324 11.4459C38.2324 6.16941 36.0545 3.65294 31.6728 3.65294C27.291 3.65294 24.9316 6.25059 24.9316 11.4459C24.9316 16.6412 27.1873 19.3471 31.6728 19.3471Z" fill="#6F757B"/>
<path d="M0.0534155 0.336508C-0.101975 0.00725626 0.131111 0.00725624 0.131111 0.00725624H3.52381C3.88639 0.00725624 4.19717 0.19932 4.37846 0.528571L9.32506 9.50068C9.71354 10.2141 10.6718 10.1866 11.0344 9.50068L15.6443 0.556009C15.8256 0.226757 16.1623 0.00725624 16.4989 0.00725624H19.5549C19.5549 0.00725624 19.8916 -0.047619 19.9175 0.144444C19.9175 0.336508 19.8139 0.556009 19.6326 0.885261L12.2516 14.7138C12.1739 14.8785 12.1221 15.0431 12.1221 15.2351V21.9574C12.1221 22.5336 11.6818 23 11.138 23H9.09197C8.54811 23 8.10783 22.5336 8.10783 21.9574V15.2626C8.10783 15.0705 8.05604 14.8785 7.97834 14.7413C7.95244 14.7138 0.157009 0.583447 0.0534155 0.336508Z" fill="#6F757B"/>
</svg>
