<svg width="22" height="22" viewBox="0 0 22 22" fill="none" xmlns="http://www.w3.org/2000/svg">
<path d="M11.9248 1.72846L13.7902 5.50786C13.9402 5.81206 14.2306 6.02326 14.5666 6.07186L18.7372 6.67786C19.5826 6.80086 19.9204 7.83946 19.3084 8.43586L16.2904 11.3777C16.0474 11.6147 15.9364 11.9555 15.994 12.2903L16.7062 16.4441C16.8508 17.2859 15.967 17.9285 15.2104 17.5307L11.4796 15.5693C11.1796 15.4115 10.8208 15.4115 10.5202 15.5693L6.78942 17.5307C6.03342 17.9285 5.14962 17.2859 5.29362 16.4441L6.00582 12.2903C6.06342 11.9561 5.95242 11.6147 5.70942 11.3777L2.69142 8.43586C2.07942 7.83946 2.41722 6.80026 3.26262 6.67786L7.43322 6.07186C7.76922 6.02326 8.05902 5.81206 8.20962 5.50786L10.075 1.72846C10.453 0.962259 11.5456 0.962259 11.9236 1.72846H11.9248Z" fill="#FFCD00"/>
<path d="M15.595 1.49098C15.3334 1.84678 15.0688 3.01618 14.8996 3.89338C14.8168 4.32238 15.2674 4.65418 15.6526 4.44718C16.4398 4.02418 17.4778 3.42418 17.7394 3.06838C18.175 2.47618 18.0484 1.64338 17.4562 1.20778C16.864 0.772179 16.0306 0.898779 15.595 1.49098Z" fill="#FFE63B"/>
<path d="M20.5877 11.7949C20.1689 11.6557 18.9749 11.7655 18.0881 11.8759C17.6543 11.9299 17.4785 12.4609 17.7941 12.7633C18.4397 13.3813 19.3313 14.1829 19.7501 14.3221C20.4479 14.5537 21.2009 14.1757 21.4325 13.4779C21.6641 12.7801 21.2861 12.0271 20.5883 11.7955L20.5877 11.7949Z" fill="#FFE63B"/>
<path d="M12.3311 19.7281C12.3335 19.2865 11.8607 18.1849 11.4821 17.3755C11.2967 16.9795 10.7375 16.9765 10.5473 17.3701C10.1591 18.1747 9.67186 19.2703 9.66946 19.7119C9.66526 20.4469 10.2575 21.0463 10.9925 21.0511C11.7275 21.0553 12.3263 20.4631 12.3311 19.7281Z" fill="#FFE63B"/>
<path d="M2.23472 14.3266C2.65532 14.1928 3.55652 13.402 4.20932 12.7918C4.52852 12.4936 4.35872 11.9602 3.92612 11.9008C3.04052 11.7802 1.84832 11.656 1.42772 11.7898C0.727524 12.0124 0.339924 12.7612 0.563124 13.4614C0.786324 14.1616 1.53452 14.5498 2.23472 14.3266Z" fill="#FFE63B"/>
<path d="M4.25181 3.0557C4.50921 3.4145 5.53941 4.0271 6.32181 4.4597C6.70401 4.6709 7.15881 4.3451 7.08141 3.9149C6.92241 3.0353 6.67221 1.8629 6.41481 1.5041C5.98641 0.907098 5.15481 0.769699 4.55781 1.1981C3.96081 1.6265 3.82341 2.4581 4.25181 3.0551V3.0557Z" fill="#FFE63B"/>
</svg>
