<svg width="24" height="24" viewBox="0 0 24 24" fill="none" xmlns="http://www.w3.org/2000/svg">
<path d="M12.4088 13.017C12.8647 11.9604 13.671 11.0934 14.6918 10.5622C15.7126 10.031 16.8853 9.86815 18.0122 10.1011C19.1391 10.3341 20.1511 10.9487 20.8776 11.8411C21.604 12.7336 22.0004 13.8493 21.9998 15C21.9998 18.866 17.9998 22 12.9998 22C8.92284 22 4.84684 21.18 2.62884 19.538C2.20284 19.222 1.99784 18.706 2.00884 18.176C2.11784 12.723 2.62684 2 9.99984 2C10.7955 2 11.5586 2.31607 12.1212 2.87868C12.6838 3.44129 12.9998 4.20435 12.9998 5C12.9998 5.53043 12.7891 6.03914 12.4141 6.41421C12.039 6.78929 11.5303 7 10.9998 7C9.89484 7 9.35984 6.556 8.99984 6" stroke="#F79009" stroke-width="2" stroke-linecap="round" stroke-linejoin="round"/>
<path d="M14.9999 13.9998C14.3964 13.5469 13.6982 13.2365 12.9577 13.0918C12.2171 12.9471 11.4534 12.9719 10.7238 13.1643C9.99425 13.3567 9.31766 13.7118 8.74478 14.2028C8.1719 14.6939 7.71759 15.3082 7.41589 15.9998" stroke="#F79009" stroke-width="2" stroke-linecap="round" stroke-linejoin="round"/>
<path d="M9.96388 6.8252C8.01888 7.9772 9.49988 13.0002 7.99988 15.0002" stroke="#F79009" stroke-width="2" stroke-linecap="round" stroke-linejoin="round"/>
</svg>
