<svg width="375" height="184" viewBox="0 0 375 184" fill="none" xmlns="http://www.w3.org/2000/svg">
<rect width="375" height="184" fill="#D8EFF7"/>
<g clip-path="url(#clip0_2126_65917)">
<path d="M253.67 85.8914C256.256 80.8582 253.605 74.3186 247.747 71.2849C241.89 68.2511 235.045 69.8719 232.459 74.9051C229.873 79.9383 232.525 86.4779 238.382 89.5117C244.239 92.5454 251.084 90.9246 253.67 85.8914Z" fill="#C4E7F3"/>
<path d="M261.902 60.1014C266.212 55.4398 264.966 47.2621 259.119 41.8361C253.272 36.41 245.038 35.7903 240.728 40.452C236.418 45.1136 237.664 53.2913 243.511 58.7173C249.358 64.1434 257.592 64.763 261.902 60.1014Z" fill="#C4E7F3"/>
<path d="M288.198 28.2648C284.738 21.0762 277.293 17.4765 271.572 20.2248C265.85 22.9731 264.017 31.0285 267.477 38.2172C270.938 45.4058 278.382 49.0055 284.104 46.2572C289.826 43.509 291.659 35.4535 288.198 28.2648Z" fill="#C4E7F3"/>
<path d="M320.819 36.1595C319.29 29.4863 313.029 25.2147 306.836 26.6186C300.643 28.0225 296.863 34.5702 298.392 41.2434C299.922 47.9165 306.182 52.1881 312.375 50.7842C318.568 49.3803 322.349 42.8326 320.819 36.1595Z" fill="#C4E7F3"/>
<path d="M274.07 58.9356C274.07 58.9356 263.176 65.2626 262.873 81.0049C262.569 96.7471 260.156 97.3591 264.999 105.106C269.843 112.853 280.186 111.704 289.307 103.033C298.427 94.3613 298.164 95.2 304.263 92.2204C310.363 89.2407 317.754 87.4434 321.166 80.695C324.577 73.9466 322.046 65.0192 312.103 61.8029C306.156 59.8798 297.526 55.3312 289.143 54.7467C283.511 54.3559 277.649 56.902 274.071 58.9321L274.07 58.9356Z" fill="#C4E7F3"/>
</g>
<path d="M26.9141 102.148C26.9141 104.316 28.3203 106.465 31.0938 107.383L30 109.062C28.0273 108.408 26.6211 107.08 25.8594 105.43C25.0684 107.236 23.6035 108.672 21.543 109.375L20.3906 107.695C23.2422 106.758 24.7266 104.473 24.7266 102.148V101.934H20.9961V100.195H30.5859V101.934H26.9141V102.148ZM34.5117 99.082V103.496H36.9727V105.312H34.5117V109.727H32.3438V99.082H34.5117ZM34.5117 110.547V116.738H32.3438V112.285H22.7539V110.547H34.5117ZM44.5312 104.102C44.5312 106.992 46.2305 110.039 49.082 111.23L47.8906 112.949C45.8008 112.051 44.2773 110.195 43.4766 107.949C42.6562 110.371 41.1133 112.402 39.043 113.379L37.793 111.68C40.5859 110.391 42.3242 107.109 42.3242 104.102V102.617H38.4375V100.82H48.3984V102.617H44.5312V104.102ZM52.5586 99.082V116.738H50.3711V99.082H52.5586ZM64.1211 100.605V108.945H55.7617V100.605H64.1211ZM57.8906 102.344V107.227H61.9922V102.344H57.8906ZM69.082 99.082V104.258H71.543V106.074H69.082V111.973H66.9141V99.082H69.082ZM69.7852 114.629V116.387H57.7734V110.723H59.9414V114.629H69.7852ZM93.2812 108.32V110.02H77.1484V108.32H93.2812ZM91.25 111.367V116.738H89.0625V113.105H78.9648V111.367H91.25ZM91.4844 105.352V107.012H79.2188V99.5117H91.3477V101.211H81.3867V102.422H90.918V104.043H81.3867V105.352H91.4844ZM109.258 99.082V108.203H107.09V106.289H103.535V107.637H95.2734V99.8633H97.4414V102.09H101.387V99.8633H103.535V101.426H107.09V99.082H109.258ZM109.258 108.926V113.457H99.8047V114.805H109.824V116.523H97.6367V111.855H107.09V110.625H97.6172V108.926H109.258ZM97.4414 105.918H101.387V103.75H97.4414V105.918ZM103.535 104.629H107.09V103.066H103.535V104.629ZM125.684 99.1016V104.648H128.145V106.445H125.684V112.285H123.516V99.1016H125.684ZM122.246 101.055V102.793H111.777V101.055H115.938V99.082H118.105V101.055H122.246ZM117.012 103.516C119.551 103.516 121.309 104.863 121.328 106.895C121.309 108.906 119.551 110.234 117.012 110.234C114.453 110.234 112.676 108.906 112.676 106.895C112.676 104.863 114.453 103.516 117.012 103.516ZM117.012 105.195C115.664 105.195 114.785 105.82 114.785 106.895C114.785 107.949 115.664 108.574 117.012 108.555C118.359 108.574 119.258 107.949 119.258 106.895C119.258 105.82 118.359 105.195 117.012 105.195ZM126.387 114.629V116.387H114.375V111.25H116.543V114.629H126.387ZM143.125 100.742V112.441H134.727V100.742H143.125ZM136.875 102.441V110.703H141.016V102.441H136.875ZM148.477 99.082V116.758H146.289V99.082H148.477ZM157.5 102.207C157.5 104.688 158.887 107.129 161.602 108.145L160.391 109.824C158.506 109.082 157.158 107.607 156.426 105.781C155.664 107.734 154.238 109.287 152.207 110.078L151.035 108.359C153.848 107.344 155.293 104.844 155.312 102.207V100.098H157.5V102.207ZM165.859 99.1016V112.207H163.691V106.738H160.469V105H163.691V103.262H160.469V101.504H163.691V99.1016H165.859ZM166.25 114.629V116.387H154.219V110.918H156.426V114.629H166.25Z" fill="#262626"/>
<path d="M26.0293 131.746C26.8861 131.751 27.6517 131.885 28.3262 132.149C29.0007 132.414 29.527 132.787 29.9053 133.271C30.2835 133.749 30.4727 134.303 30.4727 134.932C30.4727 135.524 30.3063 136.05 29.9736 136.511C29.6455 136.971 29.1852 137.338 28.5928 137.611C28.0003 137.885 27.319 138.047 26.5488 138.097V140.646H31.6211V141.549H20.4922V140.646H25.4961V138.097C24.7305 138.047 24.0514 137.885 23.459 137.611C22.8665 137.333 22.4062 136.966 22.0781 136.511C21.75 136.05 21.5859 135.524 21.5859 134.932C21.5859 134.303 21.7751 133.749 22.1533 133.271C22.5316 132.787 23.0579 132.414 23.7324 132.149C24.4069 131.885 25.1725 131.751 26.0293 131.746ZM26.0293 132.635C25.3776 132.635 24.792 132.733 24.2725 132.929C23.7575 133.12 23.3542 133.391 23.0625 133.742C22.7708 134.089 22.625 134.485 22.625 134.932C22.625 135.392 22.7708 135.798 23.0625 136.148C23.3542 136.499 23.7575 136.771 24.2725 136.962C24.7874 137.153 25.373 137.251 26.0293 137.256C26.6855 137.251 27.2712 137.153 27.7861 136.962C28.3011 136.771 28.7044 136.499 28.9961 136.148C29.2878 135.798 29.4336 135.392 29.4336 134.932C29.4336 134.485 29.2878 134.089 28.9961 133.742C28.7044 133.391 28.2988 133.12 27.7793 132.929C27.2643 132.733 26.681 132.635 26.0293 132.635ZM42.3945 134.768H34.0957V131.158H35.1484V133.879H42.3945V134.768ZM43.707 136.846H32.5781V135.971H43.707V136.846ZM42.2715 140.783H35.0801V142.082H42.709V142.943H34V139.963H41.2188V138.787H33.9727V137.939H42.2715V140.783ZM57.6113 135.971H59.6484V136.859H57.6113V143.107H56.5449V130.953H57.6113V135.971ZM55.3691 133.797H48.1367V132.908H51.2676V131.104H52.334V132.908H55.3691V133.797ZM51.8145 134.809C52.3841 134.809 52.8945 134.927 53.3457 135.164C53.7969 135.401 54.1501 135.731 54.4053 136.155C54.6605 136.579 54.7904 137.06 54.7949 137.598C54.7904 138.135 54.6605 138.616 54.4053 139.04C54.1501 139.464 53.7969 139.794 53.3457 140.031C52.8945 140.268 52.3841 140.387 51.8145 140.387C51.2402 140.387 50.7253 140.268 50.2695 140.031C49.8184 139.794 49.4652 139.464 49.21 139.04C48.9548 138.616 48.8294 138.135 48.834 137.598C48.8294 137.06 48.9548 136.579 49.21 136.155C49.4652 135.731 49.8184 135.401 50.2695 135.164C50.7253 134.927 51.2402 134.809 51.8145 134.809ZM51.8145 135.711C51.4408 135.711 51.1035 135.793 50.8027 135.957C50.5065 136.117 50.2741 136.34 50.1055 136.627C49.9368 136.914 49.8548 137.238 49.8594 137.598C49.8548 137.962 49.9368 138.288 50.1055 138.575C50.2741 138.858 50.5065 139.079 50.8027 139.238C51.1035 139.398 51.4408 139.475 51.8145 139.471C52.1836 139.475 52.5163 139.398 52.8125 139.238C53.1087 139.079 53.3411 138.858 53.5098 138.575C53.6784 138.288 53.765 137.962 53.7695 137.598C53.765 137.238 53.6784 136.914 53.5098 136.627C53.3411 136.34 53.1087 136.117 52.8125 135.957C52.5163 135.793 52.1836 135.711 51.8145 135.711ZM70.0664 134.604H62.7383V136.176H70.3262V137.064H61.6582V133.756H68.9727V132.32H61.6309V131.445H70.0664V134.604ZM71.4199 139.211H66.3613V143.135H65.2949V139.211H60.291V138.35H71.4199V139.211ZM73.334 144.803H72.3223L73.0742 141.084H74.4004L73.334 144.803ZM90.875 136.709H88.9062V143.107H87.8398V130.953H88.9062V135.807H90.875V136.709ZM81.0723 139.115C82.0247 139.111 82.9567 139.065 83.8682 138.979C84.7796 138.892 85.7116 138.751 86.6641 138.555L86.8008 139.471C85.8118 139.671 84.8434 139.812 83.8955 139.895C82.9521 139.977 81.9792 140.018 80.9766 140.018H80.0059V132.156H81.0723V139.115ZM102.715 137.447H91.5859V136.6H102.715V137.447ZM101.32 141.002H94.0195V142.164H101.717V142.943H92.9395V140.264H100.254V139.225H92.9258V138.418H101.32V141.002ZM101.279 133.838H94.1016V134.904H101.498V135.684H93.0352V133.1H100.199V132.102H92.9941V131.322H101.279V133.838ZM111.219 131.555C111.82 131.55 112.356 131.65 112.825 131.855C113.299 132.061 113.668 132.352 113.933 132.73C114.201 133.109 114.336 133.542 114.336 134.029C114.336 134.517 114.201 134.95 113.933 135.328C113.668 135.706 113.299 136 112.825 136.21C112.356 136.42 111.82 136.522 111.219 136.518C110.617 136.522 110.079 136.42 109.605 136.21C109.136 136 108.767 135.706 108.498 135.328C108.234 134.95 108.102 134.517 108.102 134.029C108.102 133.542 108.234 133.109 108.498 132.73C108.767 132.352 109.136 132.061 109.605 131.855C110.079 131.65 110.617 131.55 111.219 131.555ZM111.219 132.43C110.818 132.425 110.46 132.491 110.146 132.628C109.831 132.76 109.585 132.949 109.407 133.195C109.234 133.441 109.15 133.719 109.154 134.029C109.15 134.344 109.234 134.624 109.407 134.87C109.585 135.112 109.831 135.301 110.146 135.438C110.46 135.57 110.818 135.633 111.219 135.629C111.624 135.633 111.984 135.57 112.299 135.438C112.618 135.301 112.866 135.112 113.044 134.87C113.222 134.624 113.311 134.344 113.311 134.029C113.311 133.719 113.222 133.441 113.044 133.195C112.866 132.949 112.618 132.76 112.299 132.628C111.984 132.491 111.624 132.425 111.219 132.43ZM117.234 143.121H116.182V130.967H117.234V143.121ZM107.186 137.557C108.685 137.557 110.109 137.529 111.458 137.475C112.807 137.415 114.085 137.297 115.293 137.119L115.361 137.926C114.29 138.122 113.11 138.261 111.82 138.343V142.738H110.754V138.404C109.947 138.441 108.808 138.464 107.336 138.473L107.186 137.557ZM128.814 134.973H130.646V135.875H128.814V140.072H127.748V130.967H128.814V134.973ZM126.586 133.332H119.34V132.457H122.43V130.967H123.496V132.457H126.586V133.332ZM122.963 134.002C123.537 134.002 124.043 134.095 124.48 134.282C124.923 134.469 125.267 134.733 125.513 135.075C125.759 135.417 125.884 135.816 125.889 136.271C125.884 136.723 125.759 137.117 125.513 137.454C125.267 137.791 124.923 138.053 124.48 138.24C124.043 138.423 123.537 138.514 122.963 138.514C122.384 138.514 121.871 138.423 121.425 138.24C120.983 138.053 120.639 137.791 120.393 137.454C120.151 137.117 120.033 136.723 120.037 136.271C120.033 135.816 120.151 135.417 120.393 135.075C120.639 134.733 120.983 134.469 121.425 134.282C121.871 134.095 122.384 134.002 122.963 134.002ZM122.963 134.85C122.585 134.85 122.25 134.909 121.958 135.027C121.671 135.141 121.448 135.308 121.288 135.526C121.133 135.741 121.058 135.989 121.062 136.271C121.058 136.554 121.133 136.802 121.288 137.017C121.448 137.226 121.671 137.388 121.958 137.502C122.25 137.616 122.585 137.671 122.963 137.666C123.337 137.671 123.667 137.616 123.954 137.502C124.246 137.388 124.471 137.226 124.631 137.017C124.79 136.802 124.872 136.554 124.877 136.271C124.872 135.989 124.79 135.741 124.631 135.526C124.471 135.308 124.246 135.141 123.954 135.027C123.667 134.909 123.337 134.85 122.963 134.85ZM129.375 142.848H121.213V139.348H122.266V141.945H129.375V142.848ZM139.041 133.209C139.041 133.742 139.164 134.255 139.41 134.747C139.661 135.235 140.012 135.668 140.463 136.046C140.914 136.424 141.438 136.718 142.035 136.928L141.488 137.762C140.8 137.516 140.199 137.156 139.684 136.682C139.169 136.203 138.781 135.649 138.521 135.021C138.262 135.704 137.865 136.306 137.332 136.825C136.799 137.34 136.174 137.73 135.459 137.994L134.885 137.16C135.486 136.946 136.022 136.638 136.491 136.237C136.961 135.836 137.325 135.374 137.585 134.85C137.849 134.326 137.984 133.779 137.988 133.209V132.689H135.213V131.814H141.775V132.689H139.041V133.209ZM144.428 134.166H146.26V135.082H144.428V138.281H143.361V130.953H144.428V134.166ZM144.428 143.107H143.361V139.799H136.471V138.924H144.428V143.107ZM158.1 138.24H147.025V137.365H158.1V138.24ZM156.869 142.848H148.461V139.307H149.541V141.945H156.869V142.848ZM152.562 131.391C153.428 131.386 154.185 131.479 154.832 131.671C155.479 131.862 155.978 132.14 156.329 132.505C156.68 132.865 156.855 133.296 156.855 133.797C156.855 134.298 156.68 134.731 156.329 135.096C155.978 135.456 155.479 135.734 154.832 135.93C154.185 136.121 153.428 136.217 152.562 136.217C151.688 136.217 150.926 136.121 150.279 135.93C149.632 135.734 149.133 135.456 148.782 135.096C148.431 134.731 148.256 134.298 148.256 133.797C148.256 133.296 148.431 132.865 148.782 132.505C149.133 132.14 149.632 131.862 150.279 131.671C150.926 131.479 151.688 131.386 152.562 131.391ZM152.562 132.252C151.915 132.252 151.35 132.316 150.867 132.443C150.384 132.566 150.01 132.744 149.746 132.977C149.486 133.209 149.359 133.482 149.363 133.797C149.359 134.111 149.486 134.385 149.746 134.617C150.01 134.85 150.384 135.03 150.867 135.157C151.35 135.28 151.915 135.342 152.562 135.342C153.205 135.342 153.768 135.28 154.251 135.157C154.734 135.03 155.105 134.85 155.365 134.617C155.63 134.385 155.762 134.111 155.762 133.797C155.762 133.482 155.63 133.209 155.365 132.977C155.105 132.744 154.734 132.566 154.251 132.443C153.768 132.316 153.205 132.252 152.562 132.252ZM172.455 137.529H168.695V140.674H173.768V141.576H162.639V140.674H167.643V137.529H164.061V131.951H172.332V132.826H165.141V136.654H172.455V137.529ZM184.814 139.881H183.734V135.219H181.232V134.33H183.734V130.967H184.814V139.881ZM185.156 142.848H177.008V139.074H178.088V141.945H185.156V142.848ZM178.963 133.469C178.963 133.988 179.088 134.496 179.339 134.993C179.594 135.485 179.947 135.923 180.398 136.306C180.854 136.688 181.374 136.978 181.957 137.174L181.396 138.035C180.717 137.789 180.12 137.424 179.605 136.941C179.095 136.454 178.708 135.893 178.443 135.26C178.179 135.962 177.778 136.581 177.24 137.119C176.702 137.652 176.074 138.053 175.354 138.322L174.793 137.447C175.385 137.238 175.916 136.932 176.386 136.531C176.855 136.126 177.222 135.659 177.486 135.13C177.751 134.597 177.883 134.043 177.883 133.469V132.84H175.135V131.951H181.684V132.84H178.963V133.469ZM188.123 142.082C187.964 142.082 187.815 142.043 187.679 141.966C187.547 141.884 187.439 141.774 187.357 141.638C187.28 141.501 187.243 141.353 187.248 141.193C187.243 141.038 187.28 140.895 187.357 140.763C187.439 140.626 187.547 140.519 187.679 140.441C187.815 140.359 187.964 140.318 188.123 140.318C188.278 140.318 188.422 140.359 188.554 140.441C188.69 140.519 188.798 140.626 188.875 140.763C188.957 140.895 188.998 141.038 188.998 141.193C188.998 141.353 188.957 141.501 188.875 141.638C188.798 141.774 188.69 141.884 188.554 141.966C188.422 142.043 188.278 142.082 188.123 142.082ZM23.7598 151.896C24.3066 151.901 24.7965 152.054 25.2295 152.354C25.667 152.655 26.0202 153.084 26.2891 153.64C26.5579 154.196 26.7197 154.85 26.7744 155.602H29.502V150.953H30.5684V163.135H29.502V156.49H26.7881C26.7471 157.274 26.5944 157.958 26.3301 158.541C26.0658 159.124 25.7103 159.573 25.2637 159.888C24.8216 160.202 24.3203 160.359 23.7598 160.359C23.1673 160.359 22.6387 160.186 22.1738 159.84C21.7135 159.493 21.3535 159.001 21.0938 158.363C20.8385 157.725 20.7109 156.982 20.7109 156.135C20.7109 155.287 20.8385 154.544 21.0938 153.906C21.3535 153.268 21.7135 152.776 22.1738 152.43C22.6341 152.079 23.1628 151.901 23.7598 151.896ZM23.7598 152.854C23.3633 152.858 23.0101 152.997 22.7002 153.271C22.3949 153.539 22.1579 153.922 21.9893 154.419C21.8206 154.911 21.7363 155.483 21.7363 156.135C21.7363 156.786 21.8206 157.361 21.9893 157.857C22.1579 158.35 22.3949 158.73 22.7002 158.999C23.0101 159.268 23.3633 159.402 23.7598 159.402C24.1517 159.402 24.5003 159.268 24.8057 158.999C25.1156 158.73 25.3548 158.35 25.5234 157.857C25.6966 157.361 25.7832 156.786 25.7832 156.135C25.7832 155.483 25.6966 154.911 25.5234 154.419C25.3548 153.922 25.1178 153.539 24.8125 153.271C24.5072 152.997 24.1562 152.858 23.7598 152.854ZM43.1055 162.848H34.6426V159.074H35.709V161.945H43.1055V162.848ZM42.7773 159.799H41.7246V155.205H39.4824V154.316H41.7246V150.967H42.7773V159.799ZM36.0098 152.854H33.9863V156.962C34.7292 156.939 35.4492 156.85 36.1465 156.695L36.2559 157.584C35.7546 157.693 35.2965 157.762 34.8818 157.789C34.4671 157.816 33.9909 157.83 33.4531 157.83H32.9336V151.965H36.0098V152.854ZM40.0703 152.854H37.7598V156.969C38.3158 156.96 38.8057 156.935 39.2295 156.894C39.6579 156.848 40.0931 156.773 40.5352 156.668L40.6445 157.557C40.1159 157.671 39.6123 157.746 39.1338 157.782C38.6553 157.814 38.0423 157.83 37.2949 157.83H36.6797V151.965H40.0703V152.854ZM54.5352 160.059H48.916V152.156H54.5352V160.059ZM49.9688 159.184H53.4824V153.018H49.9688V159.184ZM58.2266 163.135H57.1465V150.953H58.2266V163.135ZM64.4609 153.209C64.4609 153.792 64.5863 154.36 64.8369 154.911C65.0876 155.463 65.4385 155.952 65.8896 156.381C66.3408 156.805 66.8581 157.133 67.4414 157.365L66.8398 158.199C66.1745 157.921 65.5889 157.518 65.083 156.989C64.5817 156.461 64.2035 155.85 63.9482 155.157C63.6885 155.905 63.2943 156.563 62.7656 157.133C62.2415 157.698 61.6263 158.126 60.9199 158.418L60.332 157.557C60.929 157.324 61.46 156.987 61.9248 156.545C62.3896 156.103 62.752 155.592 63.0117 155.014C63.2715 154.435 63.4036 153.833 63.4082 153.209V151.65H64.4609V153.209ZM70.3809 160.045H69.3008V156.148H66.7988V155.273H69.3008V153.66H66.7988V152.771H69.3008V150.967H70.3809V160.045ZM70.6543 162.848H62.5195V159.102H63.5996V161.945H70.6543V162.848ZM82.4258 163.135H81.3457V150.953H82.4258V163.135ZM75.959 151.896C76.5605 151.901 77.096 152.079 77.5654 152.43C78.0348 152.776 78.4017 153.268 78.666 153.906C78.9303 154.544 79.0625 155.287 79.0625 156.135C79.0625 156.982 78.9303 157.725 78.666 158.363C78.4017 159.001 78.0348 159.493 77.5654 159.84C77.096 160.186 76.5605 160.359 75.959 160.359C75.3574 160.359 74.8197 160.186 74.3457 159.84C73.8763 159.493 73.5094 159.001 73.2451 158.363C72.9854 157.725 72.8555 156.982 72.8555 156.135C72.8555 155.287 72.9854 154.544 73.2451 153.906C73.5094 153.268 73.8763 152.776 74.3457 152.43C74.8151 152.079 75.3529 151.901 75.959 151.896ZM75.959 152.854C75.5534 152.858 75.1934 152.997 74.8789 153.271C74.569 153.539 74.3275 153.922 74.1543 154.419C73.9811 154.911 73.8945 155.483 73.8945 156.135C73.8945 156.786 73.9811 157.361 74.1543 157.857C74.3275 158.35 74.5713 158.73 74.8857 158.999C75.2002 159.268 75.5579 159.402 75.959 159.402C76.36 159.402 76.7178 159.268 77.0322 158.999C77.3467 158.73 77.5905 158.35 77.7637 157.857C77.9368 157.361 78.0234 156.786 78.0234 156.135C78.0234 155.483 77.9368 154.911 77.7637 154.419C77.5905 153.922 77.3467 153.539 77.0322 153.271C76.7223 152.997 76.3646 152.858 75.959 152.854ZM99.3926 156.709H97.4238V163.107H96.3574V150.953H97.4238V155.807H99.3926V156.709ZM89.5898 159.115C90.5423 159.111 91.4743 159.065 92.3857 158.979C93.2972 158.892 94.2292 158.751 95.1816 158.555L95.3184 159.471C94.3294 159.671 93.361 159.812 92.4131 159.895C91.4697 159.977 90.4967 160.018 89.4941 160.018H88.5234V152.156H89.5898V159.115ZM105.654 151.104C106.557 151.104 107.329 151.186 107.972 151.35C108.614 151.514 109.104 151.753 109.441 152.067C109.779 152.382 109.947 152.762 109.947 153.209C109.947 153.842 109.617 154.339 108.956 154.699C108.3 155.059 107.368 155.264 106.16 155.314V156.244H111.191V157.119H100.117V156.244H105.107V155.314C103.909 155.264 102.981 155.059 102.325 154.699C101.674 154.335 101.348 153.838 101.348 153.209C101.348 152.762 101.516 152.382 101.854 152.067C102.195 151.753 102.688 151.514 103.33 151.35C103.977 151.186 104.752 151.104 105.654 151.104ZM105.654 151.924C104.638 151.933 103.852 152.049 103.296 152.272C102.74 152.496 102.464 152.808 102.469 153.209C102.464 153.624 102.738 153.943 103.289 154.166C103.845 154.385 104.633 154.499 105.654 154.508C106.671 154.499 107.457 154.385 108.013 154.166C108.573 153.943 108.854 153.624 108.854 153.209C108.854 152.808 108.571 152.496 108.006 152.272C107.445 152.049 106.661 151.933 105.654 151.924ZM109.77 160.865H102.551V162.123H110.139V162.971H101.484V160.072H108.717V158.979H101.457V158.145H109.77V160.865ZM116.564 154.686C116.564 155.355 116.713 156.023 117.009 156.688C117.305 157.349 117.704 157.939 118.205 158.459C118.711 158.974 119.262 159.361 119.859 159.621L119.258 160.469C118.542 160.141 117.897 159.646 117.323 158.985C116.749 158.32 116.321 157.57 116.038 156.736C115.756 157.63 115.327 158.438 114.753 159.163C114.183 159.883 113.552 160.419 112.859 160.77L112.217 159.922C112.791 159.644 113.326 159.225 113.823 158.664C114.325 158.104 114.726 157.472 115.026 156.771C115.327 156.064 115.48 155.369 115.484 154.686V153.1H112.613V152.211H119.463V153.1H116.564V154.686ZM122.238 163.107H121.158V150.953H122.238V163.107ZM137.879 163.107H136.799V150.953H137.879V163.107ZM134.283 152.279C134.274 154.116 133.809 155.766 132.889 157.229C131.968 158.687 130.528 159.885 128.568 160.824L127.98 159.949C129.603 159.179 130.845 158.222 131.706 157.078C132.572 155.934 133.066 154.626 133.189 153.154H128.541V152.279H134.283ZM150.32 163.107H149.295V156.736H147.504V162.479H146.52V151.227H147.504V155.848H149.295V150.953H150.32V163.107ZM144.934 153.332H141.447V159.184C142.345 159.179 143.106 159.154 143.73 159.108C144.359 159.058 144.993 158.969 145.631 158.842L145.727 159.744C145.034 159.885 144.35 159.981 143.676 160.031C143.006 160.077 142.167 160.1 141.16 160.1H140.381V152.443H144.934V153.332ZM158.1 153.934H152.002V153.059H154.531V151.322H155.598V153.059H158.1V153.934ZM155.051 154.754C155.557 154.754 156.008 154.872 156.404 155.109C156.805 155.342 157.118 155.668 157.341 156.087C157.569 156.506 157.685 156.982 157.689 157.516C157.685 158.053 157.569 158.534 157.341 158.958C157.118 159.377 156.805 159.708 156.404 159.949C156.008 160.186 155.557 160.305 155.051 160.305C154.549 160.305 154.101 160.186 153.704 159.949C153.308 159.708 152.998 159.375 152.774 158.951C152.551 158.527 152.439 158.049 152.439 157.516C152.439 156.987 152.551 156.513 152.774 156.094C152.998 155.67 153.308 155.342 153.704 155.109C154.101 154.872 154.549 154.754 155.051 154.754ZM155.051 155.656C154.736 155.661 154.451 155.745 154.196 155.909C153.946 156.069 153.75 156.29 153.608 156.572C153.467 156.85 153.396 157.165 153.396 157.516C153.396 157.871 153.467 158.19 153.608 158.473C153.754 158.755 153.952 158.976 154.203 159.136C154.454 159.291 154.736 159.366 155.051 159.361C155.37 159.366 155.657 159.291 155.912 159.136C156.167 158.976 156.368 158.755 156.514 158.473C156.66 158.19 156.732 157.871 156.732 157.516C156.732 157.165 156.66 156.85 156.514 156.572C156.368 156.29 156.167 156.069 155.912 155.909C155.657 155.745 155.37 155.661 155.051 155.656ZM162.379 163.107H161.354V156.969H159.74V162.506H158.729V151.254H159.74V156.08H161.354V150.953H162.379V163.107ZM175.258 161.549H164.129V160.66H169.133V158.035H165.441V151.814H166.521V154.016H172.838V151.814H173.891V158.035H170.186V160.66H175.258V161.549ZM172.838 157.16V154.891H166.521V157.16H172.838ZM179.838 154.412C179.838 155.059 179.94 155.706 180.146 156.354C180.351 157.001 180.645 157.591 181.027 158.124C181.415 158.657 181.87 159.079 182.395 159.389L181.779 160.223C181.21 159.876 180.715 159.4 180.296 158.794C179.881 158.183 179.562 157.497 179.339 156.736C179.111 157.557 178.776 158.295 178.334 158.951C177.892 159.607 177.372 160.118 176.775 160.482L176.092 159.676C176.639 159.357 177.117 158.922 177.527 158.37C177.938 157.814 178.252 157.197 178.471 156.518C178.689 155.834 178.799 155.146 178.799 154.453V152.102H179.838V154.412ZM186.646 163.107H185.607V150.953H186.646V163.107ZM184.131 162.492H183.119V156.23H181.055V155.314H183.119V151.213H184.131V162.492ZM199.457 161.549H188.328V160.646H191.09V157.365C190.561 157.092 190.151 156.741 189.859 156.312C189.568 155.88 189.422 155.392 189.422 154.85C189.422 154.23 189.611 153.685 189.989 153.216C190.368 152.742 190.892 152.375 191.562 152.115C192.236 151.855 193.004 151.723 193.865 151.719C194.727 151.723 195.492 151.855 196.162 152.115C196.837 152.375 197.363 152.742 197.741 153.216C198.119 153.685 198.309 154.23 198.309 154.85C198.309 155.383 198.167 155.864 197.885 156.292C197.602 156.716 197.206 157.064 196.695 157.338V160.646H199.457V161.549ZM193.865 152.607C193.204 152.603 192.617 152.694 192.102 152.881C191.587 153.068 191.183 153.332 190.892 153.674C190.604 154.011 190.461 154.403 190.461 154.85C190.461 155.296 190.604 155.693 190.892 156.039C191.183 156.381 191.587 156.647 192.102 156.839C192.617 157.026 193.204 157.119 193.865 157.119C194.521 157.119 195.107 157.023 195.622 156.832C196.137 156.641 196.54 156.374 196.832 156.032C197.124 155.69 197.27 155.296 197.27 154.85C197.27 154.403 197.124 154.011 196.832 153.674C196.54 153.332 196.137 153.068 195.622 152.881C195.107 152.694 194.521 152.603 193.865 152.607ZM195.615 160.646V157.755C195.073 157.896 194.49 157.967 193.865 157.967C193.236 157.967 192.662 157.898 192.143 157.762V160.646H195.615ZM202.301 159.211H201.152L201.057 152.102H202.396L202.301 159.211ZM201.727 162.082C201.567 162.082 201.419 162.043 201.282 161.966C201.15 161.884 201.043 161.774 200.961 161.638C200.883 161.501 200.847 161.353 200.852 161.193C200.847 161.038 200.883 160.895 200.961 160.763C201.043 160.626 201.15 160.519 201.282 160.441C201.419 160.359 201.567 160.318 201.727 160.318C201.882 160.318 202.025 160.359 202.157 160.441C202.294 160.519 202.401 160.626 202.479 160.763C202.561 160.895 202.602 161.038 202.602 161.193C202.602 161.353 202.561 161.501 202.479 161.638C202.401 161.774 202.294 161.884 202.157 161.966C202.025 162.043 201.882 162.082 201.727 162.082Z" fill="#262626"/>
<g clip-path="url(#clip1_2126_65917)">
<path opacity="0.5" d="M313.058 165.624C334.929 165.624 352.66 160.924 352.66 155.126C352.66 149.328 334.929 144.628 313.058 144.628C291.186 144.628 273.456 149.328 273.456 155.126C273.456 160.924 291.186 165.624 313.058 165.624Z" fill="#5E331A"/>
<path d="M286.019 141.396C283.282 138.925 280.404 136.376 276.85 135.425C273.297 134.476 268.882 135.692 267.397 139.078C266.578 140.947 266.777 143.113 267.295 145.089C268.896 151.206 273.546 156.429 279.409 158.701C285.273 160.972 292.201 160.233 297.461 156.775L308.735 146.095L314.697 147.33C312.902 145.369 311.085 143.389 308.889 141.899C306.693 140.408 304.049 139.431 301.415 139.712C298.781 139.993 296.218 141.728 295.437 144.276C294.675 146.758 295.648 149.408 296.619 151.816C298.68 156.929 301.158 162.439 306.063 164.906C309.655 166.711 313.984 166.503 317.795 165.231C321.605 163.959 325.009 161.715 328.364 159.497L330.833 158.111C340.352 158.182 349.58 151.714 352.818 142.702C354.712 137.431 354.658 131.594 353.448 126.122C352.239 120.65 349.926 115.49 347.373 110.508L344.61 107.539L329.858 115.226C327.156 116.749 323.962 117.085 320.867 117.158C317.772 117.232 314.64 117.075 311.613 117.73C308.585 118.386 305.589 120.003 304.117 122.745C302.19 126.334 303.449 131.066 306.326 133.942C309.203 136.816 313.345 138.076 317.389 138.367C322.865 138.763 328.448 137.537 333.263 134.881C336.079 133.329 338.747 131.148 339.886 128.125" fill="white"/>
<path d="M283.965 136.117L294.558 134.991L293.854 113.837L331.521 114.504L308.735 137.997L285.906 143.381L280.804 137.337L283.965 136.117Z" fill="white"/>
<path d="M305.422 116.345C303.67 116.248 290.746 115.115 284.658 107.733C278.569 100.351 276.593 86.6598 281.793 77.1211L283.371 73.9952C282.784 68.9864 282.196 63.9776 281.608 58.9702C281.348 56.7639 281.316 54.0518 283.193 52.8837C284.636 51.9867 286.505 52.498 288.086 53.1125C290.283 53.9671 294.209 55.7539 297.158 57.9348C300.723 60.572 303.005 63.2558 303.005 63.2558C306.23 61.8404 309.916 61.4873 313.432 61.6088L315.001 61.8899C315.001 61.8899 315.234 59.2923 315.992 56.5845C316.772 53.7947 318.092 50.8666 319.153 49.1306C319.833 48.0175 320.686 46.8819 321.932 46.5146C323.662 46.0047 325.385 47.187 326.795 48.317C332.329 52.7551 339.906 66.5978 339.906 66.5978L342.167 68.9454C346.976 73.9867 350.004 80.7159 350.597 87.6797C351.191 94.6434 349.347 101.794 345.463 107.586C345.463 107.586 337.32 118.121 305.422 116.347V116.345Z" fill="white"/>
<path d="M319.083 63.2545C319.358 60.6258 320.313 58.0734 321.828 55.915C322.182 55.4122 322.66 54.8825 323.272 54.9009C323.704 54.9136 324.073 55.2031 324.399 55.4885C327.448 58.1638 329.74 62.7177 330.62 66.6912C330.62 66.6912 328.236 65.5103 324.851 64.3803C321.465 63.2503 319.081 63.2545 319.081 63.2545H319.083Z" fill="#FAC985"/>
<path d="M286.614 71.4216C285.861 68.3818 285.347 65.2828 285.081 62.1625C285.047 61.7628 285.017 61.356 285.113 60.9675C285.208 60.5791 285.451 60.2048 285.82 60.055C286.262 59.8742 286.762 60.0466 287.201 60.233C289.998 61.4238 292.946 63.3971 294.946 65.7009C294.946 65.7009 292.026 67.0837 290.83 68.0428L286.616 71.423L286.614 71.4216Z" fill="#FAC985"/>
<path d="M294.663 134.995C294.628 134.995 294.593 134.992 294.558 134.991C297.868 135.211 301.203 135.036 304.471 134.47L303.215 123.14C301.427 119.583 299.64 116.025 297.852 112.468L297.574 111.947C297.176 111.2 296.448 110.688 295.613 110.57C290.81 110.085 285.954 110.131 281.161 110.704C280.733 110.755 280.318 110.91 279.976 111.174C278.897 112.008 279.316 113.117 279.729 114.049C280.451 115.682 281.174 117.315 281.896 118.947" fill="#94633F"/>
<path d="M290.984 137.352C289.56 138.108 287.804 138.041 286.3 137.464C284.796 136.886 283.512 135.842 282.371 134.696C280.468 132.787 278.853 130.465 278.341 127.809C277.829 125.153 278.602 122.141 280.729 120.489C281.765 119.686 284.835 119.323 287.381 120.885C289.65 122.276 291.439 125.49 292.012 126.697C292.757 128.271 293.908 131.318 293.555 133.692C293.271 135.602 291.624 137.013 290.983 137.353L290.984 137.352Z" fill="white"/>
<path d="M346.059 107.978C350.392 101.457 352.199 93.4018 351.057 85.6429C350.044 78.7568 346.716 72.6251 341.937 67.6657C341.568 67.2815 341.198 66.8987 340.829 66.5145C340.722 66.4029 340.62 66.2829 340.506 66.1798C340.363 66.0484 340.387 66.0032 340.495 66.1939C340.303 65.8492 340.11 65.5046 339.915 65.1613C338.897 63.3717 337.837 61.6032 336.742 59.8616C335.218 57.4405 333.623 55.0618 331.881 52.7933C330.258 50.6788 328.52 48.632 326.352 47.0627C324.706 45.872 322.592 45.0301 320.697 46.1954C319.047 47.2096 318.076 49.197 317.265 50.8921C315.614 54.3485 314.511 58.0648 314.159 61.8899L315.136 61.1413C314.632 61.0509 314.128 60.9421 313.62 60.8701C312.492 60.7091 311.277 60.7995 310.143 60.8701C307.524 61.0311 304.963 61.5467 302.544 62.5863L303.48 62.7078C300.116 58.7655 295.739 55.754 291.08 53.5886C288.812 52.5348 285.824 50.9104 283.305 51.9331C280.787 52.9558 280.481 56.1579 280.728 58.6002C281.097 62.253 281.581 65.8987 282.009 69.5458C282.118 70.4738 282.226 71.4004 282.336 72.3285C282.372 72.6449 282.311 73.3342 282.483 73.58C282.504 73.6096 282.608 73.8822 282.625 73.6308C282.622 73.6718 282.574 73.7141 282.563 73.7537C282.334 74.4967 281.81 75.2453 281.46 75.9389C280.435 77.9687 279.462 79.9857 278.832 82.185C278.058 84.8886 277.696 87.7235 277.734 90.5344C277.818 96.9656 279.994 103.298 284.046 108.286C284.675 109.06 285.762 107.955 285.138 107.187C281.761 103.03 279.788 97.7764 279.366 92.4371C278.952 87.1952 280.025 82.1144 282.421 77.4601C282.741 76.8372 283.053 76.2101 283.369 75.5857C283.684 74.9614 284.087 74.4091 284.045 73.7198C283.94 71.9584 283.63 70.1857 283.425 68.4327C283.22 66.6798 283.011 64.9085 282.804 63.1457C282.612 61.5072 282.372 59.8658 282.239 58.2202C282.146 57.0747 282.1 55.8006 282.56 54.7214C283.725 51.9967 287.183 53.5603 289.118 54.3965C294.127 56.5619 298.815 59.613 302.393 63.8053C302.636 64.0892 303.026 64.0568 303.329 63.9268C305.558 62.9691 307.987 62.5369 310.397 62.4083C311.336 62.3589 312.35 62.277 313.278 62.3801C313.763 62.4338 314.25 62.5538 314.73 62.64C315.256 62.7346 315.658 62.4253 315.707 61.8914C316 58.7061 316.88 55.5562 318.163 52.6351C318.821 51.1407 319.557 49.4767 320.661 48.2535C321.218 47.6362 321.907 47.156 322.767 47.1715C323.728 47.1899 324.613 47.728 325.379 48.2634C327.415 49.6858 329.056 51.6421 330.568 53.597C332.211 55.7215 333.711 57.9589 335.149 60.226C336.263 61.9803 337.336 63.7615 338.371 65.5653C338.855 66.4086 339.238 67.088 339.911 67.7872C341.696 69.6404 343.437 71.488 344.857 73.6534C346.799 76.614 348.222 79.8967 349.051 83.3447C351.009 91.4935 349.352 100.243 344.732 107.195C344.178 108.028 345.515 108.807 346.065 107.979L346.059 107.978Z" fill="#555A60"/>
<path d="M345.658 110.788C348.498 114.017 350.356 117.848 351.547 121.968C352.745 126.117 353.593 130.404 353.445 134.742C353.304 138.897 352.236 142.995 350.025 146.528C348.105 149.593 345.432 152.166 342.353 154.034C338.856 156.154 334.85 157.345 330.762 157.333C329.768 157.331 329.767 158.884 330.762 158.887C338.487 158.907 345.894 154.893 350.443 148.662C352.961 145.213 354.373 141.136 354.836 136.897C355.347 132.226 354.611 127.594 353.45 123.076C352.18 118.135 350.135 113.537 346.751 109.689C346.092 108.939 345.003 110.041 345.66 110.788H345.658Z" fill="#555A60"/>
<path d="M327.902 158.826C323.905 161.469 319.767 164.223 314.991 165.147C312.742 165.582 310.368 165.583 308.159 164.929C306.154 164.336 304.4 163.175 302.959 161.662C300.129 158.687 298.481 154.686 297.01 150.904C296.174 148.757 295.286 146.17 296.317 143.929C297.118 142.188 298.844 141.034 300.665 140.613C303.209 140.025 305.881 140.949 308.025 142.305C310.354 143.778 312.231 145.859 314.08 147.879C314.755 148.616 315.844 147.514 315.172 146.78C311.736 143.027 307.65 138.839 302.181 138.888C299.975 138.908 297.765 139.768 296.22 141.378C294.519 143.153 294.068 145.533 294.489 147.911C294.925 150.378 296.059 152.768 297.069 155.043C297.998 157.136 299.05 159.195 300.424 161.032C301.798 162.87 303.31 164.332 305.232 165.384C307.407 166.574 309.902 167.068 312.364 166.993C318.472 166.809 323.733 163.439 328.681 160.168C329.507 159.621 328.735 158.275 327.902 158.826Z" fill="#555A60"/>
<path d="M311.683 138.245C310.521 138.918 309.359 139.592 308.199 140.264C307.339 140.763 308.115 142.106 308.977 141.606C310.139 140.933 311.301 140.26 312.461 139.587C313.321 139.089 312.546 137.745 311.683 138.245Z" fill="#555A60"/>
<path d="M329.395 114.556C324.079 117.475 317.71 115.827 311.984 116.854C307.172 117.717 302.525 120.94 302.352 126.264C302.184 131.459 305.873 135.667 310.421 137.584C315.435 139.696 321.337 139.625 326.543 138.32C331.996 136.954 338.369 133.928 340.557 128.332C340.92 127.401 339.429 126.997 339.068 127.92C337.273 132.51 331.95 135.082 327.554 136.427C322.785 137.886 317.43 138.203 312.621 136.737C308.213 135.393 304.192 132 303.907 127.082C303.778 124.852 304.565 122.768 306.18 121.227C307.869 119.615 310.135 118.758 312.396 118.353C318.325 117.289 324.643 118.936 330.175 115.898C331.048 115.419 330.269 114.077 329.397 114.556H329.395Z" fill="#555A60"/>
<path d="M310.35 129.878C308.461 130.626 306.921 132.025 306.106 133.915C305.714 134.823 307.043 135.615 307.439 134.699C308.085 133.198 309.234 131.982 310.76 131.376C311.673 131.013 311.276 129.51 310.35 129.878Z" fill="#555A60"/>
<path d="M307.838 123.99C305.627 124.728 303.956 126.339 302.689 128.265C302.139 129.101 303.474 129.879 304.022 129.049C305.056 127.475 306.436 126.092 308.248 125.489C309.186 125.177 308.784 123.675 307.838 123.99Z" fill="#555A60"/>
<path d="M290.526 136.681C287.05 138.41 283.472 135.125 281.451 132.594C279.398 130.024 278.079 126.52 279.461 123.316C279.968 122.142 280.818 121.017 282.1 120.713C283.628 120.353 285.358 120.664 286.715 121.433C288.985 122.723 290.579 125.397 291.577 127.757C292.775 130.595 293.837 134.827 290.526 136.681C289.657 137.167 290.435 138.511 291.304 138.023C292.619 137.287 293.707 135.861 294.118 134.414C294.655 132.519 294.14 130.352 293.52 128.541C292.482 125.511 290.683 122.284 288.023 120.423C286.443 119.319 284.386 118.851 282.483 119.08C280.793 119.284 279.589 120.132 278.651 121.563C276.404 124.999 277.338 129.417 279.542 132.602C282.039 136.208 286.681 140.322 291.304 138.021C292.195 137.577 291.414 136.237 290.526 136.679V136.681Z" fill="#555A60"/>
<path d="M286.493 140.847C283.107 137.792 279.208 134.348 274.387 134.337C272.467 134.333 270.456 134.847 268.89 135.999C267.119 137.303 266.141 139.231 266.015 141.433C265.88 143.795 266.613 146.191 267.547 148.329C268.421 150.329 269.628 152.176 271.068 153.809C274.016 157.155 278.027 159.542 282.399 160.388C287.667 161.409 293.26 160.377 297.778 157.446C298.61 156.906 297.837 155.56 296.999 156.104C289.818 160.762 280.125 160.127 273.76 154.337C270.873 151.71 268.733 148.233 267.849 144.405C267.375 142.347 267.321 139.971 268.725 138.251C269.815 136.913 271.507 136.187 273.182 135.964C278.035 135.317 282.054 138.925 285.401 141.946C286.139 142.611 287.234 141.517 286.493 140.847Z" fill="#555A60"/>
<path d="M275.842 135.962C274.589 137.916 274.791 140.282 276.182 142.093C276.752 142.834 277.744 141.891 277.394 141.15C277.342 141.039 277.289 140.929 277.237 140.817C276.81 139.914 275.48 140.703 275.904 141.601C275.956 141.713 276.009 141.823 276.061 141.934L277.274 140.992C276.301 139.727 276.332 138.058 277.175 136.745C277.715 135.903 276.38 135.123 275.842 135.961V135.962Z" fill="#555A60"/>
<path d="M270.639 136.031C269.564 138.458 269.958 141.243 271.708 143.245C272.366 143.996 273.453 142.894 272.799 142.146C271.546 140.712 271.196 138.566 271.971 136.815C272.373 135.909 271.043 135.118 270.639 136.031Z" fill="#555A60"/>
<path d="M304.796 140.374C303.464 142.07 302.963 144.189 303.471 146.302L304.959 145.89C304.923 145.772 304.885 145.657 304.848 145.539C304.548 144.59 303.057 144.996 303.36 145.952C303.396 146.069 303.434 146.185 303.471 146.302C303.772 147.253 305.194 146.866 304.959 145.89C304.592 144.363 304.913 142.713 305.888 141.473C306.498 140.697 305.412 139.59 304.796 140.374Z" fill="#555A60"/>
<path d="M298.722 140.368C297.663 142.657 297.652 145.175 298.676 147.476L300.009 146.692C299.912 146.528 299.814 146.364 299.717 146.201C299.208 145.343 297.873 146.123 298.384 146.985C298.481 147.148 298.579 147.312 298.676 147.476C299.196 148.353 300.407 147.586 300.009 146.692C299.23 144.943 299.251 142.888 300.055 141.152C300.472 140.251 299.142 139.461 298.722 140.368Z" fill="#555A60"/>
<path d="M291.631 128.92C290.272 128.93 288.968 129.332 287.86 130.126C287.057 130.701 287.828 132.049 288.639 131.468C289.539 130.823 290.523 130.481 291.631 130.474C292.625 130.467 292.626 128.913 291.631 128.92Z" fill="#555A60"/>
<path d="M288.887 122.625C287.091 122.596 285.496 123.452 284.443 124.897C283.856 125.703 285.194 126.48 285.776 125.681C286.505 124.682 287.673 124.158 288.888 124.178C289.882 124.195 289.882 122.641 288.888 122.624L288.887 122.625Z" fill="#555A60"/>
<path d="M345.17 97.6419C341.413 96.7238 337.488 96.8071 333.777 97.9033C332.826 98.1843 333.231 99.6844 334.187 99.4019C337.637 98.3821 341.265 98.286 344.759 99.1406C345.724 99.3765 346.135 97.8792 345.169 97.6419H345.17Z" fill="#555A60"/>
<path d="M344.608 88.2723C340.208 88.5478 335.952 90.0281 332.353 92.5989C331.549 93.1724 332.319 94.5213 333.132 93.9408C336.508 91.5296 340.471 90.086 344.608 89.8261C345.594 89.7639 345.601 88.2102 344.608 88.2723Z" fill="#555A60"/>
<path d="M283.894 97.0346C280.418 96.7295 276.935 96.8919 273.496 97.4809C272.52 97.649 272.934 99.1463 273.906 98.9796C277.206 98.4146 280.559 98.2959 283.893 98.5883C284.882 98.6759 284.877 97.1207 283.893 97.0346H283.894Z" fill="#555A60"/>
<path d="M285.373 102.355C281.901 102.861 278.56 104.019 275.501 105.749C275.007 106.029 274.992 106.816 275.501 107.091L275.731 107.216C276.607 107.687 277.387 106.347 276.51 105.874L276.28 105.749V107.091C279.229 105.424 282.438 104.341 285.784 103.854C286.764 103.711 286.347 102.214 285.375 102.355H285.373Z" fill="#555A60"/>
<path d="M317.454 96.7613C319.035 96.3927 319.936 94.4397 319.467 92.3991C318.997 90.3585 317.335 89.0031 315.754 89.3717C314.174 89.7403 313.273 91.6933 313.742 93.7339C314.212 95.7745 315.874 97.1299 317.454 96.7613Z" fill="#555A60"/>
<path d="M296.357 98.1695C297.937 97.8009 298.838 95.8479 298.369 93.8073C297.899 91.7667 296.237 90.4113 294.657 90.7799C293.076 91.1485 292.175 93.1015 292.644 95.1421C293.114 97.1827 294.776 98.5381 296.357 98.1695Z" fill="#555A60"/>
<path d="M301.881 98.4496C301.881 99.5937 303.215 101.032 304.928 101.032C306.641 101.032 307.949 99.5231 307.949 98.3789C307.949 97.2348 306.601 96.6133 304.887 96.6133C303.174 96.6133 301.881 97.3054 301.881 98.4496Z" fill="#555A60"/>
<path d="M312.16 103.394C311.217 104.367 309.79 104.789 308.488 104.356C307.186 103.922 306.317 102.694 306.12 101.347C305.975 100.361 304.488 100.78 304.631 101.759C304.907 103.639 306.28 105.268 308.077 105.853C309.89 106.443 311.938 105.846 313.25 104.491C313.945 103.775 312.854 102.675 312.158 103.392L312.16 103.394Z" fill="#555A60"/>
<path d="M304.288 101.781C304.723 102.867 304.134 103.887 303.108 104.339C301.993 104.83 300.76 104.586 299.643 104.237C298.692 103.939 298.286 105.439 299.233 105.736C300.873 106.248 302.745 106.435 304.269 105.476C305.623 104.624 306.397 102.918 305.777 101.368C305.411 100.453 303.917 100.853 304.288 101.781Z" fill="#555A60"/>
<path d="M304.196 133.72C300.988 134.264 297.733 134.418 294.488 134.213V135.766L294.593 135.771C295.587 135.805 295.585 134.251 294.593 134.217L294.488 134.213C293.489 134.179 293.503 135.704 294.488 135.766C297.875 135.98 301.261 135.785 304.607 135.218C305.585 135.053 305.17 133.554 304.197 133.72H304.196Z" fill="#555A60"/>
<path d="M303.811 122.749C302.418 119.977 301.026 117.206 299.633 114.435C298.688 112.556 297.936 110.101 295.543 109.794C292.533 109.41 289.428 109.395 286.4 109.511C284.899 109.568 283.399 109.677 281.905 109.837C280.669 109.97 279.343 110.176 278.706 111.413C278.112 112.567 278.692 113.843 279.205 114.905C279.9 116.339 280.802 117.658 281.461 119.11C281.874 120.018 283.204 119.23 282.794 118.326C282.291 117.217 281.654 116.186 281.064 115.124C280.674 114.42 279.832 113.217 279.999 112.35C280.214 111.231 282.169 111.358 282.992 111.285C284.307 111.166 285.626 111.087 286.946 111.047C289.587 110.968 292.231 111.047 294.862 111.285C295.836 111.372 296.466 111.656 296.947 112.546C297.428 113.436 297.894 114.411 298.363 115.344C299.735 118.075 301.107 120.805 302.478 123.534C302.927 124.427 304.259 123.641 303.811 122.75V122.749Z" fill="#555A60"/>
<path d="M305.352 115.569C303.714 115.689 302.115 115.41 300.635 114.686C299.745 114.249 298.962 115.59 299.856 116.028C301.576 116.871 303.439 117.264 305.352 117.122C306.337 117.05 306.344 115.495 305.352 115.569Z" fill="#555A60"/>
<path d="M279.626 152.866C280.8 152.074 280.775 149.966 279.57 148.158C278.366 146.351 276.438 145.529 275.264 146.321C274.09 147.114 274.115 149.222 275.32 151.029C276.524 152.837 278.452 153.659 279.626 152.866Z" fill="#555A60"/>
<path d="M307.099 158.05C308.273 157.257 308.248 155.149 307.043 153.342C305.839 151.535 303.911 150.712 302.737 151.505C301.563 152.298 301.588 154.406 302.793 156.213C303.998 158.02 305.926 158.843 307.099 158.05Z" fill="#555A60"/>
<path d="M282.804 136.356L282.107 136.65C281.913 136.731 281.756 136.816 281.645 137.007C281.549 137.174 281.508 137.419 281.568 137.606C281.629 137.792 281.745 137.974 281.923 138.071C282.101 138.167 282.332 138.227 282.518 138.148L283.215 137.854C283.409 137.772 283.566 137.688 283.677 137.497C283.774 137.33 283.815 137.085 283.754 136.898C283.694 136.712 283.577 136.529 283.399 136.433C283.221 136.337 282.991 136.277 282.804 136.356Z" fill="#555A60"/>
<path d="M295.639 113.955C297.014 116.675 298.389 119.396 299.764 122.116C300.098 122.777 301.077 122.307 300.917 121.626L300.864 121.401C300.677 120.605 299.459 120.942 299.646 121.739L299.699 121.964L300.852 121.474C299.477 118.753 298.102 116.032 296.727 113.312C296.358 112.583 295.27 113.226 295.637 113.953L295.639 113.955Z" fill="#555A60"/>
</g>
<defs>
<clipPath id="clip0_2126_65917">
<rect width="100.802" height="79.9463" fill="white" transform="translate(215 56.4736) rotate(-32.7113)"/>
</clipPath>
<clipPath id="clip1_2126_65917">
<rect width="89" height="121.364" fill="white" transform="translate(266 45.6367)"/>
</clipPath>
</defs>
</svg>
