<svg width="1280" height="238" viewBox="0 0 1280 238" fill="none" xmlns="http://www.w3.org/2000/svg">
<g clip-path="url(#clip0_2126_111262)">
<rect width="1280" height="238" fill="#FEC84B"/>
<g clip-path="url(#clip1_2126_111262)">
<path d="M1040.96 135.734C1048.8 129.616 1049.4 117.228 1042.3 108.066C1035.19 98.9031 1023.08 96.4353 1015.24 102.554C1007.4 108.672 1006.8 121.06 1013.9 130.222C1021.01 139.385 1033.12 141.852 1040.96 135.734Z" fill="#FDB022"/>
<path d="M1073.13 100.679C1083.44 96.4258 1087.49 82.4633 1082.17 69.4927C1076.85 56.5222 1064.18 49.4552 1053.86 53.7083C1043.55 57.9614 1039.5 71.9239 1044.82 84.8944C1050.14 97.865 1062.81 104.932 1073.13 100.679Z" fill="#FDB022"/>
<path d="M1138.57 69.3151C1138.36 55.295 1129.14 44.0585 1117.99 44.2177C1106.83 44.377 1097.96 55.8716 1098.17 69.8917C1098.39 83.9118 1107.6 95.1483 1118.76 94.9891C1129.91 94.8298 1138.78 83.3352 1138.57 69.3151Z" fill="#FDB022"/>
<path d="M1184.77 105.987C1187.26 94.2151 1180.43 82.7808 1169.51 80.4481C1158.6 78.1154 1147.74 85.7676 1145.25 97.5399C1142.76 109.312 1149.59 120.747 1160.51 123.079C1171.42 125.412 1182.28 117.76 1184.77 105.987Z" fill="#FDB022"/>
<path d="M1093.4 107.804C1093.4 107.804 1071.35 109.853 1059.25 134.737C1047.14 159.62 1042.84 158.815 1044.85 174.746C1046.85 190.677 1064.2 196.481 1085.14 189.383C1106.09 182.286 1105.05 183.429 1116.98 183.179C1128.91 182.93 1142.02 185.52 1152.45 177.275C1162.87 169.031 1165.42 152.924 1151.94 140.453C1143.87 132.996 1133.47 119.371 1120.53 112.25C1111.83 107.469 1100.61 107.203 1093.4 107.799L1093.4 107.804Z" fill="#FDB022"/>
</g>
<g clip-path="url(#clip2_2126_111262)">
<path opacity="0.5" d="M1059.95 213.842C1093.87 213.842 1121.37 206.601 1121.37 197.67C1121.37 188.738 1093.87 181.498 1059.95 181.498C1026.03 181.498 998.537 188.738 998.537 197.67C998.537 206.601 1026.03 213.842 1059.95 213.842Z" fill="#5E331A"/>
<path d="M1018.02 176.518C1013.77 172.713 1009.31 168.785 1003.8 167.321C998.289 165.858 991.442 167.732 989.139 172.948C987.869 175.827 988.178 179.165 988.98 182.209C991.463 191.631 998.674 199.678 1007.77 203.176C1016.86 206.675 1027.61 205.537 1035.76 200.211L1053.25 183.758L1062.49 185.66C1059.71 182.64 1056.89 179.589 1053.49 177.293C1050.08 174.997 1045.98 173.492 1041.9 173.925C1037.81 174.358 1033.84 177.03 1032.62 180.955C1031.44 184.779 1032.95 188.861 1034.46 192.571C1037.66 200.448 1041.5 208.936 1049.11 212.736C1054.68 215.517 1061.39 215.197 1067.3 213.236C1073.21 211.278 1078.49 207.82 1083.69 204.404L1087.52 202.269C1102.28 202.378 1116.59 192.414 1121.62 178.531C1124.55 170.411 1124.47 161.419 1122.59 152.99C1120.72 144.56 1117.13 136.611 1113.17 128.936L1108.89 124.362L1086.01 136.204C1081.82 138.55 1076.86 139.068 1072.06 139.181C1067.26 139.294 1062.41 139.052 1057.71 140.062C1053.02 141.072 1048.37 143.563 1046.09 147.787C1043.1 153.316 1045.05 160.606 1049.51 165.036C1053.97 169.464 1060.4 171.405 1066.67 171.853C1075.16 172.462 1083.82 170.574 1091.29 166.483C1095.66 164.091 1099.79 160.732 1101.56 156.075" fill="white"/>
<path d="M1014.83 168.384L1031.26 166.65L1030.17 134.062L1088.59 135.09L1053.25 171.281L1017.84 179.575L1009.93 170.264L1014.83 168.384Z" fill="white"/>
<path d="M1048.11 137.927C1045.39 137.777 1025.35 136.032 1015.91 124.66C1006.47 113.289 1003.4 92.1967 1011.47 77.5023L1013.91 72.6868C1013 64.9708 1012.09 57.2547 1011.18 49.5409C1010.78 46.142 1010.73 41.9641 1013.64 40.1646C1015.87 38.7828 1018.77 39.5705 1021.23 40.5171C1024.63 41.8335 1030.72 44.5862 1035.3 47.9459C1040.82 52.0084 1044.36 56.1428 1044.36 56.1428C1049.37 53.9625 1055.08 53.4185 1060.53 53.6056L1062.97 54.0386C1062.97 54.0386 1063.33 50.037 1064.5 45.8656C1065.71 41.5681 1067.76 37.0572 1069.41 34.383C1070.46 32.6683 1071.78 30.9188 1073.72 30.353C1076.4 29.5675 1079.07 31.3888 1081.26 33.1296C1089.84 39.9665 1101.59 61.2912 1101.59 61.2912L1105.1 64.9077C1112.56 72.6738 1117.25 83.0402 1118.17 93.7678C1119.09 104.495 1116.23 115.51 1110.21 124.434C1110.21 124.434 1097.58 140.662 1048.11 137.929V137.927Z" fill="white"/>
<path d="M1069.3 56.141C1069.72 52.0915 1071.21 48.1595 1073.56 44.8346C1074.1 44.0599 1074.85 43.2439 1075.79 43.2722C1076.46 43.2918 1077.04 43.7379 1077.54 44.1774C1082.27 48.2987 1085.83 55.3141 1087.19 61.4351C1087.19 61.4351 1083.49 59.616 1078.24 57.8752C1072.99 56.1344 1069.29 56.141 1069.29 56.141H1069.3Z" fill="#FAC985"/>
<path d="M1018.94 68.7218C1017.77 64.0391 1016.98 59.265 1016.56 54.4582C1016.51 53.8424 1016.47 53.2157 1016.61 52.6173C1016.76 52.0189 1017.14 51.4423 1017.71 51.2116C1018.4 50.9331 1019.17 51.1986 1019.85 51.4858C1024.19 53.3202 1028.76 56.36 1031.86 59.9091C1031.86 59.9091 1027.33 62.0393 1025.48 63.5168L1018.94 68.724L1018.94 68.7218Z" fill="#FAC985"/>
<path d="M1031.42 166.657C1031.37 166.657 1031.32 166.653 1031.26 166.65C1036.39 166.99 1041.57 166.72 1046.64 165.847L1044.69 148.394C1041.92 142.915 1039.14 137.433 1036.37 131.954L1035.94 131.151C1035.32 130 1034.19 129.213 1032.9 129.03C1025.45 128.283 1017.92 128.353 1010.49 129.237C1009.82 129.315 1009.18 129.554 1008.65 129.961C1006.97 131.245 1007.62 132.953 1008.26 134.389C1009.38 136.905 1010.5 139.42 1011.63 141.936" fill="#94633F"/>
<path d="M1025.72 170.288C1023.51 171.452 1020.79 171.35 1018.45 170.46C1016.12 169.57 1014.13 167.962 1012.36 166.197C1009.41 163.255 1006.91 159.678 1006.11 155.587C1005.32 151.496 1006.52 146.855 1009.82 144.311C1011.42 143.073 1016.18 142.514 1020.13 144.921C1023.65 147.064 1026.43 152.014 1027.31 153.875C1028.47 156.299 1030.26 160.992 1029.71 164.65C1029.27 167.592 1026.71 169.766 1025.72 170.29L1025.72 170.288Z" fill="white"/>
<path d="M1111.14 125.037C1117.85 114.992 1120.66 102.583 1118.89 90.6299C1117.31 80.022 1112.15 70.576 1104.74 62.9361C1104.17 62.3443 1103.6 61.7546 1103.02 61.1627C1102.86 60.9908 1102.7 60.8059 1102.52 60.647C1102.3 60.4446 1102.34 60.375 1102.51 60.6688C1102.21 60.1378 1101.91 59.6069 1101.61 59.0781C1100.03 56.3212 1098.38 53.5968 1096.68 50.9138C1094.32 47.1842 1091.85 43.5198 1089.15 40.0252C1086.63 36.7677 1083.93 33.6147 1080.57 31.1972C1078.02 29.3629 1074.74 28.066 1071.8 29.8612C1069.24 31.4235 1067.74 34.4851 1066.48 37.0963C1063.92 42.421 1062.21 48.146 1061.66 54.0385L1063.18 52.8853C1062.4 52.746 1061.61 52.5785 1060.83 52.4675C1059.08 52.2194 1057.19 52.3587 1055.43 52.4675C1051.37 52.7155 1047.4 53.5098 1043.65 55.1113L1045.1 55.2984C1039.88 49.2253 1033.1 44.5861 1025.87 41.2503C1022.35 39.627 1017.72 37.1246 1013.81 38.7C1009.91 40.2754 1009.43 45.2084 1009.81 48.9707C1010.39 54.5978 1011.14 60.214 1011.8 65.8324C1011.97 67.262 1012.14 68.6895 1012.31 70.1191C1012.36 70.6065 1012.27 71.6684 1012.54 72.047C1012.57 72.0927 1012.73 72.5127 1012.76 72.1253C1012.75 72.1884 1012.68 72.2537 1012.66 72.3146C1012.31 73.4592 1011.49 74.6125 1010.95 75.6809C1009.36 78.8078 1007.85 81.9151 1006.87 85.3031C1005.67 89.4679 1005.11 93.8351 1005.17 98.1653C1005.3 108.073 1008.68 117.828 1014.96 125.511C1015.94 126.703 1017.62 125.002 1016.65 123.818C1011.42 117.414 1008.36 109.322 1007.7 101.096C1007.06 93.0213 1008.72 85.1943 1012.44 78.0244C1012.94 77.0648 1013.42 76.0987 1013.91 75.1369C1014.4 74.1751 1015.02 73.3243 1014.96 72.2624C1014.8 69.549 1014.31 66.8181 1014 64.1177C1013.68 61.4173 1013.36 58.6886 1013.04 55.973C1012.74 53.4489 1012.36 50.9204 1012.16 48.3853C1012.01 46.6206 1011.94 44.6579 1012.66 42.9954C1014.46 38.7979 1019.83 41.2068 1022.83 42.4949C1030.6 45.8307 1037.87 50.5309 1043.41 56.9892C1043.79 57.4266 1044.4 57.3765 1044.87 57.1763C1048.32 55.701 1052.09 55.0351 1055.83 54.8371C1057.28 54.761 1058.86 54.6348 1060.3 54.7936C1061.05 54.8763 1061.8 55.0613 1062.55 55.194C1063.36 55.3398 1063.99 54.8632 1064.06 54.0407C1064.52 49.1339 1065.88 44.2814 1067.87 39.7815C1068.89 37.4793 1070.03 34.916 1071.75 33.0316C1072.61 32.0807 1073.68 31.3408 1075.01 31.3648C1076.5 31.3931 1077.88 32.2221 1079.06 33.0468C1082.22 35.238 1084.76 38.2518 1087.11 41.2633C1089.66 44.536 1091.98 47.9828 1094.21 51.4752C1095.94 54.1778 1097.61 56.9217 1099.21 59.7005C1099.96 60.9995 1100.56 62.0462 1101.6 63.1233C1104.37 65.9782 1107.07 68.8244 1109.27 72.1602C1112.28 76.721 1114.49 81.778 1115.77 87.0896C1118.81 99.6428 1116.24 113.121 1109.08 123.831C1108.22 125.115 1110.29 126.314 1111.14 125.039L1111.14 125.037Z" fill="#555A60"/>
<path d="M1110.51 129.366C1114.92 134.34 1117.8 140.242 1119.65 146.589C1121.5 152.98 1122.82 159.584 1122.59 166.266C1122.37 172.668 1120.71 178.981 1117.28 184.423C1114.31 189.145 1110.16 193.109 1105.39 195.986C1099.96 199.252 1093.75 201.087 1087.41 201.069C1085.87 201.065 1085.87 203.458 1087.41 203.463C1099.39 203.493 1110.88 197.309 1117.93 187.711C1121.84 182.397 1124.03 176.117 1124.75 169.587C1125.54 162.391 1124.4 155.256 1122.6 148.295C1120.63 140.683 1117.46 133.601 1112.21 127.673C1111.18 126.518 1109.5 128.215 1110.51 129.366H1110.51Z" fill="#555A60"/>
<path d="M1082.97 203.368C1076.78 207.439 1070.36 211.682 1062.95 213.106C1059.46 213.776 1055.78 213.778 1052.36 212.77C1049.25 211.857 1046.53 210.068 1044.29 207.737C1039.9 203.155 1037.35 196.99 1035.07 191.165C1033.77 187.858 1032.39 183.871 1033.99 180.42C1035.23 177.737 1037.91 175.959 1040.73 175.311C1044.68 174.406 1048.82 175.829 1052.15 177.918C1055.76 180.187 1058.67 183.392 1061.54 186.504C1062.59 187.64 1064.27 185.943 1063.23 184.811C1057.9 179.03 1051.57 172.578 1043.08 172.654C1039.66 172.684 1036.24 174.01 1033.84 176.49C1031.2 179.223 1030.5 182.89 1031.16 186.554C1031.83 190.353 1033.59 194.035 1035.16 197.541C1036.6 200.766 1038.23 203.936 1040.36 206.767C1042.49 209.598 1044.84 211.85 1047.82 213.471C1051.19 215.303 1055.06 216.065 1058.88 215.95C1068.35 215.667 1076.51 210.475 1084.18 205.435C1085.46 204.593 1084.27 202.519 1082.97 203.368Z" fill="#555A60"/>
<path d="M1057.82 171.664C1056.02 172.7 1054.22 173.738 1052.42 174.774C1051.08 175.542 1052.29 177.611 1053.63 176.841C1055.43 175.805 1057.23 174.767 1059.03 173.731C1060.36 172.963 1059.16 170.894 1057.82 171.664Z" fill="#555A60"/>
<path d="M1085.29 135.17C1077.05 139.668 1067.17 137.129 1058.29 138.711C1050.82 140.04 1043.62 145.006 1043.35 153.207C1043.09 161.21 1048.81 167.693 1055.86 170.645C1063.64 173.898 1072.79 173.79 1080.87 171.779C1089.32 169.675 1099.21 165.014 1102.6 156.393C1103.16 154.959 1100.85 154.336 1100.29 155.757C1097.51 162.829 1089.25 166.792 1082.44 168.863C1075.04 171.111 1066.73 171.598 1059.28 169.34C1052.44 167.27 1046.2 162.044 1045.76 154.467C1045.56 151.031 1046.78 147.821 1049.29 145.447C1051.91 142.965 1055.42 141.644 1058.93 141.019C1068.12 139.381 1077.92 141.918 1086.5 137.237C1087.85 136.5 1086.65 134.433 1085.29 135.17H1085.29Z" fill="#555A60"/>
<path d="M1055.75 158.774C1052.82 159.927 1050.44 162.081 1049.17 164.993C1048.56 166.392 1050.62 167.613 1051.24 166.201C1052.24 163.89 1054.02 162.016 1056.39 161.083C1057.81 160.523 1057.19 158.208 1055.75 158.774Z" fill="#555A60"/>
<path d="M1051.86 149.704C1048.43 150.84 1045.84 153.323 1043.87 156.289C1043.02 157.577 1045.09 158.776 1045.94 157.496C1047.54 155.072 1049.68 152.942 1052.49 152.013C1053.95 151.532 1053.32 149.219 1051.86 149.704Z" fill="#555A60"/>
<path d="M1025.01 169.255C1019.62 171.918 1014.07 166.857 1010.94 162.958C1007.75 159 1005.71 153.601 1007.85 148.666C1008.64 146.858 1009.95 145.123 1011.94 144.655C1014.31 144.101 1017 144.579 1019.1 145.765C1022.62 147.752 1025.09 151.871 1026.64 155.507C1028.5 159.879 1030.14 166.398 1025.01 169.255C1023.66 170.004 1024.87 172.073 1026.22 171.322C1028.26 170.188 1029.94 167.991 1030.58 165.763C1031.41 162.842 1030.61 159.504 1029.65 156.715C1028.04 152.047 1025.25 147.075 1021.13 144.209C1018.68 142.508 1015.49 141.788 1012.54 142.14C1009.91 142.453 1008.05 143.761 1006.59 145.965C1003.11 151.257 1004.56 158.064 1007.98 162.971C1011.85 168.526 1019.05 174.862 1026.22 171.318C1027.6 170.635 1026.39 168.57 1025.01 169.251V169.255Z" fill="#555A60"/>
<path d="M1018.76 175.674C1013.5 170.967 1007.46 165.662 999.981 165.645C997.002 165.638 993.884 166.43 991.455 168.206C988.709 170.214 987.192 173.184 986.997 176.577C986.788 180.215 987.923 183.905 989.373 187.2C990.728 190.281 992.6 193.125 994.832 195.641C999.404 200.795 1005.63 204.473 1012.41 205.776C1020.58 207.35 1029.25 205.759 1036.26 201.244C1037.55 200.412 1036.35 198.339 1035.05 199.177C1023.91 206.353 1008.88 205.374 999.008 196.454C994.53 192.407 991.211 187.052 989.841 181.155C989.105 177.985 989.022 174.325 991.198 171.674C992.889 169.614 995.513 168.495 998.111 168.151C1005.64 167.155 1011.87 172.712 1017.06 177.367C1018.21 178.392 1019.9 176.705 1018.76 175.674Z" fill="#555A60"/>
<path d="M1002.24 168.146C1000.3 171.156 1000.61 174.801 1002.76 177.59C1003.65 178.733 1005.19 177.279 1004.64 176.139C1004.56 175.967 1004.48 175.797 1004.4 175.625C1003.74 174.235 1001.68 175.449 1002.33 176.833C1002.41 177.005 1002.5 177.175 1002.58 177.346L1004.46 175.895C1002.95 173.945 1003 171.376 1004.31 169.352C1005.14 168.055 1003.07 166.854 1002.24 168.144V168.146Z" fill="#555A60"/>
<path d="M994.167 168.255C992.5 171.993 993.111 176.284 995.825 179.367C996.845 180.525 998.532 178.828 997.518 177.674C995.574 175.466 995.03 172.16 996.234 169.462C996.856 168.067 994.793 166.849 994.167 168.255Z" fill="#555A60"/>
<path d="M1047.14 174.944C1045.07 177.557 1044.3 180.821 1045.09 184.076L1047.39 183.441C1047.34 183.26 1047.28 183.082 1047.22 182.901C1046.76 181.439 1044.44 182.064 1044.91 183.537C1044.97 183.717 1045.03 183.896 1045.09 184.076C1045.55 185.541 1047.76 184.945 1047.39 183.441C1046.82 181.089 1047.32 178.547 1048.83 176.637C1049.78 175.442 1048.1 173.736 1047.14 174.944Z" fill="#555A60"/>
<path d="M1037.72 174.934C1036.08 178.459 1036.06 182.339 1037.65 185.884L1039.72 184.676C1039.57 184.423 1039.41 184.171 1039.26 183.919C1038.47 182.598 1036.4 183.799 1037.2 185.126C1037.35 185.379 1037.5 185.631 1037.65 185.884C1038.46 187.235 1040.33 186.053 1039.72 184.676C1038.51 181.982 1038.54 178.816 1039.79 176.142C1040.43 174.753 1038.37 173.537 1037.72 174.934Z" fill="#555A60"/>
<path d="M1026.72 157.301C1024.62 157.316 1022.59 157.936 1020.88 159.159C1019.63 160.045 1020.83 162.121 1022.08 161.226C1023.48 160.232 1025.01 159.705 1026.72 159.694C1028.27 159.684 1028.27 157.29 1026.72 157.301Z" fill="#555A60"/>
<path d="M1022.47 147.602C1019.68 147.556 1017.21 148.875 1015.58 151.101C1014.66 152.343 1016.74 153.54 1017.64 152.308C1018.77 150.77 1020.59 149.963 1022.47 149.993C1024.01 150.019 1024.01 147.626 1022.47 147.6L1022.47 147.602Z" fill="#555A60"/>
<path d="M1109.75 109.115C1103.93 107.701 1097.84 107.829 1092.09 109.518C1090.61 109.951 1091.24 112.262 1092.72 111.827C1098.07 110.256 1103.7 110.108 1109.12 111.424C1110.61 111.787 1111.25 109.481 1109.75 109.115H1109.75Z" fill="#555A60"/>
<path d="M1108.88 94.6815C1102.06 95.1058 1095.46 97.3863 1089.88 101.347C1088.63 102.23 1089.83 104.308 1091.09 103.414C1096.32 99.6993 1102.47 97.4755 1108.88 97.0751C1110.41 96.9793 1110.42 94.5858 1108.88 94.6815Z" fill="#555A60"/>
<path d="M1014.73 108.18C1009.33 107.71 1003.93 107.96 998.599 108.867C997.085 109.126 997.727 111.433 999.235 111.176C1004.35 110.305 1009.55 110.123 1014.72 110.573C1016.26 110.708 1016.25 108.312 1014.72 108.18H1014.73Z" fill="#555A60"/>
<path d="M1017.02 116.376C1011.63 117.155 1006.45 118.939 1001.71 121.605C1000.94 122.036 1000.92 123.248 1001.71 123.672L1002.07 123.863C1003.42 124.59 1004.63 122.525 1003.27 121.796L1002.92 121.605V123.672C1007.49 121.104 1012.47 119.435 1017.66 118.685C1019.18 118.465 1018.53 116.158 1017.02 116.376H1017.02Z" fill="#555A60"/>
<path d="M1066.77 107.758C1069.22 107.19 1070.62 104.182 1069.89 101.038C1069.16 97.8945 1066.59 95.8065 1064.14 96.3743C1061.68 96.9421 1060.29 99.9507 1061.01 103.094C1061.74 106.238 1064.32 108.326 1066.77 107.758Z" fill="#555A60"/>
<path d="M1034.05 109.927C1036.5 109.359 1037.9 106.35 1037.17 103.207C1036.44 100.063 1033.87 97.9754 1031.42 98.5432C1028.96 99.111 1027.57 102.12 1028.29 105.263C1029.02 108.407 1031.6 110.495 1034.05 109.927Z" fill="#555A60"/>
<path d="M1042.62 110.359C1042.62 112.122 1044.69 114.337 1047.35 114.337C1050 114.337 1052.03 112.013 1052.03 110.25C1052.03 108.488 1049.94 107.53 1047.28 107.53C1044.63 107.53 1042.62 108.597 1042.62 110.359Z" fill="#555A60"/>
<path d="M1058.56 117.976C1057.1 119.475 1054.89 120.126 1052.87 119.458C1050.85 118.79 1049.5 116.899 1049.19 114.823C1048.97 113.304 1046.66 113.95 1046.88 115.458C1047.31 118.354 1049.44 120.863 1052.23 121.764C1055.04 122.674 1058.22 121.753 1060.25 119.667C1061.33 118.563 1059.64 116.868 1058.56 117.974L1058.56 117.976Z" fill="#555A60"/>
<path d="M1046.35 115.489C1047.03 117.163 1046.11 118.734 1044.52 119.43C1042.79 120.187 1040.88 119.811 1039.15 119.273C1037.67 118.814 1037.04 121.125 1038.51 121.582C1041.06 122.372 1043.96 122.659 1046.32 121.182C1048.42 119.87 1049.62 117.241 1048.66 114.854C1048.09 113.444 1045.78 114.06 1046.35 115.489Z" fill="#555A60"/>
<path d="M1046.21 164.693C1041.24 165.531 1036.19 165.768 1031.15 165.453V167.846L1031.32 167.853C1032.86 167.905 1032.86 165.512 1031.32 165.459L1031.15 165.453C1029.6 165.401 1029.63 167.751 1031.15 167.846C1036.41 168.175 1041.66 167.875 1046.85 167.002C1048.36 166.748 1047.72 164.439 1046.21 164.693H1046.21Z" fill="#555A60"/>
<path d="M1045.61 147.792C1043.45 143.522 1041.29 139.253 1039.13 134.984C1037.67 132.09 1036.5 128.308 1032.79 127.836C1028.12 127.244 1023.31 127.22 1018.61 127.398C1016.28 127.487 1013.96 127.655 1011.64 127.901C1009.72 128.105 1007.67 128.423 1006.68 130.329C1005.76 132.107 1006.66 134.072 1007.45 135.708C1008.53 137.917 1009.93 139.949 1010.95 142.186C1011.59 143.585 1013.65 142.371 1013.02 140.979C1012.24 139.27 1011.25 137.682 1010.34 136.046C1009.73 134.962 1008.43 133.108 1008.68 131.772C1009.02 130.049 1012.05 130.244 1013.33 130.131C1015.36 129.948 1017.41 129.827 1019.46 129.766C1023.55 129.644 1027.65 129.766 1031.73 130.131C1033.24 130.266 1034.22 130.704 1034.97 132.074C1035.71 133.445 1036.44 134.947 1037.16 136.385C1039.29 140.591 1041.42 144.797 1043.55 149.001C1044.24 150.377 1046.31 149.167 1045.61 147.794V147.792Z" fill="#555A60"/>
<path d="M1048 136.731C1045.46 136.916 1042.98 136.487 1040.69 135.371C1039.31 134.699 1038.09 136.764 1039.48 137.438C1042.15 138.737 1045.04 139.342 1048 139.125C1049.53 139.014 1049.54 136.618 1048 136.731Z" fill="#555A60"/>
<path d="M1008.1 194.189C1009.93 192.967 1009.89 189.72 1008.02 186.936C1006.15 184.152 1003.16 182.885 1001.34 184.106C999.52 185.327 999.558 188.574 1001.43 191.359C1003.29 194.143 1006.28 195.41 1008.1 194.189Z" fill="#555A60"/>
<path d="M1050.71 202.174C1052.53 200.953 1052.49 197.706 1050.63 194.921C1048.76 192.137 1045.77 190.87 1043.95 192.091C1042.13 193.313 1042.17 196.56 1044.03 199.344C1045.9 202.128 1048.89 203.395 1050.71 202.174Z" fill="#555A60"/>
<path d="M1013.03 168.753L1011.95 169.206C1011.65 169.332 1011.41 169.463 1011.24 169.756C1011.09 170.013 1011.02 170.392 1011.12 170.679C1011.21 170.966 1011.39 171.247 1011.67 171.395C1011.94 171.543 1012.3 171.637 1012.59 171.515L1013.67 171.062C1013.97 170.936 1014.22 170.805 1014.39 170.512C1014.54 170.255 1014.6 169.876 1014.51 169.589C1014.41 169.302 1014.23 169.021 1013.96 168.873C1013.68 168.725 1013.32 168.631 1013.03 168.753Z" fill="#555A60"/>
<path d="M1032.94 134.246C1035.07 138.437 1037.2 142.628 1039.34 146.819C1039.85 147.837 1041.37 147.113 1041.12 146.064L1041.04 145.718C1040.75 144.49 1038.86 145.011 1039.15 146.238L1039.24 146.584L1041.02 145.829C1038.89 141.638 1036.76 137.447 1034.63 133.256C1034.05 132.133 1032.37 133.123 1032.94 134.244L1032.94 134.246Z" fill="#555A60"/>
</g>
<g clip-path="url(#clip3_2126_111262)">
<path d="M797.44 212.279C805.213 209.903 809.293 200.624 806.552 191.554C803.812 182.484 795.29 177.058 787.517 179.434C779.744 181.81 775.664 191.089 778.404 200.159C781.144 209.229 789.667 214.655 797.44 212.279Z" fill="#FDB022"/>
<path d="M832.243 194.934C841.359 194.706 848.534 185.235 848.267 173.78C848.001 162.325 840.395 153.225 831.278 153.453C822.162 153.682 814.987 163.153 815.254 174.608C815.52 186.062 823.126 195.163 832.243 194.934Z" fill="#FDB022"/>
<path d="M891.359 190.141C895.297 179.379 891.551 168.109 882.991 164.967C874.432 161.826 864.301 168.004 860.362 178.766C856.424 189.528 860.17 200.798 868.73 203.94C877.289 207.081 887.421 200.903 891.359 190.141Z" fill="#FDB022"/>
<path d="M915.892 231.641C921.233 223.384 919.364 212.66 911.717 207.688C904.07 202.715 893.542 205.378 888.201 213.635C882.86 221.892 884.729 232.616 892.376 237.588C900.022 242.561 910.551 239.898 915.892 231.641Z" fill="#FDB022"/>
<path d="M845.628 206.301C845.628 206.301 828.204 201.417 811.688 216.866C795.172 232.316 792.125 230.443 788.996 243.188C785.867 255.932 797.407 265.435 815.469 266.145C833.531 266.856 832.404 267.424 841.58 270.723C850.756 274.021 860.007 279.833 870.373 276.59C880.739 273.347 887.399 261.802 880.755 248.341C876.782 240.291 872.825 226.849 865.034 217.63C859.797 211.438 851.306 207.951 845.632 206.298L845.628 206.301Z" fill="#FDB022"/>
</g>
<path d="M64.875 167.938H60.9062V151.469H53.125V148.219H60.9062V139.438H64.875V167.938ZM46.3125 157.922C50.2292 157.859 53.9583 157.49 57.5 156.812L57.9375 160.062C55.8021 160.51 53.6615 160.823 51.5156 161C49.3802 161.167 47.1146 161.25 44.7188 161.25H42.3125V142.469H46.3125V157.922ZM101.812 158.938H75.875V155.844H86.8438V154.25C84.3958 154.094 82.5208 153.646 81.2188 152.906C79.9167 152.156 79.2708 151.156 79.2812 149.906C79.2708 148.51 80.0938 147.443 81.75 146.703C83.4062 145.964 85.7708 145.594 88.8438 145.594C91.8958 145.594 94.25 145.964 95.9062 146.703C97.5729 147.443 98.4062 148.51 98.4062 149.906C98.4062 151.156 97.75 152.156 96.4375 152.906C95.1354 153.646 93.2708 154.094 90.8438 154.25V155.844H101.812V158.938ZM98.875 167.375H79V160.281H83V164.25H98.875V167.375ZM100.469 144.781H77.125V141.781H86.8438V139.281H90.8438V141.781H100.469V144.781ZM88.8438 148.375C86.9167 148.375 85.5156 148.495 84.6406 148.734C83.7656 148.974 83.3333 149.365 83.3438 149.906C83.3333 150.448 83.7656 150.844 84.6406 151.094C85.526 151.344 86.9271 151.469 88.8438 151.469C90.7292 151.469 92.1094 151.344 92.9844 151.094C93.8698 150.844 94.3125 150.448 94.3125 149.906C94.3125 149.365 93.875 148.974 93 148.734C92.125 148.495 90.7396 148.375 88.8438 148.375ZM114.031 147.188C114.021 148.677 114.276 150.172 114.797 151.672C115.328 153.172 116.12 154.547 117.172 155.797C118.224 157.036 119.5 158 121 158.688L118.781 161.812C117.24 161.104 115.901 160.078 114.766 158.734C113.63 157.38 112.734 155.818 112.078 154.047C111.422 155.995 110.505 157.708 109.328 159.188C108.161 160.667 106.781 161.781 105.188 162.531L102.875 159.375C104.396 158.667 105.693 157.661 106.766 156.359C107.839 155.047 108.646 153.594 109.188 152C109.74 150.406 110.021 148.802 110.031 147.188V145.438H104V142.188H119.75V145.438H114.031V147.188ZM125.969 150.281H130.156V153.625H125.969V167.875H121.969V139.438H125.969V150.281ZM149 142.219C148.99 143.417 149.219 144.547 149.688 145.609C150.156 146.661 150.88 147.589 151.859 148.391C152.839 149.193 154.062 149.802 155.531 150.219L153.5 153.312C151.979 152.854 150.677 152.177 149.594 151.281C148.521 150.375 147.672 149.297 147.047 148.047C146.401 149.464 145.5 150.688 144.344 151.719C143.188 152.74 141.792 153.51 140.156 154.031L138.188 150.875C139.698 150.406 140.958 149.74 141.969 148.875C142.99 148 143.745 147 144.234 145.875C144.734 144.74 144.99 143.531 145 142.25V140.438H149V142.219ZM161.125 145H164.969V148.25H161.125V154.062H157.125V139.438H161.125V145ZM161.125 162.75H146.219V164.531H161.938V167.688H142.312V159.906H157.156V158.219H142.25V155.156H161.125V162.75ZM173.875 141.438C175.312 141.438 176.599 141.854 177.734 142.688C178.87 143.51 179.755 144.688 180.391 146.219C181.036 147.75 181.365 149.531 181.375 151.562C181.365 153.604 181.036 155.396 180.391 156.938C179.755 158.469 178.87 159.651 177.734 160.484C176.609 161.307 175.323 161.719 173.875 161.719C172.427 161.719 171.13 161.307 169.984 160.484C168.849 159.651 167.958 158.469 167.312 156.938C166.677 155.396 166.365 153.604 166.375 151.562C166.365 149.542 166.677 147.766 167.312 146.234C167.958 144.703 168.849 143.521 169.984 142.688C171.13 141.854 172.427 141.438 173.875 141.438ZM173.875 145.031C173.146 145.031 172.505 145.286 171.953 145.797C171.401 146.297 170.974 147.036 170.672 148.016C170.37 148.995 170.219 150.177 170.219 151.562C170.219 152.948 170.37 154.135 170.672 155.125C170.974 156.104 171.401 156.844 171.953 157.344C172.505 157.844 173.146 158.094 173.875 158.094C174.615 158.094 175.26 157.844 175.812 157.344C176.365 156.844 176.792 156.104 177.094 155.125C177.396 154.146 177.552 152.958 177.562 151.562C177.552 150.177 177.396 148.995 177.094 148.016C176.792 147.036 176.365 146.297 175.812 145.797C175.26 145.286 174.615 145.031 173.875 145.031ZM188.656 150.156H192.844V153.469H188.656V167.875H184.656V139.438H188.656V150.156ZM217.062 155.312H208.812V161.375H219.906V164.625H193.875V161.375H204.844V155.312H196.938V141.438H216.844V144.625H200.938V152.156H217.062V155.312ZM242.156 143.438V143.812C242.135 145.25 242.083 146.552 242 147.719C241.927 148.875 241.76 150.167 241.5 151.594L237.812 151.281C238.021 150.062 238.167 148.948 238.25 147.938C238.333 146.917 238.391 145.854 238.422 144.75H229.938V141.562H242.156V143.438ZM236.188 153.547C238.771 153.443 241.01 153.281 242.906 153.062L243.094 155.875C241.073 156.281 238.849 156.552 236.422 156.688C233.995 156.812 231.49 156.875 228.906 156.875L228.562 153.688L232.531 153.656V148.094H236.188V153.547ZM253.719 160.906H249.906V151.125H247.781V160.281H244.062V139.969H247.781V147.875H249.906V139.469H253.719V160.906ZM254.344 167.375H233.25V158.75H237.344V164.188H254.344V167.375ZM266.844 148.344C266.844 149.74 267.089 151.13 267.578 152.516C268.068 153.901 268.807 155.177 269.797 156.344C270.797 157.5 272.021 158.417 273.469 159.094L271.25 162.094C269.781 161.438 268.51 160.484 267.438 159.234C266.375 157.974 265.531 156.521 264.906 154.875C264.271 156.646 263.385 158.208 262.25 159.562C261.125 160.906 259.781 161.917 258.219 162.594L256.031 159.5C257.51 158.854 258.766 157.932 259.797 156.734C260.828 155.536 261.599 154.208 262.109 152.75C262.63 151.292 262.896 149.823 262.906 148.344V147.25H257.031V144.062H262.875V140.062H266.875V144.062H272.656V147.25H266.844V148.344ZM279 150.469H283.188V153.812H279V167.875H275V139.438H279V150.469ZM306.781 146H310.625V149.281H306.781V156.062H302.781V139.438H306.781V146ZM297.406 156.406C299.333 156.396 301.026 156.625 302.484 157.094C303.943 157.562 305.068 158.229 305.859 159.094C306.661 159.958 307.062 160.969 307.062 162.125C307.062 163.323 306.667 164.354 305.875 165.219C305.083 166.083 303.958 166.745 302.5 167.203C301.052 167.672 299.354 167.906 297.406 167.906C295.438 167.906 293.719 167.672 292.25 167.203C290.792 166.745 289.661 166.083 288.859 165.219C288.057 164.354 287.656 163.323 287.656 162.125C287.656 160.969 288.057 159.958 288.859 159.094C289.661 158.229 290.797 157.562 292.266 157.094C293.745 156.625 295.458 156.396 297.406 156.406ZM297.406 159.594C295.531 159.594 294.089 159.807 293.078 160.234C292.078 160.661 291.583 161.292 291.594 162.125C291.583 162.979 292.083 163.63 293.094 164.078C294.104 164.526 295.542 164.75 297.406 164.75C299.208 164.75 300.609 164.526 301.609 164.078C302.62 163.63 303.125 162.979 303.125 162.125C303.125 161.292 302.625 160.661 301.625 160.234C300.625 159.807 299.219 159.594 297.406 159.594ZM289.375 151.031C293.125 150.979 296.823 150.594 300.469 149.875L300.938 153.094C296.875 153.906 292.5 154.312 287.812 154.312H285.375V141.031H289.375V151.031ZM315.562 165.281C315.083 165.281 314.641 165.161 314.234 164.922C313.828 164.682 313.505 164.365 313.266 163.969C313.036 163.562 312.927 163.125 312.938 162.656C312.927 162.188 313.036 161.755 313.266 161.359C313.505 160.964 313.828 160.651 314.234 160.422C314.641 160.182 315.083 160.062 315.562 160.062C316.01 160.062 316.432 160.182 316.828 160.422C317.234 160.651 317.557 160.964 317.797 161.359C318.036 161.755 318.156 162.188 318.156 162.656C318.156 163.125 318.036 163.562 317.797 163.969C317.557 164.365 317.234 164.682 316.828 164.922C316.432 165.161 316.01 165.281 315.562 165.281Z" fill="#2E3135"/>
<path d="M53.2188 196.578H40.5625V195.578H46.2812V194.461C45.026 194.419 44.0599 194.219 43.3828 193.859C42.7109 193.495 42.375 192.995 42.375 192.359C42.375 191.677 42.7656 191.156 43.5469 190.797C44.3281 190.432 45.4427 190.25 46.8906 190.25C48.3229 190.25 49.4297 190.432 50.2109 190.797C50.9974 191.156 51.3906 191.677 51.3906 192.359C51.3906 192.99 51.0521 193.487 50.375 193.852C49.7031 194.211 48.7448 194.414 47.5 194.461V195.578H53.2188V196.578ZM51.8125 200.969H42.2031V197.469H43.4375V199.953H51.8125V200.969ZM52.4844 189.641H41.2188V188.672H46.2812V187.219H47.5V188.672H52.4844V189.641ZM46.8906 191.156C45.8333 191.156 45.0234 191.26 44.4609 191.469C43.8984 191.672 43.6198 191.969 43.625 192.359C43.6198 192.75 43.8984 193.049 44.4609 193.258C45.0234 193.461 45.8333 193.562 46.8906 193.562C47.9375 193.562 48.7422 193.461 49.3047 193.258C49.8724 193.049 50.1562 192.75 50.1562 192.359C50.1562 191.969 49.8724 191.672 49.3047 191.469C48.7422 191.26 47.9375 191.156 46.8906 191.156ZM59.0938 191.641C59.0885 192.37 59.2448 193.112 59.5625 193.867C59.8854 194.617 60.3229 195.297 60.875 195.906C61.4271 196.51 62.0365 196.969 62.7031 197.281L62 198.25C61.224 197.875 60.5234 197.302 59.8984 196.531C59.2786 195.76 58.8099 194.901 58.4922 193.953C58.2839 194.63 57.9974 195.273 57.6328 195.883C57.2682 196.492 56.8516 197.031 56.3828 197.5C55.9141 197.964 55.4219 198.328 54.9062 198.594L54.1562 197.625C54.8177 197.307 55.4323 196.826 56 196.18C56.5729 195.534 57.0286 194.81 57.3672 194.008C57.7109 193.206 57.8854 192.417 57.8906 191.641V189.828H54.6562V188.812H62.2188V189.828H59.0938V191.641ZM65.1406 193H67.4688V194.047H65.1406V201.266H63.9219V187.375H65.1406V193ZM75.2344 195.031H68.8125V188.641H75.2344V195.031ZM70.0156 194.047H74.0469V189.641H70.0156V194.047ZM79.0781 191.609H81.1719V192.641H79.0781V197.562H77.8594V187.375H79.0781V191.609ZM79.7188 200.969H70.3906V196.594H71.5938V199.938H79.7188V200.969ZM86.5938 188.391C87.3177 188.391 87.9609 188.529 88.5234 188.805C89.0911 189.081 89.5339 189.466 89.8516 189.961C90.1693 190.456 90.3281 191.021 90.3281 191.656C90.3281 192.292 90.1693 192.857 89.8516 193.352C89.5339 193.846 89.0911 194.232 88.5234 194.508C87.9609 194.784 87.3177 194.922 86.5938 194.922C85.8698 194.922 85.2214 194.784 84.6484 194.508C84.0807 194.232 83.6354 193.846 83.3125 193.352C82.9948 192.857 82.8385 192.292 82.8438 191.656C82.8385 191.021 82.9948 190.456 83.3125 189.961C83.6354 189.466 84.0807 189.081 84.6484 188.805C85.2214 188.529 85.8698 188.391 86.5938 188.391ZM86.5938 189.469C86.1042 189.469 85.6641 189.562 85.2734 189.75C84.888 189.932 84.5859 190.19 84.3672 190.523C84.1484 190.852 84.0417 191.229 84.0469 191.656C84.0417 192.083 84.1484 192.464 84.3672 192.797C84.5859 193.125 84.888 193.383 85.2734 193.57C85.6641 193.753 86.1042 193.844 86.5938 193.844C87.0781 193.844 87.513 193.753 87.8984 193.57C88.2839 193.383 88.5833 193.125 88.7969 192.797C89.0156 192.464 89.125 192.083 89.125 191.656C89.125 191.229 89.0156 190.852 88.7969 190.523C88.5833 190.19 88.2839 189.932 87.8984 189.75C87.513 189.562 87.0781 189.469 86.5938 189.469ZM93.4375 201.297H92.2188V187.375H93.4375V201.297ZM82.125 197.188C83.9271 197.188 85.5651 197.159 87.0391 197.102C88.5182 197.044 89.9375 196.917 91.2969 196.719L91.3906 197.625C89.9948 197.885 88.5703 198.052 87.1172 198.125C85.6693 198.198 84.0625 198.234 82.2969 198.234L82.125 197.188ZM103.828 187.891C104.516 187.896 105.13 188.029 105.672 188.289C106.219 188.549 106.646 188.914 106.953 189.383C107.266 189.846 107.422 190.375 107.422 190.969C107.422 191.562 107.266 192.094 106.953 192.562C106.646 193.026 106.219 193.388 105.672 193.648C105.13 193.904 104.516 194.031 103.828 194.031C103.13 194.031 102.508 193.904 101.961 193.648C101.414 193.388 100.987 193.026 100.68 192.562C100.372 192.094 100.219 191.562 100.219 190.969C100.219 190.375 100.372 189.846 100.68 189.383C100.987 188.914 101.414 188.549 101.961 188.289C102.508 188.029 103.13 187.896 103.828 187.891ZM103.828 188.922C103.37 188.922 102.956 189.01 102.586 189.188C102.221 189.359 101.935 189.602 101.727 189.914C101.518 190.221 101.417 190.573 101.422 190.969C101.417 191.37 101.518 191.727 101.727 192.039C101.935 192.352 102.221 192.596 102.586 192.773C102.956 192.945 103.37 193.031 103.828 193.031C104.281 193.031 104.69 192.945 105.055 192.773C105.424 192.596 105.714 192.352 105.922 192.039C106.13 191.727 106.234 191.37 106.234 190.969C106.234 190.573 106.13 190.221 105.922 189.914C105.714 189.602 105.424 189.359 105.055 189.188C104.69 189.01 104.281 188.922 103.828 188.922ZM111.359 194.516H110.141V187.375H111.359V194.516ZM111.359 198.531H103.562V200.094H111.859V201.078H102.359V197.609H110.141V196.172H102.328V195.188H111.359V198.531ZM118.359 189.625C118.359 190.245 118.505 190.844 118.797 191.422C119.094 191.995 119.503 192.5 120.023 192.938C120.549 193.375 121.146 193.708 121.812 193.938L121.141 194.906C120.375 194.625 119.701 194.211 119.117 193.664C118.534 193.112 118.089 192.474 117.781 191.75C117.484 192.573 117.036 193.292 116.438 193.906C115.839 194.521 115.135 194.984 114.328 195.297L113.672 194.312C114.359 194.052 114.964 193.682 115.484 193.203C116.01 192.724 116.419 192.169 116.711 191.539C117.003 190.904 117.151 190.234 117.156 189.531V188.094H118.359V189.625ZM124.578 191H126.672V192.031H124.578V195.828H123.359V187.375H124.578V191ZM120.125 196.188C121.073 196.188 121.891 196.286 122.578 196.484C123.266 196.682 123.792 196.971 124.156 197.352C124.521 197.727 124.703 198.177 124.703 198.703C124.703 199.24 124.521 199.698 124.156 200.078C123.792 200.458 123.266 200.745 122.578 200.938C121.896 201.135 121.078 201.234 120.125 201.234C119.172 201.234 118.349 201.135 117.656 200.938C116.969 200.74 116.44 200.451 116.07 200.07C115.701 199.695 115.516 199.24 115.516 198.703C115.516 198.177 115.701 197.727 116.07 197.352C116.44 196.971 116.971 196.682 117.664 196.484C118.357 196.286 119.177 196.188 120.125 196.188ZM120.125 197.172C119.432 197.172 118.831 197.234 118.32 197.359C117.81 197.479 117.419 197.656 117.148 197.891C116.878 198.12 116.745 198.391 116.75 198.703C116.745 199.026 116.878 199.305 117.148 199.539C117.419 199.773 117.807 199.951 118.312 200.07C118.823 200.195 119.427 200.26 120.125 200.266C121.188 200.255 122.018 200.115 122.617 199.844C123.216 199.573 123.516 199.193 123.516 198.703C123.516 198.385 123.38 198.112 123.109 197.883C122.839 197.654 122.448 197.479 121.938 197.359C121.427 197.234 120.823 197.172 120.125 197.172ZM133.875 187.625C134.906 187.625 135.789 187.719 136.523 187.906C137.258 188.089 137.818 188.359 138.203 188.719C138.589 189.073 138.781 189.505 138.781 190.016C138.781 190.797 138.354 191.396 137.5 191.812C136.646 192.229 135.438 192.443 133.875 192.453C132.844 192.448 131.958 192.352 131.219 192.164C130.484 191.977 129.922 191.703 129.531 191.344C129.146 190.979 128.953 190.536 128.953 190.016C128.953 189.505 129.146 189.073 129.531 188.719C129.922 188.359 130.484 188.089 131.219 187.906C131.958 187.719 132.844 187.625 133.875 187.625ZM133.875 188.547C133.109 188.547 132.453 188.607 131.906 188.727C131.359 188.841 130.943 189.01 130.656 189.234C130.37 189.453 130.229 189.714 130.234 190.016C130.229 190.495 130.544 190.865 131.18 191.125C131.815 191.385 132.714 191.516 133.875 191.516C135.031 191.516 135.93 191.385 136.57 191.125C137.211 190.865 137.531 190.495 137.531 190.016C137.531 189.714 137.385 189.453 137.094 189.234C136.802 189.016 136.383 188.846 135.836 188.727C135.289 188.607 134.635 188.547 133.875 188.547ZM140.203 194.391H127.547V193.391H140.203V194.391ZM138.578 198.703H130.328V200.141H139V201.109H129.109V197.797H137.375V196.531H129.078V195.594H138.578V198.703ZM156.141 193.031H158.391V194.062H156.141V201.266H154.922V187.375H156.141V193.031ZM152.547 188.875C152.547 190.943 152.029 192.818 150.992 194.5C149.956 196.177 148.349 197.552 146.172 198.625L145.484 197.656C147.271 196.766 148.654 195.667 149.633 194.359C150.612 193.047 151.172 191.562 151.312 189.906H146.125V188.875H152.547ZM161.141 190.266H165.016V188.094H166.219V189.484H169.5V187.375H170.734V194.969H169.5V193.141H166.219V194.469H159.922V188.094H161.141V190.266ZM165.016 193.453V191.25H161.141V193.453H165.016ZM163.016 197.344H169.5V195.641H170.719V201.078H161.781V195.641H163.016V197.344ZM169.5 200.062V198.328H163.016V200.062H169.5ZM169.5 192.125V190.5H166.219V192.125H169.5ZM184.938 201.266H183.766V187.375H184.938V201.266ZM182.016 200.562H180.844V194.078H177.898C177.013 195.776 175.641 197.172 173.781 198.266L173.062 197.375C174.547 196.5 175.682 195.453 176.469 194.234C177.26 193.01 177.714 191.656 177.828 190.172H173.656V189.156H179.047C179.036 190.573 178.805 191.88 178.352 193.078H180.844V187.75H182.016V200.562ZM202.375 201.266H201.141V187.375H202.375V201.266ZM198.266 188.891C198.255 190.99 197.724 192.875 196.672 194.547C195.62 196.214 193.974 197.583 191.734 198.656L191.062 197.656C192.917 196.776 194.336 195.682 195.32 194.375C196.31 193.068 196.875 191.573 197.016 189.891H191.703V188.891H198.266ZM217.422 196.047H204.703V195.031H210.453V193.562H206.359V190.172H214.547V188.734H206.312V187.734H215.781V191.094H207.578V192.578H216.078V193.562H211.656V195.031H217.422V196.047ZM215.859 201.141H214.625V198.109H206.125V197.109H215.859V201.141ZM229.297 193.109H231.625V194.125H229.297V201.266H228.078V187.375H229.297V193.109ZM226.734 190.625H218.469V189.609H222.047V187.547H223.266V189.609H226.734V190.625ZM222.672 191.781C223.323 191.781 223.906 191.917 224.422 192.188C224.938 192.458 225.341 192.836 225.633 193.32C225.924 193.805 226.073 194.354 226.078 194.969C226.073 195.583 225.924 196.133 225.633 196.617C225.341 197.102 224.938 197.479 224.422 197.75C223.906 198.021 223.323 198.156 222.672 198.156C222.016 198.156 221.427 198.021 220.906 197.75C220.391 197.479 219.987 197.102 219.695 196.617C219.404 196.133 219.26 195.583 219.266 194.969C219.26 194.354 219.404 193.805 219.695 193.32C219.987 192.836 220.391 192.458 220.906 192.188C221.427 191.917 222.016 191.781 222.672 191.781ZM222.672 192.812C222.245 192.812 221.859 192.906 221.516 193.094C221.177 193.276 220.911 193.531 220.719 193.859C220.526 194.188 220.432 194.557 220.438 194.969C220.432 195.385 220.526 195.758 220.719 196.086C220.911 196.409 221.177 196.661 221.516 196.844C221.859 197.026 222.245 197.115 222.672 197.109C223.094 197.115 223.474 197.026 223.812 196.844C224.151 196.661 224.417 196.409 224.609 196.086C224.802 195.758 224.901 195.385 224.906 194.969C224.901 194.557 224.802 194.188 224.609 193.859C224.417 193.531 224.151 193.276 223.812 193.094C223.474 192.906 223.094 192.812 222.672 192.812ZM239.406 189.828H242.656V187.391H243.891V197.531H242.656V193.828H239.406V195.078H233.031V188.594H239.406V189.828ZM234.25 194.094H238.203V189.609H234.25V194.094ZM244.203 200.969H234.906V196.625H236.141V199.938H244.203V200.969ZM242.656 192.812V190.859H239.406V192.812H242.656ZM251.094 191.109C251.094 191.932 251.255 192.745 251.578 193.547C251.901 194.349 252.339 195.062 252.891 195.688C253.443 196.307 254.052 196.771 254.719 197.078L253.984 198.078C253.198 197.672 252.495 197.076 251.875 196.289C251.255 195.503 250.792 194.615 250.484 193.625C250.172 194.672 249.706 195.612 249.086 196.445C248.471 197.279 247.771 197.906 246.984 198.328L246.188 197.344C246.859 197.016 247.474 196.523 248.031 195.867C248.589 195.206 249.029 194.458 249.352 193.625C249.68 192.786 249.844 191.948 249.844 191.109V188.578H251.094V191.109ZM257.719 201.297H256.5V193.125H253.203V192.125H256.5V187.375H257.719V201.297ZM261.094 203.203H259.938L260.797 198.953H262.312L261.094 203.203ZM279 190.625H281.094V191.641H279V194.812H277.781V187.375H279V190.625ZM275.266 188.359C275.26 189.5 274.997 190.521 274.477 191.422C273.956 192.318 273.206 193.073 272.227 193.688C271.253 194.302 270.078 194.766 268.703 195.078L268.188 194.078C269.349 193.823 270.346 193.466 271.18 193.008C272.013 192.549 272.659 192.01 273.117 191.391C273.576 190.771 273.839 190.094 273.906 189.359H268.781V188.359H275.266ZM279.062 196.375H271.438V197.75H278.906V198.688H271.438V200.125H279.391V201.078H270.203V195.438H279.062V196.375ZM294.625 195.703H281.969V194.703H294.625V195.703ZM293.219 200.969H283.609V196.922H284.844V199.938H293.219V200.969ZM288.297 187.875C289.286 187.87 290.151 187.977 290.891 188.195C291.63 188.414 292.201 188.732 292.602 189.148C293.003 189.56 293.203 190.052 293.203 190.625C293.203 191.198 293.003 191.693 292.602 192.109C292.201 192.521 291.63 192.839 290.891 193.062C290.151 193.281 289.286 193.391 288.297 193.391C287.297 193.391 286.427 193.281 285.688 193.062C284.948 192.839 284.378 192.521 283.977 192.109C283.576 191.693 283.375 191.198 283.375 190.625C283.375 190.052 283.576 189.56 283.977 189.148C284.378 188.732 284.948 188.414 285.688 188.195C286.427 187.977 287.297 187.87 288.297 187.875ZM288.297 188.859C287.557 188.859 286.911 188.932 286.359 189.078C285.807 189.219 285.38 189.422 285.078 189.688C284.781 189.953 284.635 190.266 284.641 190.625C284.635 190.984 284.781 191.297 285.078 191.562C285.38 191.828 285.807 192.034 286.359 192.18C286.911 192.32 287.557 192.391 288.297 192.391C289.031 192.391 289.674 192.32 290.227 192.18C290.779 192.034 291.203 191.828 291.5 191.562C291.802 191.297 291.953 190.984 291.953 190.625C291.953 190.266 291.802 189.953 291.5 189.688C291.203 189.422 290.779 189.219 290.227 189.078C289.674 188.932 289.031 188.859 288.297 188.859ZM301.047 188.688H302.203L301.344 192.938H299.828L301.047 188.688ZM316 196.578H303.344V195.578H309.062V194.461C307.807 194.419 306.841 194.219 306.164 193.859C305.492 193.495 305.156 192.995 305.156 192.359C305.156 191.677 305.547 191.156 306.328 190.797C307.109 190.432 308.224 190.25 309.672 190.25C311.104 190.25 312.211 190.432 312.992 190.797C313.779 191.156 314.172 191.677 314.172 192.359C314.172 192.99 313.833 193.487 313.156 193.852C312.484 194.211 311.526 194.414 310.281 194.461V195.578H316V196.578ZM314.594 200.969H304.984V197.469H306.219V199.953H314.594V200.969ZM315.266 189.641H304V188.672H309.062V187.219H310.281V188.672H315.266V189.641ZM309.672 191.156C308.615 191.156 307.805 191.26 307.242 191.469C306.68 191.672 306.401 191.969 306.406 192.359C306.401 192.75 306.68 193.049 307.242 193.258C307.805 193.461 308.615 193.562 309.672 193.562C310.719 193.562 311.523 193.461 312.086 193.258C312.654 193.049 312.938 192.75 312.938 192.359C312.938 191.969 312.654 191.672 312.086 191.469C311.523 191.26 310.719 191.156 309.672 191.156ZM321.875 191.641C321.87 192.37 322.026 193.112 322.344 193.867C322.667 194.617 323.104 195.297 323.656 195.906C324.208 196.51 324.818 196.969 325.484 197.281L324.781 198.25C324.005 197.875 323.305 197.302 322.68 196.531C322.06 195.76 321.591 194.901 321.273 193.953C321.065 194.63 320.779 195.273 320.414 195.883C320.049 196.492 319.633 197.031 319.164 197.5C318.695 197.964 318.203 198.328 317.688 198.594L316.938 197.625C317.599 197.307 318.214 196.826 318.781 196.18C319.354 195.534 319.81 194.81 320.148 194.008C320.492 193.206 320.667 192.417 320.672 191.641V189.828H317.438V188.812H325V189.828H321.875V191.641ZM327.922 193H330.25V194.047H327.922V201.266H326.703V187.375H327.922V193ZM342.531 188.953H338.125C338.13 189.458 338.359 189.932 338.812 190.375C339.266 190.812 339.862 191.18 340.602 191.477C341.341 191.773 342.125 191.969 342.953 192.062L342.5 193.031C341.729 192.932 340.997 192.755 340.305 192.5C339.612 192.245 339.005 191.919 338.484 191.523C337.964 191.128 337.578 190.68 337.328 190.18C337.083 190.68 336.701 191.128 336.18 191.523C335.664 191.919 335.06 192.245 334.367 192.5C333.674 192.755 332.943 192.932 332.172 193.031L331.719 192.062C332.542 191.969 333.32 191.773 334.055 191.477C334.789 191.18 335.383 190.812 335.836 190.375C336.289 189.932 336.521 189.458 336.531 188.953H332.156V187.953H342.531V188.953ZM343.703 195.375H331V194.359H336.719V192.25H337.922V194.359H343.703V195.375ZM342.094 201.266H340.859V197.75H332.406V196.75H342.094V201.266ZM346 192.953H344.844L345.703 188.703H347.219L346 192.953ZM359.828 201.266H358.609V187.375H359.828V201.266ZM352.688 188.891C352.672 192.708 351.552 195.776 349.328 198.094L348.359 197.391C350.292 195.422 351.346 192.932 351.523 189.922H348.875V188.891H352.688ZM356.578 188.891C356.578 190.823 356.357 192.654 355.914 194.383C355.471 196.107 354.672 197.656 353.516 199.031L352.453 198.359C353.453 197.219 354.18 195.935 354.633 194.508C355.086 193.076 355.346 191.547 355.414 189.922H353.141V188.891H356.578ZM373.656 201.297H372.438V187.375H373.656V201.297ZM369.438 193.609H364.25V196.891C365.495 196.891 366.651 196.854 367.719 196.781C368.792 196.708 369.917 196.578 371.094 196.391L371.219 197.422C370.016 197.615 368.865 197.747 367.766 197.82C366.667 197.888 365.464 197.922 364.156 197.922H363V192.609H368.203V189.688H362.969V188.672H369.438V193.609ZM386.312 196.156C387.307 196.156 388.169 196.258 388.898 196.461C389.633 196.659 390.198 196.951 390.594 197.336C390.99 197.716 391.188 198.172 391.188 198.703C391.188 199.229 390.99 199.682 390.594 200.062C390.198 200.443 389.633 200.732 388.898 200.93C388.164 201.133 387.302 201.234 386.312 201.234C385.323 201.234 384.464 201.133 383.734 200.93C383.005 200.732 382.443 200.443 382.047 200.062C381.651 199.682 381.453 199.229 381.453 198.703C381.453 198.172 381.651 197.716 382.047 197.336C382.443 196.951 383.005 196.659 383.734 196.461C384.464 196.258 385.323 196.156 386.312 196.156ZM386.312 197.094C385.578 197.099 384.935 197.167 384.383 197.297C383.831 197.427 383.406 197.615 383.109 197.859C382.812 198.099 382.667 198.38 382.672 198.703C382.667 199.021 382.812 199.299 383.109 199.539C383.406 199.773 383.831 199.953 384.383 200.078C384.935 200.203 385.578 200.266 386.312 200.266C387.047 200.266 387.688 200.203 388.234 200.078C388.786 199.953 389.211 199.773 389.508 199.539C389.81 199.299 389.964 199.021 389.969 198.703C389.964 198.38 389.81 198.099 389.508 197.859C389.211 197.615 388.786 197.427 388.234 197.297C387.688 197.167 387.047 197.099 386.312 197.094ZM391.078 189.266C391.078 190.016 391.055 190.659 391.008 191.195C390.966 191.727 390.859 192.312 390.688 192.953L389.484 192.812C389.651 192.172 389.755 191.599 389.797 191.094C389.839 190.589 389.859 189.979 389.859 189.266V189.094H381.547V188.094H391.078V189.266ZM392.688 194.859H380.047V193.859H385.281V191.172H386.484V193.859H392.688V194.859ZM404.719 190.781H406.812V191.797H404.719V195.266H403.5V187.375H404.719V190.781ZM400.922 188.281C400.917 189.438 400.654 190.484 400.133 191.422C399.612 192.359 398.859 193.164 397.875 193.836C396.896 194.508 395.719 195.031 394.344 195.406L393.844 194.422C394.979 194.115 395.964 193.711 396.797 193.211C397.63 192.706 398.284 192.122 398.758 191.461C399.237 190.799 399.518 190.078 399.602 189.297H394.469V188.281H400.922ZM404.719 201.078H395.922V195.906H404.719V201.078ZM397.141 200.078H403.5V196.922H397.141V200.078ZM418.438 193.109H420.766V194.125H418.438V201.266H417.219V187.375H418.438V193.109ZM415.875 190.625H407.609V189.609H411.188V187.547H412.406V189.609H415.875V190.625ZM411.812 191.781C412.464 191.781 413.047 191.917 413.562 192.188C414.078 192.458 414.482 192.836 414.773 193.32C415.065 193.805 415.214 194.354 415.219 194.969C415.214 195.583 415.065 196.133 414.773 196.617C414.482 197.102 414.078 197.479 413.562 197.75C413.047 198.021 412.464 198.156 411.812 198.156C411.156 198.156 410.568 198.021 410.047 197.75C409.531 197.479 409.128 197.102 408.836 196.617C408.544 196.133 408.401 195.583 408.406 194.969C408.401 194.354 408.544 193.805 408.836 193.32C409.128 192.836 409.531 192.458 410.047 192.188C410.568 191.917 411.156 191.781 411.812 191.781ZM411.812 192.812C411.385 192.812 411 192.906 410.656 193.094C410.318 193.276 410.052 193.531 409.859 193.859C409.667 194.188 409.573 194.557 409.578 194.969C409.573 195.385 409.667 195.758 409.859 196.086C410.052 196.409 410.318 196.661 410.656 196.844C411 197.026 411.385 197.115 411.812 197.109C412.234 197.115 412.615 197.026 412.953 196.844C413.292 196.661 413.557 196.409 413.75 196.086C413.943 195.758 414.042 195.385 414.047 194.969C414.042 194.557 413.943 194.188 413.75 193.859C413.557 193.531 413.292 193.276 412.953 193.094C412.615 192.906 412.234 192.812 411.812 192.812ZM432.656 190.172V190.344C432.646 191.49 432.609 192.518 432.547 193.43C432.49 194.336 432.354 195.385 432.141 196.578L430.891 196.438C431.057 195.615 431.177 194.839 431.25 194.109C431.328 193.38 431.375 192.732 431.391 192.164C431.411 191.596 431.422 190.932 431.422 190.172V189.797H422.859V188.781H432.656V190.172ZM434.172 199.297H421.516V198.281H426.484V193.312H427.688V198.281H434.172V199.297ZM445.641 196.156C446.635 196.156 447.497 196.258 448.227 196.461C448.961 196.659 449.526 196.951 449.922 197.336C450.318 197.716 450.516 198.172 450.516 198.703C450.516 199.229 450.318 199.682 449.922 200.062C449.526 200.443 448.961 200.732 448.227 200.93C447.492 201.133 446.63 201.234 445.641 201.234C444.651 201.234 443.792 201.133 443.062 200.93C442.333 200.732 441.771 200.443 441.375 200.062C440.979 199.682 440.781 199.229 440.781 198.703C440.781 198.172 440.979 197.716 441.375 197.336C441.771 196.951 442.333 196.659 443.062 196.461C443.792 196.258 444.651 196.156 445.641 196.156ZM445.641 197.094C444.906 197.099 444.263 197.167 443.711 197.297C443.159 197.427 442.734 197.615 442.438 197.859C442.141 198.099 441.995 198.38 442 198.703C441.995 199.021 442.141 199.299 442.438 199.539C442.734 199.773 443.159 199.953 443.711 200.078C444.263 200.203 444.906 200.266 445.641 200.266C446.375 200.266 447.016 200.203 447.562 200.078C448.115 199.953 448.539 199.773 448.836 199.539C449.138 199.299 449.292 199.021 449.297 198.703C449.292 198.38 449.138 198.099 448.836 197.859C448.539 197.615 448.115 197.427 447.562 197.297C447.016 197.167 446.375 197.099 445.641 197.094ZM450.406 189.266C450.406 190.016 450.383 190.659 450.336 191.195C450.294 191.727 450.188 192.312 450.016 192.953L448.812 192.812C448.979 192.172 449.083 191.599 449.125 191.094C449.167 190.589 449.188 189.979 449.188 189.266V189.094H440.875V188.094H450.406V189.266ZM452.016 194.859H439.375V193.859H444.609V191.172H445.812V193.859H452.016V194.859ZM465.891 196.312H462.531V201.266H461.297V196.312H457.734V201.266H456.469V196.312H453.172V195.297H465.891V196.312ZM459.5 187.938C460.469 187.938 461.323 188.062 462.062 188.312C462.802 188.557 463.375 188.909 463.781 189.367C464.188 189.826 464.391 190.359 464.391 190.969C464.391 191.578 464.185 192.109 463.773 192.562C463.367 193.016 462.794 193.365 462.055 193.609C461.32 193.854 460.469 193.974 459.5 193.969C458.531 193.974 457.677 193.854 456.938 193.609C456.203 193.365 455.63 193.016 455.219 192.562C454.812 192.109 454.609 191.578 454.609 190.969C454.609 190.359 454.812 189.826 455.219 189.367C455.625 188.909 456.198 188.557 456.938 188.312C457.677 188.062 458.531 187.938 459.5 187.938ZM459.5 188.938C458.781 188.938 458.146 189.021 457.594 189.188C457.047 189.354 456.622 189.591 456.32 189.898C456.018 190.206 455.87 190.562 455.875 190.969C455.87 191.375 456.018 191.732 456.32 192.039C456.622 192.341 457.047 192.576 457.594 192.742C458.146 192.904 458.781 192.984 459.5 192.984C460.214 192.984 460.846 192.904 461.398 192.742C461.951 192.576 462.378 192.341 462.68 192.039C462.987 191.732 463.141 191.375 463.141 190.969C463.141 190.562 462.987 190.206 462.68 189.898C462.378 189.591 461.951 189.354 461.398 189.188C460.846 189.021 460.214 188.938 459.5 188.938ZM473.953 190.781H466.984V189.781H469.875V187.797H471.094V189.781H473.953V190.781ZM470.469 191.719C471.047 191.719 471.562 191.854 472.016 192.125C472.474 192.391 472.831 192.763 473.086 193.242C473.346 193.721 473.479 194.266 473.484 194.875C473.479 195.49 473.346 196.039 473.086 196.523C472.831 197.003 472.474 197.38 472.016 197.656C471.562 197.927 471.047 198.062 470.469 198.062C469.896 198.062 469.383 197.927 468.93 197.656C468.477 197.38 468.122 197 467.867 196.516C467.612 196.031 467.484 195.484 467.484 194.875C467.484 194.271 467.612 193.729 467.867 193.25C468.122 192.766 468.477 192.391 468.93 192.125C469.383 191.854 469.896 191.719 470.469 191.719ZM470.469 192.75C470.109 192.755 469.784 192.852 469.492 193.039C469.206 193.221 468.982 193.474 468.82 193.797C468.659 194.115 468.578 194.474 468.578 194.875C468.578 195.281 468.659 195.646 468.82 195.969C468.987 196.292 469.214 196.544 469.5 196.727C469.786 196.904 470.109 196.99 470.469 196.984C470.833 196.99 471.161 196.904 471.453 196.727C471.745 196.544 471.974 196.292 472.141 195.969C472.307 195.646 472.391 195.281 472.391 194.875C472.391 194.474 472.307 194.115 472.141 193.797C471.974 193.474 471.745 193.221 471.453 193.039C471.161 192.852 470.833 192.755 470.469 192.75ZM478.844 201.266H477.672V194.25H475.828V200.578H474.672V187.719H475.828V193.234H477.672V187.375H478.844V201.266ZM493.562 199.484H480.844V198.453H484V194.703C483.396 194.391 482.927 193.99 482.594 193.5C482.26 193.005 482.094 192.448 482.094 191.828C482.094 191.12 482.31 190.497 482.742 189.961C483.174 189.419 483.773 189 484.539 188.703C485.31 188.406 486.188 188.255 487.172 188.25C488.156 188.255 489.031 188.406 489.797 188.703C490.568 189 491.169 189.419 491.602 189.961C492.034 190.497 492.25 191.12 492.25 191.828C492.25 192.438 492.089 192.987 491.766 193.477C491.443 193.961 490.99 194.359 490.406 194.672V198.453H493.562V199.484ZM487.172 189.266C486.417 189.26 485.745 189.365 485.156 189.578C484.568 189.792 484.107 190.094 483.773 190.484C483.445 190.87 483.281 191.318 483.281 191.828C483.281 192.339 483.445 192.792 483.773 193.188C484.107 193.578 484.568 193.883 485.156 194.102C485.745 194.315 486.417 194.422 487.172 194.422C487.922 194.422 488.591 194.312 489.18 194.094C489.768 193.875 490.229 193.57 490.562 193.18C490.896 192.789 491.062 192.339 491.062 191.828C491.062 191.318 490.896 190.87 490.562 190.484C490.229 190.094 489.768 189.792 489.18 189.578C488.591 189.365 487.922 189.26 487.172 189.266ZM489.172 198.453V195.148C488.552 195.31 487.885 195.391 487.172 195.391C486.453 195.391 485.797 195.312 485.203 195.156V198.453H489.172Z" fill="#2E3135"/>
<g clip-path="url(#clip4_2126_111262)">
<path d="M566.384 66.5651C574.872 67.3595 582.529 59.9852 583.488 50.0941C584.446 40.2029 578.342 31.5405 569.854 30.7461C561.366 29.9516 553.709 37.326 552.75 47.2171C551.792 57.1082 557.896 65.7706 566.384 66.5651Z" fill="#FDB022"/>
<path d="M607.062 63.6167C615.996 67.03 626.733 60.703 631.042 49.4848C635.351 38.2666 631.601 26.4053 622.666 22.992C613.731 19.5786 602.995 25.9057 598.686 37.1239C594.377 48.3421 598.127 60.2033 607.062 63.6167Z" fill="#FDB022"/>
<path d="M666.321 82.5388C674.432 73.6693 675.292 61.242 668.241 54.7818C661.19 48.3216 648.899 50.2748 640.787 59.1443C632.675 68.0139 631.815 80.4411 638.866 86.9013C645.917 93.3616 658.209 91.4084 666.321 82.5388Z" fill="#FDB022"/>
<path d="M673.571 132.579C682.044 126.699 684.508 115.55 679.072 107.678C673.637 99.8051 662.362 98.1898 653.889 104.07C645.415 109.95 642.952 121.099 648.387 128.971C653.822 136.844 665.097 138.459 673.571 132.579Z" fill="#FDB022"/>
<path d="M615.513 79.9799C615.513 79.9799 600.558 68.2946 578.376 76.6961C556.193 85.0977 553.984 82.0663 545.867 93.182C537.75 104.298 545.155 118.117 562.394 126.009C579.633 133.9 578.312 134.002 585.898 140.861C593.485 147.719 600.142 157.046 611.491 158.034C622.84 159.021 633.904 150.477 632.826 134.769C632.182 125.376 633.703 110.758 629.821 98.7083C627.21 90.6135 620.363 83.845 615.518 79.979L615.513 79.9799Z" fill="#FDB022"/>
</g>
</g>
<defs>
<clipPath id="clip0_2126_111262">
<rect width="1280" height="238" fill="white"/>
</clipPath>
<clipPath id="clip1_2126_111262">
<rect width="177.157" height="140.504" fill="white" transform="translate(1001 60.2695) rotate(-7.87395)"/>
</clipPath>
<clipPath id="clip2_2126_111262">
<rect width="138.027" height="186.961" fill="white" transform="translate(986.973 29)"/>
</clipPath>
<clipPath id="clip3_2126_111262">
<rect width="144.788" height="114.832" fill="white" transform="translate(789.019 143) rotate(13.0959)"/>
</clipPath>
<clipPath id="clip4_2126_111262">
<rect width="151.859" height="120.44" fill="white" transform="translate(585.838 -4) rotate(35.4405)"/>
</clipPath>
</defs>
</svg>
