<svg width="124" height="168" viewBox="0 0 124 168" fill="none" xmlns="http://www.w3.org/2000/svg">
<g clip-path="url(#clip0_841_23050)">
<path opacity="0.5" d="M65.5638 166.057C96.0365 166.057 120.739 159.552 120.739 151.528C120.739 143.505 96.0365 137 65.5638 137C35.0912 137 10.3882 143.505 10.3882 151.528C10.3882 159.552 35.0912 166.057 65.5638 166.057Z" fill="#5E331A"/>
<path d="M27.8919 132.527C24.078 129.108 20.0686 125.579 15.117 124.264C10.1673 122.95 4.01538 124.633 1.94715 129.319C0.805514 131.905 1.0831 134.904 1.80444 137.639C4.03492 146.103 10.5133 153.332 18.6826 156.476C26.8519 159.619 36.505 158.597 43.8337 153.811L59.5409 139.03L67.8471 140.739C65.3468 138.026 62.8153 135.285 59.7559 133.223C56.6966 131.16 53.0117 129.807 49.3425 130.197C45.6732 130.586 42.1017 132.986 41.0129 136.513C39.9514 139.947 41.308 143.615 42.6608 146.948C45.5325 154.024 48.9847 161.65 55.8189 165.063C60.8233 167.561 66.854 167.274 72.1634 165.513C77.4727 163.753 82.2152 160.647 86.8893 157.578L90.3298 155.66C103.591 155.758 116.449 146.807 120.96 134.335C123.599 127.039 123.523 118.962 121.838 111.389C120.153 103.816 116.931 96.6747 113.374 89.78L109.524 85.6709L88.9712 96.3092C85.2061 98.4165 80.7569 98.8818 76.4445 98.9834C72.1321 99.0851 67.7689 98.8681 63.5503 99.7751C59.3317 100.682 55.1581 102.92 53.1075 106.715C50.4215 111.682 52.177 118.231 56.1844 122.211C60.1938 126.189 65.9645 127.933 71.5984 128.335C79.2282 128.883 87.0065 127.186 93.7156 123.511C97.639 121.363 101.355 118.344 102.942 114.161" fill="white"/>
<path d="M25.03 125.22L39.7891 123.662L38.8078 94.3857L91.2877 95.3084L59.5409 127.821L27.7336 135.273L20.6257 126.909L25.03 125.22Z" fill="white"/>
<path d="M54.9255 97.8577C52.4839 97.7228 34.4778 96.155 25.9957 85.9389C17.5116 75.7229 14.7592 56.7745 22.0039 43.5734L24.2031 39.2474C23.384 32.3155 22.5649 25.3836 21.7458 18.4536C21.3842 15.4002 21.3392 11.6468 23.9548 10.0302C25.9644 8.78885 28.5683 9.49651 30.7714 10.3469C33.8327 11.5296 39.3023 14.0024 43.4114 17.0207C48.3787 20.6704 51.5573 24.3846 51.5573 24.3846C56.0515 22.4259 61.1869 21.9372 66.0857 22.1053L68.2713 22.4943C68.2713 22.4943 68.5958 18.8993 69.6514 15.1519C70.7383 11.2911 72.5778 7.23866 74.0557 4.83615C75.0038 3.29573 76.1923 1.72403 77.9282 1.21577C80.3385 0.510067 82.7391 2.14628 84.7037 3.71016C92.4136 9.85229 102.97 29.0098 102.97 29.0098L106.121 32.2588C112.82 39.2356 117.039 48.5485 117.866 58.1859C118.693 67.8233 116.124 77.7188 110.713 85.7356C110.713 85.7356 99.367 100.315 54.9255 97.8596V97.8577Z" fill="white"/>
<path d="M73.9578 24.3829C74.3409 20.7449 75.6722 17.2125 77.7834 14.2255C78.276 13.5296 78.9426 12.7965 79.7949 12.8219C80.397 12.8395 80.9112 13.2403 81.3647 13.6351C85.6126 17.3376 88.8068 23.6401 90.0325 29.1391C90.0325 29.1391 86.7112 27.5048 81.9942 25.9409C77.2771 24.377 73.9558 24.3829 73.9558 24.3829H73.9578Z" fill="#FAC985"/>
<path d="M28.7212 35.6852C27.6714 31.4784 26.9559 27.1894 26.5845 22.8712C26.5376 22.318 26.4966 21.755 26.6295 21.2174C26.7624 20.6798 27.1006 20.1618 27.6147 19.9545C28.2305 19.7043 28.9264 19.9428 29.5383 20.2009C33.4363 21.8488 37.5434 24.5797 40.3291 27.7681C40.3291 27.7681 36.261 29.6819 34.5955 31.0092L28.7231 35.6872L28.7212 35.6852Z" fill="#FAC985"/>
<path d="M39.9353 123.668C39.8864 123.668 39.8375 123.664 39.7887 123.662C44.4001 123.967 49.0468 123.724 53.5997 122.941L51.8501 107.261C49.3596 102.338 46.8691 97.4141 44.3786 92.4918L43.9916 91.7704C43.4364 90.7363 42.4218 90.0287 41.2587 89.8645C34.5673 89.1939 27.8015 89.2565 21.1238 90.0502C20.5275 90.1205 19.9489 90.3356 19.4719 90.7011C17.9686 91.8545 18.5531 93.389 19.1279 94.6792C20.1346 96.9391 21.1413 99.1989 22.1481 101.459" fill="#94633F"/>
<path d="M34.8101 126.93C32.8259 127.976 30.3784 127.884 28.2828 127.084C26.1872 126.285 24.3985 124.84 22.8092 123.255C20.1585 120.612 17.9084 117.398 17.1949 113.723C16.4814 110.048 17.5585 105.878 20.5221 103.593C21.9647 102.481 26.242 101.978 29.79 104.14C32.951 106.066 35.4434 110.513 36.241 112.185C37.279 114.362 38.884 118.579 38.3913 121.865C37.9965 124.508 35.7015 126.461 34.8081 126.932L34.8101 126.93Z" fill="white"/>
<path d="M111.544 86.277C117.58 77.2534 120.098 66.1049 118.507 55.3669C117.095 45.837 112.458 37.351 105.8 30.4876C105.286 29.9558 104.77 29.4261 104.256 28.8944C104.107 28.7399 103.965 28.5738 103.806 28.4311C103.607 28.2493 103.64 28.1867 103.791 28.4506C103.523 27.9736 103.255 27.4966 102.983 27.0216C101.564 24.5448 100.088 22.0973 98.5614 19.687C96.4384 16.3364 94.2157 13.0444 91.7898 9.90495C89.528 6.97854 87.106 4.14597 84.0857 1.97413C81.7927 0.32619 78.8467 -0.8389 76.2077 0.77385C73.9088 2.17743 72.556 4.92791 71.4261 7.27372C69.1253 12.0572 67.5887 17.2004 67.0981 22.4942L68.4587 21.4581C67.7569 21.333 67.0551 21.1825 66.3474 21.0828C64.7757 20.8599 63.0828 20.985 61.5033 21.0828C57.8536 21.3056 54.286 22.0192 50.9158 23.4579L52.2197 23.626C47.532 18.1701 41.4348 14.0023 34.9428 11.0055C31.7837 9.54721 27.6199 7.29914 24.1109 8.71445C20.602 10.1298 20.1758 14.5614 20.5199 17.9413C21.034 22.9966 21.7084 28.042 22.3047 33.0895C22.4571 34.3738 22.6077 35.6562 22.7601 36.9405C22.811 37.3784 22.725 38.3324 22.9654 38.6725C22.9947 38.7136 23.1394 39.0909 23.1628 38.7429C23.1589 38.7996 23.0925 38.8582 23.0768 38.913C22.7582 39.9412 22.0271 40.9773 21.5403 41.9371C20.1113 44.7462 18.7566 47.5378 17.8789 50.5815C16.7998 54.323 16.2954 58.2464 16.3482 62.1366C16.4655 71.037 19.4975 79.8006 25.1431 86.7032C26.0189 87.7744 27.5339 86.2457 26.664 85.1823C21.9586 79.4292 19.2101 72.1591 18.6217 64.7698C18.045 57.5153 19.5405 50.4837 22.8794 44.0425C23.3251 43.1804 23.7591 42.3124 24.1989 41.4484C24.6387 40.5844 25.1998 39.82 25.1411 38.866C24.9945 36.4283 24.5625 33.975 24.2771 31.549C23.9917 29.1231 23.7004 26.6717 23.4131 24.232C23.1452 21.9644 22.811 19.6929 22.6253 17.4155C22.4962 15.8301 22.4317 14.0668 23.0729 12.5733C24.6954 8.80242 29.5141 10.9664 32.2099 12.1237C39.1887 15.1205 45.7198 19.343 50.7047 25.145C51.0429 25.5379 51.5863 25.4929 52.0086 25.3131C55.1148 23.9877 58.4987 23.3895 61.8571 23.2116C63.1649 23.1432 64.5783 23.0298 65.8704 23.1725C66.5468 23.2468 67.2251 23.413 67.8937 23.5322C68.6268 23.6632 69.1859 23.2351 69.2543 22.4961C69.6628 18.088 70.8885 13.7286 72.6772 9.68601C73.594 7.61778 74.6184 5.31497 76.1568 3.62207C76.9329 2.7678 77.8927 2.10315 79.0911 2.12465C80.4301 2.15006 81.6637 2.89486 82.731 3.63575C85.5675 5.60428 87.8527 8.31175 89.96 11.0173C92.2492 13.9574 94.3389 17.0538 96.3426 20.1914C97.8948 22.6193 99.3902 25.0844 100.831 27.5807C101.505 28.7477 102.039 29.688 102.977 30.6557C105.464 33.2204 107.89 35.7774 109.868 38.7742C112.574 42.8715 114.556 47.4146 115.711 52.1864C118.44 63.4639 116.132 75.5723 109.694 85.194C108.922 86.3474 110.785 87.4245 111.551 86.279L111.544 86.277Z" fill="#555A60"/>
<path d="M110.985 90.1665C114.941 94.6353 117.53 99.9369 119.189 105.639C120.859 111.381 122.039 117.314 121.834 123.317C121.637 129.068 120.149 134.739 117.068 139.628C114.394 143.87 110.67 147.432 106.379 150.016C101.508 152.95 95.9266 154.598 90.2302 154.583C88.8461 154.579 88.8442 156.729 90.2302 156.733C100.994 156.76 111.313 151.205 117.651 142.582C121.16 137.808 123.126 132.166 123.771 126.3C124.483 119.835 123.459 113.425 121.84 107.172C120.071 100.334 117.223 93.9707 112.508 88.6457C111.589 87.6076 110.072 89.1324 110.987 90.1665H110.985Z" fill="#555A60"/>
<path d="M86.2459 156.648C80.6765 160.306 74.9117 164.117 68.2574 165.396C65.1237 165.998 61.8161 166 58.7392 165.095C55.9457 164.274 53.5022 162.667 51.4945 160.573C47.5516 156.456 45.2546 150.918 43.206 145.685C42.0409 142.714 40.8035 139.133 42.2403 136.032C43.3565 133.622 45.761 132.025 48.2983 131.442C51.8425 130.629 55.5645 131.907 58.5515 133.784C61.7966 135.823 64.4122 138.702 66.9887 141.498C67.9289 142.518 69.4459 140.994 68.5095 139.977C63.7221 134.783 58.0296 128.987 50.4096 129.055C47.3366 129.083 44.2577 130.273 42.1054 132.502C39.7342 134.957 39.1066 138.251 39.6931 141.543C40.3011 144.956 41.8806 148.264 43.2881 151.413C44.5822 154.31 46.0483 157.158 47.9621 159.701C49.8759 162.245 51.9832 164.268 54.6614 165.724C57.6914 167.37 61.1671 168.055 64.5979 167.951C73.1073 167.697 80.438 163.033 87.3308 158.505C88.4822 157.749 87.4071 155.886 86.2459 156.648Z" fill="#555A60"/>
<path d="M63.6477 128.165C62.0291 129.096 60.4105 130.028 58.7938 130.959C57.5955 131.649 58.6765 133.508 59.8788 132.816C61.4974 131.886 63.116 130.953 64.7327 130.023C65.931 129.333 64.85 127.473 63.6477 128.165Z" fill="#555A60"/>
<path d="M88.3261 95.3809C80.9192 99.4216 72.0461 97.1403 64.0684 98.5615C57.3633 99.7559 50.8888 104.217 50.6483 111.585C50.4138 118.775 55.5531 124.598 61.8907 127.251C68.8754 130.173 77.0994 130.076 84.3519 128.269C91.9504 126.379 100.829 122.192 103.877 114.447C104.383 113.158 102.305 112.599 101.803 113.876C99.3026 120.229 91.8859 123.789 85.7613 125.65C79.1168 127.669 71.6552 128.107 64.9559 126.078C58.8138 124.219 53.2112 119.523 52.8143 112.717C52.6345 109.63 53.7311 106.746 55.9812 104.614C58.3348 102.383 61.4919 101.197 64.6412 100.636C72.9024 99.1636 81.705 101.443 89.413 97.238C90.6289 96.5753 89.544 94.7182 88.3281 95.3809H88.3261Z" fill="#555A60"/>
<path d="M61.7909 116.585C59.1597 117.621 57.0133 119.557 55.8775 122.172C55.3321 123.429 57.1833 124.526 57.7346 123.257C58.6358 121.181 60.2368 119.498 62.3617 118.659C63.6343 118.157 63.0811 116.077 61.7909 116.585Z" fill="#555A60"/>
<path d="M58.2913 108.438C55.2105 109.458 52.8822 111.689 51.117 114.353C50.3507 115.51 52.2117 116.587 52.9741 115.438C54.4148 113.26 56.3384 111.346 58.8621 110.512C60.1699 110.08 59.6089 108.002 58.2913 108.438Z" fill="#555A60"/>
<path d="M34.171 126.001C29.3288 128.394 24.344 123.847 21.527 120.344C18.6671 116.788 16.8295 111.938 18.755 107.504C19.4607 105.88 20.6454 104.322 22.4321 103.902C24.5609 103.403 26.9713 103.833 28.8616 104.899C32.0246 106.683 34.2453 110.384 35.6352 113.651C37.3046 117.578 38.7844 123.435 34.171 126.001C32.9609 126.674 34.0439 128.533 35.2559 127.858C37.0876 126.84 38.6026 124.865 39.1754 122.864C39.9241 120.24 39.2067 117.242 38.3426 114.735C36.896 110.542 34.3899 106.075 30.6835 103.501C28.4824 101.972 25.6166 101.325 22.9658 101.642C20.6102 101.923 18.9329 103.098 17.6271 105.079C14.4954 109.833 15.7973 115.947 18.8684 120.356C22.3461 125.346 28.8147 131.039 35.2559 127.854C36.4973 127.241 35.4084 125.385 34.171 125.997V126.001Z" fill="#555A60"/>
<path d="M28.5526 131.768C23.8356 127.539 18.403 122.773 11.6862 122.758C9.00998 122.752 6.20868 123.464 4.02707 125.059C1.56005 126.863 0.197523 129.531 0.0215863 132.579C-0.166079 135.848 0.854352 139.163 2.15628 142.123C3.37415 144.891 5.05532 147.446 7.061 149.705C11.1681 154.336 16.757 157.64 22.8484 158.811C30.1888 160.224 37.9808 158.796 44.2755 154.739C45.4347 153.992 44.3576 152.129 43.1905 152.882C33.1856 159.329 19.6796 158.449 10.8124 150.437C6.78927 146.801 3.80813 141.99 2.57657 136.692C1.91584 133.844 1.84155 130.556 3.7964 128.175C5.31532 126.323 7.67287 125.319 10.007 125.01C16.7688 124.115 22.3675 129.107 27.0317 133.289C28.06 134.209 29.5848 132.694 28.5526 131.768Z" fill="#555A60"/>
<path d="M13.7135 125.006C11.9678 127.709 12.2493 130.984 14.1865 133.49C14.9802 134.516 16.3623 133.21 15.8755 132.186C15.8032 132.032 15.7289 131.879 15.6566 131.725C15.0623 130.476 13.2091 131.566 13.7995 132.81C13.8718 132.964 13.9461 133.117 14.0184 133.271L15.7074 131.967C14.3527 130.216 14.3957 127.907 15.5706 126.089C16.3232 124.924 14.4622 123.845 13.7135 125.004V125.006Z" fill="#555A60"/>
<path d="M6.46287 125.102C4.96545 128.461 5.51477 132.316 7.95246 135.086C8.86929 136.126 10.3843 134.601 9.47334 133.565C7.72766 131.581 7.23894 128.611 8.31998 126.187C8.87906 124.934 7.02586 123.839 6.46287 125.102Z" fill="#555A60"/>
<path d="M54.0539 131.112C52.1968 133.459 51.4989 136.392 52.2066 139.316L54.2807 138.745C54.2299 138.583 54.1771 138.423 54.1262 138.261C53.7079 136.947 51.6299 137.508 52.0521 138.831C52.103 138.994 52.1558 139.154 52.2066 139.316C52.6269 140.632 54.6071 140.096 54.2807 138.745C53.7685 136.632 54.2162 134.349 55.5748 132.632C56.4252 131.559 54.9121 130.027 54.0539 131.112Z" fill="#555A60"/>
<path d="M45.591 131.104C44.1151 134.27 44.0995 137.756 45.5265 140.94L47.3836 139.855C47.2488 139.629 47.1119 139.402 46.977 139.175C46.2674 137.989 44.4084 139.068 45.1199 140.26C45.2548 140.487 45.3916 140.714 45.5265 140.94C46.2518 142.154 47.9388 141.093 47.3836 139.855C46.2987 137.435 46.328 134.591 47.4481 132.188C48.0287 130.941 46.1755 129.849 45.591 131.104Z" fill="#555A60"/>
<path d="M35.7113 115.262C33.8171 115.275 32.001 115.833 30.4567 116.931C29.3385 117.727 30.4117 119.592 31.5416 118.788C32.7967 117.895 34.167 117.422 35.7113 117.412C37.0954 117.402 37.0973 115.252 35.7113 115.262Z" fill="#555A60"/>
<path d="M31.8874 106.549C29.3852 106.508 27.1625 107.692 25.6964 109.692C24.8773 110.808 26.7422 111.884 27.5535 110.777C28.5681 109.395 30.1965 108.67 31.8894 108.697C33.2734 108.721 33.2734 106.57 31.8894 106.547L31.8874 106.549Z" fill="#555A60"/>
<path d="M110.305 71.9737C105.07 70.7031 99.6019 70.8184 94.4313 72.3354C93.1059 72.7244 93.6709 74.8005 95.0022 74.4095C99.8091 72.9981 104.864 72.8652 109.732 74.0478C111.077 74.3743 111.65 72.3022 110.303 71.9737H110.305Z" fill="#555A60"/>
<path d="M109.521 59.0064C103.39 59.3876 97.4611 61.4363 92.4469 64.9941C91.3268 65.7878 92.4 67.6547 93.5319 66.8512C98.2353 63.5143 103.758 61.5164 109.521 61.1568C110.895 61.0707 110.905 58.9204 109.521 59.0064Z" fill="#555A60"/>
<path d="M24.9319 71.1325C20.0878 70.7103 15.2358 70.9351 10.4445 71.7502C9.08391 71.9829 9.66059 74.055 11.0153 73.8243C15.6131 73.0424 20.2852 72.8782 24.9299 73.2828C26.3081 73.404 26.3003 71.2517 24.9299 71.1325H24.9319Z" fill="#555A60"/>
<path d="M26.9926 78.4964C22.1544 79.1962 17.4999 80.7992 13.2383 83.1939C12.5502 83.581 12.5287 84.6698 13.2383 85.051L13.5589 85.223C14.7787 85.8759 15.8656 84.0208 14.6438 83.3659L14.3232 83.1939V85.051C18.4323 82.7443 22.9031 81.2449 27.5654 80.5705C28.9299 80.373 28.3493 78.3009 26.9946 78.4964H26.9926Z" fill="#555A60"/>
<path d="M71.6892 70.7544C73.8917 70.2443 75.1469 67.5414 74.4928 64.7174C73.8388 61.8933 71.5231 60.0175 69.3207 60.5276C67.1182 61.0377 65.863 63.7405 66.517 66.5646C67.1711 69.3886 69.4868 71.2645 71.6892 70.7544Z" fill="#555A60"/>
<path d="M42.2952 72.7026C44.4976 72.1925 45.7529 69.4897 45.0988 66.6656C44.4447 63.8415 42.1291 61.9657 39.9266 62.4758C37.7242 62.9859 36.4689 65.6888 37.123 68.5128C37.7771 71.3369 40.0927 73.2127 42.2952 72.7026Z" fill="#555A60"/>
<path d="M49.991 73.0911C49.991 74.6745 51.85 76.6646 54.2369 76.6646C56.6238 76.6646 58.4457 74.5768 58.4457 72.9934C58.4457 71.4099 56.5671 70.5498 54.1802 70.5498C51.7933 70.5498 49.991 71.5077 49.991 73.0911Z" fill="#555A60"/>
<path d="M64.3125 79.9335C62.9989 81.2804 61.0108 81.8649 59.1967 81.2648C57.3826 80.6647 56.1726 78.9659 55.8969 77.101C55.6956 75.7365 53.6234 76.3171 53.8228 77.6718C54.2079 80.2737 56.1198 82.5276 58.6239 83.3369C61.1496 84.1541 64.0037 83.3272 65.8315 81.4525C66.7991 80.4614 65.2802 78.9385 64.3106 79.9316L64.3125 79.9335Z" fill="#555A60"/>
<path d="M53.3462 77.7002C53.9522 79.2035 53.1311 80.6149 51.7022 81.2404C50.148 81.9207 48.4297 81.5825 46.8737 81.0997C45.5483 80.6872 44.9833 82.7633 46.3029 83.1738C48.5881 83.8834 51.1958 84.1414 53.3188 82.8141C55.2052 81.6353 56.2843 79.2739 55.4203 77.1294C54.9101 75.8627 52.8281 76.4159 53.3462 77.7002Z" fill="#555A60"/>
<path d="M53.217 121.903C48.7482 122.656 44.2129 122.869 39.6914 122.586V124.736L39.838 124.742C41.222 124.789 41.22 122.638 39.838 122.591L39.6914 122.586C38.2995 122.539 38.3191 124.65 39.6914 124.736C44.4104 125.031 49.1274 124.761 53.7897 123.977C55.1523 123.749 54.5736 121.675 53.2189 121.903H53.217Z" fill="#555A60"/>
<path d="M52.6807 106.719C50.7396 102.884 48.8003 99.0481 46.8592 95.2127C45.5436 92.6128 44.4958 89.2152 41.1608 88.791C36.9676 88.2593 32.6416 88.2378 28.423 88.3981C26.3313 88.4782 24.2416 88.6288 22.1597 88.8497C20.4374 89.0334 18.5901 89.3188 17.7026 91.0313C16.8757 92.6284 17.683 94.3936 18.3985 95.8637C19.3662 97.8478 20.6231 99.6737 21.5419 101.683C22.1166 102.94 23.9698 101.849 23.399 100.598C22.6972 99.0638 21.8097 97.6367 20.9887 96.1667C20.4453 95.1932 19.2723 93.5276 19.505 92.3273C19.8041 90.7791 22.5272 90.955 23.6747 90.8534C25.5064 90.6892 27.3439 90.5797 29.1834 90.525C32.8625 90.4155 36.5473 90.525 40.2127 90.8534C41.5694 90.9746 42.4471 91.3675 43.1176 92.5991C43.7881 93.8306 44.4371 95.1795 45.09 96.4716C47.0019 100.25 48.9137 104.029 50.8236 107.806C51.4492 109.041 53.3043 107.954 52.6807 106.721V106.719Z" fill="#555A60"/>
<path d="M54.8275 96.7825C52.5462 96.9487 50.3177 96.5636 48.2553 95.5607C47.016 94.9567 45.9251 96.8118 47.1704 97.4178C49.567 98.5849 52.1631 99.1283 54.8275 98.9329C56.1998 98.8332 56.2096 96.6809 54.8275 96.7825Z" fill="#555A60"/>
<path d="M18.9846 148.401C20.6198 147.304 20.585 144.387 18.9067 141.886C17.2284 139.384 14.5422 138.246 12.907 139.343C11.2717 140.441 11.3066 143.358 12.9848 145.859C14.6631 148.36 17.3493 149.499 18.9846 148.401Z" fill="#555A60"/>
<path d="M57.2619 155.575C58.8972 154.478 58.8623 151.561 57.184 149.06C55.5057 146.558 52.8196 145.42 51.1843 146.517C49.549 147.614 49.5839 150.532 51.2622 153.033C52.9405 155.534 55.6266 156.673 57.2619 155.575Z" fill="#555A60"/>
<path d="M23.4129 125.55L22.4413 125.957C22.1715 126.07 21.9526 126.188 21.7981 126.452C21.6633 126.682 21.6066 127.022 21.6906 127.28C21.7747 127.538 21.9369 127.791 22.1852 127.924C22.4335 128.057 22.7541 128.141 23.0141 128.031L23.9856 127.624C24.2554 127.511 24.4743 127.394 24.6288 127.13C24.7637 126.899 24.8203 126.559 24.7363 126.301C24.6522 126.043 24.49 125.791 24.2417 125.658C23.9934 125.525 23.6728 125.441 23.4129 125.55Z" fill="#555A60"/>
<path d="M41.2943 94.5502C43.2101 98.3152 45.1258 102.08 47.0416 105.845C47.5068 106.76 48.8713 106.109 48.6485 105.167L48.5742 104.856C48.3142 103.754 46.6174 104.221 46.8774 105.323L46.9516 105.634L48.5585 104.956C46.6428 101.191 44.727 97.4257 42.8113 93.6607C42.2971 92.652 40.7802 93.5415 41.2924 94.5482L41.2943 94.5502Z" fill="#555A60"/>
</g>
<defs>
<clipPath id="clip0_841_23050">
<rect width="124" height="167.961" fill="white"/>
</clipPath>
</defs>
</svg>
