<svg width="375" height="184" viewBox="0 0 375 184" fill="none" xmlns="http://www.w3.org/2000/svg">
<rect width="375" height="184" fill="#FFBFA9"/>
<g clip-path="url(#clip0_2126_65738)">
<path d="M253.67 85.8914C256.256 80.8582 253.605 74.3186 247.747 71.2849C241.89 68.2511 235.045 69.8719 232.459 74.9051C229.873 79.9383 232.525 86.4779 238.382 89.5117C244.239 92.5454 251.084 90.9246 253.67 85.8914Z" fill="#FFA88A"/>
<path d="M261.902 60.1014C266.212 55.4398 264.966 47.2621 259.119 41.8361C253.272 36.41 245.038 35.7903 240.728 40.452C236.418 45.1136 237.664 53.2913 243.511 58.7173C249.358 64.1434 257.592 64.763 261.902 60.1014Z" fill="#FFA88A"/>
<path d="M288.198 28.2648C284.738 21.0762 277.293 17.4765 271.572 20.2248C265.85 22.9731 264.017 31.0285 267.477 38.2172C270.938 45.4058 278.382 49.0055 284.104 46.2572C289.826 43.509 291.659 35.4535 288.198 28.2648Z" fill="#FFA88A"/>
<path d="M320.819 36.1595C319.29 29.4863 313.029 25.2147 306.836 26.6186C300.643 28.0225 296.863 34.5702 298.392 41.2434C299.922 47.9165 306.182 52.1881 312.375 50.7842C318.568 49.3803 322.349 42.8326 320.819 36.1595Z" fill="#FFA88A"/>
<path d="M274.07 58.9356C274.07 58.9356 263.176 65.2626 262.873 81.0049C262.569 96.7471 260.156 97.3591 264.999 105.106C269.843 112.853 280.186 111.704 289.307 103.033C298.427 94.3613 298.164 95.2 304.263 92.2204C310.363 89.2407 317.754 87.4434 321.166 80.695C324.577 73.9466 322.046 65.0192 312.103 61.8029C306.156 59.8798 297.526 55.3312 289.143 54.7467C283.511 54.3559 277.649 56.902 274.071 58.9321L274.07 58.9356Z" fill="#FFA88A"/>
</g>
<path d="M36.9727 103.77V105.547H34.5117V110.742H32.3438V99.082H34.5117V103.77H36.9727ZM29.7461 100.43C29.7461 105.117 26.6797 108.477 21.4062 109.98L20.4883 108.242C24.5801 107.09 26.9922 104.883 27.3828 102.168H21.4062V100.43H29.7461ZM30.0586 110.117C30.0586 112.324 32.2266 114.336 35.7617 114.883L34.8828 116.621C32.168 116.143 30.0488 114.834 28.9844 113.008C27.9004 114.844 25.791 116.152 23.0664 116.641L22.168 114.922C25.7031 114.375 27.8906 112.363 27.8906 110.117V109.492H30.0586V110.117ZM43.3789 102.363C43.3789 104.277 44.4922 106.191 46.8164 107.07L45.6641 108.73C44.0918 108.125 42.998 107.002 42.3633 105.625C41.7188 107.207 40.5664 108.555 38.8867 109.258L37.7148 107.598C40.1367 106.523 41.2695 104.316 41.2891 102.363V100.176H43.3789V102.363ZM52.9688 99.1016V109.922H50.8984V105.332H49.1406V109.375H47.1094V99.4336H49.1406V103.555H50.8984V99.1016H52.9688ZM47.0117 110.215C50.7031 110.215 53.0469 111.426 53.0664 113.457C53.0469 115.488 50.7031 116.719 47.0117 116.719C43.2812 116.719 40.957 115.488 40.957 113.457C40.957 111.426 43.2812 110.215 47.0117 110.215ZM47.0117 111.855C44.5703 111.855 43.125 112.422 43.125 113.457C43.125 114.512 44.5703 115.059 47.0117 115.059C49.4336 115.059 50.8789 114.512 50.8789 113.457C50.8789 112.422 49.4336 111.855 47.0117 111.855ZM66.1914 100.918C66.1719 103.145 67.6172 105.156 70.3516 105.977L69.2383 107.656C67.2852 107.041 65.9082 105.801 65.1562 104.199C64.3652 106.035 62.8809 107.441 60.7812 108.125L59.707 106.406C62.5391 105.508 64.0039 103.34 64.0234 100.918V99.707H66.1914V100.918ZM73.8281 99.082V102.676H76.2891V104.453H73.8281V108.203H71.6602V99.082H73.8281ZM73.8281 108.926V113.477H64.4531V114.863H74.375V116.582H62.3047V111.895H71.6602V110.605H62.2852V108.926H73.8281ZM91.9336 99.082V116.738H89.7461V99.082H91.9336ZM86.6602 100.957C86.6602 106.211 84.6289 110.684 78.4375 113.613L77.3047 111.875C81.9238 109.678 84.0723 106.689 84.4531 102.676H78.2031V100.957H86.6602ZM107.539 100.859V102.578H104.668C104.697 104.141 105.908 105.732 108.086 106.445L107.148 108.027C105.469 107.51 104.307 106.455 103.672 105.156C103.027 106.572 101.865 107.754 100.195 108.359L99.2188 106.719C101.377 105.908 102.568 104.18 102.617 102.578H99.707V100.859H102.617V99.1602H104.668V100.859H107.539ZM114.316 99.1016V108.418H112.246V104.609H110.547V108.301H108.496V99.4336H110.547V102.871H112.246V99.1016H114.316ZM114.316 109.102V113.535H104.551V114.902H114.941V116.523H102.383V111.953H112.168V110.742H102.363V109.102H114.316ZM131.172 99.1016V112.09H129.023V99.1016H131.172ZM131.66 114.629V116.387H119.414V111.035H121.602V114.629H131.66ZM125.547 100.293V105.742H119.57V107.969C122.764 107.959 124.863 107.861 127.305 107.422L127.539 109.16C124.883 109.648 122.559 109.746 118.945 109.746H117.441V104.102H123.398V102.031H117.402V100.293H125.547ZM140.449 104.102C140.449 106.992 142.148 110.039 145 111.23L143.809 112.949C141.719 112.051 140.195 110.195 139.395 107.949C138.574 110.371 137.031 112.402 134.961 113.379L133.711 111.68C136.504 110.391 138.242 107.109 138.242 104.102V102.617H134.355V100.82H144.316V102.617H140.449V104.102ZM148.477 99.082V116.738H146.289V99.082H148.477Z" fill="#262626"/>
<path d="M21.6543 132.102L24.375 136.695H24.498L27.2188 132.102H28.6406L25.0586 137.939V142H23.8145V137.939L20.2461 132.102H21.6543ZM37.8555 137.051C37.8555 138.076 37.6686 138.974 37.2949 139.744C36.9212 140.51 36.4017 141.1 35.7363 141.515C35.0755 141.929 34.3236 142.137 33.4805 142.137C32.6328 142.137 31.8786 141.929 31.2178 141.515C30.557 141.1 30.0397 140.51 29.666 139.744C29.2923 138.974 29.1055 138.076 29.1055 137.051C29.1055 136.025 29.2923 135.13 29.666 134.364C30.0397 133.594 30.557 133.002 31.2178 132.587C31.8786 132.172 32.6328 131.965 33.4805 131.965C34.3236 131.965 35.0755 132.172 35.7363 132.587C36.4017 133.002 36.9212 133.594 37.2949 134.364C37.6686 135.13 37.8555 136.025 37.8555 137.051ZM36.666 137.051C36.666 136.221 36.527 135.51 36.249 134.918C35.971 134.326 35.5905 133.877 35.1074 133.571C34.6289 133.266 34.0866 133.113 33.4805 133.113C32.8743 133.113 32.3298 133.266 31.8467 133.571C31.3682 133.877 30.9899 134.326 30.7119 134.918C30.4339 135.51 30.2949 136.221 30.2949 137.051C30.2949 137.88 30.4339 138.591 30.7119 139.184C30.9899 139.776 31.3682 140.225 31.8467 140.53C32.3298 140.836 32.8743 140.988 33.4805 140.988C34.0866 140.988 34.6289 140.836 35.1074 140.53C35.5905 140.225 35.971 139.776 36.249 139.184C36.527 138.591 36.666 137.88 36.666 137.051ZM39.6602 132.102H40.8906V140.906H45.4844V142H39.6602V132.102ZM46.8789 142L50.502 132.102H51.8008L55.4238 142H54.125L53.1338 139.211H49.1553L48.1641 142H46.8789ZM52.7578 138.131L51.1855 133.701H51.1035L49.5312 138.131H52.7578ZM65.5684 135.902H67.5371V136.805H65.5684V143.107H64.502V130.953H65.5684V135.902ZM62.4238 132.266C62.4238 134.075 61.9704 135.715 61.0635 137.188C60.1566 138.655 58.7507 139.858 56.8457 140.797L56.2441 139.949C57.8073 139.17 59.0173 138.208 59.874 137.064C60.7308 135.916 61.2207 134.617 61.3438 133.168H56.8047V132.266H62.4238ZM81.8516 143.135H80.7715V136.736H78.1055V135.848H80.7715V130.953H81.8516V143.135ZM75.9727 134.918C75.9727 135.574 76.1094 136.221 76.3828 136.859C76.6608 137.493 77.0413 138.058 77.5244 138.555C78.0075 139.051 78.5475 139.434 79.1445 139.703L78.5293 140.537C77.8366 140.218 77.2191 139.744 76.6768 139.115C76.1344 138.486 75.7288 137.773 75.46 136.976C75.1956 137.823 74.7946 138.582 74.2568 139.252C73.7191 139.922 73.1061 140.423 72.418 140.756L71.8027 139.922C72.3906 139.644 72.9215 139.245 73.3955 138.726C73.8695 138.201 74.2409 137.607 74.5098 136.941C74.7832 136.276 74.9199 135.602 74.9199 134.918V133.947H72.1309V133.072H74.9199V131.186H75.9863V133.072H78.7344V133.947H75.9727V134.918ZM89.4121 131.227C90.2917 131.227 91.0527 131.318 91.6953 131.5C92.3424 131.682 92.8392 131.947 93.1855 132.293C93.5319 132.639 93.7051 133.054 93.7051 133.537C93.7051 134.011 93.5319 134.419 93.1855 134.761C92.8392 135.098 92.3424 135.358 91.6953 135.54C91.0527 135.718 90.2917 135.807 89.4121 135.807C88.5326 135.807 87.7692 135.718 87.1221 135.54C86.4749 135.358 85.9759 135.098 85.625 134.761C85.2786 134.419 85.1055 134.011 85.1055 133.537C85.1055 133.054 85.2786 132.639 85.625 132.293C85.9759 131.947 86.4749 131.682 87.1221 131.5C87.7692 131.318 88.5326 131.227 89.4121 131.227ZM89.4121 132.088C88.7604 132.088 88.193 132.147 87.71 132.266C87.2269 132.38 86.8555 132.546 86.5957 132.765C86.3359 132.983 86.2083 133.241 86.2129 133.537C86.2083 133.829 86.3337 134.082 86.5889 134.296C86.8486 134.506 87.2201 134.667 87.7031 134.781C88.1862 134.895 88.7559 134.954 89.4121 134.959C90.0592 134.954 90.6221 134.895 91.1006 134.781C91.5837 134.667 91.9551 134.506 92.2148 134.296C92.4792 134.082 92.6113 133.829 92.6113 133.537C92.6113 133.241 92.4792 132.983 92.2148 132.765C91.9551 132.546 91.5837 132.38 91.1006 132.266C90.6175 132.147 90.0547 132.088 89.4121 132.088ZM93.5957 142.943H85.2285V138.951H93.5957V142.943ZM86.2949 142.068H92.543V139.812H86.2949V142.068ZM94.9492 137.748H83.875V136.859H94.9492V137.748ZM105.996 143.135H104.916V130.953H105.996V143.135ZM99.5293 131.896C100.131 131.901 100.666 132.079 101.136 132.43C101.605 132.776 101.972 133.268 102.236 133.906C102.501 134.544 102.633 135.287 102.633 136.135C102.633 136.982 102.501 137.725 102.236 138.363C101.972 139.001 101.605 139.493 101.136 139.84C100.666 140.186 100.131 140.359 99.5293 140.359C98.9277 140.359 98.39 140.186 97.916 139.84C97.4466 139.493 97.0798 139.001 96.8154 138.363C96.5557 137.725 96.4258 136.982 96.4258 136.135C96.4258 135.287 96.5557 134.544 96.8154 133.906C97.0798 133.268 97.4466 132.776 97.916 132.43C98.3854 132.079 98.9232 131.901 99.5293 131.896ZM99.5293 132.854C99.1237 132.858 98.7637 132.997 98.4492 133.271C98.1393 133.539 97.8978 133.922 97.7246 134.419C97.5514 134.911 97.4648 135.483 97.4648 136.135C97.4648 136.786 97.5514 137.361 97.7246 137.857C97.8978 138.35 98.1416 138.73 98.4561 138.999C98.7705 139.268 99.1283 139.402 99.5293 139.402C99.9303 139.402 100.288 139.268 100.603 138.999C100.917 138.73 101.161 138.35 101.334 137.857C101.507 137.361 101.594 136.786 101.594 136.135C101.594 135.483 101.507 134.911 101.334 134.419C101.161 133.922 100.917 133.539 100.603 133.271C100.293 132.997 99.9349 132.858 99.5293 132.854ZM118.109 139.881H117.043V130.967H118.109V139.881ZM118.492 142.848H110.262V139.061H111.328V141.945H118.492V142.848ZM112.381 132.867C112.376 133.473 112.502 134.054 112.757 134.61C113.017 135.166 113.379 135.656 113.844 136.08C114.313 136.499 114.846 136.818 115.443 137.037L114.883 137.898C114.181 137.63 113.566 137.233 113.037 136.709C112.508 136.18 112.11 135.565 111.841 134.863C111.572 135.611 111.171 136.269 110.638 136.839C110.109 137.409 109.492 137.835 108.785 138.117L108.197 137.283C108.803 137.051 109.341 136.709 109.811 136.258C110.28 135.807 110.642 135.287 110.897 134.699C111.157 134.111 111.287 133.501 111.287 132.867V131.65H112.381V132.867ZM129.58 135.902H131.549V136.805H129.58V143.107H128.514V130.953H129.58V135.902ZM126.436 132.266C126.436 134.075 125.982 135.715 125.075 137.188C124.168 138.655 122.762 139.858 120.857 140.797L120.256 139.949C121.819 139.17 123.029 138.208 123.886 137.064C124.743 135.916 125.232 134.617 125.355 133.168H120.816V132.266H126.436ZM143.402 141.549H132.273V140.646H135.035V137.365C134.507 137.092 134.096 136.741 133.805 136.312C133.513 135.88 133.367 135.392 133.367 134.85C133.367 134.23 133.556 133.685 133.935 133.216C134.313 132.742 134.837 132.375 135.507 132.115C136.181 131.855 136.949 131.723 137.811 131.719C138.672 131.723 139.438 131.855 140.107 132.115C140.782 132.375 141.308 132.742 141.687 133.216C142.065 133.685 142.254 134.23 142.254 134.85C142.254 135.383 142.113 135.864 141.83 136.292C141.548 136.716 141.151 137.064 140.641 137.338V140.646H143.402V141.549ZM137.811 132.607C137.15 132.603 136.562 132.694 136.047 132.881C135.532 133.068 135.129 133.332 134.837 133.674C134.55 134.011 134.406 134.403 134.406 134.85C134.406 135.296 134.55 135.693 134.837 136.039C135.129 136.381 135.532 136.647 136.047 136.839C136.562 137.026 137.15 137.119 137.811 137.119C138.467 137.119 139.052 137.023 139.567 136.832C140.082 136.641 140.486 136.374 140.777 136.032C141.069 135.69 141.215 135.296 141.215 134.85C141.215 134.403 141.069 134.011 140.777 133.674C140.486 133.332 140.082 133.068 139.567 132.881C139.052 132.694 138.467 132.603 137.811 132.607ZM139.561 140.646V137.755C139.018 137.896 138.435 137.967 137.811 137.967C137.182 137.967 136.607 137.898 136.088 137.762V140.646H139.561ZM146.314 139.143C146.319 138.555 146.378 138.078 146.492 137.714C146.611 137.349 146.775 137.055 146.984 136.832C147.194 136.609 147.477 136.39 147.832 136.176C148.133 135.993 148.374 135.763 148.557 135.485C148.739 135.203 148.83 134.882 148.83 134.521C148.83 134.221 148.757 133.956 148.611 133.729C148.47 133.496 148.274 133.318 148.023 133.195C147.777 133.068 147.504 133.004 147.203 133.004C146.93 133.004 146.672 133.061 146.431 133.175C146.194 133.284 145.995 133.46 145.836 133.701C145.681 133.938 145.59 134.234 145.562 134.59H144.318C144.341 134.052 144.482 133.585 144.742 133.188C145.002 132.792 145.346 132.489 145.774 132.279C146.203 132.07 146.679 131.965 147.203 131.965C147.764 131.965 148.258 132.079 148.687 132.307C149.115 132.53 149.445 132.84 149.678 133.236C149.915 133.633 150.033 134.079 150.033 134.576C150.033 135.583 149.582 136.363 148.68 136.914C148.388 137.092 148.158 137.276 147.989 137.468C147.825 137.659 147.702 137.887 147.62 138.151C147.543 138.416 147.499 138.746 147.49 139.143V139.211H146.314V139.143ZM146.943 142.082C146.784 142.082 146.636 142.043 146.499 141.966C146.367 141.884 146.26 141.774 146.178 141.638C146.1 141.501 146.064 141.353 146.068 141.193C146.064 141.038 146.1 140.895 146.178 140.763C146.26 140.626 146.367 140.519 146.499 140.441C146.636 140.359 146.784 140.318 146.943 140.318C147.098 140.318 147.242 140.359 147.374 140.441C147.511 140.519 147.618 140.626 147.695 140.763C147.777 140.895 147.818 141.038 147.818 141.193C147.818 141.353 147.777 141.501 147.695 141.638C147.618 141.774 147.511 141.884 147.374 141.966C147.242 142.043 147.098 142.082 146.943 142.082ZM21.6543 152.102L24.375 156.695H24.498L27.2188 152.102H28.6406L25.0586 157.939V162H23.8145V157.939L20.2461 152.102H21.6543ZM37.8555 157.051C37.8555 158.076 37.6686 158.974 37.2949 159.744C36.9212 160.51 36.4017 161.1 35.7363 161.515C35.0755 161.929 34.3236 162.137 33.4805 162.137C32.6328 162.137 31.8786 161.929 31.2178 161.515C30.557 161.1 30.0397 160.51 29.666 159.744C29.2923 158.974 29.1055 158.076 29.1055 157.051C29.1055 156.025 29.2923 155.13 29.666 154.364C30.0397 153.594 30.557 153.002 31.2178 152.587C31.8786 152.172 32.6328 151.965 33.4805 151.965C34.3236 151.965 35.0755 152.172 35.7363 152.587C36.4017 153.002 36.9212 153.594 37.2949 154.364C37.6686 155.13 37.8555 156.025 37.8555 157.051ZM36.666 157.051C36.666 156.221 36.527 155.51 36.249 154.918C35.971 154.326 35.5905 153.877 35.1074 153.571C34.6289 153.266 34.0866 153.113 33.4805 153.113C32.8743 153.113 32.3298 153.266 31.8467 153.571C31.3682 153.877 30.9899 154.326 30.7119 154.918C30.4339 155.51 30.2949 156.221 30.2949 157.051C30.2949 157.88 30.4339 158.591 30.7119 159.184C30.9899 159.776 31.3682 160.225 31.8467 160.53C32.3298 160.836 32.8743 160.988 33.4805 160.988C34.0866 160.988 34.6289 160.836 35.1074 160.53C35.5905 160.225 35.971 159.776 36.249 159.184C36.527 158.591 36.666 157.88 36.666 157.051ZM39.6602 152.102H40.8906V160.906H45.4844V162H39.6602V152.102ZM46.8789 162L50.502 152.102H51.8008L55.4238 162H54.125L53.1338 159.211H49.1553L48.1641 162H46.8789ZM52.7578 158.131L51.1855 153.701H51.1035L49.5312 158.131H52.7578ZM63.2715 153.305C63.2715 153.71 63.3763 154.111 63.5859 154.508C63.8001 154.904 64.0986 155.262 64.4814 155.581C64.8688 155.896 65.3132 156.139 65.8145 156.312L65.3359 157.105C64.7389 156.9 64.2217 156.597 63.7842 156.196C63.3467 155.795 63.014 155.335 62.7861 154.815C62.5628 155.381 62.2324 155.884 61.7949 156.326C61.3574 156.768 60.8424 157.105 60.25 157.338L59.7305 156.518C60.2318 156.326 60.6715 156.06 61.0498 155.718C61.4326 155.376 61.7288 154.995 61.9385 154.576C62.1481 154.157 62.2552 153.733 62.2598 153.305V153.195H60.0176V152.348H62.2598V151.021H63.2715V152.348H65.4727V153.195H63.2715V153.305ZM69.998 157.461H68.9727V154.617H67.3867V157.365H66.3477V151.199H67.3867V153.729H68.9727V150.967H69.998V157.461ZM69.998 160.811H63.0254V162.109H70.4902V162.943H61.959V160.004H68.9453V158.842H61.9316V158.008H69.998V160.811ZM81.7969 159.908H80.7441V150.967H81.7969V159.908ZM82.1523 162.848H73.8262V159.211H74.9062V161.945H82.1523V162.848ZM77.9414 155.342H73.457V157.283C74.6738 157.283 75.7129 157.256 76.5742 157.201C77.4401 157.142 78.3288 157.033 79.2402 156.873L79.3496 157.762C78.4154 157.921 77.5085 158.031 76.6289 158.09C75.7493 158.145 74.6738 158.176 73.4023 158.186H72.418V154.494H76.875V152.703H72.3906V151.828H77.9414V155.342ZM88.2227 154.686C88.2227 155.355 88.3708 156.023 88.667 156.688C88.9632 157.349 89.362 157.939 89.8633 158.459C90.3691 158.974 90.9206 159.361 91.5176 159.621L90.916 160.469C90.2005 160.141 89.5557 159.646 88.9814 158.985C88.4072 158.32 87.9788 157.57 87.6963 156.736C87.4137 157.63 86.9854 158.438 86.4111 159.163C85.8415 159.883 85.2103 160.419 84.5176 160.77L83.875 159.922C84.4492 159.644 84.9847 159.225 85.4814 158.664C85.9827 158.104 86.3838 157.472 86.6846 156.771C86.9854 156.064 87.138 155.369 87.1426 154.686V153.1H84.2715V152.211H91.1211V153.1H88.2227V154.686ZM93.8965 163.107H92.8164V150.953H93.8965V163.107ZM107.09 159.047H102.018V163.107H100.965V159.047H95.9609V158.172H107.09V159.047ZM98.4492 153.141H104.574V151.459H105.654V156.695H97.3828V151.459H98.4492V153.141ZM104.574 155.82V154.016H98.4492V155.82H104.574ZM118.15 163.135H117.084V156.436H114.514V155.547H117.084V150.953H118.15V163.135ZM114.309 152.963H109.715V155.492H113.775V156.367H109.715V159.307C110.877 159.307 111.852 159.282 112.641 159.231C113.434 159.177 114.236 159.079 115.047 158.938L115.17 159.826C114.309 159.967 113.461 160.065 112.627 160.12C111.793 160.17 110.772 160.195 109.564 160.195H108.635V152.074H114.309V152.963ZM133.449 155.082H125.164V151.432H133.326V152.32H126.244V154.221H133.449V155.082ZM134.762 156.955H129.744V158.172H133.34V160.879H126.121V162.109H133.709V162.971H125.055V160.086H132.287V158.992H125.027V158.172H128.691V156.955H123.688V156.066H134.762V156.955ZM145.85 163.135H144.783V156.531H142.418V155.629H144.783V150.953H145.85V163.135ZM141.68 156.34H137.318V159.293C138.462 159.293 139.438 159.268 140.244 159.218C141.051 159.163 141.871 159.056 142.705 158.896L142.787 159.799C141.926 159.954 141.076 160.059 140.237 160.113C139.403 160.168 138.385 160.2 137.182 160.209H136.252V155.451H140.641V152.977H136.211V152.088H141.68V156.34ZM159.016 161.549H147.887V160.66H152.891V158.035H149.199V151.814H150.279V154.016H156.596V151.814H157.648V158.035H153.943V160.66H159.016V161.549ZM156.596 157.16V154.891H150.279V157.16H156.596ZM163.596 154.412C163.596 155.059 163.698 155.706 163.903 156.354C164.108 157.001 164.402 157.591 164.785 158.124C165.173 158.657 165.628 159.079 166.152 159.389L165.537 160.223C164.967 159.876 164.473 159.4 164.054 158.794C163.639 158.183 163.32 157.497 163.097 156.736C162.869 157.557 162.534 158.295 162.092 158.951C161.65 159.607 161.13 160.118 160.533 160.482L159.85 159.676C160.396 159.357 160.875 158.922 161.285 158.37C161.695 157.814 162.01 157.197 162.229 156.518C162.447 155.834 162.557 155.146 162.557 154.453V152.102H163.596V154.412ZM170.404 163.107H169.365V150.953H170.404V163.107ZM167.889 162.492H166.877V156.23H164.812V155.314H166.877V151.213H167.889V162.492ZM183.215 161.549H172.086V160.646H174.848V157.365C174.319 157.092 173.909 156.741 173.617 156.312C173.326 155.88 173.18 155.392 173.18 154.85C173.18 154.23 173.369 153.685 173.747 153.216C174.125 152.742 174.649 152.375 175.319 152.115C175.994 151.855 176.762 151.723 177.623 151.719C178.484 151.723 179.25 151.855 179.92 152.115C180.594 152.375 181.121 152.742 181.499 153.216C181.877 153.685 182.066 154.23 182.066 154.85C182.066 155.383 181.925 155.864 181.643 156.292C181.36 156.716 180.964 157.064 180.453 157.338V160.646H183.215V161.549ZM177.623 152.607C176.962 152.603 176.374 152.694 175.859 152.881C175.344 153.068 174.941 153.332 174.649 153.674C174.362 154.011 174.219 154.403 174.219 154.85C174.219 155.296 174.362 155.693 174.649 156.039C174.941 156.381 175.344 156.647 175.859 156.839C176.374 157.026 176.962 157.119 177.623 157.119C178.279 157.119 178.865 157.023 179.38 156.832C179.895 156.641 180.298 156.374 180.59 156.032C180.882 155.69 181.027 155.296 181.027 154.85C181.027 154.403 180.882 154.011 180.59 153.674C180.298 153.332 179.895 153.068 179.38 152.881C178.865 152.694 178.279 152.603 177.623 152.607ZM179.373 160.646V157.755C178.831 157.896 178.247 157.967 177.623 157.967C176.994 157.967 176.42 157.898 175.9 157.762V160.646H179.373ZM186.059 159.211H184.91L184.814 152.102H186.154L186.059 159.211ZM185.484 162.082C185.325 162.082 185.177 162.043 185.04 161.966C184.908 161.884 184.801 161.774 184.719 161.638C184.641 161.501 184.605 161.353 184.609 161.193C184.605 161.038 184.641 160.895 184.719 160.763C184.801 160.626 184.908 160.519 185.04 160.441C185.177 160.359 185.325 160.318 185.484 160.318C185.639 160.318 185.783 160.359 185.915 160.441C186.052 160.519 186.159 160.626 186.236 160.763C186.318 160.895 186.359 161.038 186.359 161.193C186.359 161.353 186.318 161.501 186.236 161.638C186.159 161.774 186.052 161.884 185.915 161.966C185.783 162.043 185.639 162.082 185.484 162.082Z" fill="#262626"/>
<g clip-path="url(#clip1_2126_65738)">
<path opacity="0.5" d="M313.058 165.624C334.929 165.624 352.66 160.924 352.66 155.126C352.66 149.328 334.929 144.628 313.058 144.628C291.186 144.628 273.456 149.328 273.456 155.126C273.456 160.924 291.186 165.624 313.058 165.624Z" fill="#5E331A"/>
<path d="M286.019 141.396C283.282 138.925 280.404 136.376 276.85 135.425C273.297 134.476 268.882 135.692 267.397 139.078C266.578 140.947 266.777 143.113 267.295 145.089C268.896 151.206 273.546 156.429 279.409 158.701C285.273 160.972 292.201 160.233 297.461 156.775L308.735 146.095L314.697 147.33C312.902 145.369 311.085 143.389 308.889 141.899C306.693 140.408 304.049 139.431 301.415 139.712C298.781 139.993 296.218 141.728 295.437 144.276C294.675 146.758 295.648 149.408 296.619 151.816C298.68 156.929 301.158 162.439 306.063 164.906C309.655 166.711 313.984 166.503 317.795 165.231C321.605 163.959 325.009 161.715 328.364 159.497L330.833 158.111C340.352 158.182 349.58 151.714 352.818 142.702C354.712 137.431 354.658 131.594 353.448 126.122C352.239 120.65 349.926 115.49 347.373 110.508L344.61 107.539L329.858 115.226C327.156 116.749 323.962 117.085 320.867 117.158C317.772 117.232 314.64 117.075 311.613 117.73C308.585 118.386 305.589 120.003 304.117 122.745C302.19 126.334 303.449 131.066 306.326 133.942C309.203 136.816 313.345 138.076 317.389 138.367C322.865 138.763 328.448 137.537 333.263 134.881C336.079 133.329 338.747 131.148 339.886 128.125" fill="white"/>
<path d="M283.965 136.117L294.558 134.991L293.854 113.837L331.521 114.504L308.735 137.997L285.906 143.381L280.804 137.337L283.965 136.117Z" fill="white"/>
<path d="M305.422 116.345C303.67 116.248 290.746 115.115 284.658 107.733C278.569 100.351 276.593 86.6598 281.793 77.1211L283.371 73.9952C282.784 68.9864 282.196 63.9776 281.608 58.9702C281.348 56.7639 281.316 54.0518 283.193 52.8837C284.636 51.9867 286.505 52.498 288.086 53.1125C290.283 53.9671 294.209 55.7539 297.158 57.9348C300.723 60.572 303.005 63.2558 303.005 63.2558C306.23 61.8404 309.916 61.4873 313.432 61.6088L315.001 61.8899C315.001 61.8899 315.234 59.2923 315.992 56.5845C316.772 53.7947 318.092 50.8666 319.153 49.1306C319.833 48.0175 320.686 46.8819 321.932 46.5146C323.662 46.0047 325.385 47.187 326.795 48.317C332.329 52.7551 339.906 66.5978 339.906 66.5978L342.167 68.9454C346.976 73.9867 350.004 80.7159 350.597 87.6797C351.191 94.6434 349.347 101.794 345.463 107.586C345.463 107.586 337.32 118.121 305.422 116.347V116.345Z" fill="white"/>
<path d="M319.083 63.2545C319.358 60.6258 320.313 58.0734 321.828 55.915C322.182 55.4122 322.66 54.8825 323.272 54.9009C323.704 54.9136 324.073 55.2031 324.399 55.4885C327.448 58.1638 329.74 62.7177 330.62 66.6912C330.62 66.6912 328.236 65.5103 324.851 64.3803C321.465 63.2503 319.081 63.2545 319.081 63.2545H319.083Z" fill="#FAC985"/>
<path d="M286.614 71.4216C285.861 68.3818 285.347 65.2828 285.081 62.1625C285.047 61.7628 285.017 61.356 285.113 60.9675C285.208 60.5791 285.451 60.2048 285.82 60.055C286.262 59.8742 286.762 60.0466 287.201 60.233C289.998 61.4238 292.946 63.3971 294.946 65.7009C294.946 65.7009 292.026 67.0837 290.83 68.0428L286.616 71.423L286.614 71.4216Z" fill="#FAC985"/>
<path d="M294.663 134.995C294.628 134.995 294.593 134.992 294.558 134.991C297.868 135.211 301.203 135.036 304.471 134.47L303.215 123.14C301.427 119.583 299.64 116.025 297.852 112.468L297.574 111.947C297.176 111.2 296.448 110.688 295.613 110.57C290.81 110.085 285.954 110.131 281.161 110.704C280.733 110.755 280.318 110.91 279.976 111.174C278.897 112.008 279.316 113.117 279.729 114.049C280.451 115.682 281.174 117.315 281.896 118.947" fill="#94633F"/>
<path d="M290.984 137.352C289.56 138.108 287.804 138.041 286.3 137.464C284.796 136.886 283.512 135.842 282.371 134.696C280.468 132.787 278.853 130.465 278.341 127.809C277.829 125.153 278.602 122.141 280.729 120.489C281.765 119.686 284.835 119.323 287.381 120.885C289.65 122.276 291.439 125.49 292.012 126.697C292.757 128.271 293.908 131.318 293.555 133.692C293.271 135.602 291.624 137.013 290.983 137.353L290.984 137.352Z" fill="white"/>
<path d="M346.059 107.978C350.392 101.457 352.199 93.4018 351.057 85.6429C350.044 78.7568 346.716 72.6251 341.937 67.6657C341.568 67.2815 341.198 66.8987 340.829 66.5145C340.722 66.4029 340.62 66.2829 340.506 66.1798C340.363 66.0484 340.387 66.0032 340.495 66.1939C340.303 65.8492 340.11 65.5046 339.915 65.1613C338.897 63.3717 337.837 61.6032 336.742 59.8616C335.218 57.4405 333.623 55.0618 331.881 52.7933C330.258 50.6788 328.52 48.632 326.352 47.0627C324.706 45.872 322.592 45.0301 320.697 46.1954C319.047 47.2096 318.076 49.197 317.265 50.8921C315.614 54.3485 314.511 58.0648 314.159 61.8899L315.136 61.1413C314.632 61.0509 314.128 60.9421 313.62 60.8701C312.492 60.7091 311.277 60.7995 310.143 60.8701C307.524 61.0311 304.963 61.5467 302.544 62.5863L303.48 62.7078C300.116 58.7655 295.739 55.754 291.08 53.5886C288.812 52.5348 285.824 50.9104 283.305 51.9331C280.787 52.9558 280.481 56.1579 280.728 58.6002C281.097 62.253 281.581 65.8987 282.009 69.5458C282.118 70.4738 282.226 71.4004 282.336 72.3285C282.372 72.6449 282.311 73.3342 282.483 73.58C282.504 73.6096 282.608 73.8822 282.625 73.6308C282.622 73.6718 282.574 73.7141 282.563 73.7537C282.334 74.4967 281.81 75.2453 281.46 75.9389C280.435 77.9687 279.462 79.9857 278.832 82.185C278.058 84.8886 277.696 87.7235 277.734 90.5344C277.818 96.9656 279.994 103.298 284.046 108.286C284.675 109.06 285.762 107.955 285.138 107.187C281.761 103.03 279.788 97.7764 279.366 92.4371C278.952 87.1952 280.025 82.1144 282.421 77.4601C282.741 76.8372 283.053 76.2101 283.369 75.5857C283.684 74.9614 284.087 74.4091 284.045 73.7198C283.94 71.9584 283.63 70.1857 283.425 68.4327C283.22 66.6798 283.011 64.9085 282.804 63.1457C282.612 61.5072 282.372 59.8658 282.239 58.2202C282.146 57.0747 282.1 55.8006 282.56 54.7214C283.725 51.9967 287.183 53.5603 289.118 54.3965C294.127 56.5619 298.815 59.613 302.393 63.8053C302.636 64.0892 303.026 64.0568 303.329 63.9268C305.558 62.9691 307.987 62.5369 310.397 62.4083C311.336 62.3589 312.35 62.277 313.278 62.3801C313.763 62.4338 314.25 62.5538 314.73 62.64C315.256 62.7346 315.658 62.4253 315.707 61.8914C316 58.7061 316.88 55.5562 318.163 52.6351C318.821 51.1407 319.557 49.4767 320.661 48.2535C321.218 47.6362 321.907 47.156 322.767 47.1715C323.728 47.1899 324.613 47.728 325.379 48.2634C327.415 49.6858 329.056 51.6421 330.568 53.597C332.211 55.7215 333.711 57.9589 335.149 60.226C336.263 61.9803 337.336 63.7615 338.371 65.5653C338.855 66.4086 339.238 67.088 339.911 67.7872C341.696 69.6404 343.437 71.488 344.857 73.6534C346.799 76.614 348.222 79.8967 349.051 83.3447C351.009 91.4935 349.352 100.243 344.732 107.195C344.178 108.028 345.515 108.807 346.065 107.979L346.059 107.978Z" fill="#555A60"/>
<path d="M345.658 110.788C348.498 114.017 350.356 117.848 351.547 121.968C352.745 126.117 353.593 130.404 353.445 134.742C353.304 138.897 352.236 142.995 350.025 146.528C348.105 149.593 345.432 152.166 342.353 154.034C338.856 156.154 334.85 157.345 330.762 157.333C329.768 157.331 329.767 158.884 330.762 158.887C338.487 158.907 345.894 154.893 350.443 148.662C352.961 145.213 354.373 141.136 354.836 136.897C355.347 132.226 354.611 127.594 353.45 123.076C352.18 118.135 350.135 113.537 346.751 109.689C346.092 108.939 345.003 110.041 345.66 110.788H345.658Z" fill="#555A60"/>
<path d="M327.902 158.826C323.905 161.469 319.767 164.223 314.991 165.147C312.742 165.582 310.368 165.583 308.159 164.929C306.154 164.336 304.4 163.175 302.959 161.662C300.129 158.687 298.481 154.686 297.01 150.904C296.174 148.757 295.286 146.17 296.317 143.929C297.118 142.188 298.844 141.034 300.665 140.613C303.209 140.025 305.881 140.949 308.025 142.305C310.354 143.778 312.231 145.859 314.08 147.879C314.755 148.616 315.844 147.514 315.172 146.78C311.736 143.027 307.65 138.839 302.181 138.888C299.975 138.908 297.765 139.768 296.22 141.378C294.519 143.153 294.068 145.533 294.489 147.911C294.925 150.378 296.059 152.768 297.069 155.043C297.998 157.136 299.05 159.195 300.424 161.032C301.798 162.87 303.31 164.332 305.232 165.384C307.407 166.574 309.902 167.068 312.364 166.993C318.472 166.809 323.733 163.439 328.681 160.168C329.507 159.621 328.735 158.275 327.902 158.826Z" fill="#555A60"/>
<path d="M311.683 138.245C310.521 138.918 309.359 139.592 308.199 140.264C307.339 140.763 308.115 142.106 308.977 141.606C310.139 140.933 311.301 140.26 312.461 139.587C313.321 139.089 312.546 137.745 311.683 138.245Z" fill="#555A60"/>
<path d="M329.395 114.556C324.079 117.475 317.71 115.827 311.984 116.854C307.172 117.717 302.525 120.94 302.352 126.264C302.184 131.459 305.873 135.667 310.421 137.584C315.435 139.696 321.337 139.625 326.543 138.32C331.996 136.954 338.369 133.928 340.557 128.332C340.92 127.401 339.429 126.997 339.068 127.92C337.273 132.51 331.95 135.082 327.554 136.427C322.785 137.886 317.43 138.203 312.621 136.737C308.213 135.393 304.192 132 303.907 127.082C303.778 124.852 304.565 122.768 306.18 121.227C307.869 119.615 310.135 118.758 312.396 118.353C318.325 117.289 324.643 118.936 330.175 115.898C331.048 115.419 330.269 114.077 329.397 114.556H329.395Z" fill="#555A60"/>
<path d="M310.35 129.878C308.461 130.626 306.921 132.025 306.106 133.915C305.714 134.823 307.043 135.615 307.439 134.699C308.085 133.198 309.234 131.982 310.76 131.376C311.673 131.013 311.276 129.51 310.35 129.878Z" fill="#555A60"/>
<path d="M307.838 123.99C305.627 124.728 303.956 126.339 302.689 128.265C302.139 129.101 303.474 129.879 304.022 129.049C305.056 127.475 306.436 126.092 308.248 125.489C309.186 125.177 308.784 123.675 307.838 123.99Z" fill="#555A60"/>
<path d="M290.526 136.681C287.05 138.41 283.472 135.125 281.451 132.594C279.398 130.024 278.079 126.52 279.461 123.316C279.968 122.142 280.818 121.017 282.1 120.713C283.628 120.353 285.358 120.664 286.715 121.433C288.985 122.723 290.579 125.397 291.577 127.757C292.775 130.595 293.837 134.827 290.526 136.681C289.657 137.167 290.435 138.511 291.304 138.023C292.619 137.287 293.707 135.861 294.118 134.414C294.655 132.519 294.14 130.352 293.52 128.541C292.482 125.511 290.683 122.284 288.023 120.423C286.443 119.319 284.386 118.851 282.483 119.08C280.793 119.284 279.589 120.132 278.651 121.563C276.404 124.999 277.338 129.417 279.542 132.602C282.039 136.208 286.681 140.322 291.304 138.021C292.195 137.577 291.414 136.237 290.526 136.679V136.681Z" fill="#555A60"/>
<path d="M286.493 140.847C283.107 137.792 279.208 134.348 274.387 134.337C272.467 134.333 270.456 134.847 268.89 135.999C267.119 137.303 266.141 139.231 266.015 141.433C265.88 143.795 266.613 146.191 267.547 148.329C268.421 150.329 269.628 152.176 271.068 153.809C274.016 157.155 278.027 159.542 282.399 160.388C287.667 161.409 293.26 160.377 297.778 157.446C298.61 156.906 297.837 155.56 296.999 156.104C289.818 160.762 280.125 160.127 273.76 154.337C270.873 151.71 268.733 148.233 267.849 144.405C267.375 142.347 267.321 139.971 268.725 138.251C269.815 136.913 271.507 136.187 273.182 135.964C278.035 135.317 282.054 138.925 285.401 141.946C286.139 142.611 287.234 141.517 286.493 140.847Z" fill="#555A60"/>
<path d="M275.842 135.962C274.589 137.916 274.791 140.282 276.182 142.093C276.752 142.834 277.744 141.891 277.394 141.15C277.342 141.039 277.289 140.929 277.237 140.817C276.81 139.914 275.48 140.703 275.904 141.601C275.956 141.713 276.009 141.823 276.061 141.934L277.274 140.992C276.301 139.727 276.332 138.058 277.175 136.745C277.715 135.903 276.38 135.123 275.842 135.961V135.962Z" fill="#555A60"/>
<path d="M270.639 136.031C269.564 138.458 269.958 141.243 271.708 143.245C272.366 143.996 273.453 142.894 272.799 142.146C271.546 140.712 271.196 138.566 271.971 136.815C272.373 135.909 271.043 135.118 270.639 136.031Z" fill="#555A60"/>
<path d="M304.796 140.374C303.464 142.07 302.963 144.189 303.471 146.302L304.959 145.89C304.923 145.772 304.885 145.657 304.848 145.539C304.548 144.59 303.057 144.996 303.36 145.952C303.396 146.069 303.434 146.185 303.471 146.302C303.772 147.253 305.194 146.866 304.959 145.89C304.592 144.363 304.913 142.713 305.888 141.473C306.498 140.697 305.412 139.59 304.796 140.374Z" fill="#555A60"/>
<path d="M298.722 140.368C297.663 142.657 297.652 145.175 298.676 147.476L300.009 146.692C299.912 146.528 299.814 146.364 299.717 146.201C299.208 145.343 297.873 146.123 298.384 146.985C298.481 147.148 298.579 147.312 298.676 147.476C299.196 148.353 300.407 147.586 300.009 146.692C299.23 144.943 299.251 142.888 300.055 141.152C300.472 140.251 299.142 139.461 298.722 140.368Z" fill="#555A60"/>
<path d="M291.631 128.92C290.272 128.93 288.968 129.332 287.86 130.126C287.057 130.701 287.828 132.049 288.639 131.468C289.539 130.823 290.523 130.481 291.631 130.474C292.625 130.467 292.626 128.913 291.631 128.92Z" fill="#555A60"/>
<path d="M288.887 122.625C287.091 122.596 285.496 123.452 284.443 124.897C283.856 125.703 285.194 126.48 285.776 125.681C286.505 124.682 287.673 124.158 288.888 124.178C289.882 124.195 289.882 122.641 288.888 122.624L288.887 122.625Z" fill="#555A60"/>
<path d="M345.17 97.6419C341.413 96.7238 337.488 96.8071 333.777 97.9033C332.826 98.1843 333.231 99.6844 334.187 99.4019C337.637 98.3821 341.265 98.286 344.759 99.1406C345.724 99.3765 346.135 97.8792 345.169 97.6419H345.17Z" fill="#555A60"/>
<path d="M344.608 88.2723C340.208 88.5478 335.952 90.0281 332.353 92.5989C331.549 93.1724 332.319 94.5213 333.132 93.9408C336.508 91.5296 340.471 90.086 344.608 89.8261C345.594 89.7639 345.601 88.2102 344.608 88.2723Z" fill="#555A60"/>
<path d="M283.894 97.0346C280.418 96.7295 276.935 96.8919 273.496 97.4809C272.52 97.649 272.934 99.1463 273.906 98.9796C277.206 98.4146 280.559 98.2959 283.893 98.5883C284.882 98.6759 284.877 97.1207 283.893 97.0346H283.894Z" fill="#555A60"/>
<path d="M285.373 102.355C281.901 102.861 278.56 104.019 275.501 105.749C275.007 106.029 274.992 106.816 275.501 107.091L275.731 107.216C276.607 107.687 277.387 106.347 276.51 105.874L276.28 105.749V107.091C279.229 105.424 282.438 104.341 285.784 103.854C286.764 103.711 286.347 102.214 285.375 102.355H285.373Z" fill="#555A60"/>
<path d="M317.454 96.7613C319.035 96.3927 319.936 94.4397 319.467 92.3991C318.997 90.3585 317.335 89.0031 315.754 89.3717C314.174 89.7403 313.273 91.6933 313.742 93.7339C314.212 95.7745 315.874 97.1299 317.454 96.7613Z" fill="#555A60"/>
<path d="M296.357 98.1695C297.937 97.8009 298.838 95.8479 298.369 93.8073C297.899 91.7667 296.237 90.4113 294.657 90.7799C293.076 91.1485 292.175 93.1015 292.644 95.1421C293.114 97.1827 294.776 98.5381 296.357 98.1695Z" fill="#555A60"/>
<path d="M301.881 98.4496C301.881 99.5937 303.215 101.032 304.928 101.032C306.641 101.032 307.949 99.5231 307.949 98.3789C307.949 97.2348 306.601 96.6133 304.887 96.6133C303.174 96.6133 301.881 97.3054 301.881 98.4496Z" fill="#555A60"/>
<path d="M312.16 103.394C311.217 104.367 309.79 104.789 308.488 104.356C307.186 103.922 306.317 102.694 306.12 101.347C305.975 100.361 304.488 100.78 304.631 101.759C304.907 103.639 306.28 105.268 308.077 105.853C309.89 106.443 311.938 105.846 313.25 104.491C313.945 103.775 312.854 102.675 312.158 103.392L312.16 103.394Z" fill="#555A60"/>
<path d="M304.288 101.781C304.723 102.867 304.134 103.887 303.108 104.339C301.993 104.83 300.76 104.586 299.643 104.237C298.692 103.939 298.286 105.439 299.233 105.736C300.873 106.248 302.745 106.435 304.269 105.476C305.623 104.624 306.397 102.918 305.777 101.368C305.411 100.453 303.917 100.853 304.288 101.781Z" fill="#555A60"/>
<path d="M304.196 133.72C300.988 134.264 297.733 134.418 294.488 134.213V135.766L294.593 135.771C295.587 135.805 295.585 134.251 294.593 134.217L294.488 134.213C293.489 134.179 293.503 135.704 294.488 135.766C297.875 135.98 301.261 135.785 304.607 135.218C305.585 135.053 305.17 133.554 304.197 133.72H304.196Z" fill="#555A60"/>
<path d="M303.811 122.749C302.418 119.977 301.026 117.206 299.633 114.435C298.688 112.556 297.936 110.101 295.543 109.794C292.533 109.41 289.428 109.395 286.4 109.511C284.899 109.568 283.399 109.677 281.905 109.837C280.669 109.97 279.343 110.176 278.706 111.413C278.112 112.567 278.692 113.843 279.205 114.905C279.9 116.339 280.802 117.658 281.461 119.11C281.874 120.018 283.204 119.23 282.794 118.326C282.291 117.217 281.654 116.186 281.064 115.124C280.674 114.42 279.832 113.217 279.999 112.35C280.214 111.231 282.169 111.358 282.992 111.285C284.307 111.166 285.626 111.087 286.946 111.047C289.587 110.968 292.231 111.047 294.862 111.285C295.836 111.372 296.466 111.656 296.947 112.546C297.428 113.436 297.894 114.411 298.363 115.344C299.735 118.075 301.107 120.805 302.478 123.534C302.927 124.427 304.259 123.641 303.811 122.75V122.749Z" fill="#555A60"/>
<path d="M305.352 115.569C303.714 115.689 302.115 115.41 300.635 114.686C299.745 114.249 298.962 115.59 299.856 116.028C301.576 116.871 303.439 117.264 305.352 117.122C306.337 117.05 306.344 115.495 305.352 115.569Z" fill="#555A60"/>
<path d="M279.626 152.866C280.8 152.074 280.775 149.966 279.57 148.158C278.366 146.351 276.438 145.529 275.264 146.321C274.09 147.114 274.115 149.222 275.32 151.029C276.524 152.837 278.452 153.659 279.626 152.866Z" fill="#555A60"/>
<path d="M307.099 158.05C308.273 157.257 308.248 155.149 307.043 153.342C305.839 151.535 303.911 150.712 302.737 151.505C301.563 152.298 301.588 154.406 302.793 156.213C303.998 158.02 305.926 158.843 307.099 158.05Z" fill="#555A60"/>
<path d="M282.804 136.356L282.107 136.65C281.913 136.731 281.756 136.816 281.645 137.007C281.549 137.174 281.508 137.419 281.568 137.606C281.629 137.792 281.745 137.974 281.923 138.071C282.101 138.167 282.332 138.227 282.518 138.148L283.215 137.854C283.409 137.772 283.566 137.688 283.677 137.497C283.774 137.33 283.815 137.085 283.754 136.898C283.694 136.712 283.577 136.529 283.399 136.433C283.221 136.337 282.991 136.277 282.804 136.356Z" fill="#555A60"/>
<path d="M295.639 113.955C297.014 116.675 298.389 119.396 299.764 122.116C300.098 122.777 301.077 122.307 300.917 121.626L300.864 121.401C300.677 120.605 299.459 120.942 299.646 121.739L299.699 121.964L300.852 121.474C299.477 118.753 298.102 116.032 296.727 113.312C296.358 112.583 295.27 113.226 295.637 113.953L295.639 113.955Z" fill="#555A60"/>
</g>
<defs>
<clipPath id="clip0_2126_65738">
<rect width="100.802" height="79.9463" fill="white" transform="translate(215 56.4736) rotate(-32.7113)"/>
</clipPath>
<clipPath id="clip1_2126_65738">
<rect width="89" height="121.364" fill="white" transform="translate(266 45.6367)"/>
</clipPath>
</defs>
</svg>
