<svg width="84" height="23" viewBox="0 0 84 23" fill="none" xmlns="http://www.w3.org/2000/svg">
<path d="M65.11 22.259C64.9251 22.6981 64.5288 23 64.0532 23H60.6187L69.707 0.713604C69.892 0.274463 70.2883 0 70.7638 0H73.67C74.1191 0 74.5418 0.274463 74.7004 0.713604L84.0001 23H80.3542C79.905 23 79.4823 22.7255 79.2974 22.2864L77.3687 17.4558C77.1838 17.0167 76.7875 16.7422 76.312 16.7422H69.707L70.8431 13.778C71.0016 13.3389 71.4243 13.037 71.8999 13.037H75.5722L72.7189 5.95585C72.4811 5.37948 71.6885 5.37948 71.4772 5.95585L65.0836 22.259H65.11Z" fill="#F79009"/>
<path d="M50.0228 1.56444V17.7303C50.0228 18.6086 50.7149 19.2948 51.54 19.2948H58.8867V23H47.4142C46.5624 23 45.897 22.2864 45.897 21.4356V1.56444C45.897 0.686158 46.589 0 47.4142 0H48.5056C49.3573 0 50.0228 0.713604 50.0228 1.56444Z" fill="#F79009"/>
<path d="M20.7834 11.5271C20.7834 3.84235 24.4133 0 31.6989 0C38.9846 0 42.4329 3.84235 42.4329 11.5271C42.4329 19.2118 38.8549 23 31.6989 23C24.5429 23 21.1205 19.1847 20.7834 11.5271ZM31.673 19.3471C36.0548 19.3471 38.2327 16.7224 38.2327 11.4459C38.2327 6.16941 36.0548 3.65294 31.673 3.65294C27.2913 3.65294 24.9319 6.25059 24.9319 11.4459C24.9319 16.6412 27.1875 19.3471 31.673 19.3471Z" fill="#F79009"/>
<path d="M0.0534155 0.336508C-0.101975 0.00725626 0.131111 0.00725624 0.131111 0.00725624H3.52381C3.88639 0.00725624 4.19717 0.19932 4.37846 0.528571L9.32506 9.50068C9.71354 10.2141 10.6718 10.1866 11.0344 9.50068L15.6443 0.556009C15.8256 0.226757 16.1623 0.00725624 16.4989 0.00725624H19.5549C19.5549 0.00725624 19.8916 -0.047619 19.9175 0.144444C19.9175 0.336508 19.8139 0.556009 19.6326 0.885261L12.2516 14.7138C12.1739 14.8785 12.1221 15.0431 12.1221 15.2351V21.9574C12.1221 22.5336 11.6818 23 11.138 23H9.09197C8.54811 23 8.10783 22.5336 8.10783 21.9574V15.2626C8.10783 15.0705 8.05604 14.8785 7.97834 14.7413C7.95244 14.7138 0.157009 0.583447 0.0534155 0.336508Z" fill="#F79009"/>
</svg>
