<svg width="1280" height="238" viewBox="0 0 1280 238" fill="none" xmlns="http://www.w3.org/2000/svg">
<g clip-path="url(#clip0_2126_111154)">
<rect width="1280" height="238" fill="#FFBFA9"/>
<g clip-path="url(#clip1_2126_111154)">
<path d="M1040.96 135.734C1048.8 129.616 1049.4 117.228 1042.3 108.066C1035.19 98.9031 1023.08 96.4353 1015.24 102.554C1007.4 108.672 1006.8 121.06 1013.9 130.222C1021.01 139.385 1033.12 141.852 1040.96 135.734Z" fill="#FFA88A"/>
<path d="M1073.13 100.679C1083.44 96.4258 1087.49 82.4633 1082.17 69.4927C1076.85 56.5222 1064.18 49.4552 1053.86 53.7083C1043.55 57.9614 1039.5 71.9239 1044.82 84.8944C1050.14 97.865 1062.81 104.932 1073.13 100.679Z" fill="#FFA88A"/>
<path d="M1138.57 69.3151C1138.36 55.295 1129.14 44.0585 1117.99 44.2177C1106.83 44.377 1097.96 55.8716 1098.17 69.8917C1098.39 83.9118 1107.6 95.1483 1118.76 94.9891C1129.91 94.8298 1138.78 83.3352 1138.57 69.3151Z" fill="#FFA88A"/>
<path d="M1184.77 105.987C1187.26 94.2151 1180.43 82.7808 1169.51 80.4481C1158.6 78.1154 1147.74 85.7676 1145.25 97.5399C1142.76 109.312 1149.59 120.747 1160.51 123.079C1171.42 125.412 1182.28 117.76 1184.77 105.987Z" fill="#FFA88A"/>
<path d="M1093.4 107.804C1093.4 107.804 1071.35 109.853 1059.25 134.737C1047.14 159.62 1042.84 158.815 1044.85 174.746C1046.85 190.677 1064.2 196.481 1085.14 189.383C1106.09 182.286 1105.05 183.429 1116.98 183.179C1128.91 182.93 1142.02 185.52 1152.45 177.275C1162.87 169.031 1165.42 152.924 1151.94 140.453C1143.87 132.996 1133.47 119.371 1120.53 112.25C1111.83 107.469 1100.61 107.203 1093.4 107.799L1093.4 107.804Z" fill="#FFA88A"/>
</g>
<g clip-path="url(#clip2_2126_111154)">
<path d="M797.44 212.279C805.213 209.903 809.293 200.624 806.552 191.554C803.812 182.484 795.29 177.058 787.517 179.434C779.744 181.81 775.664 191.089 778.404 200.159C781.144 209.229 789.667 214.655 797.44 212.279Z" fill="#FFA88A"/>
<path d="M832.243 194.934C841.359 194.706 848.534 185.235 848.267 173.78C848.001 162.325 840.395 153.225 831.278 153.453C822.162 153.682 814.987 163.153 815.254 174.608C815.52 186.062 823.126 195.163 832.243 194.934Z" fill="#FFA88A"/>
<path d="M891.359 190.141C895.297 179.379 891.551 168.109 882.991 164.967C874.432 161.826 864.301 168.004 860.362 178.766C856.424 189.528 860.17 200.798 868.73 203.94C877.289 207.081 887.421 200.903 891.359 190.141Z" fill="#FFA88A"/>
<path d="M915.892 231.641C921.233 223.384 919.364 212.66 911.717 207.688C904.07 202.715 893.542 205.378 888.201 213.635C882.86 221.892 884.729 232.616 892.376 237.588C900.022 242.561 910.551 239.898 915.892 231.641Z" fill="#FFA88A"/>
<path d="M845.628 206.301C845.628 206.301 828.204 201.417 811.688 216.866C795.172 232.316 792.125 230.443 788.996 243.188C785.867 255.932 797.407 265.435 815.469 266.145C833.531 266.856 832.404 267.424 841.58 270.723C850.756 274.021 860.007 279.833 870.373 276.59C880.739 273.347 887.399 261.802 880.755 248.341C876.782 240.291 872.825 226.849 865.034 217.63C859.797 211.438 851.306 207.951 845.632 206.298L845.628 206.301Z" fill="#FFA88A"/>
</g>
<path d="M67.25 150.031H63.4062V158.219H59.4062V139.406H63.4062V146.781H67.25V150.031ZM55.6875 141.562C55.6875 144.104 55.1667 146.401 54.125 148.453C53.0833 150.495 51.5573 152.245 49.5469 153.703C47.5469 155.161 45.1146 156.292 42.25 157.094L40.5938 153.875C43.7604 153.021 46.2552 151.802 48.0781 150.219C49.9115 148.635 50.9896 146.812 51.3125 144.75H42.1562V141.562H55.6875ZM56.3125 157.094C56.3125 158.219 56.651 159.297 57.3281 160.328C58.0052 161.349 59.0208 162.24 60.375 163C61.7292 163.75 63.375 164.271 65.3125 164.562L63.7188 167.719C61.5312 167.354 59.6354 166.693 58.0312 165.734C56.4375 164.776 55.2031 163.589 54.3281 162.172C53.4427 163.589 52.2031 164.776 50.6094 165.734C49.0156 166.703 47.125 167.375 44.9375 167.75L43.3125 164.594C45.2396 164.302 46.8802 163.781 48.2344 163.031C49.599 162.281 50.625 161.391 51.3125 160.359C52 159.328 52.3438 158.24 52.3438 157.094V156.219H56.3125V157.094ZM77.5938 144.5C77.5938 145.562 77.7812 146.583 78.1562 147.562C78.5417 148.531 79.1354 149.411 79.9375 150.203C80.7396 150.984 81.75 151.604 82.9688 152.062L80.8438 155.094C79.6667 154.646 78.651 154.021 77.7969 153.219C76.9427 152.417 76.25 151.474 75.7188 150.391C75.1771 151.672 74.4479 152.797 73.5312 153.766C72.625 154.724 71.5312 155.469 70.25 156L68.0938 152.938C69.375 152.375 70.4323 151.646 71.2656 150.75C72.1094 149.844 72.7292 148.854 73.125 147.781C73.5208 146.708 73.7188 145.615 73.7188 144.5V141.156H77.5938V144.5ZM92.9375 156.844H89.1562V149.625H86.7812V155.969H83.0625V139.969H86.7812V146.406H89.1562V139.469H92.9375V156.844ZM83.2188 157.25C85.2083 157.25 86.9427 157.464 88.4219 157.891C89.9115 158.318 91.0573 158.932 91.8594 159.734C92.6719 160.526 93.0833 161.469 93.0938 162.562C93.0833 163.656 92.6719 164.599 91.8594 165.391C91.0573 166.193 89.9115 166.807 88.4219 167.234C86.9427 167.661 85.2083 167.875 83.2188 167.875C81.2188 167.875 79.4792 167.661 78 167.234C76.5208 166.807 75.3802 166.193 74.5781 165.391C73.776 164.599 73.375 163.656 73.375 162.562C73.375 161.469 73.776 160.526 74.5781 159.734C75.3802 158.932 76.5208 158.318 78 157.891C79.4792 157.464 81.2188 157.25 83.2188 157.25ZM83.2188 160.219C81.3438 160.219 79.8958 160.422 78.875 160.828C77.8646 161.224 77.3646 161.802 77.375 162.562C77.3646 163.323 77.8646 163.901 78.875 164.297C79.8854 164.682 81.3333 164.875 83.2188 164.875C85.0833 164.875 86.5208 164.682 87.5312 164.297C88.5521 163.901 89.0625 163.323 89.0625 162.562C89.0625 161.802 88.5521 161.224 87.5312 160.828C86.5208 160.422 85.0833 160.219 83.2188 160.219ZM113.969 142.219C113.958 143.417 114.188 144.547 114.656 145.609C115.125 146.661 115.849 147.589 116.828 148.391C117.807 149.193 119.031 149.802 120.5 150.219L118.469 153.312C116.948 152.854 115.646 152.177 114.562 151.281C113.49 150.375 112.641 149.297 112.016 148.047C111.37 149.464 110.469 150.688 109.312 151.719C108.156 152.74 106.76 153.51 105.125 154.031L103.156 150.875C104.667 150.406 105.927 149.74 106.938 148.875C107.958 148 108.714 147 109.203 145.875C109.703 144.74 109.958 143.531 109.969 142.25V140.438H113.969V142.219ZM126.094 145H129.938V148.25H126.094V154.062H122.094V139.438H126.094V145ZM126.094 162.75H111.188V164.531H126.906V167.688H107.281V159.906H122.125V158.219H107.219V155.156H126.094V162.75ZM155.094 167.875H151.062V139.438H155.094V167.875ZM146.562 142.406C146.562 145.448 146.151 148.214 145.328 150.703C144.516 153.193 143.141 155.479 141.203 157.562C139.266 159.635 136.656 161.448 133.375 163L131.281 159.812C133.708 158.667 135.708 157.391 137.281 155.984C138.865 154.578 140.073 153.021 140.906 151.312C141.75 149.594 142.281 147.667 142.5 145.531H132.812V142.406H146.562ZM179.562 145.25H175.188C175.229 146.031 175.453 146.792 175.859 147.531C176.266 148.271 176.854 148.943 177.625 149.547C178.406 150.141 179.354 150.615 180.469 150.969L178.781 153.875C177.51 153.5 176.417 152.943 175.5 152.203C174.583 151.464 173.859 150.594 173.328 149.594C172.786 150.688 172.062 151.651 171.156 152.484C170.25 153.307 169.167 153.938 167.906 154.375L166.156 151.406C167.24 151 168.167 150.469 168.938 149.812C169.719 149.146 170.312 148.422 170.719 147.641C171.135 146.849 171.365 146.052 171.406 145.25H167V142.125H171.406V139.531H175.188V142.125H179.562V145.25ZM190.656 154.375H186.875V148.5H184.594V154.188H180.844V139.969H184.594V145.344H186.875V139.469H190.656V154.375ZM190.656 162.844H175.188V164.625H191.625V167.562H171.219V159.969H186.719V158.406H171.188V155.406H190.656V162.844ZM217.656 160.406H213.688V139.469H217.656V160.406ZM218.406 167.375H198.531V158.656H202.5V164.188H218.406V167.375ZM208.531 150.375H199.281V153.531C202.021 153.521 204.271 153.458 206.031 153.344C207.792 153.229 209.542 153 211.281 152.656L211.719 155.844C209.75 156.219 207.75 156.469 205.719 156.594C203.698 156.719 201.083 156.781 197.875 156.781H195.375V147.438H204.562V144.5H195.344V141.312H208.531V150.375ZM232.562 147.188C232.562 148.76 232.828 150.307 233.359 151.828C233.901 153.339 234.708 154.698 235.781 155.906C236.854 157.115 238.156 158.042 239.688 158.688L237.531 161.812C235.896 161.125 234.495 160.115 233.328 158.781C232.161 157.448 231.245 155.891 230.578 154.109C229.922 156.047 229 157.75 227.812 159.219C226.625 160.677 225.219 161.781 223.594 162.531L221.312 159.375C222.833 158.698 224.13 157.714 225.203 156.422C226.286 155.13 227.099 153.682 227.641 152.078C228.193 150.464 228.469 148.833 228.469 147.188V145.438H222.438V142.188H238.5V145.438H232.562V147.188ZM245.344 167.875H241.312V139.438H245.344V167.875Z" fill="#262626"/>
<path d="M41.8906 188.688L45 193.938H45.1406L48.25 188.688H49.875L45.7812 195.359V200H44.3594V195.359L40.2812 188.688H41.8906ZM60.4062 194.344C60.4062 195.516 60.1927 196.542 59.7656 197.422C59.3385 198.297 58.7448 198.971 57.9844 199.445C57.2292 199.919 56.3698 200.156 55.4062 200.156C54.4375 200.156 53.5755 199.919 52.8203 199.445C52.0651 198.971 51.474 198.297 51.0469 197.422C50.6198 196.542 50.4062 195.516 50.4062 194.344C50.4062 193.172 50.6198 192.148 51.0469 191.273C51.474 190.393 52.0651 189.716 52.8203 189.242C53.5755 188.768 54.4375 188.531 55.4062 188.531C56.3698 188.531 57.2292 188.768 57.9844 189.242C58.7448 189.716 59.3385 190.393 59.7656 191.273C60.1927 192.148 60.4062 193.172 60.4062 194.344ZM59.0469 194.344C59.0469 193.396 58.888 192.583 58.5703 191.906C58.2526 191.229 57.8177 190.716 57.2656 190.367C56.7188 190.018 56.099 189.844 55.4062 189.844C54.7135 189.844 54.0911 190.018 53.5391 190.367C52.9922 190.716 52.5599 191.229 52.2422 191.906C51.9245 192.583 51.7656 193.396 51.7656 194.344C51.7656 195.292 51.9245 196.104 52.2422 196.781C52.5599 197.458 52.9922 197.971 53.5391 198.32C54.0911 198.669 54.7135 198.844 55.4062 198.844C56.099 198.844 56.7188 198.669 57.2656 198.32C57.8177 197.971 58.2526 197.458 58.5703 196.781C58.888 196.104 59.0469 195.292 59.0469 194.344ZM62.4688 188.688H63.875V198.75H69.125V200H62.4688V188.688ZM70.7188 200L74.8594 188.688H76.3438L80.4844 200H79L77.8672 196.812H73.3203L72.1875 200H70.7188ZM77.4375 195.578L75.6406 190.516H75.5469L73.75 195.578H77.4375ZM92.0781 193.031H94.3281V194.062H92.0781V201.266H90.8594V187.375H92.0781V193.031ZM88.4844 188.875C88.4844 190.943 87.9661 192.818 86.9297 194.5C85.8932 196.177 84.2865 197.552 82.1094 198.625L81.4219 197.656C83.2083 196.766 84.5911 195.667 85.5703 194.359C86.5495 193.047 87.1094 191.562 87.25 189.906H82.0625V188.875H88.4844ZM110.688 201.297H109.453V193.984H106.406V192.969H109.453V187.375H110.688V201.297ZM103.969 191.906C103.969 192.656 104.125 193.396 104.438 194.125C104.755 194.849 105.19 195.495 105.742 196.062C106.294 196.63 106.911 197.068 107.594 197.375L106.891 198.328C106.099 197.964 105.393 197.422 104.773 196.703C104.154 195.984 103.69 195.169 103.383 194.258C103.081 195.227 102.622 196.094 102.008 196.859C101.393 197.625 100.693 198.198 99.9062 198.578L99.2031 197.625C99.875 197.307 100.482 196.852 101.023 196.258C101.565 195.659 101.99 194.979 102.297 194.219C102.609 193.458 102.766 192.688 102.766 191.906V190.797H99.5781V189.797H102.766V187.641H103.984V189.797H107.125V190.797H103.969V191.906ZM119.328 187.688C120.333 187.688 121.203 187.792 121.938 188C122.677 188.208 123.245 188.51 123.641 188.906C124.036 189.302 124.234 189.776 124.234 190.328C124.234 190.87 124.036 191.336 123.641 191.727C123.245 192.112 122.677 192.409 121.938 192.617C121.203 192.82 120.333 192.922 119.328 192.922C118.323 192.922 117.451 192.82 116.711 192.617C115.971 192.409 115.401 192.112 115 191.727C114.604 191.336 114.406 190.87 114.406 190.328C114.406 189.776 114.604 189.302 115 188.906C115.401 188.51 115.971 188.208 116.711 188C117.451 187.792 118.323 187.688 119.328 187.688ZM119.328 188.672C118.583 188.672 117.935 188.74 117.383 188.875C116.831 189.005 116.406 189.195 116.109 189.445C115.812 189.695 115.667 189.99 115.672 190.328C115.667 190.661 115.81 190.951 116.102 191.195C116.398 191.435 116.823 191.62 117.375 191.75C117.927 191.88 118.578 191.948 119.328 191.953C120.068 191.948 120.711 191.88 121.258 191.75C121.81 191.62 122.234 191.435 122.531 191.195C122.833 190.951 122.984 190.661 122.984 190.328C122.984 189.99 122.833 189.695 122.531 189.445C122.234 189.195 121.81 189.005 121.258 188.875C120.706 188.74 120.062 188.672 119.328 188.672ZM124.109 201.078H114.547V196.516H124.109V201.078ZM115.766 200.078H122.906V197.5H115.766V200.078ZM125.656 195.141H113V194.125H125.656V195.141ZM138.281 201.297H137.047V187.375H138.281V201.297ZM130.891 188.453C131.578 188.458 132.19 188.661 132.727 189.062C133.263 189.458 133.682 190.021 133.984 190.75C134.286 191.479 134.438 192.328 134.438 193.297C134.438 194.266 134.286 195.115 133.984 195.844C133.682 196.573 133.263 197.135 132.727 197.531C132.19 197.927 131.578 198.125 130.891 198.125C130.203 198.125 129.589 197.927 129.047 197.531C128.51 197.135 128.091 196.573 127.789 195.844C127.492 195.115 127.344 194.266 127.344 193.297C127.344 192.328 127.492 191.479 127.789 190.75C128.091 190.021 128.51 189.458 129.047 189.062C129.583 188.661 130.198 188.458 130.891 188.453ZM130.891 189.547C130.427 189.552 130.016 189.711 129.656 190.023C129.302 190.331 129.026 190.768 128.828 191.336C128.63 191.898 128.531 192.552 128.531 193.297C128.531 194.042 128.63 194.698 128.828 195.266C129.026 195.828 129.305 196.263 129.664 196.57C130.023 196.878 130.432 197.031 130.891 197.031C131.349 197.031 131.758 196.878 132.117 196.57C132.477 196.263 132.755 195.828 132.953 195.266C133.151 194.698 133.25 194.042 133.25 193.297C133.25 192.552 133.151 191.898 132.953 191.336C132.755 190.768 132.477 190.331 132.117 190.023C131.763 189.711 131.354 189.552 130.891 189.547ZM152.125 197.578H150.906V187.391H152.125V197.578ZM152.562 200.969H143.156V196.641H144.375V199.938H152.562V200.969ZM145.578 189.562C145.573 190.255 145.716 190.919 146.008 191.555C146.305 192.19 146.719 192.75 147.25 193.234C147.786 193.714 148.396 194.078 149.078 194.328L148.438 195.312C147.635 195.005 146.932 194.552 146.328 193.953C145.724 193.349 145.268 192.646 144.961 191.844C144.654 192.698 144.195 193.451 143.586 194.102C142.982 194.753 142.276 195.24 141.469 195.562L140.797 194.609C141.49 194.344 142.104 193.953 142.641 193.438C143.177 192.922 143.591 192.328 143.883 191.656C144.18 190.984 144.328 190.286 144.328 189.562V188.172H145.578V189.562ZM165.234 193.031H167.484V194.062H165.234V201.266H164.016V187.375H165.234V193.031ZM161.641 188.875C161.641 190.943 161.122 192.818 160.086 194.5C159.049 196.177 157.443 197.552 155.266 198.625L154.578 197.656C156.365 196.766 157.747 195.667 158.727 194.359C159.706 193.047 160.266 191.562 160.406 189.906H155.219V188.875H161.641ZM181.031 199.484H168.312V198.453H171.469V194.703C170.865 194.391 170.396 193.99 170.062 193.5C169.729 193.005 169.562 192.448 169.562 191.828C169.562 191.12 169.779 190.497 170.211 189.961C170.643 189.419 171.242 189 172.008 188.703C172.779 188.406 173.656 188.255 174.641 188.25C175.625 188.255 176.5 188.406 177.266 188.703C178.036 189 178.638 189.419 179.07 189.961C179.503 190.497 179.719 191.12 179.719 191.828C179.719 192.438 179.557 192.987 179.234 193.477C178.911 193.961 178.458 194.359 177.875 194.672V198.453H181.031V199.484ZM174.641 189.266C173.885 189.26 173.214 189.365 172.625 189.578C172.036 189.792 171.576 190.094 171.242 190.484C170.914 190.87 170.75 191.318 170.75 191.828C170.75 192.339 170.914 192.792 171.242 193.188C171.576 193.578 172.036 193.883 172.625 194.102C173.214 194.315 173.885 194.422 174.641 194.422C175.391 194.422 176.06 194.312 176.648 194.094C177.237 193.875 177.698 193.57 178.031 193.18C178.365 192.789 178.531 192.339 178.531 191.828C178.531 191.318 178.365 190.87 178.031 190.484C177.698 190.094 177.237 189.792 176.648 189.578C176.06 189.365 175.391 189.26 174.641 189.266ZM176.641 198.453V195.148C176.021 195.31 175.354 195.391 174.641 195.391C173.922 195.391 173.266 195.312 172.672 195.156V198.453H176.641ZM184.359 196.734C184.365 196.062 184.432 195.518 184.562 195.102C184.698 194.685 184.885 194.349 185.125 194.094C185.365 193.839 185.688 193.589 186.094 193.344C186.438 193.135 186.714 192.872 186.922 192.555C187.13 192.232 187.234 191.865 187.234 191.453C187.234 191.109 187.151 190.807 186.984 190.547C186.823 190.281 186.599 190.078 186.312 189.938C186.031 189.792 185.719 189.719 185.375 189.719C185.062 189.719 184.768 189.784 184.492 189.914C184.221 190.039 183.995 190.24 183.812 190.516C183.635 190.786 183.531 191.125 183.5 191.531H182.078C182.104 190.917 182.266 190.383 182.562 189.93C182.859 189.477 183.253 189.13 183.742 188.891C184.232 188.651 184.776 188.531 185.375 188.531C186.016 188.531 186.581 188.661 187.07 188.922C187.56 189.177 187.938 189.531 188.203 189.984C188.474 190.438 188.609 190.948 188.609 191.516C188.609 192.667 188.094 193.557 187.062 194.188C186.729 194.391 186.466 194.602 186.273 194.82C186.086 195.039 185.945 195.299 185.852 195.602C185.763 195.904 185.714 196.281 185.703 196.734V196.812H184.359V196.734ZM185.078 200.094C184.896 200.094 184.727 200.049 184.57 199.961C184.419 199.867 184.297 199.742 184.203 199.586C184.115 199.43 184.073 199.26 184.078 199.078C184.073 198.901 184.115 198.737 184.203 198.586C184.297 198.43 184.419 198.307 184.57 198.219C184.727 198.125 184.896 198.078 185.078 198.078C185.255 198.078 185.419 198.125 185.57 198.219C185.727 198.307 185.849 198.43 185.938 198.586C186.031 198.737 186.078 198.901 186.078 199.078C186.078 199.26 186.031 199.43 185.938 199.586C185.849 199.742 185.727 199.867 185.57 199.961C185.419 200.049 185.255 200.094 185.078 200.094ZM195.156 188.688L198.266 193.938H198.406L201.516 188.688H203.141L199.047 195.359V200H197.625V195.359L193.547 188.688H195.156ZM213.672 194.344C213.672 195.516 213.458 196.542 213.031 197.422C212.604 198.297 212.01 198.971 211.25 199.445C210.495 199.919 209.635 200.156 208.672 200.156C207.703 200.156 206.841 199.919 206.086 199.445C205.331 198.971 204.74 198.297 204.312 197.422C203.885 196.542 203.672 195.516 203.672 194.344C203.672 193.172 203.885 192.148 204.312 191.273C204.74 190.393 205.331 189.716 206.086 189.242C206.841 188.768 207.703 188.531 208.672 188.531C209.635 188.531 210.495 188.768 211.25 189.242C212.01 189.716 212.604 190.393 213.031 191.273C213.458 192.148 213.672 193.172 213.672 194.344ZM212.312 194.344C212.312 193.396 212.154 192.583 211.836 191.906C211.518 191.229 211.083 190.716 210.531 190.367C209.984 190.018 209.365 189.844 208.672 189.844C207.979 189.844 207.357 190.018 206.805 190.367C206.258 190.716 205.826 191.229 205.508 191.906C205.19 192.583 205.031 193.396 205.031 194.344C205.031 195.292 205.19 196.104 205.508 196.781C205.826 197.458 206.258 197.971 206.805 198.32C207.357 198.669 207.979 198.844 208.672 198.844C209.365 198.844 209.984 198.669 210.531 198.32C211.083 197.971 211.518 197.458 211.836 196.781C212.154 196.104 212.312 195.292 212.312 194.344ZM215.734 188.688H217.141V198.75H222.391V200H215.734V188.688ZM223.984 200L228.125 188.688H229.609L233.75 200H232.266L231.133 196.812H226.586L225.453 200H223.984ZM230.703 195.578L228.906 190.516H228.812L227.016 195.578H230.703ZM242.719 190.062C242.719 190.526 242.839 190.984 243.078 191.438C243.323 191.891 243.664 192.299 244.102 192.664C244.544 193.023 245.052 193.302 245.625 193.5L245.078 194.406C244.396 194.172 243.805 193.826 243.305 193.367C242.805 192.909 242.424 192.383 242.164 191.789C241.909 192.435 241.531 193.01 241.031 193.516C240.531 194.021 239.943 194.406 239.266 194.672L238.672 193.734C239.245 193.516 239.747 193.211 240.18 192.82C240.617 192.43 240.956 191.995 241.195 191.516C241.435 191.036 241.557 190.552 241.562 190.062V189.938H239V188.969H241.562V187.453H242.719V188.969H245.234V189.938H242.719V190.062ZM250.406 194.812H249.234V191.562H247.422V194.703H246.234V187.656H247.422V190.547H249.234V187.391H250.406V194.812ZM250.406 198.641H242.438V200.125H250.969V201.078H241.219V197.719H249.203V196.391H241.188V195.438H250.406V198.641ZM263.891 197.609H262.688V187.391H263.891V197.609ZM264.297 200.969H254.781V196.812H256.016V199.938H264.297V200.969ZM259.484 192.391H254.359V194.609C255.75 194.609 256.938 194.578 257.922 194.516C258.911 194.448 259.927 194.323 260.969 194.141L261.094 195.156C260.026 195.339 258.99 195.464 257.984 195.531C256.979 195.594 255.75 195.63 254.297 195.641H253.172V191.422H258.266V189.375H253.141V188.375H259.484V192.391ZM271.234 191.641C271.234 192.406 271.404 193.169 271.742 193.93C272.081 194.685 272.536 195.359 273.109 195.953C273.688 196.542 274.318 196.984 275 197.281L274.312 198.25C273.495 197.875 272.758 197.31 272.102 196.555C271.445 195.794 270.956 194.938 270.633 193.984C270.31 195.005 269.82 195.93 269.164 196.758C268.513 197.581 267.792 198.193 267 198.594L266.266 197.625C266.922 197.307 267.534 196.828 268.102 196.188C268.674 195.547 269.133 194.826 269.477 194.023C269.82 193.216 269.995 192.422 270 191.641V189.828H266.719V188.812H274.547V189.828H271.234V191.641ZM277.719 201.266H276.484V187.375H277.719V201.266ZM292.797 196.625H287V201.266H285.797V196.625H280.078V195.625H292.797V196.625ZM282.922 189.875H289.922V187.953H291.156V193.938H281.703V187.953H282.922V189.875ZM289.922 192.938V190.875H282.922V192.938H289.922ZM305.438 201.297H304.219V193.641H301.281V192.625H304.219V187.375H305.438V201.297ZM301.047 189.672H295.797V192.562H300.438V193.562H295.797V196.922C297.125 196.922 298.24 196.893 299.141 196.836C300.047 196.773 300.964 196.661 301.891 196.5L302.031 197.516C301.047 197.677 300.078 197.789 299.125 197.852C298.172 197.909 297.005 197.938 295.625 197.938H294.562V188.656H301.047V189.672ZM322.922 192.094H313.453V187.922H322.781V188.938H314.688V191.109H322.922V192.094ZM324.422 194.234H318.688V195.625H322.797V198.719H314.547V200.125H323.219V201.109H313.328V197.812H321.594V196.562H313.297V195.625H317.484V194.234H311.766V193.219H324.422V194.234ZM337.094 201.297H335.875V193.75H333.172V192.719H335.875V187.375H337.094V201.297ZM332.328 193.531H327.344V196.906C328.651 196.906 329.766 196.878 330.688 196.82C331.609 196.758 332.547 196.635 333.5 196.453L333.594 197.484C332.609 197.661 331.638 197.781 330.68 197.844C329.727 197.906 328.562 197.943 327.188 197.953H326.125V192.516H331.141V189.688H326.078V188.672H332.328V193.531ZM352.141 199.484H339.422V198.469H345.141V195.469H340.922V188.359H342.156V190.875H349.375V188.359H350.578V195.469H346.344V198.469H352.141V199.484ZM349.375 194.469V191.875H342.156V194.469H349.375ZM357.375 191.328C357.375 192.068 357.492 192.807 357.727 193.547C357.961 194.286 358.297 194.961 358.734 195.57C359.177 196.18 359.698 196.661 360.297 197.016L359.594 197.969C358.943 197.573 358.378 197.029 357.898 196.336C357.424 195.638 357.06 194.854 356.805 193.984C356.544 194.922 356.161 195.766 355.656 196.516C355.151 197.266 354.557 197.849 353.875 198.266L353.094 197.344C353.719 196.979 354.266 196.482 354.734 195.852C355.203 195.216 355.562 194.51 355.812 193.734C356.062 192.953 356.188 192.167 356.188 191.375V188.688H357.375V191.328ZM365.156 201.266H363.969V187.375H365.156V201.266ZM362.281 200.562H361.125V193.406H358.766V192.359H361.125V187.672H362.281V200.562ZM379.797 199.484H367.078V198.453H370.234V194.703C369.63 194.391 369.161 193.99 368.828 193.5C368.495 193.005 368.328 192.448 368.328 191.828C368.328 191.12 368.544 190.497 368.977 189.961C369.409 189.419 370.008 189 370.773 188.703C371.544 188.406 372.422 188.255 373.406 188.25C374.391 188.255 375.266 188.406 376.031 188.703C376.802 189 377.404 189.419 377.836 189.961C378.268 190.497 378.484 191.12 378.484 191.828C378.484 192.438 378.323 192.987 378 193.477C377.677 193.961 377.224 194.359 376.641 194.672V198.453H379.797V199.484ZM373.406 189.266C372.651 189.26 371.979 189.365 371.391 189.578C370.802 189.792 370.341 190.094 370.008 190.484C369.68 190.87 369.516 191.318 369.516 191.828C369.516 192.339 369.68 192.792 370.008 193.188C370.341 193.578 370.802 193.883 371.391 194.102C371.979 194.315 372.651 194.422 373.406 194.422C374.156 194.422 374.826 194.312 375.414 194.094C376.003 193.875 376.464 193.57 376.797 193.18C377.13 192.789 377.297 192.339 377.297 191.828C377.297 191.318 377.13 190.87 376.797 190.484C376.464 190.094 376.003 189.792 375.414 189.578C374.826 189.365 374.156 189.26 373.406 189.266ZM375.406 198.453V195.148C374.786 195.31 374.12 195.391 373.406 195.391C372.688 195.391 372.031 195.312 371.438 195.156V198.453H375.406ZM383.047 196.812H381.734L381.625 188.688H383.156L383.047 196.812ZM382.391 200.094C382.208 200.094 382.039 200.049 381.883 199.961C381.732 199.867 381.609 199.742 381.516 199.586C381.427 199.43 381.385 199.26 381.391 199.078C381.385 198.901 381.427 198.737 381.516 198.586C381.609 198.43 381.732 198.307 381.883 198.219C382.039 198.125 382.208 198.078 382.391 198.078C382.568 198.078 382.732 198.125 382.883 198.219C383.039 198.307 383.161 198.43 383.25 198.586C383.344 198.737 383.391 198.901 383.391 199.078C383.391 199.26 383.344 199.43 383.25 199.586C383.161 199.742 383.039 199.867 382.883 199.961C382.732 200.049 382.568 200.094 382.391 200.094Z" fill="#262626"/>
<g clip-path="url(#clip3_2126_111154)">
<path opacity="0.5" d="M1059.95 213.842C1093.87 213.842 1121.37 206.601 1121.37 197.67C1121.37 188.738 1093.87 181.498 1059.95 181.498C1026.03 181.498 998.537 188.738 998.537 197.67C998.537 206.601 1026.03 213.842 1059.95 213.842Z" fill="#5E331A"/>
<path d="M1018.02 176.518C1013.77 172.713 1009.31 168.785 1003.8 167.321C998.289 165.858 991.442 167.732 989.139 172.948C987.869 175.827 988.178 179.165 988.98 182.209C991.463 191.631 998.674 199.678 1007.77 203.176C1016.86 206.675 1027.61 205.537 1035.76 200.211L1053.25 183.758L1062.49 185.66C1059.71 182.64 1056.89 179.589 1053.49 177.293C1050.08 174.997 1045.98 173.492 1041.9 173.925C1037.81 174.358 1033.84 177.03 1032.62 180.955C1031.44 184.779 1032.95 188.861 1034.46 192.571C1037.66 200.448 1041.5 208.936 1049.11 212.736C1054.68 215.517 1061.39 215.197 1067.3 213.236C1073.21 211.278 1078.49 207.82 1083.69 204.404L1087.52 202.269C1102.28 202.378 1116.59 192.414 1121.62 178.531C1124.55 170.411 1124.47 161.419 1122.59 152.99C1120.72 144.56 1117.13 136.611 1113.17 128.936L1108.89 124.362L1086.01 136.204C1081.82 138.55 1076.86 139.068 1072.06 139.181C1067.26 139.294 1062.41 139.052 1057.71 140.062C1053.02 141.072 1048.37 143.563 1046.09 147.787C1043.1 153.316 1045.05 160.606 1049.51 165.036C1053.97 169.464 1060.4 171.405 1066.67 171.853C1075.16 172.462 1083.82 170.574 1091.29 166.483C1095.66 164.091 1099.79 160.732 1101.56 156.075" fill="white"/>
<path d="M1014.83 168.384L1031.26 166.65L1030.17 134.062L1088.59 135.09L1053.25 171.281L1017.84 179.575L1009.93 170.264L1014.83 168.384Z" fill="white"/>
<path d="M1048.11 137.927C1045.39 137.777 1025.35 136.032 1015.91 124.66C1006.47 113.289 1003.4 92.1967 1011.47 77.5023L1013.91 72.6868C1013 64.9708 1012.09 57.2547 1011.18 49.5409C1010.78 46.142 1010.73 41.9641 1013.64 40.1646C1015.87 38.7828 1018.77 39.5705 1021.23 40.5171C1024.63 41.8335 1030.72 44.5862 1035.3 47.9459C1040.82 52.0084 1044.36 56.1428 1044.36 56.1428C1049.37 53.9625 1055.08 53.4185 1060.53 53.6056L1062.97 54.0386C1062.97 54.0386 1063.33 50.037 1064.5 45.8656C1065.71 41.5681 1067.76 37.0572 1069.41 34.383C1070.46 32.6683 1071.78 30.9188 1073.72 30.353C1076.4 29.5675 1079.07 31.3888 1081.26 33.1296C1089.84 39.9665 1101.59 61.2912 1101.59 61.2912L1105.1 64.9077C1112.56 72.6738 1117.25 83.0402 1118.17 93.7678C1119.09 104.495 1116.23 115.51 1110.21 124.434C1110.21 124.434 1097.58 140.662 1048.11 137.929V137.927Z" fill="white"/>
<path d="M1069.3 56.141C1069.72 52.0915 1071.21 48.1595 1073.56 44.8346C1074.1 44.0599 1074.85 43.2439 1075.79 43.2722C1076.46 43.2918 1077.04 43.7379 1077.54 44.1774C1082.27 48.2987 1085.83 55.3141 1087.19 61.4351C1087.19 61.4351 1083.49 59.616 1078.24 57.8752C1072.99 56.1344 1069.29 56.141 1069.29 56.141H1069.3Z" fill="#FAC985"/>
<path d="M1018.94 68.7218C1017.77 64.0391 1016.98 59.265 1016.56 54.4582C1016.51 53.8424 1016.47 53.2157 1016.61 52.6173C1016.76 52.0189 1017.14 51.4423 1017.71 51.2116C1018.4 50.9331 1019.17 51.1986 1019.85 51.4858C1024.19 53.3202 1028.76 56.36 1031.86 59.9091C1031.86 59.9091 1027.33 62.0393 1025.48 63.5168L1018.94 68.724L1018.94 68.7218Z" fill="#FAC985"/>
<path d="M1031.42 166.657C1031.37 166.657 1031.32 166.653 1031.26 166.65C1036.39 166.99 1041.57 166.72 1046.64 165.847L1044.69 148.394C1041.92 142.915 1039.14 137.433 1036.37 131.954L1035.94 131.151C1035.32 130 1034.19 129.213 1032.9 129.03C1025.45 128.283 1017.92 128.353 1010.49 129.237C1009.82 129.315 1009.18 129.554 1008.65 129.961C1006.97 131.245 1007.62 132.953 1008.26 134.389C1009.38 136.905 1010.5 139.42 1011.63 141.936" fill="#94633F"/>
<path d="M1025.72 170.288C1023.51 171.452 1020.79 171.35 1018.45 170.46C1016.12 169.57 1014.13 167.962 1012.36 166.197C1009.41 163.255 1006.91 159.678 1006.11 155.587C1005.32 151.496 1006.52 146.855 1009.82 144.311C1011.42 143.073 1016.18 142.514 1020.13 144.921C1023.65 147.064 1026.43 152.014 1027.31 153.875C1028.47 156.299 1030.26 160.992 1029.71 164.65C1029.27 167.592 1026.71 169.766 1025.72 170.29L1025.72 170.288Z" fill="white"/>
<path d="M1111.14 125.037C1117.85 114.992 1120.66 102.583 1118.89 90.6299C1117.31 80.022 1112.15 70.576 1104.74 62.9361C1104.17 62.3443 1103.6 61.7546 1103.02 61.1627C1102.86 60.9908 1102.7 60.8059 1102.52 60.647C1102.3 60.4446 1102.34 60.375 1102.51 60.6688C1102.21 60.1378 1101.91 59.6069 1101.61 59.0781C1100.03 56.3212 1098.38 53.5968 1096.68 50.9138C1094.32 47.1842 1091.85 43.5198 1089.15 40.0252C1086.63 36.7677 1083.93 33.6147 1080.57 31.1972C1078.02 29.3629 1074.74 28.066 1071.8 29.8612C1069.24 31.4235 1067.74 34.4851 1066.48 37.0963C1063.92 42.421 1062.21 48.146 1061.66 54.0385L1063.18 52.8853C1062.4 52.746 1061.61 52.5785 1060.83 52.4675C1059.08 52.2194 1057.19 52.3587 1055.43 52.4675C1051.37 52.7155 1047.4 53.5098 1043.65 55.1113L1045.1 55.2984C1039.88 49.2253 1033.1 44.5861 1025.87 41.2503C1022.35 39.627 1017.72 37.1246 1013.81 38.7C1009.91 40.2754 1009.43 45.2084 1009.81 48.9707C1010.39 54.5978 1011.14 60.214 1011.8 65.8324C1011.97 67.262 1012.14 68.6895 1012.31 70.1191C1012.36 70.6065 1012.27 71.6684 1012.54 72.047C1012.57 72.0927 1012.73 72.5127 1012.76 72.1253C1012.75 72.1884 1012.68 72.2537 1012.66 72.3146C1012.31 73.4592 1011.49 74.6125 1010.95 75.6809C1009.36 78.8078 1007.85 81.9151 1006.87 85.3031C1005.67 89.4679 1005.11 93.8351 1005.17 98.1653C1005.3 108.073 1008.68 117.828 1014.96 125.511C1015.94 126.703 1017.62 125.002 1016.65 123.818C1011.42 117.414 1008.36 109.322 1007.7 101.096C1007.06 93.0213 1008.72 85.1943 1012.44 78.0244C1012.94 77.0648 1013.42 76.0987 1013.91 75.1369C1014.4 74.1751 1015.02 73.3243 1014.96 72.2624C1014.8 69.549 1014.31 66.8181 1014 64.1177C1013.68 61.4173 1013.36 58.6886 1013.04 55.973C1012.74 53.4489 1012.36 50.9204 1012.16 48.3853C1012.01 46.6206 1011.94 44.6579 1012.66 42.9954C1014.46 38.7979 1019.83 41.2068 1022.83 42.4949C1030.6 45.8307 1037.87 50.5309 1043.41 56.9892C1043.79 57.4266 1044.4 57.3765 1044.87 57.1763C1048.32 55.701 1052.09 55.0351 1055.83 54.8371C1057.28 54.761 1058.86 54.6348 1060.3 54.7936C1061.05 54.8763 1061.8 55.0613 1062.55 55.194C1063.36 55.3398 1063.99 54.8632 1064.06 54.0407C1064.52 49.1339 1065.88 44.2814 1067.87 39.7815C1068.89 37.4793 1070.03 34.916 1071.75 33.0316C1072.61 32.0807 1073.68 31.3408 1075.01 31.3648C1076.5 31.3931 1077.88 32.2221 1079.06 33.0468C1082.22 35.238 1084.76 38.2518 1087.11 41.2633C1089.66 44.536 1091.98 47.9828 1094.21 51.4752C1095.94 54.1778 1097.61 56.9217 1099.21 59.7005C1099.96 60.9995 1100.56 62.0462 1101.6 63.1233C1104.37 65.9782 1107.07 68.8244 1109.27 72.1602C1112.28 76.721 1114.49 81.778 1115.77 87.0896C1118.81 99.6428 1116.24 113.121 1109.08 123.831C1108.22 125.115 1110.29 126.314 1111.14 125.039L1111.14 125.037Z" fill="#555A60"/>
<path d="M1110.51 129.366C1114.92 134.34 1117.8 140.242 1119.65 146.589C1121.5 152.98 1122.82 159.584 1122.59 166.266C1122.37 172.668 1120.71 178.981 1117.28 184.423C1114.31 189.145 1110.16 193.109 1105.39 195.986C1099.96 199.252 1093.75 201.087 1087.41 201.069C1085.87 201.065 1085.87 203.458 1087.41 203.463C1099.39 203.493 1110.88 197.309 1117.93 187.711C1121.84 182.397 1124.03 176.117 1124.75 169.587C1125.54 162.391 1124.4 155.256 1122.6 148.295C1120.63 140.683 1117.46 133.601 1112.21 127.673C1111.18 126.518 1109.5 128.215 1110.51 129.366H1110.51Z" fill="#555A60"/>
<path d="M1082.97 203.368C1076.78 207.439 1070.36 211.682 1062.95 213.106C1059.46 213.776 1055.78 213.778 1052.36 212.77C1049.25 211.857 1046.53 210.068 1044.29 207.737C1039.9 203.155 1037.35 196.99 1035.07 191.165C1033.77 187.858 1032.39 183.871 1033.99 180.42C1035.23 177.737 1037.91 175.959 1040.73 175.311C1044.68 174.406 1048.82 175.829 1052.15 177.918C1055.76 180.187 1058.67 183.392 1061.54 186.504C1062.59 187.64 1064.27 185.943 1063.23 184.811C1057.9 179.03 1051.57 172.578 1043.08 172.654C1039.66 172.684 1036.24 174.01 1033.84 176.49C1031.2 179.223 1030.5 182.89 1031.16 186.554C1031.83 190.353 1033.59 194.035 1035.16 197.541C1036.6 200.766 1038.23 203.936 1040.36 206.767C1042.49 209.598 1044.84 211.85 1047.82 213.471C1051.19 215.303 1055.06 216.065 1058.88 215.95C1068.35 215.667 1076.51 210.475 1084.18 205.435C1085.46 204.593 1084.27 202.519 1082.97 203.368Z" fill="#555A60"/>
<path d="M1057.82 171.664C1056.02 172.7 1054.22 173.738 1052.42 174.774C1051.08 175.542 1052.29 177.611 1053.63 176.841C1055.43 175.805 1057.23 174.767 1059.03 173.731C1060.36 172.963 1059.16 170.894 1057.82 171.664Z" fill="#555A60"/>
<path d="M1085.29 135.17C1077.05 139.668 1067.17 137.129 1058.29 138.711C1050.82 140.04 1043.62 145.006 1043.35 153.207C1043.09 161.21 1048.81 167.693 1055.86 170.645C1063.64 173.898 1072.79 173.79 1080.87 171.779C1089.32 169.675 1099.21 165.014 1102.6 156.393C1103.16 154.959 1100.85 154.336 1100.29 155.757C1097.51 162.829 1089.25 166.792 1082.44 168.863C1075.04 171.111 1066.73 171.598 1059.28 169.34C1052.44 167.27 1046.2 162.044 1045.76 154.467C1045.56 151.031 1046.78 147.821 1049.29 145.447C1051.91 142.965 1055.42 141.644 1058.93 141.019C1068.12 139.381 1077.92 141.918 1086.5 137.237C1087.85 136.5 1086.65 134.433 1085.29 135.17H1085.29Z" fill="#555A60"/>
<path d="M1055.75 158.774C1052.82 159.927 1050.44 162.081 1049.17 164.993C1048.56 166.392 1050.62 167.613 1051.24 166.201C1052.24 163.89 1054.02 162.016 1056.39 161.083C1057.81 160.523 1057.19 158.208 1055.75 158.774Z" fill="#555A60"/>
<path d="M1051.86 149.704C1048.43 150.84 1045.84 153.323 1043.87 156.289C1043.02 157.577 1045.09 158.776 1045.94 157.496C1047.54 155.072 1049.68 152.942 1052.49 152.013C1053.95 151.532 1053.32 149.219 1051.86 149.704Z" fill="#555A60"/>
<path d="M1025.01 169.255C1019.62 171.918 1014.07 166.857 1010.94 162.958C1007.75 159 1005.71 153.601 1007.85 148.666C1008.64 146.858 1009.95 145.123 1011.94 144.655C1014.31 144.101 1017 144.579 1019.1 145.765C1022.62 147.752 1025.09 151.871 1026.64 155.507C1028.5 159.879 1030.14 166.398 1025.01 169.255C1023.66 170.004 1024.87 172.073 1026.22 171.322C1028.26 170.188 1029.94 167.991 1030.58 165.763C1031.41 162.842 1030.61 159.504 1029.65 156.715C1028.04 152.047 1025.25 147.075 1021.13 144.209C1018.68 142.508 1015.49 141.788 1012.54 142.14C1009.91 142.453 1008.05 143.761 1006.59 145.965C1003.11 151.257 1004.56 158.064 1007.98 162.971C1011.85 168.526 1019.05 174.862 1026.22 171.318C1027.6 170.635 1026.39 168.57 1025.01 169.251V169.255Z" fill="#555A60"/>
<path d="M1018.76 175.674C1013.5 170.967 1007.46 165.662 999.981 165.645C997.002 165.638 993.884 166.43 991.455 168.206C988.709 170.214 987.192 173.184 986.997 176.577C986.788 180.215 987.923 183.905 989.373 187.2C990.728 190.281 992.6 193.125 994.832 195.641C999.404 200.795 1005.63 204.473 1012.41 205.776C1020.58 207.35 1029.25 205.759 1036.26 201.244C1037.55 200.412 1036.35 198.339 1035.05 199.177C1023.91 206.353 1008.88 205.374 999.008 196.454C994.53 192.407 991.211 187.052 989.841 181.155C989.105 177.985 989.022 174.325 991.198 171.674C992.889 169.614 995.513 168.495 998.111 168.151C1005.64 167.155 1011.87 172.712 1017.06 177.367C1018.21 178.392 1019.9 176.705 1018.76 175.674Z" fill="#555A60"/>
<path d="M1002.24 168.146C1000.3 171.156 1000.61 174.801 1002.76 177.59C1003.65 178.733 1005.19 177.279 1004.64 176.139C1004.56 175.967 1004.48 175.797 1004.4 175.625C1003.74 174.235 1001.68 175.449 1002.33 176.833C1002.41 177.005 1002.5 177.175 1002.58 177.346L1004.46 175.895C1002.95 173.945 1003 171.376 1004.31 169.352C1005.14 168.055 1003.07 166.854 1002.24 168.144V168.146Z" fill="#555A60"/>
<path d="M994.167 168.255C992.5 171.993 993.111 176.284 995.825 179.367C996.845 180.525 998.532 178.828 997.518 177.674C995.574 175.466 995.03 172.16 996.234 169.462C996.856 168.067 994.793 166.849 994.167 168.255Z" fill="#555A60"/>
<path d="M1047.14 174.944C1045.07 177.557 1044.3 180.821 1045.09 184.076L1047.39 183.441C1047.34 183.26 1047.28 183.082 1047.22 182.901C1046.76 181.439 1044.44 182.064 1044.91 183.537C1044.97 183.717 1045.03 183.896 1045.09 184.076C1045.55 185.541 1047.76 184.945 1047.39 183.441C1046.82 181.089 1047.32 178.547 1048.83 176.637C1049.78 175.442 1048.1 173.736 1047.14 174.944Z" fill="#555A60"/>
<path d="M1037.72 174.934C1036.08 178.459 1036.06 182.339 1037.65 185.884L1039.72 184.676C1039.57 184.423 1039.41 184.171 1039.26 183.919C1038.47 182.598 1036.4 183.799 1037.2 185.126C1037.35 185.379 1037.5 185.631 1037.65 185.884C1038.46 187.235 1040.33 186.053 1039.72 184.676C1038.51 181.982 1038.54 178.816 1039.79 176.142C1040.43 174.753 1038.37 173.537 1037.72 174.934Z" fill="#555A60"/>
<path d="M1026.72 157.301C1024.62 157.316 1022.59 157.936 1020.88 159.159C1019.63 160.045 1020.83 162.121 1022.08 161.226C1023.48 160.232 1025.01 159.705 1026.72 159.694C1028.27 159.684 1028.27 157.29 1026.72 157.301Z" fill="#555A60"/>
<path d="M1022.47 147.602C1019.68 147.556 1017.21 148.875 1015.58 151.101C1014.66 152.343 1016.74 153.54 1017.64 152.308C1018.77 150.77 1020.59 149.963 1022.47 149.993C1024.01 150.019 1024.01 147.626 1022.47 147.6L1022.47 147.602Z" fill="#555A60"/>
<path d="M1109.75 109.115C1103.93 107.701 1097.84 107.829 1092.09 109.518C1090.61 109.951 1091.24 112.262 1092.72 111.827C1098.07 110.256 1103.7 110.108 1109.12 111.424C1110.61 111.787 1111.25 109.481 1109.75 109.115H1109.75Z" fill="#555A60"/>
<path d="M1108.88 94.6815C1102.06 95.1058 1095.46 97.3863 1089.88 101.347C1088.63 102.23 1089.83 104.308 1091.09 103.414C1096.32 99.6993 1102.47 97.4755 1108.88 97.0751C1110.41 96.9793 1110.42 94.5858 1108.88 94.6815Z" fill="#555A60"/>
<path d="M1014.73 108.18C1009.33 107.71 1003.93 107.96 998.599 108.867C997.085 109.126 997.727 111.433 999.235 111.176C1004.35 110.305 1009.55 110.123 1014.72 110.573C1016.26 110.708 1016.25 108.312 1014.72 108.18H1014.73Z" fill="#555A60"/>
<path d="M1017.02 116.376C1011.63 117.155 1006.45 118.939 1001.71 121.605C1000.94 122.036 1000.92 123.248 1001.71 123.672L1002.07 123.863C1003.42 124.59 1004.63 122.525 1003.27 121.796L1002.92 121.605V123.672C1007.49 121.104 1012.47 119.435 1017.66 118.685C1019.18 118.465 1018.53 116.158 1017.02 116.376H1017.02Z" fill="#555A60"/>
<path d="M1066.77 107.758C1069.22 107.19 1070.62 104.182 1069.89 101.038C1069.16 97.8945 1066.59 95.8065 1064.14 96.3743C1061.68 96.9421 1060.29 99.9507 1061.01 103.094C1061.74 106.238 1064.32 108.326 1066.77 107.758Z" fill="#555A60"/>
<path d="M1034.05 109.927C1036.5 109.359 1037.9 106.35 1037.17 103.207C1036.44 100.063 1033.87 97.9754 1031.42 98.5432C1028.96 99.111 1027.57 102.12 1028.29 105.263C1029.02 108.407 1031.6 110.495 1034.05 109.927Z" fill="#555A60"/>
<path d="M1042.62 110.359C1042.62 112.122 1044.69 114.337 1047.35 114.337C1050 114.337 1052.03 112.013 1052.03 110.25C1052.03 108.488 1049.94 107.53 1047.28 107.53C1044.63 107.53 1042.62 108.597 1042.62 110.359Z" fill="#555A60"/>
<path d="M1058.56 117.976C1057.1 119.475 1054.89 120.126 1052.87 119.458C1050.85 118.79 1049.5 116.899 1049.19 114.823C1048.97 113.304 1046.66 113.95 1046.88 115.458C1047.31 118.354 1049.44 120.863 1052.23 121.764C1055.04 122.674 1058.22 121.753 1060.25 119.667C1061.33 118.563 1059.64 116.868 1058.56 117.974L1058.56 117.976Z" fill="#555A60"/>
<path d="M1046.35 115.489C1047.03 117.163 1046.11 118.734 1044.52 119.43C1042.79 120.187 1040.88 119.811 1039.15 119.273C1037.67 118.814 1037.04 121.125 1038.51 121.582C1041.06 122.372 1043.96 122.659 1046.32 121.182C1048.42 119.87 1049.62 117.241 1048.66 114.854C1048.09 113.444 1045.78 114.06 1046.35 115.489Z" fill="#555A60"/>
<path d="M1046.21 164.693C1041.24 165.531 1036.19 165.768 1031.15 165.453V167.846L1031.32 167.853C1032.86 167.905 1032.86 165.512 1031.32 165.459L1031.15 165.453C1029.6 165.401 1029.63 167.751 1031.15 167.846C1036.41 168.175 1041.66 167.875 1046.85 167.002C1048.36 166.748 1047.72 164.439 1046.21 164.693H1046.21Z" fill="#555A60"/>
<path d="M1045.61 147.792C1043.45 143.522 1041.29 139.253 1039.13 134.984C1037.67 132.09 1036.5 128.308 1032.79 127.836C1028.12 127.244 1023.31 127.22 1018.61 127.398C1016.28 127.487 1013.96 127.655 1011.64 127.901C1009.72 128.105 1007.67 128.423 1006.68 130.329C1005.76 132.107 1006.66 134.072 1007.45 135.708C1008.53 137.917 1009.93 139.949 1010.95 142.186C1011.59 143.585 1013.65 142.371 1013.02 140.979C1012.24 139.27 1011.25 137.682 1010.34 136.046C1009.73 134.962 1008.43 133.108 1008.68 131.772C1009.02 130.049 1012.05 130.244 1013.33 130.131C1015.36 129.948 1017.41 129.827 1019.46 129.766C1023.55 129.644 1027.65 129.766 1031.73 130.131C1033.24 130.266 1034.22 130.704 1034.97 132.074C1035.71 133.445 1036.44 134.947 1037.16 136.385C1039.29 140.591 1041.42 144.797 1043.55 149.001C1044.24 150.377 1046.31 149.167 1045.61 147.794V147.792Z" fill="#555A60"/>
<path d="M1048 136.731C1045.46 136.916 1042.98 136.487 1040.69 135.371C1039.31 134.699 1038.09 136.764 1039.48 137.438C1042.15 138.737 1045.04 139.342 1048 139.125C1049.53 139.014 1049.54 136.618 1048 136.731Z" fill="#555A60"/>
<path d="M1008.1 194.189C1009.93 192.967 1009.89 189.72 1008.02 186.936C1006.15 184.152 1003.16 182.885 1001.34 184.106C999.52 185.327 999.558 188.574 1001.43 191.359C1003.29 194.143 1006.28 195.41 1008.1 194.189Z" fill="#555A60"/>
<path d="M1050.71 202.174C1052.53 200.953 1052.49 197.706 1050.63 194.921C1048.76 192.137 1045.77 190.87 1043.95 192.091C1042.13 193.313 1042.17 196.56 1044.03 199.344C1045.9 202.128 1048.89 203.395 1050.71 202.174Z" fill="#555A60"/>
<path d="M1013.03 168.753L1011.95 169.206C1011.65 169.332 1011.41 169.463 1011.24 169.756C1011.09 170.013 1011.02 170.392 1011.12 170.679C1011.21 170.966 1011.39 171.247 1011.67 171.395C1011.94 171.543 1012.3 171.637 1012.59 171.515L1013.67 171.062C1013.97 170.936 1014.22 170.805 1014.39 170.512C1014.54 170.255 1014.6 169.876 1014.51 169.589C1014.41 169.302 1014.23 169.021 1013.96 168.873C1013.68 168.725 1013.32 168.631 1013.03 168.753Z" fill="#555A60"/>
<path d="M1032.94 134.246C1035.07 138.437 1037.2 142.628 1039.34 146.819C1039.85 147.837 1041.37 147.113 1041.12 146.064L1041.04 145.718C1040.75 144.49 1038.86 145.011 1039.15 146.238L1039.24 146.584L1041.02 145.829C1038.89 141.638 1036.76 137.447 1034.63 133.256C1034.05 132.133 1032.37 133.123 1032.94 134.244L1032.94 134.246Z" fill="#555A60"/>
</g>
<g clip-path="url(#clip4_2126_111154)">
<path d="M566.384 66.5651C574.872 67.3595 582.529 59.9852 583.488 50.0941C584.446 40.2029 578.342 31.5405 569.854 30.7461C561.366 29.9516 553.709 37.326 552.75 47.2171C551.792 57.1082 557.896 65.7706 566.384 66.5651Z" fill="#FFA88A"/>
<path d="M607.062 63.6167C615.996 67.03 626.733 60.703 631.042 49.4848C635.351 38.2666 631.601 26.4053 622.666 22.992C613.731 19.5786 602.995 25.9057 598.686 37.1239C594.377 48.3421 598.127 60.2033 607.062 63.6167Z" fill="#FFA88A"/>
<path d="M666.321 82.5388C674.432 73.6693 675.292 61.242 668.241 54.7818C661.19 48.3216 648.899 50.2748 640.787 59.1443C632.675 68.0139 631.815 80.4411 638.866 86.9013C645.917 93.3616 658.209 91.4084 666.321 82.5388Z" fill="#FFA88A"/>
<path d="M673.571 132.579C682.044 126.699 684.508 115.55 679.072 107.678C673.637 99.8051 662.362 98.1898 653.889 104.07C645.415 109.95 642.952 121.099 648.387 128.971C653.822 136.844 665.097 138.459 673.571 132.579Z" fill="#FFA88A"/>
<path d="M615.513 79.9799C615.513 79.9799 600.558 68.2946 578.376 76.6961C556.193 85.0977 553.984 82.0663 545.867 93.182C537.75 104.298 545.155 118.117 562.394 126.009C579.633 133.9 578.312 134.002 585.898 140.861C593.485 147.719 600.142 157.046 611.491 158.034C622.84 159.021 633.904 150.477 632.826 134.769C632.182 125.376 633.703 110.758 629.821 98.7083C627.21 90.6135 620.363 83.845 615.518 79.979L615.513 79.9799Z" fill="#FFA88A"/>
</g>
</g>
<defs>
<clipPath id="clip0_2126_111154">
<rect width="1280" height="238" fill="white"/>
</clipPath>
<clipPath id="clip1_2126_111154">
<rect width="177.157" height="140.504" fill="white" transform="translate(1001 60.2695) rotate(-7.87395)"/>
</clipPath>
<clipPath id="clip2_2126_111154">
<rect width="144.788" height="114.832" fill="white" transform="translate(789.019 143) rotate(13.0959)"/>
</clipPath>
<clipPath id="clip3_2126_111154">
<rect width="138.027" height="186.961" fill="white" transform="translate(986.973 29)"/>
</clipPath>
<clipPath id="clip4_2126_111154">
<rect width="151.859" height="120.44" fill="white" transform="translate(585.838 -4) rotate(35.4405)"/>
</clipPath>
</defs>
</svg>
