<svg width="1280" height="238" viewBox="0 0 1280 238" fill="none" xmlns="http://www.w3.org/2000/svg">
<g clip-path="url(#clip0_2126_111109)">
<rect width="1280" height="238" fill="#D8EFF7"/>
<path d="M57 144.281H51.3438C51.3542 145.438 51.5938 146.552 52.0625 147.625C52.5417 148.688 53.276 149.646 54.2656 150.5C55.2552 151.354 56.4896 152.021 57.9688 152.5L55.9375 155.594C54.3958 155.104 53.0729 154.38 51.9688 153.422C50.875 152.453 50.0104 151.312 49.375 150C48.7188 151.438 47.8177 152.677 46.6719 153.719C45.526 154.76 44.1458 155.542 42.5312 156.062L40.4062 153C41.9167 152.51 43.1823 151.812 44.2031 150.906C45.2344 150 46.0052 148.979 46.5156 147.844C47.026 146.698 47.2917 145.51 47.3125 144.281H41.5V141.094H57V144.281ZM63.4062 146.344H67.25V149.656H63.4062V156.594H59.4062V139.438H63.4062V146.344ZM63.4062 167.875H59.4062V160.969H44.25V157.812H63.4062V167.875ZM79.5312 147.188C79.5312 148.76 79.7969 150.307 80.3281 151.828C80.8698 153.339 81.6771 154.698 82.75 155.906C83.8229 157.115 85.125 158.042 86.6562 158.688L84.5 161.812C82.8646 161.125 81.4635 160.115 80.2969 158.781C79.1302 157.448 78.2135 155.891 77.5469 154.109C76.8906 156.047 75.9688 157.75 74.7812 159.219C73.5938 160.677 72.1875 161.781 70.5625 162.531L68.2812 159.375C69.8021 158.698 71.099 157.714 72.1719 156.422C73.2552 155.13 74.0677 153.682 74.6094 152.078C75.1615 150.464 75.4375 148.833 75.4375 147.188V145.438H69.4062V142.188H85.4688V145.438H79.5312V147.188ZM92.3125 167.875H88.2812V139.438H92.3125V167.875ZM110.656 155.438H97V141.781H110.656V155.438ZM100.938 152.312H106.719V144.969H100.938V152.312ZM118.719 147.625H122.562V150.906H118.719V160.188H114.719V139.438H118.719V147.625ZM119.75 167.375H100.281V158.156H104.25V164.188H119.75V167.375ZM157.125 157.344H131.125V154.219H157.125V157.344ZM153.938 167.875H149.906V162.375H134.062V159.219H153.938V167.875ZM154.344 152.438H134.375V140.062H154.094V143.156H138.375V144.75H153.438V147.688H138.375V149.406H154.344V152.438ZM182.812 154.062H178.844V151.219H173.594V153.25H160.062V140.656H164.062V143.969H169.656V140.656H173.594V143.062H178.844V139.438H182.812V154.062ZM182.812 162.719H167.906V164.438H183.656V167.562H163.906V159.812H178.844V158.188H163.875V155.125H182.812V162.719ZM169.656 150.125V147H164.062V150.125H169.656ZM178.844 148.219V146.031H173.594V148.219H178.844ZM209.062 148.188H212.906V151.438H209.062V160.688H205.062V139.469H209.062V148.188ZM203.375 145.594H186.5V142.438H192.969V139.406H196.938V142.438H203.375V145.594ZM194.938 146.594C196.302 146.594 197.51 146.823 198.562 147.281C199.625 147.74 200.453 148.385 201.047 149.219C201.641 150.052 201.938 151.01 201.938 152.094C201.938 153.177 201.641 154.13 201.047 154.953C200.464 155.766 199.641 156.401 198.578 156.859C197.516 157.307 196.302 157.531 194.938 157.531C193.562 157.531 192.339 157.307 191.266 156.859C190.203 156.401 189.37 155.766 188.766 154.953C188.172 154.13 187.875 153.177 187.875 152.094C187.875 151.01 188.172 150.052 188.766 149.219C189.37 148.385 190.203 147.74 191.266 147.281C192.339 146.823 193.562 146.594 194.938 146.594ZM194.938 149.625C193.969 149.646 193.198 149.87 192.625 150.297C192.052 150.724 191.771 151.323 191.781 152.094C191.771 152.865 192.047 153.458 192.609 153.875C193.182 154.292 193.958 154.5 194.938 154.5C195.917 154.5 196.698 154.292 197.281 153.875C197.865 153.448 198.156 152.854 198.156 152.094C198.156 151.323 197.865 150.724 197.281 150.297C196.698 149.87 195.917 149.646 194.938 149.625ZM210.094 167.375H190.625V159.062H194.594V164.188H210.094V167.375ZM236.688 161.094H222.938V142H236.688V161.094ZM226.938 157.938H232.812V145.125H226.938V157.938ZM245.344 167.938H241.312V139.438H245.344V167.938ZM259.844 144.344C259.844 145.708 260.073 147.01 260.531 148.25C260.99 149.49 261.698 150.599 262.656 151.578C263.625 152.557 264.833 153.312 266.281 153.844L264.062 156.938C262.604 156.365 261.354 155.547 260.312 154.484C259.281 153.422 258.464 152.172 257.859 150.734C257.224 152.266 256.349 153.594 255.234 154.719C254.12 155.833 252.771 156.688 251.188 157.281L249.062 154.156C250.562 153.625 251.818 152.859 252.828 151.859C253.839 150.849 254.589 149.703 255.078 148.422C255.568 147.13 255.812 145.771 255.812 144.344V141.062H259.844V144.344ZM273.156 160.562H269.188V151.875H264.312V148.656H269.188V146.375H264.312V143.156H269.188V139.469H273.156V160.562ZM273.75 167.375H254.219V158.531H258.25V164.188H273.75V167.375Z" fill="#262626"/>
<path d="M46.8906 188.281C47.8698 188.286 48.7448 188.44 49.5156 188.742C50.2865 189.044 50.888 189.471 51.3203 190.023C51.7526 190.57 51.9688 191.203 51.9688 191.922C51.9688 192.599 51.7786 193.201 51.3984 193.727C51.0234 194.253 50.4974 194.672 49.8203 194.984C49.1432 195.297 48.3646 195.482 47.4844 195.539V198.453H53.2812V199.484H40.5625V198.453H46.2812V195.539C45.4062 195.482 44.6302 195.297 43.9531 194.984C43.276 194.667 42.75 194.247 42.375 193.727C42 193.201 41.8125 192.599 41.8125 191.922C41.8125 191.203 42.0286 190.57 42.4609 190.023C42.8932 189.471 43.4948 189.044 44.2656 188.742C45.0365 188.44 45.9115 188.286 46.8906 188.281ZM46.8906 189.297C46.1458 189.297 45.4766 189.409 44.8828 189.633C44.2943 189.852 43.8333 190.161 43.5 190.562C43.1667 190.958 43 191.411 43 191.922C43 192.448 43.1667 192.911 43.5 193.312C43.8333 193.714 44.2943 194.023 44.8828 194.242C45.4714 194.461 46.1406 194.573 46.8906 194.578C47.6406 194.573 48.3099 194.461 48.8984 194.242C49.487 194.023 49.9479 193.714 50.2812 193.312C50.6146 192.911 50.7812 192.448 50.7812 191.922C50.7812 191.411 50.6146 190.958 50.2812 190.562C49.9479 190.161 49.4844 189.852 48.8906 189.633C48.3021 189.409 47.6354 189.297 46.8906 189.297ZM65.5938 191.734H56.1094V187.609H57.3125V190.719H65.5938V191.734ZM67.0938 194.109H54.375V193.109H67.0938V194.109ZM65.4531 198.609H57.2344V200.094H65.9531V201.078H56V197.672H64.25V196.328H55.9688V195.359H65.4531V198.609ZM82.9844 193.109H85.3125V194.125H82.9844V201.266H81.7656V187.375H82.9844V193.109ZM80.4219 190.625H72.1562V189.609H75.7344V187.547H76.9531V189.609H80.4219V190.625ZM76.3594 191.781C77.0104 191.781 77.5938 191.917 78.1094 192.188C78.625 192.458 79.0286 192.836 79.3203 193.32C79.612 193.805 79.7604 194.354 79.7656 194.969C79.7604 195.583 79.612 196.133 79.3203 196.617C79.0286 197.102 78.625 197.479 78.1094 197.75C77.5938 198.021 77.0104 198.156 76.3594 198.156C75.7031 198.156 75.1146 198.021 74.5938 197.75C74.0781 197.479 73.6745 197.102 73.3828 196.617C73.0911 196.133 72.9479 195.583 72.9531 194.969C72.9479 194.354 73.0911 193.805 73.3828 193.32C73.6745 192.836 74.0781 192.458 74.5938 192.188C75.1146 191.917 75.7031 191.781 76.3594 191.781ZM76.3594 192.812C75.9323 192.812 75.5469 192.906 75.2031 193.094C74.8646 193.276 74.599 193.531 74.4062 193.859C74.2135 194.188 74.1198 194.557 74.125 194.969C74.1198 195.385 74.2135 195.758 74.4062 196.086C74.599 196.409 74.8646 196.661 75.2031 196.844C75.5469 197.026 75.9323 197.115 76.3594 197.109C76.7812 197.115 77.1615 197.026 77.5 196.844C77.8385 196.661 78.1042 196.409 78.2969 196.086C78.4896 195.758 78.5885 195.385 78.5938 194.969C78.5885 194.557 78.4896 194.188 78.2969 193.859C78.1042 193.531 77.8385 193.276 77.5 193.094C77.1615 192.906 76.7812 192.812 76.3594 192.812ZM97.2188 191.547H88.8438V193.344H97.5156V194.359H87.6094V190.578H95.9688V188.938H87.5781V187.938H97.2188V191.547ZM98.7656 196.812H92.9844V201.297H91.7656V196.812H86.0469V195.828H98.7656V196.812ZM100.953 203.203H99.7969L100.656 198.953H102.172L100.953 203.203ZM121 193.953H118.75V201.266H117.531V187.375H118.75V192.922H121V193.953ZM109.797 196.703C110.885 196.698 111.951 196.646 112.992 196.547C114.034 196.448 115.099 196.286 116.188 196.062L116.344 197.109C115.214 197.339 114.107 197.5 113.023 197.594C111.945 197.688 110.833 197.734 109.688 197.734H108.578V188.75H109.797V196.703ZM134.531 194.797H121.812V193.828H134.531V194.797ZM132.938 198.859H124.594V200.188H133.391V201.078H123.359V198.016H131.719V196.828H123.344V195.906H132.938V198.859ZM132.891 190.672H124.688V191.891H133.141V192.781H123.469V189.828H131.656V188.688H123.422V187.797H132.891V190.672ZM144.25 188.062C144.938 188.057 145.549 188.172 146.086 188.406C146.628 188.641 147.049 188.974 147.352 189.406C147.659 189.839 147.812 190.333 147.812 190.891C147.812 191.448 147.659 191.943 147.352 192.375C147.049 192.807 146.628 193.143 146.086 193.383C145.549 193.622 144.938 193.74 144.25 193.734C143.562 193.74 142.948 193.622 142.406 193.383C141.87 193.143 141.448 192.807 141.141 192.375C140.839 191.943 140.688 191.448 140.688 190.891C140.688 190.333 140.839 189.839 141.141 189.406C141.448 188.974 141.87 188.641 142.406 188.406C142.948 188.172 143.562 188.057 144.25 188.062ZM144.25 189.062C143.792 189.057 143.383 189.133 143.023 189.289C142.664 189.44 142.383 189.656 142.18 189.938C141.982 190.219 141.885 190.536 141.891 190.891C141.885 191.25 141.982 191.57 142.18 191.852C142.383 192.128 142.664 192.344 143.023 192.5C143.383 192.651 143.792 192.724 144.25 192.719C144.714 192.724 145.125 192.651 145.484 192.5C145.849 192.344 146.133 192.128 146.336 191.852C146.539 191.57 146.641 191.25 146.641 190.891C146.641 190.536 146.539 190.219 146.336 189.938C146.133 189.656 145.849 189.44 145.484 189.289C145.125 189.133 144.714 189.057 144.25 189.062ZM151.125 201.281H149.922V187.391H151.125V201.281ZM139.641 194.922C141.354 194.922 142.982 194.891 144.523 194.828C146.065 194.76 147.526 194.625 148.906 194.422L148.984 195.344C147.76 195.568 146.411 195.727 144.938 195.82V200.844H143.719V195.891C142.797 195.932 141.495 195.958 139.812 195.969L139.641 194.922ZM164.359 191.969H166.453V193H164.359V197.797H163.141V187.391H164.359V191.969ZM161.812 190.094H153.531V189.094H157.062V187.391H158.281V189.094H161.812V190.094ZM157.672 190.859C158.328 190.859 158.906 190.966 159.406 191.18C159.911 191.393 160.305 191.695 160.586 192.086C160.867 192.477 161.01 192.932 161.016 193.453C161.01 193.969 160.867 194.419 160.586 194.805C160.305 195.19 159.911 195.49 159.406 195.703C158.906 195.911 158.328 196.016 157.672 196.016C157.01 196.016 156.424 195.911 155.914 195.703C155.409 195.49 155.016 195.19 154.734 194.805C154.458 194.419 154.323 193.969 154.328 193.453C154.323 192.932 154.458 192.477 154.734 192.086C155.016 191.695 155.409 191.393 155.914 191.18C156.424 190.966 157.01 190.859 157.672 190.859ZM157.672 191.828C157.24 191.828 156.857 191.896 156.523 192.031C156.195 192.161 155.94 192.352 155.758 192.602C155.581 192.846 155.495 193.13 155.5 193.453C155.495 193.776 155.581 194.06 155.758 194.305C155.94 194.544 156.195 194.729 156.523 194.859C156.857 194.99 157.24 195.052 157.672 195.047C158.099 195.052 158.477 194.99 158.805 194.859C159.138 194.729 159.396 194.544 159.578 194.305C159.76 194.06 159.854 193.776 159.859 193.453C159.854 193.13 159.76 192.846 159.578 192.602C159.396 192.352 159.138 192.161 158.805 192.031C158.477 191.896 158.099 191.828 157.672 191.828ZM165 200.969H155.672V196.969H156.875V199.938H165V200.969ZM176.047 189.953C176.047 190.562 176.188 191.148 176.469 191.711C176.755 192.268 177.156 192.763 177.672 193.195C178.188 193.628 178.786 193.964 179.469 194.203L178.844 195.156C178.057 194.875 177.37 194.464 176.781 193.922C176.193 193.375 175.75 192.742 175.453 192.023C175.156 192.805 174.703 193.492 174.094 194.086C173.484 194.674 172.771 195.12 171.953 195.422L171.297 194.469C171.984 194.224 172.596 193.872 173.133 193.414C173.669 192.956 174.086 192.427 174.383 191.828C174.685 191.229 174.839 190.604 174.844 189.953V189.359H171.672V188.359H179.172V189.359H176.047V189.953ZM182.203 191.047H184.297V192.094H182.203V195.75H180.984V187.375H182.203V191.047ZM182.203 201.266H180.984V197.484H173.109V196.484H182.203V201.266ZM197.828 195.703H185.172V194.703H197.828V195.703ZM196.422 200.969H186.812V196.922H188.047V199.938H196.422V200.969ZM191.5 187.875C192.49 187.87 193.354 187.977 194.094 188.195C194.833 188.414 195.404 188.732 195.805 189.148C196.206 189.56 196.406 190.052 196.406 190.625C196.406 191.198 196.206 191.693 195.805 192.109C195.404 192.521 194.833 192.839 194.094 193.062C193.354 193.281 192.49 193.391 191.5 193.391C190.5 193.391 189.63 193.281 188.891 193.062C188.151 192.839 187.581 192.521 187.18 192.109C186.779 191.693 186.578 191.198 186.578 190.625C186.578 190.052 186.779 189.56 187.18 189.148C187.581 188.732 188.151 188.414 188.891 188.195C189.63 187.977 190.5 187.87 191.5 187.875ZM191.5 188.859C190.76 188.859 190.115 188.932 189.562 189.078C189.01 189.219 188.583 189.422 188.281 189.688C187.984 189.953 187.839 190.266 187.844 190.625C187.839 190.984 187.984 191.297 188.281 191.562C188.583 191.828 189.01 192.034 189.562 192.18C190.115 192.32 190.76 192.391 191.5 192.391C192.234 192.391 192.878 192.32 193.43 192.18C193.982 192.034 194.406 191.828 194.703 191.562C195.005 191.297 195.156 190.984 195.156 190.625C195.156 190.266 195.005 189.953 194.703 189.688C194.406 189.422 193.982 189.219 193.43 189.078C192.878 188.932 192.234 188.859 191.5 188.859ZM214.234 194.891H209.938V198.484H215.734V199.516H203.016V198.484H208.734V194.891H204.641V188.516H214.094V189.516H205.875V193.891H214.234V194.891ZM228.359 197.578H227.125V192.25H224.266V191.234H227.125V187.391H228.359V197.578ZM228.75 200.969H219.438V196.656H220.672V199.938H228.75V200.969ZM221.672 190.25C221.672 190.844 221.815 191.424 222.102 191.992C222.393 192.555 222.797 193.055 223.312 193.492C223.833 193.93 224.427 194.26 225.094 194.484L224.453 195.469C223.677 195.188 222.995 194.771 222.406 194.219C221.823 193.661 221.38 193.021 221.078 192.297C220.776 193.099 220.318 193.807 219.703 194.422C219.089 195.031 218.37 195.49 217.547 195.797L216.906 194.797C217.583 194.557 218.19 194.208 218.727 193.75C219.263 193.286 219.682 192.753 219.984 192.148C220.286 191.539 220.438 190.906 220.438 190.25V189.531H217.297V188.516H224.781V189.531H221.672V190.25ZM232.141 200.094C231.958 200.094 231.789 200.049 231.633 199.961C231.482 199.867 231.359 199.742 231.266 199.586C231.177 199.43 231.135 199.26 231.141 199.078C231.135 198.901 231.177 198.737 231.266 198.586C231.359 198.43 231.482 198.307 231.633 198.219C231.789 198.125 231.958 198.078 232.141 198.078C232.318 198.078 232.482 198.125 232.633 198.219C232.789 198.307 232.911 198.43 233 198.586C233.094 198.737 233.141 198.901 233.141 199.078C233.141 199.26 233.094 199.43 233 199.586C232.911 199.742 232.789 199.867 232.633 199.961C232.482 200.049 232.318 200.094 232.141 200.094ZM242.453 188.453C243.078 188.458 243.638 188.633 244.133 188.977C244.633 189.32 245.036 189.81 245.344 190.445C245.651 191.081 245.836 191.828 245.898 192.688H249.016V187.375H250.234V201.297H249.016V193.703H245.914C245.867 194.599 245.693 195.38 245.391 196.047C245.089 196.714 244.682 197.227 244.172 197.586C243.667 197.945 243.094 198.125 242.453 198.125C241.776 198.125 241.172 197.927 240.641 197.531C240.115 197.135 239.703 196.573 239.406 195.844C239.115 195.115 238.969 194.266 238.969 193.297C238.969 192.328 239.115 191.479 239.406 190.75C239.703 190.021 240.115 189.458 240.641 189.062C241.167 188.661 241.771 188.458 242.453 188.453ZM242.453 189.547C242 189.552 241.596 189.711 241.242 190.023C240.893 190.331 240.622 190.768 240.43 191.336C240.237 191.898 240.141 192.552 240.141 193.297C240.141 194.042 240.237 194.698 240.43 195.266C240.622 195.828 240.893 196.263 241.242 196.57C241.596 196.878 242 197.031 242.453 197.031C242.901 197.031 243.299 196.878 243.648 196.57C244.003 196.263 244.276 195.828 244.469 195.266C244.667 194.698 244.766 194.042 244.766 193.297C244.766 192.552 244.667 191.898 244.469 191.336C244.276 190.768 244.005 190.331 243.656 190.023C243.307 189.711 242.906 189.552 242.453 189.547ZM264.562 200.969H254.891V196.656H256.109V199.938H264.562V200.969ZM264.188 197.484H262.984V192.234H260.422V191.219H262.984V187.391H264.188V197.484ZM256.453 189.547H254.141V194.242C254.99 194.216 255.812 194.115 256.609 193.938L256.734 194.953C256.161 195.078 255.638 195.156 255.164 195.188C254.69 195.219 254.146 195.234 253.531 195.234H252.938V188.531H256.453V189.547ZM261.094 189.547H258.453V194.25C259.089 194.24 259.648 194.211 260.133 194.164C260.622 194.112 261.12 194.026 261.625 193.906L261.75 194.922C261.146 195.052 260.57 195.138 260.023 195.18C259.477 195.216 258.776 195.234 257.922 195.234H257.219V188.531H261.094V189.547ZM277.625 197.781H271.203V188.75H277.625V197.781ZM272.406 196.781H276.422V189.734H272.406V196.781ZM281.844 201.297H280.609V187.375H281.844V201.297ZM288.969 189.953C288.969 190.62 289.112 191.268 289.398 191.898C289.685 192.529 290.086 193.089 290.602 193.578C291.117 194.062 291.708 194.438 292.375 194.703L291.688 195.656C290.927 195.339 290.258 194.878 289.68 194.273C289.107 193.669 288.674 192.971 288.383 192.18C288.086 193.034 287.635 193.786 287.031 194.438C286.432 195.083 285.729 195.573 284.922 195.906L284.25 194.922C284.932 194.656 285.539 194.271 286.07 193.766C286.602 193.26 287.016 192.677 287.312 192.016C287.609 191.354 287.76 190.667 287.766 189.953V188.172H288.969V189.953ZM295.734 197.766H294.5V193.312H291.641V192.312H294.5V190.469H291.641V189.453H294.5V187.391H295.734V197.766ZM296.047 200.969H286.75V196.688H287.984V199.938H296.047V200.969ZM309.5 201.297H308.266V187.375H309.5V201.297ZM302.109 188.453C302.797 188.458 303.409 188.661 303.945 189.062C304.482 189.458 304.901 190.021 305.203 190.75C305.505 191.479 305.656 192.328 305.656 193.297C305.656 194.266 305.505 195.115 305.203 195.844C304.901 196.573 304.482 197.135 303.945 197.531C303.409 197.927 302.797 198.125 302.109 198.125C301.422 198.125 300.807 197.927 300.266 197.531C299.729 197.135 299.31 196.573 299.008 195.844C298.711 195.115 298.562 194.266 298.562 193.297C298.562 192.328 298.711 191.479 299.008 190.75C299.31 190.021 299.729 189.458 300.266 189.062C300.802 188.661 301.417 188.458 302.109 188.453ZM302.109 189.547C301.646 189.552 301.234 189.711 300.875 190.023C300.521 190.331 300.245 190.768 300.047 191.336C299.849 191.898 299.75 192.552 299.75 193.297C299.75 194.042 299.849 194.698 300.047 195.266C300.245 195.828 300.523 196.263 300.883 196.57C301.242 196.878 301.651 197.031 302.109 197.031C302.568 197.031 302.977 196.878 303.336 196.57C303.695 196.263 303.974 195.828 304.172 195.266C304.37 194.698 304.469 194.042 304.469 193.297C304.469 192.552 304.37 191.898 304.172 191.336C303.974 190.768 303.695 190.331 303.336 190.023C302.982 189.711 302.573 189.552 302.109 189.547ZM328.891 193.953H326.641V201.266H325.422V187.375H326.641V192.922H328.891V193.953ZM317.688 196.703C318.776 196.698 319.841 196.646 320.883 196.547C321.924 196.448 322.99 196.286 324.078 196.062L324.234 197.109C323.104 197.339 321.997 197.5 320.914 197.594C319.836 197.688 318.724 197.734 317.578 197.734H316.469V188.75H317.688V196.703ZM336.047 187.547C337.078 187.547 337.961 187.641 338.695 187.828C339.43 188.016 339.99 188.289 340.375 188.648C340.76 189.008 340.953 189.443 340.953 189.953C340.953 190.677 340.576 191.245 339.82 191.656C339.07 192.068 338.005 192.302 336.625 192.359V193.422H342.375V194.422H329.719V193.422H335.422V192.359C334.052 192.302 332.992 192.068 332.242 191.656C331.497 191.24 331.125 190.672 331.125 189.953C331.125 189.443 331.318 189.008 331.703 188.648C332.094 188.289 332.656 188.016 333.391 187.828C334.13 187.641 335.016 187.547 336.047 187.547ZM336.047 188.484C334.885 188.495 333.987 188.628 333.352 188.883C332.716 189.138 332.401 189.495 332.406 189.953C332.401 190.427 332.714 190.792 333.344 191.047C333.979 191.297 334.88 191.427 336.047 191.438C337.208 191.427 338.107 191.297 338.742 191.047C339.383 190.792 339.703 190.427 339.703 189.953C339.703 189.495 339.38 189.138 338.734 188.883C338.094 188.628 337.198 188.495 336.047 188.484ZM340.75 198.703H332.5V200.141H341.172V201.109H331.281V197.797H339.547V196.547H331.25V195.594H340.75V198.703ZM348.516 191.641C348.516 192.406 348.685 193.169 349.023 193.93C349.362 194.685 349.818 195.359 350.391 195.953C350.969 196.542 351.599 196.984 352.281 197.281L351.594 198.25C350.776 197.875 350.039 197.31 349.383 196.555C348.727 195.794 348.237 194.938 347.914 193.984C347.591 195.005 347.102 195.93 346.445 196.758C345.794 197.581 345.073 198.193 344.281 198.594L343.547 197.625C344.203 197.307 344.815 196.828 345.383 196.188C345.956 195.547 346.414 194.826 346.758 194.023C347.102 193.216 347.276 192.422 347.281 191.641V189.828H344V188.812H351.828V189.828H348.516V191.641ZM355 201.266H353.766V187.375H355V201.266ZM372.875 201.266H371.641V187.375H372.875V201.266ZM368.766 188.891C368.755 190.99 368.224 192.875 367.172 194.547C366.12 196.214 364.474 197.583 362.234 198.656L361.562 197.656C363.417 196.776 364.836 195.682 365.82 194.375C366.81 193.068 367.375 191.573 367.516 189.891H362.203V188.891H368.766ZM387.094 201.266H385.922V193.984H383.875V200.547H382.75V187.688H383.875V192.969H385.922V187.375H387.094V201.266ZM380.938 190.094H376.953V196.781C377.979 196.776 378.849 196.747 379.562 196.695C380.281 196.638 381.005 196.536 381.734 196.391L381.844 197.422C381.052 197.583 380.271 197.693 379.5 197.75C378.734 197.802 377.776 197.828 376.625 197.828H375.734V189.078H380.938V190.094ZM395.984 190.781H389.016V189.781H391.906V187.797H393.125V189.781H395.984V190.781ZM392.5 191.719C393.078 191.719 393.594 191.854 394.047 192.125C394.505 192.391 394.862 192.763 395.117 193.242C395.378 193.721 395.51 194.266 395.516 194.875C395.51 195.49 395.378 196.039 395.117 196.523C394.862 197.003 394.505 197.38 394.047 197.656C393.594 197.927 393.078 198.062 392.5 198.062C391.927 198.062 391.414 197.927 390.961 197.656C390.508 197.38 390.154 197 389.898 196.516C389.643 196.031 389.516 195.484 389.516 194.875C389.516 194.271 389.643 193.729 389.898 193.25C390.154 192.766 390.508 192.391 390.961 192.125C391.414 191.854 391.927 191.719 392.5 191.719ZM392.5 192.75C392.141 192.755 391.815 192.852 391.523 193.039C391.237 193.221 391.013 193.474 390.852 193.797C390.69 194.115 390.609 194.474 390.609 194.875C390.609 195.281 390.69 195.646 390.852 195.969C391.018 196.292 391.245 196.544 391.531 196.727C391.818 196.904 392.141 196.99 392.5 196.984C392.865 196.99 393.193 196.904 393.484 196.727C393.776 196.544 394.005 196.292 394.172 195.969C394.339 195.646 394.422 195.281 394.422 194.875C394.422 194.474 394.339 194.115 394.172 193.797C394.005 193.474 393.776 193.221 393.484 193.039C393.193 192.852 392.865 192.755 392.5 192.75ZM400.875 201.266H399.703V194.25H397.859V200.578H396.703V187.719H397.859V193.234H399.703V187.375H400.875V201.266ZM415.594 199.484H402.875V198.469H408.594V195.469H404.375V188.359H405.609V190.875H412.828V188.359H414.031V195.469H409.797V198.469H415.594V199.484ZM412.828 194.469V191.875H405.609V194.469H412.828ZM420.828 191.328C420.828 192.068 420.945 192.807 421.18 193.547C421.414 194.286 421.75 194.961 422.188 195.57C422.63 196.18 423.151 196.661 423.75 197.016L423.047 197.969C422.396 197.573 421.831 197.029 421.352 196.336C420.878 195.638 420.513 194.854 420.258 193.984C419.997 194.922 419.615 195.766 419.109 196.516C418.604 197.266 418.01 197.849 417.328 198.266L416.547 197.344C417.172 196.979 417.719 196.482 418.188 195.852C418.656 195.216 419.016 194.51 419.266 193.734C419.516 192.953 419.641 192.167 419.641 191.375V188.688H420.828V191.328ZM428.609 201.266H427.422V187.375H428.609V201.266ZM425.734 200.562H424.578V193.406H422.219V192.359H424.578V187.672H425.734V200.562ZM443.25 199.484H430.531V198.453H433.688V194.703C433.083 194.391 432.615 193.99 432.281 193.5C431.948 193.005 431.781 192.448 431.781 191.828C431.781 191.12 431.997 190.497 432.43 189.961C432.862 189.419 433.461 189 434.227 188.703C434.997 188.406 435.875 188.255 436.859 188.25C437.844 188.255 438.719 188.406 439.484 188.703C440.255 189 440.857 189.419 441.289 189.961C441.721 190.497 441.938 191.12 441.938 191.828C441.938 192.438 441.776 192.987 441.453 193.477C441.13 193.961 440.677 194.359 440.094 194.672V198.453H443.25V199.484ZM436.859 189.266C436.104 189.26 435.432 189.365 434.844 189.578C434.255 189.792 433.794 190.094 433.461 190.484C433.133 190.87 432.969 191.318 432.969 191.828C432.969 192.339 433.133 192.792 433.461 193.188C433.794 193.578 434.255 193.883 434.844 194.102C435.432 194.315 436.104 194.422 436.859 194.422C437.609 194.422 438.279 194.312 438.867 194.094C439.456 193.875 439.917 193.57 440.25 193.18C440.583 192.789 440.75 192.339 440.75 191.828C440.75 191.318 440.583 190.87 440.25 190.484C439.917 190.094 439.456 189.792 438.867 189.578C438.279 189.365 437.609 189.26 436.859 189.266ZM438.859 198.453V195.148C438.24 195.31 437.573 195.391 436.859 195.391C436.141 195.391 435.484 195.312 434.891 195.156V198.453H438.859ZM446.5 196.812H445.188L445.078 188.688H446.609L446.5 196.812ZM445.844 200.094C445.661 200.094 445.492 200.049 445.336 199.961C445.185 199.867 445.062 199.742 444.969 199.586C444.88 199.43 444.839 199.26 444.844 199.078C444.839 198.901 444.88 198.737 444.969 198.586C445.062 198.43 445.185 198.307 445.336 198.219C445.492 198.125 445.661 198.078 445.844 198.078C446.021 198.078 446.185 198.125 446.336 198.219C446.492 198.307 446.615 198.43 446.703 198.586C446.797 198.737 446.844 198.901 446.844 199.078C446.844 199.26 446.797 199.43 446.703 199.586C446.615 199.742 446.492 199.867 446.336 199.961C446.185 200.049 446.021 200.094 445.844 200.094Z" fill="#262626"/>
<g clip-path="url(#clip1_2126_111109)">
<path d="M1040.96 135.734C1048.8 129.616 1049.4 117.228 1042.3 108.066C1035.19 98.9031 1023.08 96.4353 1015.24 102.554C1007.4 108.672 1006.8 121.06 1013.9 130.222C1021.01 139.385 1033.12 141.852 1040.96 135.734Z" fill="#C4E7F3"/>
<path d="M1073.13 100.679C1083.44 96.4258 1087.49 82.4633 1082.17 69.4927C1076.85 56.5222 1064.18 49.4552 1053.86 53.7083C1043.55 57.9614 1039.5 71.9239 1044.82 84.8944C1050.14 97.865 1062.81 104.932 1073.13 100.679Z" fill="#C4E7F3"/>
<path d="M1138.57 69.3151C1138.36 55.295 1129.14 44.0585 1117.99 44.2177C1106.83 44.377 1097.96 55.8716 1098.17 69.8917C1098.39 83.9118 1107.6 95.1483 1118.76 94.9891C1129.91 94.8298 1138.78 83.3352 1138.57 69.3151Z" fill="#C4E7F3"/>
<path d="M1184.77 105.987C1187.26 94.2151 1180.43 82.7808 1169.51 80.4481C1158.6 78.1154 1147.74 85.7676 1145.25 97.5399C1142.76 109.312 1149.59 120.747 1160.51 123.079C1171.42 125.412 1182.28 117.76 1184.77 105.987Z" fill="#C4E7F3"/>
<path d="M1093.4 107.804C1093.4 107.804 1071.35 109.853 1059.25 134.737C1047.14 159.62 1042.84 158.815 1044.85 174.746C1046.85 190.677 1064.2 196.481 1085.14 189.383C1106.09 182.286 1105.05 183.429 1116.98 183.179C1128.91 182.93 1142.02 185.52 1152.45 177.275C1162.87 169.031 1165.42 152.924 1151.94 140.453C1143.87 132.996 1133.47 119.371 1120.53 112.25C1111.83 107.469 1100.61 107.203 1093.4 107.799L1093.4 107.804Z" fill="#C4E7F3"/>
</g>
<g clip-path="url(#clip2_2126_111109)">
<path d="M797.44 212.279C805.213 209.903 809.293 200.624 806.552 191.554C803.812 182.484 795.29 177.058 787.517 179.434C779.744 181.81 775.664 191.089 778.404 200.159C781.144 209.229 789.667 214.655 797.44 212.279Z" fill="#C4E7F3"/>
<path d="M832.243 194.934C841.359 194.706 848.534 185.235 848.267 173.78C848.001 162.325 840.395 153.225 831.278 153.453C822.162 153.682 814.987 163.153 815.254 174.608C815.52 186.062 823.126 195.163 832.243 194.934Z" fill="#C4E7F3"/>
<path d="M891.359 190.141C895.297 179.379 891.551 168.109 882.991 164.967C874.432 161.826 864.301 168.004 860.362 178.766C856.424 189.528 860.17 200.798 868.73 203.94C877.289 207.081 887.421 200.903 891.359 190.141Z" fill="#C4E7F3"/>
<path d="M915.892 231.641C921.233 223.384 919.364 212.66 911.717 207.688C904.07 202.715 893.542 205.378 888.201 213.635C882.86 221.892 884.729 232.616 892.376 237.588C900.022 242.561 910.551 239.898 915.892 231.641Z" fill="#C4E7F3"/>
<path d="M845.628 206.301C845.628 206.301 828.204 201.417 811.688 216.866C795.172 232.316 792.125 230.443 788.996 243.188C785.867 255.932 797.407 265.435 815.469 266.145C833.531 266.856 832.404 267.424 841.58 270.723C850.756 274.021 860.007 279.833 870.373 276.59C880.739 273.347 887.399 261.802 880.755 248.341C876.782 240.291 872.825 226.849 865.034 217.63C859.797 211.438 851.306 207.951 845.632 206.298L845.628 206.301Z" fill="#C4E7F3"/>
</g>
<g clip-path="url(#clip3_2126_111109)">
<path opacity="0.5" d="M1059.95 213.842C1093.87 213.842 1121.37 206.601 1121.37 197.67C1121.37 188.738 1093.87 181.498 1059.95 181.498C1026.03 181.498 998.537 188.738 998.537 197.67C998.537 206.601 1026.03 213.842 1059.95 213.842Z" fill="#5E331A"/>
<path d="M1018.02 176.518C1013.77 172.713 1009.31 168.785 1003.8 167.321C998.289 165.858 991.442 167.732 989.139 172.948C987.869 175.827 988.178 179.165 988.98 182.209C991.463 191.631 998.674 199.678 1007.77 203.176C1016.86 206.675 1027.61 205.537 1035.76 200.211L1053.25 183.758L1062.49 185.66C1059.71 182.64 1056.89 179.589 1053.49 177.293C1050.08 174.997 1045.98 173.492 1041.9 173.925C1037.81 174.358 1033.84 177.03 1032.62 180.955C1031.44 184.779 1032.95 188.861 1034.46 192.571C1037.66 200.448 1041.5 208.936 1049.11 212.736C1054.68 215.517 1061.39 215.197 1067.3 213.236C1073.21 211.278 1078.49 207.82 1083.69 204.404L1087.52 202.269C1102.28 202.378 1116.59 192.414 1121.62 178.531C1124.55 170.411 1124.47 161.419 1122.59 152.99C1120.72 144.56 1117.13 136.611 1113.17 128.936L1108.89 124.362L1086.01 136.204C1081.82 138.55 1076.86 139.068 1072.06 139.181C1067.26 139.294 1062.41 139.052 1057.71 140.062C1053.02 141.072 1048.37 143.563 1046.09 147.787C1043.1 153.316 1045.05 160.606 1049.51 165.036C1053.97 169.464 1060.4 171.405 1066.67 171.853C1075.16 172.462 1083.82 170.574 1091.29 166.483C1095.66 164.091 1099.79 160.732 1101.56 156.075" fill="white"/>
<path d="M1014.83 168.384L1031.26 166.65L1030.17 134.062L1088.59 135.09L1053.25 171.281L1017.84 179.575L1009.93 170.264L1014.83 168.384Z" fill="white"/>
<path d="M1048.11 137.927C1045.39 137.777 1025.35 136.032 1015.91 124.66C1006.47 113.289 1003.4 92.1967 1011.47 77.5023L1013.91 72.6868C1013 64.9708 1012.09 57.2547 1011.18 49.5409C1010.78 46.142 1010.73 41.9641 1013.64 40.1646C1015.87 38.7828 1018.77 39.5705 1021.23 40.5171C1024.63 41.8335 1030.72 44.5862 1035.3 47.9459C1040.82 52.0084 1044.36 56.1428 1044.36 56.1428C1049.37 53.9625 1055.08 53.4185 1060.53 53.6056L1062.97 54.0386C1062.97 54.0386 1063.33 50.037 1064.5 45.8656C1065.71 41.5681 1067.76 37.0572 1069.41 34.383C1070.46 32.6683 1071.78 30.9188 1073.72 30.353C1076.4 29.5675 1079.07 31.3888 1081.26 33.1296C1089.84 39.9665 1101.59 61.2912 1101.59 61.2912L1105.1 64.9077C1112.56 72.6738 1117.25 83.0402 1118.17 93.7678C1119.09 104.495 1116.23 115.51 1110.21 124.434C1110.21 124.434 1097.58 140.662 1048.11 137.929V137.927Z" fill="white"/>
<path d="M1069.3 56.141C1069.72 52.0915 1071.21 48.1595 1073.56 44.8346C1074.1 44.0599 1074.85 43.2439 1075.79 43.2722C1076.46 43.2918 1077.04 43.7379 1077.54 44.1774C1082.27 48.2987 1085.83 55.3141 1087.19 61.4351C1087.19 61.4351 1083.49 59.616 1078.24 57.8752C1072.99 56.1344 1069.29 56.141 1069.29 56.141H1069.3Z" fill="#FAC985"/>
<path d="M1018.94 68.7218C1017.77 64.0391 1016.98 59.265 1016.56 54.4582C1016.51 53.8424 1016.47 53.2157 1016.61 52.6173C1016.76 52.0189 1017.14 51.4423 1017.71 51.2116C1018.4 50.9331 1019.17 51.1986 1019.85 51.4858C1024.19 53.3202 1028.76 56.36 1031.86 59.9091C1031.86 59.9091 1027.33 62.0393 1025.48 63.5168L1018.94 68.724L1018.94 68.7218Z" fill="#FAC985"/>
<path d="M1031.42 166.657C1031.37 166.657 1031.32 166.653 1031.26 166.65C1036.39 166.99 1041.57 166.72 1046.64 165.847L1044.69 148.394C1041.92 142.915 1039.14 137.433 1036.37 131.954L1035.94 131.151C1035.32 130 1034.19 129.213 1032.9 129.03C1025.45 128.283 1017.92 128.353 1010.49 129.237C1009.82 129.315 1009.18 129.554 1008.65 129.961C1006.97 131.245 1007.62 132.953 1008.26 134.389C1009.38 136.905 1010.5 139.42 1011.63 141.936" fill="#94633F"/>
<path d="M1025.72 170.288C1023.51 171.452 1020.79 171.35 1018.45 170.46C1016.12 169.57 1014.13 167.962 1012.36 166.197C1009.41 163.255 1006.91 159.678 1006.11 155.587C1005.32 151.496 1006.52 146.855 1009.82 144.311C1011.42 143.073 1016.18 142.514 1020.13 144.921C1023.65 147.064 1026.43 152.014 1027.31 153.875C1028.47 156.299 1030.26 160.992 1029.71 164.65C1029.27 167.592 1026.71 169.766 1025.72 170.29L1025.72 170.288Z" fill="white"/>
<path d="M1111.14 125.037C1117.85 114.992 1120.66 102.583 1118.89 90.6299C1117.31 80.022 1112.15 70.576 1104.74 62.9361C1104.17 62.3443 1103.6 61.7546 1103.02 61.1627C1102.86 60.9908 1102.7 60.8059 1102.52 60.647C1102.3 60.4446 1102.34 60.375 1102.51 60.6688C1102.21 60.1378 1101.91 59.6069 1101.61 59.0781C1100.03 56.3212 1098.38 53.5968 1096.68 50.9138C1094.32 47.1842 1091.85 43.5198 1089.15 40.0252C1086.63 36.7677 1083.93 33.6147 1080.57 31.1972C1078.02 29.3629 1074.74 28.066 1071.8 29.8612C1069.24 31.4235 1067.74 34.4851 1066.48 37.0963C1063.92 42.421 1062.21 48.146 1061.66 54.0385L1063.18 52.8853C1062.4 52.746 1061.61 52.5785 1060.83 52.4675C1059.08 52.2194 1057.19 52.3587 1055.43 52.4675C1051.37 52.7155 1047.4 53.5098 1043.65 55.1113L1045.1 55.2984C1039.88 49.2253 1033.1 44.5861 1025.87 41.2503C1022.35 39.627 1017.72 37.1246 1013.81 38.7C1009.91 40.2754 1009.43 45.2084 1009.81 48.9707C1010.39 54.5978 1011.14 60.214 1011.8 65.8324C1011.97 67.262 1012.14 68.6895 1012.31 70.1191C1012.36 70.6065 1012.27 71.6684 1012.54 72.047C1012.57 72.0927 1012.73 72.5127 1012.76 72.1253C1012.75 72.1884 1012.68 72.2537 1012.66 72.3146C1012.31 73.4592 1011.49 74.6125 1010.95 75.6809C1009.36 78.8078 1007.85 81.9151 1006.87 85.3031C1005.67 89.4679 1005.11 93.8351 1005.17 98.1653C1005.3 108.073 1008.68 117.828 1014.96 125.511C1015.94 126.703 1017.62 125.002 1016.65 123.818C1011.42 117.414 1008.36 109.322 1007.7 101.096C1007.06 93.0213 1008.72 85.1943 1012.44 78.0244C1012.94 77.0648 1013.42 76.0987 1013.91 75.1369C1014.4 74.1751 1015.02 73.3243 1014.96 72.2624C1014.8 69.549 1014.31 66.8181 1014 64.1177C1013.68 61.4173 1013.36 58.6886 1013.04 55.973C1012.74 53.4489 1012.36 50.9204 1012.16 48.3853C1012.01 46.6206 1011.94 44.6579 1012.66 42.9954C1014.46 38.7979 1019.83 41.2068 1022.83 42.4949C1030.6 45.8307 1037.87 50.5309 1043.41 56.9892C1043.79 57.4266 1044.4 57.3765 1044.87 57.1763C1048.32 55.701 1052.09 55.0351 1055.83 54.8371C1057.28 54.761 1058.86 54.6348 1060.3 54.7936C1061.05 54.8763 1061.8 55.0613 1062.55 55.194C1063.36 55.3398 1063.99 54.8632 1064.06 54.0407C1064.52 49.1339 1065.88 44.2814 1067.87 39.7815C1068.89 37.4793 1070.03 34.916 1071.75 33.0316C1072.61 32.0807 1073.68 31.3408 1075.01 31.3648C1076.5 31.3931 1077.88 32.2221 1079.06 33.0468C1082.22 35.238 1084.76 38.2518 1087.11 41.2633C1089.66 44.536 1091.98 47.9828 1094.21 51.4752C1095.94 54.1778 1097.61 56.9217 1099.21 59.7005C1099.96 60.9995 1100.56 62.0462 1101.6 63.1233C1104.37 65.9782 1107.07 68.8244 1109.27 72.1602C1112.28 76.721 1114.49 81.778 1115.77 87.0896C1118.81 99.6428 1116.24 113.121 1109.08 123.831C1108.22 125.115 1110.29 126.314 1111.14 125.039L1111.14 125.037Z" fill="#555A60"/>
<path d="M1110.51 129.366C1114.92 134.34 1117.8 140.242 1119.65 146.589C1121.5 152.98 1122.82 159.584 1122.59 166.266C1122.37 172.668 1120.71 178.981 1117.28 184.423C1114.31 189.145 1110.16 193.109 1105.39 195.986C1099.96 199.252 1093.75 201.087 1087.41 201.069C1085.87 201.065 1085.87 203.458 1087.41 203.463C1099.39 203.493 1110.88 197.309 1117.93 187.711C1121.84 182.397 1124.03 176.117 1124.75 169.587C1125.54 162.391 1124.4 155.256 1122.6 148.295C1120.63 140.683 1117.46 133.601 1112.21 127.673C1111.18 126.518 1109.5 128.215 1110.51 129.366H1110.51Z" fill="#555A60"/>
<path d="M1082.97 203.368C1076.78 207.439 1070.36 211.682 1062.95 213.106C1059.46 213.776 1055.78 213.778 1052.36 212.77C1049.25 211.857 1046.53 210.068 1044.29 207.737C1039.9 203.155 1037.35 196.99 1035.07 191.165C1033.77 187.858 1032.39 183.871 1033.99 180.42C1035.23 177.737 1037.91 175.959 1040.73 175.311C1044.68 174.406 1048.82 175.829 1052.15 177.918C1055.76 180.187 1058.67 183.392 1061.54 186.504C1062.59 187.64 1064.27 185.943 1063.23 184.811C1057.9 179.03 1051.57 172.578 1043.08 172.654C1039.66 172.684 1036.24 174.01 1033.84 176.49C1031.2 179.223 1030.5 182.89 1031.16 186.554C1031.83 190.353 1033.59 194.035 1035.16 197.541C1036.6 200.766 1038.23 203.936 1040.36 206.767C1042.49 209.598 1044.84 211.85 1047.82 213.471C1051.19 215.303 1055.06 216.065 1058.88 215.95C1068.35 215.667 1076.51 210.475 1084.18 205.435C1085.46 204.593 1084.27 202.519 1082.97 203.368Z" fill="#555A60"/>
<path d="M1057.82 171.664C1056.02 172.7 1054.22 173.738 1052.42 174.774C1051.08 175.542 1052.29 177.611 1053.63 176.841C1055.43 175.805 1057.23 174.767 1059.03 173.731C1060.36 172.963 1059.16 170.894 1057.82 171.664Z" fill="#555A60"/>
<path d="M1085.29 135.17C1077.05 139.668 1067.17 137.129 1058.29 138.711C1050.82 140.04 1043.62 145.006 1043.35 153.207C1043.09 161.21 1048.81 167.693 1055.86 170.645C1063.64 173.898 1072.79 173.79 1080.87 171.779C1089.32 169.675 1099.21 165.014 1102.6 156.393C1103.16 154.959 1100.85 154.336 1100.29 155.757C1097.51 162.829 1089.25 166.792 1082.44 168.863C1075.04 171.111 1066.73 171.598 1059.28 169.34C1052.44 167.27 1046.2 162.044 1045.76 154.467C1045.56 151.031 1046.78 147.821 1049.29 145.447C1051.91 142.965 1055.42 141.644 1058.93 141.019C1068.12 139.381 1077.92 141.918 1086.5 137.237C1087.85 136.5 1086.65 134.433 1085.29 135.17H1085.29Z" fill="#555A60"/>
<path d="M1055.75 158.774C1052.82 159.927 1050.44 162.081 1049.17 164.993C1048.56 166.392 1050.62 167.613 1051.24 166.201C1052.24 163.89 1054.02 162.016 1056.39 161.083C1057.81 160.523 1057.19 158.208 1055.75 158.774Z" fill="#555A60"/>
<path d="M1051.86 149.704C1048.43 150.84 1045.84 153.323 1043.87 156.289C1043.02 157.577 1045.09 158.776 1045.94 157.496C1047.54 155.072 1049.68 152.942 1052.49 152.013C1053.95 151.532 1053.32 149.219 1051.86 149.704Z" fill="#555A60"/>
<path d="M1025.01 169.255C1019.62 171.918 1014.07 166.857 1010.94 162.958C1007.75 159 1005.71 153.601 1007.85 148.666C1008.64 146.858 1009.95 145.123 1011.94 144.655C1014.31 144.101 1017 144.579 1019.1 145.765C1022.62 147.752 1025.09 151.871 1026.64 155.507C1028.5 159.879 1030.14 166.398 1025.01 169.255C1023.66 170.004 1024.87 172.073 1026.22 171.322C1028.26 170.188 1029.94 167.991 1030.58 165.763C1031.41 162.842 1030.61 159.504 1029.65 156.715C1028.04 152.047 1025.25 147.075 1021.13 144.209C1018.68 142.508 1015.49 141.788 1012.54 142.14C1009.91 142.453 1008.05 143.761 1006.59 145.965C1003.11 151.257 1004.56 158.064 1007.98 162.971C1011.85 168.526 1019.05 174.862 1026.22 171.318C1027.6 170.635 1026.39 168.57 1025.01 169.251V169.255Z" fill="#555A60"/>
<path d="M1018.76 175.674C1013.5 170.967 1007.46 165.662 999.981 165.645C997.002 165.638 993.884 166.43 991.455 168.206C988.709 170.214 987.192 173.184 986.997 176.577C986.788 180.215 987.923 183.905 989.373 187.2C990.728 190.281 992.6 193.125 994.832 195.641C999.404 200.795 1005.63 204.473 1012.41 205.776C1020.58 207.35 1029.25 205.759 1036.26 201.244C1037.55 200.412 1036.35 198.339 1035.05 199.177C1023.91 206.353 1008.88 205.374 999.008 196.454C994.53 192.407 991.211 187.052 989.841 181.155C989.105 177.985 989.022 174.325 991.198 171.674C992.889 169.614 995.513 168.495 998.111 168.151C1005.64 167.155 1011.87 172.712 1017.06 177.367C1018.21 178.392 1019.9 176.705 1018.76 175.674Z" fill="#555A60"/>
<path d="M1002.24 168.146C1000.3 171.156 1000.61 174.801 1002.76 177.59C1003.65 178.733 1005.19 177.279 1004.64 176.139C1004.56 175.967 1004.48 175.797 1004.4 175.625C1003.74 174.235 1001.68 175.449 1002.33 176.833C1002.41 177.005 1002.5 177.175 1002.58 177.346L1004.46 175.895C1002.95 173.945 1003 171.376 1004.31 169.352C1005.14 168.055 1003.07 166.854 1002.24 168.144V168.146Z" fill="#555A60"/>
<path d="M994.167 168.255C992.5 171.993 993.111 176.284 995.825 179.367C996.845 180.525 998.532 178.828 997.518 177.674C995.574 175.466 995.03 172.16 996.234 169.462C996.856 168.067 994.793 166.849 994.167 168.255Z" fill="#555A60"/>
<path d="M1047.14 174.944C1045.07 177.557 1044.3 180.821 1045.09 184.076L1047.39 183.441C1047.34 183.26 1047.28 183.082 1047.22 182.901C1046.76 181.439 1044.44 182.064 1044.91 183.537C1044.97 183.717 1045.03 183.896 1045.09 184.076C1045.55 185.541 1047.76 184.945 1047.39 183.441C1046.82 181.089 1047.32 178.547 1048.83 176.637C1049.78 175.442 1048.1 173.736 1047.14 174.944Z" fill="#555A60"/>
<path d="M1037.72 174.934C1036.08 178.459 1036.06 182.339 1037.65 185.884L1039.72 184.676C1039.57 184.423 1039.41 184.171 1039.26 183.919C1038.47 182.598 1036.4 183.799 1037.2 185.126C1037.35 185.379 1037.5 185.631 1037.65 185.884C1038.46 187.235 1040.33 186.053 1039.72 184.676C1038.51 181.982 1038.54 178.816 1039.79 176.142C1040.43 174.753 1038.37 173.537 1037.72 174.934Z" fill="#555A60"/>
<path d="M1026.72 157.301C1024.62 157.316 1022.59 157.936 1020.88 159.159C1019.63 160.045 1020.83 162.121 1022.08 161.226C1023.48 160.232 1025.01 159.705 1026.72 159.694C1028.27 159.684 1028.27 157.29 1026.72 157.301Z" fill="#555A60"/>
<path d="M1022.47 147.602C1019.68 147.556 1017.21 148.875 1015.58 151.101C1014.66 152.343 1016.74 153.54 1017.64 152.308C1018.77 150.77 1020.59 149.963 1022.47 149.993C1024.01 150.019 1024.01 147.626 1022.47 147.6L1022.47 147.602Z" fill="#555A60"/>
<path d="M1109.75 109.115C1103.93 107.701 1097.84 107.829 1092.09 109.518C1090.61 109.951 1091.24 112.262 1092.72 111.827C1098.07 110.256 1103.7 110.108 1109.12 111.424C1110.61 111.787 1111.25 109.481 1109.75 109.115H1109.75Z" fill="#555A60"/>
<path d="M1108.88 94.6815C1102.06 95.1058 1095.46 97.3863 1089.88 101.347C1088.63 102.23 1089.83 104.308 1091.09 103.414C1096.32 99.6993 1102.47 97.4755 1108.88 97.0751C1110.41 96.9793 1110.42 94.5858 1108.88 94.6815Z" fill="#555A60"/>
<path d="M1014.73 108.18C1009.33 107.71 1003.93 107.96 998.599 108.867C997.085 109.126 997.727 111.433 999.235 111.176C1004.35 110.305 1009.55 110.123 1014.72 110.573C1016.26 110.708 1016.25 108.312 1014.72 108.18H1014.73Z" fill="#555A60"/>
<path d="M1017.02 116.376C1011.63 117.155 1006.45 118.939 1001.71 121.605C1000.94 122.036 1000.92 123.248 1001.71 123.672L1002.07 123.863C1003.42 124.59 1004.63 122.525 1003.27 121.796L1002.92 121.605V123.672C1007.49 121.104 1012.47 119.435 1017.66 118.685C1019.18 118.465 1018.53 116.158 1017.02 116.376H1017.02Z" fill="#555A60"/>
<path d="M1066.77 107.758C1069.22 107.19 1070.62 104.182 1069.89 101.038C1069.16 97.8945 1066.59 95.8065 1064.14 96.3743C1061.68 96.9421 1060.29 99.9507 1061.01 103.094C1061.74 106.238 1064.32 108.326 1066.77 107.758Z" fill="#555A60"/>
<path d="M1034.05 109.927C1036.5 109.359 1037.9 106.35 1037.17 103.207C1036.44 100.063 1033.87 97.9754 1031.42 98.5432C1028.96 99.111 1027.57 102.12 1028.29 105.263C1029.02 108.407 1031.6 110.495 1034.05 109.927Z" fill="#555A60"/>
<path d="M1042.62 110.359C1042.62 112.122 1044.69 114.337 1047.35 114.337C1050 114.337 1052.03 112.013 1052.03 110.25C1052.03 108.488 1049.94 107.53 1047.28 107.53C1044.63 107.53 1042.62 108.597 1042.62 110.359Z" fill="#555A60"/>
<path d="M1058.56 117.976C1057.1 119.475 1054.89 120.126 1052.87 119.458C1050.85 118.79 1049.5 116.899 1049.19 114.823C1048.97 113.304 1046.66 113.95 1046.88 115.458C1047.31 118.354 1049.44 120.863 1052.23 121.764C1055.04 122.674 1058.22 121.753 1060.25 119.667C1061.33 118.563 1059.64 116.868 1058.56 117.974L1058.56 117.976Z" fill="#555A60"/>
<path d="M1046.35 115.489C1047.03 117.163 1046.11 118.734 1044.52 119.43C1042.79 120.187 1040.88 119.811 1039.15 119.273C1037.67 118.814 1037.04 121.125 1038.51 121.582C1041.06 122.372 1043.96 122.659 1046.32 121.182C1048.42 119.87 1049.62 117.241 1048.66 114.854C1048.09 113.444 1045.78 114.06 1046.35 115.489Z" fill="#555A60"/>
<path d="M1046.21 164.693C1041.24 165.531 1036.19 165.768 1031.15 165.453V167.846L1031.32 167.853C1032.86 167.905 1032.86 165.512 1031.32 165.459L1031.15 165.453C1029.6 165.401 1029.63 167.751 1031.15 167.846C1036.41 168.175 1041.66 167.875 1046.85 167.002C1048.36 166.748 1047.72 164.439 1046.21 164.693H1046.21Z" fill="#555A60"/>
<path d="M1045.61 147.792C1043.45 143.522 1041.29 139.253 1039.13 134.984C1037.67 132.09 1036.5 128.308 1032.79 127.836C1028.12 127.244 1023.31 127.22 1018.61 127.398C1016.28 127.487 1013.96 127.655 1011.64 127.901C1009.72 128.105 1007.67 128.423 1006.68 130.329C1005.76 132.107 1006.66 134.072 1007.45 135.708C1008.53 137.917 1009.93 139.949 1010.95 142.186C1011.59 143.585 1013.65 142.371 1013.02 140.979C1012.24 139.27 1011.25 137.682 1010.34 136.046C1009.73 134.962 1008.43 133.108 1008.68 131.772C1009.02 130.049 1012.05 130.244 1013.33 130.131C1015.36 129.948 1017.41 129.827 1019.46 129.766C1023.55 129.644 1027.65 129.766 1031.73 130.131C1033.24 130.266 1034.22 130.704 1034.97 132.074C1035.71 133.445 1036.44 134.947 1037.16 136.385C1039.29 140.591 1041.42 144.797 1043.55 149.001C1044.24 150.377 1046.31 149.167 1045.61 147.794V147.792Z" fill="#555A60"/>
<path d="M1048 136.731C1045.46 136.916 1042.98 136.487 1040.69 135.371C1039.31 134.699 1038.09 136.764 1039.48 137.438C1042.15 138.737 1045.04 139.342 1048 139.125C1049.53 139.014 1049.54 136.618 1048 136.731Z" fill="#555A60"/>
<path d="M1008.1 194.189C1009.93 192.967 1009.89 189.72 1008.02 186.936C1006.15 184.152 1003.16 182.885 1001.34 184.106C999.52 185.327 999.558 188.574 1001.43 191.359C1003.29 194.143 1006.28 195.41 1008.1 194.189Z" fill="#555A60"/>
<path d="M1050.71 202.174C1052.53 200.953 1052.49 197.706 1050.63 194.921C1048.76 192.137 1045.77 190.87 1043.95 192.091C1042.13 193.313 1042.17 196.56 1044.03 199.344C1045.9 202.128 1048.89 203.395 1050.71 202.174Z" fill="#555A60"/>
<path d="M1013.03 168.753L1011.95 169.206C1011.65 169.332 1011.41 169.463 1011.24 169.756C1011.09 170.013 1011.02 170.392 1011.12 170.679C1011.21 170.966 1011.39 171.247 1011.67 171.395C1011.94 171.543 1012.3 171.637 1012.59 171.515L1013.67 171.062C1013.97 170.936 1014.22 170.805 1014.39 170.512C1014.54 170.255 1014.6 169.876 1014.51 169.589C1014.41 169.302 1014.23 169.021 1013.96 168.873C1013.68 168.725 1013.32 168.631 1013.03 168.753Z" fill="#555A60"/>
<path d="M1032.94 134.246C1035.07 138.437 1037.2 142.628 1039.34 146.819C1039.85 147.837 1041.37 147.113 1041.12 146.064L1041.04 145.718C1040.75 144.49 1038.86 145.011 1039.15 146.238L1039.24 146.584L1041.02 145.829C1038.89 141.638 1036.76 137.447 1034.63 133.256C1034.05 132.133 1032.37 133.123 1032.94 134.244L1032.94 134.246Z" fill="#555A60"/>
</g>
<g clip-path="url(#clip4_2126_111109)">
<path d="M566.384 66.5651C574.872 67.3595 582.529 59.9852 583.488 50.0941C584.446 40.2029 578.342 31.5405 569.854 30.7461C561.366 29.9516 553.709 37.326 552.75 47.2171C551.792 57.1082 557.896 65.7706 566.384 66.5651Z" fill="#C4E7F3"/>
<path d="M607.062 63.6167C615.996 67.03 626.733 60.703 631.042 49.4848C635.351 38.2666 631.601 26.4053 622.666 22.992C613.731 19.5786 602.995 25.9057 598.686 37.1239C594.377 48.3421 598.127 60.2033 607.062 63.6167Z" fill="#C4E7F3"/>
<path d="M666.321 82.5388C674.432 73.6693 675.292 61.242 668.241 54.7818C661.19 48.3216 648.899 50.2748 640.787 59.1443C632.675 68.0139 631.815 80.4411 638.866 86.9013C645.917 93.3616 658.209 91.4084 666.321 82.5388Z" fill="#C4E7F3"/>
<path d="M673.571 132.579C682.044 126.699 684.508 115.55 679.072 107.678C673.637 99.8051 662.362 98.1898 653.889 104.07C645.415 109.95 642.952 121.099 648.387 128.971C653.822 136.844 665.097 138.459 673.571 132.579Z" fill="#C4E7F3"/>
<path d="M615.513 79.9799C615.513 79.9799 600.558 68.2946 578.376 76.6961C556.193 85.0977 553.984 82.0663 545.867 93.182C537.75 104.298 545.155 118.117 562.394 126.009C579.633 133.9 578.312 134.002 585.898 140.861C593.485 147.719 600.142 157.046 611.491 158.034C622.84 159.021 633.904 150.477 632.826 134.769C632.182 125.376 633.703 110.758 629.821 98.7083C627.21 90.6135 620.363 83.845 615.518 79.979L615.513 79.9799Z" fill="#C4E7F3"/>
</g>
</g>
<defs>
<clipPath id="clip0_2126_111109">
<rect width="1280" height="238" fill="white"/>
</clipPath>
<clipPath id="clip1_2126_111109">
<rect width="177.157" height="140.504" fill="white" transform="translate(1001 60.2695) rotate(-7.87395)"/>
</clipPath>
<clipPath id="clip2_2126_111109">
<rect width="144.788" height="114.832" fill="white" transform="translate(789.019 143) rotate(13.0959)"/>
</clipPath>
<clipPath id="clip3_2126_111109">
<rect width="138.027" height="186.961" fill="white" transform="translate(986.973 29)"/>
</clipPath>
<clipPath id="clip4_2126_111109">
<rect width="151.859" height="120.44" fill="white" transform="translate(585.838 -4) rotate(35.4405)"/>
</clipPath>
</defs>
</svg>
