<svg width="375" height="184" viewBox="0 0 375 184" fill="none" xmlns="http://www.w3.org/2000/svg">
<rect width="375" height="184" fill="#FEC84B"/>
<g clip-path="url(#clip0_2126_65873)">
<path d="M253.67 85.8914C256.256 80.8582 253.605 74.3186 247.747 71.2849C241.89 68.2511 235.045 69.8719 232.459 74.9051C229.873 79.9383 232.525 86.4779 238.382 89.5117C244.239 92.5454 251.084 90.9246 253.67 85.8914Z" fill="#FDB022"/>
<path d="M261.902 60.1014C266.212 55.4398 264.966 47.2621 259.119 41.8361C253.272 36.41 245.038 35.7903 240.728 40.452C236.418 45.1136 237.664 53.2913 243.511 58.7173C249.358 64.1434 257.592 64.763 261.902 60.1014Z" fill="#FDB022"/>
<path d="M288.198 28.2648C284.738 21.0762 277.293 17.4765 271.572 20.2248C265.85 22.9731 264.017 31.0285 267.477 38.2172C270.938 45.4058 278.382 49.0055 284.104 46.2572C289.826 43.509 291.659 35.4535 288.198 28.2648Z" fill="#FDB022"/>
<path d="M320.819 36.1595C319.29 29.4863 313.029 25.2147 306.836 26.6186C300.643 28.0225 296.863 34.5702 298.392 41.2434C299.922 47.9165 306.182 52.1881 312.375 50.7842C318.568 49.3803 322.349 42.8326 320.819 36.1595Z" fill="#FDB022"/>
<path d="M274.07 58.9356C274.07 58.9356 263.176 65.2626 262.873 81.0049C262.569 96.7471 260.156 97.3591 264.999 105.106C269.843 112.853 280.186 111.704 289.307 103.033C298.427 94.3613 298.164 95.2 304.263 92.2204C310.363 89.2407 317.754 87.4434 321.166 80.695C324.577 73.9466 322.046 65.0192 312.103 61.8029C306.156 59.8798 297.526 55.3312 289.143 54.7467C283.511 54.3559 277.649 56.902 274.071 58.9321L274.07 58.9356Z" fill="#FDB022"/>
</g>
<path d="M35.4102 99.082V116.758H33.2422V106.426H28.1836V104.668H33.2422V99.082H35.4102ZM23.6914 101.016V110.762C26.0645 110.723 28.418 110.537 30.8984 110.059L31.1523 111.836C28.3008 112.422 25.6641 112.578 22.9688 112.578H21.5234V101.016H23.6914ZM58.7109 109.336V111.055H42.6172V109.336H49.5703V108.203C46.5039 108.047 44.7852 107.109 44.7852 105.527C44.7852 103.77 46.9141 102.852 50.6445 102.852C54.375 102.852 56.5234 103.77 56.5234 105.527C56.5234 107.109 54.7949 108.037 51.7383 108.203V109.336H58.7109ZM56.8945 114.668V116.387H44.6094V111.973H46.7773V114.668H56.8945ZM57.832 100.605V102.246H43.418V100.605H49.5703V98.9648H51.7383V100.605H57.832ZM50.6445 104.375C48.1836 104.375 46.9922 104.746 47.0117 105.527C46.9922 106.309 48.1836 106.68 50.6445 106.68C53.0859 106.68 54.2969 106.309 54.2969 105.527C54.2969 104.746 53.0859 104.375 50.6445 104.375ZM66.2305 104.102C66.2305 106.836 67.8516 109.941 70.6445 111.23L69.4336 112.949C67.4414 112.012 65.9668 110.117 65.1758 107.91C64.375 110.332 62.832 112.402 60.8008 113.379L59.5312 111.68C62.3438 110.352 64.043 107.031 64.0625 104.102V102.617H60.2148V100.82H69.9219V102.617H66.2305V104.102ZM73.7305 99.082V105.957H76.4453V107.773H73.7305V116.738H71.5625V99.082H73.7305ZM88.2227 100.918C88.2031 103.145 89.6484 105.156 92.3828 105.977L91.2695 107.656C89.3164 107.041 87.9395 105.801 87.1875 104.199C86.3965 106.035 84.9121 107.441 82.8125 108.125L81.7383 106.406C84.5703 105.508 86.0352 103.34 86.0547 100.918V99.707H88.2227V100.918ZM95.8594 99.082V102.676H98.3203V104.453H95.8594V108.203H93.6914V99.082H95.8594ZM95.8594 108.926V113.477H86.4844V114.863H96.4062V116.582H84.3359V111.895H93.6914V110.605H84.3164V108.926H95.8594ZM103.965 100.371C106.621 100.371 108.535 102.793 108.555 106.602C108.535 110.449 106.621 112.852 103.965 112.852C101.289 112.852 99.3555 110.449 99.375 106.602C99.3555 102.793 101.289 100.371 103.965 100.371ZM103.965 102.324C102.48 102.324 101.465 103.906 101.465 106.602C101.465 109.316 102.48 110.898 103.965 110.898C105.469 110.898 106.465 109.316 106.465 106.602C106.465 103.906 105.469 102.324 103.965 102.324ZM113.047 99.082V105.859H115.762V107.695H113.047V116.738H110.879V99.082H113.047ZM130.84 107.109V108.828H125.605V112.871H132.637V114.648H116.504V112.871H123.457V108.828H118.457V100.391H130.703V102.129H120.625V107.109H130.84ZM146.738 100.43V101.602C146.738 102.852 146.738 104.473 146.328 106.602L144.316 106.406C144.648 104.658 144.697 103.301 144.707 102.188H139.238V100.43H146.738ZM143.027 104.473V107.91C144.512 107.861 146.016 107.764 147.305 107.598L147.422 109.16C144.57 109.688 140.898 109.766 138.535 109.766L138.34 108.008C139.111 108.008 140.029 107.998 141.016 107.969V104.473H143.027ZM153.789 99.1016V112.441H151.699V106.23H150.098V111.992H148.086V99.4141H150.098V104.453H151.699V99.1016H153.789ZM154.199 114.629V116.387H141.348V111.074H143.574V114.629H154.199ZM162.031 104.688C162.031 107.305 163.516 110.156 166.23 111.445L165.02 113.086C163.115 112.197 161.729 110.449 160.996 108.379C160.215 110.605 158.76 112.49 156.738 113.398L155.547 111.719C158.32 110.469 159.883 107.461 159.883 104.688V103.77H156.113V102.031H159.883V99.4531H162.051V102.031H165.762V103.77H162.031V104.688ZM169.648 99.082V106.074H172.363V107.891H169.648V116.738H167.48V99.082H169.648ZM187.031 99.082V103.281H189.492V105.059H187.031V109.453H184.863V99.082H187.031ZM181.27 109.688C184.863 109.668 187.188 111.035 187.207 113.203C187.188 115.41 184.863 116.738 181.27 116.738C177.637 116.738 175.293 115.41 175.293 113.203C175.293 111.035 177.637 109.668 181.27 109.688ZM181.27 111.426C178.867 111.426 177.402 112.051 177.422 113.203C177.402 114.355 178.867 115 181.27 115C183.613 115 185.059 114.355 185.059 113.203C185.059 112.051 183.613 111.426 181.27 111.426ZM176.055 100.117V106.406C178.32 106.387 180.703 106.191 183.281 105.684L183.535 107.441C180.605 108.027 177.891 108.223 175.332 108.203H173.867V100.117H176.055ZM192.539 115.156C191.699 115.156 191.016 114.473 191.016 113.633C191.016 112.812 191.699 112.129 192.539 112.129C193.34 112.129 194.043 112.812 194.043 113.633C194.043 114.473 193.34 115.156 192.539 115.156Z" fill="#262626"/>
<path d="M31.5664 139.006H20.4922V138.131H25.4961V137.153C24.3978 137.117 23.5524 136.941 22.96 136.627C22.3721 136.308 22.0781 135.87 22.0781 135.314C22.0781 134.717 22.4199 134.262 23.1035 133.947C23.7871 133.628 24.7624 133.469 26.0293 133.469C27.2826 133.469 28.251 133.628 28.9346 133.947C29.6227 134.262 29.9668 134.717 29.9668 135.314C29.9668 135.866 29.6706 136.301 29.0781 136.62C28.4902 136.935 27.6517 137.112 26.5625 137.153V138.131H31.5664V139.006ZM30.3359 142.848H21.9277V139.785H23.0078V141.959H30.3359V142.848ZM30.9238 132.936H21.0664V132.088H25.4961V130.816H26.5625V132.088H30.9238V132.936ZM26.0293 134.262C25.1042 134.262 24.3955 134.353 23.9033 134.535C23.4111 134.713 23.1673 134.973 23.1719 135.314C23.1673 135.656 23.4111 135.918 23.9033 136.101C24.3955 136.278 25.1042 136.367 26.0293 136.367C26.9453 136.367 27.6494 136.278 28.1416 136.101C28.6383 135.918 28.8867 135.656 28.8867 135.314C28.8867 134.973 28.6383 134.713 28.1416 134.535C27.6494 134.353 26.9453 134.262 26.0293 134.262ZM36.707 134.686C36.7025 135.324 36.8392 135.973 37.1172 136.634C37.3997 137.29 37.7826 137.885 38.2656 138.418C38.7487 138.947 39.2819 139.348 39.8652 139.621L39.25 140.469C38.571 140.141 37.958 139.639 37.4111 138.965C36.8688 138.29 36.4587 137.538 36.1807 136.709C35.9984 137.301 35.7477 137.864 35.4287 138.397C35.1097 138.931 34.7451 139.402 34.335 139.812C33.9248 140.218 33.4941 140.537 33.043 140.77L32.3867 139.922C32.9655 139.644 33.5033 139.222 34 138.657C34.5013 138.092 34.9001 137.459 35.1963 136.757C35.4971 136.055 35.6497 135.365 35.6543 134.686V133.1H32.8242V132.211H39.4414V133.1H36.707V134.686ZM41.998 135.875H44.0352V136.791H41.998V143.107H40.9316V130.953H41.998V135.875ZM50.8301 137.652H45.2109V132.061H50.8301V137.652ZM46.2637 136.791H49.791V132.936H46.2637V136.791ZM54.1934 134.658H56.0254V135.561H54.1934V139.867H53.127V130.953H54.1934V134.658ZM54.7539 142.848H46.5918V139.02H47.6445V141.945H54.7539V142.848ZM60.7695 131.842C61.403 131.842 61.9658 131.963 62.458 132.204C62.9548 132.446 63.3421 132.783 63.6201 133.216C63.8981 133.649 64.0371 134.143 64.0371 134.699C64.0371 135.255 63.8981 135.75 63.6201 136.183C63.3421 136.616 62.9548 136.953 62.458 137.194C61.9658 137.436 61.403 137.557 60.7695 137.557C60.1361 137.557 59.5687 137.436 59.0674 137.194C58.5706 136.953 58.181 136.616 57.8984 136.183C57.6204 135.75 57.4837 135.255 57.4883 134.699C57.4837 134.143 57.6204 133.649 57.8984 133.216C58.181 132.783 58.5706 132.446 59.0674 132.204C59.5687 131.963 60.1361 131.842 60.7695 131.842ZM60.7695 132.785C60.3411 132.785 59.9561 132.867 59.6143 133.031C59.277 133.191 59.0127 133.416 58.8213 133.708C58.6299 133.995 58.5365 134.326 58.541 134.699C58.5365 135.073 58.6299 135.406 58.8213 135.697C59.0127 135.984 59.277 136.21 59.6143 136.374C59.9561 136.534 60.3411 136.613 60.7695 136.613C61.1934 136.613 61.5739 136.534 61.9111 136.374C62.2484 136.21 62.5104 135.984 62.6973 135.697C62.8887 135.406 62.9844 135.073 62.9844 134.699C62.9844 134.326 62.8887 133.995 62.6973 133.708C62.5104 133.416 62.2484 133.191 61.9111 133.031C61.5739 132.867 61.1934 132.785 60.7695 132.785ZM66.7578 143.135H65.6914V130.953H66.7578V143.135ZM56.8594 139.539C58.4362 139.539 59.8695 139.514 61.1592 139.464C62.4535 139.414 63.6953 139.302 64.8848 139.129L64.9668 139.922C63.7454 140.15 62.499 140.296 61.2275 140.359C59.9606 140.423 58.5547 140.455 57.0098 140.455L56.8594 139.539ZM75.8496 131.404C76.4512 131.409 76.9889 131.525 77.4629 131.753C77.9414 131.981 78.3151 132.3 78.584 132.71C78.8574 133.116 78.9941 133.578 78.9941 134.098C78.9941 134.617 78.8574 135.082 78.584 135.492C78.3151 135.898 77.9414 136.215 77.4629 136.442C76.9889 136.666 76.4512 136.777 75.8496 136.777C75.2389 136.777 74.6943 136.666 74.2158 136.442C73.7373 136.215 73.3636 135.898 73.0947 135.492C72.8258 135.082 72.6914 134.617 72.6914 134.098C72.6914 133.578 72.8258 133.116 73.0947 132.71C73.3636 132.3 73.7373 131.981 74.2158 131.753C74.6943 131.525 75.2389 131.409 75.8496 131.404ZM75.8496 132.307C75.4486 132.307 75.0863 132.384 74.7627 132.539C74.4437 132.689 74.193 132.901 74.0107 133.175C73.8285 133.444 73.7396 133.751 73.7441 134.098C73.7396 134.449 73.8285 134.761 74.0107 135.034C74.193 135.308 74.4437 135.522 74.7627 135.677C75.0863 135.827 75.4486 135.902 75.8496 135.902C76.2461 135.902 76.6038 135.827 76.9229 135.677C77.2464 135.522 77.4993 135.308 77.6816 135.034C77.8639 134.761 77.9551 134.449 77.9551 134.098C77.9551 133.751 77.8639 133.444 77.6816 133.175C77.4993 132.901 77.2464 132.689 76.9229 132.539C76.6038 132.384 76.2461 132.307 75.8496 132.307ZM82.4395 137.201H81.373V130.953H82.4395V137.201ZM82.4395 140.715H75.6172V142.082H82.877V142.943H74.5645V139.908H81.373V138.65H74.5371V137.789H82.4395V140.715ZM88.5645 132.922C88.5645 133.464 88.6921 133.988 88.9473 134.494C89.207 134.995 89.5648 135.438 90.0205 135.82C90.4808 136.203 91.0026 136.495 91.5859 136.695L90.998 137.543C90.3281 137.297 89.738 136.935 89.2275 136.456C88.7171 135.973 88.3275 135.415 88.0586 134.781C87.7988 135.501 87.4069 136.13 86.8828 136.668C86.3587 137.206 85.7435 137.611 85.0371 137.885L84.4629 137.023C85.0645 136.796 85.5931 136.472 86.0488 136.053C86.5091 135.633 86.8669 135.148 87.1221 134.597C87.3773 134.041 87.5072 133.455 87.5117 132.84V131.582H88.5645V132.922ZM94.0059 134.125H95.8379V135.027H94.0059V138.35H92.9395V130.953H94.0059V134.125ZM90.1094 138.664C90.9388 138.664 91.6543 138.751 92.2559 138.924C92.8574 139.097 93.3177 139.35 93.6367 139.683C93.9557 140.011 94.1152 140.405 94.1152 140.865C94.1152 141.335 93.9557 141.736 93.6367 142.068C93.3177 142.401 92.8574 142.652 92.2559 142.82C91.6589 142.993 90.9434 143.08 90.1094 143.08C89.2754 143.08 88.5553 142.993 87.9492 142.82C87.3477 142.647 86.8851 142.394 86.5615 142.062C86.238 141.733 86.0762 141.335 86.0762 140.865C86.0762 140.405 86.238 140.011 86.5615 139.683C86.8851 139.35 87.3499 139.097 87.9561 138.924C88.5622 138.751 89.2799 138.664 90.1094 138.664ZM90.1094 139.525C89.5033 139.525 88.9769 139.58 88.5303 139.689C88.0837 139.794 87.7419 139.949 87.5049 140.154C87.2679 140.355 87.1517 140.592 87.1562 140.865C87.1517 141.148 87.2679 141.392 87.5049 141.597C87.7419 141.802 88.0814 141.957 88.5234 142.062C88.9701 142.171 89.4987 142.228 90.1094 142.232C91.0391 142.223 91.766 142.1 92.29 141.863C92.8141 141.626 93.0762 141.294 93.0762 140.865C93.0762 140.587 92.9577 140.348 92.7207 140.147C92.4837 139.947 92.1419 139.794 91.6953 139.689C91.2487 139.58 90.7201 139.525 90.1094 139.525ZM102.141 131.172C103.043 131.172 103.815 131.254 104.458 131.418C105.101 131.577 105.59 131.814 105.928 132.129C106.265 132.439 106.434 132.817 106.434 133.264C106.434 133.947 106.06 134.471 105.312 134.836C104.565 135.201 103.508 135.387 102.141 135.396C101.238 135.392 100.464 135.308 99.8164 135.144C99.1738 134.979 98.6816 134.74 98.3398 134.426C98.0026 134.107 97.834 133.719 97.834 133.264C97.834 132.817 98.0026 132.439 98.3398 132.129C98.6816 131.814 99.1738 131.577 99.8164 131.418C100.464 131.254 101.238 131.172 102.141 131.172ZM102.141 131.979C101.471 131.979 100.896 132.031 100.418 132.136C99.9395 132.236 99.5749 132.384 99.3242 132.58C99.0736 132.771 98.9505 132.999 98.9551 133.264C98.9505 133.683 99.2262 134.007 99.7822 134.234C100.338 134.462 101.124 134.576 102.141 134.576C103.152 134.576 103.938 134.462 104.499 134.234C105.06 134.007 105.34 133.683 105.34 133.264C105.34 132.999 105.212 132.771 104.957 132.58C104.702 132.389 104.335 132.241 103.856 132.136C103.378 132.031 102.806 131.979 102.141 131.979ZM107.678 137.092H96.6035V136.217H107.678V137.092ZM106.256 140.865H99.0371V142.123H106.625V142.971H97.9707V140.072H105.203V138.965H97.9434V138.145H106.256V140.865ZM121.623 135.902H123.592V136.805H121.623V143.107H120.557V130.953H121.623V135.902ZM118.479 132.266C118.479 134.075 118.025 135.715 117.118 137.188C116.211 138.655 114.805 139.858 112.9 140.797L112.299 139.949C113.862 139.17 115.072 138.208 115.929 137.064C116.785 135.916 117.275 134.617 117.398 133.168H112.859V132.266H118.479ZM125.998 133.482H129.389V131.582H130.441V132.799H133.312V130.953H134.393V137.598H133.312V135.998H130.441V137.16H124.932V131.582H125.998V133.482ZM129.389 136.271V134.344H125.998V136.271H129.389ZM127.639 139.676H133.312V138.186H134.379V142.943H126.559V138.186H127.639V139.676ZM133.312 142.055V140.537H127.639V142.055H133.312ZM133.312 135.109V133.688H130.441V135.109H133.312ZM146.82 143.107H145.795V130.953H146.82V143.107ZM144.264 142.492H143.238V136.818H140.661C139.886 138.304 138.686 139.525 137.059 140.482L136.43 139.703C137.729 138.938 138.722 138.021 139.41 136.955C140.103 135.884 140.499 134.699 140.6 133.4H136.949V132.512H141.666C141.657 133.751 141.454 134.895 141.058 135.943H143.238V131.281H144.264V142.492ZM162.078 143.107H160.998V130.953H162.078V143.107ZM158.482 132.279C158.473 134.116 158.008 135.766 157.088 137.229C156.167 138.687 154.727 139.885 152.768 140.824L152.18 139.949C153.802 139.179 155.044 138.222 155.905 137.078C156.771 135.934 157.266 134.626 157.389 133.154H152.74V132.279H158.482ZM175.244 138.541H164.115V137.652H169.146V136.367H165.564V133.4H172.729V132.143H165.523V131.268H173.809V134.207H166.631V135.506H174.068V136.367H170.199V137.652H175.244V138.541ZM173.877 142.998H172.797V140.346H165.359V139.471H173.877V142.998ZM185.635 135.971H187.672V136.859H185.635V143.107H184.568V130.953H185.635V135.971ZM183.393 133.797H176.16V132.908H179.291V131.104H180.357V132.908H183.393V133.797ZM179.838 134.809C180.408 134.809 180.918 134.927 181.369 135.164C181.82 135.401 182.174 135.731 182.429 136.155C182.684 136.579 182.814 137.06 182.818 137.598C182.814 138.135 182.684 138.616 182.429 139.04C182.174 139.464 181.82 139.794 181.369 140.031C180.918 140.268 180.408 140.387 179.838 140.387C179.264 140.387 178.749 140.268 178.293 140.031C177.842 139.794 177.489 139.464 177.233 139.04C176.978 138.616 176.853 138.135 176.857 137.598C176.853 137.06 176.978 136.579 177.233 136.155C177.489 135.731 177.842 135.401 178.293 135.164C178.749 134.927 179.264 134.809 179.838 134.809ZM179.838 135.711C179.464 135.711 179.127 135.793 178.826 135.957C178.53 136.117 178.298 136.34 178.129 136.627C177.96 136.914 177.878 137.238 177.883 137.598C177.878 137.962 177.96 138.288 178.129 138.575C178.298 138.858 178.53 139.079 178.826 139.238C179.127 139.398 179.464 139.475 179.838 139.471C180.207 139.475 180.54 139.398 180.836 139.238C181.132 139.079 181.365 138.858 181.533 138.575C181.702 138.288 181.788 137.962 181.793 137.598C181.788 137.238 181.702 136.914 181.533 136.627C181.365 136.34 181.132 136.117 180.836 135.957C180.54 135.793 180.207 135.711 179.838 135.711ZM194.48 133.1H197.324V130.967H198.404V139.84H197.324V136.6H194.48V137.693H188.902V132.02H194.48V133.1ZM189.969 136.832H193.428V132.908H189.969V136.832ZM198.678 142.848H190.543V139.047H191.623V141.945H198.678V142.848ZM197.324 135.711V134.002H194.48V135.711H197.324ZM204.707 134.221C204.707 134.941 204.848 135.652 205.131 136.354C205.413 137.055 205.796 137.68 206.279 138.227C206.762 138.769 207.296 139.174 207.879 139.443L207.236 140.318C206.548 139.963 205.933 139.441 205.391 138.753C204.848 138.065 204.443 137.288 204.174 136.422C203.9 137.338 203.493 138.16 202.95 138.89C202.412 139.619 201.799 140.168 201.111 140.537L200.414 139.676C201.002 139.389 201.54 138.958 202.027 138.384C202.515 137.805 202.9 137.151 203.183 136.422C203.47 135.688 203.613 134.954 203.613 134.221V132.006H204.707V134.221ZM210.504 143.135H209.438V135.984H206.553V135.109H209.438V130.953H210.504V143.135ZM213.457 144.803H212.445L213.197 141.084H214.523L213.457 144.803ZM29.9941 153.797H31.8262V154.686H29.9941V157.461H28.9277V150.953H29.9941V153.797ZM26.7266 151.814C26.722 152.812 26.4919 153.706 26.0361 154.494C25.5804 155.278 24.9242 155.939 24.0674 156.477C23.2152 157.014 22.1875 157.42 20.9844 157.693L20.5332 156.818C21.5495 156.595 22.4222 156.283 23.1514 155.882C23.8805 155.481 24.4456 155.009 24.8467 154.467C25.2477 153.924 25.4779 153.332 25.5371 152.689H21.0527V151.814H26.7266ZM30.0488 158.828H23.377V160.031H29.9121V160.852H23.377V162.109H30.3359V162.943H22.2969V158.008H30.0488V158.828ZM43.666 158.24H32.5918V157.365H43.666V158.24ZM42.4355 162.848H34.0273V159.307H35.1074V161.945H42.4355V162.848ZM38.1289 151.391C38.9948 151.386 39.7513 151.479 40.3984 151.671C41.0456 151.862 41.5446 152.14 41.8955 152.505C42.2464 152.865 42.4219 153.296 42.4219 153.797C42.4219 154.298 42.2464 154.731 41.8955 155.096C41.5446 155.456 41.0456 155.734 40.3984 155.93C39.7513 156.121 38.9948 156.217 38.1289 156.217C37.2539 156.217 36.4928 156.121 35.8457 155.93C35.1986 155.734 34.6995 155.456 34.3486 155.096C33.9977 154.731 33.8223 154.298 33.8223 153.797C33.8223 153.296 33.9977 152.865 34.3486 152.505C34.6995 152.14 35.1986 151.862 35.8457 151.671C36.4928 151.479 37.2539 151.386 38.1289 151.391ZM38.1289 152.252C37.4818 152.252 36.9167 152.316 36.4336 152.443C35.9505 152.566 35.5768 152.744 35.3125 152.977C35.0527 153.209 34.9251 153.482 34.9297 153.797C34.9251 154.111 35.0527 154.385 35.3125 154.617C35.5768 154.85 35.9505 155.03 36.4336 155.157C36.9167 155.28 37.4818 155.342 38.1289 155.342C38.7715 155.342 39.3343 155.28 39.8174 155.157C40.3005 155.03 40.6719 154.85 40.9316 154.617C41.196 154.385 41.3281 154.111 41.3281 153.797C41.3281 153.482 41.196 153.209 40.9316 152.977C40.6719 152.744 40.3005 152.566 39.8174 152.443C39.3343 152.316 38.7715 152.252 38.1289 152.252ZM49.2852 152.102H50.2969L49.5449 155.82H48.2188L49.2852 152.102ZM62.3691 159.006H51.2949V158.131H56.2988V157.153C55.2005 157.117 54.3551 156.941 53.7627 156.627C53.1748 156.308 52.8809 155.87 52.8809 155.314C52.8809 154.717 53.2227 154.262 53.9062 153.947C54.5898 153.628 55.5651 153.469 56.832 153.469C58.0853 153.469 59.0537 153.628 59.7373 153.947C60.4255 154.262 60.7695 154.717 60.7695 155.314C60.7695 155.866 60.4733 156.301 59.8809 156.62C59.293 156.935 58.4544 157.112 57.3652 157.153V158.131H62.3691V159.006ZM61.1387 162.848H52.7305V159.785H53.8105V161.959H61.1387V162.848ZM61.7266 152.936H51.8691V152.088H56.2988V150.816H57.3652V152.088H61.7266V152.936ZM56.832 154.262C55.9069 154.262 55.1982 154.353 54.7061 154.535C54.2139 154.713 53.9701 154.973 53.9746 155.314C53.9701 155.656 54.2139 155.918 54.7061 156.101C55.1982 156.278 55.9069 156.367 56.832 156.367C57.748 156.367 58.4521 156.278 58.9443 156.101C59.4411 155.918 59.6895 155.656 59.6895 155.314C59.6895 154.973 59.4411 154.713 58.9443 154.535C58.4521 154.353 57.748 154.262 56.832 154.262ZM67.5098 154.686C67.5052 155.324 67.6419 155.973 67.9199 156.634C68.2025 157.29 68.5853 157.885 69.0684 158.418C69.5514 158.947 70.0846 159.348 70.668 159.621L70.0527 160.469C69.3737 160.141 68.7607 159.639 68.2139 158.965C67.6715 158.29 67.2614 157.538 66.9834 156.709C66.8011 157.301 66.5505 157.864 66.2314 158.397C65.9124 158.931 65.5479 159.402 65.1377 159.812C64.7275 160.218 64.2969 160.537 63.8457 160.77L63.1895 159.922C63.7682 159.644 64.306 159.222 64.8027 158.657C65.304 158.092 65.7028 157.459 65.999 156.757C66.2998 156.055 66.4525 155.365 66.457 154.686V153.1H63.627V152.211H70.2441V153.1H67.5098V154.686ZM72.8008 155.875H74.8379V156.791H72.8008V163.107H71.7344V150.953H72.8008V155.875ZM85.584 152.334H81.7285C81.7331 152.776 81.9336 153.191 82.3301 153.578C82.7266 153.961 83.2484 154.282 83.8955 154.542C84.5426 154.802 85.2285 154.973 85.9531 155.055L85.5566 155.902C84.8822 155.816 84.2419 155.661 83.6357 155.438C83.0296 155.214 82.4987 154.929 82.043 154.583C81.5872 154.237 81.25 153.845 81.0312 153.407C80.8171 153.845 80.4821 154.237 80.0264 154.583C79.5752 154.929 79.0465 155.214 78.4404 155.438C77.8343 155.661 77.194 155.816 76.5195 155.902L76.123 155.055C76.8431 154.973 77.5244 154.802 78.167 154.542C78.8096 154.282 79.3291 153.961 79.7256 153.578C80.1221 153.191 80.3249 152.776 80.334 152.334H76.5059V151.459H85.584V152.334ZM86.6094 157.953H75.4941V157.064H80.498V155.219H81.5508V157.064H86.6094V157.953ZM85.2012 163.107H84.1211V160.031H76.7246V159.156H85.2012V163.107ZM88.6191 155.834H87.6074L88.3594 152.115H89.6855L88.6191 155.834ZM100.719 163.107H99.6523V150.953H100.719V163.107ZM94.4707 152.279C94.457 155.62 93.4772 158.304 91.5312 160.332L90.6836 159.717C92.3743 157.994 93.2972 155.816 93.4521 153.182H91.1348V152.279H94.4707ZM97.875 152.279C97.875 153.97 97.6813 155.572 97.2939 157.085C96.9066 158.593 96.207 159.949 95.1953 161.152L94.2656 160.564C95.1406 159.566 95.7764 158.443 96.1729 157.194C96.5693 155.941 96.7972 154.604 96.8564 153.182H94.8672V152.279H97.875ZM112.818 163.135H111.752V150.953H112.818V163.135ZM109.127 156.408H104.588V159.279C105.677 159.279 106.689 159.247 107.623 159.184C108.562 159.12 109.546 159.006 110.576 158.842L110.686 159.744C109.633 159.913 108.626 160.029 107.664 160.093C106.702 160.152 105.65 160.182 104.506 160.182H103.494V155.533H108.047V152.977H103.467V152.088H109.127V156.408ZM123.893 158.637C124.763 158.637 125.517 158.726 126.155 158.903C126.798 159.076 127.292 159.332 127.639 159.669C127.985 160.002 128.158 160.4 128.158 160.865C128.158 161.326 127.985 161.722 127.639 162.055C127.292 162.387 126.798 162.64 126.155 162.813C125.513 162.991 124.758 163.08 123.893 163.08C123.027 163.08 122.275 162.991 121.637 162.813C120.999 162.64 120.507 162.387 120.16 162.055C119.814 161.722 119.641 161.326 119.641 160.865C119.641 160.4 119.814 160.002 120.16 159.669C120.507 159.332 120.999 159.076 121.637 158.903C122.275 158.726 123.027 158.637 123.893 158.637ZM123.893 159.457C123.25 159.462 122.687 159.521 122.204 159.635C121.721 159.749 121.35 159.913 121.09 160.127C120.83 160.337 120.702 160.583 120.707 160.865C120.702 161.143 120.83 161.387 121.09 161.597C121.35 161.802 121.721 161.959 122.204 162.068C122.687 162.178 123.25 162.232 123.893 162.232C124.535 162.232 125.096 162.178 125.574 162.068C126.057 161.959 126.429 161.802 126.688 161.597C126.953 161.387 127.087 161.143 127.092 160.865C127.087 160.583 126.953 160.337 126.688 160.127C126.429 159.913 126.057 159.749 125.574 159.635C125.096 159.521 124.535 159.462 123.893 159.457ZM128.062 152.607C128.062 153.264 128.042 153.826 128.001 154.296C127.965 154.761 127.871 155.273 127.721 155.834L126.668 155.711C126.814 155.15 126.905 154.649 126.941 154.207C126.978 153.765 126.996 153.232 126.996 152.607V152.457H119.723V151.582H128.062V152.607ZM129.471 157.502H118.41V156.627H122.99V154.275H124.043V156.627H129.471V157.502ZM139.998 153.934H141.83V154.822H139.998V157.857H138.932V150.953H139.998V153.934ZM136.676 151.746C136.671 152.758 136.441 153.674 135.985 154.494C135.53 155.314 134.871 156.019 134.01 156.606C133.153 157.194 132.123 157.652 130.92 157.98L130.482 157.119C131.476 156.85 132.337 156.497 133.066 156.06C133.796 155.618 134.368 155.107 134.782 154.528C135.201 153.95 135.448 153.318 135.521 152.635H131.029V151.746H136.676ZM139.998 162.943H132.301V158.418H139.998V162.943ZM133.367 162.068H138.932V159.307H133.367V162.068ZM152.002 155.971H154.039V156.859H152.002V163.107H150.936V150.953H152.002V155.971ZM149.76 153.797H142.527V152.908H145.658V151.104H146.725V152.908H149.76V153.797ZM146.205 154.809C146.775 154.809 147.285 154.927 147.736 155.164C148.188 155.401 148.541 155.731 148.796 156.155C149.051 156.579 149.181 157.06 149.186 157.598C149.181 158.135 149.051 158.616 148.796 159.04C148.541 159.464 148.188 159.794 147.736 160.031C147.285 160.268 146.775 160.387 146.205 160.387C145.631 160.387 145.116 160.268 144.66 160.031C144.209 159.794 143.856 159.464 143.601 159.04C143.345 158.616 143.22 158.135 143.225 157.598C143.22 157.06 143.345 156.579 143.601 156.155C143.856 155.731 144.209 155.401 144.66 155.164C145.116 154.927 145.631 154.809 146.205 154.809ZM146.205 155.711C145.831 155.711 145.494 155.793 145.193 155.957C144.897 156.117 144.665 156.34 144.496 156.627C144.327 156.914 144.245 157.238 144.25 157.598C144.245 157.962 144.327 158.288 144.496 158.575C144.665 158.858 144.897 159.079 145.193 159.238C145.494 159.398 145.831 159.475 146.205 159.471C146.574 159.475 146.907 159.398 147.203 159.238C147.499 159.079 147.732 158.858 147.9 158.575C148.069 158.288 148.156 157.962 148.16 157.598C148.156 157.238 148.069 156.914 147.9 156.627C147.732 156.34 147.499 156.117 147.203 155.957C146.907 155.793 146.574 155.711 146.205 155.711ZM164.443 153.4V153.551C164.434 154.553 164.402 155.453 164.348 156.251C164.298 157.044 164.179 157.962 163.992 159.006L162.898 158.883C163.044 158.163 163.149 157.484 163.213 156.846C163.281 156.208 163.322 155.64 163.336 155.144C163.354 154.647 163.363 154.066 163.363 153.4V153.072H155.871V152.184H164.443V153.4ZM165.77 161.385H154.695V160.496H159.043V156.148H160.096V160.496H165.77V161.385ZM175.805 158.637C176.675 158.637 177.429 158.726 178.067 158.903C178.71 159.076 179.204 159.332 179.551 159.669C179.897 160.002 180.07 160.4 180.07 160.865C180.07 161.326 179.897 161.722 179.551 162.055C179.204 162.387 178.71 162.64 178.067 162.813C177.425 162.991 176.671 163.08 175.805 163.08C174.939 163.08 174.187 162.991 173.549 162.813C172.911 162.64 172.419 162.387 172.072 162.055C171.726 161.722 171.553 161.326 171.553 160.865C171.553 160.4 171.726 160.002 172.072 159.669C172.419 159.332 172.911 159.076 173.549 158.903C174.187 158.726 174.939 158.637 175.805 158.637ZM175.805 159.457C175.162 159.462 174.599 159.521 174.116 159.635C173.633 159.749 173.262 159.913 173.002 160.127C172.742 160.337 172.615 160.583 172.619 160.865C172.615 161.143 172.742 161.387 173.002 161.597C173.262 161.802 173.633 161.959 174.116 162.068C174.599 162.178 175.162 162.232 175.805 162.232C176.447 162.232 177.008 162.178 177.486 162.068C177.969 161.959 178.341 161.802 178.601 161.597C178.865 161.387 178.999 161.143 179.004 160.865C178.999 160.583 178.865 160.337 178.601 160.127C178.341 159.913 177.969 159.749 177.486 159.635C177.008 159.521 176.447 159.462 175.805 159.457ZM179.975 152.607C179.975 153.264 179.954 153.826 179.913 154.296C179.877 154.761 179.783 155.273 179.633 155.834L178.58 155.711C178.726 155.15 178.817 154.649 178.854 154.207C178.89 153.765 178.908 153.232 178.908 152.607V152.457H171.635V151.582H179.975V152.607ZM181.383 157.502H170.322V156.627H174.902V154.275H175.955V156.627H181.383V157.502ZM193.523 158.773H190.584V163.107H189.504V158.773H186.387V163.107H185.279V158.773H182.395V157.885H193.523V158.773ZM187.932 151.445C188.779 151.445 189.527 151.555 190.174 151.773C190.821 151.988 191.322 152.295 191.678 152.696C192.033 153.097 192.211 153.564 192.211 154.098C192.211 154.631 192.031 155.096 191.671 155.492C191.315 155.889 190.814 156.194 190.167 156.408C189.524 156.622 188.779 156.727 187.932 156.723C187.084 156.727 186.337 156.622 185.689 156.408C185.047 156.194 184.546 155.889 184.186 155.492C183.83 155.096 183.652 154.631 183.652 154.098C183.652 153.564 183.83 153.097 184.186 152.696C184.541 152.295 185.042 151.988 185.689 151.773C186.337 151.555 187.084 151.445 187.932 151.445ZM187.932 152.32C187.303 152.32 186.747 152.393 186.264 152.539C185.785 152.685 185.414 152.892 185.149 153.161C184.885 153.43 184.755 153.742 184.76 154.098C184.755 154.453 184.885 154.765 185.149 155.034C185.414 155.299 185.785 155.504 186.264 155.649C186.747 155.791 187.303 155.861 187.932 155.861C188.556 155.861 189.11 155.791 189.593 155.649C190.076 155.504 190.45 155.299 190.714 155.034C190.983 154.765 191.117 154.453 191.117 154.098C191.117 153.742 190.983 153.43 190.714 153.161C190.45 152.892 190.076 152.685 189.593 152.539C189.11 152.393 188.556 152.32 187.932 152.32ZM200.578 153.934H194.48V153.059H197.01V151.322H198.076V153.059H200.578V153.934ZM197.529 154.754C198.035 154.754 198.486 154.872 198.883 155.109C199.284 155.342 199.596 155.668 199.819 156.087C200.047 156.506 200.163 156.982 200.168 157.516C200.163 158.053 200.047 158.534 199.819 158.958C199.596 159.377 199.284 159.708 198.883 159.949C198.486 160.186 198.035 160.305 197.529 160.305C197.028 160.305 196.579 160.186 196.183 159.949C195.786 159.708 195.476 159.375 195.253 158.951C195.03 158.527 194.918 158.049 194.918 157.516C194.918 156.987 195.03 156.513 195.253 156.094C195.476 155.67 195.786 155.342 196.183 155.109C196.579 154.872 197.028 154.754 197.529 154.754ZM197.529 155.656C197.215 155.661 196.93 155.745 196.675 155.909C196.424 156.069 196.228 156.29 196.087 156.572C195.946 156.85 195.875 157.165 195.875 157.516C195.875 157.871 195.946 158.19 196.087 158.473C196.233 158.755 196.431 158.976 196.682 159.136C196.932 159.291 197.215 159.366 197.529 159.361C197.848 159.366 198.135 159.291 198.391 159.136C198.646 158.976 198.846 158.755 198.992 158.473C199.138 158.19 199.211 157.871 199.211 157.516C199.211 157.165 199.138 156.85 198.992 156.572C198.846 156.29 198.646 156.069 198.391 155.909C198.135 155.745 197.848 155.661 197.529 155.656ZM204.857 163.107H203.832V156.969H202.219V162.506H201.207V151.254H202.219V156.08H203.832V150.953H204.857V163.107ZM217.736 161.549H206.607V160.646H209.369V157.365C208.84 157.092 208.43 156.741 208.139 156.312C207.847 155.88 207.701 155.392 207.701 154.85C207.701 154.23 207.89 153.685 208.269 153.216C208.647 152.742 209.171 152.375 209.841 152.115C210.515 151.855 211.283 151.723 212.145 151.719C213.006 151.723 213.771 151.855 214.441 152.115C215.116 152.375 215.642 152.742 216.021 153.216C216.399 153.685 216.588 154.23 216.588 154.85C216.588 155.383 216.447 155.864 216.164 156.292C215.882 156.716 215.485 157.064 214.975 157.338V160.646H217.736V161.549ZM212.145 152.607C211.484 152.603 210.896 152.694 210.381 152.881C209.866 153.068 209.463 153.332 209.171 153.674C208.884 154.011 208.74 154.403 208.74 154.85C208.74 155.296 208.884 155.693 209.171 156.039C209.463 156.381 209.866 156.647 210.381 156.839C210.896 157.026 211.484 157.119 212.145 157.119C212.801 157.119 213.386 157.023 213.901 156.832C214.416 156.641 214.82 156.374 215.111 156.032C215.403 155.69 215.549 155.296 215.549 154.85C215.549 154.403 215.403 154.011 215.111 153.674C214.82 153.332 214.416 153.068 213.901 152.881C213.386 152.694 212.801 152.603 212.145 152.607ZM213.895 160.646V157.755C213.352 157.896 212.769 157.967 212.145 157.967C211.516 157.967 210.941 157.898 210.422 157.762V160.646H213.895Z" fill="#262626"/>
<g clip-path="url(#clip1_2126_65873)">
<path opacity="0.5" d="M313.058 165.624C334.929 165.624 352.66 160.924 352.66 155.126C352.66 149.328 334.929 144.628 313.058 144.628C291.186 144.628 273.456 149.328 273.456 155.126C273.456 160.924 291.186 165.624 313.058 165.624Z" fill="#5E331A"/>
<path d="M286.019 141.396C283.282 138.925 280.404 136.376 276.85 135.425C273.297 134.476 268.882 135.692 267.397 139.078C266.578 140.947 266.777 143.113 267.295 145.089C268.896 151.206 273.546 156.429 279.409 158.701C285.273 160.972 292.201 160.233 297.461 156.775L308.735 146.095L314.697 147.33C312.902 145.369 311.085 143.389 308.889 141.899C306.693 140.408 304.049 139.431 301.415 139.712C298.781 139.993 296.218 141.728 295.437 144.276C294.675 146.758 295.648 149.408 296.619 151.816C298.68 156.929 301.158 162.439 306.063 164.906C309.655 166.711 313.984 166.503 317.795 165.231C321.605 163.959 325.009 161.715 328.364 159.497L330.833 158.111C340.352 158.182 349.58 151.714 352.818 142.702C354.712 137.431 354.658 131.594 353.448 126.122C352.239 120.65 349.926 115.49 347.373 110.508L344.61 107.539L329.858 115.226C327.156 116.749 323.962 117.085 320.867 117.158C317.772 117.232 314.64 117.075 311.613 117.73C308.585 118.386 305.589 120.003 304.117 122.745C302.19 126.334 303.449 131.066 306.326 133.942C309.203 136.816 313.345 138.076 317.389 138.367C322.865 138.763 328.448 137.537 333.263 134.881C336.079 133.329 338.747 131.148 339.886 128.125" fill="white"/>
<path d="M283.965 136.117L294.558 134.991L293.854 113.837L331.521 114.504L308.735 137.997L285.906 143.381L280.804 137.337L283.965 136.117Z" fill="white"/>
<path d="M305.422 116.345C303.67 116.248 290.746 115.115 284.658 107.733C278.569 100.351 276.593 86.6598 281.793 77.1211L283.371 73.9952C282.784 68.9864 282.196 63.9776 281.608 58.9702C281.348 56.7639 281.316 54.0518 283.193 52.8837C284.636 51.9867 286.505 52.498 288.086 53.1125C290.283 53.9671 294.209 55.7539 297.158 57.9348C300.723 60.572 303.005 63.2558 303.005 63.2558C306.23 61.8404 309.916 61.4873 313.432 61.6088L315.001 61.8899C315.001 61.8899 315.234 59.2923 315.992 56.5845C316.772 53.7947 318.092 50.8666 319.153 49.1306C319.833 48.0175 320.686 46.8819 321.932 46.5146C323.662 46.0047 325.385 47.187 326.795 48.317C332.329 52.7551 339.906 66.5978 339.906 66.5978L342.167 68.9454C346.976 73.9867 350.004 80.7159 350.597 87.6797C351.191 94.6434 349.347 101.794 345.463 107.586C345.463 107.586 337.32 118.121 305.422 116.347V116.345Z" fill="white"/>
<path d="M319.083 63.2545C319.358 60.6258 320.313 58.0734 321.828 55.915C322.182 55.4122 322.66 54.8825 323.272 54.9009C323.704 54.9136 324.073 55.2031 324.399 55.4885C327.448 58.1638 329.74 62.7177 330.62 66.6912C330.62 66.6912 328.236 65.5103 324.851 64.3803C321.465 63.2503 319.081 63.2545 319.081 63.2545H319.083Z" fill="#FAC985"/>
<path d="M286.614 71.4216C285.861 68.3818 285.347 65.2828 285.081 62.1625C285.047 61.7628 285.017 61.356 285.113 60.9675C285.208 60.5791 285.451 60.2048 285.82 60.055C286.262 59.8742 286.762 60.0466 287.201 60.233C289.998 61.4238 292.946 63.3971 294.946 65.7009C294.946 65.7009 292.026 67.0837 290.83 68.0428L286.616 71.423L286.614 71.4216Z" fill="#FAC985"/>
<path d="M294.663 134.995C294.628 134.995 294.593 134.992 294.558 134.991C297.868 135.211 301.203 135.036 304.471 134.47L303.215 123.14C301.427 119.583 299.64 116.025 297.852 112.468L297.574 111.947C297.176 111.2 296.448 110.688 295.613 110.57C290.81 110.085 285.954 110.131 281.161 110.704C280.733 110.755 280.318 110.91 279.976 111.174C278.897 112.008 279.316 113.117 279.729 114.049C280.451 115.682 281.174 117.315 281.896 118.947" fill="#94633F"/>
<path d="M290.984 137.352C289.56 138.108 287.804 138.041 286.3 137.464C284.796 136.886 283.512 135.842 282.371 134.696C280.468 132.787 278.853 130.465 278.341 127.809C277.829 125.153 278.602 122.141 280.729 120.489C281.765 119.686 284.835 119.323 287.381 120.885C289.65 122.276 291.439 125.49 292.012 126.697C292.757 128.271 293.908 131.318 293.555 133.692C293.271 135.602 291.624 137.013 290.983 137.353L290.984 137.352Z" fill="white"/>
<path d="M346.059 107.978C350.392 101.457 352.199 93.4018 351.057 85.6429C350.044 78.7568 346.716 72.6251 341.937 67.6657C341.568 67.2815 341.198 66.8987 340.829 66.5145C340.722 66.4029 340.62 66.2829 340.506 66.1798C340.363 66.0484 340.387 66.0032 340.495 66.1939C340.303 65.8492 340.11 65.5046 339.915 65.1613C338.897 63.3717 337.837 61.6032 336.742 59.8616C335.218 57.4405 333.623 55.0618 331.881 52.7933C330.258 50.6788 328.52 48.632 326.352 47.0627C324.706 45.872 322.592 45.0301 320.697 46.1954C319.047 47.2096 318.076 49.197 317.265 50.8921C315.614 54.3485 314.511 58.0648 314.159 61.8899L315.136 61.1413C314.632 61.0509 314.128 60.9421 313.62 60.8701C312.492 60.7091 311.277 60.7995 310.143 60.8701C307.524 61.0311 304.963 61.5467 302.544 62.5863L303.48 62.7078C300.116 58.7655 295.739 55.754 291.08 53.5886C288.812 52.5348 285.824 50.9104 283.305 51.9331C280.787 52.9558 280.481 56.1579 280.728 58.6002C281.097 62.253 281.581 65.8987 282.009 69.5458C282.118 70.4738 282.226 71.4004 282.336 72.3285C282.372 72.6449 282.311 73.3342 282.483 73.58C282.504 73.6096 282.608 73.8822 282.625 73.6308C282.622 73.6718 282.574 73.7141 282.563 73.7537C282.334 74.4967 281.81 75.2453 281.46 75.9389C280.435 77.9687 279.462 79.9857 278.832 82.185C278.058 84.8886 277.696 87.7235 277.734 90.5344C277.818 96.9656 279.994 103.298 284.046 108.286C284.675 109.06 285.762 107.955 285.138 107.187C281.761 103.03 279.788 97.7764 279.366 92.4371C278.952 87.1952 280.025 82.1144 282.421 77.4601C282.741 76.8372 283.053 76.2101 283.369 75.5857C283.684 74.9614 284.087 74.4091 284.045 73.7198C283.94 71.9584 283.63 70.1857 283.425 68.4327C283.22 66.6798 283.011 64.9085 282.804 63.1457C282.612 61.5072 282.372 59.8658 282.239 58.2202C282.146 57.0747 282.1 55.8006 282.56 54.7214C283.725 51.9967 287.183 53.5603 289.118 54.3965C294.127 56.5619 298.815 59.613 302.393 63.8053C302.636 64.0892 303.026 64.0568 303.329 63.9268C305.558 62.9691 307.987 62.5369 310.397 62.4083C311.336 62.3589 312.35 62.277 313.278 62.3801C313.763 62.4338 314.25 62.5538 314.73 62.64C315.256 62.7346 315.658 62.4253 315.707 61.8914C316 58.7061 316.88 55.5562 318.163 52.6351C318.821 51.1407 319.557 49.4767 320.661 48.2535C321.218 47.6362 321.907 47.156 322.767 47.1715C323.728 47.1899 324.613 47.728 325.379 48.2634C327.415 49.6858 329.056 51.6421 330.568 53.597C332.211 55.7215 333.711 57.9589 335.149 60.226C336.263 61.9803 337.336 63.7615 338.371 65.5653C338.855 66.4086 339.238 67.088 339.911 67.7872C341.696 69.6404 343.437 71.488 344.857 73.6534C346.799 76.614 348.222 79.8967 349.051 83.3447C351.009 91.4935 349.352 100.243 344.732 107.195C344.178 108.028 345.515 108.807 346.065 107.979L346.059 107.978Z" fill="#555A60"/>
<path d="M345.658 110.788C348.498 114.017 350.356 117.848 351.547 121.968C352.745 126.117 353.593 130.404 353.445 134.742C353.304 138.897 352.236 142.995 350.025 146.528C348.105 149.593 345.432 152.166 342.353 154.034C338.856 156.154 334.85 157.345 330.762 157.333C329.768 157.331 329.767 158.884 330.762 158.887C338.487 158.907 345.894 154.893 350.443 148.662C352.961 145.213 354.373 141.136 354.836 136.897C355.347 132.226 354.611 127.594 353.45 123.076C352.18 118.135 350.135 113.537 346.751 109.689C346.092 108.939 345.003 110.041 345.66 110.788H345.658Z" fill="#555A60"/>
<path d="M327.902 158.826C323.905 161.469 319.767 164.223 314.991 165.147C312.742 165.582 310.368 165.583 308.159 164.929C306.154 164.336 304.4 163.175 302.959 161.662C300.129 158.687 298.481 154.686 297.01 150.904C296.174 148.757 295.286 146.17 296.317 143.929C297.118 142.188 298.844 141.034 300.665 140.613C303.209 140.025 305.881 140.949 308.025 142.305C310.354 143.778 312.231 145.859 314.08 147.879C314.755 148.616 315.844 147.514 315.172 146.78C311.736 143.027 307.65 138.839 302.181 138.888C299.975 138.908 297.765 139.768 296.22 141.378C294.519 143.153 294.068 145.533 294.489 147.911C294.925 150.378 296.059 152.768 297.069 155.043C297.998 157.136 299.05 159.195 300.424 161.032C301.798 162.87 303.31 164.332 305.232 165.384C307.407 166.574 309.902 167.068 312.364 166.993C318.472 166.809 323.733 163.439 328.681 160.168C329.507 159.621 328.735 158.275 327.902 158.826Z" fill="#555A60"/>
<path d="M311.683 138.245C310.521 138.918 309.359 139.592 308.199 140.264C307.339 140.763 308.115 142.106 308.977 141.606C310.139 140.933 311.301 140.26 312.461 139.587C313.321 139.089 312.546 137.745 311.683 138.245Z" fill="#555A60"/>
<path d="M329.395 114.556C324.079 117.475 317.71 115.827 311.984 116.854C307.172 117.717 302.525 120.94 302.352 126.264C302.184 131.459 305.873 135.667 310.421 137.584C315.435 139.696 321.337 139.625 326.543 138.32C331.996 136.954 338.369 133.928 340.557 128.332C340.92 127.401 339.429 126.997 339.068 127.92C337.273 132.51 331.95 135.082 327.554 136.427C322.785 137.886 317.43 138.203 312.621 136.737C308.213 135.393 304.192 132 303.907 127.082C303.778 124.852 304.565 122.768 306.18 121.227C307.869 119.615 310.135 118.758 312.396 118.353C318.325 117.289 324.643 118.936 330.175 115.898C331.048 115.419 330.269 114.077 329.397 114.556H329.395Z" fill="#555A60"/>
<path d="M310.35 129.878C308.461 130.626 306.921 132.025 306.106 133.915C305.714 134.823 307.043 135.615 307.439 134.699C308.085 133.198 309.234 131.982 310.76 131.376C311.673 131.013 311.276 129.51 310.35 129.878Z" fill="#555A60"/>
<path d="M307.838 123.99C305.627 124.728 303.956 126.339 302.689 128.265C302.139 129.101 303.474 129.879 304.022 129.049C305.056 127.475 306.436 126.092 308.248 125.489C309.186 125.177 308.784 123.675 307.838 123.99Z" fill="#555A60"/>
<path d="M290.526 136.681C287.05 138.41 283.472 135.125 281.451 132.594C279.398 130.024 278.079 126.52 279.461 123.316C279.968 122.142 280.818 121.017 282.1 120.713C283.628 120.353 285.358 120.664 286.715 121.433C288.985 122.723 290.579 125.397 291.577 127.757C292.775 130.595 293.837 134.827 290.526 136.681C289.657 137.167 290.435 138.511 291.304 138.023C292.619 137.287 293.707 135.861 294.118 134.414C294.655 132.519 294.14 130.352 293.52 128.541C292.482 125.511 290.683 122.284 288.023 120.423C286.443 119.319 284.386 118.851 282.483 119.08C280.793 119.284 279.589 120.132 278.651 121.563C276.404 124.999 277.338 129.417 279.542 132.602C282.039 136.208 286.681 140.322 291.304 138.021C292.195 137.577 291.414 136.237 290.526 136.679V136.681Z" fill="#555A60"/>
<path d="M286.493 140.847C283.107 137.792 279.208 134.348 274.387 134.337C272.467 134.333 270.456 134.847 268.89 135.999C267.119 137.303 266.141 139.231 266.015 141.433C265.88 143.795 266.613 146.191 267.547 148.329C268.421 150.329 269.628 152.176 271.068 153.809C274.016 157.155 278.027 159.542 282.399 160.388C287.667 161.409 293.26 160.377 297.778 157.446C298.61 156.906 297.837 155.56 296.999 156.104C289.818 160.762 280.125 160.127 273.76 154.337C270.873 151.71 268.733 148.233 267.849 144.405C267.375 142.347 267.321 139.971 268.725 138.251C269.815 136.913 271.507 136.187 273.182 135.964C278.035 135.317 282.054 138.925 285.401 141.946C286.139 142.611 287.234 141.517 286.493 140.847Z" fill="#555A60"/>
<path d="M275.842 135.962C274.589 137.916 274.791 140.282 276.182 142.093C276.752 142.834 277.744 141.891 277.394 141.15C277.342 141.039 277.289 140.929 277.237 140.817C276.81 139.914 275.48 140.703 275.904 141.601C275.956 141.713 276.009 141.823 276.061 141.934L277.274 140.992C276.301 139.727 276.332 138.058 277.175 136.745C277.715 135.903 276.38 135.123 275.842 135.961V135.962Z" fill="#555A60"/>
<path d="M270.639 136.031C269.564 138.458 269.958 141.243 271.708 143.245C272.366 143.996 273.453 142.894 272.799 142.146C271.546 140.712 271.196 138.566 271.971 136.815C272.373 135.909 271.043 135.118 270.639 136.031Z" fill="#555A60"/>
<path d="M304.796 140.374C303.464 142.07 302.963 144.189 303.471 146.302L304.959 145.89C304.923 145.772 304.885 145.657 304.848 145.539C304.548 144.59 303.057 144.996 303.36 145.952C303.396 146.069 303.434 146.185 303.471 146.302C303.772 147.253 305.194 146.866 304.959 145.89C304.592 144.363 304.913 142.713 305.888 141.473C306.498 140.697 305.412 139.59 304.796 140.374Z" fill="#555A60"/>
<path d="M298.722 140.368C297.663 142.657 297.652 145.175 298.676 147.476L300.009 146.692C299.912 146.528 299.814 146.364 299.717 146.201C299.208 145.343 297.873 146.123 298.384 146.985C298.481 147.148 298.579 147.312 298.676 147.476C299.196 148.353 300.407 147.586 300.009 146.692C299.23 144.943 299.251 142.888 300.055 141.152C300.472 140.251 299.142 139.461 298.722 140.368Z" fill="#555A60"/>
<path d="M291.631 128.92C290.272 128.93 288.968 129.332 287.86 130.126C287.057 130.701 287.828 132.049 288.639 131.468C289.539 130.823 290.523 130.481 291.631 130.474C292.625 130.467 292.626 128.913 291.631 128.92Z" fill="#555A60"/>
<path d="M288.887 122.625C287.091 122.596 285.496 123.452 284.443 124.897C283.856 125.703 285.194 126.48 285.776 125.681C286.505 124.682 287.673 124.158 288.888 124.178C289.882 124.195 289.882 122.641 288.888 122.624L288.887 122.625Z" fill="#555A60"/>
<path d="M345.17 97.6419C341.413 96.7238 337.488 96.8071 333.777 97.9033C332.826 98.1843 333.231 99.6844 334.187 99.4019C337.637 98.3821 341.265 98.286 344.759 99.1406C345.724 99.3765 346.135 97.8792 345.169 97.6419H345.17Z" fill="#555A60"/>
<path d="M344.608 88.2723C340.208 88.5478 335.952 90.0281 332.353 92.5989C331.549 93.1724 332.319 94.5213 333.132 93.9408C336.508 91.5296 340.471 90.086 344.608 89.8261C345.594 89.7639 345.601 88.2102 344.608 88.2723Z" fill="#555A60"/>
<path d="M283.894 97.0346C280.418 96.7295 276.935 96.8919 273.496 97.4809C272.52 97.649 272.934 99.1463 273.906 98.9796C277.206 98.4146 280.559 98.2959 283.893 98.5883C284.882 98.6759 284.877 97.1207 283.893 97.0346H283.894Z" fill="#555A60"/>
<path d="M285.373 102.355C281.901 102.861 278.56 104.019 275.501 105.749C275.007 106.029 274.992 106.816 275.501 107.091L275.731 107.216C276.607 107.687 277.387 106.347 276.51 105.874L276.28 105.749V107.091C279.229 105.424 282.438 104.341 285.784 103.854C286.764 103.711 286.347 102.214 285.375 102.355H285.373Z" fill="#555A60"/>
<path d="M317.454 96.7613C319.035 96.3927 319.936 94.4397 319.467 92.3991C318.997 90.3585 317.335 89.0031 315.754 89.3717C314.174 89.7403 313.273 91.6933 313.742 93.7339C314.212 95.7745 315.874 97.1299 317.454 96.7613Z" fill="#555A60"/>
<path d="M296.357 98.1695C297.937 97.8009 298.838 95.8479 298.369 93.8073C297.899 91.7667 296.237 90.4113 294.657 90.7799C293.076 91.1485 292.175 93.1015 292.644 95.1421C293.114 97.1827 294.776 98.5381 296.357 98.1695Z" fill="#555A60"/>
<path d="M301.881 98.4496C301.881 99.5937 303.215 101.032 304.928 101.032C306.641 101.032 307.949 99.5231 307.949 98.3789C307.949 97.2348 306.601 96.6133 304.887 96.6133C303.174 96.6133 301.881 97.3054 301.881 98.4496Z" fill="#555A60"/>
<path d="M312.16 103.394C311.217 104.367 309.79 104.789 308.488 104.356C307.186 103.922 306.317 102.694 306.12 101.347C305.975 100.361 304.488 100.78 304.631 101.759C304.907 103.639 306.28 105.268 308.077 105.853C309.89 106.443 311.938 105.846 313.25 104.491C313.945 103.775 312.854 102.675 312.158 103.392L312.16 103.394Z" fill="#555A60"/>
<path d="M304.288 101.781C304.723 102.867 304.134 103.887 303.108 104.339C301.993 104.83 300.76 104.586 299.643 104.237C298.692 103.939 298.286 105.439 299.233 105.736C300.873 106.248 302.745 106.435 304.269 105.476C305.623 104.624 306.397 102.918 305.777 101.368C305.411 100.453 303.917 100.853 304.288 101.781Z" fill="#555A60"/>
<path d="M304.196 133.72C300.988 134.264 297.733 134.418 294.488 134.213V135.766L294.593 135.771C295.587 135.805 295.585 134.251 294.593 134.217L294.488 134.213C293.489 134.179 293.503 135.704 294.488 135.766C297.875 135.98 301.261 135.785 304.607 135.218C305.585 135.053 305.17 133.554 304.197 133.72H304.196Z" fill="#555A60"/>
<path d="M303.811 122.749C302.418 119.977 301.026 117.206 299.633 114.435C298.688 112.556 297.936 110.101 295.543 109.794C292.533 109.41 289.428 109.395 286.4 109.511C284.899 109.568 283.399 109.677 281.905 109.837C280.669 109.97 279.343 110.176 278.706 111.413C278.112 112.567 278.692 113.843 279.205 114.905C279.9 116.339 280.802 117.658 281.461 119.11C281.874 120.018 283.204 119.23 282.794 118.326C282.291 117.217 281.654 116.186 281.064 115.124C280.674 114.42 279.832 113.217 279.999 112.35C280.214 111.231 282.169 111.358 282.992 111.285C284.307 111.166 285.626 111.087 286.946 111.047C289.587 110.968 292.231 111.047 294.862 111.285C295.836 111.372 296.466 111.656 296.947 112.546C297.428 113.436 297.894 114.411 298.363 115.344C299.735 118.075 301.107 120.805 302.478 123.534C302.927 124.427 304.259 123.641 303.811 122.75V122.749Z" fill="#555A60"/>
<path d="M305.352 115.569C303.714 115.689 302.115 115.41 300.635 114.686C299.745 114.249 298.962 115.59 299.856 116.028C301.576 116.871 303.439 117.264 305.352 117.122C306.337 117.05 306.344 115.495 305.352 115.569Z" fill="#555A60"/>
<path d="M279.626 152.866C280.8 152.074 280.775 149.966 279.57 148.158C278.366 146.351 276.438 145.529 275.264 146.321C274.09 147.114 274.115 149.222 275.32 151.029C276.524 152.837 278.452 153.659 279.626 152.866Z" fill="#555A60"/>
<path d="M307.099 158.05C308.273 157.257 308.248 155.149 307.043 153.342C305.839 151.535 303.911 150.712 302.737 151.505C301.563 152.298 301.588 154.406 302.793 156.213C303.998 158.02 305.926 158.843 307.099 158.05Z" fill="#555A60"/>
<path d="M282.804 136.356L282.107 136.65C281.913 136.731 281.756 136.816 281.645 137.007C281.549 137.174 281.508 137.419 281.568 137.606C281.629 137.792 281.745 137.974 281.923 138.071C282.101 138.167 282.332 138.227 282.518 138.148L283.215 137.854C283.409 137.772 283.566 137.688 283.677 137.497C283.774 137.33 283.815 137.085 283.754 136.898C283.694 136.712 283.577 136.529 283.399 136.433C283.221 136.337 282.991 136.277 282.804 136.356Z" fill="#555A60"/>
<path d="M295.639 113.955C297.014 116.675 298.389 119.396 299.764 122.116C300.098 122.777 301.077 122.307 300.917 121.626L300.864 121.401C300.677 120.605 299.459 120.942 299.646 121.739L299.699 121.964L300.852 121.474C299.477 118.753 298.102 116.032 296.727 113.312C296.358 112.583 295.27 113.226 295.637 113.953L295.639 113.955Z" fill="#555A60"/>
</g>
<defs>
<clipPath id="clip0_2126_65873">
<rect width="100.802" height="79.9463" fill="white" transform="translate(215 56.4736) rotate(-32.7113)"/>
</clipPath>
<clipPath id="clip1_2126_65873">
<rect width="89" height="121.364" fill="white" transform="translate(266 45.6367)"/>
</clipPath>
</defs>
</svg>
