<svg width="22" height="22" viewBox="0 0 22 22" fill="none" xmlns="http://www.w3.org/2000/svg">
<path d="M18.7626 15.7453C19.0314 15.6475 19.2702 15.4633 19.425 15.1963C19.5852 14.9191 19.623 14.6077 19.5642 14.3173C19.812 14.1739 20.0154 13.9513 20.121 13.6615C20.2302 13.3609 20.2134 13.0477 20.1054 12.7717C20.3244 12.5875 20.4858 12.3331 20.5398 12.0289C20.595 11.7139 20.5248 11.4079 20.37 11.1553C20.5536 10.9363 20.6688 10.6573 20.6688 10.3489C20.6688 10.0291 20.5458 9.74049 20.3496 9.51789C20.4924 9.27009 20.5572 8.97549 20.5038 8.67189C20.448 8.35689 20.277 8.09409 20.0454 7.90869C20.1432 7.63989 20.1558 7.33869 20.0502 7.04829C19.941 6.74769 19.7268 6.51849 19.4664 6.37629C19.5156 6.09429 19.476 5.79549 19.3218 5.52849C19.1616 5.25129 18.9114 5.06289 18.63 4.96809C18.63 4.68189 18.5388 4.39449 18.3402 4.15809C18.1344 3.91329 17.8548 3.77109 17.5614 3.72669C17.5116 3.44469 17.3718 3.17769 17.1354 2.97909C16.8906 2.77329 16.59 2.68209 16.2936 2.68929C16.1958 2.42049 16.0116 2.18169 15.7446 2.02749C15.4674 1.86729 15.156 1.82949 14.8656 1.88829C14.7222 1.64049 14.4996 1.43709 14.2098 1.33149C13.9092 1.22229 13.596 1.23849 13.32 1.34709C13.1358 1.12809 12.8814 0.966691 12.5772 0.912691C12.2622 0.856891 11.9568 0.927691 11.7036 1.08249C11.4846 0.898891 11.2056 0.783691 10.8966 0.783691C10.5768 0.783691 10.2882 0.906691 10.0656 1.10289C9.81783 0.960091 9.52323 0.895291 9.21963 0.948691C8.90463 1.00449 8.64183 1.17549 8.45643 1.40709C8.18763 1.30929 7.88583 1.29669 7.59603 1.40229C7.29543 1.51149 7.06623 1.72569 6.92403 1.98609C6.64203 1.93689 6.34323 1.97649 6.07623 2.13069C5.79903 2.29089 5.61063 2.54109 5.51583 2.82249C5.22963 2.82249 4.94223 2.91369 4.70583 3.11229C4.46103 3.31809 4.31883 3.59769 4.27443 3.89109C3.99303 3.94089 3.72543 4.08069 3.52743 4.31709C3.32163 4.56189 3.23043 4.86249 3.23763 5.15889C2.96883 5.25669 2.73003 5.44089 2.57583 5.70789C2.41563 5.98509 2.37783 6.29649 2.43663 6.58689C2.18883 6.73029 1.98543 6.95289 1.87983 7.24269C1.77063 7.54329 1.78683 7.85649 1.89543 8.13249C1.67643 8.31669 1.51503 8.57109 1.46103 8.87529C1.40523 9.19029 1.47603 9.49569 1.63083 9.74889C1.44723 9.96789 1.33203 10.2469 1.33203 10.5553C1.33203 10.8751 1.45503 11.1637 1.65063 11.3863C1.50783 11.6341 1.44303 11.9287 1.49643 12.2323C1.55163 12.5473 1.72323 12.8101 1.95483 12.9955C1.85703 13.2643 1.84443 13.5655 1.95003 13.8559C2.05923 14.1565 2.27343 14.3857 2.53383 14.5279C2.48463 14.8099 2.52423 15.1087 2.67843 15.3757C2.83863 15.6529 3.08883 15.8413 3.37023 15.9361C3.37023 16.2223 3.46143 16.5097 3.66003 16.7461C3.86583 16.9909 4.14543 17.1331 4.43883 17.1775L18.7632 15.7459L18.7626 15.7453Z" fill="#EBEBEB"/>
<path d="M8.24268 18.2754H13.7579V20.2344C13.7579 20.7768 13.3175 21.2166 12.7757 21.2166H9.22548C8.68308 21.2166 8.24328 20.7762 8.24328 20.2344L8.24268 18.2754Z" fill="#767676"/>
<path fill-rule="evenodd" clip-rule="evenodd" d="M20.822 8.8999C21.3926 8.8999 21.8504 9.3907 21.7958 9.9589C21.2636 15.4525 16.6334 19.7467 11 19.7467C5.36663 19.7467 0.736426 15.4519 0.204226 9.9589C0.149026 9.3907 0.606826 8.8999 1.17803 8.8999H20.822Z" fill="#BABABA"/>
</svg>
