<svg width="25" height="24" viewBox="0 0 25 24" fill="none" xmlns="http://www.w3.org/2000/svg">
<path d="M2.6001 12H22.6001" stroke="#F79009" stroke-width="2" stroke-linecap="round" stroke-linejoin="round"/>
<path d="M20.6001 12V20C20.6001 20.5304 20.3894 21.0391 20.0143 21.4142C19.6392 21.7893 19.1305 22 18.6001 22H6.6001C6.06966 22 5.56096 21.7893 5.18588 21.4142C4.81081 21.0391 4.6001 20.5304 4.6001 20V12" stroke="#F79009" stroke-width="2" stroke-linecap="round" stroke-linejoin="round"/>
<path d="M4.6001 8L20.6001 4" stroke="#F79009" stroke-width="2" stroke-linecap="round" stroke-linejoin="round"/>
<path d="M9.4601 6.78004L9.0101 4.97004C8.94562 4.71527 8.93199 4.4503 8.96998 4.19026C9.00797 3.93022 9.09684 3.68022 9.2315 3.45454C9.36616 3.22887 9.54398 3.03194 9.75479 2.87503C9.9656 2.71811 10.2053 2.60428 10.4601 2.54004L12.4001 2.06004C12.6555 1.99573 12.9212 1.98251 13.1817 2.02114C13.4423 2.05977 13.6927 2.14949 13.9184 2.28515C14.1442 2.42081 14.341 2.59974 14.4975 2.81166C14.6539 3.02358 14.7669 3.26431 14.8301 3.52004L15.2801 5.32004" stroke="#F79009" stroke-width="2" stroke-linecap="round" stroke-linejoin="round"/>
</svg>
