<svg width="240" height="184" viewBox="0 0 240 184" fill="none" xmlns="http://www.w3.org/2000/svg">
<g clip-path="url(#clip0_1034_24450)">
<path d="M69.6908 151.746L69.122 149.605C67.7123 144.295 62.2156 141.199 56.9343 142.715C54.4765 143.418 52.0186 144.096 49.573 144.746L24.9214 151.287C19.6929 152.676 14.3262 149.56 12.9368 144.328L10.3409 134.549C9.79241 132.477 9.9346 130.287 10.7512 128.305L40.9604 54.9432C42.1263 52.1116 44.5476 49.9869 47.5092 49.2028L56.3168 46.8668C61.5453 45.4774 66.912 48.5934 68.3014 53.826L83.1013 109.601C83.1175 109.662 83.1866 109.698 83.2475 109.674C85.3722 108.866 87.2979 108.126 89.0163 107.452C94.0214 105.494 99.6643 107.927 101.675 112.908L102.955 116.077C104.998 121.143 102.504 126.891 97.4177 128.878C97.3608 128.902 97.2999 128.922 97.243 128.947C92.5995 130.759 90.0482 135.764 91.3279 140.582L92.6726 145.652C94.062 150.88 90.9461 156.247 85.7135 157.637L81.6794 158.709C76.4509 160.098 71.0842 156.982 69.6948 151.75L69.6908 151.746ZM43.6213 122.304C46.266 121.602 48.8173 120.895 51.3361 120.184C56.4874 118.725 59.514 113.407 58.1409 108.236L52.0877 85.4246C52.0593 85.323 51.9211 85.3149 51.8805 85.4124L37.0034 123.881C36.9709 123.962 37.0481 124.047 37.1334 124.023L43.6173 122.3L43.6213 122.304Z" fill="#7D4423"/>
<path d="M83.2436 109.674C83.2436 109.674 76.4185 126.387 83.8205 139.745C91.2225 153.103 92.4859 149.674 92.4859 149.674C92.4859 149.674 91.4012 154.91 89.0571 155.272C87.9196 155.447 79.9286 147.317 76.9588 138.843C73.8022 129.828 74.9275 125.347 75.6954 120.427C76.4632 115.508 83.2436 109.674 83.2436 109.674Z" fill="#8D5C3F" stroke="#7D4423" stroke-miterlimit="10"/>
<path d="M184.795 152.266L185.393 150.17C186.725 145.506 183.971 140.656 179.282 139.416C177.028 138.819 174.785 138.202 172.567 137.572L150.524 131.275C145.917 129.959 143.252 125.157 144.568 120.554L147.091 111.722C147.611 109.898 148.716 108.297 150.231 107.16L207.143 64.5597C209.313 62.9347 212.116 62.4188 214.724 63.1622L222.707 65.4413C227.314 66.7576 229.979 71.5595 228.663 76.1624L214.415 126.022C216.508 126.392 218.397 126.713 220.087 126.993C224.771 127.769 227.952 132.181 227.221 136.873L226.737 139.989C225.986 144.812 221.432 148.102 216.617 147.302L216.451 147.273C212.043 146.538 207.785 149.228 206.558 153.526L205.246 158.112C203.93 162.719 199.128 165.384 194.525 164.068L190.747 162.987C186.14 161.671 183.475 156.869 184.791 152.266H184.795ZM178.275 117.588C180.664 118.271 182.983 118.909 185.279 119.522C189.849 120.749 194.562 118.072 195.862 113.522L201.773 92.8311L172.315 115.886L178.271 117.588H178.275Z" fill="#7D4423"/>
<path d="M167.014 135.772C167.014 135.772 172.344 128.244 166.315 114.208C160.286 100.172 158.685 103.458 158.685 103.458C158.685 103.458 160.286 98.3556 162.658 98.2337C163.808 98.1728 170.946 107.066 173.05 115.792C175.289 125.079 173.721 129.426 172.465 134.244C171.21 139.062 167.014 135.772 167.014 135.772Z" fill="#8D5C3F"/>
<path d="M133.855 94.0083C126.75 91.3189 118.588 91.5423 111.637 94.6136C111.637 94.6136 105.633 86.7485 101.237 83.8479C99.2827 82.56 97.1621 81.4144 94.7124 81.4956C94.1964 81.5119 93.6805 81.5972 93.1889 81.7597C89.7764 82.9054 89.2807 86.4804 89.0207 89.5964C88.582 94.8615 87.7004 105.351 87.7004 105.351C87.7004 105.351 82.5328 113.245 81.8097 120.882C81.249 126.789 82.5897 134.122 85.3441 139.371C89.3173 146.939 97.1336 151.94 105.373 154.211C113.611 156.482 122.313 156.328 130.841 155.739C139.465 155.142 148.46 153.976 155.557 149.036C162.74 144.035 167.123 135.414 167.432 126.667C167.745 117.921 164.129 109.202 158.088 102.873L158.157 103.088C159.945 97.0593 160.164 90.5673 158.787 84.4329C158.385 82.6372 157.649 80.6425 155.939 79.96C154.473 79.375 152.823 79.9803 151.393 80.6425C145.068 83.5757 139.344 87.7926 134.664 92.9642" fill="white"/>
<path d="M93.4613 101.164C96.0532 99.4166 104.556 93.8387 104.556 93.8387C104.556 93.8387 102.163 91.3077 101.07 90.4465C99.9736 89.5811 98.8361 88.6955 97.4142 88.5086C96.8698 88.4355 96.3092 88.4883 95.8014 88.6996C94.2616 89.3374 94.0992 90.8609 93.9976 92.2381C93.7904 95.0819 93.5913 97.9256 93.4004 100.769" fill="#FAC985"/>
<path d="M142.362 93.5536C146.234 94.5124 149.898 96.1537 153.083 98.3556C153.278 95.0365 153.473 91.7214 153.664 88.4023C153.709 87.667 153.644 86.7448 152.722 86.562C152.425 86.5051 152.117 86.5498 151.832 86.6554C148.038 88.0367 144.715 90.4458 142.391 93.4846" fill="#FAC985"/>
<path d="M77.5035 125.773C83.0895 124.579 88.7405 125.107 94.0422 127.208C95.5656 127.809 96.2238 125.351 94.7166 124.754C88.9883 122.487 82.8376 122.032 76.8251 123.32C75.2244 123.661 75.9029 126.115 77.4994 125.773H77.5035Z" fill="#7D4423"/>
<path d="M79.3316 136.264C83.9101 133.644 89.1793 132.827 94.3306 133.981C95.9272 134.338 96.6056 131.884 95.005 131.527C89.1833 130.227 83.2276 131.104 78.0479 134.066C76.626 134.879 77.9057 137.076 79.3316 136.264Z" fill="#7D4423"/>
<path d="M154.071 125.092C159.718 123.263 165.604 123.422 171.154 125.518C172.685 126.099 173.347 123.641 171.828 123.064C165.893 120.822 159.425 120.68 153.392 122.638C151.84 123.142 152.507 125.599 154.067 125.092H154.071Z" fill="#7D4423"/>
<path d="M154.209 129.82C159.612 130.738 164.845 132.318 169.825 134.605C171.304 135.284 172.596 133.09 171.109 132.407C165.921 130.027 160.514 128.32 154.883 127.366C153.282 127.094 152.592 129.543 154.209 129.82Z" fill="#7D4423"/>
<path d="M107.879 116.394L114.57 121.744C115.838 122.756 117.65 120.968 116.37 119.944L109.679 114.594C108.411 113.582 106.599 115.37 107.879 116.394Z" fill="#7D4423"/>
<path d="M111.47 122.703C112.198 119.802 113.473 117.19 115.281 114.813C116.272 113.509 114.062 112.242 113.083 113.529C111.15 116.069 109.793 118.933 109.017 122.028C108.619 123.617 111.072 124.295 111.47 122.703Z" fill="#7D4423"/>
<path d="M138.113 114.594C135.882 116.377 133.652 118.161 131.422 119.944C130.142 120.968 131.954 122.756 133.222 121.744C135.452 119.961 137.682 118.177 139.913 116.394C141.192 115.37 139.38 113.582 138.113 114.594Z" fill="#7D4423"/>
<path d="M138.775 122.024C137.999 118.933 136.642 116.065 134.708 113.526C133.729 112.238 131.519 113.505 132.511 114.809C134.318 117.186 135.594 119.798 136.321 122.699C136.719 124.287 139.173 123.613 138.775 122.024Z" fill="#7D4423"/>
<path d="M122.834 122.837C122.846 124.027 122.862 125.214 122.874 126.404C122.899 128.585 126.291 128.59 126.266 126.404C126.254 125.214 126.238 124.027 126.226 122.837C126.201 120.655 122.809 120.651 122.834 122.837Z" fill="#7D4423"/>
<path d="M119.518 130.406C122.659 127.578 126.928 127.598 130.239 130.121C131.539 131.113 132.811 128.907 131.523 127.923C127.282 124.69 121.639 125.072 117.719 128.606C116.5 129.703 118.304 131.498 119.518 130.406Z" fill="#7D4423"/>
<path d="M120.684 120.541C120.717 121.894 122.354 123.555 124.393 123.502C126.433 123.45 127.948 121.625 127.912 120.273C127.879 118.92 126.254 118.225 124.211 118.274C122.167 118.323 120.648 119.184 120.684 120.537V120.541Z" fill="#7D4423"/>
<path d="M134.192 92.7821C126.612 90.0195 118.389 90.3527 110.995 93.5174L112.734 93.9724C109.618 89.9058 106.157 85.632 101.879 82.7476C99.0756 80.8585 95.338 79.2781 92.0352 80.8625C89.2036 82.2154 88.2611 85.1973 87.9035 88.098C87.5054 91.3439 87.3307 94.6346 87.0585 97.8928C86.9326 99.4081 86.8067 100.919 86.6767 102.435C86.6076 103.268 86.3313 104.336 86.4451 105.169C86.5141 105.652 86.8229 104.559 86.5263 104.828C86.3395 104.998 86.1891 105.372 86.0632 105.587C85.336 106.81 84.6657 108.074 84.0522 109.357C82.411 112.79 81.0744 116.426 80.6153 120.225C79.6566 128.143 81.6838 137.19 86.5426 143.58C91.0723 149.54 97.8974 153.46 105.039 155.435C114.278 157.99 124.121 157.62 133.579 156.796C141.846 156.077 150.455 154.545 157.211 149.39C164.052 144.169 168.188 135.833 168.683 127.285C169.224 117.917 165.34 108.74 158.994 101.968C158.141 101.053 156.475 101.996 156.87 103.207L156.939 103.422C157.32 104.596 159.039 104.665 159.392 103.422C160.806 98.4615 161.302 93.2777 160.705 88.1467C160.319 84.852 159.803 79.7453 155.968 78.6403C154.066 78.0919 152.161 78.8881 150.455 79.6885C148.318 80.6878 146.25 81.8497 144.272 83.1376C140.404 85.6523 136.886 88.6667 133.774 92.063C132.669 93.2696 134.465 95.0734 135.574 93.8627C138.088 91.1205 140.843 88.618 143.882 86.4689C146.677 84.4904 150.008 82.1788 153.339 81.2404C157.987 79.9322 158.186 87.4236 158.356 90.4055C158.596 94.5899 158.088 98.7256 156.939 102.752H159.392L159.323 102.536L157.199 103.775C167.603 114.891 169.703 132.815 158.885 144.462C153.372 150.397 145.519 152.798 137.694 153.826C129.87 154.854 121.46 155.329 113.502 154.456C105.543 153.582 98.1615 151.129 92.2749 146.002C86.3882 140.875 83.6704 133.867 83.0732 126.359C82.5247 119.457 84.6494 113.046 88.1107 107.135C89.7561 104.328 89.3823 100.55 89.6504 97.3646C89.9145 94.2365 90.012 91.0392 90.4751 87.9354C90.7189 86.3064 91.1577 84.4904 92.5795 83.491C94.5296 82.1219 97.0524 82.9223 98.9618 83.946C101.988 85.567 104.414 88.1183 106.685 90.6452C107.599 91.6649 108.489 92.7049 109.354 93.7652C109.675 94.1552 109.992 94.5493 110.304 94.9474C110.398 95.0652 110.751 95.5243 110.548 95.2562C111.007 95.8574 111.584 96.0118 112.287 95.7112C119.059 92.8146 126.628 92.7171 133.522 95.2318C135.062 95.7924 135.728 93.3346 134.196 92.778L134.192 92.7821Z" fill="#7D4423"/>
<path d="M171.722 24.2145L141.704 47.1523C141.528 47.285 141.525 47.506 141.694 47.6812L149.097 55.2558C149.299 55.4599 149.251 55.7242 149 55.8385L136.782 61.2216C136.589 61.3082 136.51 61.4897 136.592 61.6687L141.988 73.6828C142.188 74.125 143.004 74.1283 143.048 73.6916L143.851 65.5018C143.862 65.3624 143.976 65.248 144.143 65.1969L163.022 59.8946C163.285 59.8211 163.393 59.5923 163.262 59.3804L156.686 48.3111C156.613 48.1887 156.616 48.0598 156.688 47.9559L172.628 24.7586C172.903 24.3576 172.138 23.8939 171.722 24.2145Z" fill="#FFE99A"/>
</g>
<defs>
<clipPath id="clip0_1034_24450">
<rect width="218.98" height="144.68" fill="white" transform="translate(10.02 19.7246)"/>
</clipPath>
</defs>
</svg>
