<svg width="263" height="88" viewBox="0 0 263 88" fill="none" xmlns="http://www.w3.org/2000/svg">
<path d="M58.9981 8.32757C58.9981 7.98059 59.0247 7.67364 59.078 7.40673C59.1579 7.11313 59.2911 6.87291 59.4776 6.68608C59.6907 6.49924 59.9838 6.35244 60.3568 6.24568C60.7297 6.13891 61.2226 6.08553 61.8353 6.08553H87.171C87.7837 6.08553 88.2766 6.13891 88.6495 6.24568C89.0225 6.35244 89.3022 6.49924 89.4887 6.68608C89.7019 6.87291 89.8351 7.11313 89.8883 7.40673C89.9683 7.67364 90.0082 7.98059 90.0082 8.32757C90.0082 8.88808 89.875 9.36852 89.6086 9.76888C89.3688 10.1692 88.7961 10.4095 87.8903 10.4895C87.9435 10.7031 87.9835 10.9166 88.0102 11.1301C88.0368 11.3436 88.0501 11.5572 88.0501 11.7707V13.212C88.0501 14.6533 87.3441 15.8411 85.9322 16.7753C84.5468 17.7094 82.4422 18.1765 79.6182 18.1765H77.82V20.3385H89.0891C89.7551 20.3385 90.288 20.4052 90.6876 20.5387C91.0872 20.6721 91.3936 20.859 91.6067 21.0992C91.8198 21.3127 91.953 21.5663 92.0063 21.8599C92.0862 22.1268 92.1262 22.407 92.1262 22.7006C92.1262 23.0743 92.0862 23.4079 92.0063 23.7015C91.953 23.9951 91.8198 24.2621 91.6067 24.5023C91.3936 24.7158 91.0872 24.8893 90.6876 25.0227C90.288 25.1295 89.7551 25.1829 89.0891 25.1829H60.0371C59.3711 25.1829 58.8382 25.1295 58.4386 25.0227C58.039 24.8893 57.7326 24.7158 57.5195 24.5023C57.3064 24.2621 57.1598 23.9951 57.0799 23.7015C57.0266 23.4079 57 23.0743 57 22.7006C57 22.407 57.0266 22.1268 57.0799 21.8599C57.1598 21.5663 57.3064 21.3127 57.5195 21.0992C57.7326 20.859 58.039 20.6721 58.4386 20.5387C58.8382 20.4052 59.3711 20.3385 60.0371 20.3385H71.3462V18.1765H69.508C66.684 18.1765 64.5661 17.7361 63.1541 16.8553C61.7421 15.9478 61.0361 14.7334 61.0361 13.212V11.7707C61.0361 11.2636 61.0894 10.8365 61.196 10.4895C60.2635 10.4095 59.6641 10.1692 59.3977 9.76888C59.1313 9.36852 58.9981 8.88808 58.9981 8.32757ZM63.3539 35.5523C62.6079 35.5523 62.0218 35.4723 61.5956 35.3121C61.1693 35.1786 60.8363 34.9785 60.5965 34.7116C60.3834 34.4713 60.2502 34.1777 60.1969 33.8308C60.1436 33.5105 60.117 33.1501 60.117 32.7498V29.3867C60.117 28.7194 60.1969 28.1723 60.3568 27.7452C60.5433 27.3182 60.783 26.9845 61.0761 26.7443C61.3958 26.5041 61.7421 26.344 62.1151 26.2639C62.5147 26.1838 62.9276 26.1438 63.3539 26.1438C63.7801 26.1438 64.1798 26.1838 64.5527 26.2639C64.9523 26.344 65.2987 26.5041 65.5917 26.7443C65.8848 26.9845 66.1245 27.3182 66.311 27.7452C66.4975 28.1723 66.5908 28.7194 66.5908 29.3867V30.4277H86.7713C87.4374 30.4277 87.9702 30.5077 88.3698 30.6679C88.7694 30.828 89.0758 31.0282 89.2889 31.2684C89.502 31.5086 89.6353 31.7756 89.6885 32.0692C89.7685 32.3894 89.8084 32.683 89.8084 32.95C89.8084 33.2969 89.7685 33.6172 89.6885 33.9108C89.6353 34.2311 89.502 34.5114 89.2889 34.7516C89.0758 34.9918 88.7694 35.1786 88.3698 35.3121C87.9702 35.4723 87.4374 35.5523 86.7713 35.5523H63.3539ZM64.6726 2.12193C64.6726 1.48135 64.8058 0.974218 65.0722 0.600545C65.3653 0.200182 65.978 0 66.9105 0H81.3765C82.309 0 82.9084 0.200182 83.1748 0.600545C83.4679 0.974218 83.6144 1.48135 83.6144 2.12193C83.6144 2.65575 83.4679 3.13618 83.1748 3.56324C82.9084 3.9636 82.309 4.16378 81.3765 4.16378H66.9105C65.978 4.16378 65.3653 3.9636 65.0722 3.56324C64.8058 3.13618 64.6726 2.65575 64.6726 2.12193ZM67.39 12.4513C67.39 12.6115 67.4166 12.785 67.4699 12.9718C67.5232 13.1319 67.6431 13.2787 67.8296 13.4122C68.0161 13.519 68.2825 13.6124 68.6288 13.6924C68.9751 13.7725 69.4414 13.8126 70.0275 13.8126H79.0588C79.6449 13.8126 80.1111 13.7725 80.4574 13.6924C80.8038 13.6124 81.0702 13.519 81.2567 13.4122C81.4431 13.2787 81.563 13.1319 81.6163 12.9718C81.6696 12.785 81.6962 12.6115 81.6962 12.4513V11.8508C81.6962 11.5038 81.563 11.2102 81.2966 10.97C81.0568 10.7031 80.4441 10.5429 79.4584 10.4895H70.1473C69.5346 10.4895 69.0417 10.5296 68.6688 10.6096C68.2958 10.663 68.0161 10.7564 67.8296 10.8899C67.6431 10.9967 67.5232 11.1435 67.4699 11.3303C67.4166 11.4904 67.39 11.6639 67.39 11.8508V12.4513Z" fill="#DC6803"/>
<path d="M95.1711 4.24386C95.1711 3.84349 95.211 3.48317 95.291 3.16288C95.3975 2.81589 95.584 2.52229 95.8504 2.28207C96.1168 2.01516 96.4898 1.81498 96.9693 1.68153C97.4489 1.52138 98.0616 1.44131 98.8076 1.44131H110.876C111.622 1.44131 112.235 1.52138 112.714 1.68153C113.194 1.81498 113.567 2.01516 113.833 2.28207C114.1 2.52229 114.273 2.81589 114.353 3.16288C114.459 3.48317 114.512 3.84349 114.512 4.24386C114.512 4.56415 114.459 4.89778 114.353 5.24477C114.273 5.56506 114.1 5.85866 113.833 6.12557C113.567 6.36579 113.194 6.56597 112.714 6.72611C112.235 6.88626 111.622 6.96633 110.876 6.96633H108.558V17.9763C108.558 19.0974 108.651 20.125 108.838 21.0591C109.024 21.9933 109.331 22.8741 109.757 23.7015C110.183 24.5023 110.756 25.2897 111.475 26.0637C112.195 26.811 113.087 27.5584 114.153 28.3057C115.005 28.9196 115.565 29.6136 115.831 30.3876C116.124 31.1617 116.004 31.9757 115.472 32.8298C115.178 33.2836 114.819 33.6172 114.393 33.8308C113.993 34.071 113.553 34.2044 113.074 34.2311C112.781 34.2311 112.474 34.1911 112.155 34.111C111.835 34.0576 111.529 33.9242 111.236 33.7106C110.01 32.8565 108.918 31.909 107.959 30.8681C107.026 29.8271 106.2 28.7461 105.481 27.6251C104.788 28.8529 103.989 29.9873 103.083 31.0282C102.178 32.0692 101.152 32.95 100.006 33.6706C99.2871 34.1244 98.4879 34.3779 97.6087 34.4313C97.1558 34.458 96.6896 34.3779 96.2101 34.1911C95.7305 34.0042 95.3309 33.6439 95.0112 33.1101C94.4784 32.256 94.3452 31.4419 94.6116 30.6679C94.9047 29.8938 95.4774 29.1999 96.33 28.586C97.3956 27.8386 98.2881 27.078 99.0074 26.3039C99.7267 25.5032 100.299 24.6758 100.726 23.8217C101.152 22.9675 101.458 22.0601 101.645 21.0992C101.831 20.1383 101.925 19.0974 101.925 17.9763V6.96633H98.8076C98.0616 6.96633 97.4489 6.88626 96.9693 6.72611C96.4898 6.56597 96.1168 6.36579 95.8504 6.12557C95.584 5.85866 95.3975 5.56506 95.291 5.24477C95.211 4.89778 95.1711 4.56415 95.1711 4.24386ZM118.668 4.28389C118.668 2.94935 118.988 2.04186 119.628 1.56142C120.294 1.05429 121.053 0.800727 121.905 0.800727C122.332 0.800727 122.731 0.854109 123.104 0.960873C123.504 1.06764 123.85 1.25447 124.143 1.52138C124.436 1.78829 124.676 2.14862 124.862 2.60237C125.049 3.05611 125.142 3.61662 125.142 4.28389V13.8926H127.66C128.406 13.8926 129.018 13.986 129.498 14.1729C129.978 14.333 130.351 14.5466 130.617 14.8135C130.883 15.0804 131.057 15.3873 131.136 15.7343C131.243 16.0546 131.296 16.3749 131.296 16.6952C131.296 17.0955 131.243 17.4692 131.136 17.8162C131.057 18.1632 130.883 18.4701 130.617 18.737C130.351 18.9773 129.978 19.1774 129.498 19.3376C129.018 19.4977 128.406 19.5778 127.66 19.5778H125.142V31.6288C125.142 32.3227 125.049 32.8966 124.862 33.3503C124.676 33.8041 124.436 34.1644 124.143 34.4313C123.85 34.6982 123.504 34.8851 123.104 34.9918C122.731 35.0986 122.332 35.152 121.905 35.152C121.479 35.152 121.066 35.0986 120.667 34.9918C120.294 34.8851 119.947 34.6982 119.628 34.4313C119.334 34.1644 119.095 33.8041 118.908 33.3503C118.748 32.8966 118.668 32.3227 118.668 31.6288V4.28389Z" fill="#DC6803"/>
<path d="M139.216 4.28389C139.216 3.61662 139.31 3.05611 139.496 2.60237C139.683 2.14862 139.922 1.78829 140.216 1.52138C140.535 1.25447 140.895 1.06764 141.294 0.960873C141.694 0.854109 142.107 0.800727 142.533 0.800727C142.96 0.800727 143.372 0.854109 143.772 0.960873C144.172 1.06764 144.518 1.25447 144.811 1.52138C145.131 1.78829 145.384 2.14862 145.57 2.60237C145.757 3.05611 145.85 3.61662 145.85 4.28389V17.9763C145.85 19.0974 145.93 20.125 146.09 21.0591C146.276 21.9933 146.583 22.8741 147.009 23.7015C147.435 24.5023 147.995 25.2897 148.687 26.0637C149.407 26.811 150.299 27.5584 151.365 28.3057C152.217 28.9196 152.777 29.6136 153.043 30.3876C153.336 31.1617 153.216 31.9757 152.684 32.8298C152.39 33.2836 152.031 33.6172 151.605 33.8308C151.205 34.071 150.765 34.2044 150.286 34.2311C149.993 34.2311 149.686 34.1911 149.367 34.111C149.047 34.0576 148.741 33.9242 148.448 33.7106C147.249 32.8565 146.17 31.9224 145.211 30.9081C144.278 29.9205 143.466 28.8662 142.773 27.7452C142.08 28.9463 141.281 30.054 140.375 31.0682C139.496 32.0825 138.497 32.95 137.378 33.6706C136.659 34.1244 135.86 34.3779 134.981 34.4313C134.528 34.458 134.061 34.3779 133.582 34.1911C133.102 34.0042 132.703 33.6439 132.383 33.1101C131.85 32.256 131.717 31.4419 131.983 30.6679C132.276 29.8938 132.849 29.1999 133.702 28.586C134.767 27.8386 135.647 27.078 136.339 26.3039C137.059 25.5032 137.631 24.6758 138.058 23.8217C138.484 22.9675 138.777 22.0601 138.937 21.0992C139.123 20.1383 139.216 19.0974 139.216 17.9763V4.28389ZM158.878 18.737H154.042C153.296 18.737 152.697 18.6703 152.244 18.5369C151.791 18.3767 151.431 18.1765 151.165 17.9363C150.925 17.6694 150.765 17.3758 150.685 17.0555C150.606 16.7085 150.566 16.3349 150.566 15.9345C150.566 15.6142 150.606 15.2939 150.685 14.9736C150.765 14.6266 150.925 14.333 151.165 14.0928C151.431 13.8259 151.791 13.6124 152.244 13.4522C152.697 13.2921 153.296 13.212 154.042 13.212H158.878V4.28389C158.878 2.94935 159.197 2.04186 159.837 1.56142C160.503 1.05429 161.262 0.800727 162.114 0.800727C162.541 0.800727 162.94 0.854109 163.313 0.960873C163.713 1.06764 164.059 1.25447 164.352 1.52138C164.645 1.78829 164.885 2.14862 165.072 2.60237C165.258 3.05611 165.351 3.61662 165.351 4.28389V31.6288C165.351 32.3227 165.258 32.8966 165.072 33.3503C164.885 33.8041 164.645 34.1644 164.352 34.4313C164.059 34.6982 163.713 34.8851 163.313 34.9918C162.94 35.0986 162.541 35.152 162.114 35.152C161.688 35.152 161.275 35.0986 160.876 34.9918C160.503 34.8851 160.156 34.6982 159.837 34.4313C159.544 34.1644 159.304 33.8041 159.117 33.3503C158.957 32.8966 158.878 32.3227 158.878 31.6288V18.737Z" fill="#DC6803"/>
<path d="M191.734 20.6588V29.1465H202.363C203.109 29.1465 203.722 29.2132 204.202 29.3467C204.681 29.5068 205.054 29.707 205.321 29.9472C205.587 30.2141 205.76 30.5077 205.84 30.828C205.947 31.175 206 31.5487 206 31.949C206 32.2693 205.947 32.5896 205.84 32.9099C205.76 33.2569 205.587 33.5505 205.321 33.7907C205.054 34.0576 204.681 34.2712 204.202 34.4313C203.722 34.5914 203.109 34.6715 202.363 34.6715H174.59C173.844 34.6715 173.232 34.5914 172.752 34.4313C172.272 34.2712 171.899 34.0576 171.633 33.7907C171.367 33.5505 171.18 33.2569 171.074 32.9099C170.994 32.5896 170.954 32.2693 170.954 31.949C170.954 31.5487 170.994 31.175 171.074 30.828C171.18 30.5077 171.367 30.2141 171.633 29.9472C171.899 29.707 172.272 29.5068 172.752 29.3467C173.232 29.2132 173.844 29.1465 174.59 29.1465H185.26V20.6588H177.068C176.322 20.6588 175.736 20.5787 175.31 20.4186C174.883 20.2584 174.55 20.0449 174.311 19.778C174.097 19.4844 173.964 19.1641 173.911 18.8171C173.858 18.4434 173.831 18.0564 173.831 17.6561V4.68426C173.831 3.34971 174.151 2.44222 174.79 1.96178C175.456 1.45465 176.215 1.20109 177.068 1.20109H199.726C200.392 1.20109 200.925 1.28116 201.325 1.44131C201.724 1.60146 202.03 1.81498 202.244 2.08189C202.457 2.3488 202.59 2.65575 202.643 3.00273C202.723 3.32302 202.763 3.65666 202.763 4.00364C202.763 4.29724 202.723 4.60419 202.643 4.92448C202.59 5.24477 202.457 5.53837 202.244 5.80528C202.03 6.07219 201.724 6.29906 201.325 6.4859C200.925 6.67273 200.392 6.76615 199.726 6.76615H180.305V15.0937H200.126C200.792 15.0937 201.324 15.1871 201.724 15.374C202.124 15.5608 202.43 15.7877 202.643 16.0546C202.856 16.3215 202.99 16.6285 203.043 16.9754C203.123 17.2957 203.163 17.5893 203.163 17.8562C203.163 18.2032 203.123 18.5502 203.043 18.8972C202.99 19.2175 202.856 19.5111 202.643 19.778C202.43 20.0449 202.124 20.2584 201.724 20.4186C201.324 20.5787 200.792 20.6588 200.126 20.6588H191.734Z" fill="#DC6803"/>
<path d="M79.4234 82.1547V83.7561H99.644C100.39 83.7561 101.003 83.8095 101.482 83.9163C101.962 84.0231 102.335 84.1565 102.601 84.3167C102.868 84.5035 103.041 84.7304 103.121 84.9973C103.227 85.2642 103.28 85.5578 103.28 85.8781C103.28 86.2517 103.227 86.572 103.121 86.8389C103.041 87.1059 102.868 87.3194 102.601 87.4795C102.335 87.6664 101.962 87.7998 101.482 87.8799C101.003 87.96 100.39 88 99.644 88H76.1865C75.4406 88 74.8545 87.9199 74.4282 87.7598C74.002 87.6263 73.669 87.4261 73.4292 87.1592C73.2161 86.919 73.0829 86.6254 73.0296 86.2784C72.9763 85.9581 72.9496 85.6112 72.9496 85.2375V80.313C72.9496 80.0461 72.9763 79.7925 73.0296 79.5523C73.1095 79.2854 73.256 79.0585 73.4691 78.8717C73.6823 78.6582 73.9886 78.498 74.3883 78.3913C74.7879 78.2578 75.3207 78.1911 75.9867 78.1911H95.9275V76.7097H75.6271C74.5081 76.7097 73.7622 76.5362 73.3892 76.1893C73.0162 75.8156 72.8298 75.2951 72.8298 74.6278C72.8298 74.094 73.0162 73.6269 73.3892 73.2266C73.7622 72.7995 74.5081 72.586 75.6271 72.586H99.4042C100.044 72.586 100.563 72.6527 100.963 72.7862C101.362 72.9196 101.669 73.0931 101.882 73.3066C102.095 73.5202 102.228 73.7604 102.281 74.0273C102.361 74.2675 102.401 74.5211 102.401 74.788V80.0728C102.401 80.7134 102.215 81.2205 101.842 81.5942C101.469 81.9679 100.643 82.1547 99.3642 82.1547H79.4234ZM73.2693 55.4504C73.2693 55.1034 73.296 54.7965 73.3493 54.5296C73.4292 54.2627 73.5757 54.0358 73.7888 53.849C74.0286 53.6621 74.3616 53.5153 74.7879 53.4086C75.2408 53.3018 75.8402 53.2484 76.5861 53.2484H98.6449C99.3909 53.2484 99.977 53.3018 100.403 53.4086C100.856 53.5153 101.189 53.6621 101.402 53.849C101.642 54.0358 101.789 54.2627 101.842 54.5296C101.922 54.7965 101.962 55.1034 101.962 55.4504C101.962 55.744 101.922 56.0109 101.842 56.2511C101.789 56.4914 101.642 56.7182 101.402 56.9318C101.189 57.1186 100.856 57.2654 100.403 57.3722C99.977 57.4789 99.3909 57.5323 98.6449 57.5323H91.6117C91.9314 57.986 92.3976 58.3731 93.0103 58.6934C93.6231 58.987 94.3291 59.2539 95.1283 59.4941C95.9275 59.7076 96.78 59.8945 97.6858 60.0546C98.5916 60.188 99.5107 60.3082 100.443 60.4149C101.482 60.5484 102.255 60.7886 102.761 61.1356C103.267 61.4826 103.454 62.1632 103.32 63.1774C103.24 63.7113 103.094 64.1116 102.881 64.3785C102.668 64.6187 102.401 64.7922 102.082 64.899C101.762 64.9791 101.402 65.0191 101.003 65.0191C100.63 64.9924 100.243 64.9657 99.8438 64.939C98.7515 64.859 97.6459 64.7389 96.527 64.5787C95.408 64.3919 94.3291 64.1516 93.2901 63.8581C92.2511 63.5645 91.2654 63.2175 90.3329 62.8171C89.4271 62.39 88.6012 61.8963 87.8553 61.3358C86.3634 62.4835 84.5518 63.3242 82.4205 63.8581C80.2892 64.3919 78.118 64.7522 75.9068 64.939C75.5072 64.9657 75.1076 64.9924 74.708 65.0191C74.335 65.0191 73.9886 64.9791 73.669 64.899C73.3493 64.7922 73.0829 64.6187 72.8697 64.3785C72.6566 64.1116 72.5101 63.7113 72.4301 63.1774C72.2969 62.1632 72.4834 61.4826 72.9896 61.1356C73.4958 60.7886 74.2684 60.5484 75.3074 60.4149C76.2665 60.3082 77.1989 60.188 78.1047 60.0546C79.0371 59.8945 79.903 59.7076 80.7022 59.4941C81.5014 59.2806 82.1941 59.0136 82.7802 58.6934C83.3929 58.3731 83.8591 57.986 84.1788 57.5323H76.5861C75.8402 57.5323 75.2408 57.4789 74.7879 57.3722C74.3616 57.2654 74.0286 57.1186 73.7888 56.9318C73.5757 56.7182 73.4292 56.4914 73.3493 56.2511C73.296 56.0109 73.2693 55.744 73.2693 55.4504ZM72.7498 70.7043C71.8174 70.7043 71.1381 70.5174 70.7118 70.1438C70.3122 69.7701 70.1124 69.2229 70.1124 68.5023C70.1124 67.9151 70.3122 67.4079 70.7118 66.9809C71.1381 66.5538 71.8174 66.3403 72.7498 66.3403H102.601C103.534 66.3403 104.2 66.5538 104.599 66.9809C105.025 67.4079 105.239 67.9151 105.239 68.5023C105.239 69.2229 105.025 69.7701 104.599 70.1438C104.2 70.5174 103.534 70.7043 102.601 70.7043H72.7498Z" fill="#DC6803"/>
<path d="M113.279 71.9854C114.078 71.9854 114.797 72.2257 115.437 72.7061C116.103 73.1598 116.462 74.0006 116.516 75.2284H134.059C134.112 73.9739 134.458 73.1198 135.098 72.6661C135.737 72.2123 136.47 71.9854 137.296 71.9854C137.722 71.9854 138.108 72.0388 138.454 72.1456C138.827 72.2523 139.147 72.4392 139.413 72.7061C139.707 72.973 139.933 73.3333 140.093 73.7871C140.253 74.2408 140.333 74.8013 140.333 75.4686V84.8772C140.333 85.2775 140.306 85.6378 140.253 85.9581C140.199 86.3051 140.053 86.5987 139.813 86.8389C139.6 87.1059 139.28 87.306 138.854 87.4395C138.428 87.5996 137.842 87.6797 137.096 87.6797H113.478C112.732 87.6797 112.146 87.5996 111.72 87.4395C111.294 87.306 110.961 87.1059 110.721 86.8389C110.508 86.5987 110.375 86.3051 110.321 85.9581C110.268 85.6378 110.242 85.2775 110.242 84.8772V75.4686C110.242 74.1341 110.535 73.2266 111.121 72.7461C111.707 72.239 112.426 71.9854 113.279 71.9854ZM121.591 53.3285C122.31 53.3285 122.869 53.4086 123.269 53.5687C123.669 53.7022 123.975 53.9023 124.188 54.1692C124.401 54.4095 124.534 54.7164 124.588 55.0901C124.641 55.4638 124.668 55.8908 124.668 56.3712V59.6542C124.668 60.455 124.574 61.3358 124.388 62.2966C124.201 63.2575 123.895 64.2184 123.469 65.1793C123.069 66.1401 122.523 67.061 121.83 67.9418C121.164 68.7959 120.339 69.5299 119.353 70.1438C118.58 70.6242 117.861 70.811 117.195 70.7043C116.529 70.5708 115.956 70.3173 115.477 69.9436C115.183 69.7301 114.944 69.4632 114.757 69.1429C114.571 68.7959 114.451 68.4355 114.398 68.0619C114.371 67.6882 114.411 67.3145 114.517 66.9408C114.624 66.5405 114.837 66.1935 115.157 65.8999C116.009 65.0725 116.715 64.1783 117.275 63.2175C117.861 62.2299 118.154 61.1356 118.154 59.9345V58.8535H111.241C110.495 58.8535 109.882 58.7868 109.402 58.6533C108.923 58.4932 108.55 58.293 108.283 58.0528C108.017 57.7859 107.831 57.4923 107.724 57.172C107.644 56.825 107.604 56.4513 107.604 56.051C107.604 55.7307 107.644 55.4104 107.724 55.0901C107.831 54.7431 108.017 54.4495 108.283 54.2093C108.55 53.9424 108.923 53.7288 109.402 53.5687C109.882 53.4086 110.495 53.3285 111.241 53.3285H121.591ZM133.859 64.1783H129.743C128.997 64.1783 128.397 64.1116 127.945 63.9782C127.492 63.818 127.132 63.6045 126.866 63.3376C126.626 63.0707 126.466 62.7771 126.386 62.4568C126.306 62.1098 126.266 61.7361 126.266 61.3358C126.266 61.0155 126.306 60.6952 126.386 60.3749C126.466 60.0279 126.626 59.721 126.866 59.4541C127.132 59.1871 127.492 58.9736 127.945 58.8135C128.397 58.6533 128.997 58.5732 129.743 58.5732H133.859V56.3312C133.859 54.9967 134.179 54.0892 134.818 53.6087C135.484 53.1016 136.243 52.848 137.096 52.848C137.522 52.848 137.922 52.9014 138.295 53.0082C138.694 53.115 139.041 53.3018 139.334 53.5687C139.627 53.8356 139.866 54.1959 140.053 54.6497C140.239 55.1034 140.333 55.6639 140.333 56.3312V67.1811C140.333 67.875 140.239 68.4489 140.053 68.9026C139.866 69.3564 139.627 69.7167 139.334 69.9836C139.041 70.2505 138.694 70.4374 138.295 70.5441C137.922 70.6509 137.522 70.7043 137.096 70.7043C136.669 70.7043 136.257 70.6509 135.857 70.5441C135.484 70.4374 135.138 70.2505 134.818 69.9836C134.525 69.7167 134.285 69.3564 134.099 68.9026C133.939 68.4489 133.859 67.875 133.859 67.1811V64.1783ZM134.059 80.3531H116.516V82.5551H134.059V80.3531Z" fill="#DC6803"/>
<path d="M164.517 71.0646H160.161C160.161 71.8653 160.068 72.9597 159.882 74.3476C159.695 75.7088 159.389 77.1235 158.962 78.5915C158.563 80.0595 158.017 81.4741 157.324 82.8353C156.658 84.1965 155.806 85.2642 154.767 86.0382C154.394 86.3051 154.007 86.4786 153.608 86.5587C153.235 86.6388 152.862 86.6388 152.489 86.5587C152.142 86.5053 151.809 86.3852 151.49 86.1984C151.197 86.0382 150.944 85.8514 150.73 85.6378C150.464 85.3976 150.278 85.0907 150.171 84.717C150.064 84.37 150.024 83.9964 150.051 83.596C150.078 83.1956 150.158 82.7819 150.291 82.3549C150.451 81.9545 150.65 81.5808 150.89 81.2339C152.169 79.3922 153.022 77.5372 153.448 75.6688C153.901 73.7737 154.127 71.7052 154.127 69.4632V58.8535H148.533C147.787 58.8535 147.174 58.7868 146.694 58.6533C146.215 58.4932 145.842 58.293 145.575 58.0528C145.309 57.7859 145.122 57.4923 145.016 57.172C144.936 56.825 144.896 56.4513 144.896 56.051C144.896 55.7307 144.936 55.4104 145.016 55.0901C145.122 54.7431 145.309 54.4495 145.575 54.2093C145.842 53.9424 146.215 53.7288 146.694 53.5687C147.174 53.4086 147.787 53.3285 148.533 53.3285H157.084C157.804 53.3285 158.363 53.4086 158.763 53.5687C159.162 53.7022 159.469 53.9023 159.682 54.1692C159.895 54.4095 160.028 54.7164 160.081 55.0901C160.135 55.4638 160.161 55.8908 160.161 56.3712V65.5396H164.517V56.3312C164.517 54.9967 164.797 54.0892 165.356 53.6087C165.942 53.1016 166.608 52.848 167.354 52.848C168.074 52.848 168.713 53.1016 169.273 53.6087C169.859 54.0892 170.152 54.9967 170.152 56.3312V83.6761C170.152 84.37 170.072 84.9439 169.912 85.3976C169.752 85.8514 169.539 86.2117 169.273 86.4786C169.033 86.7455 168.74 86.9324 168.393 87.0391C168.047 87.1459 167.701 87.1993 167.354 87.1993C166.981 87.1993 166.622 87.1459 166.275 87.0391C165.929 86.9324 165.623 86.7455 165.356 86.4786C165.117 86.2117 164.917 85.8514 164.757 85.3976C164.597 84.9439 164.517 84.37 164.517 83.6761V71.0646ZM172.989 56.3312C172.989 54.9967 173.269 54.0892 173.828 53.6087C174.414 53.1016 175.08 52.848 175.826 52.848C176.546 52.848 177.185 53.1016 177.744 53.6087C178.33 54.0892 178.624 54.9967 178.624 56.3312V83.6761C178.624 84.37 178.544 84.9439 178.384 85.3976C178.224 85.8514 178.011 86.2117 177.744 86.4786C177.505 86.7455 177.212 86.9324 176.865 87.0391C176.519 87.1459 176.173 87.1993 175.826 87.1993C175.453 87.1993 175.094 87.1459 174.747 87.0391C174.401 86.9324 174.095 86.7455 173.828 86.4786C173.588 86.2117 173.389 85.8514 173.229 85.3976C173.069 84.9439 172.989 84.37 172.989 83.6761V56.3312Z" fill="#DC6803"/>
<path d="M191.299 74.3476C191.299 74.748 191.193 75.1083 190.979 75.4286C190.793 75.7222 190.553 75.9757 190.26 76.1893C189.967 76.3761 189.647 76.5229 189.301 76.6297C188.955 76.7097 188.648 76.7498 188.382 76.7498C187.556 76.7498 186.85 76.5629 186.264 76.1893C185.705 75.7889 185.411 75.175 185.385 74.3476L184.785 56.8517C184.759 55.9976 185.025 55.2636 185.585 54.6497C186.171 54.0091 187.103 53.6888 188.382 53.6888C189.581 53.6888 190.473 54.0091 191.059 54.6497C191.672 55.2636 191.979 55.9976 191.979 56.8517L191.299 74.3476ZM184.466 81.9945C184.466 83.1156 184.839 83.9563 185.585 84.5168C186.357 85.104 187.303 85.3976 188.422 85.3976C189.541 85.3976 190.487 85.104 191.259 84.5168C192.032 83.9563 192.418 83.1156 192.418 81.9945C192.418 80.8735 192.032 80.0194 191.259 79.4322C190.487 78.845 189.541 78.5514 188.422 78.5514C187.303 78.5514 186.357 78.845 185.585 79.4322C184.839 80.0194 184.466 80.8735 184.466 81.9945Z" fill="#DC6803"/>
</svg>
