<svg width="388" height="48" viewBox="0 0 388 48" fill="none" xmlns="http://www.w3.org/2000/svg">
<path d="M386.452 30.0152C386.452 30.5581 386.305 31.0467 386.01 31.4811C385.752 31.8792 385.42 32.2231 385.015 32.5126C384.61 32.766 384.167 32.9651 383.688 33.1098C383.209 33.2184 382.786 33.2727 382.417 33.2727C381.275 33.2727 380.298 33.0194 379.487 32.5126C378.714 31.9697 378.308 31.1372 378.271 30.0152L377.442 6.28914C377.405 5.13089 377.774 4.13552 378.548 3.30303C379.358 2.43434 380.648 2 382.417 2C384.075 2 385.31 2.43434 386.121 3.30303C386.968 4.13552 387.392 5.13089 387.392 6.28914L386.452 30.0152ZM377 40.3851C377 41.9053 377.516 43.0455 378.548 43.8056C379.616 44.6019 380.925 45 382.472 45C384.02 45 385.328 44.6019 386.397 43.8056C387.466 43.0455 388 41.9053 388 40.3851C388 38.8649 387.466 37.7066 386.397 36.9104C385.328 36.1141 384.02 35.7159 382.472 35.7159C380.925 35.7159 379.616 36.1141 378.548 36.9104C377.516 37.7066 377 38.8649 377 40.3851Z" fill="#DC6803"/>
<path d="M350.761 25.3939H344.82C344.82 26.4662 344.693 27.9316 344.438 29.7902C344.184 31.6131 343.766 33.5074 343.185 35.4732C342.64 37.439 341.895 39.3333 340.95 41.1562C340.042 42.979 338.879 44.4087 337.462 45.4452C336.953 45.8026 336.427 46.035 335.882 46.1422C335.373 46.2494 334.864 46.2494 334.355 46.1422C333.883 46.0707 333.429 45.9099 332.993 45.6597C332.593 45.4452 332.248 45.195 331.957 44.9091C331.594 44.5874 331.34 44.1764 331.194 43.676C331.049 43.2113 330.994 42.711 331.031 42.1748C331.067 41.6387 331.176 41.0847 331.358 40.5128C331.576 39.9767 331.848 39.4763 332.175 39.0117C333.919 36.5455 335.082 34.0614 335.663 31.5594C336.281 29.0218 336.59 26.2518 336.59 23.2494V9.04196H328.96C327.942 9.04196 327.107 8.9526 326.453 8.77389C325.799 8.55944 325.29 8.29138 324.927 7.9697C324.563 7.61228 324.309 7.21911 324.163 6.79021C324.054 6.32556 324 5.82518 324 5.28904C324 4.86014 324.054 4.43124 324.163 4.00233C324.309 3.53768 324.563 3.14452 324.927 2.82284C325.29 2.46542 325.799 2.17949 326.453 1.96504C327.107 1.75058 327.942 1.64336 328.96 1.64336H340.623C341.604 1.64336 342.367 1.75058 342.912 1.96504C343.457 2.14375 343.875 2.41181 344.166 2.76923C344.457 3.09091 344.638 3.50194 344.711 4.00233C344.784 4.50272 344.82 5.07459 344.82 5.71795V17.9953H350.761V5.66434C350.761 3.87723 351.142 2.662 351.905 2.01865C352.705 1.33955 353.613 1 354.63 1C355.611 1 356.483 1.33955 357.246 2.01865C358.046 2.662 358.446 3.87723 358.446 5.66434V42.2821C358.446 43.2113 358.336 43.9798 358.118 44.5874C357.9 45.195 357.61 45.6775 357.246 46.035C356.919 46.3924 356.52 46.6426 356.047 46.7855C355.575 46.9285 355.103 47 354.63 47C354.122 47 353.631 46.9285 353.159 46.7855C352.686 46.6426 352.269 46.3924 351.905 46.035C351.578 45.6775 351.306 45.195 351.088 44.5874C350.87 43.9798 350.761 43.2113 350.761 42.2821V25.3939ZM362.315 5.66434C362.315 3.87723 362.697 2.662 363.46 2.01865C364.259 1.33955 365.167 1 366.185 1C367.166 1 368.038 1.33955 368.801 2.01865C369.6 2.662 370 3.87723 370 5.66434V42.2821C370 43.2113 369.891 43.9798 369.673 44.5874C369.455 45.195 369.164 45.6775 368.801 46.035C368.474 46.3924 368.074 46.6426 367.602 46.7855C367.13 46.9285 366.657 47 366.185 47C365.676 47 365.186 46.9285 364.713 46.7855C364.241 46.6426 363.823 46.3924 363.46 46.035C363.133 45.6775 362.86 45.195 362.642 44.5874C362.424 43.9798 362.315 43.2113 362.315 42.2821V5.66434Z" fill="#DC6803"/>
<path d="M280.629 26.823C281.703 26.823 282.67 27.1471 283.53 27.7954C284.425 28.4077 284.909 29.5421 284.98 31.1989H308.565C308.637 29.5061 309.103 28.3536 309.962 27.7414C310.822 27.1291 311.807 26.823 312.917 26.823C313.49 26.823 314.009 26.895 314.475 27.0391C314.976 27.1831 315.406 27.4352 315.764 27.7954C316.158 28.1556 316.463 28.6418 316.678 29.254C316.893 29.8663 317 30.6226 317 31.523V44.2184C317 44.7586 316.964 45.2448 316.893 45.677C316.821 46.1452 316.624 46.5414 316.302 46.8655C316.015 47.2257 315.585 47.4958 315.012 47.6759C314.439 47.892 313.651 48 312.648 48H280.897C279.895 48 279.107 47.892 278.534 47.6759C277.96 47.4958 277.513 47.2257 277.19 46.8655C276.904 46.5414 276.725 46.1452 276.653 45.677C276.582 45.2448 276.546 44.7586 276.546 44.2184V31.523C276.546 29.7222 276.94 28.4977 277.728 27.8494C278.516 27.1651 279.483 26.823 280.629 26.823ZM291.803 1.64828C292.77 1.64828 293.523 1.75632 294.06 1.97241C294.597 2.15249 295.009 2.42261 295.295 2.78276C295.582 3.1069 295.761 3.52107 295.833 4.02529C295.904 4.5295 295.94 5.10575 295.94 5.75402V10.1839C295.94 11.2644 295.815 12.4529 295.564 13.7494C295.313 15.046 294.901 16.3425 294.328 17.6391C293.791 18.9356 293.057 20.1782 292.126 21.3667C291.23 22.5192 290.12 23.5096 288.795 24.3379C287.756 24.9862 286.789 25.2383 285.894 25.0943C284.998 24.9142 284.228 24.572 283.584 24.0678C283.19 23.7797 282.867 23.4195 282.617 22.9874C282.366 22.5192 282.205 22.033 282.133 21.5287C282.097 21.0245 282.151 20.5203 282.294 20.0161C282.438 19.4759 282.724 19.0077 283.154 18.6115C284.3 17.495 285.249 16.2885 286.001 14.992C286.789 13.6594 287.183 12.1828 287.183 10.5621V9.10345H277.889C276.886 9.10345 276.062 9.01341 275.418 8.83333C274.773 8.61724 274.271 8.34713 273.913 8.02299C273.555 7.66284 273.304 7.26667 273.161 6.83448C273.054 6.36628 273 5.86207 273 5.32184C273 4.88966 273.054 4.45747 273.161 4.02529C273.304 3.55709 273.555 3.16092 273.913 2.83678C274.271 2.47663 274.773 2.18851 275.418 1.97241C276.062 1.75632 276.886 1.64828 277.889 1.64828H291.803ZM308.297 16.2885H302.763C301.76 16.2885 300.954 16.1985 300.346 16.0184C299.737 15.8023 299.253 15.5142 298.895 15.154C298.573 14.7939 298.358 14.3977 298.25 13.9655C298.143 13.4973 298.089 12.9931 298.089 12.4529C298.089 12.0207 298.143 11.5885 298.25 11.1563C298.358 10.6881 298.573 10.2739 298.895 9.91379C299.253 9.55364 299.737 9.26552 300.346 9.04942C300.954 8.83333 301.76 8.72529 302.763 8.72529H308.297V5.7C308.297 3.89923 308.726 2.67471 309.586 2.02644C310.481 1.34215 311.502 1 312.648 1C313.221 1 313.759 1.07203 314.26 1.21609C314.797 1.36015 315.263 1.61226 315.657 1.97241C316.051 2.33257 316.373 2.81877 316.624 3.43104C316.875 4.0433 317 4.79962 317 5.7V20.3402C317 21.2766 316.875 22.051 316.624 22.6632C316.373 23.2755 316.051 23.7617 315.657 24.1218C315.263 24.482 314.797 24.7341 314.26 24.8782C313.759 25.0222 313.221 25.0943 312.648 25.0943C312.075 25.0943 311.52 25.0222 310.983 24.8782C310.481 24.7341 310.016 24.482 309.586 24.1218C309.192 23.7617 308.87 23.2755 308.619 22.6632C308.404 22.051 308.297 21.2766 308.297 20.3402V16.2885ZM308.565 38.1138H284.98V41.0851H308.565V38.1138Z" fill="#DC6803"/>
<path d="M234.458 40.0945V42.2604H261.514C262.512 42.2604 263.332 42.3326 263.974 42.477C264.615 42.6214 265.114 42.8018 265.471 43.0184C265.827 43.2711 266.059 43.578 266.166 43.9389C266.309 44.2999 266.38 44.697 266.38 45.1302C266.38 45.6356 266.309 46.0687 266.166 46.4297C266.059 46.7907 265.827 47.0795 265.471 47.2961C265.114 47.5488 264.615 47.7293 263.974 47.8376C263.332 47.9459 262.512 48 261.514 48H230.127C229.129 48 228.345 47.8917 227.775 47.6751C227.204 47.4946 226.759 47.2239 226.438 46.8629C226.153 46.538 225.975 46.1409 225.903 45.6717C225.832 45.2385 225.796 44.7692 225.796 44.2638V37.6037C225.796 37.2427 225.832 36.8998 225.903 36.5749C226.01 36.2139 226.206 35.9071 226.491 35.6544C226.777 35.3656 227.187 35.149 227.721 35.0046C228.256 34.8241 228.969 34.7339 229.86 34.7339H256.542V32.7304H229.379C227.882 32.7304 226.884 32.4958 226.385 32.0265C225.886 31.5211 225.636 30.8172 225.636 29.9147C225.636 29.1928 225.886 28.5611 226.385 28.0196C226.884 27.442 227.882 27.1532 229.379 27.1532H261.193C262.049 27.1532 262.744 27.2435 263.279 27.424C263.813 27.6045 264.223 27.8391 264.509 28.1279C264.794 28.4167 264.972 28.7416 265.043 29.1025C265.15 29.4274 265.204 29.7704 265.204 30.1313V37.2788C265.204 38.1452 264.954 38.831 264.455 39.3364C263.956 39.8418 262.851 40.0945 261.14 40.0945H234.458ZM226.224 3.97811C226.224 3.50883 226.26 3.0937 226.331 2.73272C226.438 2.37174 226.634 2.0649 226.919 1.81221C227.24 1.55952 227.686 1.36098 228.256 1.21659C228.862 1.0722 229.664 1 230.662 1H260.177C261.176 1 261.96 1.0722 262.53 1.21659C263.136 1.36098 263.582 1.55952 263.867 1.81221C264.188 2.0649 264.384 2.37174 264.455 2.73272C264.562 3.0937 264.615 3.50883 264.615 3.97811C264.615 4.37519 264.562 4.73618 264.455 5.06106C264.384 5.38594 264.188 5.69278 263.867 5.98157C263.582 6.23426 263.136 6.4328 262.53 6.57719C261.96 6.72158 261.176 6.79378 260.177 6.79378H250.767C251.195 7.40745 251.818 7.93088 252.638 8.36406C253.458 8.76114 254.403 9.12212 255.472 9.44701C256.542 9.73579 257.682 9.98848 258.894 10.2051C260.106 10.3856 261.336 10.548 262.584 10.6924C263.974 10.8729 265.008 11.1978 265.685 11.6671C266.362 12.1363 266.612 13.0568 266.433 14.4286C266.326 15.1505 266.13 15.692 265.845 16.053C265.56 16.3779 265.204 16.6125 264.776 16.7569C264.348 16.8652 263.867 16.9194 263.332 16.9194C262.833 16.8833 262.316 16.8472 261.782 16.8111C260.32 16.7028 258.841 16.5403 257.344 16.3237C255.846 16.071 254.403 15.7462 253.013 15.3491C251.622 14.952 250.303 14.4827 249.056 13.9412C247.844 13.3637 246.739 12.6959 245.741 11.9378C243.744 13.49 241.32 14.6271 238.469 15.3491C235.617 16.071 232.712 16.5584 229.753 16.8111C229.218 16.8472 228.684 16.8833 228.149 16.9194C227.65 16.9194 227.187 16.8652 226.759 16.7569C226.331 16.6125 225.975 16.3779 225.689 16.053C225.404 15.692 225.208 15.1505 225.101 14.4286C224.923 13.0568 225.173 12.1363 225.85 11.6671C226.527 11.1978 227.561 10.8729 228.951 10.6924C230.234 10.548 231.482 10.3856 232.694 10.2051C233.942 9.98848 235.1 9.73579 236.17 9.44701C237.239 9.15822 238.166 8.79724 238.95 8.36406C239.77 7.93088 240.394 7.40745 240.821 6.79378H230.662C229.664 6.79378 228.862 6.72158 228.256 6.57719C227.686 6.4328 227.24 6.23426 226.919 5.98157C226.634 5.69278 226.438 5.38594 226.331 5.06106C226.26 4.73618 226.224 4.37519 226.224 3.97811ZM225.529 24.6083C224.281 24.6083 223.372 24.3556 222.802 23.8502C222.267 23.3449 222 22.6048 222 21.6302C222 20.836 222.267 20.1502 222.802 19.5726C223.372 18.995 224.281 18.7062 225.529 18.7062H265.471C266.719 18.7062 267.61 18.995 268.144 19.5726C268.715 20.1502 269 20.836 269 21.6302C269 22.6048 268.715 23.3449 268.144 23.8502C267.61 24.3556 266.719 24.6083 265.471 24.6083H225.529Z" fill="#DC6803"/>
<path d="M182.868 27.1603V38.5718H197.123C198.124 38.5718 198.945 38.6615 199.588 38.8409C200.231 39.0562 200.732 39.3254 201.089 39.6483C201.446 40.0072 201.678 40.4019 201.786 40.8325C201.929 41.299 202 41.8014 202 42.3397C202 42.7703 201.929 43.201 201.786 43.6316C201.678 44.0981 201.446 44.4928 201.089 44.8158C200.732 45.1746 200.231 45.4617 199.588 45.677C198.945 45.8923 198.124 46 197.123 46H159.877C158.876 46 158.055 45.8923 157.412 45.677C156.769 45.4617 156.268 45.1746 155.911 44.8158C155.554 44.4928 155.304 44.0981 155.161 43.6316C155.054 43.201 155 42.7703 155 42.3397C155 41.8014 155.054 41.299 155.161 40.8325C155.304 40.4019 155.554 40.0072 155.911 39.6483C156.268 39.3254 156.769 39.0562 157.412 38.8409C158.055 38.6615 158.876 38.5718 159.877 38.5718H174.186V27.1603H163.2C162.199 27.1603 161.413 27.0526 160.842 26.8373C160.27 26.622 159.823 26.3349 159.502 25.9761C159.216 25.5813 159.037 25.1507 158.966 24.6842C158.894 24.1818 158.859 23.6615 158.859 23.1232V5.68301C158.859 3.88876 159.287 2.66866 160.145 2.02273C161.038 1.34091 162.056 1 163.2 1H193.586C194.479 1 195.194 1.10766 195.73 1.32297C196.266 1.53828 196.677 1.82536 196.962 2.18421C197.248 2.54306 197.427 2.95574 197.498 3.42225C197.605 3.85287 197.659 4.30144 197.659 4.76794C197.659 5.16268 197.605 5.57536 197.498 6.00598C197.427 6.4366 197.248 6.83134 196.962 7.19019C196.677 7.54904 196.266 7.85407 195.73 8.10526C195.194 8.35646 194.479 8.48206 193.586 8.48206H167.54V19.6782H194.122C195.015 19.6782 195.73 19.8038 196.266 20.055C196.802 20.3062 197.212 20.6112 197.498 20.9701C197.784 21.3289 197.963 21.7416 198.034 22.2081C198.141 22.6388 198.195 23.0335 198.195 23.3923C198.195 23.8589 198.141 24.3254 198.034 24.7919C197.963 25.2225 197.784 25.6172 197.498 25.9761C197.212 26.3349 196.802 26.622 196.266 26.8373C195.73 27.0526 195.015 27.1603 194.122 27.1603H182.868Z" fill="#DC6803"/>
<path d="M111.895 5.66434C111.895 4.77079 112.02 4.0202 112.27 3.41259C112.521 2.80497 112.843 2.32246 113.237 1.96504C113.666 1.60762 114.149 1.35742 114.686 1.21445C115.223 1.07148 115.777 1 116.35 1C116.922 1 117.477 1.07148 118.014 1.21445C118.551 1.35742 119.016 1.60762 119.41 1.96504C119.839 2.32246 120.179 2.80497 120.429 3.41259C120.68 4.0202 120.805 4.77079 120.805 5.66434V24C120.805 25.5012 120.913 26.8772 121.127 28.1282C121.378 29.3792 121.789 30.5587 122.362 31.6667C122.934 32.7389 123.686 33.7933 124.616 34.8298C125.582 35.8306 126.781 36.8314 128.213 37.8322C129.358 38.6542 130.109 39.5835 130.467 40.62C130.861 41.6566 130.7 42.7467 129.984 43.8904C129.591 44.4981 129.107 44.9448 128.535 45.2308C127.998 45.5524 127.408 45.7312 126.763 45.7669C126.37 45.7669 125.958 45.7133 125.529 45.6061C125.099 45.5346 124.688 45.3559 124.294 45.0699C122.684 43.9262 121.235 42.6752 119.946 41.317C118.694 39.9946 117.602 38.5828 116.672 37.0816C115.742 38.69 114.668 40.1733 113.451 41.5315C112.27 42.8897 110.928 44.0513 109.425 45.0163C108.459 45.6239 107.386 45.9635 106.205 46.035C105.596 46.0707 104.97 45.9635 104.326 45.7133C103.682 45.4631 103.145 44.9806 102.716 44.2657C102 43.122 101.821 42.0319 102.179 40.9953C102.573 39.9588 103.342 39.0295 104.487 38.2075C105.918 37.2067 107.099 36.188 108.03 35.1515C108.996 34.0793 109.765 32.9713 110.338 31.8275C110.911 30.6838 111.304 29.4685 111.519 28.1818C111.769 26.8951 111.895 25.5012 111.895 24V5.66434ZM138.304 25.0187H131.809C130.807 25.0187 130.002 24.9293 129.394 24.7506C128.785 24.5361 128.302 24.2681 127.944 23.9464C127.622 23.589 127.408 23.1958 127.3 22.7669C127.193 22.3023 127.139 21.8019 127.139 21.2657C127.139 20.8368 127.193 20.4079 127.3 19.979C127.408 19.5144 127.622 19.1212 127.944 18.7995C128.302 18.4421 128.785 18.1562 129.394 17.9417C130.002 17.7273 130.807 17.62 131.809 17.62H138.304V5.66434C138.304 3.87723 138.734 2.662 139.592 2.01865C140.487 1.33955 141.507 1 142.652 1C143.225 1 143.761 1.07148 144.262 1.21445C144.799 1.35742 145.264 1.60762 145.658 1.96504C146.052 2.32246 146.374 2.80497 146.624 3.41259C146.875 4.0202 147 4.77079 147 5.66434V42.2821C147 43.2113 146.875 43.9798 146.624 44.5874C146.374 45.195 146.052 45.6775 145.658 46.035C145.264 46.3924 144.799 46.6426 144.262 46.7855C143.761 46.9285 143.225 47 142.652 47C142.08 47 141.525 46.9285 140.988 46.7855C140.487 46.6426 140.022 46.3924 139.592 46.035C139.199 45.6775 138.877 45.195 138.626 44.5874C138.412 43.9798 138.304 43.2113 138.304 42.2821V25.0187Z" fill="#DC6803"/>
<path d="M51.9407 5.61072C51.9407 5.07459 51.9949 4.59207 52.1035 4.16317C52.2482 3.69852 52.5015 3.30536 52.8632 2.98368C53.225 2.62626 53.7315 2.3582 54.3828 2.17949C55.034 1.96504 55.8661 1.85781 56.8792 1.85781H73.2684C74.2815 1.85781 75.1136 1.96504 75.7648 2.17949C76.4161 2.3582 76.9226 2.62626 77.2844 2.98368C77.6462 3.30536 77.8813 3.69852 77.9899 4.16317C78.1346 4.59207 78.207 5.07459 78.207 5.61072C78.207 6.03963 78.1346 6.4864 77.9899 6.95105C77.8813 7.37995 77.6462 7.77312 77.2844 8.13054C76.9226 8.45222 76.4161 8.72028 75.7648 8.93473C75.1136 9.14918 74.2815 9.25641 73.2684 9.25641H70.1208V24C70.1208 25.5012 70.2475 26.8772 70.5007 28.1282C70.754 29.3792 71.17 30.5587 71.7489 31.6667C72.3278 32.7389 73.1056 33.7933 74.0825 34.8298C75.0593 35.8306 76.2713 36.8314 77.7185 37.8322C78.8763 38.6542 79.636 39.5835 79.9978 40.62C80.3958 41.6566 80.233 42.7467 79.5094 43.8904C79.1114 44.4981 78.623 44.9448 78.0441 45.2308C77.5014 45.5524 76.9045 45.7312 76.2533 45.7669C75.8553 45.7669 75.4392 45.7133 75.0051 45.6061C74.5709 45.5346 74.1549 45.3559 73.7569 45.0699C72.0926 43.9262 70.6093 42.6573 69.3068 41.2634C68.0405 39.8695 66.9189 38.4219 65.9421 36.9207C65.0014 38.5649 63.9161 40.0839 62.686 41.4779C61.4559 42.8718 60.063 44.0513 58.5072 45.0163C57.5304 45.6239 56.445 45.9635 55.2511 46.035C54.636 46.0707 54.0029 45.9635 53.3517 45.7133C52.7004 45.4631 52.1578 44.9806 51.7236 44.2657C51 43.122 50.8191 42.0319 51.1809 40.9953C51.5789 39.9588 52.3568 39.0295 53.5145 38.2075C54.9617 37.2067 56.1737 36.188 57.1505 35.1515C58.1274 34.0793 58.9052 32.9713 59.4841 31.8275C60.063 30.6838 60.479 29.4685 60.7323 28.1818C60.9856 26.8951 61.1122 25.5012 61.1122 24V9.25641H56.8792C55.8661 9.25641 55.034 9.14918 54.3828 8.93473C53.7315 8.72028 53.225 8.45222 52.8632 8.13054C52.5015 7.77312 52.2482 7.37995 52.1035 6.95105C51.9949 6.4864 51.9407 6.03963 51.9407 5.61072ZM83.851 5.66434C83.851 3.87723 84.2851 2.662 85.1534 2.01865C86.0579 1.33955 87.089 1 88.2467 1C88.8256 1 89.3683 1.07148 89.8748 1.21445C90.4175 1.35742 90.8878 1.60762 91.2858 1.96504C91.6838 2.32246 92.0094 2.80497 92.2627 3.41259C92.5159 4.0202 92.6426 4.77079 92.6426 5.66434V18.5315H96.0615C97.0746 18.5315 97.9066 18.6566 98.5578 18.9068C99.2091 19.1212 99.7156 19.4072 100.077 19.7646C100.439 20.122 100.674 20.533 100.783 20.9977C100.928 21.4266 101 21.8555 101 22.2844C101 22.8205 100.928 23.3209 100.783 23.7855C100.674 24.2502 100.439 24.6612 100.077 25.0187C99.7156 25.3403 99.2091 25.6084 98.5578 25.8228C97.9066 26.0373 97.0746 26.1445 96.0615 26.1445H92.6426V42.2821C92.6426 43.2113 92.5159 43.9798 92.2627 44.5874C92.0094 45.195 91.6838 45.6775 91.2858 46.035C90.8878 46.3924 90.4175 46.6426 89.8748 46.7855C89.3683 46.9285 88.8256 47 88.2467 47C87.6679 47 87.1071 46.9285 86.5644 46.7855C86.0579 46.6426 85.5875 46.3924 85.1534 46.035C84.7554 45.6775 84.4298 45.195 84.1766 44.5874C83.9595 43.9798 83.851 43.2113 83.851 42.2821V5.66434Z" fill="#DC6803"/>
<path d="M2.67348 11.2432C2.67348 10.7748 2.70914 10.3604 2.78043 10C2.88737 9.6036 3.06562 9.27928 3.31514 9.02703C3.60032 8.77477 3.99243 8.57658 4.49148 8.43243C4.99053 8.28829 5.64999 8.21622 6.46986 8.21622H40.3697C41.1896 8.21622 41.8491 8.28829 42.3481 8.43243C42.8472 8.57658 43.2215 8.77477 43.471 9.02703C43.7562 9.27928 43.9344 9.6036 44.0057 10C44.1126 10.3604 44.1661 10.7748 44.1661 11.2432C44.1661 12 43.9878 12.6486 43.6314 13.1892C43.3106 13.7297 42.5442 14.0541 41.3322 14.1622C41.4035 14.4505 41.457 14.7387 41.4926 15.027C41.5283 15.3153 41.5461 15.6036 41.5461 15.8919V17.8378C41.5461 19.7838 40.6014 21.3874 38.7122 22.6486C36.8586 23.9099 34.0425 24.5405 30.2639 24.5405H27.8578V27.4595H42.9363C43.8274 27.4595 44.5404 27.5496 45.0751 27.7297C45.6098 27.9099 46.0197 28.1622 46.3049 28.4865C46.59 28.7748 46.7683 29.1171 46.8396 29.5135C46.9465 29.8739 47 30.2523 47 30.6486C47 31.1532 46.9465 31.6036 46.8396 32C46.7683 32.3964 46.59 32.7568 46.3049 33.0811C46.0197 33.3694 45.6098 33.6036 45.0751 33.7838C44.5404 33.9279 43.8274 34 42.9363 34H4.06372C3.17255 34 2.45961 33.9279 1.92491 33.7838C1.39021 33.6036 0.980272 33.3694 0.6951 33.0811C0.409928 32.7568 0.213889 32.3964 0.106949 32C0.0356558 31.6036 0 31.1532 0 30.6486C0 30.2523 0.0356558 29.8739 0.106949 29.5135C0.213889 29.1171 0.409928 28.7748 0.6951 28.4865C0.980272 28.1622 1.39021 27.9099 1.92491 27.7297C2.45961 27.5496 3.17255 27.4595 4.06372 27.4595H19.1957V24.5405H16.7361C12.9575 24.5405 10.1236 23.9459 8.23435 22.7568C6.34508 21.5315 5.40048 19.8919 5.40048 17.8378V15.8919C5.40048 15.2072 5.47176 14.6306 5.61434 14.1622C4.36671 14.0541 3.56466 13.7297 3.2082 13.1892C2.85173 12.6486 2.67348 12 2.67348 11.2432ZM8.50172 48C7.50362 48 6.7194 47.8919 6.14905 47.6757C5.57871 47.4955 5.13311 47.2252 4.81229 46.8649C4.52712 46.5405 4.34888 46.1441 4.27758 45.6757C4.20629 45.2432 4.17067 44.7568 4.17067 44.2162V39.6757C4.17067 38.7748 4.2776 38.036 4.49148 37.4595C4.74101 36.8829 5.06181 36.4324 5.45392 36.1081C5.88168 35.7838 6.3451 35.5676 6.84415 35.4595C7.37885 35.3514 7.93138 35.2973 8.50172 35.2973C9.07207 35.2973 9.60677 35.3514 10.1058 35.4595C10.6405 35.5676 11.1039 35.7838 11.496 36.1081C11.8881 36.4324 12.209 36.8829 12.4585 37.4595C12.708 38.036 12.8328 38.7748 12.8328 39.6757V41.0811H39.835C40.7262 41.0811 41.4391 41.1892 41.9738 41.4054C42.5085 41.6216 42.9184 41.8919 43.2036 42.2162C43.4888 42.5405 43.667 42.9009 43.7383 43.2973C43.8453 43.7297 43.8988 44.1261 43.8988 44.4865C43.8988 44.955 43.8453 45.3874 43.7383 45.7838C43.667 46.2162 43.4888 46.5946 43.2036 46.9189C42.9184 47.2432 42.5085 47.4955 41.9738 47.6757C41.4391 47.8919 40.7262 48 39.835 48H8.50172ZM10.2662 2.86486C10.2662 2 10.4445 1.31531 10.8009 0.81081C11.193 0.27027 12.0129 0 13.2605 0H32.6166C33.8642 0 34.6663 0.27027 35.0227 0.81081C35.4149 1.31531 35.6109 2 35.6109 2.86486C35.6109 3.58559 35.4149 4.23423 35.0227 4.81081C34.6663 5.35135 33.8642 5.62162 32.6166 5.62162H13.2605C12.0129 5.62162 11.193 5.35135 10.8009 4.81081C10.4445 4.23423 10.2662 3.58559 10.2662 2.86486ZM13.9022 16.8108C13.9022 17.027 13.9378 17.2613 14.0091 17.5135C14.0804 17.7297 14.2408 17.9279 14.4903 18.1081C14.7398 18.2523 15.0963 18.3784 15.5597 18.4865C16.0231 18.5946 16.647 18.6486 17.4312 18.6486H29.5153C30.2996 18.6486 30.9234 18.5946 31.3868 18.4865C31.8502 18.3784 32.2067 18.2523 32.4562 18.1081C32.7057 17.9279 32.8661 17.7297 32.9374 17.5135C33.0087 17.2613 33.0444 17.027 33.0444 16.8108V16C33.0444 15.5315 32.8661 15.1351 32.5097 14.8108C32.1889 14.4505 31.369 14.2342 30.0501 14.1622H17.5916C16.7717 14.1622 16.1123 14.2162 15.6132 14.3243C15.1142 14.3964 14.7398 14.5225 14.4903 14.7027C14.2408 14.8468 14.0804 15.045 14.0091 15.2973C13.9378 15.5135 13.9022 15.7477 13.9022 16V16.8108Z" fill="#DC6803"/>
</svg>
