<svg width="343" height="180" viewBox="0 0 343 180" fill="none" xmlns="http://www.w3.org/2000/svg">
<g filter="url(#filter0_d_2726_308062)">
<g clip-path="url(#clip0_2726_308062)">
<rect x="3" y="2.90625" width="343" height="180.526" rx="12" fill="white"/>
<rect x="18.2327" y="25.1389" width="181.535" height="22.5346" rx="3.4902" fill="white"/>
<rect x="18.2327" y="25.1389" width="181.535" height="22.5346" rx="3.4902" stroke="#D3D8DD" stroke-width="0.465359"/>
<path d="M33.9326 40.1343H33.0573V36.3796H32.3211V39.758H31.4622V32.8785H32.3211V35.6352H33.0573V32.7394H33.9326V40.1343ZM31.0368 34.3509H30.5051V37.5371C30.775 37.5125 30.985 37.4894 31.1349 37.4676L31.184 38.1301C30.336 38.3047 29.1335 38.3919 27.5766 38.3919L27.4702 37.6393L28.1574 37.6352V34.3509H27.6175V33.6147H31.0368V34.3509ZM29.6789 37.5943V34.3509H28.9754V37.6189L29.6789 37.5943ZM38.6116 33.7538C38.6116 34.1328 38.7261 34.5023 38.9552 34.8622C39.1869 35.2221 39.506 35.533 39.9122 35.7947C40.3185 36.0538 40.7739 36.2269 41.2783 36.3142L40.8693 37.0749C40.2504 36.944 39.6996 36.7027 39.2169 36.351C38.737 35.9965 38.3771 35.5698 38.1372 35.0708C37.8917 35.567 37.5277 35.9924 37.0451 36.3469C36.5625 36.6986 36.013 36.9413 35.3968 37.0749L34.996 36.3142C35.495 36.2242 35.9449 36.0497 36.3457 35.7906C36.7493 35.5289 37.0656 35.218 37.2946 34.8581C37.5264 34.4982 37.6436 34.1301 37.6463 33.7538V33.2057H38.6116V33.7538ZM41.5483 39.1936H34.7915V38.441H41.5483V39.1936ZM48.0433 37.3367H42.8571V33.3202H47.9779V34.0564H43.7815V34.9481H47.8061V35.6597H43.7815V36.6168H48.0433V37.3367ZM48.7877 39.2345H42.0309V38.4901H48.7877V39.2345ZM55.4136 33.8438H54.3829V35.6352H55.3564V36.3551H49.9247V35.6352H50.9064V33.8438H49.892V33.1075H55.4136V33.8438ZM56.0189 37.8029H53.0823V40.1261H52.1825V37.8029H49.2621V37.0585H56.0189V37.8029ZM53.4831 35.6352V33.8438H51.8144V35.6352H53.4831ZM62.514 36.9358H57.3278V33.3857H62.4567V34.1219H58.2276V36.2078H62.514V36.9358ZM63.2666 39.1936H56.5098V38.441H63.2666V39.1936ZM69.9416 37.034H69.0336V35.2426H67.7575V34.4982H69.0336V32.7394H69.9416V37.034ZM69.9416 40.0443H65.0253V37.353H69.9416V40.0443ZM65.9333 39.3081H69.0499V38.0729H65.9333V39.3081ZM66.465 33.9583C66.465 34.2609 66.5318 34.5554 66.6654 34.8417C66.799 35.128 66.9967 35.3857 67.2585 35.6148C67.5202 35.8438 67.8365 36.0224 68.2074 36.1506L67.7493 36.8704C67.3457 36.7313 66.9967 36.5296 66.7022 36.2651C66.4105 36.0006 66.1814 35.6897 66.0151 35.3325C65.846 35.7279 65.6074 36.0715 65.2993 36.3632C64.9912 36.6523 64.6245 36.8677 64.1991 37.0095L63.7328 36.2978C64.1146 36.1696 64.4404 35.9842 64.7104 35.7415C64.983 35.4989 65.1889 35.2235 65.328 34.9154C65.4697 34.6045 65.5406 34.2828 65.5406 33.9501V33.8928H64.0028V33.1566H67.9947V33.8928H66.465V33.9583ZM77.3691 40.1343H76.4939V32.7394H77.3691V40.1343ZM75.8476 39.7744H74.9805V36.2569H74.277C74.2498 36.7341 74.1652 37.1485 74.0234 37.5003C73.8844 37.8493 73.6976 38.1179 73.4631 38.306C73.2286 38.4914 72.96 38.5828 72.6574 38.5801C72.3383 38.5828 72.0575 38.4778 71.8148 38.2651C71.5749 38.0497 71.3894 37.743 71.2586 37.3449C71.1277 36.944 71.0622 36.475 71.0622 35.9379C71.0622 35.4007 71.1277 34.9344 71.2586 34.5391C71.3894 34.141 71.5749 33.8356 71.8148 33.6229C72.0575 33.4102 72.3383 33.3039 72.6574 33.3039C72.9546 33.3039 73.2177 33.3925 73.4467 33.5697C73.6785 33.747 73.8639 34.0019 74.003 34.3346C74.1448 34.6672 74.2334 35.0626 74.2689 35.5207H74.9805V32.8703H75.8476V39.7744ZM72.6574 34.1628C72.5019 34.1601 72.367 34.2269 72.2524 34.3632C72.1379 34.4995 72.0507 34.7013 71.9907 34.9685C71.9307 35.2357 71.9021 35.5589 71.9048 35.9379C71.9021 36.3169 71.9307 36.64 71.9907 36.9072C72.0507 37.1744 72.1379 37.3762 72.2524 37.5125C72.367 37.6489 72.5019 37.7157 72.6574 37.713C72.9055 37.7184 73.0977 37.5671 73.2341 37.259C73.3731 36.9508 73.4427 36.5105 73.4427 35.9379C73.4427 35.3653 73.3731 34.9249 73.2341 34.6168C73.0977 34.3087 72.9055 34.1573 72.6574 34.1628ZM80.9602 34.5145C80.9602 34.9781 81.0311 35.4266 81.1729 35.8602C81.3174 36.291 81.5274 36.6727 81.8028 37.0054C82.0809 37.338 82.4108 37.5875 82.7926 37.7539L82.2445 38.4819C81.8355 38.2828 81.4824 37.9965 81.1852 37.623C80.8907 37.2494 80.663 36.8159 80.5021 36.3223C80.3358 36.8459 80.1013 37.3067 79.7986 37.7048C79.4987 38.1029 79.1415 38.4083 78.727 38.621L78.1544 37.8847C78.5443 37.7021 78.8797 37.4348 79.1606 37.0831C79.4442 36.7313 79.6596 36.3319 79.8068 35.8847C79.9568 35.4375 80.0331 34.9808 80.0359 34.5145V33.3366H80.9602V34.5145ZM84.4286 40.1425H83.5288V35.8642H81.9746V35.128H83.5288V32.7394H84.4286V40.1425ZM89.762 34.6781C89.762 35.0926 89.8111 35.4948 89.9093 35.8847C90.0102 36.2746 90.167 36.6318 90.3796 36.9563C90.5923 37.2808 90.8582 37.5439 91.1772 37.7457L90.6782 38.441C90.3565 38.2474 90.0838 37.9884 89.8602 37.6639C89.6366 37.3367 89.4607 36.9617 89.3326 36.5391C89.1935 36.9999 89.004 37.4089 88.7641 37.7661C88.5241 38.1233 88.2351 38.4055 87.897 38.6128L87.3325 37.9338C87.6788 37.7239 87.9679 37.4485 88.1996 37.1076C88.4314 36.7668 88.6032 36.3919 88.715 35.9829C88.8295 35.5739 88.8868 35.1526 88.8868 34.719V33.3938H89.762V34.6781ZM93.8358 40.1343H92.9605V32.7394H93.8358V40.1343ZM92.2979 39.7744H91.439V36.036H90.3837V35.2835H91.439V32.8703H92.2979V39.7744ZM100.707 37.3367H95.5209V33.3202H100.642V34.0564H96.4452V34.9481H100.47V35.6597H96.4452V36.6168H100.707V37.3367ZM101.451 39.2345H94.6947V38.4901H101.451V39.2345ZM106.719 34.5145C106.717 34.9699 106.792 35.413 106.944 35.8438C107.097 36.2746 107.318 36.6577 107.607 36.9931C107.896 37.3285 108.236 37.5794 108.625 37.7457L108.086 38.4737C107.668 38.2801 107.304 37.9979 106.994 37.6271C106.685 37.2562 106.444 36.8241 106.27 36.3305C106.095 36.865 105.848 37.3339 105.529 37.7375C105.213 38.1383 104.835 38.441 104.396 38.6455L103.84 37.8847C104.241 37.713 104.589 37.4539 104.883 37.1076C105.18 36.7586 105.407 36.3591 105.562 35.9092C105.717 35.4566 105.795 34.9917 105.795 34.5145V33.3366H106.719V34.5145ZM110.073 40.1425H109.157V32.7394H110.073V40.1425ZM114.941 33.4675C114.941 33.9119 114.911 34.3346 114.851 34.7354H116.446V32.7394H117.354V40.1261H116.446V37.4594H114.605V36.7313H116.446V35.4716H114.699C114.5 36.1969 114.157 36.8513 113.669 37.4348C113.18 38.0156 112.5 38.531 111.628 38.9809L111.129 38.2856C111.734 37.972 112.234 37.6312 112.63 37.2631C113.028 36.8922 113.337 36.4832 113.558 36.036L111.292 36.2487L111.161 35.4716L113.84 35.308C113.938 34.9726 114.003 34.6045 114.033 34.2037H111.546V33.4675H114.941ZM124.593 40.1425H123.685V38.1956H119.554V37.4676H124.593V40.1425ZM124.593 37.1076H123.685V35.2753H122.196V36.6741H118.72V33.2793H122.196V34.5391H123.685V32.7394H124.593V37.1076ZM119.628 35.9542H121.297V34.0155H119.628V35.9542ZM131.816 40.1343H130.9V32.7394H131.816V40.1343ZM129.608 33.5247C129.608 34.6999 129.342 35.732 128.81 36.6209C128.278 37.5071 127.396 38.2419 126.164 38.8255L125.689 38.0974C126.641 37.6448 127.357 37.1035 127.837 36.4737C128.319 35.8411 128.601 35.098 128.683 34.2446H126.066V33.5247H129.608Z" fill="#2E3135"/>
<path d="M184.643 35.1445L187.435 37.9367L190.227 35.1445" stroke="#6F757B" stroke-width="0.930719" stroke-linecap="round" stroke-linejoin="round"/>
<rect x="205.233" y="25.1389" width="96.5346" height="22.5346" rx="3.4902" fill="white"/>
<rect x="205.233" y="25.1389" width="96.5346" height="22.5346" rx="3.4902" stroke="#D3D8DD" stroke-width="0.465359"/>
<path d="M220.775 38.8664L222.795 36.7395C223.062 36.4587 223.265 36.2324 223.405 36.0606C223.546 35.8861 223.653 35.7184 223.724 35.5575C223.797 35.3939 223.834 35.2235 223.834 35.0462C223.834 34.8499 223.782 34.6754 223.679 34.5227C223.575 34.37 223.433 34.2514 223.253 34.1669C223.076 34.0823 222.877 34.0401 222.656 34.0401C222.424 34.0401 222.221 34.0864 222.047 34.1791C221.872 34.2718 221.737 34.4027 221.642 34.5718C221.549 34.7408 221.503 34.9344 221.503 35.1526H220.807C220.805 34.809 220.884 34.505 221.045 34.2405C221.208 33.976 221.433 33.7701 221.719 33.6229C222.006 33.4756 222.326 33.402 222.681 33.402C223.032 33.402 223.347 33.4743 223.625 33.6188C223.906 33.7633 224.126 33.961 224.284 34.2119C224.442 34.4627 224.521 34.7408 224.521 35.0462C224.521 35.2725 224.48 35.4893 224.398 35.6966C224.317 35.9011 224.179 36.1287 223.985 36.3796C223.794 36.6277 223.52 36.9358 223.163 37.304L221.805 38.7028V38.7518H224.627V39.4062H220.783L220.775 38.8664ZM227.638 39.4881C227.201 39.4881 226.828 39.3694 226.517 39.1322C226.209 38.895 225.973 38.5487 225.81 38.0933C225.649 37.638 225.568 37.0885 225.568 36.445C225.568 35.8097 225.65 35.2644 225.814 34.809C225.977 34.3509 226.214 34.0019 226.525 33.7619C226.836 33.522 227.207 33.402 227.638 33.402C228.069 33.402 228.439 33.522 228.75 33.7619C229.061 34.0019 229.298 34.3509 229.462 34.809C229.626 35.2644 229.707 35.8097 229.707 36.445C229.707 37.0885 229.626 37.638 229.462 38.0933C229.301 38.5487 229.065 38.895 228.754 39.1322C228.444 39.3694 228.071 39.4881 227.638 39.4881ZM227.638 38.8336C227.921 38.8336 228.164 38.7409 228.366 38.5555C228.568 38.3701 228.722 38.0988 228.828 37.7416C228.934 37.3844 228.987 36.9522 228.987 36.445C228.987 35.9379 228.934 35.5043 228.828 35.1444C228.722 34.7845 228.568 34.5104 228.366 34.3223C228.164 34.1341 227.921 34.0401 227.638 34.0401C227.354 34.0401 227.11 34.1341 226.906 34.3223C226.704 34.5104 226.548 34.7845 226.439 35.1444C226.333 35.5043 226.28 35.9379 226.28 36.445C226.28 36.9522 226.333 37.3844 226.439 37.7416C226.546 38.0988 226.7 38.3701 226.902 38.5555C227.106 38.7409 227.351 38.8336 227.638 38.8336ZM230.681 38.8664L232.701 36.7395C232.969 36.4587 233.172 36.2324 233.311 36.0606C233.452 35.8861 233.559 35.7184 233.63 35.5575C233.703 35.3939 233.74 35.2235 233.74 35.0462C233.74 34.8499 233.688 34.6754 233.585 34.5227C233.481 34.37 233.339 34.2514 233.159 34.1669C232.982 34.0823 232.783 34.0401 232.562 34.0401C232.33 34.0401 232.127 34.0864 231.953 34.1791C231.778 34.2718 231.643 34.4027 231.548 34.5718C231.455 34.7408 231.409 34.9344 231.409 35.1526H230.714C230.711 34.809 230.79 34.505 230.951 34.2405C231.114 33.976 231.339 33.7701 231.626 33.6229C231.912 33.4756 232.232 33.402 232.587 33.402C232.939 33.402 233.253 33.4743 233.532 33.6188C233.812 33.7633 234.032 33.961 234.19 34.2119C234.348 34.4627 234.427 34.7408 234.427 35.0462C234.427 35.2725 234.386 35.4893 234.305 35.6966C234.223 35.9011 234.085 36.1287 233.891 36.3796C233.701 36.6277 233.427 36.9358 233.069 37.304L231.711 38.7028V38.7518H234.534V39.4062H230.689L230.681 38.8664ZM237.536 39.4881C237.184 39.4881 236.864 39.4212 236.575 39.2876C236.288 39.1513 236.059 38.9645 235.887 38.7273C235.718 38.4873 235.627 38.2174 235.613 37.9175H236.325C236.344 38.092 236.41 38.2501 236.521 38.3919C236.633 38.531 236.778 38.6414 236.955 38.7232C237.132 38.8023 237.326 38.8418 237.536 38.8418C237.787 38.8418 238.013 38.7846 238.215 38.67C238.416 38.5555 238.575 38.3987 238.689 38.1997C238.804 38.0006 238.861 37.7784 238.861 37.533C238.861 37.2794 238.801 37.0517 238.681 36.85C238.564 36.6455 238.4 36.4859 238.19 36.3714C237.983 36.2542 237.748 36.1942 237.487 36.1915C236.96 36.1833 236.592 36.3605 236.382 36.7232H235.671L236.088 33.4838H239.294V34.1382H236.701L236.481 35.8724H236.538C236.671 35.7688 236.834 35.6856 237.024 35.6229C237.215 35.5602 237.413 35.5289 237.618 35.5289C237.988 35.5289 238.322 35.6148 238.62 35.7865C238.92 35.9556 239.154 36.1915 239.323 36.4941C239.495 36.7968 239.581 37.1376 239.581 37.5166C239.581 37.8929 239.492 38.231 239.315 38.531C239.138 38.8309 238.894 39.0654 238.583 39.2345C238.272 39.4035 237.923 39.4881 237.536 39.4881ZM243.156 36.7722H240.562V36.126H243.156V36.7722ZM246.166 39.4881C245.73 39.4881 245.356 39.3694 245.045 39.1322C244.737 38.895 244.501 38.5487 244.338 38.0933C244.177 37.638 244.096 37.0885 244.096 36.445C244.096 35.8097 244.178 35.2644 244.342 34.809C244.505 34.3509 244.742 34.0019 245.053 33.7619C245.364 33.522 245.735 33.402 246.166 33.402C246.597 33.402 246.967 33.522 247.278 33.7619C247.589 34.0019 247.826 34.3509 247.99 34.809C248.154 35.2644 248.235 35.8097 248.235 36.445C248.235 37.0885 248.154 37.638 247.99 38.0933C247.829 38.5487 247.593 38.895 247.282 39.1322C246.972 39.3694 246.599 39.4881 246.166 39.4881ZM246.166 38.8336C246.449 38.8336 246.692 38.7409 246.894 38.5555C247.096 38.3701 247.25 38.0988 247.356 37.7416C247.462 37.3844 247.516 36.9522 247.516 36.445C247.516 35.9379 247.462 35.5043 247.356 35.1444C247.25 34.7845 247.096 34.5104 246.894 34.3223C246.692 34.1341 246.449 34.0401 246.166 34.0401C245.882 34.0401 245.638 34.1341 245.434 34.3223C245.232 34.5104 245.076 34.7845 244.967 35.1444C244.861 35.5043 244.808 35.9379 244.808 36.445C244.808 36.9522 244.861 37.3844 244.967 37.7416C245.074 38.0988 245.228 38.3701 245.43 38.5555C245.634 38.7409 245.879 38.8336 246.166 38.8336ZM251.262 39.4881C250.872 39.4881 250.523 39.4226 250.215 39.2917C249.91 39.1608 249.667 38.9768 249.487 38.7396C249.31 38.5023 249.214 38.2283 249.201 37.9175H249.945C249.959 38.1002 250.024 38.261 250.141 38.4001C250.261 38.5392 250.418 38.6469 250.612 38.7232C250.805 38.7968 251.019 38.8336 251.254 38.8336C251.51 38.8336 251.741 38.79 251.945 38.7028C252.152 38.6128 252.313 38.4901 252.428 38.3347C252.545 38.1765 252.604 37.9965 252.604 37.7948C252.604 37.5766 252.546 37.3844 252.432 37.2181C252.32 37.0517 252.156 36.9222 251.941 36.8295C251.726 36.7368 251.467 36.6904 251.164 36.6904H250.681V36.0442H251.164C251.401 36.0442 251.612 36.0019 251.798 35.9174C251.983 35.8329 252.126 35.7143 252.227 35.5616C252.331 35.4089 252.383 35.2316 252.383 35.0299C252.383 34.8363 252.336 34.6645 252.244 34.5145C252.154 34.3646 252.026 34.2487 251.859 34.1669C251.693 34.0823 251.499 34.0401 251.278 34.0401C251.066 34.0401 250.867 34.0782 250.681 34.1546C250.496 34.2309 250.344 34.34 250.227 34.4818C250.11 34.6209 250.046 34.7845 250.035 34.9726H249.323C249.337 34.6672 249.432 34.3959 249.61 34.1587C249.787 33.9187 250.023 33.7333 250.317 33.6024C250.612 33.4688 250.935 33.402 251.287 33.402C251.652 33.402 251.971 33.4743 252.244 33.6188C252.519 33.7606 252.73 33.9528 252.878 34.1955C253.025 34.4382 253.097 34.7027 253.094 34.989C253.097 35.3216 253.008 35.6066 252.829 35.8438C252.649 36.081 252.402 36.2433 252.088 36.3305V36.3714C252.342 36.4123 252.561 36.4982 252.747 36.6291C252.935 36.7572 253.078 36.9222 253.176 37.124C253.277 37.323 253.326 37.5466 253.323 37.7948C253.326 38.1138 253.238 38.4028 253.058 38.6619C252.878 38.9182 252.629 39.1199 252.313 39.2672C252 39.4144 251.649 39.4881 251.262 39.4881ZM256.939 36.7722H254.346V36.126H256.939V36.7722ZM257.733 38.8664L259.753 36.7395C260.02 36.4587 260.223 36.2324 260.362 36.0606C260.504 35.8861 260.611 35.7184 260.681 35.5575C260.755 35.3939 260.792 35.2235 260.792 35.0462C260.792 34.8499 260.74 34.6754 260.636 34.5227C260.533 34.37 260.391 34.2514 260.211 34.1669C260.034 34.0823 259.835 34.0401 259.614 34.0401C259.382 34.0401 259.179 34.0864 259.005 34.1791C258.83 34.2718 258.695 34.4027 258.6 34.5718C258.507 34.7408 258.461 34.9344 258.461 35.1526H257.765C257.763 34.809 257.842 34.505 258.002 34.2405C258.166 33.976 258.391 33.7701 258.677 33.6229C258.964 33.4756 259.284 33.402 259.639 33.402C259.99 33.402 260.305 33.4743 260.583 33.6188C260.864 33.7633 261.084 33.961 261.242 34.2119C261.4 34.4627 261.479 34.7408 261.479 35.0462C261.479 35.2725 261.438 35.4893 261.356 35.6966C261.275 35.9011 261.137 36.1287 260.943 36.3796C260.752 36.6277 260.478 36.9358 260.121 37.304L258.763 38.7028V38.7518H261.585V39.4062H257.741L257.733 38.8664ZM265.561 34.1791V34.1382H262.428V33.4838H266.322V34.171L263.614 39.4062H262.845L265.561 34.1791Z" fill="#555A60"/>
<g clip-path="url(#clip1_2726_308062)">
<path d="M284.642 32.9941H278.67C278.198 32.9941 277.816 33.3761 277.816 33.8473V39.8194C277.816 40.2906 278.198 40.6726 278.67 40.6726H284.642C285.113 40.6726 285.495 40.2906 285.495 39.8194V33.8473C285.495 33.3761 285.113 32.9941 284.642 32.9941Z" stroke="#6F757B" stroke-width="0.930719" stroke-linecap="round" stroke-linejoin="round"/>
<path d="M283.361 32.1406V33.8469" stroke="#6F757B" stroke-width="0.930719" stroke-linecap="round" stroke-linejoin="round"/>
<path d="M279.949 32.1406V33.8469" stroke="#6F757B" stroke-width="0.930719" stroke-linecap="round" stroke-linejoin="round"/>
<path d="M277.816 35.5527H285.495" stroke="#6F757B" stroke-width="0.930719" stroke-linecap="round" stroke-linejoin="round"/>
</g>
<rect x="18.2327" y="57.1389" width="557.535" height="194.535" rx="3.4902" fill="white"/>
<rect x="18.2327" y="57.1389" width="557.535" height="194.535" rx="3.4902" stroke="#D3D8DD" stroke-width="0.465359"/>
<path d="M36.0428 78.7056H32.6808V73.9775H36.0428V78.7056ZM33.3107 78.1821H35.413V74.4928H33.3107V78.1821ZM38.2515 80.5461H37.6052V73.2576H38.2515V80.5461ZM41.9816 74.6074C41.9816 74.9564 42.0566 75.2958 42.2066 75.6258C42.3565 75.9557 42.5665 76.2488 42.8364 76.5051C43.1064 76.7587 43.4159 76.9551 43.7649 77.0941L43.405 77.5931C43.0069 77.4268 42.6565 77.1855 42.3538 76.8692C42.0539 76.5529 41.8276 76.1875 41.6749 75.773C41.5194 76.2202 41.2836 76.6142 40.9673 76.9551C40.6537 77.2932 40.2856 77.5495 39.863 77.724L39.5112 77.2086C39.8684 77.0696 40.1861 76.8678 40.4642 76.6033C40.7423 76.3388 40.9591 76.0334 41.1145 75.6871C41.2699 75.3408 41.349 74.9809 41.3517 74.6074V73.6748H41.9816V74.6074ZM45.5236 78.6974H44.8774V76.3661H43.3804V75.8426H44.8774V74.8773H43.3804V74.3456H44.8774V73.2658H45.5236V78.6974ZM45.6872 80.3744H40.82V78.133H41.4663V79.8345H45.6872V80.3744ZM50.7671 74.4438V74.5583C50.7616 74.9918 50.7453 75.424 50.718 75.8548C50.6907 76.2829 50.6362 76.7751 50.5544 77.3313L49.9082 77.2741C49.9954 76.7342 50.0527 76.2516 50.08 75.8262C50.1072 75.3981 50.1209 74.9864 50.1209 74.591H47.0697V74.0675H50.7671V74.4438ZM48.8611 78.3539C49.7582 78.3211 50.5544 78.2639 51.2497 78.1821L51.2824 78.6647C50.6471 78.7656 49.9777 78.8351 49.2742 78.8733C48.5707 78.9087 47.8413 78.9265 47.086 78.9265H46.7425L46.6607 78.3948C47.356 78.3893 47.8795 78.3825 48.2312 78.3743V76.1452H48.8611V78.3539ZM52.3459 76.3006H53.5238V76.8569H52.3459V80.5298H51.7078V73.2576H52.3459V76.3006ZM60.1088 74.2065V74.3047C60.1034 74.6673 60.0897 75.0027 60.0679 75.3108C60.0461 75.619 59.997 75.968 59.9207 76.3579L59.2744 76.3088C59.3508 75.9244 59.4012 75.5835 59.4258 75.2863C59.453 74.9891 59.4694 74.681 59.4749 74.3619H56.485V73.8221H60.1088V74.2065ZM58.2356 76.996C59.1736 76.9578 59.9725 76.8923 60.6323 76.7996L60.6732 77.2741C59.9943 77.3913 59.2704 77.4704 58.5014 77.5113C57.7352 77.5495 56.9349 77.5686 56.1005 77.5686L56.0351 77.0369H56.1251L57.5975 77.0164V75.4335H58.2356V76.996ZM61.7776 75.6299H62.841V76.1779H61.7776V78.7301H61.1232V73.2576H61.7776V75.6299ZM62.0148 80.3744H57.1558V78.2393H57.802V79.8345H62.0148V80.3744ZM66.7675 75.8998H64.2643V77.1023C64.9515 77.1023 65.5063 77.09 65.929 77.0655C66.3516 77.0382 66.7784 76.9878 67.2092 76.9142L67.2746 77.4459C66.8247 77.5222 66.3803 77.5727 65.9413 77.5972C65.505 77.6217 64.9051 77.634 64.1416 77.634H63.6181V75.3926H66.113V74.3047H63.6017V73.7812H66.7675V75.8998ZM69.3442 78.6156H68.698V76.6524H67.2583V76.1207H68.698V75.0164H67.2583V74.4928H68.698V73.2658H69.3442V78.6156ZM69.5651 80.3335H64.6161V78.223H65.2623V79.8017H69.5651V80.3335ZM74.784 76.1698H73.3116V77.1882C74.0423 77.1527 74.7049 77.1023 75.2993 77.0369L75.3484 77.5113C74.0669 77.6858 72.5126 77.7731 70.6857 77.7731L70.5876 77.2495C71.4029 77.2441 72.0982 77.2318 72.6735 77.2127V76.1698H71.2502V73.7321H74.7267V74.2638H71.8964V75.6462H74.784V76.1698ZM76.5509 78.7056H75.9047V73.2658H76.5509V78.7056ZM76.7881 80.3744H71.831V78.3293H72.469V79.8345H76.7881V80.3744ZM86.1053 80.5298H85.4754V76.7669H84.4284V80.1535H83.8231V73.4212H84.4284V76.2188H85.4754V73.2576H86.1053V80.5298ZM80.9027 78.0757C81.309 78.0703 81.7044 78.0512 82.0889 78.0185C82.4733 77.983 82.8714 77.923 83.2832 77.8385L83.365 78.4111C82.8823 78.4956 82.427 78.557 81.9989 78.5952C81.5708 78.6306 81.1427 78.6483 80.7146 78.6483H80.2647V74.1493H80.9027V78.0757ZM93.7619 77.3886H87.136V76.8569H88.7802V75.8344C88.4857 75.7199 88.2608 75.5712 88.1054 75.3886C87.9499 75.2031 87.8722 74.9891 87.8722 74.7464C87.8722 74.4628 87.9758 74.2202 88.1831 74.0184C88.3903 73.8166 88.6862 73.6625 89.0706 73.5562C89.4578 73.4499 89.9173 73.3967 90.449 73.3967C90.9752 73.3967 91.4306 73.4499 91.8151 73.5562C92.2023 73.6625 92.4995 73.8166 92.7067 74.0184C92.9139 74.2202 93.0175 74.4628 93.0175 74.7464C93.0175 74.9864 92.9398 75.1991 92.7844 75.3845C92.6317 75.5672 92.4095 75.7158 92.1177 75.8303V76.8569H93.7619V77.3886ZM90.449 77.9449C90.9698 77.9449 91.417 77.9939 91.7905 78.0921C92.1641 78.1903 92.4504 78.3361 92.6494 78.5297C92.8485 78.7206 92.9494 78.9537 92.9521 79.2291C92.9494 79.5018 92.8485 79.7336 92.6494 79.9244C92.4504 80.118 92.1641 80.2639 91.7905 80.3621C91.417 80.463 90.9698 80.5134 90.449 80.5134C89.9227 80.5134 89.4714 80.463 89.0952 80.3621C88.7216 80.2639 88.4353 80.118 88.2362 79.9244C88.0372 79.7336 87.9377 79.5018 87.9377 79.2291C87.9377 78.9537 88.0358 78.7206 88.2322 78.5297C88.4312 78.3361 88.7189 78.1903 89.0952 78.0921C89.4714 77.9939 89.9227 77.9449 90.449 77.9449ZM90.449 78.4357C89.86 78.4411 89.4019 78.5134 89.0747 78.6524C88.7502 78.7888 88.5894 78.981 88.5921 79.2291C88.5894 79.3927 88.6616 79.5332 88.8089 79.6504C88.9561 79.7677 89.1688 79.8576 89.4469 79.9204C89.7278 79.9831 90.0618 80.0144 90.449 80.0144C90.8307 80.0144 91.1606 79.9831 91.4388 79.9204C91.7196 79.8576 91.9337 79.7677 92.0809 79.6504C92.2309 79.5332 92.3059 79.3927 92.3059 79.2291C92.3059 78.981 92.1409 78.7888 91.811 78.6524C91.4838 78.5134 91.0298 78.4411 90.449 78.4357ZM90.449 73.9039C90.0563 73.9039 89.7155 73.9379 89.4265 74.0061C89.1374 74.0743 88.9152 74.1724 88.7598 74.3006C88.6071 74.426 88.5321 74.5746 88.5348 74.7464C88.5321 74.9209 88.6071 75.0723 88.7598 75.2004C88.9152 75.3258 89.1361 75.4226 89.4224 75.4908C89.7114 75.5563 90.0536 75.589 90.449 75.589C90.8416 75.589 91.1811 75.5563 91.4674 75.4908C91.7537 75.4226 91.9746 75.3258 92.13 75.2004C92.2854 75.0723 92.3631 74.9209 92.3631 74.7464C92.3631 74.5746 92.2854 74.426 92.13 74.3006C91.9746 74.1724 91.7523 74.0743 91.4633 74.0061C91.177 73.9379 90.8389 73.9039 90.449 73.9039ZM91.4797 76.8569V76.0062C91.1661 76.0607 90.8225 76.088 90.449 76.088C90.0754 76.088 89.7318 76.0607 89.4183 76.0062V76.8569H91.4797ZM97.6884 73.3885C98.2283 73.3885 98.6905 73.4376 99.0749 73.5358C99.4594 73.6312 99.7525 73.773 99.9543 73.9611C100.156 74.1465 100.257 74.3729 100.257 74.6401C100.257 75.0491 100.033 75.3627 99.5862 75.5808C99.139 75.7989 98.5064 75.9107 97.6884 75.9162C97.1485 75.9135 96.685 75.863 96.2978 75.7648C95.9133 75.6667 95.6188 75.5235 95.4143 75.3354C95.2125 75.1445 95.1117 74.9127 95.1117 74.6401C95.1117 74.3729 95.2125 74.1465 95.4143 73.9611C95.6188 73.773 95.9133 73.6312 96.2978 73.5358C96.685 73.4376 97.1485 73.3885 97.6884 73.3885ZM97.6884 73.8711C97.2876 73.8711 96.944 73.9025 96.6577 73.9652C96.3714 74.0252 96.1533 74.1138 96.0033 74.2311C95.8533 74.3456 95.7797 74.4819 95.7824 74.6401C95.7797 74.8909 95.9447 75.0845 96.2773 75.2209C96.61 75.3572 97.0803 75.4254 97.6884 75.4254C98.2937 75.4254 98.7641 75.3572 99.0995 75.2209C99.4349 75.0845 99.6026 74.8909 99.6026 74.6401C99.6026 74.4819 99.5262 74.3456 99.3735 74.2311C99.2208 74.1165 99.0013 74.0279 98.715 73.9652C98.4287 73.9025 98.0865 73.8711 97.6884 73.8711ZM101.001 76.9305H94.3754V76.407H101.001V76.9305ZM100.151 79.1882H95.8315V79.9408H100.371V80.448H95.1935V78.7138H99.5208V78.0512H95.1771V77.5604H100.151V79.1882ZM106.179 75.4908C106.177 75.8725 106.258 76.2611 106.425 76.6565C106.594 77.0491 106.823 77.405 107.112 77.724C107.401 78.0403 107.72 78.2802 108.069 78.4438L107.701 78.951C107.295 78.7547 106.928 78.4547 106.601 78.0512C106.276 77.6476 106.031 77.1977 105.864 76.7015C105.755 77.0559 105.605 77.3927 105.415 77.7117C105.224 78.0307 105.006 78.313 104.76 78.5584C104.515 78.801 104.257 78.9919 103.987 79.131L103.594 78.6238C103.941 78.4575 104.263 78.2053 104.56 77.8671C104.86 77.529 105.098 77.15 105.275 76.7301C105.455 76.3102 105.547 75.8971 105.55 75.4908V74.5419H103.856V74.0102H107.815V74.5419H106.179V75.4908ZM109.345 76.2025H110.564V76.7506H109.345V80.5298H108.707V73.2576H109.345V76.2025ZM117.607 77.9367H115.848V80.5298H115.202V77.9367H113.337V80.5298H112.674V77.9367H110.948V77.405H117.607V77.9367ZM114.261 73.5521C114.769 73.5521 115.216 73.6176 115.603 73.7484C115.99 73.8766 116.29 74.0606 116.503 74.3006C116.715 74.5405 116.822 74.82 116.822 75.1391C116.822 75.4581 116.714 75.7362 116.499 75.9734C116.286 76.2107 115.986 76.3934 115.599 76.5215C115.214 76.6497 114.769 76.7124 114.261 76.7097C113.754 76.7124 113.307 76.6497 112.92 76.5215C112.535 76.3934 112.235 76.2107 112.02 75.9734C111.807 75.7362 111.701 75.4581 111.701 75.1391C111.701 74.82 111.807 74.5405 112.02 74.3006C112.233 74.0606 112.533 73.8766 112.92 73.7484C113.307 73.6176 113.754 73.5521 114.261 73.5521ZM114.261 74.0756C113.885 74.0756 113.552 74.1193 113.263 74.2065C112.977 74.2938 112.755 74.4178 112.597 74.5787C112.439 74.7396 112.361 74.9264 112.364 75.1391C112.361 75.3517 112.439 75.5385 112.597 75.6994C112.755 75.8576 112.977 75.9803 113.263 76.0675C113.552 76.152 113.885 76.1943 114.261 76.1943C114.635 76.1943 114.966 76.152 115.255 76.0675C115.544 75.9803 115.768 75.8576 115.926 75.6994C116.087 75.5385 116.167 75.3517 116.167 75.1391C116.167 74.9264 116.087 74.7396 115.926 74.5787C115.768 74.4178 115.544 74.2938 115.255 74.2065C114.966 74.1193 114.635 74.0756 114.261 74.0756ZM124.846 77.5113H118.188V76.9878H121.198V76.2843H119.055V74.591H123.341V73.9202H119.03V73.4131H123.988V75.0736H119.693V75.7771H124.143V76.2843H121.828V76.9878H124.846V77.5113ZM119.726 78.5911H123.358V77.8794H123.988V80.4316H119.079V77.8794H119.726V78.5911ZM123.358 79.9163V79.0983H119.726V79.9163H123.358ZM131.661 80.5298H131.047V73.2576H131.661V80.5298ZM130.131 80.1617H129.517V76.7669H127.975C127.512 77.6558 126.793 78.3866 125.82 78.9592L125.444 78.4929C126.221 78.0348 126.815 77.4868 127.227 76.8487C127.641 76.2079 127.879 75.499 127.939 74.7219H125.754V74.1902H128.577C128.571 74.9318 128.45 75.6162 128.213 76.2434H129.517V73.454H130.131V80.1617ZM137.305 74.5992C137.305 74.9127 137.38 75.2168 137.53 75.5113C137.68 75.803 137.89 76.0634 138.16 76.2925C138.432 76.5188 138.745 76.6933 139.096 76.816L138.761 77.3232C138.355 77.1759 137.997 76.9578 137.689 76.6688C137.384 76.3797 137.152 76.0471 136.994 75.6708C136.836 76.0907 136.596 76.4602 136.274 76.7792C135.952 77.0982 135.576 77.3368 135.145 77.4949L134.81 76.9878C135.164 76.8596 135.482 76.6742 135.763 76.4315C136.044 76.1861 136.263 75.9053 136.421 75.589C136.58 75.2699 136.659 74.9427 136.659 74.6074V74.2883H135.014V73.7648H138.933V74.2883H137.305V74.5992ZM140.806 80.5298H140.16V78.5338H135.914V78.0021H140.806V80.5298ZM140.806 77.6176H140.16V75.7035H138.704V75.1636H140.16V73.2576H140.806V77.6176ZM143.972 73.8221C144.299 73.8248 144.592 73.9161 144.851 74.0961C145.113 74.2761 145.324 74.5324 145.485 74.865C145.646 75.1977 145.743 75.589 145.775 76.0389H147.407V73.2576H148.045V80.5461H147.407V76.5706H145.784C145.759 77.0396 145.668 77.4486 145.51 77.7976C145.351 78.1466 145.139 78.4152 144.871 78.6034C144.607 78.7915 144.307 78.8856 143.972 78.8856C143.617 78.8856 143.301 78.782 143.023 78.5747C142.747 78.3675 142.532 78.073 142.377 77.6913C142.224 77.3095 142.147 76.8651 142.147 76.3579C142.147 75.8507 142.224 75.4063 142.377 75.0245C142.532 74.6428 142.747 74.3483 143.023 74.1411C143.298 73.9311 143.614 73.8248 143.972 73.8221ZM143.972 74.3947C143.734 74.3974 143.523 74.4806 143.338 74.6442C143.155 74.805 143.013 75.0341 142.912 75.3313C142.811 75.6258 142.761 75.968 142.761 76.3579C142.761 76.7478 142.811 77.0914 142.912 77.3886C143.013 77.6831 143.155 77.9108 143.338 78.0716C143.523 78.2325 143.734 78.313 143.972 78.313C144.206 78.313 144.415 78.2325 144.597 78.0716C144.783 77.9108 144.926 77.6831 145.027 77.3886C145.131 77.0914 145.182 76.7478 145.182 76.3579C145.182 75.968 145.131 75.6258 145.027 75.3313C144.926 75.0341 144.784 74.805 144.602 74.6442C144.419 74.4806 144.209 74.3974 143.972 74.3947ZM155.031 74.2883C155.028 74.5992 155.15 74.8964 155.395 75.18C155.641 75.4608 155.961 75.698 156.356 75.8916C156.752 76.0852 157.164 76.2134 157.592 76.2761L157.354 76.7833C156.97 76.7178 156.599 76.6088 156.242 76.4561C155.887 76.3034 155.572 76.1125 155.297 75.8835C155.022 75.6517 154.813 75.394 154.671 75.1104C154.53 75.394 154.321 75.6503 154.046 75.8794C153.77 76.1084 153.455 76.3006 153.101 76.4561C152.749 76.6088 152.384 76.7178 152.005 76.7833L151.751 76.2761C152.176 76.2134 152.587 76.0852 152.982 75.8916C153.377 75.698 153.698 75.4608 153.943 75.18C154.189 74.8964 154.311 74.5992 154.311 74.2883V74.2392H151.98V73.7157H157.354V74.2392H155.031V74.2883ZM157.984 77.9367H154.974V80.5298H154.344V77.9367H151.358V77.405H157.984V77.9367ZM160.757 75.3272C160.757 75.7144 160.819 76.1016 160.941 76.4888C161.064 76.876 161.24 77.2291 161.469 77.5481C161.701 77.8671 161.973 78.1194 162.287 78.3048L161.919 78.8038C161.578 78.5965 161.282 78.3116 161.031 77.9489C160.783 77.5836 160.592 77.1732 160.459 76.7178C160.322 77.2086 160.122 77.6504 159.858 78.043C159.593 78.4357 159.282 78.7411 158.925 78.9592L158.516 78.4766C158.843 78.2857 159.129 78.0253 159.375 77.6954C159.62 77.3627 159.808 76.9932 159.939 76.5869C160.07 76.1779 160.136 75.7662 160.136 75.3517V73.9448H160.757V75.3272ZM164.831 80.5298H164.209V73.2576H164.831V80.5298ZM163.326 80.1617H162.721V76.4152H161.485V75.8671H162.721V73.4131H163.326V80.1617ZM172.496 79.5972H165.837V79.0574H167.49V77.0941C167.173 76.9305 166.928 76.7206 166.753 76.4642C166.579 76.2052 166.492 75.9135 166.492 75.589C166.492 75.2181 166.605 74.8923 166.831 74.6114C167.057 74.3279 167.371 74.1084 167.772 73.9529C168.175 73.7975 168.635 73.7184 169.15 73.7157C169.666 73.7184 170.124 73.7975 170.524 73.9529C170.928 74.1084 171.243 74.3279 171.469 74.6114C171.696 74.8923 171.809 75.2181 171.809 75.589C171.809 75.908 171.724 76.1957 171.555 76.452C171.386 76.7056 171.149 76.9142 170.843 77.0778V79.0574H172.496V79.5972ZM169.15 74.2474C168.755 74.2447 168.403 74.2992 168.095 74.411C167.787 74.5228 167.545 74.681 167.371 74.8855C167.199 75.0873 167.113 75.3218 167.113 75.589C167.113 75.8562 167.199 76.0934 167.371 76.3006C167.545 76.5051 167.787 76.6647 168.095 76.7792C168.403 76.891 168.755 76.9469 169.15 76.9469C169.543 76.9469 169.893 76.8896 170.201 76.7751C170.509 76.6606 170.751 76.5011 170.925 76.2966C171.1 76.0921 171.187 75.8562 171.187 75.589C171.187 75.3218 171.1 75.0873 170.925 74.8855C170.751 74.681 170.509 74.5228 170.201 74.411C169.893 74.2992 169.543 74.2447 169.15 74.2474ZM170.197 79.0574V77.3273C169.873 77.4118 169.524 77.454 169.15 77.454C168.774 77.454 168.43 77.4131 168.119 77.3313V79.0574H170.197ZM173.846 79.9163C173.75 79.9163 173.662 79.8931 173.58 79.8467C173.501 79.7977 173.437 79.7322 173.387 79.6504C173.341 79.5686 173.319 79.48 173.322 79.3846C173.319 79.2919 173.341 79.206 173.387 79.1269C173.437 79.0451 173.501 78.981 173.58 78.9347C173.662 78.8856 173.75 78.861 173.846 78.861C173.938 78.861 174.024 78.8856 174.103 78.9347C174.185 78.981 174.249 79.0451 174.295 79.1269C174.345 79.206 174.369 79.2919 174.369 79.3846C174.369 79.48 174.345 79.5686 174.295 79.6504C174.249 79.7322 174.185 79.7977 174.103 79.8467C174.024 79.8931 173.938 79.9163 173.846 79.9163ZM34.3904 91.9572C33.9678 91.9572 33.5997 91.8631 33.2861 91.675C32.9725 91.4868 32.7312 91.221 32.5622 90.8774C32.3958 90.5338 32.3127 90.1357 32.3127 89.6831C32.3127 89.2305 32.3958 88.8296 32.5622 88.4806C32.7312 88.1289 32.9671 87.8562 33.2698 87.6626C33.5752 87.4663 33.9269 87.3681 34.325 87.3681C34.6604 87.3681 34.9726 87.4431 35.2616 87.5931C35.5507 87.7403 35.7852 87.9803 35.9651 88.3129C36.1478 88.6428 36.2392 89.0669 36.2392 89.5849V89.8794H33.0162C33.0271 90.1875 33.0912 90.4507 33.2084 90.6688C33.3257 90.8869 33.4852 91.0533 33.6869 91.1678C33.8915 91.2796 34.1259 91.3355 34.3904 91.3355C34.6413 91.3355 34.8526 91.2891 35.0244 91.1964C35.1989 91.101 35.3312 90.9783 35.4211 90.8283H36.1737C36.1028 91.0519 35.9842 91.2496 35.8179 91.4214C35.6543 91.5904 35.4498 91.7227 35.2044 91.8181C34.9617 91.9108 34.6904 91.9572 34.3904 91.9572ZM35.5275 89.2823C35.5275 89.0341 35.477 88.8133 35.3761 88.6197C35.278 88.4233 35.1376 88.2693 34.9549 88.1575C34.7722 88.0457 34.5622 87.9898 34.325 87.9898C34.0769 87.9898 33.856 88.0484 33.6624 88.1657C33.4715 88.2829 33.3202 88.4411 33.2084 88.6401C33.0993 88.8364 33.0366 89.0505 33.0203 89.2823H35.5275ZM38.6196 89.2332L39.6748 87.4254H40.4846L39.0531 89.6422L40.4846 91.8672H39.683L38.6196 90.1494L37.5725 91.8672H36.7627L38.1615 89.6422L36.7627 87.4254H37.5725L38.6196 89.2332ZM41.8344 91.9163C41.7389 91.9163 41.6503 91.8931 41.5685 91.8467C41.4894 91.7977 41.4254 91.7322 41.3763 91.6504C41.3299 91.5686 41.3081 91.48 41.3108 91.3846C41.3081 91.2919 41.3299 91.206 41.3763 91.1269C41.4254 91.0451 41.4894 90.981 41.5685 90.9347C41.6503 90.8856 41.7389 90.861 41.8344 90.861C41.9271 90.861 42.013 90.8856 42.092 90.9347C42.1738 90.981 42.2379 91.0451 42.2843 91.1269C42.3334 91.206 42.3579 91.2919 42.3579 91.3846C42.3579 91.48 42.3334 91.5686 42.2843 91.6504C42.2379 91.7322 42.1738 91.7977 42.092 91.8467C42.013 91.8931 41.9271 91.9163 41.8344 91.9163ZM51.307 92.5461H50.6607V88.4397H49.0656V87.908H50.6607V85.2576H51.307V92.5461ZM47.7977 87.4172C47.7977 87.8126 47.8836 88.2134 48.0554 88.6197C48.2299 89.0232 48.4644 89.3859 48.7589 89.7076C49.0534 90.0294 49.3765 90.2693 49.7282 90.4275L49.3437 90.9428C48.932 90.7411 48.5598 90.4357 48.2272 90.0267C47.8972 89.6149 47.6491 89.1541 47.4828 88.6442C47.3164 89.1814 47.0656 89.6695 46.7302 90.1085C46.3948 90.5447 46.0199 90.8719 45.6054 91.0901L45.2128 90.5911C45.5618 90.4193 45.8835 90.1657 46.178 89.8303C46.4752 89.4922 46.7111 89.1118 46.8856 88.6892C47.0601 88.2638 47.1487 87.8398 47.1515 87.4172V86.5419H45.4909V86.0102H49.4664V86.5419H47.7977V87.4172ZM58.3992 87.9816H53.4175V85.5276H54.0555V87.4663H58.3992V87.9816ZM59.1681 89.4949H52.5095V88.9714H59.1681V89.4949ZM58.4401 92.3498H53.3766V90.2393H54.0146V91.8181H58.4401V92.3498ZM65.1723 85.7321C65.6849 85.7348 66.143 85.8152 66.5466 85.9734C66.9501 86.1315 67.2651 86.3551 67.4914 86.6442C67.7177 86.9305 67.8309 87.2618 67.8309 87.6381C67.8309 87.9925 67.7313 88.3075 67.5323 88.5829C67.336 88.8583 67.0606 89.0778 66.7061 89.2414C66.3516 89.405 65.944 89.5018 65.4832 89.5318V91.0574H68.518V91.5972H61.8594V91.0574H64.8533V89.5318C64.3952 89.5018 63.9889 89.405 63.6345 89.2414C63.28 89.075 63.0046 88.8555 62.8083 88.5829C62.6119 88.3075 62.5138 87.9925 62.5138 87.6381C62.5138 87.2618 62.6269 86.9305 62.8533 86.6442C63.0796 86.3551 63.3945 86.1315 63.7981 85.9734C64.2016 85.8152 64.6597 85.7348 65.1723 85.7321ZM65.1723 86.2638C64.7824 86.2638 64.432 86.3224 64.1212 86.4397C63.8131 86.5542 63.5717 86.7164 63.3972 86.9264C63.2227 87.1336 63.1355 87.3708 63.1355 87.6381C63.1355 87.9135 63.2227 88.1561 63.3972 88.3661C63.5717 88.576 63.8131 88.7383 64.1212 88.8528C64.4293 88.9673 64.7797 89.026 65.1723 89.0287C65.565 89.026 65.9154 88.9673 66.2235 88.8528C66.5316 88.7383 66.7729 88.576 66.9474 88.3661C67.1219 88.1561 67.2092 87.9135 67.2092 87.6381C67.2092 87.3708 67.1219 87.1336 66.9474 86.9264C66.7729 86.7164 66.5302 86.5542 66.2194 86.4397C65.9113 86.3224 65.5622 86.2638 65.1723 86.2638ZM74.964 87.5399H69.9986V85.3803H70.6285V87.0082H74.964V87.5399ZM75.7493 88.7833H69.0906V88.2597H75.7493V88.7833ZM74.8903 91.1392H70.5876V91.9163H75.1521V92.4316H69.9414V90.6483H74.2605V89.9449H69.925V89.4377H74.8903V91.1392ZM84.6165 89.5931H84.003V87.6708H83.0378V89.544H82.4324V85.4049H83.0378V87.1391H84.003V85.2658H84.6165V89.5931ZM84.6165 92.5298H83.9867V90.5175H79.7166V90.0021H84.6165V92.5298ZM81.5899 89.0369H78.7759V85.8875H81.5899V89.0369ZM79.3812 88.5379H80.9927V86.3947H79.3812V88.5379ZM91.5533 89.1923H89.3038V91.0737H92.3386V91.6136H85.68V91.0737H88.6739V89.1923H86.5307V85.8548H91.4797V86.3783H87.1769V88.6688H91.5533V89.1923ZM98.6046 86.7791H99.7007V87.319H98.6046V88.9305H97.9665V85.2576H98.6046V86.7791ZM93.9174 88.0225C94.4709 88.0252 95.0162 88.0034 95.5534 87.9571C96.0905 87.908 96.6386 87.8262 97.1976 87.7117L97.2794 88.2516C96.6904 88.3715 96.1192 88.4561 95.5657 88.5051C95.0149 88.5542 94.4436 88.5788 93.8519 88.5788H93.2711V85.5848H93.9174V88.0225ZM98.6046 91.0574H94.6208V91.9081H98.8745V92.4316H93.9828V90.5502H97.9665V89.7976H93.9664V89.2823H98.6046V91.0574ZM106.032 89.2904H101.01V85.9366H105.959V86.4683H101.648V88.7587H106.032V89.2904ZM106.817 91.54H100.159V91.0001H106.817V91.54ZM115.333 86.7219V86.8119C115.328 87.4117 115.308 87.9503 115.276 88.4274C115.246 88.9019 115.175 89.4513 115.063 90.0757L114.409 90.0021C114.496 89.5713 114.559 89.165 114.597 88.7833C114.638 88.4015 114.662 88.0621 114.67 87.7648C114.681 87.4676 114.687 87.12 114.687 86.7219V86.5256H110.204V85.9938H115.333V86.7219ZM116.126 91.4991H109.501V90.9674H112.102V88.3661H112.732V90.9674H116.126V91.4991ZM122.491 86.3701C122.491 86.8391 122.478 87.2549 122.454 87.6176C122.432 87.9803 122.375 88.3934 122.282 88.8569H123.366V89.3886H120.364V92.5461H119.718V89.3886H116.74V88.8569H121.632C121.73 88.3934 121.791 87.9789 121.816 87.6135C121.84 87.2481 121.853 86.8337 121.853 86.3701V86.2638H117.574V85.7321H122.491V86.3701ZM127.636 90.6811H124.282V85.9938H127.636V90.6811ZM124.904 90.1575H126.998V86.5092H124.904V90.1575ZM129.607 88.1616H130.826V88.7178H129.607V92.5298H128.969V85.2576H129.607V88.1616ZM139.563 86.6237H133.665V86.092H136.315V85.2167H136.945V86.092H139.563V86.6237ZM139.98 90.5011H136.945V92.5461H136.315V90.5011H133.321V89.9694H139.98V90.5011ZM136.634 87.0409C137.128 87.0409 137.552 87.0886 137.906 87.1841C138.263 87.2768 138.536 87.4145 138.724 87.5972C138.912 87.7798 139.006 88.0007 139.006 88.2597C139.006 88.5133 138.911 88.7301 138.72 88.9101C138.532 89.09 138.261 89.2277 137.906 89.3232C137.552 89.4186 137.128 89.4677 136.634 89.4704C136.138 89.4677 135.711 89.4186 135.354 89.3232C134.999 89.2277 134.728 89.09 134.54 88.9101C134.352 88.7301 134.259 88.5133 134.262 88.2597C134.259 88.0007 134.352 87.7798 134.54 87.5972C134.728 87.4145 134.999 87.2768 135.354 87.1841C135.711 87.0886 136.138 87.0409 136.634 87.0409ZM136.634 87.5317C136.091 87.5317 135.669 87.5958 135.366 87.7239C135.066 87.8521 134.919 88.0307 134.924 88.2597C134.922 88.4833 135.069 88.6578 135.366 88.7833C135.666 88.9087 136.089 88.9714 136.634 88.9714C137.171 88.9714 137.59 88.9087 137.89 88.7833C138.19 88.6578 138.341 88.4833 138.344 88.2597C138.338 88.0307 138.186 87.8521 137.886 87.7239C137.586 87.5958 137.169 87.5317 136.634 87.5317ZM146.188 88.1534H147.407V88.6933H146.188V92.5461H145.55V85.2576H146.188V88.1534ZM144.152 88.5379H141.501V90.2393C142.224 90.2393 142.839 90.2216 143.346 90.1862C143.856 90.1507 144.372 90.0839 144.896 89.9858L144.961 90.5175C144.419 90.6184 143.884 90.6879 143.358 90.7261C142.832 90.7615 142.194 90.782 141.444 90.7874H140.863V88.0062H143.514V86.4683H140.847V85.9366H144.152V88.5379ZM153.796 92.5461H153.15V85.2576H153.796V92.5461ZM149.927 85.8221C150.287 85.8248 150.607 85.9311 150.888 86.1411C151.169 86.3483 151.388 86.6428 151.546 87.0245C151.705 87.4063 151.784 87.8507 151.784 88.3579C151.784 88.8651 151.705 89.3095 151.546 89.6913C151.388 90.073 151.169 90.3675 150.888 90.5747C150.607 90.782 150.287 90.8856 149.927 90.8856C149.567 90.8856 149.245 90.782 148.962 90.5747C148.681 90.3675 148.461 90.073 148.303 89.6913C148.148 89.3095 148.07 88.8651 148.07 88.3579C148.07 87.8507 148.148 87.4063 148.303 87.0245C148.461 86.6428 148.681 86.3483 148.962 86.1411C149.242 85.9311 149.564 85.8248 149.927 85.8221ZM149.927 86.3947C149.684 86.3974 149.469 86.4806 149.281 86.6442C149.095 86.805 148.951 87.0341 148.847 87.3313C148.743 87.6258 148.692 87.968 148.692 88.3579C148.692 88.7478 148.743 89.0914 148.847 89.3886C148.951 89.6831 149.097 89.9108 149.285 90.0716C149.473 90.2325 149.687 90.313 149.927 90.313C150.167 90.313 150.381 90.2325 150.569 90.0716C150.757 89.9108 150.903 89.6831 151.007 89.3886C151.11 89.0914 151.162 88.7478 151.162 88.3579C151.162 87.968 151.11 87.6258 151.007 87.3313C150.903 87.0341 150.757 86.805 150.569 86.6442C150.384 86.4806 150.169 86.3974 149.927 86.3947ZM161.69 89.1432H155.031V88.636H161.69V89.1432ZM160.855 91.27H156.487V91.9653H161.093V92.4316H155.841V90.8283H160.217V90.2066H155.833V89.724H160.855V91.27ZM160.831 86.9836H156.536V87.6217H160.962V88.088H155.898V86.5419H160.185V85.9448H155.874V85.4785H160.831V86.9836ZM170.41 92.5461H169.764V90.4766H165.518V89.9612H170.41V92.5461ZM170.41 89.544H169.764V87.6217H168.062V89.0532H164.725V85.8057H168.062V87.09H169.764V85.2576H170.41V89.544ZM165.363 88.5379H167.432V86.3292H165.363V88.5379ZM174.124 90.133C174.124 90.4711 174.212 90.797 174.39 91.1105C174.569 91.4241 174.826 91.6777 175.158 91.8713C175.382 91.7322 175.573 91.5632 175.731 91.3641C175.892 91.1651 176.013 90.9578 176.095 90.7424C176.177 90.527 176.218 90.3239 176.218 90.133V89.6913H176.848V90.133C176.848 90.3866 176.906 90.6333 177.024 90.8733C177.141 91.1133 177.311 91.3287 177.535 91.5195C177.761 91.7077 178.028 91.8536 178.336 91.9572L178.001 92.4398C177.647 92.3116 177.343 92.1262 177.089 91.8835C176.838 91.6436 176.65 91.3668 176.525 91.0533C176.402 91.3696 176.226 91.6545 175.997 91.9081C175.771 92.1617 175.495 92.358 175.171 92.4971C174.835 92.3689 174.553 92.1808 174.324 91.9326C174.095 91.6872 173.922 91.4036 173.805 91.0819C173.671 91.3846 173.479 91.6545 173.228 91.8917C172.98 92.129 172.687 92.3116 172.349 92.4398L172.03 91.9572C172.329 91.8481 172.59 91.6954 172.811 91.4991C173.034 91.3028 173.206 91.086 173.326 90.8488C173.446 90.6088 173.507 90.3702 173.51 90.133V89.6913H174.124V90.133ZM173.625 85.6748C173.941 85.6748 174.23 85.7348 174.492 85.8548C174.756 85.972 174.974 86.1384 175.146 86.3538C175.318 86.5665 175.427 86.8119 175.473 87.09H177.003V85.2576H177.649V89.4131H177.003V87.6217H175.482C175.441 87.908 175.334 88.1616 175.163 88.3824C174.993 88.6033 174.775 88.7751 174.508 88.8978C174.241 89.0178 173.946 89.0778 173.625 89.0778C173.265 89.0778 172.942 89.0069 172.655 88.8651C172.372 88.7206 172.148 88.5188 171.985 88.2597C171.824 88.0007 171.743 87.7062 171.743 87.3763C171.743 87.0491 171.824 86.756 171.985 86.4969C172.148 86.2379 172.372 86.0361 172.655 85.8916C172.942 85.7471 173.265 85.6748 173.625 85.6748ZM173.625 86.2229C173.385 86.2202 173.168 86.2679 172.974 86.366C172.783 86.4642 172.634 86.6019 172.524 86.7791C172.415 86.9536 172.362 87.1527 172.365 87.3763C172.362 87.5972 172.415 87.7962 172.524 87.9734C172.634 88.1507 172.783 88.2897 172.974 88.3906C173.168 88.4915 173.385 88.5433 173.625 88.546C173.859 88.5433 174.072 88.4915 174.263 88.3906C174.454 88.2897 174.604 88.1507 174.713 87.9734C174.822 87.7962 174.876 87.5972 174.876 87.3763C174.876 87.1527 174.822 86.9536 174.713 86.7791C174.604 86.6019 174.454 86.4642 174.263 86.366C174.072 86.2679 173.859 86.2202 173.625 86.2229ZM180.815 85.8221C181.142 85.8248 181.435 85.9161 181.694 86.0961C181.956 86.2761 182.167 86.5324 182.328 86.865C182.489 87.1977 182.586 87.589 182.619 88.0389H184.251V85.2576H184.889V92.5461H184.251V88.5706H182.627C182.602 89.0396 182.511 89.4486 182.353 89.7976C182.195 90.1466 181.982 90.4152 181.715 90.6034C181.45 90.7915 181.15 90.8856 180.815 90.8856C180.461 90.8856 180.144 90.782 179.866 90.5747C179.591 90.3675 179.375 90.073 179.22 89.6913C179.067 89.3095 178.991 88.8651 178.991 88.3579C178.991 87.8507 179.067 87.4063 179.22 87.0245C179.375 86.6428 179.591 86.3483 179.866 86.1411C180.142 85.9311 180.458 85.8248 180.815 85.8221ZM180.815 86.3947C180.578 86.3974 180.367 86.4806 180.181 86.6442C179.998 86.805 179.857 87.0341 179.756 87.3313C179.655 87.6258 179.604 87.968 179.604 88.3579C179.604 88.7478 179.655 89.0914 179.756 89.3886C179.857 89.6831 179.998 89.9108 180.181 90.0716C180.367 90.2325 180.578 90.313 180.815 90.313C181.05 90.313 181.258 90.2325 181.441 90.0716C181.626 89.9108 181.769 89.6831 181.87 89.3886C181.974 89.0914 182.026 88.7478 182.026 88.3579C182.026 87.968 181.974 87.6258 181.87 87.3313C181.769 87.0341 181.628 86.805 181.445 86.6442C181.262 86.4806 181.052 86.3974 180.815 86.3947ZM192.758 91.5972H186.099V91.0574H187.752V89.0941C187.436 88.9305 187.19 88.7206 187.016 88.4642C186.841 88.2052 186.754 87.9135 186.754 87.589C186.754 87.2181 186.867 86.8923 187.093 86.6114C187.32 86.3279 187.633 86.1084 188.034 85.9529C188.438 85.7975 188.897 85.7184 189.412 85.7157C189.928 85.7184 190.386 85.7975 190.787 85.9529C191.19 86.1084 191.505 86.3279 191.731 86.6114C191.958 86.8923 192.071 87.2181 192.071 87.589C192.071 87.908 191.986 88.1957 191.817 88.452C191.648 88.7056 191.411 88.9142 191.106 89.0778V91.0574H192.758V91.5972ZM189.412 86.2474C189.017 86.2447 188.665 86.2992 188.357 86.411C188.049 86.5228 187.808 86.681 187.633 86.8855C187.461 87.0873 187.376 87.3218 187.376 87.589C187.376 87.8562 187.461 88.0934 187.633 88.3006C187.808 88.5051 188.049 88.6647 188.357 88.7792C188.665 88.891 189.017 88.9469 189.412 88.9469C189.805 88.9469 190.155 88.8896 190.464 88.7751C190.772 88.6606 191.013 88.5011 191.187 88.2966C191.362 88.0921 191.449 87.8562 191.449 87.589C191.449 87.3218 191.362 87.0873 191.187 86.8855C191.013 86.681 190.772 86.5228 190.464 86.411C190.155 86.2992 189.805 86.2447 189.412 86.2474ZM190.459 91.0574V89.3273C190.135 89.4118 189.786 89.454 189.412 89.454C189.036 89.454 188.693 89.4131 188.382 89.3313V91.0574H190.459ZM194.46 90.1984H193.772L193.715 85.9448H194.517L194.46 90.1984ZM194.116 91.9163C194.021 91.9163 193.932 91.8931 193.85 91.8467C193.771 91.7977 193.707 91.7322 193.658 91.6504C193.612 91.5686 193.59 91.48 193.592 91.3846C193.59 91.2919 193.612 91.206 193.658 91.1269C193.707 91.0451 193.771 90.981 193.85 90.9347C193.932 90.8856 194.021 90.861 194.116 90.861C194.209 90.861 194.295 90.8856 194.374 90.9347C194.455 90.981 194.52 91.0451 194.566 91.1269C194.615 91.206 194.639 91.2919 194.639 91.3846C194.639 91.48 194.615 91.5686 194.566 91.6504C194.52 91.7322 194.455 91.7977 194.374 91.8467C194.295 91.8931 194.209 91.9163 194.116 91.9163Z" fill="#8D939A"/>
</g>
</g>
<defs>
<filter id="filter0_d_2726_308062" x="0.74063" y="0.64688" width="347.519" height="185.045" filterUnits="userSpaceOnUse" color-interpolation-filters="sRGB">
<feFlood flood-opacity="0" result="BackgroundImageFix"/>
<feColorMatrix in="SourceAlpha" type="matrix" values="0 0 0 0 0 0 0 0 0 0 0 0 0 0 0 0 0 0 127 0" result="hardAlpha"/>
<feOffset/>
<feGaussianBlur stdDeviation="1.12968"/>
<feComposite in2="hardAlpha" operator="out"/>
<feColorMatrix type="matrix" values="0 0 0 0 0 0 0 0 0 0 0 0 0 0 0 0 0 0 0.12 0"/>
<feBlend mode="normal" in2="BackgroundImageFix" result="effect1_dropShadow_2726_308062"/>
<feBlend mode="normal" in="SourceGraphic" in2="effect1_dropShadow_2726_308062" result="shape"/>
</filter>
<clipPath id="clip0_2726_308062">
<rect x="3" y="2.90625" width="343" height="180.526" rx="12" fill="white"/>
</clipPath>
<clipPath id="clip1_2726_308062">
<rect width="10.2379" height="10.2379" fill="white" transform="translate(276.535 31.2871)"/>
</clipPath>
</defs>
</svg>
