<svg width="343" height="268" viewBox="0 0 343 268" fill="none" xmlns="http://www.w3.org/2000/svg">
<rect width="343" height="268" fill="#F8F9FA"/>
<rect x="60.793" y="13.4326" width="211.633" height="115.598" rx="6.4849" fill="white"/>
<path d="M76.6658 28.6309C77.1824 28.6309 77.6454 28.7125 78.0549 28.8758C78.467 29.0391 78.7895 29.2692 79.0224 29.5663C79.2552 29.8634 79.3716 30.2046 79.3716 30.59C79.3716 30.946 79.2753 31.2631 79.0826 31.5415C78.8926 31.8198 78.6263 32.0446 78.2837 32.2159C77.9438 32.3845 77.5517 32.4916 77.1074 32.5371V33.8659H79.9979V34.5965H73.3659V33.8659H76.2242V32.5371C75.7826 32.4916 75.3919 32.3845 75.052 32.2159C74.7121 32.0446 74.4471 31.8198 74.2571 31.5415C74.0671 31.2631 73.9734 30.946 73.9761 30.59C73.9734 30.2046 74.0872 29.8634 74.3173 29.5663C74.5502 29.2692 74.8713 29.0391 75.2808 28.8758C75.6903 28.7125 76.152 28.6309 76.6658 28.6309ZM76.6658 29.3535C76.3125 29.3509 75.9981 29.4004 75.7224 29.5021C75.4467 29.6011 75.2313 29.7456 75.0761 29.9356C74.9235 30.123 74.8486 30.3411 74.8513 30.59C74.8486 30.8469 74.9235 31.0704 75.0761 31.2604C75.2313 31.4478 75.4467 31.5923 75.7224 31.694C75.9981 31.793 76.3125 31.8425 76.6658 31.8425C77.0245 31.8425 77.3416 31.793 77.6173 31.694C77.8956 31.5923 78.1111 31.4478 78.2636 31.2604C78.4188 31.0704 78.4965 30.8469 78.4965 30.59C78.4965 30.3384 78.4188 30.119 78.2636 29.9316C78.1084 29.7443 77.8916 29.6011 77.6133 29.5021C77.3376 29.4004 77.0218 29.3509 76.6658 29.3535ZM86.3328 30.5017H81.3227V28.3178H82.1979V29.7871H86.3328V30.5017ZM87.0956 31.7703H80.4636V31.0557H87.0956V31.7703ZM86.2847 34.1308H82.1577V34.6929H86.5255V35.3914H81.2585V33.4805H85.4015V32.9666H81.2504V32.2761H86.2847V34.1308ZM89.9299 28.7273C90.3072 28.7246 90.6471 28.7982 90.9496 28.9481C91.2547 29.0953 91.4929 29.3027 91.6642 29.5703C91.8381 29.838 91.9264 30.1404 91.9291 30.4776C91.9264 30.8175 91.8381 31.1213 91.6642 31.3889C91.4929 31.6565 91.256 31.8653 90.9536 32.0152C90.6512 32.1624 90.3099 32.236 89.9299 32.236C89.5525 32.236 89.2126 32.161 88.9102 32.0112C88.6078 31.8613 88.3696 31.6539 88.1956 31.3889C88.0243 31.1213 87.9387 30.8175 87.9387 30.4776C87.9387 30.1404 88.0243 29.838 88.1956 29.5703C88.3696 29.3027 88.6078 29.0953 88.9102 28.9481C89.2153 28.7982 89.5552 28.7246 89.9299 28.7273ZM89.9299 29.4981C89.7184 29.4981 89.5284 29.5382 89.3598 29.6185C89.1912 29.6988 89.0587 29.8139 88.9624 29.9637C88.8687 30.1109 88.8219 30.2822 88.8219 30.4776C88.8219 30.6757 88.8687 30.8496 88.9624 30.9995C89.0587 31.1467 89.1912 31.2604 89.3598 31.3407C89.5284 31.4183 89.7184 31.4572 89.9299 31.4572C90.144 31.4572 90.3353 31.4183 90.504 31.3407C90.6752 31.2604 90.8091 31.1467 90.9054 30.9995C91.0044 30.8496 91.0539 30.6757 91.0539 30.4776C91.0539 30.2822 91.0044 30.1109 90.9054 29.9637C90.8091 29.8139 90.6752 29.6988 90.504 29.6185C90.3353 29.5382 90.144 29.4981 89.9299 29.4981ZM93.6233 35.4878H92.732V28.2214H93.6233V35.4878ZM87.6095 33.2396C88.498 33.2396 89.3277 33.2249 90.0985 33.1955C90.872 33.1633 91.6053 33.0978 92.2985 32.9987L92.3707 33.6491C91.6535 33.7883 90.9241 33.8766 90.1828 33.9141C89.4441 33.9515 88.6238 33.9703 87.7219 33.9703L87.6095 33.2396ZM102.841 33.617H101.99V31.0557H101.235V33.4484H100.4V28.366H101.235V30.3251H101.99V28.2295H102.841V33.617ZM103.041 35.3352H97.983V33.1111H98.8743V34.6126H103.041V35.3352ZM99.6932 31.0236H97.8064V31.8827C98.248 31.8773 98.6401 31.8613 98.9827 31.8345C99.3252 31.8051 99.6745 31.7569 100.03 31.69L100.111 32.4046C99.6959 32.4768 99.2891 32.5264 98.8903 32.5531C98.4916 32.5772 98.0071 32.5893 97.4371 32.5893H96.9393V30.3491H98.8341V29.5302H96.9312V28.8236H99.6932V31.0236ZM107.441 29.3696H105.025V31.417C105.662 31.4117 106.181 31.3956 106.582 31.3688C106.986 31.3394 107.388 31.2859 107.787 31.2083L107.875 31.9228C107.428 32.0138 106.972 32.0754 106.506 32.1075C106.043 32.1396 105.439 32.1557 104.695 32.1557H104.133V28.655H107.441V29.3696ZM109.818 32.4126H108.927V30.6542H107.064V29.9316H108.927V28.2214H109.818V32.4126ZM109.818 35.3834H104.992V32.7418H109.818V35.3834ZM105.884 34.6688H108.943V33.4484H105.884V34.6688ZM116.635 33.7133H113.182V28.9039H116.635V33.7133ZM114.065 32.9987H115.767V29.6024H114.065V32.9987ZM118.835 35.4878H117.935V28.2214H118.835V35.4878ZM122.544 29.5061C122.544 29.8513 122.608 30.1845 122.737 30.5057C122.865 30.8269 123.055 31.1146 123.307 31.3688C123.561 31.6204 123.869 31.8131 124.23 31.9469L123.732 32.6374C123.352 32.4876 123.023 32.2694 122.745 31.9831C122.469 31.6967 122.254 31.3608 122.098 30.9754C121.94 31.3849 121.714 31.7422 121.42 32.0473C121.128 32.3497 120.778 32.5812 120.368 32.7418L119.886 32.0352C120.261 31.8988 120.58 31.702 120.842 31.4451C121.107 31.1882 121.306 30.8924 121.44 30.5579C121.574 30.2234 121.642 29.8727 121.645 29.5061V28.6389H122.544V29.5061ZM125.98 33.617H125.089V31.3688H123.764V30.6542H125.089V29.9397H123.764V29.217H125.089V28.2295H125.98V33.617ZM126.141 35.3352H121.195V33.0871H122.102V34.6126H126.141V35.3352Z" fill="#2E3135"/>
<path d="M77.8798 51.5782H73.3273V51.2185H75.3844V50.8167C74.9329 50.8017 74.5854 50.7295 74.3418 50.6003C74.1001 50.4691 73.9793 50.2893 73.9793 50.0607C73.9793 49.8153 74.1198 49.628 74.4008 49.4987C74.6818 49.3675 75.0828 49.302 75.6036 49.302C76.1188 49.302 76.5169 49.3675 76.7979 49.4987C77.0808 49.628 77.2222 49.8153 77.2222 50.0607C77.2222 50.2874 77.1005 50.4663 76.8569 50.5975C76.6152 50.7267 76.2705 50.7998 75.8228 50.8167V51.2185H77.8798V51.5782ZM77.374 53.1575H73.9175V51.8986H74.3615V52.7922H77.374V53.1575ZM77.6157 49.0828H73.5634V48.7343H75.3844V48.2116H75.8228V48.7343H77.6157V49.0828ZM75.6036 49.628C75.2233 49.628 74.9319 49.6654 74.7296 49.7404C74.5273 49.8134 74.427 49.9202 74.4289 50.0607C74.427 50.2012 74.5273 50.309 74.7296 50.3839C74.9319 50.457 75.2233 50.4935 75.6036 50.4935C75.9801 50.4935 76.2696 50.457 76.4719 50.3839C76.6761 50.309 76.7782 50.2012 76.7782 50.0607C76.7782 49.9202 76.6761 49.8134 76.4719 49.7404C76.2696 49.6654 75.9801 49.628 75.6036 49.628ZM79.9931 49.8022C79.9912 50.0645 80.0474 50.3314 80.1617 50.6031C80.2778 50.8729 80.4352 51.1174 80.6338 51.3365C80.8324 51.5539 81.0516 51.7187 81.2914 51.8311L81.0385 52.1796C80.7593 52.0447 80.5073 51.8386 80.2825 51.5614C80.0596 51.2841 79.891 50.975 79.7767 50.634C79.7018 50.8776 79.5987 51.1089 79.4676 51.3281C79.3364 51.5473 79.1866 51.7412 79.0179 51.9098C78.8493 52.0766 78.6723 52.2077 78.4868 52.3032L78.217 51.9548C78.455 51.8405 78.676 51.6672 78.8802 51.4349C79.0863 51.2026 79.2503 50.9422 79.372 50.6537C79.4957 50.3652 79.5584 50.0813 79.5603 49.8022V49.1502H78.3969V48.7849H81.1172V49.1502H79.9931V49.8022ZM82.1682 50.2912H83.0056V50.6677H82.1682V53.2643H81.7298V48.2678H82.1682V50.2912ZM85.0345 49.6111C85.0345 49.9071 85.0926 50.1994 85.2088 50.4879C85.3249 50.7764 85.4823 51.033 85.6809 51.2579C85.8795 51.4808 86.0987 51.6475 86.3385 51.7581L86.0743 52.1178C85.7914 51.9716 85.5385 51.7571 85.3156 51.4742C85.0926 51.1914 84.9259 50.8719 84.8153 50.516C84.7029 50.8925 84.5353 51.2307 84.3123 51.5305C84.0913 51.8302 83.8393 52.056 83.5564 52.2077L83.2697 51.8536C83.5114 51.7356 83.7325 51.5586 83.933 51.3225C84.1334 51.0846 84.2917 50.8157 84.4079 50.516C84.5259 50.2143 84.5849 49.9127 84.5849 49.6111V48.7006H85.0345V49.6111ZM87.4176 53.2756H86.9792V50.3361H85.7933V49.9764H86.9792V48.2678H87.4176V53.2756ZM94.2688 52.6236H89.6938V52.2583H91.7509V51.1792H90.2334V48.6219H90.6774V49.5268H93.274V48.6219H93.7068V51.1792H92.1836V52.2583H94.2688V52.6236ZM93.274 50.8195V49.8865H90.6774V50.8195H93.274ZM98.9337 53.2643H98.5009V50.679H97.7815V53.0058H97.3656V48.3802H97.7815V50.3024H98.5009V48.2678H98.9337V53.2643ZM95.3591 51.5782C95.6383 51.5745 95.9099 51.5614 96.1741 51.5389C96.4383 51.5145 96.7118 51.4733 96.9947 51.4152L97.0509 51.8087C96.7193 51.8667 96.4064 51.9089 96.1123 51.9351C95.8181 51.9595 95.524 51.9716 95.2299 51.9716H94.9208V48.8805H95.3591V51.5782ZM103.683 50.1394H100.26V48.4533H100.698V49.7853H103.683V50.1394ZM104.211 51.1792H99.6362V50.8195H104.211V51.1792ZM103.711 53.1407H100.232V51.6906H100.67V52.7754H103.711V53.1407ZM107.836 49.6111C107.834 49.9071 107.894 50.2012 108.016 50.4935C108.138 50.7839 108.303 51.0424 108.511 51.2691C108.719 51.4958 108.945 51.6644 109.191 51.7749L108.921 52.1234C108.636 51.9829 108.378 51.774 108.145 51.4967C107.915 51.2176 107.741 50.901 107.623 50.5469C107.507 50.9235 107.332 51.2607 107.1 51.5586C106.868 51.8546 106.605 52.0766 106.313 52.2246L106.032 51.8536C106.278 51.7393 106.504 51.566 106.712 51.3337C106.92 51.0996 107.086 50.8317 107.21 50.53C107.333 50.2265 107.396 49.9202 107.398 49.6111V48.7006H107.836V49.6111ZM110.18 53.2756H109.736V48.2678H110.18V53.2756ZM114.94 49.7909H115.694V50.1619H114.94V51.9267H114.496V48.2678H114.94V49.7909ZM113.592 48.6556C113.592 49.0772 113.495 49.464 113.302 49.8162C113.111 50.1684 112.838 50.4738 112.484 50.7324C112.132 50.9909 111.714 51.196 111.231 51.3478L111.04 50.9937C111.439 50.8682 111.788 50.708 112.088 50.5132C112.388 50.3165 112.626 50.0926 112.802 49.8415C112.978 49.5886 113.081 49.317 113.111 49.0266H111.248V48.6556H113.592ZM115.171 53.1575H111.81V51.5557H112.248V52.7866H115.171V53.1575ZM120.128 53.2756H119.684V48.2678H120.128V53.2756ZM117.47 48.6556C117.717 48.6575 117.937 48.7306 118.13 48.8748C118.323 49.0172 118.474 49.2195 118.582 49.4818C118.691 49.7441 118.745 50.0495 118.745 50.3979C118.745 50.7464 118.691 51.0518 118.582 51.3141C118.474 51.5763 118.323 51.7787 118.13 51.9211C117.937 52.0634 117.717 52.1346 117.47 52.1346C117.222 52.1346 117.001 52.0634 116.806 51.9211C116.613 51.7787 116.463 51.5763 116.354 51.3141C116.247 51.0518 116.194 50.7464 116.194 50.3979C116.194 50.0495 116.247 49.7441 116.354 49.4818C116.463 49.2195 116.613 49.0172 116.806 48.8748C116.999 48.7306 117.22 48.6575 117.47 48.6556ZM117.47 49.0491C117.303 49.0509 117.155 49.1081 117.026 49.2205C116.898 49.331 116.799 49.4884 116.728 49.6926C116.657 49.8949 116.621 50.13 116.621 50.3979C116.621 50.6659 116.657 50.9019 116.728 51.1061C116.799 51.3084 116.899 51.4649 117.028 51.5754C117.158 51.6859 117.305 51.7412 117.47 51.7412C117.635 51.7412 117.782 51.6859 117.911 51.5754C118.04 51.4649 118.14 51.3084 118.212 51.1061C118.283 50.9019 118.318 50.6659 118.318 50.3979C118.318 50.13 118.283 49.8949 118.212 49.6926C118.14 49.4884 118.04 49.331 117.911 49.2205C117.783 49.1081 117.636 49.0509 117.47 49.0491ZM124.214 49.8022C124.214 50.0776 124.275 50.352 124.397 50.6256C124.519 50.8972 124.682 51.1398 124.889 51.3534C125.096 51.5651 125.323 51.7244 125.569 51.8311L125.321 52.1796C125.027 52.0447 124.762 51.8414 124.526 51.5698C124.29 51.2963 124.114 50.9881 123.998 50.6452C123.882 51.0124 123.705 51.345 123.469 51.6429C123.235 51.9389 122.976 52.159 122.691 52.3032L122.427 51.9548C122.663 51.8405 122.883 51.6681 123.087 51.4377C123.293 51.2073 123.458 50.9478 123.582 50.6593C123.705 50.3689 123.768 50.0832 123.77 49.8022V49.1502H122.59V48.7849H125.406V49.1502H124.214V49.8022ZM126.547 53.2643H126.103V48.2678H126.547V53.2643ZM131.414 49.7685H128.401V50.4148H131.521V50.7801H127.957V49.42H130.964V48.8299H127.946V48.4702H131.414V49.7685ZM131.97 51.6625H129.891V53.2756H129.452V51.6625H127.395V51.3084H131.97V51.6625ZM136.242 50.3305H137.079V50.6958H136.242V53.2643H135.803V48.2678H136.242V50.3305ZM135.32 49.4369H132.347V49.0715H133.634V48.3297H134.072V49.0715H135.32V49.4369ZM133.859 49.8528C134.093 49.8528 134.303 49.9015 134.488 49.9989C134.674 50.0963 134.819 50.2321 134.924 50.4064C135.029 50.5806 135.082 50.7783 135.084 50.9993C135.082 51.2204 135.029 51.418 134.924 51.5923C134.819 51.7665 134.674 51.9023 134.488 51.9998C134.303 52.0972 134.093 52.1459 133.859 52.1459C133.623 52.1459 133.411 52.0972 133.224 51.9998C133.038 51.9023 132.893 51.7665 132.788 51.5923C132.683 51.418 132.631 51.2204 132.633 50.9993C132.631 50.7783 132.683 50.5806 132.788 50.4064C132.893 50.2321 133.038 50.0963 133.224 49.9989C133.411 49.9015 133.623 49.8528 133.859 49.8528ZM133.859 50.2237C133.705 50.2237 133.566 50.2574 133.443 50.3249C133.321 50.3905 133.225 50.4823 133.156 50.6003C133.087 50.7183 133.053 50.8513 133.055 50.9993C133.053 51.1492 133.087 51.2832 133.156 51.4012C133.225 51.5173 133.321 51.6082 133.443 51.6738C133.566 51.7393 133.705 51.7712 133.859 51.7693C134.01 51.7712 134.147 51.7393 134.269 51.6738C134.391 51.6082 134.486 51.5173 134.556 51.4012C134.625 51.2832 134.66 51.1492 134.662 50.9993C134.66 50.8513 134.625 50.7183 134.556 50.6003C134.486 50.4823 134.391 50.3905 134.269 50.3249C134.147 50.2574 134.01 50.2237 133.859 50.2237ZM141.626 53.2643H141.204V48.2678H141.626V53.2643ZM140.575 53.0114H140.153V50.679H139.094C138.775 51.2897 138.282 51.7918 137.613 52.1852L137.354 51.8649C137.888 51.5501 138.297 51.1736 138.58 50.7352C138.864 50.2949 139.027 49.8078 139.069 49.2739H137.568V48.9086H139.507C139.503 49.4181 139.42 49.8884 139.257 50.3193H140.153V48.4027H140.575V53.0114ZM147.814 50.8982H144.329V48.7062H144.773V50.5328H147.814V50.8982ZM148.342 52.573H143.767V52.2021H148.342V52.573ZM152.861 53.2643H152.428V51.3253H151.167C150.992 51.7525 150.767 52.1309 150.489 52.4606L150.118 52.2189C150.476 51.8087 150.736 51.3459 150.897 50.8307C151.058 50.3155 151.151 49.7666 151.175 49.184H150.394V48.813H151.596C151.596 49.0978 151.583 49.3713 151.557 49.6336H152.428V48.2678H152.861V53.2643ZM150.242 48.813C150.242 50.1769 149.845 51.2785 149.05 52.1178L148.696 51.8649C149.376 51.1661 149.749 50.2724 149.815 49.184H148.871V48.813H150.242ZM152.428 50.9544V49.9933H151.515C151.466 50.3399 151.395 50.6602 151.301 50.9544H152.428ZM157.835 50.8644H157.402V48.2678H157.835V50.8644ZM157.841 52.2976H155.036V52.854H158.021V53.2081H154.603V51.966H157.402V51.4546H154.592V51.1061H157.841V52.2976ZM155.514 48.976C155.514 49.1896 155.568 49.3928 155.677 49.5858C155.785 49.7788 155.937 49.9474 156.132 50.0916C156.327 50.2359 156.55 50.3455 156.801 50.4204L156.582 50.7633C156.286 50.6696 156.025 50.5282 155.8 50.3389C155.578 50.1478 155.411 49.9249 155.3 49.6701C155.192 49.9493 155.023 50.1937 154.794 50.4036C154.568 50.6134 154.302 50.7689 153.996 50.8701L153.788 50.5216C154.038 50.4392 154.259 50.3202 154.452 50.1647C154.646 50.0073 154.798 49.8265 154.907 49.6223C155.016 49.4163 155.07 49.2008 155.07 48.976V48.9198H153.901V48.5545H156.666V48.9198H155.514V48.976ZM163.444 50.3136H164.051V48.2678H164.473V53.2643H164.051V50.679H163.444V53.017H163.034V48.3802H163.444V50.3136ZM161.37 49.2683H160.696V51.5867C160.949 51.5754 161.185 51.5426 161.404 51.4883L161.443 51.8649C161.26 51.9061 161.094 51.9323 160.946 51.9435C160.798 51.9548 160.643 51.9604 160.482 51.9604H160.286V48.9029H161.37V49.2683ZM162.697 49.2683H161.989V51.5867C162.29 51.5792 162.562 51.5408 162.803 51.4714L162.843 51.848C162.659 51.8967 162.489 51.9276 162.331 51.9407C162.176 51.9539 161.996 51.9604 161.792 51.9604H161.589V48.9029H162.697V49.2683ZM165.49 53.9613H165.074L165.383 52.4325H165.928L165.49 53.9613ZM77.1941 58.2462H78.0316V58.6171H77.1941V61.2756H76.7558V56.2678H77.1941V58.2462ZM75.879 57.1221H73.9849V59.6513C74.4514 59.6513 74.8589 59.6382 75.2073 59.6119C75.5558 59.5857 75.9108 59.5389 76.2724 59.4714L76.3286 59.8536C75.9595 59.9211 75.597 59.966 75.2411 59.9885C74.8851 60.011 74.4514 60.0222 73.94 60.0222H73.5465V56.7568H75.879V57.1221ZM82.9494 57.3919H82.2075V58.0888H82.9494V58.4598H82.2075V59.2354H81.7691V56.2678H82.2075V57.0266H82.9494V57.3919ZM79.7064 56.5713C79.9575 56.5695 80.1823 56.6182 80.3809 56.7175C80.5795 56.8168 80.735 56.9563 80.8474 57.1362C80.9617 57.3142 81.0197 57.5174 81.0216 57.746C81.0197 57.9745 80.9617 58.1778 80.8474 58.3558C80.735 58.5319 80.5795 58.6696 80.3809 58.7689C80.1823 58.8682 79.9575 58.9188 79.7064 58.9206C79.4554 58.9188 79.2296 58.8682 79.0292 58.7689C78.8306 58.6696 78.6751 58.5319 78.5627 58.3558C78.4503 58.1778 78.395 57.9745 78.3969 57.746C78.395 57.5174 78.4503 57.3142 78.5627 57.1362C78.6751 56.9563 78.8306 56.8168 79.0292 56.7175C79.2296 56.6182 79.4554 56.5695 79.7064 56.5713ZM79.7064 56.9479C79.5397 56.946 79.3889 56.9788 79.254 57.0463C79.121 57.1137 79.0161 57.2083 78.9393 57.3301C78.8643 57.4519 78.8278 57.5905 78.8297 57.746C78.8278 57.8996 78.8643 58.0373 78.9393 58.1591C79.0161 58.2809 79.121 58.3764 79.254 58.4457C79.3889 58.5132 79.5397 58.5478 79.7064 58.5497C79.8751 58.5478 80.0259 58.5132 80.1589 58.4457C80.2938 58.3764 80.3987 58.2818 80.4736 58.1619C80.5504 58.0401 80.5888 57.9015 80.5888 57.746C80.5888 57.5905 80.5504 57.4519 80.4736 57.3301C80.3987 57.2083 80.2938 57.1137 80.1589 57.0463C80.0259 56.9788 79.8751 56.946 79.7064 56.9479ZM80.6057 59.3871C80.9448 59.389 81.238 59.4274 81.4853 59.5023C81.7326 59.5754 81.9218 59.6822 82.0529 59.8227C82.186 59.9613 82.2525 60.129 82.2525 60.3257C82.2525 60.5187 82.186 60.6845 82.0529 60.8231C81.9199 60.9636 81.7298 61.0704 81.4825 61.1435C81.2352 61.2166 80.9429 61.2531 80.6057 61.2531C80.2666 61.2531 79.9725 61.2166 79.7233 61.1435C79.4741 61.0704 79.2821 60.9636 79.1472 60.8231C79.0142 60.6845 78.9477 60.5187 78.9477 60.3257C78.9477 60.129 79.0142 59.9613 79.1472 59.8227C79.2821 59.6822 79.4732 59.5754 79.7205 59.5023C79.9697 59.4274 80.2647 59.389 80.6057 59.3871ZM80.6057 59.7468C80.3547 59.7468 80.1373 59.7703 79.9537 59.8171C79.772 59.8621 79.6324 59.9286 79.535 60.0166C79.4376 60.1028 79.3898 60.2058 79.3917 60.3257C79.3898 60.4438 79.4376 60.5459 79.535 60.632C79.6324 60.7182 79.7729 60.7838 79.9565 60.8288C80.1401 60.8756 80.3565 60.899 80.6057 60.899C80.8567 60.899 81.0741 60.8756 81.2577 60.8288C81.4413 60.7838 81.5818 60.7182 81.6792 60.632C81.7766 60.5459 81.8253 60.4438 81.8253 60.3257C81.8253 60.2058 81.7766 60.1028 81.6792 60.0166C81.5818 59.9286 81.4413 59.8621 81.2577 59.8171C81.0741 59.7703 80.8567 59.7468 80.6057 59.7468ZM87.1815 57.9202H87.9346V58.2912H87.1815V60.0166H86.7431V56.2735H87.1815V57.9202ZM86.2654 57.2458H83.2866V56.8861H84.5568V56.2735H84.9952V56.8861H86.2654V57.2458ZM84.776 57.5212C85.0121 57.5212 85.22 57.5596 85.3999 57.6364C85.5816 57.7132 85.723 57.8219 85.8242 57.9624C85.9254 58.1029 85.9769 58.2668 85.9788 58.4542C85.9769 58.6396 85.9254 58.8017 85.8242 58.9403C85.723 59.0789 85.5816 59.1867 85.3999 59.2635C85.22 59.3384 85.0121 59.3759 84.776 59.3759C84.5381 59.3759 84.3273 59.3384 84.1437 59.2635C83.962 59.1867 83.8205 59.0789 83.7194 58.9403C83.6201 58.8017 83.5714 58.6396 83.5732 58.4542C83.5714 58.2668 83.6201 58.1029 83.7194 57.9624C83.8205 57.8219 83.962 57.7132 84.1437 57.6364C84.3273 57.5596 84.5381 57.5212 84.776 57.5212ZM84.776 57.8696C84.6205 57.8696 84.4828 57.894 84.3629 57.9427C84.2449 57.9895 84.1531 58.0579 84.0875 58.1478C84.0238 58.2359 83.9929 58.338 83.9948 58.4542C83.9929 58.5703 84.0238 58.6724 84.0875 58.7605C84.1531 58.8466 84.2449 58.9131 84.3629 58.96C84.4828 59.0068 84.6205 59.0293 84.776 59.0274C84.9296 59.0293 85.0655 59.0068 85.1835 58.96C85.3034 58.9131 85.3961 58.8466 85.4617 58.7605C85.5273 58.6724 85.561 58.5703 85.5629 58.4542C85.561 58.338 85.5273 58.2359 85.4617 58.1478C85.3961 58.0579 85.3034 57.9895 85.1835 57.9427C85.0655 57.894 84.9296 57.8696 84.776 57.8696ZM87.412 61.1575H84.0566V59.7187H84.4894V60.7866H87.412V61.1575ZM92.2174 56.976C92.2155 57.1896 92.2989 57.3938 92.4675 57.5886C92.6361 57.7816 92.8562 57.9446 93.1279 58.0776C93.3995 58.2106 93.6824 58.2987 93.9765 58.3417L93.8135 58.6902C93.5494 58.6452 93.2946 58.5703 93.0492 58.4654C92.8056 58.3605 92.5892 58.2293 92.4 58.072C92.2108 57.9127 92.0675 57.7357 91.9701 57.5408C91.8726 57.7357 91.7293 57.9118 91.5401 58.0692C91.3509 58.2265 91.1345 58.3586 90.891 58.4654C90.6493 58.5703 90.3982 58.6452 90.1378 58.6902L89.9636 58.3417C90.2559 58.2987 90.5378 58.2106 90.8095 58.0776C91.0811 57.9446 91.3012 57.7816 91.4699 57.5886C91.6385 57.3938 91.7228 57.1896 91.7228 56.976V56.9423H90.121V56.5826H93.8135V56.9423H92.2174V56.976ZM94.2463 59.4827H92.178V61.2643H91.7453V59.4827H89.6938V59.1174H94.2463V59.4827ZM98.9393 61.2643H98.5178V56.2678H98.9393V61.2643ZM97.9276 61.0058H97.5117V58.4317H96.6687V58.072H97.5117V56.3915H97.9276V61.0058ZM96.1348 57.6954C96.1348 57.9858 96.1769 58.2696 96.2612 58.5469C96.3455 58.8223 96.4692 59.0715 96.6322 59.2944C96.7951 59.5155 96.989 59.6906 97.2139 59.8199L96.9441 60.1459C96.7024 60.0016 96.4954 59.8021 96.323 59.5473C96.1507 59.2906 96.0195 59.0003 95.9296 58.6762C95.8378 59.0265 95.702 59.3403 95.5221 59.6176C95.3442 59.8948 95.1325 60.1103 94.887 60.2639L94.606 59.9323C94.8327 59.7974 95.0294 59.6129 95.1962 59.3787C95.3629 59.1445 95.4893 58.8822 95.5755 58.5919C95.6636 58.2996 95.7076 58.0008 95.7076 57.6954V57.2233H94.7465V56.858H97.0509V57.2233H96.1348V57.6954ZM101.277 56.6332C101.538 56.6332 101.769 56.6828 101.971 56.7821C102.176 56.8814 102.335 57.02 102.449 57.198C102.564 57.376 102.621 57.5792 102.621 57.8078C102.621 58.0364 102.564 58.2396 102.449 58.4176C102.335 58.5956 102.176 58.7342 101.971 58.8335C101.769 58.9328 101.538 58.9825 101.277 58.9825C101.017 58.9825 100.784 58.9328 100.578 58.8335C100.373 58.7342 100.213 58.5956 100.097 58.4176C99.9828 58.2396 99.9266 58.0364 99.9285 57.8078C99.9266 57.5792 99.9828 57.376 100.097 57.198C100.213 57.02 100.373 56.8814 100.578 56.7821C100.784 56.6828 101.017 56.6332 101.277 56.6332ZM101.277 57.021C101.101 57.021 100.943 57.0547 100.802 57.1221C100.664 57.1877 100.555 57.2804 100.476 57.4003C100.398 57.5184 100.359 57.6542 100.361 57.8078C100.359 57.9614 100.398 58.0982 100.476 58.2181C100.555 58.3361 100.664 58.4289 100.802 58.4963C100.943 58.5619 101.101 58.5947 101.277 58.5947C101.452 58.5947 101.608 58.5619 101.747 58.4963C101.885 58.4289 101.993 58.3361 102.07 58.2181C102.149 58.0982 102.188 57.9614 102.188 57.8078C102.188 57.6542 102.149 57.5184 102.07 57.4003C101.993 57.2804 101.885 57.1877 101.747 57.1221C101.608 57.0547 101.452 57.021 101.277 57.021ZM103.739 61.2756H103.301V56.2678H103.739V61.2756ZM99.67 59.7974C100.318 59.7974 100.907 59.7871 101.438 59.7665C101.97 59.7459 102.48 59.7 102.969 59.6288L103.003 59.9548C102.501 60.0485 101.988 60.1084 101.466 60.1346C100.945 60.1609 100.367 60.174 99.7318 60.174L99.67 59.7974ZM110.304 59.9941H109.882V58.1394H109.18V59.848H108.769V56.369H109.18V57.7685H109.882V56.2735H110.304V59.9941ZM110.455 61.1575H107.027V59.6513H107.465V60.7866H110.455V61.1575ZM108.174 58.1282H106.718V58.8869C107.068 58.885 107.377 58.8738 107.645 58.8532C107.913 58.8307 108.189 58.7914 108.471 58.7352L108.522 59.0893C108.215 59.1473 107.917 59.1876 107.628 59.2101C107.342 59.2307 107.005 59.241 106.617 59.241H106.291V57.7797H107.752V57.0603H106.28V56.7006H108.174V58.1282ZM113.608 56.9591H111.748V58.5441C112.245 58.5441 112.647 58.5338 112.956 58.5132C113.267 58.4926 113.577 58.4504 113.884 58.3867L113.934 58.7464C113.601 58.812 113.27 58.8569 112.942 58.8813C112.615 58.9038 112.194 58.915 111.681 58.915H111.31V56.5938H113.608V56.9591ZM115.177 59.1623H114.733V57.8528H113.311V57.4874H114.733V56.2678H115.177V59.1623ZM115.177 61.1969H111.911V59.4152H115.177V61.1969ZM112.349 60.8316H114.744V59.7693H112.349V60.8316ZM120.055 60.011H117.745V56.7624H120.055V60.011ZM118.178 59.6513H119.622V57.1165H118.178V59.6513ZM121.572 61.2756H121.128V56.2678H121.572V61.2756ZM124.135 57.1952C124.135 57.435 124.187 57.6682 124.29 57.8949C124.393 58.1216 124.537 58.323 124.723 58.4991C124.908 58.6733 125.121 58.8082 125.361 58.9038L125.113 59.2466C124.84 59.1323 124.599 58.9665 124.391 58.7492C124.185 58.5319 124.03 58.2809 123.925 57.9961C123.818 58.3033 123.656 58.5741 123.438 58.8082C123.223 59.0405 122.97 59.2166 122.68 59.3365L122.438 58.9825C122.683 58.8869 122.902 58.7483 123.093 58.5666C123.284 58.3848 123.433 58.175 123.54 57.9371C123.646 57.6991 123.701 57.4519 123.703 57.1952V56.5545H124.135V57.1952ZM126.569 60.0054H126.125V58.4036H125.096V58.0439H126.125V57.3807H125.096V57.0153H126.125V56.2735H126.569V60.0054ZM126.681 61.1575H123.337V59.6176H123.781V60.7866H126.681V61.1575ZM129.677 56.3578C130.048 56.3578 130.366 56.3915 130.63 56.4589C130.894 56.5245 131.095 56.6219 131.234 56.7512C131.373 56.8786 131.442 57.0341 131.442 57.2177C131.442 57.4987 131.288 57.7141 130.981 57.864C130.674 58.0139 130.239 58.0907 129.677 58.0944C129.306 58.0926 128.988 58.0579 128.722 57.9905C128.457 57.923 128.255 57.8247 128.115 57.6954C127.976 57.5643 127.907 57.405 127.907 57.2177C127.907 57.0341 127.976 56.8786 128.115 56.7512C128.255 56.6219 128.457 56.5245 128.722 56.4589C128.988 56.3915 129.306 56.3578 129.677 56.3578ZM129.677 56.6894C129.402 56.6894 129.166 56.7109 128.969 56.754C128.772 56.7952 128.622 56.8561 128.519 56.9367C128.416 57.0153 128.366 57.109 128.368 57.2177C128.366 57.39 128.479 57.523 128.708 57.6167C128.936 57.7104 129.259 57.7572 129.677 57.7572C130.093 57.7572 130.416 57.7104 130.647 57.6167C130.877 57.523 130.992 57.39 130.992 57.2177C130.992 57.109 130.94 57.0153 130.835 56.9367C130.73 56.858 130.579 56.7971 130.382 56.754C130.186 56.7109 129.951 56.6894 129.677 56.6894ZM131.953 58.7914H127.401V58.4317H131.953V58.7914ZM131.369 60.3426H128.401V60.8597H131.521V61.2081H127.963V60.0166H130.936V59.5614H127.952V59.2241H131.369V60.3426ZM138.372 59.2803H133.814V58.9206H135.871V58.426H134.421V56.414H137.804V56.7737H134.865V57.2402H137.669V57.5774H134.865V58.072H137.832V58.426H136.309V58.9206H138.372V59.2803ZM136.096 59.6569C136.644 59.6532 137.068 59.7206 137.366 59.8592C137.664 59.996 137.813 60.1946 137.815 60.455C137.813 60.7154 137.664 60.9131 137.366 61.0479C137.07 61.1847 136.646 61.2531 136.096 61.2531C135.539 61.2531 135.112 61.1847 134.814 61.0479C134.518 60.9131 134.37 60.7154 134.37 60.455C134.37 60.1946 134.519 59.996 134.817 59.8592C135.115 59.7206 135.541 59.6532 136.096 59.6569ZM136.096 59.9885C135.683 59.9885 135.366 60.0288 135.143 60.1093C134.92 60.1899 134.81 60.3051 134.814 60.455C134.812 60.6067 134.921 60.722 135.14 60.8007C135.361 60.8775 135.68 60.914 136.096 60.9102C136.506 60.914 136.821 60.8775 137.04 60.8007C137.261 60.722 137.371 60.6067 137.371 60.455C137.371 60.3051 137.26 60.1899 137.037 60.1093C136.816 60.0288 136.502 59.9885 136.096 59.9885ZM141.289 57.4931H138.782V57.1334H139.822V56.4196H140.26V57.1334H141.289V57.4931ZM140.035 57.8303C140.243 57.8303 140.429 57.879 140.592 57.9764C140.757 58.072 140.885 58.2059 140.977 58.3783C141.07 58.5506 141.118 58.7464 141.12 58.9656C141.118 59.1867 141.07 59.3843 140.977 59.5586C140.885 59.7309 140.757 59.8667 140.592 59.966C140.429 60.0634 140.243 60.1122 140.035 60.1122C139.829 60.1122 139.645 60.0634 139.482 59.966C139.319 59.8667 139.191 59.73 139.1 59.5557C139.008 59.3815 138.962 59.1848 138.962 58.9656C138.962 58.7483 139.008 58.5534 139.1 58.3811C139.191 58.2069 139.319 58.072 139.482 57.9764C139.645 57.879 139.829 57.8303 140.035 57.8303ZM140.035 58.2012C139.906 58.2031 139.789 58.2378 139.684 58.3052C139.581 58.3708 139.501 58.4616 139.442 58.5778C139.384 58.6921 139.355 58.8213 139.355 58.9656C139.355 59.1117 139.384 59.2429 139.442 59.359C139.502 59.4752 139.584 59.566 139.687 59.6316C139.79 59.6953 139.906 59.7262 140.035 59.7244C140.167 59.7262 140.285 59.6953 140.389 59.6316C140.494 59.566 140.577 59.4752 140.637 59.359C140.697 59.2429 140.727 59.1117 140.727 58.9656C140.727 58.8213 140.697 58.6921 140.637 58.5778C140.577 58.4616 140.494 58.3708 140.389 58.3052C140.285 58.2378 140.167 58.2031 140.035 58.2012ZM143.048 61.2643H142.626V58.7408H141.963V61.017H141.547V56.3915H141.963V58.3755H142.626V56.2678H143.048V61.2643ZM77.61 69.2643H77.1829V66.6171H76.486V69.0114H76.0644V64.3746H76.486V66.2518H77.1829V64.2678H77.61V69.2643ZM75.4237 67.9211H73.5128V64.8523H75.4237V67.9211ZM73.9287 67.567H75.0078V65.2064H73.9287V67.567ZM79.7177 64.4533C79.965 64.4552 80.186 64.5029 80.3809 64.5966C80.5776 64.6903 80.7312 64.8214 80.8418 64.99C80.9542 65.1568 81.0104 65.3469 81.0104 65.5605C81.0104 65.7741 80.9542 65.9652 80.8418 66.1338C80.7312 66.3005 80.5776 66.4307 80.3809 66.5244C80.186 66.6162 79.965 66.6621 79.7177 66.6621C79.4666 66.6621 79.2428 66.6162 79.046 66.5244C78.8493 66.4307 78.6957 66.3005 78.5852 66.1338C78.4746 65.9652 78.4194 65.7741 78.4194 65.5605C78.4194 65.3469 78.4746 65.1568 78.5852 64.99C78.6957 64.8214 78.8493 64.6903 79.046 64.5966C79.2428 64.5029 79.4666 64.4552 79.7177 64.4533ZM79.7177 64.8242C79.5528 64.8242 79.4039 64.8561 79.2709 64.9198C79.1397 64.9816 79.0367 65.0687 78.9617 65.1811C78.8868 65.2917 78.8503 65.4181 78.8521 65.5605C78.8503 65.7048 78.8868 65.8331 78.9617 65.9455C79.0367 66.0579 79.1397 66.146 79.2709 66.2097C79.4039 66.2715 79.5528 66.3024 79.7177 66.3024C79.8807 66.3024 80.0277 66.2715 80.1589 66.2097C80.2919 66.146 80.3959 66.0579 80.4708 65.9455C80.5457 65.8331 80.5832 65.7048 80.5832 65.5605C80.5832 65.4181 80.5457 65.2917 80.4708 65.1811C80.3959 65.0687 80.2919 64.9816 80.1589 64.9198C80.0277 64.8561 79.8807 64.8242 79.7177 64.8242ZM82.4267 66.8363H81.9883V64.2678H82.4267V66.8363ZM82.4267 68.2808H79.6221V68.8428H82.6065V69.1969H79.1894V67.9492H81.9883V67.4321H79.1781V67.078H82.4267V68.2808ZM86.2092 65.2458C86.2092 65.435 86.2504 65.6214 86.3328 65.805C86.4153 65.9867 86.5333 66.1507 86.6869 66.2968C86.8406 66.4429 87.0223 66.5572 87.2321 66.6396L86.996 66.9825C86.7637 66.885 86.5623 66.7502 86.3919 66.5778C86.2214 66.4036 86.0912 66.204 86.0012 65.9792C85.9057 66.2284 85.7689 66.4523 85.591 66.6509C85.413 66.8476 85.205 66.9993 84.9671 67.1061L84.7254 66.7633C84.939 66.6696 85.1254 66.5403 85.2846 66.3755C85.4458 66.2087 85.5694 66.027 85.6556 65.8303C85.7436 65.6317 85.7877 65.4369 85.7877 65.2458V64.577H86.2092V65.2458ZM88.9632 67.2916H88.5416V65.9483H87.8784V67.2635H87.4625V64.3634H87.8784V65.5774H88.5416V64.2735H88.9632V67.2916ZM88.9632 69.2643H88.5304V67.9323H85.5966V67.567H88.9632V69.2643ZM93.5606 66.2462H94.3981V66.6171H93.5606V69.2756H93.1222V64.2678H93.5606V66.2462ZM92.2455 65.1221H90.3514V67.6513C90.8179 67.6513 91.2254 67.6382 91.5738 67.6119C91.9223 67.5857 92.2773 67.5389 92.6389 67.4714L92.6951 67.8536C92.326 67.9211 91.9635 67.966 91.6076 67.9885C91.2516 68.011 90.8179 68.0222 90.3064 68.0222H89.913V64.7568H92.2455V65.1221ZM99.2372 67.404H94.6622V67.0387H99.2372V67.404ZM98.7538 69.1575H95.2692V67.7974H95.7132V68.7866H98.7538V69.1575ZM98.6471 65.6729H95.6964V66.2293H98.7538V66.5778H95.258V65.3413H98.203V64.7961H95.2411V64.4421H98.6471V65.6729ZM104.953 66.3305H105.791V66.6958H104.953V69.2643H104.515V64.2678H104.953V66.3305ZM104.031 65.4369H101.058V65.0715H102.345V64.3297H102.784V65.0715H104.031V65.4369ZM102.57 65.8528C102.804 65.8528 103.014 65.9015 103.2 65.9989C103.385 66.0963 103.53 66.2321 103.635 66.4064C103.74 66.5806 103.793 66.7783 103.795 66.9993C103.793 67.2204 103.74 67.418 103.635 67.5923C103.53 67.7665 103.385 67.9023 103.2 67.9998C103.014 68.0972 102.804 68.1459 102.57 68.1459C102.334 68.1459 102.122 68.0972 101.935 67.9998C101.749 67.9023 101.604 67.7665 101.499 67.5923C101.394 67.418 101.343 67.2204 101.345 66.9993C101.343 66.7783 101.394 66.5806 101.499 66.4064C101.604 66.2321 101.749 66.0963 101.935 65.9989C102.122 65.9015 102.334 65.8528 102.57 65.8528ZM102.57 66.2237C102.416 66.2237 102.278 66.2574 102.154 66.3249C102.032 66.3905 101.937 66.4823 101.868 66.6003C101.798 66.7183 101.764 66.8513 101.766 66.9993C101.764 67.1492 101.798 67.2832 101.868 67.4012C101.937 67.5173 102.032 67.6082 102.154 67.6738C102.278 67.7393 102.416 67.7712 102.57 67.7693C102.722 67.7712 102.859 67.7393 102.98 67.6738C103.102 67.6082 103.198 67.5173 103.267 67.4012C103.336 67.2832 103.372 67.1492 103.374 66.9993C103.372 66.8513 103.336 66.7183 103.267 66.6003C103.198 66.4823 103.102 66.3905 102.98 66.3249C102.859 66.2574 102.722 66.2237 102.57 66.2237ZM110.073 65.7685H107.061V66.4148H110.18V66.7801H106.617V65.42H109.624V64.8299H106.605V64.4702H110.073V65.7685ZM110.63 67.6625H108.55V69.2756H108.112V67.6625H106.055V67.3084H110.63V67.6625ZM115.604 66.9375H111.029V66.589H115.604V66.9375ZM115.03 68.3988H112.029V68.8765H115.193V69.1969H111.585V68.0953H114.592V67.6681H111.58V67.3365H115.03V68.3988ZM115.014 65.4537H112.063V65.8921H115.103V66.2125H111.624V65.1502H114.57V64.7399H111.608V64.4196H115.014V65.4537ZM119.976 67.0218H117.666V64.7231H119.976V67.0218ZM118.099 66.6677H119.549V65.0828H118.099V66.6677ZM121.359 65.7909H122.112V66.1619H121.359V67.9323H120.921V64.2678H121.359V65.7909ZM121.589 69.1575H118.234V67.5838H118.667V68.7866H121.589V69.1575ZM126.985 66.7239H122.427V66.3698H126.985V66.7239ZM126.44 65.9596H123.034V64.4421H126.389V64.7961H123.478V65.5999H126.44V65.9596ZM126.395 68.3314H123.427V68.8484H126.547V69.2081H122.989V67.9998H125.962V67.5164H122.978V67.1736H126.395V68.3314ZM128.744 64.6556C128.969 64.6575 129.17 64.7203 129.348 64.8439C129.528 64.9676 129.673 65.1437 129.784 65.3722C129.894 65.6008 129.961 65.8696 129.983 66.1788H131.105V64.2678H131.543V69.2756H131.105V66.5441H129.989C129.972 66.8663 129.909 67.1473 129.801 67.3871C129.692 67.6269 129.546 67.8115 129.362 67.9407C129.181 68.07 128.975 68.1346 128.744 68.1346C128.501 68.1346 128.283 68.0634 128.092 67.9211C127.903 67.7787 127.755 67.5763 127.648 67.3141C127.543 67.0518 127.491 66.7464 127.491 66.3979C127.491 66.0495 127.543 65.7441 127.648 65.4818C127.755 65.2195 127.903 65.0172 128.092 64.8748C128.281 64.7306 128.499 64.6575 128.744 64.6556ZM128.744 65.0491C128.581 65.0509 128.436 65.1081 128.308 65.2205C128.183 65.331 128.086 65.4884 128.016 65.6926C127.947 65.8949 127.912 66.13 127.912 66.3979C127.912 66.6659 127.947 66.9019 128.016 67.1061C128.086 67.3084 128.183 67.4649 128.308 67.5754C128.436 67.6859 128.581 67.7412 128.744 67.7412C128.905 67.7412 129.049 67.6859 129.174 67.5754C129.301 67.4649 129.4 67.3084 129.469 67.1061C129.54 66.9019 129.576 66.6659 129.576 66.3979C129.576 66.13 129.54 65.8949 129.469 65.6926C129.4 65.4884 129.302 65.331 129.177 65.2205C129.051 65.1081 128.907 65.0509 128.744 65.0491ZM136.95 68.6236H132.375V68.2583H134.432V67.1792H132.914V64.6219H133.358V65.5268H135.955V64.6219H136.388V67.1792H134.865V68.2583H136.95V68.6236ZM135.955 66.8195V65.8865H133.358V66.8195H135.955ZM138.833 65.6898C138.833 65.9558 138.875 66.2218 138.959 66.4879C139.043 66.7539 139.164 66.9965 139.322 67.2157C139.481 67.4349 139.668 67.6082 139.884 67.7356L139.631 68.0784C139.397 67.9361 139.193 67.7403 139.021 67.4911C138.85 67.2401 138.719 66.9581 138.627 66.6452C138.534 66.9825 138.396 67.286 138.214 67.5557C138.033 67.8255 137.819 68.0353 137.574 68.1852L137.293 67.8536C137.517 67.7225 137.714 67.5436 137.883 67.3169C138.051 67.0883 138.181 66.8345 138.271 66.5553C138.361 66.2743 138.405 65.9914 138.405 65.7066V64.7399H138.833V65.6898ZM141.632 69.2643H141.204V64.2678H141.632V69.2643ZM140.597 69.0114H140.182V66.4373H139.333V66.0607H140.182V64.3746H140.597V69.0114ZM146.898 68.6236H142.323V68.2527H143.458V66.9038C143.241 66.7914 143.072 66.6471 142.952 66.471C142.832 66.293 142.772 66.0926 142.772 65.8696C142.772 65.6148 142.85 65.391 143.006 65.198C143.161 65.0032 143.377 64.8523 143.652 64.7456C143.929 64.6388 144.245 64.5844 144.599 64.5826C144.953 64.5844 145.268 64.6388 145.543 64.7456C145.821 64.8523 146.037 65.0032 146.192 65.198C146.348 65.391 146.426 65.6148 146.426 65.8696C146.426 66.0888 146.368 66.2865 146.251 66.4626C146.135 66.6368 145.972 66.7801 145.763 66.8925V68.2527H146.898V68.6236ZM144.599 64.9479C144.327 64.946 144.086 64.9835 143.874 65.0603C143.662 65.1371 143.497 65.2458 143.377 65.3863C143.259 65.5249 143.2 65.686 143.2 65.8696C143.2 66.0532 143.259 66.2162 143.377 66.3586C143.497 66.4991 143.662 66.6087 143.874 66.6874C144.086 66.7642 144.327 66.8026 144.599 66.8026C144.869 66.8026 145.11 66.7633 145.321 66.6846C145.533 66.6059 145.699 66.4963 145.819 66.3558C145.939 66.2153 145.999 66.0532 145.999 65.8696C145.999 65.686 145.939 65.5249 145.819 65.3863C145.699 65.2458 145.533 65.1371 145.321 65.0603C145.11 64.9835 144.869 64.946 144.599 64.9479ZM145.319 68.2527V67.064C145.096 67.122 144.856 67.1511 144.599 67.1511C144.341 67.1511 144.105 67.123 143.891 67.0668V68.2527H145.319ZM147.825 68.8428C147.76 68.8428 147.699 68.8269 147.643 68.795C147.588 68.7613 147.544 68.7163 147.51 68.6601C147.479 68.6039 147.464 68.5431 147.465 68.4775C147.464 68.4138 147.479 68.3548 147.51 68.3004C147.544 68.2442 147.588 68.2002 147.643 68.1684C147.699 68.1346 147.76 68.1178 147.825 68.1178C147.889 68.1178 147.948 68.1346 148.002 68.1684C148.058 68.2002 148.102 68.2442 148.134 68.3004C148.168 68.3548 148.185 68.4138 148.185 68.4775C148.185 68.5431 148.168 68.6039 148.134 68.6601C148.102 68.7163 148.058 68.7613 148.002 68.795C147.948 68.8269 147.889 68.8428 147.825 68.8428Z" fill="#2E3135"/>
<rect x="73.3305" y="99.6186" width="93.8455" height="16.484" rx="4.72752" fill="white"/>
<rect x="73.3305" y="99.6186" width="93.8455" height="16.484" rx="4.72752" stroke="#B54708" stroke-width="0.411089"/>
<path d="M112.017 109.519H109.255V105.672H112.017V109.519ZM109.961 108.948H111.323V106.231H109.961V108.948ZM113.777 110.939H113.057V105.126H113.777V110.939ZM116.744 106.154C116.744 106.43 116.796 106.696 116.899 106.953C117.001 107.21 117.153 107.44 117.355 107.644C117.558 107.845 117.804 107.999 118.093 108.106L117.695 108.659C117.391 108.539 117.128 108.364 116.905 108.135C116.685 107.906 116.512 107.637 116.388 107.329C116.262 107.657 116.081 107.942 115.845 108.187C115.612 108.429 115.331 108.614 115.004 108.742L114.618 108.177C114.918 108.068 115.173 107.91 115.383 107.705C115.595 107.499 115.754 107.263 115.861 106.995C115.968 106.727 116.023 106.447 116.025 106.154V105.46H116.744V106.154ZM119.494 109.442H118.781V107.644H117.721V107.072H118.781V106.5H117.721V105.922H118.781V105.132H119.494V109.442ZM119.622 110.817H115.665V109.018H116.391V110.239H119.622V110.817ZM121.453 105.775H122.095V105.222H122.763V107.239H123.161V105.222H123.836V105.775H124.478V105.222H125.14V107.374H123.315V107.881H125.609V108.447H120.316V107.881H122.596V107.374H120.765V105.222H121.453V105.775ZM122.095 106.809V106.314H121.453V106.809H122.095ZM124.478 106.809V106.314H123.836V106.809H124.478ZM121.658 109.237H124.234V108.781H124.953V110.862H120.952V108.781H121.658V109.237ZM124.234 110.297V109.789H121.658V110.297H124.234ZM130.85 110.933H130.131V105.126H130.85V110.933ZM129.116 105.743C129.116 106.665 128.907 107.476 128.489 108.174C128.072 108.87 127.379 109.447 126.411 109.905L126.039 109.333C126.786 108.978 127.348 108.553 127.725 108.058C128.104 107.561 128.326 106.978 128.39 106.308H126.334V105.743H129.116Z" fill="#B54708"/>
<g clip-path="url(#clip0_2726_307914)">
<path d="M234.036 54.4271C236.477 57.2964 237.893 61.0123 237.979 64.7725C238.064 68.5336 236.819 72.3126 234.511 75.2954C234.511 75.2954 229.727 80.6836 212.453 78.6654C211.503 78.5549 204.52 77.515 201.462 73.3457C198.404 69.1772 197.796 61.7559 200.948 56.8039L201.912 55.1767C201.763 52.4661 201.614 49.7563 201.466 47.0457C201.4 45.8516 201.474 44.3937 202.534 43.8283C203.349 43.3944 204.347 43.7313 205.185 44.114C206.35 44.6463 208.423 45.7373 209.951 47.0073C211.798 48.5427 212.946 50.0608 212.946 50.0608C214.747 49.4081 216.762 49.3412 218.669 49.5239L222.359 50.2991C222.359 50.2991 224.957 48.1171 226.715 46.3682C228.251 44.8396 230.129 43.4463 231.786 43.5553C232.959 43.6328 234.477 45.4095 234.279 46.5832C234.04 47.9991 234.208 49.5142 234.082 51.2195C233.956 52.9248 234.034 54.4241 234.034 54.4241L234.036 54.4271Z" fill="white"/>
<path d="M210.565 101.653C210.759 101.653 210.76 101.348 210.565 101.348C210.369 101.348 210.369 101.653 210.565 101.653Z" fill="#555A60"/>
<path d="M215.566 94.9052C216.039 93.8337 216.601 92.5871 217.816 92.2165C218.349 92.0536 218.92 92.1236 219.359 92.4851C219.797 92.8466 220.067 93.3573 220.249 93.8771C220.6 94.8793 220.605 95.9836 220.307 97.0003C220.159 97.5072 219.936 97.9897 219.643 98.428C219.328 98.8976 218.932 99.2804 218.491 99.6297C218.001 100.019 217.484 100.441 217.315 101.074C217.237 101.366 217.25 101.677 217.388 101.949C217.513 102.195 217.738 102.399 218.003 102.482C218.137 102.523 218.273 102.525 218.41 102.5C218.602 102.465 218.521 102.172 218.33 102.207C218.081 102.252 217.838 102.092 217.706 101.891C217.547 101.651 217.541 101.366 217.625 101.096C217.821 100.472 218.409 100.092 218.888 99.6997C219.741 99.0019 220.342 98.0399 220.63 96.9768C220.913 95.9326 220.898 94.7933 220.533 93.7713C220.341 93.2348 220.06 92.699 219.627 92.317C219.195 91.9349 218.607 91.7606 218.017 91.8573C216.739 92.0673 216 93.2264 215.499 94.3139C215.433 94.4593 215.368 94.6061 215.303 94.7523C215.269 94.8276 215.281 94.9159 215.358 94.9608C215.422 94.9988 215.532 94.9821 215.565 94.906L215.566 94.9052Z" fill="#555A60"/>
<path d="M220.98 104.357C221.056 104.256 221.132 104.154 221.208 104.053C221.23 104.023 221.232 103.969 221.223 103.935C221.214 103.902 221.186 103.862 221.153 103.844C221.118 103.825 221.075 103.816 221.036 103.829L221 103.844C220.977 103.858 220.959 103.876 220.945 103.899C220.869 104 220.793 104.102 220.717 104.203C220.695 104.233 220.693 104.287 220.702 104.32C220.711 104.354 220.739 104.394 220.772 104.412C220.807 104.431 220.85 104.44 220.889 104.427L220.925 104.412C220.948 104.398 220.966 104.38 220.98 104.357Z" fill="#555A60"/>
<path d="M204.376 53.9752C204.017 52.1632 203.811 50.3261 203.759 48.4852C203.752 48.25 203.749 48.0095 203.823 47.785C203.897 47.5605 204.061 47.3512 204.296 47.2774C204.578 47.1891 204.883 47.3094 205.15 47.4357C206.849 48.2431 208.613 49.5156 209.774 50.9441C209.774 50.9441 207.905 51.6412 207.125 52.1571C206.345 52.6731 204.377 53.9752 204.377 53.9752H204.376Z" fill="#FAC985"/>
<path d="M230.99 53.9729C231.307 52.1533 231.472 50.3116 231.482 48.4699C231.483 48.2347 231.481 47.9942 231.402 47.772C231.323 47.5498 231.154 47.3435 230.917 47.275C230.633 47.1929 230.331 47.3199 230.068 47.4531C228.387 48.2994 226.173 49.6053 225.045 51.0604C225.045 51.0604 227.409 51.7202 228.201 52.2187C228.992 52.7164 230.99 53.9737 230.99 53.9737V53.9729Z" fill="#FAC985"/>
<path d="M201.168 65.0208C199.348 64.5695 197.479 64.3518 195.603 64.3769C195.201 64.3823 195.199 65.0101 195.603 65.0048C197.425 64.9804 199.232 65.1875 201.001 65.6266C201.392 65.7232 201.559 65.1182 201.168 65.0208H201.168Z" fill="#555A60"/>
<path d="M201.132 67.8877C199.212 67.9851 197.347 68.4379 195.59 69.221C195.36 69.3238 195.414 69.6464 195.59 69.7629L195.708 69.8413C196.045 70.065 196.359 69.5216 196.024 69.2994L195.906 69.221V69.7629C197.556 69.027 199.329 68.6076 201.132 68.5156C201.532 68.495 201.535 67.8672 201.132 67.8877H201.132Z" fill="#555A60"/>
<path d="M233.339 66.297C235.667 66.0192 238.014 65.9796 240.35 66.1775C240.751 66.2117 240.749 65.5831 240.35 65.5496C238.014 65.3518 235.667 65.3906 233.339 65.6691C232.944 65.7163 232.939 66.3449 233.339 66.297Z" fill="#555A60"/>
<path d="M232.634 69.1273C234.87 69.3807 237.075 69.9561 239.135 70.8708L239.21 70.297C239.158 70.3191 239.105 70.3419 239.052 70.364C238.686 70.5185 238.847 71.1265 239.218 70.9698C239.271 70.9477 239.324 70.9248 239.376 70.9028C239.589 70.813 239.729 70.4522 239.451 70.329C237.282 69.3663 234.99 68.7673 232.634 68.4994C232.235 68.4538 232.238 69.0824 232.634 69.1273H232.634Z" fill="#555A60"/>
<path d="M222.814 67.1595C223.692 67.1595 224.403 66.2446 224.403 65.1161C224.403 63.9876 223.692 63.0728 222.814 63.0728C221.936 63.0728 221.225 63.9876 221.225 65.1161C221.225 66.2446 221.936 67.1595 222.814 67.1595Z" fill="#555A60"/>
<path d="M211.713 67.1741C212.579 67.0293 213.13 66.0095 212.945 64.8964C212.76 63.7833 211.908 62.9983 211.042 63.1431C210.176 63.2879 209.625 64.3077 209.81 65.4208C209.995 66.5339 210.847 67.3189 211.713 67.1741Z" fill="#555A60"/>
<path d="M215.49 67.1929C215.452 67.8078 216.124 68.6259 217.049 68.6845C217.974 68.7431 218.73 67.9752 218.768 67.3603C218.806 66.7454 218.1 66.3656 217.175 66.3078C216.25 66.25 215.529 66.5787 215.49 67.1936V67.1929Z" fill="#555A60"/>
<path d="M216.897 68.1588C216.921 68.7227 216.902 69.2866 216.926 69.8505C216.944 70.2531 217.57 70.2554 217.553 69.8505C217.528 69.2866 217.547 68.7227 217.523 68.1588C217.506 67.7562 216.879 67.7539 216.897 68.1588Z" fill="#555A60"/>
<path d="M204.831 76.4272C202.408 74.9242 200.655 72.5148 199.769 69.8245C199.156 67.9615 198.947 66.0468 199.161 64.097C199.353 62.3413 199.784 60.6107 200.365 58.9456C200.726 57.9129 201.145 56.8976 201.642 55.9228C201.715 55.7797 201.831 55.6244 201.875 55.4669C201.929 55.2683 201.865 54.9897 201.856 54.782C201.844 54.5324 201.835 54.2835 201.825 54.0339C201.805 53.4639 201.79 52.8938 201.778 52.3231C201.754 51.2599 201.738 50.196 201.705 49.1328C201.677 48.228 201.579 47.3132 201.619 46.4076C201.649 45.7173 201.788 44.8764 202.408 44.4624C203.027 44.0484 203.928 44.2782 204.575 44.4555C206.394 44.9548 207.985 46.2447 209.41 47.4304C210.2 48.0879 210.944 48.798 211.636 49.559C211.842 49.7866 212.045 50.0187 212.241 50.2561C212.301 50.3292 212.36 50.403 212.42 50.4776C212.479 50.5522 212.437 50.4989 212.453 50.5202C212.533 50.626 212.666 50.7143 212.807 50.6648C213.892 50.2812 215.112 50.1564 216.252 50.0773C217.716 49.9753 219.174 50.1115 220.599 50.4684C221.007 50.5704 221.413 50.6884 221.809 50.8307C222.016 50.9045 222.158 50.9684 222.354 50.82C222.864 50.4334 223.292 49.8687 223.743 49.4159C224.673 48.4844 225.63 47.578 226.637 46.7302C227.77 45.7767 229.016 44.747 230.461 44.333C230.988 44.1815 231.6 44.0902 232.13 44.2851C232.614 44.4631 233.012 44.9677 233.262 45.4007C233.867 46.4494 233.628 47.8657 233.578 49.0263C233.493 50.9996 233.364 52.9715 233.207 54.9403C233.199 55.046 233.273 55.1617 233.362 55.2112C234.122 55.6305 234.754 56.6891 235.195 57.4501C236.261 59.2896 236.891 61.3611 237.159 63.4669C237.357 65.0255 237.265 66.5148 236.959 68.0536C236.606 69.8291 236.091 71.6076 235.326 73.2507C234.902 74.1617 234.387 75.0163 233.614 75.6738C233.356 75.8938 233.072 76.0848 232.771 76.2393C232.672 76.2903 232.571 76.3375 232.466 76.374C232.429 76.3869 232.224 76.4333 232.327 76.4212C231.932 76.4683 231.927 77.097 232.327 77.049C232.776 76.9957 233.213 76.7378 233.578 76.4859C234.323 75.9729 234.932 75.2819 235.386 74.5018C236.348 72.8496 236.938 70.941 237.374 69.0886C237.759 67.4539 238.005 65.7987 237.856 64.1191C237.667 61.9867 237.135 59.8527 236.17 57.9364C235.704 57.0095 235.153 56.097 234.445 55.333C234.223 55.0925 233.969 54.8299 233.679 54.6693L233.833 54.9403C233.975 53.1602 234.093 51.3779 234.179 49.594C234.208 48.9928 234.233 48.3916 234.249 47.7896C234.265 47.1541 234.306 46.505 234.138 45.8847C233.859 44.8543 233.015 43.7577 231.912 43.5872C230.51 43.3711 229.106 44.1169 227.996 44.8908C226.799 45.7264 225.688 46.6876 224.624 47.6861C223.832 48.4281 223.071 49.1998 222.313 49.976C222.221 50.0712 222.13 50.1671 222.035 50.2592C222.011 50.282 221.972 50.3071 221.956 50.3353C221.95 50.3459 221.925 50.3543 221.922 50.3657C221.939 50.3139 222.182 50.2873 222.19 50.3033C222.138 50.1876 221.549 50.0803 221.437 50.0461C219.922 49.5864 218.317 49.3566 216.734 49.4205C215.39 49.4753 213.919 49.6062 212.64 50.0575L212.994 50.2021C212.211 49.164 211.279 48.2219 210.303 47.368C208.936 46.1709 207.423 44.9479 205.75 44.2074C204.524 43.6648 202.568 43.1199 201.596 44.3787C201.132 44.9784 201.01 45.7713 200.989 46.5111C200.959 47.505 201.062 48.5095 201.09 49.5034C201.121 50.6161 201.136 51.7287 201.164 52.8406C201.177 53.387 201.194 53.9334 201.217 54.4798C201.223 54.6298 201.23 54.7797 201.236 54.9296C201.236 54.9273 201.285 55.3314 201.302 55.2234C201.299 55.2393 201.28 55.2546 201.276 55.2706C201.196 55.5354 200.997 55.8078 200.877 56.0575C200.631 56.5727 200.404 57.0963 200.191 57.6267C198.812 61.0711 197.947 64.9608 198.79 68.6404C199.565 72.0292 201.53 75.1152 204.514 76.9661C204.858 77.1792 205.173 76.6365 204.83 76.4242L204.831 76.4272Z" fill="#555A60"/>
<path d="M214.695 70.8075C215.58 71.435 216.955 71.2094 217.397 70.0536C217.559 69.6297 217 69.2603 216.837 69.6885C216.53 70.4907 215.637 70.6188 215.022 70.1826C214.668 69.9325 214.342 70.5582 214.695 70.8075Z" fill="#555A60"/>
<path d="M219.476 70.2679C218.843 70.6347 217.84 70.5723 217.495 69.8394C217.324 69.4741 216.784 69.7923 216.955 70.156C217.445 71.1986 218.884 71.3364 219.791 70.8098C220.14 70.6073 219.825 70.0647 219.476 70.2679Z" fill="#555A60"/>
<path opacity="0.5" d="M235.904 103.542H199.132C197.098 103.542 195.449 105.195 195.449 107.235V107.437C195.449 109.476 197.098 111.129 199.132 111.129H235.904C237.938 111.129 239.587 109.476 239.587 107.437V107.235C239.587 105.195 237.938 103.542 235.904 103.542Z" fill="#5E331A"/>
<path d="M233.419 76.7527L232.535 77.1203L233.343 77.8813L234.789 79.6523L241.504 79.3646L238.216 76.6035L233.419 76.7527Z" fill="#BA8E5C"/>
<path d="M195.191 79.2928L199.15 76.1222L204.784 76.0796L204.557 76.967L205.465 76.4106L203.022 79.2928L202.373 79.1718L195.191 79.2928Z" fill="#BA8E5C"/>
<path d="M238.413 109.862H197.17C196.563 109.862 196.07 109.367 196.07 108.757V79.8232H239.369L239.513 108.752C239.516 109.364 239.023 109.863 238.414 109.863L238.413 109.862Z" fill="#E9C294" stroke="#555A60" stroke-width="0.530295" stroke-linecap="round" stroke-linejoin="round"/>
<path d="M198.254 90.9397C203.39 90.9397 208.526 90.9397 213.662 90.9397C218.798 90.9397 223.983 90.9397 229.145 90.9397C232.04 90.9397 234.935 90.9397 237.83 90.9397C238.484 90.9397 239.11 90.3621 239.08 89.684C239.049 89.0059 238.531 88.4282 237.83 88.4282C232.694 88.4282 227.559 88.4282 222.423 88.4282C217.287 88.4282 212.101 88.4282 206.94 88.4282C204.045 88.4282 201.15 88.4282 198.254 88.4282C197.601 88.4282 196.975 89.0059 197.005 89.684C197.035 90.3621 197.554 90.9397 198.254 90.9397Z" fill="#B18F7B"/>
<path d="M233.434 76.425L237.903 76.4578L241.914 79.4426L194.383 79.521L199.247 76.1724L202.782 76.1982" stroke="#555A60" stroke-width="0.454539" stroke-linecap="round" stroke-linejoin="round"/>
<path d="M217.636 100.298C217.173 100.298 216.797 99.9201 216.797 99.4543V99.2534C216.797 97.3652 219.143 96.9634 219.143 95.4633C219.143 94.7799 218.783 94.3918 217.97 94.3918C217.311 94.3918 216.858 94.7357 216.54 95.4854C216.363 95.9002 215.904 96.1148 215.482 95.9633L215.09 95.8233C214.655 95.6673 214.432 95.1878 214.578 94.7472C215.024 93.4001 216.086 92.3696 217.97 92.3696C219.716 92.3696 221.382 93.2669 221.382 95.4763C221.382 98.0616 219.036 98.5304 219.036 99.28V99.4543C219.036 99.9201 218.66 100.298 218.197 100.298H217.636ZM216.704 102.574C216.704 101.824 217.13 101.302 217.943 101.302C218.755 101.302 219.182 101.824 219.182 102.574C219.182 103.323 218.755 103.846 217.943 103.846C217.13 103.846 216.704 103.324 216.704 102.574Z" fill="#B1724E"/>
<path d="M190.783 89.4687H246.056C246.498 89.4687 246.783 88.9991 246.582 88.6042L242.084 79.8048C241.982 79.607 241.779 79.4822 241.557 79.4829L194.748 79.5476C194.517 79.5476 194.307 79.6838 194.212 79.8946L190.245 88.6285C190.067 89.0212 190.353 89.468 190.782 89.468L190.783 89.4687Z" fill="#EAC294" stroke="#555A60" stroke-width="0.454539" stroke-linecap="round" stroke-linejoin="round"/>
<path d="M201.73 81.8811C202.616 83.2647 204.256 84.0912 205.893 84.0965C207.53 84.1018 209.13 83.3256 210.237 82.114C210.914 81.3735 211.425 80.4579 211.576 79.464C211.726 78.47 211.49 77.3992 210.84 76.6359C209.976 75.6229 208.545 75.2919 207.218 75.3124C205.358 75.3406 202.678 76.2409 201.722 77.4776C200.766 78.7143 200.845 80.4975 201.73 81.8811Z" fill="white"/>
<path d="M201.453 81.9882C202.684 83.8551 204.999 84.6975 207.153 84.2173C209.342 83.7287 211.434 81.8953 211.849 79.6205C212.026 78.6487 211.945 77.6296 211.383 76.794C210.818 75.953 209.975 75.4089 209.004 75.1524C207.027 74.6295 204.759 75.1219 202.978 76.0588C202.011 76.568 201.223 77.2864 200.887 78.3587C200.504 79.5802 200.791 80.9219 201.453 81.9889C201.666 82.3307 202.207 82.0163 201.992 81.6723C201.455 80.807 201.185 79.756 201.428 78.7461C201.633 77.8968 202.167 77.2795 202.894 76.829C204.339 75.9348 206.206 75.4591 207.899 75.5984C209.592 75.7376 211.34 76.832 211.313 78.7621C211.283 80.8466 209.661 82.6526 207.787 83.3718C205.721 84.1656 203.246 83.575 201.993 81.6723C201.772 81.3367 201.231 81.651 201.454 81.9889L201.453 81.9882Z" fill="#555A60"/>
<path d="M224.864 80.2401C225.046 78.6053 226.15 77.1319 227.613 76.396C229.077 75.66 230.854 75.641 232.381 76.2316C233.315 76.5923 234.177 77.1844 234.752 78.0071C235.327 78.8298 235.589 79.8953 235.344 80.8695C235.018 82.1625 233.883 83.0986 232.685 83.6732C231.007 84.4784 228.208 84.8696 226.804 84.1884C225.4 83.5073 224.682 81.8748 224.864 80.2401H224.864Z" fill="white"/>
<path d="M225.295 79.1402C225.98 77.3342 227.792 76.137 229.695 76.0906C231.598 76.0442 233.76 77.1203 234.682 78.9134C235.185 79.8906 235.261 81.1288 234.704 82.1014C234.239 82.9142 233.405 83.4409 232.544 83.7484C230.949 84.3184 229.065 84.2978 227.448 83.8176C226.566 83.5558 225.826 83.0931 225.394 82.2521C224.897 81.2871 224.941 80.1425 225.294 79.1402C225.428 78.7581 224.825 78.5945 224.691 78.9735C224.023 80.8723 224.54 83.2316 226.484 84.1243C228.242 84.9326 230.546 85.014 232.387 84.4592C233.386 84.1586 234.356 83.6342 234.996 82.7871C235.706 81.848 235.872 80.6014 235.567 79.4758C234.961 77.2413 232.69 75.755 230.491 75.5C228.021 75.2139 225.584 76.6249 224.692 78.9735C224.549 79.351 225.153 79.5146 225.295 79.1402Z" fill="#555A60"/>
<path d="M205.008 81.5209C205.042 82.1808 205.076 82.8414 205.109 83.5012C205.136 84.037 205.969 84.0408 205.942 83.5012C205.909 82.8414 205.875 82.1808 205.841 81.5209C205.814 80.9852 204.981 80.9814 205.008 81.5209Z" fill="#555A60"/>
<path d="M207.975 81.1432C208.045 81.6973 208.114 82.2505 208.184 82.8046C208.213 83.0306 208.355 83.2209 208.6 83.2232C208.803 83.2255 209.045 83.0291 209.017 82.8046C208.947 82.2505 208.878 81.6973 208.808 81.1432C208.779 80.9172 208.637 80.7269 208.391 80.7246C208.188 80.7223 207.947 80.9187 207.975 81.1432Z" fill="#555A60"/>
<path d="M228.34 81.3785C228.145 82.1761 227.949 82.9744 227.754 83.772C227.626 84.2948 228.429 84.5186 228.557 83.9942C228.753 83.1966 228.948 82.3983 229.144 81.6007C229.272 81.0779 228.469 80.8541 228.34 81.3785Z" fill="#555A60"/>
<path d="M231.321 81.788C231.117 82.4988 230.913 83.2097 230.71 83.9197C230.561 84.4388 231.365 84.6595 231.513 84.1419C231.717 83.4311 231.92 82.7203 232.124 82.0102C232.273 81.4912 231.469 81.2705 231.321 81.788Z" fill="#555A60"/>
</g>
<g filter="url(#filter0_d_2726_307914)">
<rect x="83.3086" y="97.1519" width="212.831" height="148.244" rx="7.38142" fill="white"/>
<path d="M169.153 120.508C169.6 120.508 170.001 120.579 170.355 120.72C170.712 120.861 170.991 121.061 171.193 121.318C171.394 121.575 171.495 121.871 171.495 122.204C171.495 122.512 171.412 122.787 171.245 123.028C171.08 123.269 170.85 123.464 170.553 123.612C170.259 123.758 169.919 123.85 169.535 123.89V125.04H172.037V125.673H166.296V125.04H168.77V123.89C168.388 123.85 168.05 123.758 167.755 123.612C167.461 123.464 167.232 123.269 167.067 123.028C166.903 122.787 166.822 122.512 166.824 122.204C166.822 121.871 166.92 121.575 167.119 121.318C167.321 121.061 167.599 120.861 167.953 120.72C168.308 120.579 168.708 120.508 169.153 120.508ZM169.153 121.134C168.847 121.131 168.574 121.174 168.336 121.262C168.097 121.348 167.911 121.473 167.776 121.638C167.644 121.8 167.579 121.989 167.582 122.204C167.579 122.427 167.644 122.62 167.776 122.785C167.911 122.947 168.097 123.072 168.336 123.16C168.574 123.246 168.847 123.289 169.153 123.289C169.463 123.289 169.738 123.246 169.976 123.16C170.217 123.072 170.404 122.947 170.536 122.785C170.67 122.62 170.737 122.427 170.737 122.204C170.737 121.986 170.67 121.796 170.536 121.634C170.401 121.472 170.214 121.348 169.973 121.262C169.734 121.174 169.461 121.131 169.153 121.134ZM177.522 122.128H173.184V120.237H173.942V121.509H177.522V122.128ZM178.182 123.226H172.44V122.607H178.182V123.226ZM177.48 125.27H173.907V125.756H177.689V126.361H173.129V124.707H176.715V124.262H173.122V123.664H177.48V125.27ZM180.636 120.591C180.963 120.589 181.257 120.653 181.519 120.783C181.783 120.91 181.989 121.09 182.137 121.321C182.288 121.553 182.365 121.815 182.367 122.107C182.365 122.401 182.288 122.664 182.137 122.896C181.989 123.128 181.784 123.308 181.522 123.438C181.26 123.565 180.965 123.629 180.636 123.629C180.309 123.629 180.015 123.564 179.753 123.435C179.491 123.305 179.285 123.125 179.135 122.896C178.986 122.664 178.912 122.401 178.912 122.107C178.912 121.815 178.986 121.553 179.135 121.321C179.285 121.09 179.491 120.91 179.753 120.783C180.017 120.653 180.312 120.589 180.636 120.591ZM180.636 121.259C180.453 121.259 180.288 121.294 180.142 121.363C179.996 121.433 179.882 121.532 179.798 121.662C179.717 121.789 179.677 121.938 179.677 122.107C179.677 122.278 179.717 122.429 179.798 122.559C179.882 122.686 179.996 122.785 180.142 122.854C180.288 122.921 180.453 122.955 180.636 122.955C180.821 122.955 180.987 122.921 181.133 122.854C181.281 122.785 181.397 122.686 181.481 122.559C181.566 122.429 181.609 122.278 181.609 122.107C181.609 121.938 181.566 121.789 181.481 121.662C181.397 121.532 181.281 121.433 181.133 121.363C180.987 121.294 180.821 121.259 180.636 121.259ZM183.834 126.444H183.062V120.154H183.834V126.444ZM178.627 124.498C179.396 124.498 180.115 124.485 180.782 124.46C181.452 124.432 182.087 124.375 182.687 124.29L182.749 124.853C182.128 124.973 181.497 125.05 180.855 125.082C180.215 125.114 179.505 125.131 178.724 125.131L178.627 124.498ZM191.814 124.825H191.077V122.607H190.423V124.679H189.7V120.279H190.423V121.975H191.077V120.161H191.814V124.825ZM191.987 126.312H187.608V124.387H188.38V125.687H191.987V126.312ZM189.089 122.58H187.455V123.323C187.838 123.319 188.177 123.305 188.474 123.282C188.77 123.256 189.073 123.214 189.381 123.157L189.45 123.775C189.091 123.838 188.739 123.881 188.394 123.904C188.048 123.925 187.629 123.935 187.135 123.935H186.704V121.996H188.345V121.287H186.698V120.675H189.089V122.58ZM195.797 121.148H193.704V122.92C194.256 122.916 194.705 122.902 195.053 122.878C195.403 122.853 195.75 122.807 196.096 122.739L196.172 123.358C195.785 123.437 195.39 123.49 194.987 123.518C194.586 123.546 194.064 123.56 193.419 123.56H192.933V120.529H195.797V121.148ZM197.854 123.782H197.083V122.26H195.47V121.634H197.083V120.154H197.854V123.782ZM197.854 126.354H193.677V124.067H197.854V126.354ZM194.448 125.735H197.097V124.679H194.448V125.735ZM203.756 124.908H200.767V120.744H203.756V124.908ZM201.532 124.29H203.005V121.349H201.532V124.29ZM205.661 126.444H204.882V120.154H205.661V126.444ZM208.872 121.266C208.872 121.565 208.928 121.853 209.039 122.131C209.15 122.409 209.315 122.658 209.532 122.878C209.753 123.096 210.019 123.263 210.332 123.379L209.901 123.977C209.572 123.847 209.287 123.658 209.046 123.41C208.807 123.162 208.621 122.872 208.486 122.538C208.35 122.892 208.154 123.202 207.899 123.466C207.646 123.728 207.343 123.928 206.988 124.067L206.571 123.455C206.896 123.337 207.171 123.167 207.398 122.945C207.628 122.722 207.8 122.466 207.916 122.176C208.032 121.887 208.091 121.583 208.093 121.266V120.515H208.872V121.266ZM211.847 124.825H211.076V122.878H209.929V122.26H211.076V121.641H209.929V121.016H211.076V120.161H211.847V124.825ZM211.986 126.312H207.704V124.366H208.49V125.687H211.986V126.312Z" fill="#2E3135"/>
<path d="M168.51 135.087H165.19V133.179H168.443V133.541H165.634V134.736H168.51V135.087ZM169.088 136.099H167.025V137.812H166.597V136.099H164.561V135.743H169.088V136.099ZM173.42 133.569C173.42 133.86 173.412 134.124 173.398 134.361C173.383 134.596 173.347 134.862 173.289 135.159H174.015V135.526H169.488V135.159H172.853C172.912 134.857 172.949 134.589 172.964 134.356C172.979 134.122 172.986 133.86 172.986 133.569V133.541H170.061V133.185H173.42V133.569ZM173.57 137.717H170.089V136.082H170.523V137.35H173.57V137.717ZM178.353 135.087H175.033V133.179H178.286V133.541H175.477V134.736H178.353V135.087ZM178.931 136.099H176.868V137.812H176.44V136.099H174.404V135.743H178.931V136.099ZM183.263 133.569C183.263 133.86 183.255 134.124 183.241 134.361C183.226 134.596 183.19 134.862 183.132 135.159H183.858V135.526H179.331V135.159H182.696C182.755 134.857 182.792 134.589 182.807 134.356C182.822 134.122 182.829 133.86 182.829 133.569V133.541H179.904V133.185H183.263V133.569ZM183.413 137.717H179.932V136.082H180.366V137.35H183.413V137.717ZM189.775 137.834H189.33V136.616H188.19V136.271H189.33V132.89H189.775V137.834ZM185.66 135.509C186.327 135.506 186.922 135.496 187.445 135.482C187.968 135.465 188.468 135.432 188.946 135.382L188.974 135.71C188.518 135.769 188.021 135.813 187.484 135.84V137.678H187.044V135.86C186.629 135.875 186.188 135.882 185.721 135.882L185.66 135.509ZM188.512 134.942H186.099V133.168H188.512V134.942ZM186.527 134.581H188.084V133.524H186.527V134.581ZM194.429 134.898H195.23V135.265H194.429V137.828H193.996V132.885H194.429V134.898ZM193.15 133.418C193.15 134.154 192.966 134.822 192.597 135.42C192.228 136.017 191.656 136.507 190.881 136.889L190.637 136.544C191.273 136.227 191.765 135.836 192.113 135.37C192.462 134.903 192.661 134.375 192.711 133.786H190.865V133.418H193.15ZM201.581 135.226H200.78V137.828H200.346V132.885H200.78V134.859H201.581V135.226ZM197.594 136.205C197.981 136.203 198.36 136.184 198.731 136.149C199.102 136.114 199.481 136.056 199.868 135.977L199.924 136.349C199.521 136.431 199.128 136.488 198.742 136.522C198.358 136.555 197.962 136.572 197.555 136.572H197.16V133.374H197.594V136.205ZM204.128 132.946C204.495 132.946 204.809 132.979 205.07 133.046C205.332 133.113 205.531 133.21 205.668 133.338C205.805 133.466 205.874 133.621 205.874 133.802C205.874 134.06 205.74 134.262 205.471 134.408C205.204 134.555 204.825 134.638 204.334 134.659V135.037H206.38V135.393H201.876V135.037H203.905V134.659C203.418 134.638 203.041 134.555 202.774 134.408C202.509 134.26 202.376 134.058 202.376 133.802C202.376 133.621 202.445 133.466 202.582 133.338C202.721 133.21 202.921 133.113 203.182 133.046C203.446 132.979 203.761 132.946 204.128 132.946ZM204.128 133.279C203.714 133.283 203.395 133.33 203.169 133.421C202.942 133.512 202.83 133.639 202.832 133.802C202.83 133.971 202.941 134.101 203.166 134.191C203.392 134.28 203.713 134.327 204.128 134.33C204.541 134.327 204.861 134.28 205.087 134.191C205.315 134.101 205.429 133.971 205.429 133.802C205.429 133.639 205.314 133.512 205.084 133.421C204.856 133.33 204.537 133.283 204.128 133.279ZM205.802 136.916H202.865V137.428H205.952V137.773H202.432V136.594H205.373V136.149H202.421V135.81H205.802V136.916ZM210.712 134.926H211.463V135.293H210.712V137.828H210.273V132.885H210.712V134.926ZM208.299 133.424C208.295 134.069 208.204 134.667 208.026 135.217C207.85 135.766 207.552 136.264 207.131 136.711L206.78 136.46C207.138 136.095 207.404 135.69 207.578 135.245C207.753 134.799 207.855 134.314 207.884 133.791H206.936V133.424H208.299ZM209.655 133.424C209.652 134.128 209.572 134.785 209.416 135.393C209.261 135.999 208.973 136.547 208.554 137.039L208.198 136.794C208.556 136.39 208.814 135.934 208.971 135.426C209.131 134.918 209.222 134.373 209.244 133.791H208.454V133.424H209.655ZM212.508 136.216C212.51 135.977 212.534 135.783 212.581 135.635C212.629 135.486 212.695 135.367 212.781 135.276C212.866 135.185 212.981 135.096 213.126 135.009C213.248 134.935 213.346 134.841 213.42 134.728C213.494 134.613 213.531 134.482 213.531 134.336C213.531 134.214 213.502 134.106 213.442 134.014C213.385 133.919 213.305 133.847 213.203 133.797C213.103 133.745 212.992 133.719 212.87 133.719C212.758 133.719 212.654 133.742 212.556 133.788C212.459 133.833 212.378 133.904 212.314 134.002C212.251 134.099 212.214 134.219 212.202 134.364H211.696C211.706 134.145 211.763 133.955 211.869 133.794C211.974 133.633 212.114 133.509 212.289 133.424C212.463 133.339 212.657 133.296 212.87 133.296C213.098 133.296 213.299 133.342 213.473 133.435C213.647 133.526 213.782 133.652 213.876 133.813C213.973 133.975 214.021 134.156 214.021 134.358C214.021 134.768 213.837 135.085 213.47 135.309C213.352 135.382 213.258 135.457 213.189 135.534C213.123 135.612 213.073 135.705 213.039 135.813C213.008 135.92 212.99 136.054 212.986 136.216V136.243H212.508V136.216ZM212.764 137.411C212.699 137.411 212.639 137.396 212.583 137.364C212.53 137.331 212.486 137.286 212.453 137.231C212.421 137.175 212.406 137.115 212.408 137.05C212.406 136.987 212.421 136.928 212.453 136.875C212.486 136.819 212.53 136.775 212.583 136.744C212.639 136.711 212.699 136.694 212.764 136.694C212.827 136.694 212.885 136.711 212.939 136.744C212.995 136.775 213.038 136.819 213.07 136.875C213.103 136.928 213.12 136.987 213.12 137.05C213.12 137.115 213.103 137.175 213.07 137.231C213.038 137.286 212.995 137.331 212.939 137.364C212.885 137.396 212.827 137.411 212.764 137.411Z" fill="#2E3135"/>
<g clip-path="url(#clip1_2726_307914)">
<path d="M265.829 146.674H112.79C109.743 146.674 107.273 149.144 107.273 152.19V204.152C107.273 207.199 109.743 209.669 112.79 209.669H265.829C268.876 209.669 271.345 207.199 271.345 204.152V152.19C271.345 149.144 268.876 146.674 265.829 146.674Z" fill="white"/>
<path d="M112.905 195.476C112.154 196.07 111.894 197.184 112.325 198.045C112.756 198.906 113.77 199.341 114.671 199.127C115.144 199.013 115.624 198.675 115.631 198.145C115.635 197.704 115.272 197.401 114.845 197.426C113.816 197.483 113.489 198.782 113.937 199.558C114.603 200.707 116.126 200.654 117.112 199.992C117.283 199.878 117.123 199.601 116.952 199.714C116.237 200.195 115.247 200.369 114.539 199.775C113.998 199.323 113.799 198.266 114.51 197.849C114.824 197.664 115.361 197.711 115.304 198.191C115.254 198.625 114.752 198.818 114.375 198.853C113.663 198.921 112.916 198.529 112.599 197.881C112.236 197.138 112.492 196.205 113.129 195.7C113.29 195.572 113.062 195.347 112.902 195.472L112.905 195.476Z" fill="#FEC84B"/>
<path d="M260.019 192.532C259.19 192.041 258.033 192.176 257.382 192.91C256.731 193.643 256.688 194.782 257.272 195.543C257.557 195.917 258.023 196.198 258.496 196.009C258.909 195.846 259.044 195.394 258.859 195.006C258.418 194.07 257.083 194.262 256.532 194.97C255.717 196.02 256.329 197.39 257.297 198.077C257.464 198.198 257.624 197.921 257.457 197.8C256.795 197.33 256.314 196.54 256.524 195.707C256.702 194.995 257.578 194.362 258.29 194.824C258.614 195.034 258.809 195.607 258.307 195.735C257.888 195.842 257.532 195.433 257.368 195.098C257.051 194.465 257.147 193.628 257.631 193.105C258.19 192.497 259.155 192.39 259.856 192.806C260.034 192.913 260.194 192.635 260.016 192.529L260.019 192.532Z" fill="#FEC84B"/>
<path d="M262.023 198.042L262.421 199.868L259.532 200.59L259.154 198.864C259.154 198.864 261.994 198.024 262.023 198.042Z" fill="#CBD9F8"/>
<path d="M116.358 178.396L118.949 179.855L116.618 183.987L114.166 182.606C114.166 182.606 116.301 178.41 116.355 178.396H116.358Z" fill="#44C7B4"/>
<path d="M131.221 152.489L130.423 155.355L125.854 154.087L126.604 151.375C126.604 151.375 131.189 152.44 131.217 152.489H131.221Z" fill="#CBD9F8"/>
<path d="M119.767 162.238L119.322 159.298L124.013 158.586L124.437 161.369C124.437 161.369 119.817 162.273 119.771 162.241L119.767 162.238Z" fill="#FFDB6D"/>
<path d="M119.775 196.924L121.21 195.896L122.793 198.223L121.437 199.195C121.437 199.195 119.772 196.956 119.775 196.924Z" fill="#ED83A6"/>
<path d="M259.33 156.511L261.348 154.173L265 157.479L263.092 159.693C263.092 159.693 259.337 156.572 259.334 156.515L259.33 156.511Z" fill="#44C7B4"/>
<path d="M263.027 185.368L264.635 186.582L262.639 189.098L261.119 187.952C261.119 187.952 262.991 185.375 263.027 185.372V185.368Z" fill="#ED83A6"/>
<path d="M114.568 155.711C115.354 155.711 115.992 155.073 115.992 154.287C115.992 153.501 115.354 152.863 114.568 152.863C113.782 152.863 113.145 153.501 113.145 154.287C113.145 155.073 113.782 155.711 114.568 155.711Z" fill="#D3D570"/>
<path d="M261.279 181.097C262.065 181.097 262.703 180.46 262.703 179.674C262.703 178.887 262.065 178.25 261.279 178.25C260.493 178.25 259.855 178.887 259.855 179.674C259.855 180.46 260.493 181.097 261.279 181.097Z" fill="#D3D570"/>
<path d="M252.976 154.048C253.763 154.048 254.4 153.411 254.4 152.625C254.4 151.839 253.763 151.201 252.976 151.201C252.19 151.201 251.553 151.839 251.553 152.625C251.553 153.411 252.19 154.048 252.976 154.048Z" fill="#FFDE54"/>
<path d="M126.153 202.131L129.249 199.938L129.854 204.078L130.459 208.217L126.754 206.27L123.053 204.327L126.153 202.131Z" fill="#7651FA"/>
<path d="M255.212 202.568L252.112 200.373L251.507 204.512L250.902 208.651L254.607 206.704L258.309 204.761L255.212 202.568Z" fill="#7651FA"/>
<path d="M115.394 165.594C116.508 165.775 117.017 166.911 116.49 167.904C116.241 168.373 115.732 168.676 115.195 168.541C114.896 168.466 114.536 168.16 114.775 167.836C114.914 167.647 115.195 167.576 115.416 167.565C116.458 167.516 117.142 168.722 117.199 169.63C117.263 170.672 116.622 171.566 115.779 172.117C115.608 172.231 115.768 172.509 115.939 172.395C116.843 171.804 117.537 170.858 117.519 169.74C117.505 168.747 116.889 167.58 115.875 167.302C115.472 167.192 114.971 167.242 114.64 167.516C114.337 167.768 114.294 168.178 114.529 168.491C114.835 168.897 115.44 168.975 115.896 168.822C116.352 168.669 116.661 168.327 116.843 167.904C117.33 166.758 116.736 165.491 115.48 165.284C115.277 165.252 115.191 165.558 115.394 165.594Z" fill="#97C6FF"/>
<path d="M122.298 183.371C123.024 183.834 123.992 184.578 123.686 185.574C123.355 186.66 121.793 186.322 121.775 185.24L121.615 185.4C122.458 185.393 123.27 185.98 123.434 186.83C123.515 187.25 123.419 187.699 123.209 188.069C123.042 188.361 122.547 188.945 122.145 188.845C121.974 188.902 121.925 188.831 121.989 188.631C121.907 188.464 121.928 188.389 122.053 188.404C122.142 188.364 122.277 188.414 122.369 188.446C122.572 188.517 122.761 188.667 122.9 188.827C123.17 189.137 123.313 189.564 123.266 189.973C123.174 190.849 122.227 191.375 121.416 191.151C121.216 191.098 121.131 191.407 121.33 191.461C122.224 191.706 123.256 191.208 123.53 190.297C123.79 189.439 123.263 188.339 122.362 188.108C122.042 188.026 121.611 188.094 121.487 188.443C121.352 188.827 121.718 189.169 122.085 189.187C123.074 189.226 123.772 188.026 123.786 187.165C123.8 185.994 122.757 185.072 121.619 185.079C121.533 185.079 121.458 185.151 121.458 185.24C121.476 186.414 122.921 187.048 123.733 186.133C124.117 185.702 124.128 185.069 123.914 184.553C123.64 183.891 123.042 183.464 122.458 183.09C122.284 182.98 122.124 183.257 122.298 183.367V183.371Z" fill="#7651FA"/>
<path d="M265.156 165.135C266.031 165.718 266.423 166.882 266.02 167.868C265.828 168.338 265.472 168.747 265.031 169C264.558 169.274 263.857 169.42 263.39 169.049C262.992 168.736 262.91 168.103 263.394 167.832C263.878 167.562 264.405 167.811 264.725 168.199C265.362 168.971 265.305 170.163 264.743 170.957C264.056 171.925 262.639 172.132 261.653 171.519C261.458 171.398 261.28 171.705 261.476 171.826C262.55 172.491 264.088 172.306 264.91 171.32C265.732 170.334 265.786 168.84 264.935 167.893C264.529 167.441 263.896 167.213 263.319 167.469C262.775 167.711 262.561 168.309 262.8 168.847C263.081 169.477 263.782 169.694 264.426 169.587C265.07 169.48 265.629 169.092 266.013 168.583C266.921 167.38 266.579 165.651 265.337 164.825C265.145 164.697 264.967 165.006 265.159 165.131L265.156 165.135Z" fill="#B1A2F9"/>
<path d="M126.036 205.445C127.05 204.615 128.064 203.786 129.079 202.957C129.296 202.779 129.278 202.384 129.079 202.202C128.847 201.992 128.556 202.014 128.324 202.202C127.31 203.032 126.296 203.861 125.281 204.69C125.064 204.868 125.082 205.263 125.281 205.445C125.513 205.655 125.804 205.633 126.036 205.445Z" fill="#7651FA"/>
<path d="M125.406 206.384C126.876 205.363 128.345 204.338 129.815 203.316C130.05 203.153 130.161 202.85 130.007 202.587C129.872 202.352 129.516 202.231 129.278 202.395C127.808 203.416 126.338 204.441 124.868 205.463C124.633 205.626 124.523 205.929 124.676 206.192C124.811 206.427 125.167 206.548 125.406 206.384Z" fill="white"/>
<path d="M251.532 204.003C252.991 204.978 254.45 205.95 255.913 206.925C256.151 207.085 256.504 206.971 256.643 206.733C256.796 206.47 256.692 206.163 256.45 206.003C254.991 205.028 253.532 204.056 252.069 203.081C251.831 202.921 251.478 203.035 251.34 203.273C251.187 203.537 251.29 203.843 251.532 204.003Z" fill="white"/>
</g>
<path d="M166.077 180.278C166.77 180.278 167.306 180.362 167.683 180.531C168.061 180.701 168.251 180.943 168.253 181.258C168.251 181.573 168.061 181.813 167.683 181.977C167.308 182.142 166.773 182.224 166.077 182.224C165.371 182.224 164.829 182.142 164.451 181.977C164.076 181.813 163.888 181.573 163.888 181.258C163.888 180.943 164.077 180.701 164.454 180.531C164.834 180.362 165.375 180.278 166.077 180.278ZM166.077 180.848C165.146 180.848 164.68 180.984 164.68 181.258C164.68 181.529 165.146 181.661 166.077 181.654C167.002 181.661 167.468 181.529 167.475 181.258C167.468 180.984 167.002 180.848 166.077 180.848ZM168.636 177.018H163.506V176.427H165.695V175.884H166.467V176.427H168.636V177.018ZM166.077 177.212C166.754 177.212 167.272 177.289 167.631 177.442C167.99 177.594 168.17 177.819 168.17 178.116C168.17 178.378 168.024 178.584 167.732 178.734C167.44 178.885 167.018 178.974 166.467 179.002V179.381H168.948V179.986H163.221V179.381H165.695V179.002C165.146 178.974 164.724 178.885 164.43 178.734C164.138 178.584 163.992 178.378 163.992 178.116C163.992 177.819 164.172 177.594 164.531 177.442C164.892 177.289 165.408 177.212 166.077 177.212ZM166.077 177.74C165.656 177.74 165.341 177.772 165.132 177.834C164.924 177.895 164.819 177.988 164.819 178.116C164.819 178.236 164.924 178.327 165.132 178.387C165.343 178.447 165.658 178.48 166.077 178.484C166.502 178.48 166.818 178.447 167.026 178.387C167.237 178.327 167.343 178.236 167.343 178.116C167.343 177.988 167.237 177.895 167.026 177.834C166.818 177.772 166.502 177.74 166.077 177.74ZM174.78 182.231H174.044V179.026H173.335V181.911H172.626V176.065H173.335V178.408H174.044V175.947H174.78V182.231ZM171.917 177.316H170.346V180.111C170.712 180.106 171.042 180.092 171.336 180.069C171.63 180.046 171.928 180.007 172.229 179.951L172.285 180.584C171.937 180.653 171.594 180.699 171.256 180.723C170.918 180.746 170.496 180.76 169.991 180.764H169.567V176.691H171.917V177.316ZM180.362 179.263H177.429V176.399H180.362V179.263ZM178.187 178.644H179.598V177.018H178.187V178.644ZM182.17 177.567H183.046V178.213H182.17V180.104H181.398V175.947H182.17V177.567ZM180.578 179.979C180.575 180.231 180.657 180.47 180.821 180.695C180.986 180.917 181.222 181.108 181.53 181.268C181.841 181.426 182.202 181.534 182.615 181.591L182.309 182.196C181.822 182.117 181.396 181.971 181.03 181.758C180.666 181.547 180.389 181.286 180.199 180.973C180.007 181.286 179.727 181.547 179.361 181.758C178.995 181.971 178.569 182.117 178.082 182.196L177.776 181.591C178.187 181.534 178.545 181.426 178.85 181.268C179.159 181.108 179.395 180.917 179.559 180.695C179.724 180.47 179.806 180.231 179.806 179.979V179.805H180.578V179.979ZM187.07 176.941H185.75C185.754 177.189 185.817 177.428 185.937 177.657C186.058 177.884 186.233 178.087 186.462 178.265C186.694 178.441 186.971 178.575 187.293 178.665L186.903 179.27C186.547 179.163 186.237 179.002 185.975 178.787C185.716 178.571 185.513 178.315 185.367 178.019C185.224 178.338 185.017 178.615 184.749 178.849C184.482 179.083 184.165 179.258 183.796 179.374L183.407 178.769C183.731 178.674 184.011 178.533 184.245 178.345C184.479 178.158 184.656 177.943 184.776 177.702C184.899 177.459 184.964 177.205 184.971 176.941H183.616V176.322H187.07V176.941ZM188.6 179.353H187.821V175.947H188.6V179.353ZM185.207 180.278H187.828V179.631H188.6V182.155H184.443V179.631H185.207V180.278ZM187.828 181.529V180.875H185.207V181.529H187.828ZM194.119 179.826C194.55 179.826 194.923 179.873 195.238 179.968C195.555 180.061 195.799 180.198 195.968 180.378C196.137 180.557 196.223 180.771 196.225 181.021C196.223 181.274 196.137 181.491 195.968 181.671C195.799 181.854 195.555 181.993 195.238 182.088C194.923 182.183 194.55 182.231 194.119 182.231C193.683 182.231 193.306 182.183 192.986 182.088C192.666 181.993 192.42 181.854 192.249 181.671C192.078 181.491 191.992 181.274 191.992 181.021C191.992 180.771 192.078 180.557 192.249 180.378C192.42 180.198 192.665 180.061 192.982 179.968C193.302 179.873 193.681 179.826 194.119 179.826ZM194.119 180.431C193.683 180.431 193.348 180.482 193.114 180.584C192.88 180.683 192.763 180.829 192.763 181.021C192.763 181.216 192.88 181.364 193.114 181.466C193.351 181.568 193.686 181.619 194.119 181.619C194.552 181.619 194.884 181.568 195.113 181.466C195.345 181.364 195.46 181.216 195.46 181.021C195.46 180.829 195.345 180.683 195.113 180.584C194.884 180.482 194.552 180.431 194.119 180.431ZM196.163 177.448H197.038V178.095H196.163V179.673H195.391V175.947H196.163V177.448ZM192.186 177.191H193.653V176.343H194.418V179.277H191.422V176.343H192.186V177.191ZM193.653 178.665V177.796H192.186V178.665H193.653ZM203.093 179.708H200.667V180.862H199.902V179.708H197.351V179.089H203.093V179.708ZM202.356 178.505H198.081V176.232H202.356V178.505ZM198.832 177.9H201.591V176.837H198.832V177.9ZM202.46 182.106H198.046V180.285H198.818V181.48H202.46V182.106ZM208.432 178.449H209.398V179.089H208.432V182.231H207.667V175.947H208.432V178.449ZM207.18 177.532H203.475V176.913H204.963V176.037H205.734V176.913H207.18V177.532ZM205.352 177.942C205.651 177.942 205.92 178.006 206.158 178.133C206.399 178.258 206.588 178.433 206.725 178.658C206.862 178.883 206.93 179.138 206.93 179.423C206.93 179.708 206.862 179.963 206.725 180.187C206.588 180.41 206.399 180.584 206.158 180.709C205.92 180.834 205.651 180.896 205.352 180.896C205.049 180.896 204.776 180.834 204.535 180.709C204.294 180.584 204.106 180.41 203.969 180.187C203.832 179.963 203.765 179.708 203.767 179.423C203.765 179.138 203.832 178.883 203.969 178.658C204.106 178.433 204.294 178.258 204.535 178.133C204.776 178.006 205.049 177.942 205.352 177.942ZM205.352 178.575C205.188 178.575 205.04 178.609 204.911 178.679C204.783 178.748 204.684 178.848 204.612 178.978C204.54 179.105 204.504 179.254 204.504 179.423C204.504 179.592 204.54 179.74 204.612 179.868C204.684 179.993 204.783 180.09 204.911 180.159C205.04 180.227 205.188 180.259 205.352 180.257C205.512 180.259 205.654 180.227 205.78 180.159C205.907 180.09 206.007 179.993 206.079 179.868C206.153 179.74 206.191 179.592 206.193 179.423C206.191 179.254 206.153 179.105 206.079 178.978C206.007 178.85 205.907 178.752 205.78 178.682C205.654 178.611 205.512 178.575 205.352 178.575ZM214.91 182.231H214.132V175.947H214.91V182.231ZM213.033 176.614C213.033 177.613 212.807 178.49 212.356 179.245C211.904 179.998 211.154 180.623 210.107 181.119L209.704 180.5C210.512 180.115 211.12 179.656 211.528 179.12C211.938 178.583 212.178 177.951 212.248 177.226H210.023V176.614H213.033Z" fill="#2E3135"/>
<rect x="148.379" y="216.965" width="81.8581" height="15.1181" rx="4.27085" fill="#FDB022"/>
<path d="M183.413 223.9H184.186V224.406H183.413V227.025H182.795V221.992H183.413V223.9ZM182.033 222.971H180.298V225.279C180.704 225.279 181.071 225.267 181.397 225.243C181.723 225.219 182.054 225.177 182.389 225.117L182.462 225.64C182.098 225.703 181.739 225.745 181.383 225.765C181.029 225.786 180.601 225.796 180.098 225.796H179.681V222.47H182.033V222.971ZM186.299 223.199C186.297 223.508 186.348 223.81 186.452 224.103C186.556 224.395 186.706 224.656 186.902 224.884C187.099 225.112 187.329 225.282 187.594 225.396L187.227 225.89C186.944 225.759 186.696 225.567 186.485 225.315C186.276 225.063 186.112 224.769 185.993 224.433C185.874 224.797 185.707 225.116 185.49 225.39C185.275 225.662 185.018 225.868 184.719 226.007L184.341 225.49C184.614 225.373 184.85 225.197 185.05 224.962C185.252 224.725 185.406 224.453 185.512 224.147C185.618 223.839 185.67 223.523 185.67 223.199V222.398H186.299V223.199ZM188.579 227.025H187.956V221.992H188.579V227.025ZM190.303 222.554H190.859V222.076H191.437V223.822H191.782V222.076H192.366V222.554H192.922V222.076H193.495V223.939H191.915V224.378H193.901V224.867H189.318V224.378H191.293V223.939H189.708V222.076H190.303V222.554ZM190.859 223.449V223.021H190.303V223.449H190.859ZM192.922 223.449V223.021H192.366V223.449H192.922ZM190.481 225.551H192.711V225.156H193.333V226.958H189.869V225.156H190.481V225.551ZM192.711 226.469V226.029H190.481V226.469H192.711ZM198.438 227.019H197.816V221.992H198.438V227.019ZM196.937 222.526C196.937 223.325 196.756 224.027 196.395 224.631C196.033 225.233 195.434 225.733 194.596 226.13L194.273 225.635C194.92 225.327 195.407 224.959 195.733 224.531C196.061 224.101 196.253 223.596 196.309 223.015H194.529V222.526H196.937Z" fill="#2E3135"/>
<path d="M282.971 110.32L277.988 115.303" stroke="#2E3135" stroke-width="0.711809" stroke-linecap="round" stroke-linejoin="round"/>
<path d="M277.988 110.32L282.971 115.303" stroke="#2E3135" stroke-width="0.711809" stroke-linecap="round" stroke-linejoin="round"/>
</g>
<rect x="19" y="131.567" width="305" height="136" fill="url(#paint0_linear_2726_307914)"/>
<defs>
<filter id="filter0_d_2726_307914" x="75.8867" y="89.73" width="227.674" height="163.087" filterUnits="userSpaceOnUse" color-interpolation-filters="sRGB">
<feFlood flood-opacity="0" result="BackgroundImageFix"/>
<feColorMatrix in="SourceAlpha" type="matrix" values="0 0 0 0 0 0 0 0 0 0 0 0 0 0 0 0 0 0 127 0" result="hardAlpha"/>
<feOffset/>
<feGaussianBlur stdDeviation="3.71093"/>
<feComposite in2="hardAlpha" operator="out"/>
<feColorMatrix type="matrix" values="0 0 0 0 0 0 0 0 0 0 0 0 0 0 0 0 0 0 0.12 0"/>
<feBlend mode="normal" in2="BackgroundImageFix" result="effect1_dropShadow_2726_307914"/>
<feBlend mode="normal" in="SourceGraphic" in2="effect1_dropShadow_2726_307914" result="shape"/>
</filter>
<linearGradient id="paint0_linear_2726_307914" x1="164.593" y1="187.052" x2="163.965" y2="247.81" gradientUnits="userSpaceOnUse">
<stop stop-color="#F8F9FA" stop-opacity="0"/>
<stop offset="1" stop-color="#F8F9FA"/>
</linearGradient>
<clipPath id="clip0_2726_307914">
<rect width="56.9096" height="67.5802" fill="white" transform="translate(189.965 43.5493)"/>
</clipPath>
<clipPath id="clip1_2726_307914">
<rect width="164.428" height="63.351" fill="white" transform="translate(107.094 146.496)"/>
</clipPath>
</defs>
</svg>
