<svg width="713" height="353" viewBox="0 0 713 353" fill="none" xmlns="http://www.w3.org/2000/svg">
<rect width="713" height="353" fill="#F8F9FA"/>
<rect x="99.5" y="18.5" width="391" height="213.757" rx="12" fill="white"/>
<path d="M128.872 45.9697C129.828 45.9697 130.685 46.1208 131.443 46.4229C132.205 46.725 132.802 47.1509 133.233 47.7006C133.664 48.2503 133.879 48.8818 133.879 49.5949C133.879 50.2536 133.701 50.8405 133.345 51.3555C132.993 51.8706 132.5 52.2866 131.866 52.6036C131.237 52.9156 130.512 53.1137 129.69 53.1979V55.6568H135.038V57.0088H122.766V55.6568H128.055V53.1979C127.238 53.1137 126.515 52.9156 125.886 52.6036C125.257 52.2866 124.767 51.8706 124.415 51.3555C124.064 50.8405 123.89 50.2536 123.895 49.5949C123.89 48.8818 124.101 48.2503 124.527 47.7006C124.958 47.1509 125.552 46.725 126.31 46.4229C127.067 46.1208 127.922 45.9697 128.872 45.9697ZM128.872 47.3069C128.219 47.3019 127.637 47.3936 127.127 47.5818C126.617 47.765 126.218 48.0324 125.931 48.3841C125.648 48.7307 125.51 49.1344 125.515 49.5949C125.51 50.0704 125.648 50.4839 125.931 50.8355C126.218 51.1822 126.617 51.4496 127.127 51.6378C127.637 51.8211 128.219 51.9127 128.872 51.9127C129.536 51.9127 130.123 51.8211 130.633 51.6378C131.148 51.4496 131.547 51.1822 131.829 50.8355C132.116 50.4839 132.26 50.0704 132.26 49.5949C132.26 49.1294 132.116 48.7233 131.829 48.3766C131.542 48.03 131.141 47.765 130.626 47.5818C130.116 47.3936 129.531 47.3019 128.872 47.3069ZM146.761 49.4315H137.49V45.3903H139.109V48.1092H146.761V49.4315ZM148.172 51.779H135.9V50.4567H148.172V51.779ZM146.672 56.1471H139.035V57.1871H147.117V58.4797H137.371V54.9436H145.037V53.9927H137.356V52.715H146.672V56.1471ZM153.417 46.148C154.115 46.1431 154.744 46.2793 155.304 46.5566C155.868 46.829 156.309 47.2128 156.626 47.708C156.948 48.2033 157.111 48.7629 157.116 49.3869C157.111 50.0159 156.948 50.578 156.626 51.0733C156.309 51.5685 155.871 51.9548 155.311 52.2321C154.752 52.5045 154.12 52.6407 153.417 52.6407C152.719 52.6407 152.09 52.502 151.53 52.2247C150.97 51.9474 150.53 51.5635 150.208 51.0733C149.891 50.578 149.732 50.0159 149.732 49.3869C149.732 48.7629 149.891 48.2033 150.208 47.708C150.53 47.2128 150.97 46.829 151.53 46.5566C152.095 46.2793 152.724 46.1431 153.417 46.148ZM153.417 47.5743C153.026 47.5743 152.674 47.6486 152.362 47.7972C152.05 47.9458 151.805 48.1587 151.627 48.4361C151.453 48.7084 151.367 49.0254 151.367 49.3869C151.367 49.7534 151.453 50.0753 151.627 50.3527C151.805 50.6251 152.05 50.8355 152.362 50.9841C152.674 51.1277 153.026 51.1995 153.417 51.1995C153.813 51.1995 154.167 51.1277 154.479 50.9841C154.796 50.8355 155.044 50.6251 155.222 50.3527C155.405 50.0753 155.497 49.7534 155.497 49.3869C155.497 49.0254 155.405 48.7084 155.222 48.4361C155.044 48.1587 154.796 47.9458 154.479 47.7972C154.167 47.6486 153.813 47.5743 153.417 47.5743ZM160.251 58.658H158.602V45.212H160.251V58.658ZM149.123 54.4979C150.767 54.4979 152.303 54.4707 153.729 54.4162C155.16 54.3567 156.517 54.2354 157.8 54.0522L157.934 55.2556C156.606 55.5131 155.257 55.6766 153.885 55.7459C152.518 55.8152 151 55.8499 149.331 55.8499L149.123 54.4979ZM177.308 55.1962H175.733V50.4567H174.336V54.8842H172.791V45.4794H174.336V49.1046H175.733V45.2269H177.308V55.1962ZM177.679 58.3757H168.319V54.2602H169.968V57.0385H177.679V58.3757ZM171.484 50.3972H167.992V51.987C168.809 51.9771 169.535 51.9474 170.169 51.8978C170.803 51.8434 171.449 51.7542 172.108 51.6304L172.256 52.9527C171.489 53.0864 170.736 53.1781 169.998 53.2276C169.26 53.2722 168.363 53.2944 167.309 53.2944H166.387V49.1492H169.894V47.6338H166.373V46.3263H171.484V50.3972ZM185.821 47.3366H181.349V51.1253C182.528 51.1153 183.488 51.0856 184.231 51.0361C184.979 50.9816 185.722 50.8826 186.46 50.739L186.623 52.0613C185.796 52.2297 184.952 52.3436 184.09 52.403C183.233 52.4624 182.117 52.4921 180.74 52.4921H179.7V46.0143H185.821V47.3366ZM190.219 52.9676H188.57V49.7138H185.123V48.3766H188.57V45.212H190.219V52.9676ZM190.219 58.4648H181.289V53.5767H190.219V58.4648ZM182.939 57.1425H188.599V54.8842H182.939V57.1425ZM202.833 55.3745H196.444V46.4749H202.833V55.3745ZM198.078 54.0522H201.228V47.7675H198.078V54.0522ZM206.904 58.658H205.24V45.212H206.904V58.658ZM213.768 47.5892C213.768 48.2281 213.887 48.8446 214.124 49.4389C214.362 50.0332 214.714 50.5656 215.179 51.0361C215.65 51.5016 216.219 51.8582 216.888 52.1058L215.967 53.3836C215.263 53.1062 214.654 52.7026 214.139 52.1727C213.629 51.6428 213.23 51.0213 212.943 50.3081C212.651 51.0658 212.233 51.727 211.688 52.2916C211.148 52.8512 210.499 53.2796 209.741 53.5767L208.85 52.2693C209.543 52.0167 210.133 51.6527 210.618 51.1773C211.108 50.7018 211.477 50.1546 211.725 49.5355C211.973 48.9164 212.099 48.2677 212.104 47.5892V45.9846H213.768V47.5892ZM220.127 55.1962H218.478V51.0361H216.026V49.7138H218.478V48.3915H216.026V47.0543H218.478V45.2269H220.127V55.1962ZM220.424 58.3757H211.272V54.2156H212.951V57.0385H220.424V58.3757Z" fill="#2E3135"/>
<path d="M131.119 87.7785H122.695V87.1129H126.501V86.3693C125.666 86.3415 125.023 86.2081 124.572 85.9689C124.125 85.7262 123.901 85.3934 123.901 84.9705C123.901 84.5163 124.161 84.1696 124.681 83.9304C125.201 83.6878 125.943 83.5664 126.907 83.5664C127.86 83.5664 128.597 83.6878 129.117 83.9304C129.64 84.1696 129.902 84.5163 129.902 84.9705C129.902 85.3899 129.677 85.721 129.226 85.9637C128.779 86.2029 128.141 86.3381 127.312 86.3693V87.1129H131.119V87.7785ZM130.183 90.701H123.787V88.3713H124.608V90.025H130.183V90.701ZM130.63 83.1608H123.132V82.516H126.501V81.5488H127.312V82.516H130.63V83.1608ZM126.907 84.1696C126.203 84.1696 125.664 84.239 125.29 84.3776C124.915 84.5128 124.73 84.7104 124.733 84.9705C124.73 85.2305 124.915 85.4298 125.29 85.5685C125.664 85.7037 126.203 85.7713 126.907 85.7713C127.604 85.7713 128.139 85.7037 128.514 85.5685C128.892 85.4298 129.08 85.2305 129.08 84.9705C129.08 84.7104 128.892 84.5128 128.514 84.3776C128.139 84.239 127.604 84.1696 126.907 84.1696ZM135.029 84.492C135.026 84.9774 135.13 85.4714 135.341 85.9741C135.556 86.4733 135.848 86.9257 136.215 87.3313C136.582 87.7334 136.988 88.0385 137.432 88.2465L136.964 88.8913C136.447 88.6417 135.981 88.2604 135.565 87.7473C135.152 87.2342 134.84 86.6622 134.629 86.0313C134.49 86.4819 134.3 86.9101 134.057 87.3157C133.814 87.7213 133.537 88.0801 133.225 88.3921C132.913 88.7007 132.585 88.9433 132.242 89.1201L131.743 88.4753C132.183 88.2639 132.592 87.9432 132.97 87.5133C133.351 87.0834 133.655 86.6016 133.88 86.0677C134.109 85.5338 134.225 85.0086 134.229 84.492V83.2856H132.076V82.6096H137.109V83.2856H135.029V84.492ZM139.054 85.3969H140.604V86.0937H139.054V90.8986H138.243V81.6528H139.054V85.3969ZM144.358 84.1384C144.358 84.6862 144.466 85.227 144.681 85.7609C144.896 86.2947 145.187 86.7697 145.554 87.1857C145.922 87.5982 146.327 87.9068 146.771 88.1113L146.282 88.7769C145.759 88.5065 145.291 88.1096 144.878 87.5861C144.466 87.0626 144.157 86.4715 143.953 85.8129C143.745 86.5097 143.434 87.1354 143.022 87.6901C142.613 88.2448 142.147 88.6625 141.623 88.9433L141.093 88.2881C141.54 88.0697 141.949 87.7421 142.32 87.3053C142.691 86.865 142.984 86.3675 143.199 85.8129C143.417 85.2547 143.526 84.6966 143.526 84.1384V82.4536H144.358V84.1384ZM148.768 90.9194H147.957V85.4801H145.762V84.8145H147.957V81.6528H148.768V90.9194ZM161.446 89.7129H152.98V89.0369H156.787V87.0401H153.979V82.308H154.8V83.9824H159.605V82.308H160.406V87.0401H157.587V89.0369H161.446V89.7129ZM159.605 86.3745V84.648H154.8V86.3745H159.605ZM170.078 90.8986H169.277V86.1145H167.946V90.4202H167.176V81.8608H167.946V85.4177H169.277V81.6528H170.078V90.8986ZM163.464 87.7785C163.98 87.7716 164.483 87.7473 164.972 87.7057C165.46 87.6606 165.966 87.5844 166.49 87.4769L166.594 88.2049C165.98 88.3124 165.401 88.3904 164.857 88.4389C164.313 88.484 163.769 88.5065 163.224 88.5065H162.652V82.7864H163.464V87.7785ZM178.866 85.1161H172.532V81.996H173.344V84.4608H178.866V85.1161ZM179.844 87.0401H171.378V86.3745H179.844V87.0401ZM178.918 90.6698H172.48V87.9865H173.292V89.9938H178.918V90.6698ZM186.552 84.1384C186.548 84.6862 186.659 85.2305 186.885 85.7713C187.11 86.3086 187.415 86.787 187.8 87.2065C188.185 87.626 188.604 87.938 189.058 88.1425L188.559 88.7873C188.032 88.5273 187.554 88.1408 187.124 87.6277C186.698 87.1112 186.375 86.5253 186.157 85.8701C185.942 86.5669 185.619 87.1909 185.19 87.7421C184.76 88.2899 184.274 88.7007 183.733 88.9745L183.213 88.2881C183.668 88.0766 184.087 87.756 184.472 87.3261C184.857 86.8928 185.164 86.397 185.392 85.8389C185.621 85.2773 185.737 84.7104 185.741 84.1384V82.4536H186.552V84.1384ZM190.889 90.9194H190.067V81.6528H190.889V90.9194ZM199.698 84.4712H201.091V85.1577H199.698V88.4233H198.876V81.6528H199.698V84.4712ZM197.202 82.3704C197.202 83.1504 197.023 83.8663 196.666 84.518C196.313 85.1698 195.808 85.7349 195.153 86.2133C194.501 86.6917 193.728 87.0713 192.834 87.3521L192.48 86.6969C193.218 86.4646 193.865 86.1682 194.42 85.8077C194.974 85.4437 195.415 85.0294 195.741 84.5648C196.066 84.0968 196.257 83.5942 196.313 83.0568H192.865V82.3704H197.202ZM200.124 90.701H193.905V87.7369H194.716V90.0146H200.124V90.701ZM209.297 90.9194H208.476V81.6528H209.297V90.9194ZM204.378 82.3704C204.836 82.3739 205.243 82.5091 205.6 82.776C205.957 83.0395 206.236 83.4139 206.437 83.8992C206.638 84.3846 206.739 84.9497 206.739 85.5945C206.739 86.2393 206.638 86.8044 206.437 87.2897C206.236 87.775 205.957 88.1494 205.6 88.4129C205.243 88.6764 204.836 88.8081 204.378 88.8081C203.92 88.8081 203.511 88.6764 203.151 88.4129C202.794 88.1494 202.515 87.775 202.313 87.2897C202.116 86.8044 202.017 86.2393 202.017 85.5945C202.017 84.9497 202.116 84.3846 202.313 83.8992C202.515 83.4139 202.794 83.0395 203.151 82.776C203.508 82.5091 203.917 82.3739 204.378 82.3704ZM204.378 83.0984C204.069 83.1019 203.795 83.2076 203.556 83.4156C203.321 83.6202 203.137 83.9114 203.005 84.2892C202.873 84.6636 202.807 85.0987 202.807 85.5945C202.807 86.0902 202.873 86.527 203.005 86.9049C203.137 87.2793 203.322 87.5688 203.561 87.7733C203.801 87.9778 204.073 88.0801 204.378 88.0801C204.683 88.0801 204.955 87.9778 205.194 87.7733C205.434 87.5688 205.619 87.2793 205.751 86.9049C205.882 86.527 205.948 86.0902 205.948 85.5945C205.948 85.0987 205.882 84.6636 205.751 84.2892C205.619 83.9114 205.434 83.6202 205.194 83.4156C204.959 83.2076 204.686 83.1019 204.378 83.0984ZM216.858 84.492C216.858 85.0017 216.971 85.5095 217.196 86.0157C217.421 86.5184 217.725 86.9673 218.106 87.3625C218.491 87.7542 218.91 88.0489 219.365 88.2465L218.907 88.8913C218.363 88.6417 217.872 88.2656 217.435 87.7629C216.999 87.2568 216.673 86.6865 216.458 86.0521C216.243 86.7316 215.917 87.3469 215.48 87.8981C215.047 88.4459 214.567 88.8532 214.04 89.1201L213.551 88.4753C213.988 88.2639 214.395 87.9449 214.773 87.5185C215.154 87.0921 215.459 86.612 215.688 86.0781C215.917 85.5407 216.033 85.0121 216.037 84.492V83.2856H213.852V82.6096H219.063V83.2856H216.858V84.492ZM221.174 90.8986H220.353V81.6528H221.174V90.8986ZM230.181 84.4296H224.606V85.6257H230.378V86.3017H223.785V83.7848H229.349V82.6928H223.764V82.0272H230.181V84.4296ZM231.21 87.9345H227.362V90.9194H226.551V87.9345H222.745V87.2793H231.21V87.9345ZM239.115 85.4697H240.664V86.1457H239.115V90.8986H238.303V81.6528H239.115V85.4697ZM237.409 83.816H231.907V83.14H234.289V81.7672H235.1V83.14H237.409V83.816ZM234.705 84.5856C235.138 84.5856 235.526 84.6758 235.87 84.8561C236.213 85.0363 236.482 85.2877 236.676 85.6101C236.87 85.9325 236.969 86.2982 236.972 86.7073C236.969 87.1164 236.87 87.4821 236.676 87.8045C236.482 88.1269 236.213 88.3783 235.87 88.5585C235.526 88.7388 235.138 88.8289 234.705 88.8289C234.268 88.8289 233.876 88.7388 233.53 88.5585C233.186 88.3783 232.918 88.1269 232.724 87.8045C232.53 87.4821 232.434 87.1164 232.438 86.7073C232.434 86.2982 232.53 85.9325 232.724 85.6101C232.918 85.2877 233.186 85.0363 233.53 84.8561C233.876 84.6758 234.268 84.5856 234.705 84.5856ZM234.705 85.2721C234.421 85.2721 234.164 85.3345 233.935 85.4593C233.71 85.5806 233.533 85.7505 233.405 85.9689C233.277 86.1873 233.214 86.4334 233.218 86.7073C233.214 86.9846 233.277 87.2325 233.405 87.4509C233.533 87.6658 233.71 87.834 233.935 87.9553C234.164 88.0766 234.421 88.1356 234.705 88.1321C234.986 88.1356 235.239 88.0766 235.464 87.9553C235.689 87.834 235.866 87.6658 235.995 87.4509C236.123 87.2325 236.189 86.9846 236.192 86.7073C236.189 86.4334 236.123 86.1873 235.995 85.9689C235.866 85.7505 235.689 85.5806 235.464 85.4593C235.239 85.3345 234.986 85.2721 234.705 85.2721ZM249.078 90.8986H248.298V81.6528H249.078V90.8986ZM247.133 90.4306H246.353V86.1145H244.393C243.803 87.2446 242.89 88.1737 241.652 88.9017L241.174 88.3089C242.162 87.7265 242.918 87.0297 243.441 86.2185C243.968 85.4038 244.27 84.5024 244.346 83.5144H241.569V82.8384H245.157C245.15 83.7814 244.996 84.6515 244.694 85.4489H246.353V81.9024H247.133V90.4306ZM260.529 86.5201H254.08V82.464H254.902V85.8441H260.529V86.5201ZM261.506 89.6193H253.04V88.9329H261.506V89.6193ZM269.868 90.8986H269.067V87.3105H266.732C266.41 88.1009 265.992 88.8012 265.479 89.4113L264.793 88.9641C265.455 88.2049 265.935 87.3486 266.233 86.3953C266.531 85.4419 266.703 84.4262 266.748 83.348H265.302V82.6616H267.528C267.528 83.1886 267.504 83.6947 267.455 84.18H269.067V81.6528H269.868V90.8986ZM265.021 82.6616C265.021 85.1854 264.287 87.2238 262.817 88.7769L262.161 88.3089C263.42 87.0158 264.11 85.3622 264.231 83.348H262.484V82.6616H265.021ZM269.067 86.6241V84.8457H267.377C267.287 85.487 267.155 86.0798 266.982 86.6241H269.067ZM279.072 86.4577H278.271V81.6528H279.072V86.4577ZM279.083 89.1097H273.893V90.1394H279.415V90.7946H273.092V88.4961H278.271V87.5497H273.071V86.9049H279.083V89.1097ZM274.777 82.9632C274.777 83.3584 274.877 83.7346 275.078 84.0916C275.28 84.4487 275.56 84.7607 275.921 85.0277C276.281 85.2946 276.694 85.4974 277.159 85.6361L276.753 86.2705C276.205 86.0971 275.723 85.8354 275.307 85.4853C274.895 85.1317 274.586 84.7191 274.382 84.2476C274.181 84.7642 273.869 85.2166 273.446 85.6049C273.026 85.9931 272.534 86.2809 271.969 86.4681L271.584 85.8233C272.045 85.6707 272.454 85.4506 272.811 85.1629C273.172 84.8717 273.453 84.5371 273.654 84.1592C273.855 83.7779 273.955 83.3792 273.955 82.9632V82.8592H271.792V82.1832H276.909V82.8592H274.777V82.9632ZM289.452 85.4385H290.575V81.6528H291.355V90.8986H290.575V86.1145H289.452V90.441H288.692V81.8608H289.452V85.4385ZM285.614 83.504H284.366V87.7941C284.834 87.7733 285.271 87.7126 285.676 87.6121L285.749 88.3089C285.409 88.3852 285.103 88.4337 284.829 88.4545C284.555 88.4753 284.269 88.4857 283.971 88.4857H283.607V82.828H285.614V83.504ZM288.068 83.504H286.758V87.7941C287.316 87.7802 287.819 87.7092 288.266 87.5809L288.339 88.2777C287.999 88.3679 287.684 88.4251 287.392 88.4493C287.105 88.4736 286.772 88.4857 286.394 88.4857H286.019V82.828H288.068V83.504ZM293.237 92.1882H292.468L293.04 89.3593H294.048L293.237 92.1882ZM129.85 100.314H131.4V101H129.85V105.919H129.039V96.6528H129.85V100.314ZM127.416 98.2336H123.912V102.914C124.775 102.914 125.529 102.889 126.174 102.841C126.818 102.792 127.475 102.706 128.144 102.581L128.248 103.288C127.565 103.413 126.895 103.496 126.236 103.538C125.577 103.579 124.775 103.6 123.828 103.6H123.1V97.5576H127.416V98.2336ZM140.5 98.7328H139.127V100.022H140.5V100.709H139.127V102.144H138.316V96.6528H139.127V98.0568H140.5V98.7328ZM134.499 97.2144C134.963 97.2109 135.379 97.3011 135.747 97.4848C136.114 97.6685 136.402 97.9268 136.61 98.2596C136.822 98.589 136.929 98.9651 136.933 99.388C136.929 99.811 136.822 100.187 136.61 100.516C136.402 100.842 136.114 101.097 135.747 101.281C135.379 101.465 134.963 101.558 134.499 101.562C134.034 101.558 133.617 101.465 133.246 101.281C132.878 101.097 132.591 100.842 132.383 100.516C132.175 100.187 132.072 99.811 132.076 99.388C132.072 98.9651 132.175 98.589 132.383 98.2596C132.591 97.9268 132.878 97.6685 133.246 97.4848C133.617 97.3011 134.034 97.2109 134.499 97.2144ZM134.499 97.9112C134.19 97.9077 133.911 97.9684 133.662 98.0932C133.416 98.218 133.221 98.3931 133.079 98.6184C132.941 98.8438 132.873 99.1003 132.877 99.388C132.873 99.6723 132.941 99.9271 133.079 100.152C133.221 100.378 133.416 100.555 133.662 100.683C133.911 100.808 134.19 100.872 134.499 100.875C134.811 100.872 135.09 100.808 135.336 100.683C135.586 100.555 135.78 100.38 135.919 100.158C136.061 99.9323 136.132 99.6758 136.132 99.388C136.132 99.1003 136.061 98.8438 135.919 98.6184C135.78 98.3931 135.586 98.218 135.336 98.0932C135.09 97.9684 134.811 97.9077 134.499 97.9112ZM136.163 102.425C136.79 102.428 137.333 102.499 137.791 102.638C138.248 102.773 138.598 102.971 138.841 103.231C139.087 103.487 139.21 103.798 139.21 104.162C139.21 104.519 139.087 104.826 138.841 105.082C138.595 105.342 138.243 105.54 137.785 105.675C137.328 105.81 136.787 105.878 136.163 105.878C135.536 105.878 134.991 105.81 134.53 105.675C134.069 105.54 133.714 105.342 133.464 105.082C133.218 104.826 133.095 104.519 133.095 104.162C133.095 103.798 133.218 103.487 133.464 103.231C133.714 102.971 134.067 102.773 134.525 102.638C134.986 102.499 135.532 102.428 136.163 102.425ZM136.163 103.091C135.698 103.091 135.296 103.134 134.957 103.221C134.62 103.304 134.362 103.427 134.182 103.59C134.001 103.749 133.913 103.94 133.917 104.162C133.913 104.38 134.001 104.569 134.182 104.729C134.362 104.888 134.622 105.009 134.962 105.093C135.301 105.179 135.702 105.223 136.163 105.223C136.628 105.223 137.03 105.179 137.369 105.093C137.709 105.009 137.969 104.888 138.149 104.729C138.33 104.569 138.42 104.38 138.42 104.162C138.42 103.94 138.33 103.749 138.149 103.59C137.969 103.427 137.709 103.304 137.369 103.221C137.03 103.134 136.628 103.091 136.163 103.091ZM148.331 99.7104H149.725V100.397H148.331V103.59H147.52V96.6632H148.331V99.7104ZM146.636 98.4624H141.124V97.7968H143.474V96.6632H144.286V97.7968H146.636V98.4624ZM143.88 98.972C144.317 98.972 144.702 99.0431 145.034 99.1852C145.371 99.3274 145.632 99.5284 145.82 99.7885C146.007 100.048 146.102 100.352 146.106 100.698C146.102 101.042 146.007 101.342 145.82 101.598C145.632 101.855 145.371 102.054 145.034 102.196C144.702 102.335 144.317 102.404 143.88 102.404C143.44 102.404 143.05 102.335 142.71 102.196C142.374 102.054 142.112 101.855 141.925 101.598C141.741 101.342 141.651 101.042 141.654 100.698C141.651 100.352 141.741 100.048 141.925 99.7885C142.112 99.5284 142.374 99.3274 142.71 99.1852C143.05 99.0431 143.44 98.972 143.88 98.972ZM143.88 99.6168C143.592 99.6168 143.337 99.6619 143.116 99.752C142.897 99.8387 142.727 99.9653 142.606 100.132C142.488 100.295 142.431 100.484 142.434 100.698C142.431 100.913 142.488 101.102 142.606 101.265C142.727 101.425 142.897 101.548 143.116 101.634C143.337 101.721 143.592 101.763 143.88 101.759C144.164 101.763 144.416 101.721 144.634 101.634C144.856 101.548 145.027 101.425 145.149 101.265C145.27 101.102 145.332 100.913 145.336 100.698C145.332 100.484 145.27 100.295 145.149 100.132C145.027 99.9653 144.856 99.8387 144.634 99.752C144.416 99.6619 144.164 99.6168 143.88 99.6168ZM148.758 105.701H142.549V103.039H143.35V105.015H148.758V105.701ZM157.65 97.9632C157.646 98.3584 157.801 98.7363 158.113 99.0968C158.425 99.4539 158.832 99.7555 159.335 100.002C159.837 100.248 160.361 100.411 160.905 100.49L160.603 101.135C160.115 101.052 159.643 100.913 159.189 100.719C158.738 100.525 158.338 100.282 157.988 99.9913C157.638 99.6966 157.372 99.369 157.192 99.0084C157.012 99.369 156.747 99.6948 156.397 99.9861C156.046 100.277 155.646 100.522 155.195 100.719C154.748 100.913 154.284 101.052 153.802 101.135L153.479 100.49C154.02 100.411 154.542 100.248 155.045 100.002C155.547 99.7555 155.955 99.4539 156.267 99.0968C156.579 98.7363 156.735 98.3584 156.735 97.9632V97.9008H153.771V97.2352H160.603V97.9008H157.65V97.9632ZM161.404 102.602H157.577V105.899H156.776V102.602H152.98V101.926H161.404V102.602ZM170.088 105.899H169.308V96.6528H170.088V105.899ZM168.216 105.42H167.447V100.657H165.887V99.9913H167.447V96.8816H168.216V105.42ZM164.899 99.2944C164.899 99.8318 164.977 100.357 165.133 100.87C165.289 101.38 165.518 101.841 165.819 102.253C166.121 102.662 166.48 102.987 166.896 103.226L166.396 103.829C165.949 103.562 165.566 103.193 165.247 102.721C164.928 102.246 164.686 101.709 164.519 101.109C164.349 101.758 164.098 102.338 163.765 102.851C163.436 103.364 163.044 103.763 162.59 104.047L162.07 103.434C162.489 103.184 162.853 102.843 163.162 102.409C163.47 101.976 163.704 101.491 163.864 100.953C164.027 100.412 164.108 99.8595 164.108 99.2944V98.4208H162.33V97.7448H166.594V98.4208H164.899V99.2944ZM174.415 97.3288C174.897 97.3288 175.325 97.4207 175.699 97.6044C176.077 97.7881 176.372 98.0447 176.583 98.374C176.795 98.7034 176.901 99.0795 176.901 99.5024C176.901 99.9254 176.795 100.302 176.583 100.631C176.372 100.96 176.077 101.217 175.699 101.4C175.325 101.584 174.897 101.676 174.415 101.676C173.933 101.676 173.501 101.584 173.12 101.4C172.742 101.217 172.446 100.96 172.231 100.631C172.019 100.302 171.915 99.9254 171.919 99.5024C171.915 99.0795 172.019 98.7034 172.231 98.374C172.446 98.0447 172.742 97.7881 173.12 97.6044C173.501 97.4207 173.933 97.3288 174.415 97.3288ZM174.415 98.0464C174.089 98.0464 173.796 98.1088 173.536 98.2336C173.28 98.355 173.078 98.5266 172.933 98.7484C172.787 98.9668 172.716 99.2182 172.72 99.5024C172.716 99.7867 172.787 100.04 172.933 100.262C173.078 100.48 173.28 100.652 173.536 100.776C173.796 100.898 174.089 100.958 174.415 100.958C174.737 100.958 175.027 100.898 175.283 100.776C175.54 100.652 175.739 100.48 175.881 100.262C176.027 100.04 176.1 99.7867 176.1 99.5024C176.1 99.2182 176.027 98.9668 175.881 98.7484C175.739 98.5266 175.54 98.355 175.283 98.2336C175.027 98.1088 174.737 98.0464 174.415 98.0464ZM178.97 105.919H178.159V96.6528H178.97V105.919ZM171.44 103.184C172.64 103.184 173.73 103.165 174.711 103.127C175.696 103.089 176.641 103.004 177.545 102.872L177.608 103.475C176.679 103.649 175.731 103.76 174.763 103.808C173.8 103.857 172.73 103.881 171.555 103.881L171.44 103.184ZM191.118 103.548H190.338V100.116H189.038V103.278H188.278V96.84H189.038V99.4296H190.338V96.6632H191.118V103.548ZM191.398 105.701H185.054V102.914H185.866V105.015H191.398V105.701ZM187.176 100.095H184.482V101.499C185.131 101.496 185.703 101.475 186.198 101.437C186.694 101.395 187.204 101.322 187.727 101.218L187.821 101.874C187.252 101.981 186.701 102.056 186.167 102.097C185.637 102.135 185.013 102.154 184.295 102.154H183.692V99.4504H186.396V98.1192H183.671V97.4536H187.176V100.095ZM197.233 97.932H193.79V100.865C194.709 100.865 195.455 100.846 196.027 100.808C196.602 100.77 197.174 100.692 197.743 100.574L197.836 101.239C197.219 101.361 196.607 101.444 196.001 101.489C195.394 101.53 194.616 101.551 193.666 101.551H192.979V97.256H197.233V97.932ZM200.135 102.009H199.313V99.5856H196.682V98.9096H199.313V96.6528H200.135V102.009ZM200.135 105.774H194.092V102.477H200.135V105.774ZM194.903 105.098H199.334V103.132H194.903V105.098ZM209.162 103.579H204.888V97.568H209.162V103.579ZM205.688 102.914H208.361V98.2232H205.688V102.914ZM211.97 105.919H211.148V96.6528H211.97V105.919ZM216.713 98.3688C216.713 98.8126 216.808 99.2442 216.999 99.6636C217.189 100.083 217.456 100.456 217.799 100.782C218.143 101.104 218.536 101.354 218.98 101.53L218.522 102.165C218.016 101.953 217.571 101.647 217.186 101.244C216.804 100.842 216.517 100.378 216.323 99.8509C216.125 100.419 215.825 100.92 215.423 101.354C215.024 101.784 214.556 102.109 214.019 102.331L213.572 101.676C214.026 101.499 214.43 101.243 214.783 100.906C215.137 100.57 215.413 100.182 215.61 99.7416C215.808 99.3014 215.908 98.8438 215.912 98.3688V97.1832H216.713V98.3688ZM221.216 103.569H220.394V100.605H218.491V99.9393H220.394V98.712H218.491V98.036H220.394V96.6632H221.216V103.569ZM221.424 105.701H215.236V102.851H216.057V105.015H221.424V105.701ZM226.967 96.8192C227.654 96.8192 228.241 96.8816 228.73 97.0064C229.219 97.1277 229.591 97.308 229.848 97.5472C230.105 97.7829 230.233 98.0707 230.233 98.4104C230.233 98.9304 229.949 99.3291 229.38 99.6064C228.811 99.8838 228.007 100.026 226.967 100.033C226.281 100.029 225.691 99.9653 225.199 99.8405C224.71 99.7156 224.336 99.5336 224.076 99.2944C223.819 99.0518 223.691 98.7571 223.691 98.4104C223.691 98.0707 223.819 97.7829 224.076 97.5472C224.336 97.308 224.71 97.1277 225.199 97.0064C225.691 96.8816 226.281 96.8192 226.967 96.8192ZM226.967 97.4328C226.458 97.4328 226.021 97.4727 225.657 97.5524C225.293 97.6287 225.015 97.7413 224.825 97.8904C224.634 98.036 224.54 98.2094 224.544 98.4104C224.54 98.7294 224.75 98.9755 225.173 99.1488C225.596 99.3222 226.194 99.4088 226.967 99.4088C227.737 99.4088 228.335 99.3222 228.761 99.1488C229.188 98.9755 229.401 98.7294 229.401 98.4104C229.401 98.2094 229.304 98.036 229.11 97.8904C228.915 97.7448 228.636 97.6321 228.272 97.5524C227.908 97.4727 227.473 97.4328 226.967 97.4328ZM231.179 101.322H222.755V100.657H231.179V101.322ZM230.098 104.193H224.606V105.15H230.378V105.795H223.795V103.59H229.297V102.747H223.774V102.123H230.098V104.193ZM243.056 102.227H234.622V101.562H238.428V100.646H235.745V96.9232H242.006V97.5888H236.567V98.452H241.756V99.076H236.567V99.9913H242.058V100.646H239.239V101.562H243.056V102.227ZM238.844 102.924C239.86 102.917 240.643 103.042 241.195 103.299C241.746 103.552 242.023 103.919 242.027 104.401C242.023 104.883 241.746 105.249 241.195 105.498C240.647 105.751 239.863 105.878 238.844 105.878C237.815 105.878 237.024 105.751 236.473 105.498C235.925 105.249 235.651 104.883 235.651 104.401C235.651 103.919 235.927 103.552 236.478 103.299C237.029 103.042 237.818 102.917 238.844 102.924ZM238.844 103.538C238.081 103.538 237.494 103.612 237.081 103.761C236.669 103.91 236.466 104.124 236.473 104.401C236.469 104.682 236.671 104.895 237.076 105.041C237.485 105.183 238.075 105.25 238.844 105.243C239.603 105.25 240.186 105.183 240.591 105.041C241 104.895 241.205 104.682 241.205 104.401C241.205 104.124 240.999 103.91 240.586 103.761C240.177 103.612 239.596 103.538 238.844 103.538ZM248.454 98.92H243.815V98.2544H245.739V96.9336H246.551V98.2544H248.454V98.92ZM246.135 99.544C246.52 99.544 246.863 99.6342 247.164 99.8145C247.469 99.9913 247.707 100.239 247.877 100.558C248.05 100.877 248.138 101.239 248.142 101.645C248.138 102.054 248.05 102.42 247.877 102.742C247.707 103.061 247.469 103.312 247.164 103.496C246.863 103.676 246.52 103.767 246.135 103.767C245.753 103.767 245.412 103.676 245.11 103.496C244.809 103.312 244.573 103.059 244.403 102.737C244.233 102.415 244.148 102.05 244.148 101.645C244.148 101.243 244.233 100.882 244.403 100.563C244.573 100.241 244.809 99.9913 245.11 99.8145C245.412 99.6342 245.753 99.544 246.135 99.544ZM246.135 100.23C245.896 100.234 245.679 100.298 245.485 100.423C245.294 100.544 245.145 100.712 245.037 100.927C244.93 101.139 244.876 101.378 244.876 101.645C244.876 101.915 244.93 102.158 245.037 102.373C245.148 102.588 245.299 102.756 245.49 102.877C245.681 102.995 245.896 103.052 246.135 103.049C246.377 103.052 246.596 102.995 246.79 102.877C246.984 102.756 247.137 102.588 247.248 102.373C247.358 102.158 247.414 101.915 247.414 101.645C247.414 101.378 247.358 101.139 247.248 100.927C247.137 100.712 246.984 100.544 246.79 100.423C246.596 100.298 246.377 100.234 246.135 100.23ZM251.709 105.899H250.929V101.229H249.702V105.441H248.932V96.8816H249.702V100.553H250.929V96.6528H251.709V105.899ZM130.62 120.899H129.829V116H128.54V120.431H127.76V111.85H128.54V115.324H129.829V111.653H130.62V120.899ZM126.574 118.413H123.038V112.734H126.574V118.413ZM123.808 117.758H125.804V113.39H123.808V117.758ZM134.52 111.996C134.977 111.999 135.386 112.088 135.747 112.261C136.111 112.435 136.395 112.677 136.6 112.989C136.808 113.298 136.912 113.65 136.912 114.045C136.912 114.44 136.808 114.794 136.6 115.106C136.395 115.414 136.111 115.655 135.747 115.828C135.386 115.998 134.977 116.083 134.52 116.083C134.055 116.083 133.641 115.998 133.277 115.828C132.913 115.655 132.629 115.414 132.424 115.106C132.22 114.794 132.117 114.44 132.117 114.045C132.117 113.65 132.22 113.298 132.424 112.989C132.629 112.677 132.913 112.435 133.277 112.261C133.641 112.088 134.055 111.999 134.52 111.996ZM134.52 112.682C134.215 112.682 133.939 112.741 133.693 112.859C133.45 112.974 133.26 113.135 133.121 113.343C132.982 113.547 132.915 113.781 132.918 114.045C132.915 114.312 132.982 114.549 133.121 114.757C133.26 114.965 133.45 115.128 133.693 115.246C133.939 115.36 134.215 115.418 134.52 115.418C134.821 115.418 135.093 115.36 135.336 115.246C135.582 115.128 135.775 114.965 135.913 114.757C136.052 114.549 136.121 114.312 136.121 114.045C136.121 113.781 136.052 113.547 135.913 113.343C135.775 113.135 135.582 112.974 135.336 112.859C135.093 112.741 134.821 112.682 134.52 112.682ZM139.533 116.406H138.721V111.653H139.533V116.406ZM139.533 119.079H134.343V120.119H139.865V120.774H133.542V118.465H138.721V117.508H133.521V116.853H139.533V119.079ZM146.532 113.462C146.532 113.813 146.608 114.158 146.761 114.497C146.913 114.834 147.132 115.137 147.416 115.407C147.7 115.678 148.037 115.889 148.425 116.042L147.988 116.676C147.558 116.496 147.185 116.246 146.87 115.927C146.555 115.605 146.314 115.236 146.147 114.82C145.97 115.281 145.717 115.695 145.388 116.062C145.059 116.426 144.674 116.707 144.234 116.905L143.786 116.27C144.182 116.097 144.526 115.858 144.821 115.553C145.119 115.244 145.348 114.908 145.508 114.544C145.67 114.177 145.752 113.816 145.752 113.462V112.225H146.532V113.462ZM151.628 117.248H150.848V114.762H149.621V117.196H148.851V111.83H149.621V114.076H150.848V111.663H151.628V117.248ZM151.628 120.899H150.827V118.434H145.398V117.758H151.628V120.899ZM160.135 115.314H161.685V116H160.135V120.919H159.324V111.653H160.135V115.314ZM157.702 113.234H154.197V117.914C155.06 117.914 155.814 117.889 156.459 117.841C157.104 117.792 157.761 117.706 158.43 117.581L158.534 118.288C157.851 118.413 157.18 118.496 156.521 118.538C155.863 118.579 155.06 118.6 154.114 118.6H153.386V112.558H157.702V113.234ZM170.64 117.456H162.174V116.78H170.64V117.456ZM169.745 120.701H163.297V118.184H164.119V120.015H169.745V120.701ZM169.548 114.253H164.088V115.282H169.745V115.927H163.276V113.639H168.726V112.63H163.245V111.975H169.548V114.253ZM181.217 115.47H182.766V116.146H181.217V120.899H180.405V111.653H181.217V115.47ZM179.511 113.816H174.009V113.14H176.391V111.767H177.202V113.14H179.511V113.816ZM176.807 114.586C177.24 114.586 177.629 114.676 177.972 114.856C178.315 115.036 178.584 115.288 178.778 115.61C178.972 115.932 179.071 116.298 179.074 116.707C179.071 117.116 178.972 117.482 178.778 117.805C178.584 118.127 178.315 118.378 177.972 118.559C177.629 118.739 177.24 118.829 176.807 118.829C176.37 118.829 175.978 118.739 175.632 118.559C175.289 118.378 175.02 118.127 174.826 117.805C174.632 117.482 174.536 117.116 174.54 116.707C174.536 116.298 174.632 115.932 174.826 115.61C175.02 115.288 175.289 115.036 175.632 114.856C175.978 114.676 176.37 114.586 176.807 114.586ZM176.807 115.272C176.523 115.272 176.266 115.334 176.037 115.459C175.812 115.581 175.635 115.75 175.507 115.969C175.379 116.187 175.316 116.433 175.32 116.707C175.316 116.985 175.379 117.232 175.507 117.451C175.635 117.666 175.812 117.834 176.037 117.955C176.266 118.077 176.523 118.136 176.807 118.132C177.088 118.136 177.341 118.077 177.566 117.955C177.792 117.834 177.968 117.666 178.097 117.451C178.225 117.232 178.291 116.985 178.294 116.707C178.291 116.433 178.225 116.187 178.097 115.969C177.968 115.75 177.792 115.581 177.566 115.459C177.341 115.334 177.088 115.272 176.807 115.272ZM190.691 114.43H185.117V115.626H190.889V116.302H184.295V113.785H189.859V112.693H184.274V112.027H190.691V114.43ZM191.721 117.935H187.873V120.919H187.062V117.935H183.255V117.279H191.721V117.935ZM200.925 116.593H192.459V115.948H200.925V116.593ZM199.864 119.297H194.311V120.181H200.166V120.774H193.489V118.735H199.053V117.945H193.478V117.331H199.864V119.297ZM199.833 113.847H194.373V114.658H199.999V115.251H193.562V113.286H199.011V112.526H193.53V111.934H199.833V113.847ZM209.016 116.749H204.742V112.495H209.016V116.749ZM205.543 116.094H208.226V113.161H205.543V116.094ZM211.575 114.471H212.968V115.158H211.575V118.434H210.764V111.653H211.575V114.471ZM212.001 120.701H205.792V117.789H206.593V120.015H212.001V120.701ZM221.985 116.198H213.551V115.542H221.985V116.198ZM220.977 114.783H214.674V111.975H220.883V112.63H215.496V114.118H220.977V114.783ZM220.893 119.172H215.402V120.129H221.174V120.795H214.591V118.559H220.093V117.664H214.57V117.03H220.893V119.172ZM225.241 112.37C225.657 112.374 226.029 112.49 226.359 112.719C226.692 112.948 226.96 113.273 227.165 113.696C227.369 114.119 227.492 114.617 227.534 115.189H229.609V111.653H230.42V120.919H229.609V115.865H227.544C227.513 116.461 227.397 116.981 227.196 117.425C226.995 117.869 226.724 118.21 226.385 118.449C226.048 118.689 225.667 118.808 225.241 118.808C224.79 118.808 224.388 118.676 224.034 118.413C223.684 118.149 223.41 117.775 223.213 117.29C223.019 116.804 222.921 116.239 222.921 115.594C222.921 114.95 223.019 114.385 223.213 113.899C223.41 113.414 223.684 113.039 224.034 112.776C224.384 112.509 224.787 112.374 225.241 112.37ZM225.241 113.098C224.939 113.102 224.67 113.208 224.435 113.416C224.202 113.62 224.022 113.911 223.894 114.289C223.766 114.664 223.701 115.099 223.701 115.594C223.701 116.09 223.766 116.527 223.894 116.905C224.022 117.279 224.202 117.569 224.435 117.773C224.67 117.978 224.939 118.08 225.241 118.08C225.539 118.08 225.804 117.978 226.036 117.773C226.272 117.569 226.454 117.279 226.582 116.905C226.714 116.527 226.78 116.09 226.78 115.594C226.78 115.099 226.714 114.664 226.582 114.289C226.454 113.911 226.274 113.62 226.042 113.416C225.809 113.208 225.542 113.102 225.241 113.098ZM240.425 119.713H231.959V119.037H235.766V117.04H232.958V112.308H233.779V113.982H238.584V112.308H239.385V117.04H236.567V119.037H240.425V119.713ZM238.584 116.374V114.648H233.779V116.374H238.584ZM243.909 114.284C243.909 114.776 243.987 115.269 244.143 115.761C244.299 116.253 244.523 116.702 244.814 117.108C245.109 117.513 245.455 117.834 245.854 118.07L245.386 118.704C244.953 118.441 244.576 118.078 244.257 117.617C243.942 117.153 243.699 116.631 243.529 116.052C243.356 116.676 243.101 117.238 242.765 117.737C242.429 118.236 242.034 118.624 241.579 118.902L241.059 118.288C241.475 118.045 241.839 117.714 242.151 117.295C242.463 116.872 242.703 116.402 242.869 115.886C243.035 115.366 243.119 114.842 243.119 114.315V112.526H243.909V114.284ZM249.088 120.899H248.298V111.653H249.088V120.899ZM247.175 120.431H246.405V115.667H244.835V114.97H246.405V111.85H247.175V120.431ZM258.833 119.713H250.368V119.027H252.468V116.53C252.066 116.322 251.754 116.056 251.532 115.73C251.311 115.4 251.2 115.029 251.2 114.617C251.2 114.145 251.343 113.731 251.631 113.374C251.919 113.013 252.318 112.734 252.827 112.537C253.34 112.339 253.924 112.239 254.58 112.235C255.235 112.239 255.817 112.339 256.327 112.537C256.84 112.734 257.24 113.013 257.528 113.374C257.816 113.731 257.96 114.145 257.96 114.617C257.96 115.022 257.852 115.388 257.637 115.714C257.422 116.036 257.121 116.302 256.733 116.51V119.027H258.833V119.713ZM254.58 112.911C254.077 112.908 253.63 112.977 253.238 113.119C252.846 113.261 252.539 113.462 252.318 113.722C252.099 113.979 251.99 114.277 251.99 114.617C251.99 114.957 252.099 115.258 252.318 115.522C252.539 115.782 252.846 115.984 253.238 116.13C253.63 116.272 254.077 116.343 254.58 116.343C255.079 116.343 255.524 116.27 255.916 116.125C256.308 115.979 256.615 115.776 256.837 115.516C257.058 115.256 257.169 114.957 257.169 114.617C257.169 114.277 257.058 113.979 256.837 113.722C256.615 113.462 256.308 113.261 255.916 113.119C255.524 112.977 255.079 112.908 254.58 112.911ZM255.911 119.027V116.827C255.498 116.934 255.055 116.988 254.58 116.988C254.101 116.988 253.664 116.936 253.269 116.832V119.027H255.911ZM260.549 120.119C260.428 120.119 260.315 120.089 260.211 120.03C260.111 119.968 260.029 119.885 259.967 119.781C259.908 119.677 259.88 119.564 259.884 119.443C259.88 119.325 259.908 119.215 259.967 119.115C260.029 119.011 260.111 118.929 260.211 118.871C260.315 118.808 260.428 118.777 260.549 118.777C260.667 118.777 260.776 118.808 260.877 118.871C260.981 118.929 261.062 119.011 261.121 119.115C261.184 119.215 261.215 119.325 261.215 119.443C261.215 119.564 261.184 119.677 261.121 119.781C261.062 119.885 260.981 119.968 260.877 120.03C260.776 120.089 260.667 120.119 260.549 120.119Z" fill="#2E3135"/>
<rect x="122.701" y="178.446" width="174.2" height="31.4533" rx="8.74805" fill="white"/>
<rect x="122.701" y="178.446" width="174.2" height="31.4533" rx="8.74805" stroke="#B54708" stroke-width="0.7607"/>
<path d="M194.339 197.116H189.228V189.996H194.339V197.116ZM190.535 196.058H193.055V191.03H190.535V196.058ZM197.596 199.743H196.264V188.986H197.596V199.743ZM203.087 190.888C203.087 191.399 203.182 191.892 203.372 192.367C203.562 192.843 203.844 193.269 204.216 193.645C204.592 194.018 205.048 194.303 205.583 194.501L204.846 195.523C204.283 195.301 203.796 194.978 203.384 194.554C202.976 194.13 202.657 193.633 202.427 193.063C202.193 193.669 201.859 194.198 201.423 194.649C200.991 195.097 200.472 195.44 199.866 195.678L199.153 194.632C199.707 194.43 200.179 194.138 200.567 193.758C200.959 193.378 201.254 192.94 201.453 192.445C201.651 191.949 201.752 191.43 201.756 190.888V189.604H203.087V190.888ZM208.174 196.973H206.855V193.645H204.894V192.587H206.855V191.529H204.894V190.46H206.855V188.998H208.174V196.973ZM208.412 199.517H201.09V196.189H202.433V198.447H208.412V199.517ZM211.799 190.186H212.988V189.164H214.224V192.896H214.961V189.164H216.209V190.186H217.398V189.164H218.622V193.146H215.246V194.085H219.489V195.131H209.695V194.085H213.915V193.146H210.527V189.164H211.799V190.186ZM212.988 192.1V191.185H211.799V192.1H212.988ZM217.398 192.1V191.185H216.209V192.1H217.398ZM212.18 196.593H216.946V195.749H218.277V199.6H210.872V195.749H212.18V196.593ZM216.946 198.554V197.615H212.18V198.554H216.946ZM229.188 199.731H227.857V188.986H229.188V199.731ZM225.979 190.127C225.979 191.834 225.593 193.334 224.82 194.626C224.048 195.913 222.766 196.981 220.975 197.829L220.286 196.771C221.669 196.113 222.709 195.327 223.406 194.412C224.107 193.493 224.517 192.413 224.636 191.173H220.833V190.127H225.979Z" fill="#B54708"/>
<g clip-path="url(#clip0_2647_102063)">
<path d="M420.917 95.0059C425.396 100.355 427.995 107.283 428.152 114.294C428.309 121.306 426.024 128.351 421.789 133.912C421.789 133.912 413.011 143.958 381.314 140.196C379.572 139.989 366.757 138.051 361.146 130.278C355.536 122.506 354.42 108.67 360.202 99.4371L361.972 96.4036C361.698 91.3499 361.425 86.2977 361.153 81.2441C361.032 79.018 361.168 76.2998 363.114 75.2456C364.608 74.4368 366.441 75.0648 367.978 75.7783C370.116 76.7708 373.919 78.8049 376.723 81.1726C380.113 84.0352 382.22 86.8655 382.22 86.8655C385.524 85.6487 389.222 85.5239 392.721 85.8645L399.49 87.3098C399.49 87.3098 404.258 83.2417 407.484 79.981C410.303 77.1311 413.748 74.5335 416.789 74.7368C418.942 74.8812 421.728 78.1937 421.363 80.382C420.924 83.0216 421.233 85.8463 421.001 89.0257C420.77 92.2051 420.915 95.0003 420.915 95.0003L420.917 95.0059Z" fill="white"/>
<path d="M378.021 180.584C378.382 180.584 378.383 180.023 378.021 180.023C377.66 180.023 377.66 180.584 378.021 180.584Z" fill="#555A60"/>
<path d="M387.416 168.755C388.289 166.782 389.326 164.485 391.571 163.803C392.556 163.503 393.61 163.632 394.421 164.298C395.231 164.963 395.729 165.904 396.065 166.862C396.714 168.708 396.722 170.742 396.173 172.615C395.9 173.548 395.487 174.437 394.945 175.245C394.365 176.109 393.633 176.815 392.818 177.458C391.913 178.174 390.958 178.952 390.646 180.119C390.501 180.656 390.525 181.229 390.78 181.729C391.011 182.184 391.428 182.559 391.917 182.712C392.164 182.788 392.416 182.792 392.668 182.746C393.023 182.681 392.873 182.14 392.52 182.205C392.06 182.289 391.611 181.994 391.367 181.623C391.074 181.181 391.063 180.656 391.219 180.159C391.581 179.01 392.666 178.31 393.552 177.587C395.127 176.302 396.237 174.53 396.769 172.571C397.292 170.648 397.264 168.549 396.589 166.667C396.235 165.678 395.716 164.692 394.917 163.988C394.118 163.284 393.033 162.963 391.942 163.141C389.582 163.528 388.216 165.663 387.292 167.666C387.169 167.934 387.05 168.205 386.929 168.474C386.868 168.612 386.889 168.775 387.03 168.858C387.149 168.928 387.353 168.897 387.414 168.757L387.416 168.755Z" fill="#555A60"/>
<path d="M397.415 186.166C397.555 185.979 397.695 185.791 397.835 185.605C397.876 185.55 397.88 185.451 397.864 185.389C397.847 185.327 397.795 185.253 397.735 185.221C397.67 185.186 397.59 185.169 397.519 185.193L397.451 185.221C397.409 185.246 397.376 185.28 397.35 185.322C397.21 185.508 397.07 185.696 396.93 185.882C396.889 185.937 396.885 186.037 396.902 186.098C396.919 186.16 396.971 186.234 397.031 186.267C397.095 186.302 397.175 186.318 397.247 186.295L397.314 186.267C397.356 186.241 397.39 186.208 397.415 186.166Z" fill="#555A60"/>
<path d="M366.743 93.3617C366.08 90.0239 365.699 86.6399 365.604 83.2488C365.591 82.8157 365.585 82.3727 365.721 81.9592C365.857 81.5456 366.162 81.1601 366.596 81.0241C367.116 80.8615 367.68 81.083 368.172 81.3157C371.311 82.8031 374.568 85.1469 376.713 87.7782C376.713 87.7782 373.262 89.0623 371.821 90.0127C370.38 90.9631 366.745 93.3617 366.745 93.3617H366.743Z" fill="#FAC985"/>
<path d="M415.902 93.3572C416.488 90.0054 416.793 86.6129 416.811 83.2205C416.814 82.7873 416.809 82.3443 416.664 81.935C416.518 81.5257 416.205 81.1458 415.768 81.0196C415.244 80.8682 414.686 81.1023 414.199 81.3476C411.096 82.9065 407.005 85.312 404.922 87.9923C404.922 87.9923 409.289 89.2077 410.751 90.1259C412.213 91.0427 415.902 93.3586 415.902 93.3586V93.3572Z" fill="#FAC985"/>
<path d="M360.82 113.708C357.457 112.876 354.006 112.475 350.541 112.522C349.798 112.531 349.795 113.688 350.541 113.678C353.907 113.633 357.244 114.015 360.512 114.823C361.234 115.002 361.542 113.887 360.819 113.708H360.82Z" fill="#555A60"/>
<path d="M360.753 118.988C357.206 119.168 353.761 120.002 350.517 121.444C350.092 121.633 350.192 122.228 350.517 122.442L350.734 122.587C351.357 122.999 351.937 121.998 351.317 121.589L351.1 121.444V122.442C354.148 121.087 357.422 120.314 360.752 120.145C361.492 120.107 361.497 118.95 360.752 118.988H360.753Z" fill="#555A60"/>
<path d="M420.242 116.058C424.542 115.547 428.876 115.474 433.191 115.838C433.933 115.901 433.928 114.743 433.191 114.682C428.878 114.317 424.542 114.389 420.242 114.902C419.512 114.989 419.504 116.147 420.242 116.058Z" fill="#555A60"/>
<path d="M418.941 121.272C423.072 121.739 427.144 122.799 430.949 124.484L431.088 123.427C430.991 123.467 430.893 123.51 430.796 123.55C430.12 123.835 430.418 124.955 431.103 124.666C431.2 124.625 431.298 124.583 431.395 124.543C431.787 124.377 432.046 123.713 431.533 123.486C427.527 121.712 423.292 120.609 418.942 120.116C418.203 120.032 418.21 121.19 418.942 121.272H418.941Z" fill="#555A60"/>
<path d="M400.801 117.647C402.422 117.647 403.736 115.962 403.736 113.883C403.736 111.804 402.422 110.119 400.801 110.119C399.179 110.119 397.865 111.804 397.865 113.883C397.865 115.962 399.179 117.647 400.801 117.647Z" fill="#555A60"/>
<path d="M380.296 117.674C381.895 117.407 382.914 115.529 382.572 113.478C382.23 111.428 380.657 109.982 379.058 110.248C377.458 110.515 376.439 112.394 376.781 114.444C377.123 116.495 378.697 117.94 380.296 117.674Z" fill="#555A60"/>
<path d="M387.27 117.709C387.2 118.841 388.441 120.348 390.15 120.456C391.859 120.564 393.255 119.15 393.326 118.017C393.396 116.884 392.091 116.185 390.382 116.078C388.674 115.972 387.342 116.577 387.27 117.71V117.709Z" fill="#555A60"/>
<path d="M389.872 119.488C389.917 120.527 389.882 121.565 389.926 122.604C389.959 123.346 391.115 123.35 391.083 122.604C391.038 121.565 391.073 120.527 391.028 119.488C390.996 118.746 389.84 118.742 389.872 119.488Z" fill="#555A60"/>
<path d="M367.583 134.719C363.107 131.95 359.871 127.512 358.235 122.556C357.102 119.125 356.716 115.597 357.11 112.006C357.465 108.772 358.261 105.584 359.335 102.517C360.001 100.615 360.775 98.7446 361.693 96.9489C361.827 96.6853 362.043 96.3993 362.123 96.1092C362.224 95.7433 362.105 95.2302 362.088 94.8475C362.067 94.3877 362.049 93.9293 362.032 93.4695C361.994 92.4195 361.968 91.3695 361.944 90.3182C361.9 88.3598 361.871 86.4 361.809 84.4417C361.757 82.7749 361.577 81.0899 361.651 79.4217C361.707 78.1502 361.963 76.6012 363.107 75.8386C364.251 75.076 365.915 75.4994 367.111 75.826C370.47 76.7456 373.409 79.1217 376.041 81.3058C377.5 82.5169 378.875 83.8249 380.152 85.2267C380.534 85.6458 380.908 86.0734 381.27 86.5108C381.382 86.6454 381.491 86.7813 381.6 86.9187C381.71 87.0561 381.633 86.958 381.662 86.9972C381.809 87.1921 382.056 87.3547 382.315 87.2636C384.32 86.557 386.574 86.3271 388.678 86.1813C391.384 85.9935 394.075 86.2444 396.708 86.9019C397.462 87.0897 398.212 87.307 398.944 87.5692C399.325 87.7051 399.587 87.8229 399.949 87.5495C400.892 86.8374 401.682 85.7972 402.516 84.9632C404.233 83.2473 406.001 81.5777 407.861 80.0161C409.954 78.2596 412.254 76.3629 414.923 75.6003C415.898 75.3213 417.028 75.1531 418.006 75.512C418.9 75.84 419.636 76.7694 420.098 77.5671C421.215 79.4988 420.773 82.1076 420.682 84.2454C420.525 87.8804 420.287 91.5125 419.997 95.1391C419.981 95.3339 420.117 95.547 420.283 95.6381C421.686 96.4105 422.854 98.3605 423.668 99.7623C425.638 103.151 426.801 106.966 427.296 110.845C427.662 113.716 427.491 116.46 426.926 119.294C426.274 122.565 425.324 125.841 423.911 128.867C423.127 130.545 422.175 132.12 420.748 133.331C420.271 133.736 419.747 134.088 419.191 134.372C419.007 134.466 418.822 134.553 418.627 134.62C418.558 134.644 418.181 134.73 418.371 134.707C417.64 134.794 417.632 135.952 418.371 135.864C419.2 135.766 420.006 135.29 420.682 134.826C422.057 133.882 423.182 132.609 424.021 131.172C425.797 128.128 426.888 124.613 427.693 121.201C428.403 118.189 428.858 115.14 428.583 112.047C428.234 108.119 427.251 104.188 425.469 100.658C424.607 98.9507 423.59 97.2699 422.283 95.8624C421.872 95.4194 421.403 94.9358 420.867 94.64L421.153 95.1391C421.415 91.8602 421.633 88.5771 421.791 85.2912C421.844 84.1837 421.891 83.0763 421.92 81.9674C421.951 80.7969 422.025 79.6011 421.715 78.4586C421.199 76.5605 419.642 74.5405 417.604 74.2265C415.015 73.8284 412.421 75.2022 410.372 76.6278C408.16 78.1671 406.109 79.9376 404.142 81.7768C402.68 83.1436 401.274 84.565 399.875 85.9949C399.704 86.1701 399.535 86.3468 399.36 86.5164C399.317 86.5584 399.244 86.6047 399.214 86.6566C399.203 86.6762 399.158 86.6916 399.151 86.7126C399.184 86.6173 399.632 86.5683 399.646 86.5977C399.551 86.3846 398.463 86.187 398.257 86.1239C395.458 85.2772 392.493 84.8538 389.568 84.9716C387.087 85.0725 384.369 85.3136 382.008 86.1449L382.662 86.4112C381.215 84.4991 379.493 82.7637 377.691 81.1908C375.166 78.9857 372.371 76.733 369.281 75.369C367.017 74.3695 363.405 73.3658 361.609 75.6844C360.752 76.789 360.527 78.2498 360.487 79.6123C360.433 81.4431 360.622 83.2936 360.674 85.1244C360.731 87.1738 360.759 89.2233 360.81 91.2714C360.835 92.2779 360.866 93.2845 360.908 94.291C360.919 94.5671 360.932 94.8433 360.944 95.1195C360.944 95.1152 361.034 95.8596 361.065 95.6606C361.061 95.69 361.026 95.718 361.017 95.7475C360.87 96.2353 360.501 96.7372 360.28 97.197C359.826 98.146 359.407 99.1105 359.014 100.088C356.465 106.432 354.869 113.597 356.425 120.375C357.857 126.617 361.487 132.302 366.999 135.711C367.634 136.104 368.216 135.104 367.582 134.713L367.583 134.719Z" fill="#555A60"/>
<path d="M385.803 124.367C387.439 125.522 389.978 125.107 390.794 122.978C391.094 122.197 390.063 121.517 389.761 122.305C389.194 123.783 387.545 124.019 386.408 123.216C385.754 122.755 385.153 123.908 385.803 124.367Z" fill="#555A60"/>
<path d="M394.637 123.373C393.469 124.049 391.616 123.934 390.979 122.584C390.663 121.911 389.664 122.497 389.981 123.167C390.887 125.088 393.545 125.341 395.22 124.371C395.863 123.998 395.282 122.999 394.637 123.373Z" fill="#555A60"/>
<path opacity="0.5" d="M424.981 184.665H357.06C353.303 184.665 350.258 187.71 350.258 191.466V191.839C350.258 195.596 353.303 198.641 357.06 198.641H424.981C428.738 198.641 431.783 195.596 431.783 191.839V191.466C431.783 187.71 428.738 184.665 424.981 184.665Z" fill="#5E331A"/>
<path d="M419.948 135.32L418.312 135.997L419.808 137.399L422.484 140.661L434.914 140.131L428.829 135.045L419.948 135.32Z" fill="#BA8E5C"/>
<path d="M349.182 139.998L356.509 134.158L366.939 134.08L366.518 135.714L368.2 134.689L363.678 139.998L362.477 139.775L349.182 139.998Z" fill="#BA8E5C"/>
<path d="M429.194 196.306H352.846C351.722 196.306 350.811 195.395 350.811 194.271V140.976H430.963L431.231 194.261C431.237 195.389 430.324 196.307 429.196 196.307L429.194 196.306Z" fill="#E9C294" stroke="#555A60" stroke-width="0.981285" stroke-linecap="round" stroke-linejoin="round"/>
<path d="M354.852 161.452C364.359 161.452 373.867 161.452 383.374 161.452C392.881 161.452 402.481 161.452 412.036 161.452C417.395 161.452 422.754 161.452 428.113 161.452C429.323 161.452 430.483 160.388 430.426 159.139C430.37 157.89 429.41 156.826 428.113 156.826C418.606 156.826 409.099 156.826 399.592 156.826C390.084 156.826 380.485 156.826 370.93 156.826C365.571 156.826 360.211 156.826 354.852 156.826C353.642 156.826 352.483 157.89 352.539 159.139C352.595 160.388 353.555 161.452 354.852 161.452Z" fill="#B18F7B"/>
<path d="M419.975 134.716L428.249 134.776L435.675 140.274L347.686 140.419L356.69 134.25L363.233 134.298" stroke="#555A60" stroke-width="0.841102" stroke-linecap="round" stroke-linejoin="round"/>
<path d="M390.732 178.689C389.874 178.689 389.179 177.994 389.179 177.136V176.766C389.179 173.288 393.522 172.547 393.522 169.784C393.522 168.526 392.855 167.811 391.351 167.811C390.131 167.811 389.293 168.444 388.703 169.825C388.376 170.589 387.526 170.984 386.744 170.705L386.019 170.447C385.213 170.16 384.801 169.277 385.07 168.465C385.896 165.984 387.863 164.086 391.351 164.086C394.582 164.086 397.666 165.739 397.666 169.808C397.666 174.57 393.323 175.434 393.323 176.815V177.136C393.323 177.994 392.628 178.689 391.77 178.689H390.732ZM389.007 182.882C389.007 181.501 389.796 180.539 391.3 180.539C392.804 180.539 393.594 181.501 393.594 182.882C393.594 184.263 392.804 185.226 391.3 185.226C389.796 185.226 389.007 184.264 389.007 182.882Z" fill="#B1724E"/>
<path d="M341.023 158.742H443.343C444.16 158.742 444.689 157.877 444.316 157.15L435.989 140.942C435.801 140.577 435.426 140.347 435.015 140.349L348.363 140.468C347.936 140.468 347.547 140.719 347.371 141.107L340.028 157.195C339.697 157.918 340.227 158.741 341.022 158.741L341.023 158.742Z" fill="#EAC294" stroke="#555A60" stroke-width="0.841102" stroke-linecap="round" stroke-linejoin="round"/>
<path d="M361.287 144.766C362.927 147.314 365.962 148.837 368.993 148.847C372.024 148.856 374.984 147.427 377.034 145.195C378.287 143.831 379.233 142.144 379.512 140.314C379.791 138.483 379.354 136.511 378.15 135.104C376.55 133.239 373.902 132.629 371.445 132.667C368.003 132.719 363.042 134.377 361.271 136.655C359.501 138.933 359.648 142.217 361.287 144.766Z" fill="white"/>
<path d="M360.777 144.963C363.055 148.402 367.34 149.954 371.329 149.069C375.381 148.169 379.253 144.792 380.021 140.602C380.349 138.812 380.199 136.935 379.159 135.396C378.112 133.847 376.552 132.845 374.755 132.372C371.096 131.409 366.897 132.316 363.6 134.042C361.81 134.98 360.351 136.303 359.728 138.278C359.019 140.528 359.55 143 360.777 144.965C361.171 145.594 362.172 145.015 361.775 144.382C360.78 142.788 360.281 140.852 360.731 138.992C361.109 137.427 362.098 136.29 363.445 135.46C366.119 133.813 369.575 132.937 372.709 133.194C375.844 133.45 379.079 135.466 379.029 139.021C378.974 142.861 375.97 146.187 372.502 147.512C368.678 148.974 364.097 147.886 361.777 144.382C361.367 143.764 360.365 144.342 360.778 144.965L360.777 144.963Z" fill="#555A60"/>
<path d="M404.111 141.744C404.448 138.732 406.49 136.018 409.2 134.663C411.91 133.307 415.199 133.272 418.026 134.36C419.754 135.025 421.351 136.115 422.415 137.631C423.479 139.146 423.964 141.109 423.51 142.903C422.907 145.285 420.806 147.009 418.588 148.067C415.482 149.55 410.3 150.271 407.701 149.016C405.102 147.762 403.774 144.755 404.11 141.744H404.111Z" fill="white"/>
<path d="M404.912 139.718C406.18 136.391 409.535 134.186 413.058 134.101C416.581 134.015 420.582 135.997 422.289 139.3C423.22 141.1 423.361 143.381 422.33 145.172C421.469 146.67 419.925 147.64 418.332 148.206C415.378 149.256 411.89 149.218 408.897 148.333C407.265 147.851 405.896 146.999 405.095 145.45C404.176 143.672 404.257 141.564 404.91 139.718C405.159 139.014 404.041 138.713 403.795 139.411C402.558 142.908 403.514 147.254 407.113 148.898C410.368 150.387 414.632 150.537 418.041 149.515C419.889 148.962 421.686 147.996 422.871 146.435C424.184 144.706 424.493 142.409 423.928 140.336C422.806 136.22 418.601 133.482 414.53 133.013C409.958 132.486 405.447 135.085 403.796 139.411C403.531 140.106 404.648 140.408 404.912 139.718Z" fill="#555A60"/>
<path d="M367.357 144.103C367.418 145.318 367.481 146.535 367.543 147.75C367.594 148.737 369.136 148.744 369.085 147.75C369.023 146.535 368.96 145.318 368.899 144.103C368.848 143.116 367.306 143.109 367.357 144.103Z" fill="#555A60"/>
<path d="M372.848 143.407C372.977 144.428 373.106 145.447 373.235 146.467C373.288 146.884 373.552 147.234 374.006 147.238C374.381 147.243 374.829 146.881 374.777 146.467C374.648 145.447 374.519 144.428 374.39 143.407C374.337 142.991 374.073 142.64 373.619 142.636C373.243 142.632 372.796 142.994 372.848 143.407Z" fill="#555A60"/>
<path d="M410.548 143.841C410.186 145.31 409.825 146.78 409.463 148.249C409.226 149.212 410.712 149.625 410.95 148.659C411.312 147.19 411.674 145.719 412.035 144.25C412.272 143.287 410.786 142.875 410.548 143.841Z" fill="#555A60"/>
<path d="M416.063 144.595C415.686 145.904 415.309 147.213 414.932 148.521C414.657 149.477 416.145 149.884 416.419 148.931C416.797 147.621 417.174 146.312 417.551 145.004C417.826 144.048 416.338 143.642 416.063 144.595Z" fill="#555A60"/>
</g>
<g filter="url(#filter0_d_2647_102063)">
<rect x="353.5" y="121.5" width="278" height="193.636" rx="9.64162" fill="white"/>
<path d="M466.173 152.192C466.757 152.192 467.28 152.284 467.743 152.469C468.209 152.654 468.574 152.914 468.837 153.25C469.101 153.586 469.232 153.972 469.232 154.407C469.232 154.81 469.123 155.169 468.906 155.483C468.691 155.798 468.39 156.052 468.002 156.246C467.618 156.437 467.174 156.558 466.672 156.609V158.112H469.941V158.938H462.441V158.112H465.673V156.609C465.174 156.558 464.732 156.437 464.348 156.246C463.963 156.052 463.664 155.798 463.449 155.483C463.234 155.169 463.128 154.81 463.131 154.407C463.128 153.972 463.256 153.586 463.517 153.25C463.78 152.914 464.143 152.654 464.606 152.469C465.069 152.284 465.591 152.192 466.173 152.192ZM466.173 153.009C465.773 153.006 465.417 153.062 465.106 153.177C464.794 153.289 464.55 153.453 464.375 153.667C464.202 153.879 464.118 154.126 464.121 154.407C464.118 154.698 464.202 154.951 464.375 155.166C464.55 155.377 464.794 155.541 465.106 155.656C465.417 155.768 465.773 155.824 466.173 155.824C466.578 155.824 466.937 155.768 467.249 155.656C467.563 155.541 467.807 155.377 467.979 155.166C468.155 154.951 468.243 154.698 468.243 154.407C468.243 154.123 468.155 153.875 467.979 153.663C467.804 153.451 467.559 153.289 467.244 153.177C466.932 153.062 466.575 153.006 466.173 153.009ZM477.105 154.308H471.439V151.838H472.429V153.499H477.105V154.308ZM477.967 155.742H470.467V154.934H477.967V155.742ZM477.05 158.412H472.383V159.047H477.322V159.837H471.366V157.676H476.051V157.095H471.357V156.314H477.05V158.412ZM481.172 152.301C481.599 152.298 481.983 152.381 482.325 152.551C482.67 152.717 482.94 152.952 483.134 153.254C483.33 153.557 483.43 153.899 483.433 154.28C483.43 154.665 483.33 155.008 483.134 155.311C482.94 155.614 482.672 155.85 482.33 156.019C481.988 156.186 481.602 156.269 481.172 156.269C480.746 156.269 480.361 156.184 480.019 156.015C479.677 155.845 479.408 155.611 479.211 155.311C479.017 155.008 478.921 154.665 478.921 154.28C478.921 153.899 479.017 153.557 479.211 153.254C479.408 152.952 479.677 152.717 480.019 152.551C480.364 152.381 480.749 152.298 481.172 152.301ZM481.172 153.173C480.933 153.173 480.718 153.218 480.528 153.309C480.337 153.4 480.187 153.53 480.078 153.699C479.972 153.866 479.919 154.059 479.919 154.28C479.919 154.504 479.972 154.701 480.078 154.871C480.187 155.037 480.337 155.166 480.528 155.256C480.718 155.344 480.933 155.388 481.172 155.388C481.414 155.388 481.631 155.344 481.822 155.256C482.015 155.166 482.167 155.037 482.275 154.871C482.387 154.701 482.443 154.504 482.443 154.28C482.443 154.059 482.387 153.866 482.275 153.699C482.167 153.53 482.015 153.4 481.822 153.309C481.631 153.218 481.414 153.173 481.172 153.173ZM485.349 159.946H484.341V151.729H485.349V159.946ZM478.548 157.404C479.553 157.404 480.491 157.387 481.363 157.354C482.238 157.317 483.067 157.243 483.851 157.131L483.933 157.867C483.121 158.024 482.297 158.124 481.458 158.166C480.623 158.209 479.695 158.23 478.675 158.23L478.548 157.404ZM495.773 157.831H494.81V154.934H493.957V157.64H493.012V151.892H493.957V154.108H494.81V151.738H495.773V157.831ZM496 159.774H490.279V157.258H491.287V158.956H496V159.774ZM492.213 154.898H490.08V155.869C490.579 155.863 491.022 155.845 491.41 155.815C491.797 155.782 492.192 155.727 492.595 155.651L492.685 156.459C492.216 156.541 491.756 156.597 491.305 156.627C490.854 156.655 490.307 156.668 489.662 156.668H489.099V154.135H491.242V153.209H489.09V152.41H492.213V154.898ZM500.975 153.027H498.242V155.343C498.963 155.337 499.55 155.318 500.004 155.288C500.461 155.255 500.915 155.194 501.366 155.107L501.466 155.915C500.96 156.018 500.444 156.087 499.917 156.124C499.394 156.16 498.711 156.178 497.87 156.178H497.234V152.219H500.975V153.027ZM503.663 156.469H502.655V154.48H500.548V153.663H502.655V151.729H503.663V156.469ZM503.663 159.828H498.206V156.841H503.663V159.828ZM499.214 159.02H502.673V157.64H499.214V159.02ZM511.372 157.939H507.467V152.501H511.372V157.939ZM508.466 157.131H510.391V153.291H508.466V157.131ZM513.859 159.946H512.842V151.729H513.859V159.946ZM518.054 153.182C518.054 153.572 518.127 153.949 518.272 154.312C518.417 154.675 518.632 155.001 518.917 155.288C519.204 155.573 519.552 155.791 519.961 155.942L519.398 156.723C518.968 156.553 518.596 156.307 518.281 155.983C517.969 155.659 517.726 155.279 517.55 154.843C517.372 155.306 517.116 155.71 516.783 156.055C516.453 156.397 516.057 156.659 515.594 156.841L515.049 156.042C515.473 155.887 515.833 155.665 516.129 155.374C516.429 155.084 516.654 154.749 516.806 154.371C516.957 153.993 517.034 153.596 517.037 153.182V152.201H518.054V153.182ZM521.94 157.831H520.932V155.288H519.434V154.48H520.932V153.672H519.434V152.855H520.932V151.738H521.94V157.831ZM522.122 159.774H516.529V157.231H517.555V158.956H522.122V159.774Z" fill="#2E3135"/>
<path d="M465.333 171.785H460.996V169.294H465.246V169.766H461.577V171.328H465.333V171.785ZM466.088 173.107H463.393V175.344H462.834V173.107H460.175V172.642H466.088V173.107ZM471.747 169.802C471.747 170.182 471.737 170.527 471.718 170.837C471.698 171.145 471.651 171.492 471.576 171.88H472.524V172.359H466.611V171.88H471.006C471.083 171.485 471.132 171.135 471.151 170.83C471.17 170.525 471.18 170.182 471.18 169.802V169.766H467.359V169.301H471.747V169.802ZM471.943 175.221H467.396V173.085H467.962V174.742H471.943V175.221ZM478.19 171.785H473.853V169.294H478.102V169.766H474.434V171.328H478.19V171.785ZM478.945 173.107H476.25V175.344H475.691V173.107H473.032V172.642H478.945V173.107ZM484.604 169.802C484.604 170.182 484.594 170.527 484.574 170.837C484.555 171.145 484.508 171.492 484.433 171.88H485.381V172.359H479.468V171.88H483.863C483.94 171.485 483.989 171.135 484.008 170.83C484.027 170.525 484.037 170.182 484.037 169.802V169.766H480.216V169.301H484.604V169.802ZM484.8 175.221H480.253V173.085H480.819V174.742H484.8V175.221ZM493.109 175.373H492.528V173.783H491.039V173.332H492.528V168.916H493.109V175.373ZM487.734 172.337C488.606 172.332 489.383 172.32 490.066 172.301C490.749 172.279 491.402 172.236 492.027 172.17L492.063 172.599C491.468 172.676 490.819 172.733 490.117 172.769V175.17H489.543V172.795C489.001 172.814 488.424 172.824 487.814 172.824L487.734 172.337ZM491.461 171.596H488.308V169.279H491.461V171.596ZM488.867 171.124H490.901V169.744H488.867V171.124ZM499.189 171.538H500.235V172.018H499.189V175.366H498.623V168.909H499.189V171.538ZM497.519 169.606C497.519 170.567 497.278 171.439 496.796 172.221C496.314 173.001 495.567 173.64 494.555 174.139L494.235 173.688C495.066 173.274 495.709 172.763 496.164 172.156C496.619 171.545 496.879 170.855 496.945 170.085H494.533V169.606H497.519ZM508.53 171.967H507.484V175.366H506.918V168.909H507.484V171.487H508.53V171.967ZM503.322 173.245C503.828 173.243 504.324 173.219 504.808 173.173C505.292 173.127 505.787 173.051 506.293 172.947L506.366 173.434C505.84 173.541 505.326 173.616 504.822 173.659C504.321 173.703 503.804 173.725 503.271 173.725H502.756V169.548H503.322V173.245ZM511.857 168.989C512.337 168.989 512.747 169.032 513.089 169.119C513.43 169.207 513.69 169.334 513.869 169.501C514.049 169.668 514.138 169.87 514.138 170.107C514.138 170.444 513.963 170.708 513.612 170.899C513.263 171.09 512.768 171.199 512.126 171.226V171.72H514.799V172.185H508.915V171.72H511.567V171.226C510.93 171.199 510.437 171.09 510.089 170.899C509.742 170.705 509.569 170.441 509.569 170.107C509.569 169.87 509.659 169.668 509.838 169.501C510.02 169.334 510.281 169.207 510.622 169.119C510.966 169.032 511.378 168.989 511.857 168.989ZM511.857 169.424C511.317 169.429 510.9 169.491 510.604 169.61C510.309 169.728 510.162 169.894 510.165 170.107C510.162 170.328 510.308 170.497 510.601 170.616C510.896 170.732 511.315 170.792 511.857 170.797C512.397 170.792 512.815 170.732 513.11 170.616C513.408 170.497 513.557 170.328 513.557 170.107C513.557 169.894 513.407 169.728 513.107 169.61C512.809 169.491 512.392 169.429 511.857 169.424ZM514.044 174.175H510.208V174.843H514.24V175.294H509.642V173.754H513.484V173.173H509.627V172.729H514.044V174.175ZM520.458 171.574H521.438V172.054H520.458V175.366H519.884V168.909H520.458V171.574ZM517.305 169.613C517.3 170.456 517.182 171.237 516.949 171.956C516.719 172.673 516.329 173.323 515.78 173.906L515.322 173.579C515.789 173.102 516.137 172.573 516.364 171.992C516.592 171.409 516.725 170.775 516.764 170.093H515.526V169.613H517.305ZM519.078 169.613C519.073 170.533 518.969 171.39 518.765 172.185C518.562 172.976 518.186 173.693 517.639 174.335L517.174 174.015C517.642 173.487 517.978 172.892 518.184 172.228C518.392 171.565 518.511 170.853 518.54 170.093H517.509V169.613H519.078ZM522.804 173.26C522.806 172.947 522.838 172.694 522.898 172.501C522.961 172.307 523.048 172.151 523.16 172.032C523.271 171.913 523.421 171.797 523.61 171.683C523.77 171.587 523.898 171.464 523.995 171.317C524.092 171.167 524.14 170.996 524.14 170.805C524.14 170.645 524.102 170.504 524.024 170.383C523.949 170.26 523.845 170.165 523.712 170.1C523.581 170.032 523.436 169.998 523.276 169.998C523.131 169.998 522.994 170.029 522.866 170.089C522.74 170.147 522.634 170.24 522.55 170.369C522.467 170.495 522.419 170.652 522.404 170.841H521.743C521.755 170.555 521.83 170.307 521.968 170.096C522.107 169.886 522.289 169.725 522.517 169.613C522.745 169.502 522.998 169.446 523.276 169.446C523.574 169.446 523.837 169.507 524.064 169.628C524.292 169.746 524.467 169.911 524.591 170.122C524.717 170.332 524.78 170.57 524.78 170.834C524.78 171.369 524.54 171.783 524.06 172.076C523.906 172.17 523.783 172.268 523.694 172.37C523.606 172.472 523.541 172.593 523.498 172.733C523.456 172.874 523.433 173.049 523.429 173.26V173.296H522.804V173.26ZM523.138 174.821C523.053 174.821 522.975 174.801 522.902 174.76C522.832 174.716 522.775 174.658 522.731 174.585C522.69 174.513 522.671 174.434 522.673 174.349C522.671 174.267 522.69 174.191 522.731 174.12C522.775 174.048 522.832 173.991 522.902 173.95C522.975 173.906 523.053 173.884 523.138 173.884C523.22 173.884 523.297 173.906 523.367 173.95C523.439 173.991 523.496 174.048 523.537 174.12C523.581 174.191 523.603 174.267 523.603 174.349C523.603 174.434 523.581 174.513 523.537 174.585C523.496 174.658 523.439 174.716 523.367 174.76C523.297 174.801 523.22 174.821 523.138 174.821Z" fill="#2E3135"/>
<g clip-path="url(#clip1_2647_102063)">
<path d="M592.451 186.308H392.551C388.572 186.308 385.346 189.534 385.346 193.513V261.386C385.346 265.366 388.572 268.592 392.551 268.592H592.451C596.431 268.592 599.657 265.366 599.657 261.386V193.513C599.657 189.534 596.431 186.308 592.451 186.308Z" fill="white"/>
<path d="M392.703 250.052C391.722 250.829 391.383 252.284 391.945 253.409C392.508 254.534 393.833 255.101 395.009 254.822C395.627 254.673 396.255 254.232 396.264 253.539C396.269 252.962 395.795 252.567 395.237 252.6C393.893 252.674 393.466 254.371 394.051 255.384C394.921 256.886 396.91 256.816 398.198 255.952C398.421 255.803 398.212 255.44 397.989 255.589C397.055 256.217 395.762 256.444 394.837 255.668C394.13 255.078 393.87 253.697 394.8 253.153C395.209 252.911 395.911 252.972 395.837 253.599C395.771 254.166 395.116 254.418 394.623 254.464C393.693 254.552 392.717 254.041 392.303 253.195C391.829 252.223 392.164 251.005 392.996 250.345C393.205 250.178 392.908 249.885 392.699 250.048L392.703 250.052Z" fill="#FEC84B"/>
<path d="M584.863 246.208C583.779 245.566 582.269 245.743 581.418 246.7C580.567 247.658 580.511 249.146 581.274 250.141C581.646 250.629 582.255 250.996 582.873 250.75C583.412 250.536 583.589 249.945 583.347 249.439C582.771 248.216 581.027 248.467 580.307 249.392C579.242 250.764 580.042 252.553 581.306 253.451C581.525 253.609 581.734 253.246 581.516 253.088C580.651 252.474 580.023 251.442 580.298 250.354C580.53 249.425 581.674 248.597 582.603 249.202C583.026 249.476 583.282 250.224 582.627 250.392C582.078 250.531 581.613 249.996 581.399 249.559C580.986 248.732 581.111 247.64 581.743 246.956C582.473 246.161 583.733 246.022 584.649 246.566C584.881 246.705 585.09 246.342 584.858 246.203L584.863 246.208Z" fill="#FEC84B"/>
<path d="M587.48 253.404L588.001 255.789L584.226 256.733L583.733 254.478C583.733 254.478 587.443 253.381 587.48 253.404Z" fill="#CBD9F8"/>
<path d="M397.213 227.743L400.598 229.649L397.553 235.046L394.35 233.242C394.35 233.242 397.139 227.761 397.209 227.743H397.213Z" fill="#44C7B4"/>
<path d="M416.628 193.904L415.586 197.646L409.617 195.991L410.598 192.449C410.598 192.449 416.586 193.839 416.623 193.904H416.628Z" fill="#CBD9F8"/>
<path d="M401.667 206.637L401.086 202.797L407.213 201.867L407.766 205.503C407.766 205.503 401.732 206.683 401.672 206.642L401.667 206.637Z" fill="#FFDB6D"/>
<path d="M401.676 251.945L403.549 250.601L405.618 253.641L403.847 254.911C403.847 254.911 401.671 251.986 401.676 251.945Z" fill="#ED83A6"/>
<path d="M583.961 199.157L586.597 196.103L591.367 200.421L588.875 203.313C588.875 203.313 583.97 199.236 583.966 199.161L583.961 199.157Z" fill="#44C7B4"/>
<path d="M588.791 236.85L590.892 238.435L588.284 241.722L586.299 240.225C586.299 240.225 588.744 236.859 588.791 236.854V236.85Z" fill="#ED83A6"/>
<path d="M394.875 198.111C395.902 198.111 396.735 197.279 396.735 196.252C396.735 195.225 395.902 194.392 394.875 194.392C393.848 194.392 393.016 195.225 393.016 196.252C393.016 197.279 393.848 198.111 394.875 198.111Z" fill="#D3D570"/>
<path d="M586.509 231.271C587.536 231.271 588.368 230.439 588.368 229.412C588.368 228.385 587.536 227.552 586.509 227.552C585.482 227.552 584.649 228.385 584.649 229.412C584.649 230.439 585.482 231.271 586.509 231.271Z" fill="#D3D570"/>
<path d="M575.663 195.94C576.69 195.94 577.523 195.108 577.523 194.081C577.523 193.054 576.69 192.221 575.663 192.221C574.636 192.221 573.804 193.054 573.804 194.081C573.804 195.108 574.636 195.94 575.663 195.94Z" fill="#FFDE54"/>
<path d="M410.006 258.746L414.051 255.882L414.841 261.289L415.631 266.695L410.792 264.153L405.957 261.614L410.006 258.746Z" fill="#7651FA"/>
<path d="M578.583 259.318L574.534 256.449L573.743 261.856L572.953 267.262L577.793 264.719L582.627 262.181L578.583 259.318Z" fill="#7651FA"/>
<path d="M395.953 211.021C397.408 211.258 398.073 212.741 397.385 214.038C397.06 214.652 396.395 215.047 395.693 214.87C395.302 214.772 394.833 214.373 395.144 213.95C395.326 213.703 395.693 213.61 395.981 213.596C397.343 213.531 398.236 215.107 398.31 216.293C398.394 217.655 397.557 218.822 396.455 219.542C396.232 219.691 396.441 220.053 396.664 219.905C397.845 219.133 398.752 217.896 398.728 216.437C398.71 215.14 397.906 213.615 396.581 213.252C396.055 213.108 395.4 213.173 394.968 213.531C394.572 213.861 394.517 214.396 394.823 214.805C395.223 215.335 396.014 215.437 396.609 215.237C397.204 215.037 397.608 214.591 397.845 214.038C398.482 212.541 397.706 210.886 396.065 210.616C395.8 210.575 395.688 210.974 395.953 211.021Z" fill="#97C6FF"/>
<path d="M404.971 234.242C405.92 234.846 407.184 235.818 406.784 237.119C406.352 238.537 404.311 238.096 404.288 236.682L404.079 236.892C405.18 236.882 406.24 237.649 406.454 238.76C406.561 239.309 406.436 239.895 406.161 240.378C405.943 240.759 405.297 241.522 404.771 241.392C404.548 241.466 404.483 241.373 404.567 241.113C404.46 240.894 404.488 240.797 404.65 240.815C404.767 240.764 404.943 240.829 405.064 240.871C405.329 240.964 405.576 241.159 405.757 241.368C406.11 241.773 406.296 242.331 406.236 242.865C406.115 244.009 404.878 244.697 403.818 244.404C403.558 244.334 403.446 244.739 403.707 244.809C404.874 245.129 406.222 244.479 406.58 243.288C406.919 242.168 406.231 240.732 405.055 240.429C404.637 240.322 404.074 240.411 403.911 240.866C403.735 241.368 404.213 241.815 404.692 241.838C405.985 241.889 406.896 240.322 406.914 239.197C406.933 237.668 405.571 236.464 404.083 236.473C403.972 236.473 403.874 236.566 403.874 236.682C403.897 238.217 405.785 239.044 406.845 237.849C407.347 237.287 407.361 236.459 407.082 235.785C406.724 234.921 405.943 234.363 405.18 233.875C404.953 233.73 404.743 234.093 404.971 234.237V234.242Z" fill="#7651FA"/>
<path d="M591.571 210.421C592.715 211.184 593.226 212.704 592.701 213.992C592.45 214.605 591.985 215.14 591.408 215.47C590.79 215.828 589.874 216.018 589.265 215.535C588.745 215.126 588.638 214.298 589.27 213.945C589.902 213.592 590.59 213.917 591.009 214.424C591.841 215.433 591.766 216.99 591.032 218.027C590.135 219.291 588.284 219.561 586.997 218.761C586.741 218.603 586.509 219.003 586.764 219.161C588.168 220.03 590.176 219.789 591.25 218.501C592.324 217.213 592.394 215.261 591.283 214.024C590.753 213.434 589.925 213.136 589.172 213.471C588.461 213.787 588.182 214.568 588.494 215.27C588.861 216.093 589.777 216.376 590.618 216.237C591.46 216.098 592.189 215.591 592.691 214.926C593.877 213.355 593.431 211.095 591.808 210.017C591.557 209.849 591.325 210.254 591.576 210.417L591.571 210.421Z" fill="#B1A2F9"/>
<path d="M409.852 263.074C411.177 261.99 412.502 260.907 413.826 259.824C414.11 259.592 414.087 259.076 413.826 258.838C413.524 258.564 413.143 258.592 412.841 258.838C411.516 259.922 410.191 261.005 408.866 262.088C408.583 262.32 408.606 262.836 408.866 263.074C409.168 263.348 409.55 263.32 409.852 263.074Z" fill="#7651FA"/>
<path d="M409.03 264.301C410.95 262.967 412.869 261.628 414.789 260.294C415.096 260.08 415.24 259.685 415.04 259.341C414.864 259.034 414.399 258.876 414.087 259.09C412.168 260.424 410.248 261.763 408.328 263.097C408.021 263.311 407.877 263.706 408.077 264.05C408.253 264.357 408.718 264.515 409.03 264.301Z" fill="white"/>
<path d="M573.776 261.191C575.682 262.465 577.588 263.734 579.499 265.008C579.81 265.217 580.27 265.068 580.452 264.757C580.651 264.413 580.517 264.013 580.2 263.804C578.294 262.53 576.388 261.261 574.478 259.987C574.166 259.778 573.706 259.926 573.525 260.238C573.325 260.582 573.46 260.982 573.776 261.191Z" fill="white"/>
</g>
<path d="M462.155 230.058C463.06 230.058 463.76 230.168 464.253 230.389C464.746 230.61 464.994 230.927 464.997 231.338C464.994 231.75 464.746 232.063 464.253 232.278C463.763 232.493 463.063 232.6 462.155 232.6C461.232 232.6 460.524 232.493 460.031 232.278C459.541 232.063 459.295 231.75 459.295 231.338C459.295 230.927 459.542 230.61 460.035 230.389C460.532 230.168 461.238 230.058 462.155 230.058ZM462.155 230.802C460.939 230.802 460.33 230.981 460.33 231.338C460.33 231.692 460.939 231.865 462.155 231.856C463.363 231.865 463.971 231.692 463.981 231.338C463.971 230.981 463.363 230.802 462.155 230.802ZM465.497 225.8H458.796V225.028H461.656V224.32H462.664V225.028H465.497V225.8ZM462.155 226.054C463.039 226.054 463.716 226.154 464.185 226.353C464.654 226.553 464.888 226.847 464.888 227.234C464.888 227.576 464.698 227.846 464.316 228.042C463.935 228.239 463.384 228.356 462.664 228.392V228.887H465.905V229.677H458.424V228.887H461.656V228.392C460.939 228.356 460.388 228.239 460.004 228.042C459.622 227.846 459.432 227.576 459.432 227.234C459.432 226.847 459.666 226.553 460.135 226.353C460.607 226.154 461.281 226.054 462.155 226.054ZM462.155 226.744C461.605 226.744 461.193 226.785 460.921 226.866C460.648 226.945 460.512 227.068 460.512 227.234C460.512 227.392 460.648 227.51 460.921 227.588C461.196 227.667 461.608 227.709 462.155 227.715C462.709 227.709 463.122 227.667 463.395 227.588C463.67 227.51 463.808 227.392 463.808 227.234C463.808 227.068 463.67 226.945 463.395 226.866C463.122 226.785 462.709 226.744 462.155 226.744ZM473.523 232.609H472.561V228.424H471.635V232.192H470.709V224.556H471.635V227.616H472.561V224.401H473.523V232.609ZM469.782 226.19H467.73V229.84C468.209 229.834 468.64 229.816 469.024 229.786C469.409 229.755 469.798 229.704 470.191 229.631L470.264 230.457C469.81 230.548 469.362 230.609 468.92 230.639C468.478 230.669 467.927 230.687 467.267 230.694H466.714V225.373H469.782V226.19ZM480.814 228.732H476.983V224.991H480.814V228.732ZM477.972 227.924H479.816V225.8H477.972V227.924ZM483.175 226.517H484.319V227.361H483.175V229.831H482.167V224.401H483.175V226.517ZM481.096 229.668C481.093 229.997 481.199 230.309 481.414 230.603C481.629 230.893 481.937 231.143 482.34 231.352C482.745 231.558 483.217 231.698 483.756 231.774L483.357 232.564C482.721 232.461 482.164 232.27 481.686 231.992C481.211 231.717 480.849 231.375 480.601 230.966C480.35 231.375 479.985 231.717 479.507 231.992C479.029 232.27 478.472 232.461 477.836 232.564L477.437 231.774C477.972 231.698 478.44 231.558 478.84 231.352C479.242 231.143 479.551 230.893 479.766 230.603C479.981 230.309 480.088 229.997 480.088 229.668V229.441H481.096V229.668ZM489.576 225.7H487.851C487.857 226.024 487.939 226.335 488.096 226.635C488.254 226.932 488.482 227.196 488.782 227.429C489.085 227.659 489.446 227.833 489.867 227.951L489.358 228.741C488.892 228.602 488.488 228.392 488.146 228.11C487.807 227.829 487.542 227.494 487.352 227.107C487.164 227.525 486.895 227.886 486.544 228.192C486.196 228.498 485.781 228.726 485.3 228.878L484.791 228.088C485.215 227.964 485.58 227.779 485.885 227.534C486.191 227.289 486.423 227.009 486.58 226.694C486.74 226.376 486.825 226.045 486.834 225.7H485.064V224.892H489.576V225.7ZM491.574 228.85H490.557V224.401H491.574V228.85ZM487.143 230.058H490.566V229.214H491.574V232.509H486.144V229.214H487.143V230.058ZM490.566 231.692V230.839H487.143V231.692H490.566ZM498.783 229.468C499.346 229.468 499.833 229.53 500.245 229.654C500.66 229.775 500.977 229.954 501.198 230.19C501.419 230.423 501.531 230.703 501.534 231.029C501.531 231.359 501.419 231.642 501.198 231.878C500.977 232.118 500.66 232.299 500.245 232.423C499.833 232.547 499.346 232.609 498.783 232.609C498.214 232.609 497.721 232.547 497.303 232.423C496.886 232.299 496.565 232.118 496.341 231.878C496.117 231.642 496.005 231.359 496.005 231.029C496.005 230.703 496.117 230.423 496.341 230.19C496.565 229.954 496.884 229.775 497.299 229.654C497.716 229.53 498.211 229.468 498.783 229.468ZM498.783 230.258C498.214 230.258 497.777 230.324 497.471 230.457C497.165 230.588 497.013 230.778 497.013 231.029C497.013 231.284 497.165 231.477 497.471 231.611C497.78 231.744 498.217 231.81 498.783 231.81C499.349 231.81 499.782 231.744 500.082 231.611C500.384 231.477 500.536 231.284 500.536 231.029C500.536 230.778 500.384 230.588 500.082 230.457C499.782 230.324 499.349 230.258 498.783 230.258ZM501.453 226.363H502.597V227.207H501.453V229.268H500.445V224.401H501.453V226.363ZM496.259 226.027H498.175V224.919H499.174V228.75H495.26V224.919H496.259V226.027ZM498.175 227.951V226.816H496.259V227.951H498.175ZM510.505 229.313H507.336V230.821H506.338V229.313H503.005V228.505H510.505V229.313ZM509.543 227.743H503.959V224.774H509.543V227.743ZM504.939 226.953H508.544V225.563H504.939V226.953ZM509.679 232.446H503.913V230.067H504.921V231.629H509.679V232.446ZM517.478 227.67H518.74V228.505H517.478V232.609H516.48V224.401H517.478V227.67ZM515.844 226.471H511.005V225.663H512.948V224.519H513.955V225.663H515.844V226.471ZM513.456 227.007C513.846 227.007 514.198 227.09 514.509 227.257C514.824 227.42 515.071 227.649 515.249 227.942C515.428 228.236 515.517 228.569 515.517 228.941C515.517 229.313 515.428 229.646 515.249 229.94C515.071 230.23 514.824 230.457 514.509 230.621C514.198 230.784 513.846 230.866 513.456 230.866C513.06 230.866 512.704 230.784 512.389 230.621C512.074 230.457 511.828 230.23 511.649 229.94C511.471 229.646 511.383 229.313 511.386 228.941C511.383 228.569 511.471 228.236 511.649 227.942C511.828 227.649 512.074 227.42 512.389 227.257C512.704 227.09 513.06 227.007 513.456 227.007ZM513.456 227.833C513.241 227.833 513.049 227.879 512.879 227.97C512.713 228.06 512.583 228.191 512.489 228.36C512.395 228.527 512.348 228.72 512.348 228.941C512.348 229.162 512.395 229.356 512.489 229.522C512.583 229.686 512.713 229.813 512.879 229.904C513.049 229.991 513.241 230.034 513.456 230.031C513.665 230.034 513.851 229.991 514.014 229.904C514.181 229.813 514.311 229.686 514.405 229.522C514.502 229.356 514.552 229.162 514.555 228.941C514.552 228.72 514.502 228.527 514.405 228.36C514.311 228.194 514.181 228.065 514.014 227.974C513.851 227.88 513.665 227.833 513.456 227.833ZM525.941 232.609H524.924V224.401H525.941V232.609ZM523.489 225.273C523.489 226.577 523.194 227.723 522.604 228.71C522.014 229.693 521.035 230.509 519.667 231.157L519.14 230.349C520.196 229.846 520.991 229.245 521.523 228.546C522.059 227.844 522.372 227.019 522.463 226.072H519.558V225.273H523.489Z" fill="#2E3135"/>
<rect x="439.037" y="278.122" width="106.923" height="19.2977" rx="5.5786" fill="#FDB022"/>
<path d="M484.86 287.342H485.869V288.003H484.86V291.425H484.053V284.851H484.86V287.342ZM483.058 286.129H480.792V289.144C481.322 289.144 481.8 289.128 482.227 289.097C482.653 289.065 483.085 289.011 483.523 288.933L483.618 289.616C483.143 289.698 482.673 289.753 482.208 289.779C481.746 289.806 481.187 289.819 480.53 289.819H479.986V285.476H483.058V286.129ZM488.63 286.427C488.627 286.832 488.694 287.225 488.829 287.608C488.965 287.99 489.161 288.33 489.418 288.628C489.674 288.926 489.976 289.149 490.322 289.296L489.843 289.943C489.472 289.771 489.149 289.52 488.873 289.191C488.599 288.862 488.385 288.478 488.23 288.04C488.075 288.514 487.856 288.931 487.573 289.289C487.292 289.645 486.957 289.914 486.567 290.095L486.073 289.42C486.429 289.267 486.737 289.037 486.999 288.73C487.263 288.42 487.464 288.065 487.602 287.666C487.74 287.264 487.809 286.851 487.809 286.427V285.381H488.63V286.427ZM491.608 291.425H490.794V284.851H491.608V291.425ZM493.86 285.585H494.586V284.96H495.341V287.241H495.792V284.96H496.554V285.585H497.281V284.96H498.029V287.393H495.966V287.967H498.559V288.606H492.574V287.967H495.153V287.393H493.082V284.96H493.86V285.585ZM494.586 286.754V286.195H493.86V286.754H494.586ZM497.281 286.754V286.195H496.554V286.754H497.281ZM494.092 289.5H497.005V288.984H497.818V291.338H493.293V288.984H494.092V289.5ZM497.005 290.698V290.125H494.092V290.698H497.005ZM504.486 291.417H503.673V284.851H504.486V291.417ZM502.525 285.548C502.525 286.592 502.289 287.508 501.817 288.298C501.345 289.085 500.562 289.737 499.467 290.255L499.046 289.609C499.891 289.207 500.527 288.726 500.953 288.167C501.381 287.605 501.632 286.945 501.704 286.188H499.38V285.548H502.525Z" fill="#2E3135"/>
<path d="M614.299 138.701L607.791 145.209" stroke="#2E3135" stroke-width="0.929766" stroke-linecap="round" stroke-linejoin="round"/>
<path d="M607.791 138.701L614.299 145.209" stroke="#2E3135" stroke-width="0.929766" stroke-linecap="round" stroke-linejoin="round"/>
</g>
<rect x="91.5" y="166.5" width="552" height="163" fill="url(#paint0_linear_2647_102063)"/>
<defs>
<filter id="filter0_d_2647_102063" x="346.078" y="114.078" width="292.844" height="208.479" filterUnits="userSpaceOnUse" color-interpolation-filters="sRGB">
<feFlood flood-opacity="0" result="BackgroundImageFix"/>
<feColorMatrix in="SourceAlpha" type="matrix" values="0 0 0 0 0 0 0 0 0 0 0 0 0 0 0 0 0 0 127 0" result="hardAlpha"/>
<feOffset/>
<feGaussianBlur stdDeviation="3.71093"/>
<feComposite in2="hardAlpha" operator="out"/>
<feColorMatrix type="matrix" values="0 0 0 0 0 0 0 0 0 0 0 0 0 0 0 0 0 0 0.12 0"/>
<feBlend mode="normal" in2="BackgroundImageFix" result="effect1_dropShadow_2647_102063"/>
<feBlend mode="normal" in="SourceGraphic" in2="effect1_dropShadow_2647_102063" result="shape"/>
</filter>
<linearGradient id="paint0_linear_2647_102063" x1="355" y1="233" x2="354.502" y2="305.824" gradientUnits="userSpaceOnUse">
<stop stop-color="#F8F9FA" stop-opacity="0"/>
<stop offset="1" stop-color="#F8F9FA"/>
</linearGradient>
<clipPath id="clip0_2647_102063">
<rect width="105.349" height="124.48" fill="white" transform="translate(339.508 74.1606)"/>
</clipPath>
<clipPath id="clip1_2647_102063">
<rect width="214.776" height="82.7492" fill="white" transform="translate(385.111 186.075)"/>
</clipPath>
</defs>
</svg>
