<svg width="548" height="288" viewBox="0 0 548 288" fill="none" xmlns="http://www.w3.org/2000/svg">
<g filter="url(#filter0_d_2647_102927)">
<g clip-path="url(#clip0_2647_102927)">
<rect x="5" y="5" width="548" height="288" rx="17.177" fill="white"/>
<path d="M77.5371 41.5L72.5371 46.5L77.5371 51.5" stroke="#C2C2C2" stroke-width="0.884482" stroke-linecap="round"/>
<path d="M97.7538 52.1125H96.2301V41.1204H97.7538V52.1125ZM89.023 46.9732C90.4459 46.9651 91.6612 46.945 92.6689 46.9127C93.6766 46.8805 94.6541 46.812 95.6013 46.7072L95.6618 47.8318C94.7629 47.9728 93.8358 48.0716 92.8805 48.128V51.786H91.3448V48.2006C90.7079 48.2207 89.801 48.2308 88.624 48.2308L88.4547 46.9732H89.023ZM94.9121 45.8486H89.4221V41.7008H94.779V42.9101H90.9699V44.6031H94.9121V45.8486ZM109.254 50.8912H99.1807V49.6215H103.425V47.9648H100.342V44.2645H106.569V43.0552H100.33V41.8218H108.093V45.4737H101.889V46.7072H108.347V47.9648H104.961V49.6215H109.254V50.8912ZM118.565 45.3286H120.125V46.5983H118.565V52.0883H117.017V41.1083H118.565V45.3286ZM115.627 42.2329C115.618 43.9863 115.223 45.5362 114.441 46.8825C113.664 48.2248 112.394 49.3272 110.632 50.1898L109.762 49.0047C111.072 48.3477 112.077 47.5698 112.779 46.6709C113.484 45.772 113.909 44.7119 114.055 43.4905H110.39V42.2329H115.627ZM129.835 52.1125H128.275V41.1083H129.835V52.1125ZM126.534 42.2571C126.534 43.4341 126.375 44.5043 126.056 45.4677C125.742 46.431 125.21 47.3158 124.46 48.122C123.71 48.9241 122.701 49.6255 121.431 50.2261L120.621 48.9926C121.56 48.5492 122.334 48.0555 122.943 47.5113C123.555 46.9671 124.023 46.3645 124.345 45.7035C124.672 45.0384 124.877 44.2927 124.962 43.4664H121.213V42.2571H126.534Z" fill="#848484"/>
<rect x="69.4422" y="86.9422" width="344.116" height="42.1155" rx="6.63361" fill="white"/>
<rect x="69.4422" y="86.9422" width="344.116" height="42.1155" rx="6.63361" stroke="#D3D8DD" stroke-width="0.884482"/>
<path d="M99.283 115.384H97.6194V108.247H96.2201V114.669H94.5876V101.593H96.2201V106.833H97.6194V101.329H99.283V115.384ZM93.7791 104.392H92.7685V110.447C93.2816 110.401 93.6807 110.357 93.9657 110.315L94.059 111.575C92.4472 111.906 90.1617 112.072 87.2025 112.072L87.0004 110.642L88.3064 110.634V104.392H87.2803V102.992H93.7791V104.392ZM91.1982 110.556V104.392H89.8611V110.603L91.1982 110.556ZM108.176 103.257C108.176 103.977 108.394 104.679 108.829 105.363C109.27 106.047 109.876 106.638 110.648 107.136C111.42 107.628 112.286 107.957 113.245 108.123L112.467 109.569C111.291 109.32 110.244 108.862 109.327 108.193C108.415 107.519 107.73 106.708 107.274 105.76C106.808 106.703 106.116 107.511 105.199 108.185C104.281 108.854 103.237 109.315 102.066 109.569L101.304 108.123C102.253 107.952 103.108 107.62 103.869 107.128C104.636 106.63 105.238 106.04 105.673 105.356C106.113 104.671 106.336 103.972 106.342 103.257V102.215H108.176V103.257ZM113.758 113.596H100.915V112.165H113.758V113.596ZM126.102 110.066H116.245V102.433H125.978V103.832H118.002V105.527H125.652V106.879H118.002V108.698H126.102V110.066ZM127.517 113.674H114.675V112.259H127.517V113.674ZM140.111 103.428H138.152V106.833H140.002V108.201H129.678V106.833H131.544V103.428H129.616V102.028H140.111V103.428ZM141.261 110.953H135.68V115.368H133.969V110.953H128.419V109.538H141.261V110.953ZM136.442 106.833V103.428H133.27V106.833H136.442ZM153.606 109.305H143.749V102.557H153.497V103.956H145.459V107.921H153.606V109.305ZM155.036 113.596H142.194V112.165H155.036V113.596ZM167.723 109.491H165.997V106.086H163.572V104.671H165.997V101.329H167.723V109.491ZM167.723 115.213H158.379V110.098H167.723V115.213ZM160.105 113.813H166.028V111.466H160.105V113.813ZM161.115 103.645C161.115 104.221 161.242 104.78 161.496 105.324C161.75 105.869 162.126 106.358 162.624 106.794C163.121 107.229 163.722 107.569 164.427 107.812L163.556 109.18C162.789 108.916 162.126 108.532 161.566 108.03C161.012 107.527 160.576 106.936 160.26 106.257C159.939 107.009 159.486 107.662 158.9 108.216C158.314 108.766 157.617 109.175 156.809 109.445L155.923 108.092C156.648 107.848 157.267 107.496 157.781 107.035C158.299 106.573 158.69 106.05 158.954 105.464C159.224 104.874 159.359 104.262 159.359 103.63V103.521H156.436V102.122H164.023V103.521H161.115V103.645ZM181.84 115.384H180.177V101.329H181.84V115.384ZM178.948 114.7H177.3V108.014H175.963C175.912 108.921 175.751 109.709 175.481 110.377C175.217 111.041 174.862 111.551 174.416 111.909C173.971 112.261 173.46 112.435 172.885 112.43C172.279 112.435 171.745 112.235 171.284 111.831C170.827 111.422 170.475 110.839 170.226 110.082C169.978 109.32 169.853 108.429 169.853 107.408C169.853 106.387 169.978 105.501 170.226 104.749C170.475 103.993 170.827 103.412 171.284 103.008C171.745 102.604 172.279 102.402 172.885 102.402C173.45 102.402 173.95 102.57 174.385 102.907C174.826 103.244 175.178 103.728 175.443 104.361C175.712 104.993 175.88 105.744 175.948 106.615H177.3V101.578H178.948V114.7ZM172.885 104.034C172.59 104.029 172.333 104.156 172.115 104.415C171.898 104.674 171.732 105.058 171.618 105.565C171.504 106.073 171.449 106.687 171.455 107.408C171.449 108.128 171.504 108.742 171.618 109.25C171.732 109.758 171.898 110.142 172.115 110.401C172.333 110.66 172.59 110.787 172.885 110.782C173.357 110.792 173.722 110.504 173.981 109.919C174.245 109.333 174.378 108.496 174.378 107.408C174.378 106.32 174.245 105.483 173.981 104.897C173.722 104.311 173.357 104.024 172.885 104.034ZM188.666 104.703C188.666 105.584 188.8 106.436 189.07 107.26C189.345 108.079 189.744 108.805 190.267 109.437C190.796 110.069 191.423 110.543 192.148 110.859L191.107 112.243C190.329 111.865 189.658 111.321 189.093 110.611C188.534 109.901 188.101 109.077 187.795 108.139C187.479 109.134 187.033 110.009 186.458 110.766C185.888 111.523 185.209 112.103 184.421 112.507L183.333 111.108C184.074 110.761 184.711 110.253 185.245 109.585C185.784 108.916 186.194 108.157 186.473 107.307C186.759 106.457 186.904 105.589 186.909 104.703V102.464H188.666V104.703ZM195.258 115.399H193.548V107.268H190.594V105.869H193.548V101.329H195.258V115.399ZM205.395 105.014C205.395 105.801 205.488 106.566 205.675 107.307C205.866 108.048 206.164 108.727 206.569 109.344C206.973 109.96 207.478 110.46 208.085 110.844L207.136 112.165C206.525 111.797 206.006 111.305 205.581 110.688C205.156 110.066 204.822 109.354 204.579 108.551C204.314 109.426 203.954 110.204 203.498 110.883C203.042 111.562 202.493 112.098 201.85 112.492L200.777 111.201C201.435 110.802 201.985 110.279 202.425 109.631C202.866 108.983 203.192 108.271 203.405 107.493C203.622 106.716 203.731 105.915 203.731 105.091V102.573H205.395V105.014ZM213.137 115.384H211.474V101.329H213.137V115.384ZM210.215 114.7H208.582V107.594H206.576V106.164H208.582V101.578H210.215V114.7ZM226.197 110.066H216.34V102.433H226.073V103.832H218.097V105.527H225.747V106.879H218.097V108.698H226.197V110.066ZM227.612 113.674H214.77V112.259H227.612V113.674ZM237.625 104.703C237.62 105.568 237.762 106.41 238.052 107.229C238.343 108.048 238.762 108.776 239.312 109.413C239.861 110.051 240.506 110.528 241.247 110.844L240.221 112.228C239.428 111.86 238.736 111.323 238.146 110.618C237.56 109.914 237.101 109.092 236.77 108.154C236.438 109.17 235.969 110.061 235.363 110.828C234.762 111.59 234.044 112.165 233.209 112.554L232.152 111.108C232.914 110.782 233.575 110.289 234.134 109.631C234.699 108.968 235.129 108.209 235.425 107.353C235.72 106.493 235.868 105.61 235.868 104.703V102.464H237.625V104.703ZM243.999 115.399H242.258V101.329H243.999V115.399ZM253.25 102.712C253.25 103.557 253.193 104.361 253.079 105.122H256.111V101.329H257.837V115.368H256.111V110.3H252.613V108.916H256.111V106.522H252.791C252.413 107.9 251.76 109.144 250.832 110.253C249.905 111.357 248.612 112.336 246.953 113.192L246.005 111.87C247.155 111.274 248.106 110.626 248.858 109.927C249.615 109.222 250.203 108.444 250.623 107.594L246.316 107.999L246.067 106.522L251.159 106.211C251.346 105.573 251.467 104.874 251.524 104.112H246.798V102.712H253.25ZM271.596 115.399H269.87V111.699H262.019V110.315H271.596V115.399ZM271.596 109.631H269.87V106.148H267.041V108.807H260.433V102.355H267.041V104.749H269.87V101.329H271.596V109.631ZM262.159 107.439H265.331V103.754H262.159V107.439ZM285.325 115.384H283.583V101.329H285.325V115.384ZM281.127 102.821C281.127 105.055 280.622 107.017 279.611 108.706C278.6 110.39 276.924 111.787 274.581 112.896L273.68 111.512C275.488 110.652 276.849 109.623 277.761 108.426C278.678 107.224 279.214 105.812 279.37 104.19H274.395V102.821H281.127Z" fill="#2E3135"/>
<path d="M384.812 105.959L390.119 111.266L395.426 105.959" stroke="#6F757B" stroke-width="1.76896" stroke-linecap="round" stroke-linejoin="round"/>
<rect x="425.442" y="86.9422" width="183.116" height="42.1155" rx="6.63361" fill="white"/>
<rect x="425.442" y="86.9422" width="183.116" height="42.1155" rx="6.63361" stroke="#D3D8DD" stroke-width="0.884482"/>
<path d="M454.967 112.974L458.808 108.932C459.316 108.398 459.702 107.968 459.966 107.641C460.235 107.309 460.438 106.991 460.572 106.685C460.712 106.374 460.782 106.05 460.782 105.713C460.782 105.34 460.684 105.008 460.487 104.718C460.29 104.428 460.02 104.202 459.678 104.042C459.342 103.881 458.963 103.801 458.543 103.801C458.103 103.801 457.717 103.889 457.385 104.065C457.053 104.241 456.797 104.49 456.616 104.811C456.439 105.133 456.351 105.501 456.351 105.915H455.03C455.024 105.262 455.175 104.684 455.481 104.182C455.791 103.679 456.219 103.288 456.763 103.008C457.307 102.728 457.916 102.588 458.59 102.588C459.259 102.588 459.857 102.725 460.386 103C460.92 103.275 461.337 103.651 461.637 104.127C461.938 104.604 462.088 105.133 462.088 105.713C462.088 106.143 462.01 106.555 461.855 106.949C461.7 107.338 461.438 107.771 461.07 108.247C460.707 108.719 460.186 109.305 459.507 110.004L456.926 112.663V112.756H462.29V114H454.983L454.967 112.974ZM468.012 114.155C467.183 114.155 466.473 113.93 465.882 113.479C465.296 113.028 464.848 112.37 464.537 111.505C464.231 110.639 464.078 109.595 464.078 108.372C464.078 107.164 464.234 106.128 464.545 105.262C464.856 104.392 465.307 103.728 465.897 103.272C466.488 102.816 467.193 102.588 468.012 102.588C468.831 102.588 469.535 102.816 470.126 103.272C470.717 103.728 471.168 104.392 471.479 105.262C471.79 106.128 471.945 107.164 471.945 108.372C471.945 109.595 471.79 110.639 471.479 111.505C471.173 112.37 470.725 113.028 470.134 113.479C469.543 113.93 468.836 114.155 468.012 114.155ZM468.012 112.912C468.551 112.912 469.012 112.735 469.396 112.383C469.779 112.031 470.072 111.515 470.274 110.836C470.476 110.157 470.577 109.336 470.577 108.372C470.577 107.408 470.476 106.584 470.274 105.9C470.072 105.216 469.779 104.695 469.396 104.337C469.012 103.98 468.551 103.801 468.012 103.801C467.473 103.801 467.009 103.98 466.62 104.337C466.237 104.695 465.941 105.216 465.734 105.9C465.532 106.584 465.431 107.408 465.431 108.372C465.431 109.336 465.532 110.157 465.734 110.836C465.936 111.515 466.229 112.031 466.613 112.383C467.001 112.735 467.468 112.912 468.012 112.912ZM473.796 112.974L477.636 108.932C478.144 108.398 478.53 107.968 478.794 107.641C479.064 107.309 479.266 106.991 479.4 106.685C479.54 106.374 479.61 106.05 479.61 105.713C479.61 105.34 479.512 105.008 479.315 104.718C479.118 104.428 478.848 104.202 478.506 104.042C478.17 103.881 477.791 103.801 477.371 103.801C476.931 103.801 476.545 103.889 476.213 104.065C475.881 104.241 475.625 104.49 475.444 104.811C475.267 105.133 475.179 105.501 475.179 105.915H473.858C473.853 105.262 474.003 104.684 474.309 104.182C474.62 103.679 475.047 103.288 475.591 103.008C476.135 102.728 476.744 102.588 477.418 102.588C478.087 102.588 478.685 102.725 479.214 103C479.748 103.275 480.165 103.651 480.465 104.127C480.766 104.604 480.916 105.133 480.916 105.713C480.916 106.143 480.839 106.555 480.683 106.949C480.528 107.338 480.266 107.771 479.898 108.247C479.535 108.719 479.014 109.305 478.335 110.004L475.755 112.663V112.756H481.118V114H473.811L473.796 112.974ZM486.824 114.155C486.156 114.155 485.547 114.029 484.998 113.775C484.453 113.515 484.018 113.16 483.692 112.71C483.37 112.253 483.197 111.74 483.171 111.17H484.523C484.56 111.502 484.684 111.803 484.896 112.072C485.109 112.336 485.384 112.546 485.72 112.702C486.057 112.852 486.425 112.927 486.824 112.927C487.301 112.927 487.731 112.818 488.115 112.601C488.498 112.383 488.799 112.085 489.017 111.707C489.234 111.328 489.343 110.906 489.343 110.44C489.343 109.958 489.229 109.525 489.001 109.141C488.778 108.753 488.467 108.45 488.068 108.232C487.674 108.009 487.229 107.895 486.731 107.89C485.731 107.874 485.031 108.211 484.632 108.9H483.28L484.072 102.744H490.167V103.987H485.239L484.819 107.283H484.928C485.181 107.087 485.49 106.928 485.853 106.809C486.215 106.69 486.591 106.63 486.98 106.63C487.685 106.63 488.32 106.794 488.884 107.12C489.454 107.442 489.9 107.89 490.221 108.465C490.548 109.04 490.711 109.688 490.711 110.409C490.711 111.124 490.543 111.766 490.206 112.336C489.869 112.906 489.405 113.352 488.814 113.674C488.224 113.995 487.56 114.155 486.824 114.155ZM497.506 108.994H492.577V107.765H497.506V108.994ZM503.227 114.155C502.398 114.155 501.688 113.93 501.097 113.479C500.511 113.028 500.063 112.37 499.752 111.505C499.446 110.639 499.293 109.595 499.293 108.372C499.293 107.164 499.449 106.128 499.76 105.262C500.071 104.392 500.522 103.728 501.113 103.272C501.703 102.816 502.408 102.588 503.227 102.588C504.046 102.588 504.751 102.816 505.341 103.272C505.932 103.728 506.383 104.392 506.694 105.262C507.005 106.128 507.161 107.164 507.161 108.372C507.161 109.595 507.005 110.639 506.694 111.505C506.388 112.37 505.94 113.028 505.349 113.479C504.758 113.93 504.051 114.155 503.227 114.155ZM503.227 112.912C503.766 112.912 504.227 112.735 504.611 112.383C504.994 112.031 505.287 111.515 505.489 110.836C505.691 110.157 505.792 109.336 505.792 108.372C505.792 107.408 505.691 106.584 505.489 105.9C505.287 105.216 504.994 104.695 504.611 104.337C504.227 103.98 503.766 103.801 503.227 103.801C502.688 103.801 502.224 103.98 501.835 104.337C501.452 104.695 501.157 105.216 500.949 105.9C500.747 106.584 500.646 107.408 500.646 108.372C500.646 109.336 500.747 110.157 500.949 110.836C501.151 111.515 501.444 112.031 501.828 112.383C502.216 112.735 502.683 112.912 503.227 112.912ZM512.913 114.155C512.172 114.155 511.509 114.031 510.923 113.782C510.343 113.534 509.881 113.184 509.539 112.733C509.202 112.282 509.021 111.761 508.995 111.17H510.41C510.436 111.518 510.56 111.823 510.783 112.088C511.011 112.352 511.309 112.557 511.677 112.702C512.045 112.842 512.452 112.912 512.898 112.912C513.385 112.912 513.823 112.829 514.211 112.663C514.605 112.492 514.911 112.259 515.129 111.963C515.351 111.663 515.463 111.321 515.463 110.937C515.463 110.523 515.354 110.157 515.136 109.841C514.924 109.525 514.613 109.279 514.204 109.103C513.794 108.926 513.302 108.838 512.727 108.838H511.809V107.61H512.727C513.177 107.61 513.579 107.53 513.931 107.369C514.284 107.208 514.556 106.983 514.748 106.693C514.945 106.402 515.043 106.066 515.043 105.682C515.043 105.314 514.955 104.988 514.779 104.703C514.608 104.418 514.364 104.197 514.048 104.042C513.732 103.881 513.364 103.801 512.944 103.801C512.54 103.801 512.162 103.873 511.809 104.018C511.457 104.164 511.169 104.371 510.946 104.64C510.723 104.905 510.602 105.216 510.581 105.573H509.228C509.254 104.993 509.436 104.477 509.772 104.026C510.109 103.57 510.558 103.218 511.117 102.969C511.677 102.715 512.291 102.588 512.96 102.588C513.654 102.588 514.261 102.725 514.779 103C515.302 103.27 515.704 103.635 515.984 104.096C516.264 104.557 516.401 105.06 516.396 105.604C516.401 106.237 516.232 106.778 515.89 107.229C515.548 107.68 515.079 107.988 514.483 108.154V108.232C514.965 108.31 515.383 108.473 515.735 108.722C516.093 108.965 516.365 109.279 516.551 109.662C516.743 110.041 516.836 110.466 516.831 110.937C516.836 111.543 516.668 112.093 516.326 112.585C515.984 113.072 515.512 113.456 514.911 113.736C514.315 114.016 513.649 114.155 512.913 114.155ZM523.703 108.994H518.775V107.765H523.703V108.994ZM525.211 112.974L529.051 108.932C529.559 108.398 529.945 107.968 530.21 107.641C530.479 107.309 530.681 106.991 530.816 106.685C530.956 106.374 531.026 106.05 531.026 105.713C531.026 105.34 530.928 105.008 530.731 104.718C530.534 104.428 530.264 104.202 529.922 104.042C529.585 103.881 529.207 103.801 528.787 103.801C528.347 103.801 527.961 103.889 527.629 104.065C527.297 104.241 527.041 104.49 526.859 104.811C526.683 105.133 526.595 105.501 526.595 105.915H525.273C525.268 105.262 525.418 104.684 525.724 104.182C526.035 103.679 526.463 103.288 527.007 103.008C527.551 102.728 528.16 102.588 528.834 102.588C529.502 102.588 530.101 102.725 530.63 103C531.163 103.275 531.58 103.651 531.881 104.127C532.182 104.604 532.332 105.133 532.332 105.713C532.332 106.143 532.254 106.555 532.099 106.949C531.943 107.338 531.682 107.771 531.314 108.247C530.951 108.719 530.43 109.305 529.751 110.004L527.17 112.663V112.756H532.534V114H525.227L525.211 112.974ZM540.09 104.065V103.987H534.135V102.744H541.536V104.05L536.39 114H534.928L540.09 104.065Z" fill="#555A60"/>
<rect x="69.4422" y="147.942" width="1060.12" height="370.116" rx="6.63361" fill="white"/>
<rect x="69.4422" y="147.942" width="1060.12" height="370.116" rx="6.63361" stroke="#D3D8DD" stroke-width="0.884482"/>
<path d="M103.293 188.826H96.9033V179.84H103.293V188.826ZM98.1005 187.831H102.096V180.819H98.1005V187.831ZM107.491 192.325H106.263V178.472H107.491V192.325ZM114.581 181.037C114.581 181.7 114.723 182.346 115.008 182.973C115.293 183.6 115.693 184.157 116.206 184.644C116.719 185.126 117.307 185.499 117.97 185.764L117.286 186.712C116.53 186.396 115.864 185.937 115.288 185.336C114.718 184.735 114.288 184.04 113.998 183.253C113.702 184.103 113.254 184.851 112.653 185.499C112.057 186.142 111.357 186.629 110.554 186.961L109.886 185.981C110.564 185.717 111.168 185.333 111.697 184.831C112.225 184.328 112.637 183.748 112.933 183.089C113.228 182.431 113.379 181.747 113.384 181.037V179.265H114.581V181.037ZM121.313 188.811H120.085V184.38H117.24V183.385H120.085V181.55H117.24V180.54H120.085V178.487H121.313V188.811ZM121.624 191.998H112.373V187.738H113.601V190.972H121.624V191.998ZM131.279 180.726V180.944C131.269 181.768 131.237 182.589 131.186 183.408C131.134 184.222 131.03 185.157 130.875 186.214L129.646 186.106C129.812 185.079 129.921 184.162 129.973 183.354C130.025 182.54 130.051 181.757 130.051 181.006H124.251V180.011H131.279V180.726ZM127.656 188.158C129.361 188.096 130.875 187.987 132.196 187.831L132.258 188.749C131.051 188.94 129.779 189.073 128.441 189.145C127.104 189.213 125.718 189.246 124.283 189.246H123.63L123.474 188.236C124.796 188.225 125.791 188.212 126.459 188.197V183.96H127.656V188.158ZM134.28 184.255H136.518V185.313H134.28V192.294H133.067V178.472H134.28V184.255ZM149.034 180.275V180.462C149.024 181.151 148.998 181.789 148.956 182.374C148.915 182.96 148.822 183.623 148.677 184.364L147.448 184.271C147.593 183.54 147.689 182.892 147.736 182.328C147.788 181.763 147.819 181.177 147.829 180.571H142.147V179.545H149.034V180.275ZM145.474 185.577C147.257 185.504 148.775 185.38 150.029 185.204L150.107 186.106C148.817 186.328 147.441 186.479 145.979 186.556C144.523 186.629 143.002 186.665 141.416 186.665L141.292 185.655H141.463L144.261 185.616V182.607H145.474V185.577ZM152.206 182.981H154.227V184.022H152.206V188.873H150.962V178.472H152.206V182.981ZM152.657 191.998H143.422V187.94H144.65V190.972H152.657V191.998ZM161.69 183.494H156.932V185.779C158.238 185.779 159.293 185.756 160.096 185.709C160.9 185.657 161.711 185.561 162.529 185.422L162.654 186.432C161.799 186.577 160.954 186.673 160.12 186.72C159.29 186.766 158.15 186.79 156.699 186.79H155.704V182.53H160.446V180.462H155.673V179.467H161.69V183.494ZM166.587 188.655H165.359V184.924H162.623V183.913H165.359V181.814H162.623V180.819H165.359V178.487H166.587V188.655ZM167.007 191.92H157.601V187.909H158.829V190.91H167.007V191.92ZM176.926 184.007H174.128V185.942C175.517 185.875 176.776 185.779 177.906 185.655L177.999 186.556C175.563 186.888 172.609 187.054 169.137 187.054L168.951 186.059C170.5 186.049 171.822 186.025 172.915 185.989V184.007H170.21V179.374H176.818V180.384H171.438V183.012H176.926V184.007ZM180.285 188.826H179.056V178.487H180.285V188.826ZM180.736 191.998H171.314V188.111H172.527V190.972H180.736V191.998ZM198.444 192.294H197.247V185.142H195.257V191.578H194.106V178.783H195.257V184.1H197.247V178.472H198.444V192.294ZM188.556 187.629C189.328 187.619 190.08 187.583 190.81 187.52C191.541 187.453 192.298 187.339 193.08 187.178L193.236 188.267C192.319 188.427 191.453 188.544 190.639 188.617C189.826 188.684 189.012 188.718 188.198 188.718H187.343V180.166H188.556V187.629ZM212.997 186.323H200.403V185.313H203.528V183.369C202.969 183.152 202.541 182.869 202.246 182.522C201.95 182.169 201.803 181.763 201.803 181.301C201.803 180.762 201.999 180.301 202.393 179.918C202.787 179.534 203.349 179.241 204.08 179.039C204.816 178.837 205.689 178.736 206.7 178.736C207.7 178.736 208.566 178.837 209.296 179.039C210.032 179.241 210.597 179.534 210.991 179.918C211.385 180.301 211.582 180.762 211.582 181.301C211.582 181.757 211.434 182.162 211.139 182.514C210.849 182.861 210.426 183.144 209.872 183.361V185.313H212.997V186.323ZM206.7 187.381C207.69 187.381 208.54 187.474 209.25 187.66C209.96 187.847 210.504 188.124 210.882 188.492C211.261 188.855 211.452 189.298 211.458 189.821C211.452 190.34 211.261 190.78 210.882 191.143C210.504 191.511 209.96 191.788 209.25 191.975C208.54 192.167 207.69 192.262 206.7 192.262C205.7 192.262 204.842 192.167 204.127 191.975C203.417 191.788 202.873 191.511 202.494 191.143C202.116 190.78 201.927 190.34 201.927 189.821C201.927 189.298 202.113 188.855 202.487 188.492C202.865 188.124 203.412 187.847 204.127 187.66C204.842 187.474 205.7 187.381 206.7 187.381ZM206.7 188.313C205.581 188.324 204.71 188.461 204.088 188.725C203.471 188.984 203.166 189.35 203.171 189.821C203.166 190.132 203.303 190.399 203.583 190.622C203.863 190.845 204.267 191.016 204.795 191.135C205.329 191.254 205.964 191.314 206.7 191.314C207.426 191.314 208.053 191.254 208.581 191.135C209.115 191.016 209.522 190.845 209.802 190.622C210.087 190.399 210.229 190.132 210.229 189.821C210.229 189.35 209.916 188.984 209.289 188.725C208.667 188.461 207.804 188.324 206.7 188.313ZM206.7 179.7C205.954 179.7 205.306 179.765 204.757 179.894C204.207 180.024 203.785 180.211 203.489 180.454C203.199 180.692 203.057 180.975 203.062 181.301C203.057 181.633 203.199 181.921 203.489 182.164C203.785 182.403 204.205 182.587 204.749 182.716C205.298 182.841 205.949 182.903 206.7 182.903C207.446 182.903 208.091 182.841 208.636 182.716C209.18 182.587 209.6 182.403 209.895 182.164C210.19 181.921 210.338 181.633 210.338 181.301C210.338 180.975 210.19 180.692 209.895 180.454C209.6 180.211 209.177 180.024 208.628 179.894C208.084 179.765 207.441 179.7 206.7 179.7ZM208.659 185.313V183.696C208.063 183.799 207.41 183.851 206.7 183.851C205.99 183.851 205.337 183.799 204.741 183.696V185.313H208.659ZM220.46 178.721C221.486 178.721 222.364 178.814 223.095 179C223.826 179.182 224.383 179.451 224.766 179.809C225.15 180.161 225.341 180.591 225.341 181.099C225.341 181.877 224.917 182.473 224.067 182.887C223.217 183.302 222.014 183.514 220.46 183.525C219.433 183.52 218.552 183.424 217.816 183.237C217.086 183.051 216.526 182.778 216.137 182.421C215.754 182.058 215.562 181.618 215.562 181.099C215.562 180.591 215.754 180.161 216.137 179.809C216.526 179.451 217.086 179.182 217.816 179C218.552 178.814 219.433 178.721 220.46 178.721ZM220.46 179.638C219.698 179.638 219.045 179.697 218.501 179.817C217.956 179.931 217.542 180.099 217.257 180.322C216.972 180.54 216.832 180.799 216.837 181.099C216.832 181.576 217.145 181.944 217.778 182.203C218.41 182.462 219.304 182.592 220.46 182.592C221.61 182.592 222.504 182.462 223.141 182.203C223.779 181.944 224.098 181.576 224.098 181.099C224.098 180.799 223.953 180.54 223.662 180.322C223.372 180.104 222.955 179.936 222.411 179.817C221.867 179.697 221.216 179.638 220.46 179.638ZM226.756 185.453H214.163V184.458H226.756V185.453ZM225.139 189.744H216.93V191.174H225.559V192.138H215.718V188.842H223.942V187.583H215.686V186.65H225.139V189.744ZM236.598 182.716C236.593 183.442 236.748 184.18 237.064 184.932C237.386 185.678 237.821 186.354 238.37 186.961C238.92 187.562 239.526 188.018 240.189 188.329L239.49 189.293C238.718 188.92 238.02 188.35 237.399 187.583C236.782 186.816 236.315 185.961 235.999 185.017C235.792 185.691 235.507 186.331 235.144 186.937C234.781 187.544 234.367 188.08 233.9 188.547C233.434 189.008 232.944 189.371 232.431 189.635L231.685 188.671C232.343 188.355 232.955 187.875 233.519 187.233C234.09 186.59 234.543 185.87 234.88 185.072C235.222 184.274 235.396 183.488 235.401 182.716V180.913H232.182V179.902H239.707V180.913H236.598V182.716ZM242.615 184.069H244.931V185.111H242.615V192.294H241.402V178.472H242.615V184.069ZM258.318 187.365H254.975V192.294H253.747V187.365H250.202V192.294H248.943V187.365H245.662V186.354H258.318V187.365ZM251.959 179.031C252.923 179.031 253.773 179.156 254.509 179.405C255.245 179.648 255.815 179.998 256.219 180.454C256.623 180.91 256.825 181.441 256.825 182.048C256.825 182.654 256.62 183.183 256.211 183.634C255.807 184.084 255.237 184.432 254.501 184.675C253.77 184.919 252.923 185.038 251.959 185.033C250.995 185.038 250.145 184.919 249.409 184.675C248.678 184.432 248.108 184.084 247.699 183.634C247.295 183.183 247.092 182.654 247.092 182.048C247.092 181.441 247.295 180.91 247.699 180.454C248.103 179.998 248.673 179.648 249.409 179.405C250.145 179.156 250.995 179.031 251.959 179.031ZM251.959 180.027C251.244 180.027 250.611 180.109 250.062 180.275C249.518 180.441 249.095 180.677 248.795 180.983C248.494 181.288 248.347 181.643 248.352 182.048C248.347 182.452 248.494 182.807 248.795 183.113C249.095 183.413 249.518 183.647 250.062 183.812C250.611 183.973 251.244 184.053 251.959 184.053C252.669 184.053 253.299 183.973 253.848 183.812C254.397 183.647 254.822 183.413 255.123 183.113C255.429 182.807 255.581 182.452 255.581 182.048C255.581 181.643 255.429 181.288 255.123 180.983C254.822 180.677 254.397 180.441 253.848 180.275C253.299 180.109 252.669 180.027 251.959 180.027ZM272.077 186.556H259.422V185.561H265.143V184.224H261.07V181.006H269.217V179.731H261.023V178.767H270.445V181.923H262.282V183.26H270.74V184.224H266.34V185.561H272.077V186.556ZM262.345 188.609H269.248V187.256H270.445V192.107H261.116V187.256H262.345V188.609ZM269.248 191.127V189.573H262.345V191.127H269.248ZM285.028 192.294H283.862V178.472H285.028V192.294ZM282.121 191.594H280.955V185.142H278.024C277.143 186.831 275.778 188.22 273.927 189.308L273.212 188.422C274.689 187.552 275.819 186.51 276.602 185.297C277.389 184.079 277.84 182.732 277.954 181.255H273.803V180.244H279.167C279.157 181.654 278.926 182.955 278.475 184.147H280.955V178.845H282.121V191.594ZM295.756 181.022C295.756 181.618 295.899 182.195 296.184 182.755C296.469 183.31 296.868 183.805 297.381 184.24C297.899 184.67 298.493 185.002 299.161 185.235L298.524 186.199C297.751 185.919 297.073 185.504 296.487 184.955C295.907 184.406 295.466 183.773 295.165 183.058C294.865 183.856 294.409 184.559 293.797 185.165C293.186 185.771 292.471 186.225 291.652 186.525L291.014 185.561C291.688 185.318 292.292 184.965 292.826 184.504C293.359 184.038 293.777 183.504 294.077 182.903C294.378 182.296 294.528 181.675 294.528 181.037V180.431H291.403V179.436H298.85V180.431H295.756V181.022ZM302.411 192.294H301.182V188.5H293.113V187.489H302.411V192.294ZM302.411 186.759H301.182V183.12H298.415V182.094H301.182V178.472H302.411V186.759ZM308.427 179.545C309.049 179.55 309.606 179.723 310.099 180.065C310.596 180.407 310.998 180.895 311.304 181.527C311.61 182.159 311.793 182.903 311.856 183.758H314.957V178.472H316.17V192.325H314.957V184.769H311.871C311.825 185.66 311.651 186.437 311.35 187.101C311.05 187.764 310.646 188.274 310.138 188.632C309.635 188.99 309.065 189.168 308.427 189.168C307.754 189.168 307.153 188.972 306.624 188.578C306.101 188.184 305.691 187.624 305.396 186.899C305.105 186.173 304.96 185.328 304.96 184.364C304.96 183.4 305.105 182.556 305.396 181.83C305.691 181.104 306.101 180.545 306.624 180.151C307.147 179.752 307.749 179.55 308.427 179.545ZM308.427 180.633C307.977 180.638 307.575 180.796 307.223 181.107C306.875 181.413 306.606 181.848 306.414 182.413C306.222 182.973 306.126 183.623 306.126 184.364C306.126 185.105 306.222 185.758 306.414 186.323C306.606 186.883 306.875 187.316 307.223 187.621C307.575 187.927 307.977 188.08 308.427 188.08C308.873 188.08 309.27 187.927 309.617 187.621C309.969 187.316 310.241 186.883 310.433 186.323C310.63 185.758 310.728 185.105 310.728 184.364C310.728 183.623 310.63 182.973 310.433 182.413C310.241 181.848 309.972 181.413 309.625 181.107C309.277 180.796 308.878 180.638 308.427 180.633ZM329.448 180.431C329.443 181.022 329.673 181.586 330.14 182.125C330.606 182.659 331.215 183.11 331.966 183.478C332.718 183.846 333.5 184.09 334.314 184.209L333.863 185.173C333.132 185.048 332.428 184.841 331.749 184.551C331.075 184.261 330.476 183.898 329.953 183.463C329.43 183.022 329.033 182.532 328.764 181.993C328.494 182.532 328.098 183.019 327.574 183.455C327.051 183.89 326.452 184.255 325.778 184.551C325.11 184.841 324.416 185.048 323.695 185.173L323.213 184.209C324.022 184.09 324.802 183.846 325.553 183.478C326.305 183.11 326.913 182.659 327.38 182.125C327.846 181.586 328.08 181.022 328.08 180.431V180.337H323.648V179.342H333.863V180.337H329.448V180.431ZM335.06 187.365H329.339V192.294H328.142V187.365H322.467V186.354H335.06V187.365ZM340.331 182.405C340.331 183.141 340.448 183.877 340.681 184.613C340.914 185.349 341.248 186.02 341.684 186.626C342.124 187.233 342.642 187.712 343.238 188.065L342.539 189.013C341.891 188.619 341.329 188.078 340.852 187.388C340.38 186.694 340.017 185.914 339.764 185.048C339.504 185.981 339.123 186.821 338.621 187.567C338.118 188.313 337.527 188.894 336.848 189.308L336.071 188.391C336.693 188.028 337.237 187.533 337.703 186.906C338.17 186.274 338.527 185.572 338.776 184.8C339.025 184.022 339.149 183.24 339.149 182.452V179.778H340.331V182.405ZM348.074 192.294H346.892V178.472H348.074V192.294ZM345.213 191.594H344.062V184.473H341.715V183.431H344.062V178.767H345.213V191.594ZM362.642 190.521H349.986V189.495H353.127V185.764C352.525 185.453 352.059 185.054 351.727 184.566C351.396 184.074 351.23 183.52 351.23 182.903C351.23 182.198 351.445 181.579 351.875 181.045C352.305 180.506 352.901 180.089 353.663 179.793C354.43 179.498 355.303 179.348 356.283 179.342C357.262 179.348 358.133 179.498 358.895 179.793C359.662 180.089 360.26 180.506 360.69 181.045C361.121 181.579 361.336 182.198 361.336 182.903C361.336 183.509 361.175 184.056 360.854 184.543C360.532 185.025 360.082 185.422 359.501 185.732V189.495H362.642V190.521ZM356.283 180.353C355.531 180.348 354.863 180.451 354.277 180.664C353.691 180.876 353.233 181.177 352.901 181.566C352.575 181.949 352.411 182.395 352.411 182.903C352.411 183.411 352.575 183.862 352.901 184.255C353.233 184.644 353.691 184.947 354.277 185.165C354.863 185.377 355.531 185.484 356.283 185.484C357.029 185.484 357.695 185.375 358.281 185.157C358.866 184.94 359.325 184.636 359.657 184.248C359.988 183.859 360.154 183.411 360.154 182.903C360.154 182.395 359.988 181.949 359.657 181.566C359.325 181.177 358.866 180.876 358.281 180.664C357.695 180.451 357.029 180.348 356.283 180.353ZM358.273 189.495V186.207C357.656 186.367 356.993 186.448 356.283 186.448C355.568 186.448 354.915 186.37 354.324 186.214V189.495H358.273ZM365.207 191.127C365.026 191.127 364.857 191.083 364.702 190.995C364.551 190.902 364.43 190.778 364.336 190.622C364.248 190.467 364.207 190.298 364.212 190.117C364.207 189.941 364.248 189.777 364.336 189.627C364.43 189.472 364.551 189.35 364.702 189.262C364.857 189.168 365.026 189.122 365.207 189.122C365.383 189.122 365.546 189.168 365.697 189.262C365.852 189.35 365.974 189.472 366.062 189.627C366.155 189.777 366.202 189.941 366.202 190.117C366.202 190.298 366.155 190.467 366.062 190.622C365.974 190.778 365.852 190.902 365.697 190.995C365.546 191.083 365.383 191.127 365.207 191.127ZM100.153 213.205C99.3495 213.205 98.6498 213.026 98.0539 212.669C97.4579 212.311 96.9992 211.806 96.6779 211.153C96.3618 210.5 96.2037 209.743 96.2037 208.883C96.2037 208.023 96.3618 207.261 96.6779 206.598C96.9992 205.929 97.4475 205.411 98.0228 205.043C98.6032 204.67 99.2717 204.483 100.028 204.483C100.666 204.483 101.259 204.626 101.809 204.911C102.358 205.19 102.804 205.647 103.146 206.279C103.493 206.906 103.667 207.712 103.667 208.696V209.256H97.5408C97.5615 209.842 97.6833 210.342 97.9062 210.756C98.129 211.171 98.4322 211.487 98.8157 211.705C99.2044 211.917 99.6501 212.024 100.153 212.024C100.63 212.024 101.031 211.935 101.358 211.759C101.689 211.578 101.941 211.345 102.112 211.06H103.542C103.407 211.485 103.182 211.86 102.866 212.187C102.555 212.508 102.166 212.76 101.7 212.941C101.239 213.117 100.723 213.205 100.153 213.205ZM102.314 208.121C102.314 207.65 102.218 207.23 102.026 206.862C101.84 206.489 101.573 206.196 101.226 205.983C100.878 205.771 100.479 205.665 100.028 205.665C99.5568 205.665 99.137 205.776 98.769 205.999C98.4063 206.222 98.1186 206.522 97.9062 206.901C97.6989 207.274 97.5797 207.681 97.5486 208.121H102.314ZM108.191 208.028L110.196 204.592H111.736L109.015 208.805L111.736 213.034H110.212L108.191 209.769L106.201 213.034H104.662L107.32 208.805L104.662 204.592H106.201L108.191 208.028ZM114.301 213.127C114.12 213.127 113.951 213.083 113.796 212.995C113.645 212.902 113.524 212.778 113.43 212.622C113.342 212.467 113.301 212.298 113.306 212.117C113.301 211.941 113.342 211.777 113.43 211.627C113.524 211.472 113.645 211.35 113.796 211.262C113.951 211.168 114.12 211.122 114.301 211.122C114.477 211.122 114.64 211.168 114.791 211.262C114.946 211.35 115.068 211.472 115.156 211.627C115.249 211.777 115.296 211.941 115.296 212.117C115.296 212.298 115.249 212.467 115.156 212.622C115.068 212.778 114.946 212.902 114.791 212.995C114.64 213.083 114.477 213.127 114.301 213.127ZM132.305 214.325H131.077V206.52H128.045V205.509H131.077V200.472H132.305V214.325ZM125.635 204.576C125.635 205.328 125.798 206.09 126.125 206.862C126.457 207.629 126.902 208.318 127.462 208.93C128.022 209.541 128.636 209.997 129.304 210.298L128.574 211.277C127.791 210.894 127.084 210.313 126.451 209.536C125.824 208.753 125.353 207.878 125.037 206.908C124.72 207.929 124.244 208.857 123.606 209.691C122.969 210.521 122.256 211.143 121.468 211.557L120.722 210.609C121.386 210.282 121.997 209.8 122.557 209.163C123.122 208.52 123.57 207.797 123.902 206.994C124.233 206.185 124.402 205.38 124.407 204.576V202.913H121.251V201.902H128.807V202.913H125.635V204.576ZM145.785 205.649H136.316V200.985H137.529V204.67H145.785V205.649ZM147.246 208.525H134.591V207.53H147.246V208.525ZM145.863 213.951H136.239V209.94H137.451V212.941H145.863V213.951ZM158.658 201.374C159.632 201.379 160.503 201.532 161.27 201.832C162.037 202.133 162.636 202.558 163.066 203.107C163.496 203.651 163.711 204.281 163.711 204.996C163.711 205.67 163.522 206.268 163.144 206.792C162.77 207.315 162.247 207.732 161.573 208.043C160.9 208.354 160.125 208.538 159.249 208.595V211.495H165.017V212.521H152.361V211.495H158.052V208.595C157.181 208.538 156.409 208.354 155.735 208.043C155.061 207.727 154.538 207.31 154.165 206.792C153.792 206.268 153.605 205.67 153.605 204.996C153.605 204.281 153.82 203.651 154.25 203.107C154.681 202.558 155.279 202.133 156.046 201.832C156.813 201.532 157.684 201.379 158.658 201.374ZM158.658 202.384C157.917 202.384 157.251 202.496 156.66 202.718C156.075 202.936 155.616 203.244 155.284 203.643C154.953 204.037 154.787 204.488 154.787 204.996C154.787 205.52 154.953 205.981 155.284 206.38C155.616 206.779 156.075 207.087 156.66 207.305C157.246 207.523 157.912 207.634 158.658 207.639C159.404 207.634 160.07 207.523 160.656 207.305C161.242 207.087 161.7 206.779 162.032 206.38C162.364 205.981 162.529 205.52 162.529 204.996C162.529 204.488 162.364 204.037 162.032 203.643C161.7 203.244 161.239 202.936 160.648 202.718C160.063 202.496 159.399 202.384 158.658 202.384ZM177.269 204.81H167.831V200.705H169.028V203.799H177.269V204.81ZM178.761 207.173H166.105V206.178H178.761V207.173ZM177.129 211.65H168.951V213.127H177.626V214.107H167.722V210.718H175.931V209.381H167.691V208.417H177.129V211.65ZM195.615 208.712H194.449V205.058H192.614V208.619H191.463V200.752H192.614V204.048H194.449V200.487H195.615V208.712ZM195.615 214.294H194.417V210.469H186.302V209.489H195.615V214.294ZM189.862 207.655H184.514V201.669H189.862V207.655ZM185.664 206.706H188.727V202.633H185.664V206.706ZM208.799 207.95H204.523V211.526H210.291V212.552H197.636V211.526H203.326V207.95H199.253V201.607H208.659V202.602H200.481V206.955H208.799V207.95ZM222.201 203.364H224.284V204.39H222.201V207.453H220.988V200.472H222.201V203.364ZM213.292 205.727C214.344 205.732 215.381 205.691 216.402 205.602C217.423 205.509 218.464 205.354 219.527 205.136L219.682 206.162C218.563 206.39 217.477 206.551 216.425 206.644C215.378 206.737 214.292 206.784 213.168 206.784H212.064V201.094H213.292V205.727ZM222.201 211.495H214.629V213.112H222.714V214.107H213.417V210.531H220.988V209.101H213.385V208.121H222.201V211.495ZM236.318 208.137H226.772V201.762H236.178V202.773H227.985V207.126H236.318V208.137ZM237.811 212.412H225.155V211.386H237.811V212.412ZM253.996 203.255V203.426C253.985 204.566 253.949 205.59 253.887 206.496C253.83 207.398 253.695 208.442 253.482 209.629L252.239 209.489C252.405 208.671 252.524 207.898 252.596 207.173C252.674 206.447 252.721 205.802 252.736 205.237C252.757 204.672 252.767 204.011 252.767 203.255V202.882H244.247V201.871H253.996V203.255ZM255.504 212.335H242.91V211.324H247.854V206.38H249.051V211.324H255.504V212.335ZM267.6 202.586C267.6 203.478 267.576 204.268 267.53 204.957C267.488 205.647 267.379 206.432 267.203 207.313H269.263V208.323H263.557V214.325H262.329V208.323H256.67V207.313H265.967C266.154 206.432 266.27 205.644 266.317 204.949C266.364 204.255 266.387 203.467 266.387 202.586V202.384H258.256V201.374H267.6V202.586ZM277.379 210.78H271.005V201.871H277.379V210.78ZM272.186 209.785H276.166V202.851H272.186V209.785ZM281.126 205.991H283.443V207.048H281.126V214.294H279.913V200.472H281.126V205.991ZM300.047 203.068H288.838V202.058H293.875V200.394H295.072V202.058H300.047V203.068ZM300.84 210.438H295.072V214.325H293.875V210.438H288.185V209.427H300.84V210.438ZM294.481 203.861C295.419 203.861 296.225 203.952 296.899 204.133C297.578 204.309 298.096 204.571 298.454 204.918C298.811 205.266 298.99 205.685 298.99 206.178C298.99 206.66 298.809 207.072 298.446 207.414C298.088 207.756 297.573 208.018 296.899 208.199C296.225 208.38 295.419 208.474 294.481 208.479C293.538 208.474 292.727 208.38 292.048 208.199C291.374 208.018 290.859 207.756 290.501 207.414C290.144 207.072 289.967 206.66 289.973 206.178C289.967 205.685 290.144 205.266 290.501 204.918C290.859 204.571 291.374 204.309 292.048 204.133C292.727 203.952 293.538 203.861 294.481 203.861ZM294.481 204.794C293.45 204.794 292.647 204.916 292.071 205.159C291.501 205.403 291.222 205.742 291.232 206.178C291.227 206.603 291.507 206.934 292.071 207.173C292.642 207.411 293.445 207.53 294.481 207.53C295.502 207.53 296.298 207.411 296.868 207.173C297.438 206.934 297.726 206.603 297.731 206.178C297.72 205.742 297.43 205.403 296.86 205.159C296.29 204.916 295.497 204.794 294.481 204.794ZM312.641 205.976H314.957V207.002H312.641V214.325H311.428V200.472H312.641V205.976ZM308.77 206.706H303.732V209.94C305.105 209.94 306.274 209.907 307.238 209.839C308.207 209.772 309.189 209.645 310.184 209.458L310.309 210.469C309.277 210.661 308.262 210.793 307.261 210.865C306.261 210.933 305.048 210.972 303.623 210.982H302.519V205.696H307.557V202.773H302.488V201.762H308.77V206.706ZM327.1 214.325H325.872V200.472H327.1V214.325ZM319.746 201.545C320.43 201.55 321.039 201.752 321.573 202.151C322.107 202.545 322.524 203.104 322.824 203.83C323.125 204.556 323.275 205.4 323.275 206.364C323.275 207.328 323.125 208.173 322.824 208.899C322.524 209.624 322.107 210.184 321.573 210.578C321.039 210.972 320.43 211.168 319.746 211.168C319.062 211.168 318.45 210.972 317.911 210.578C317.378 210.184 316.96 209.624 316.66 208.899C316.364 208.173 316.217 207.328 316.217 206.364C316.217 205.4 316.364 204.556 316.66 203.83C316.96 203.104 317.378 202.545 317.911 202.151C318.445 201.752 319.057 201.55 319.746 201.545ZM319.746 202.633C319.285 202.638 318.875 202.796 318.518 203.107C318.165 203.413 317.891 203.848 317.694 204.413C317.497 204.973 317.398 205.623 317.398 206.364C317.398 207.105 317.497 207.758 317.694 208.323C317.891 208.883 318.168 209.316 318.526 209.621C318.883 209.927 319.29 210.08 319.746 210.08C320.202 210.08 320.609 209.927 320.967 209.621C321.324 209.316 321.601 208.883 321.798 208.323C321.995 207.758 322.094 207.105 322.094 206.364C322.094 205.623 321.995 204.973 321.798 204.413C321.601 203.848 321.324 203.413 320.967 203.107C320.614 202.796 320.207 202.638 319.746 202.633ZM342.103 207.857H329.448V206.893H342.103V207.857ZM340.518 211.899H332.215V213.221H340.968V214.107H330.987V211.06H339.305V209.878H330.971V208.961H340.518V211.899ZM340.471 203.752H332.308V204.965H340.72V205.851H331.096V202.913H339.243V201.778H331.049V200.892H340.471V203.752ZM358.677 214.325H357.449V210.391H349.38V209.412H358.677V214.325ZM358.677 208.619H357.449V204.965H354.215V207.686H347.872V201.513H354.215V203.954H357.449V200.472H358.677V208.619ZM349.084 206.706H353.018V202.509H349.084V206.706ZM365.736 209.738C365.736 210.381 365.904 211 366.241 211.596C366.583 212.192 367.07 212.674 367.702 213.042C368.127 212.778 368.49 212.456 368.791 212.078C369.097 211.7 369.327 211.306 369.483 210.896C369.638 210.487 369.716 210.101 369.716 209.738V208.899H370.913V209.738C370.913 210.22 371.024 210.689 371.247 211.145C371.47 211.601 371.794 212.011 372.219 212.373C372.649 212.731 373.157 213.008 373.743 213.205L373.105 214.123C372.431 213.879 371.854 213.527 371.372 213.065C370.895 212.609 370.537 212.083 370.299 211.487C370.066 212.088 369.731 212.63 369.296 213.112C368.866 213.594 368.342 213.967 367.726 214.231C367.088 213.988 366.552 213.63 366.117 213.159C365.681 212.692 365.352 212.153 365.129 211.542C364.875 212.117 364.51 212.63 364.033 213.081C363.562 213.532 363.004 213.879 362.362 214.123L361.755 213.205C362.326 212.998 362.82 212.708 363.24 212.335C363.665 211.961 363.992 211.549 364.22 211.099C364.448 210.642 364.564 210.189 364.57 209.738V208.899H365.736V209.738ZM364.787 201.265C365.388 201.265 365.938 201.379 366.435 201.607C366.938 201.83 367.353 202.146 367.679 202.555C368.006 202.959 368.213 203.426 368.301 203.954H371.208V200.472H372.437V208.37H371.208V204.965H368.317C368.239 205.509 368.037 205.991 367.71 206.411C367.389 206.831 366.974 207.157 366.466 207.39C365.958 207.618 365.399 207.732 364.787 207.732C364.103 207.732 363.489 207.598 362.945 207.328C362.406 207.054 361.981 206.67 361.67 206.178C361.364 205.685 361.211 205.126 361.211 204.499C361.211 203.877 361.364 203.32 361.67 202.827C361.981 202.335 362.406 201.951 362.945 201.677C363.489 201.402 364.103 201.265 364.787 201.265ZM364.787 202.306C364.331 202.301 363.919 202.392 363.551 202.578C363.188 202.765 362.903 203.027 362.696 203.364C362.489 203.695 362.388 204.074 362.393 204.499C362.388 204.918 362.489 205.297 362.696 205.634C362.903 205.97 363.188 206.235 363.551 206.426C363.919 206.618 364.331 206.717 364.787 206.722C365.233 206.717 365.637 206.618 366 206.426C366.363 206.235 366.648 205.97 366.855 205.634C367.062 205.297 367.166 204.918 367.166 204.499C367.166 204.074 367.062 203.695 366.855 203.364C366.648 203.027 366.363 202.765 366 202.578C365.637 202.392 365.233 202.301 364.787 202.306ZM378.454 201.545C379.075 201.55 379.633 201.723 380.125 202.065C380.622 202.407 381.024 202.895 381.33 203.527C381.636 204.159 381.82 204.903 381.882 205.758H384.983V200.472H386.196V214.325H384.983V206.769H381.897C381.851 207.66 381.677 208.437 381.376 209.101C381.076 209.764 380.672 210.274 380.164 210.632C379.661 210.99 379.091 211.168 378.454 211.168C377.78 211.168 377.179 210.972 376.65 210.578C376.127 210.184 375.717 209.624 375.422 208.899C375.132 208.173 374.986 207.328 374.986 206.364C374.986 205.4 375.132 204.556 375.422 203.83C375.717 203.104 376.127 202.545 376.65 202.151C377.173 201.752 377.775 201.55 378.454 201.545ZM378.454 202.633C378.003 202.638 377.601 202.796 377.249 203.107C376.901 203.413 376.632 203.848 376.44 204.413C376.248 204.973 376.152 205.623 376.152 206.364C376.152 207.105 376.248 207.758 376.44 208.323C376.632 208.883 376.901 209.316 377.249 209.621C377.601 209.927 378.003 210.08 378.454 210.08C378.899 210.08 379.296 209.927 379.643 209.621C379.995 209.316 380.267 208.883 380.459 208.323C380.656 207.758 380.755 207.105 380.755 206.364C380.755 205.623 380.656 204.973 380.459 204.413C380.267 203.848 379.998 203.413 379.651 203.107C379.303 202.796 378.904 202.638 378.454 202.633ZM401.153 212.521H388.497V211.495H391.638V207.764C391.037 207.453 390.57 207.054 390.239 206.566C389.907 206.074 389.741 205.52 389.741 204.903C389.741 204.198 389.956 203.579 390.386 203.045C390.816 202.506 391.412 202.089 392.174 201.793C392.941 201.498 393.814 201.348 394.794 201.342C395.773 201.348 396.644 201.498 397.406 201.793C398.173 202.089 398.772 202.506 399.202 203.045C399.632 203.579 399.847 204.198 399.847 204.903C399.847 205.509 399.686 206.056 399.365 206.543C399.044 207.025 398.593 207.422 398.012 207.732V211.495H401.153V212.521ZM394.794 202.353C394.043 202.348 393.374 202.451 392.788 202.664C392.203 202.876 391.744 203.177 391.412 203.566C391.086 203.949 390.923 204.395 390.923 204.903C390.923 205.411 391.086 205.862 391.412 206.255C391.744 206.644 392.203 206.947 392.788 207.165C393.374 207.377 394.043 207.484 394.794 207.484C395.54 207.484 396.206 207.375 396.792 207.157C397.377 206.94 397.836 206.636 398.168 206.248C398.499 205.859 398.665 205.411 398.665 204.903C398.665 204.395 398.499 203.949 398.168 203.566C397.836 203.177 397.377 202.876 396.792 202.664C396.206 202.451 395.54 202.348 394.794 202.353ZM396.784 211.495V208.207C396.167 208.367 395.504 208.448 394.794 208.448C394.079 208.448 393.426 208.37 392.835 208.214V211.495H396.784ZM404.387 209.862H403.081L402.972 201.778H404.496L404.387 209.862ZM403.734 213.127C403.552 213.127 403.384 213.083 403.229 212.995C403.078 212.902 402.956 212.778 402.863 212.622C402.775 212.467 402.734 212.298 402.739 212.117C402.734 211.941 402.775 211.777 402.863 211.627C402.956 211.472 403.078 211.35 403.229 211.262C403.384 211.168 403.552 211.122 403.734 211.122C403.91 211.122 404.073 211.168 404.224 211.262C404.379 211.35 404.501 211.472 404.589 211.627C404.682 211.777 404.729 211.941 404.729 212.117C404.729 212.298 404.682 212.467 404.589 212.622C404.501 212.778 404.379 212.902 404.224 212.995C404.073 213.083 403.91 213.127 403.734 213.127Z" fill="#8D939A"/>
</g>
</g>
<defs>
<filter id="filter0_d_2647_102927" x="0.705747" y="0.705747" width="556.589" height="296.589" filterUnits="userSpaceOnUse" color-interpolation-filters="sRGB">
<feFlood flood-opacity="0" result="BackgroundImageFix"/>
<feColorMatrix in="SourceAlpha" type="matrix" values="0 0 0 0 0 0 0 0 0 0 0 0 0 0 0 0 0 0 127 0" result="hardAlpha"/>
<feOffset/>
<feGaussianBlur stdDeviation="2.14713"/>
<feComposite in2="hardAlpha" operator="out"/>
<feColorMatrix type="matrix" values="0 0 0 0 0 0 0 0 0 0 0 0 0 0 0 0 0 0 0.12 0"/>
<feBlend mode="normal" in2="BackgroundImageFix" result="effect1_dropShadow_2647_102927"/>
<feBlend mode="normal" in="SourceGraphic" in2="effect1_dropShadow_2647_102927" result="shape"/>
</filter>
<clipPath id="clip0_2647_102927">
<rect x="5" y="5" width="548" height="288" rx="17.177" fill="white"/>
</clipPath>
</defs>
</svg>
