<svg width="331" height="306" viewBox="0 0 331 306" fill="none" xmlns="http://www.w3.org/2000/svg">
<g clip-path="url(#clip0_2647_101956)">
<path d="M224.936 400.561C144.785 420.539 127.724 392.286 111.373 339.894C83.0548 249.154 143.626 233.11 169.63 225.388C223.266 209.463 255.897 220.95 281.946 286.856C315.607 372.032 273.016 388.575 224.939 400.561H224.936Z" fill="white"/>
<path d="M52.5849 224.328C56.5969 229.474 68.4696 244.083 87.5573 250.262C106.645 256.438 132.95 254.183 151.115 249.126C158.423 247.092 181.852 245.657 204.646 234.163C216.407 228.231 217.278 229.102 227.102 221.751C229.247 220.147 240.567 215.565 253.934 193.81C258.446 186.464 263.433 176.772 268.057 165.096C274.93 147.741 261.434 112.22 260.456 110.043C252.637 92.657 239.88 79.0283 234.205 73.7729C222.911 63.3115 210.406 58.8726 210.406 58.8726C206.43 47.5843 201.987 36.2387 198.012 24.953C195.836 18.7771 191.829 10.4168 187.415 5.58784C183.001 0.758905 178.045 -0.120029 171.976 2.30354C170.682 2.82102 164.842 5.79588 160.606 12.8039C149.82 30.6427 136.137 63.1554 136.137 63.1554C122.247 64.5311 108.632 68.6709 96.3179 75.2629C90.8873 78.1701 81.6987 86.6188 81.6987 86.6188C81.6987 86.6188 44.732 70.4002 24.3839 71.5729C18.9403 71.8876 12.8639 73.0838 9.82696 77.6215C6.17541 83.0771 8.69882 90.3816 11.3078 96.4067C18.0222 111.918 33.7877 141.565 33.7877 141.565C33.7877 141.565 28.9224 164.29 34.1974 186.841C37.5352 201.109 47.0686 217.258 52.5849 224.331V224.328Z" fill="white"/>
<path d="M243.966 209.585C248.848 206.36 252.548 201.529 255.705 196.68C259.36 191.068 262.367 185.038 264.944 178.862C267.145 173.59 269.13 168.118 270.109 162.472C271.354 155.301 271.188 147.949 270.265 140.75C268.94 130.419 266.272 120.067 262.294 110.427C257.318 98.3658 249.183 87.31 240.292 77.8385C232.336 69.3643 222.712 62.3678 211.856 58.0852C211.599 57.9839 211.344 57.8826 211.085 57.7917L211.809 58.5163C209.378 51.6471 206.808 44.8271 204.267 37.9969C201.957 31.7899 199.946 25.4218 197.29 19.3525C195.045 14.2207 192.333 8.99536 188.508 4.84265C184.684 0.689933 179.783 -0.91246 174.402 0.50554C170.726 1.47425 167.538 3.63501 164.817 6.25286C161.102 9.82902 158.662 14.418 156.212 18.8954C151.369 27.7436 147.014 36.8593 142.815 46.027C140.308 51.5016 137.845 57.0022 135.501 62.5496L136.397 62.0353C126.399 63.0456 116.567 65.383 107.221 69.0786C103.002 70.7485 98.6965 72.5743 94.8121 74.9376C91.8345 76.7529 89.0855 78.9682 86.4067 81.1887C84.6139 82.6769 82.8419 84.1961 81.1244 85.77L82.3846 85.6064C76.7957 83.1651 71.0665 81.0069 65.3113 78.9916C54.7442 75.2934 43.8081 71.9613 32.6433 70.7329C27.2129 70.1356 21.3642 70.0759 16.1365 71.8523C13.2784 72.8236 10.6594 74.4519 8.9549 76.9919C7.06596 79.8045 6.72299 83.2664 7.18288 86.5517C8.02212 92.5535 10.9971 98.2151 13.5564 103.648C16.043 108.931 18.6412 114.161 21.2733 119.371C23.6871 124.149 26.1398 128.907 28.616 133.655C29.9775 136.265 31.2299 139.002 32.7576 141.524C32.833 141.646 32.8927 141.778 32.9603 141.906L32.8564 141.106C31.643 146.778 31.1337 152.671 30.8843 158.454C30.3906 169.975 31.3052 181.846 34.974 192.837C38.1828 202.456 42.9584 211.684 48.5915 220.103C52.0342 225.251 56.0563 230.04 60.5175 234.338C68.1902 241.729 77.2894 247.625 87.4512 250.944C88.7269 251.359 89.2726 249.354 88.0046 248.941C70.0947 243.093 56.1524 229.235 46.7753 213.289C40.2926 202.264 35.3637 190.453 33.7086 177.704C32.2873 166.747 32.5784 155.442 34.34 144.536C34.5322 143.339 35.1818 141.724 34.6076 140.586C33.6203 138.633 32.5576 136.714 31.5416 134.777C27.348 126.778 23.2168 118.745 19.2285 110.645C17.1654 106.456 15.1336 102.251 13.2187 97.9944C10.9764 93.0106 8.07409 87.027 9.31606 81.4199C10.623 75.5323 16.4795 73.3819 21.8579 72.7431C26.2724 72.2185 30.7388 72.4963 35.1273 73.1378C44.5408 74.5169 53.7568 77.2438 62.7442 80.3083C68.6475 82.3211 74.9119 84.6818 80.4437 87.027C80.7399 87.1542 81.0387 87.2789 81.3323 87.4087C81.7792 87.6035 82.2209 87.5879 82.5924 87.2451C86.4145 83.7468 90.4158 80.3135 94.7419 77.449C98.3016 75.0934 102.326 73.3222 106.26 71.6964C110.711 69.8551 115.286 68.3176 119.945 67.0918C125.342 65.6712 130.842 64.6766 136.397 64.1156C136.733 64.0818 137.148 63.9494 137.294 63.6014C143.979 47.7722 151.14 31.9535 159.641 17.0099C162.429 12.1093 165.508 7.56438 170.378 4.50503C174.436 1.95471 179.825 0.944446 184.211 3.84018C186.9 5.61398 188.89 8.39025 190.595 11.0678C192.408 13.9194 193.957 16.9398 195.326 20.0277C196.763 23.2715 197.883 26.6321 199.094 29.9641C200.452 33.7117 201.845 37.4463 203.238 41.1809C204.633 44.918 206.028 48.6552 207.4 52.4002C208.097 54.3039 208.788 56.2101 209.466 58.1216C209.759 58.9474 209.874 59.498 210.677 59.8538C213.919 61.2926 217.12 62.6924 220.212 64.461C229.914 70.0109 237.868 77.6204 244.872 86.2478C248.915 91.2264 252.592 96.5166 255.78 102.082C257.851 105.697 259.675 109.299 261.054 112.922C264.534 122.038 267.075 131.647 268.259 141.334C269.01 147.469 269.223 153.728 268.421 159.867C267.774 164.82 266.295 169.598 264.547 174.263C262.554 179.581 260.176 184.768 257.435 189.744C254.761 194.598 251.734 199.361 247.944 203.428C246.426 205.056 244.779 206.568 242.919 207.799C241.807 208.533 242.848 210.333 243.968 209.593L243.966 209.585Z" fill="#555A60"/>
<path d="M34.4615 232.579C35.7393 230.943 37.0964 229.368 38.5301 227.867C39.9638 226.365 41.4588 224.943 43.028 223.594C43.9174 222.828 44.8272 222.088 45.7574 221.37L45.4661 221.594C47.1554 220.297 48.9085 219.08 50.7205 217.956C52.5299 216.831 54.398 215.795 56.3122 214.859C57.3907 214.33 58.4845 213.834 59.5911 213.368L59.2461 213.513C59.8083 213.276 60.3731 213.05 60.9405 212.829C61.3008 212.689 61.5998 212.513 61.8017 212.169C61.9832 211.862 62.0598 211.409 61.9474 211.065C61.8349 210.722 61.6177 210.383 61.2855 210.208C60.9532 210.032 60.5316 209.925 60.1763 210.063C57.9913 210.907 55.8445 211.862 53.7591 212.933C51.7785 213.951 49.849 215.073 47.9859 216.294C46.0283 217.577 44.1397 218.968 42.3278 220.444C40.5158 221.92 38.9492 223.345 37.3826 224.925C35.816 226.505 34.3286 228.164 32.9383 229.9C32.7646 230.116 32.5933 230.335 32.4221 230.554C32.2815 230.683 32.1819 230.836 32.1257 231.014C32.0362 231.185 31.9953 231.368 32.0004 231.566C32.0004 231.917 32.1563 232.337 32.4221 232.579C32.6879 232.821 33.0559 233.017 33.4392 232.999C33.7919 232.984 34.2289 232.872 34.4564 232.579H34.4615Z" fill="#555A60"/>
<path d="M20.2054 209.812C22.0143 208.855 23.8544 207.958 25.7257 207.126C26.2567 206.889 26.7903 206.66 27.3264 206.433L26.9751 206.582C29.8849 205.353 32.8598 204.274 35.8816 203.354C38.8929 202.436 41.9537 201.672 45.0431 201.069C46.7844 200.73 48.5386 200.441 50.2954 200.204L49.905 200.256C50.7795 200.139 51.6567 200.034 52.5338 199.94C52.932 199.899 53.2755 199.805 53.5697 199.51C53.8247 199.255 54.0147 198.838 53.9991 198.472C53.9835 198.107 53.8586 197.698 53.5697 197.435C53.3016 197.187 52.9138 196.965 52.5338 197.005C50.1705 197.252 47.8124 197.586 45.4752 198.008C43.2342 198.413 41.0115 198.903 38.807 199.474C36.6025 200.045 34.4397 200.694 32.295 201.424C30.0385 202.193 27.8157 203.056 25.6216 203.99C23.4275 204.923 21.4833 205.844 19.4688 206.884C19.2189 207.012 18.9717 207.142 18.7218 207.275C18.4043 207.442 18.1414 207.812 18.0477 208.154C17.954 208.495 17.9957 208.972 18.1961 209.285C18.6411 209.979 19.4766 210.195 20.2028 209.812H20.2054Z" fill="#555A60"/>
<path d="M240.853 139.935C245.915 138.385 251.091 137.172 256.333 136.308C257.804 136.065 259.281 135.849 260.76 135.663L260.37 135.712C263.357 135.335 266.36 135.068 269.371 134.914C272.382 134.759 275.424 134.718 278.45 134.794C280.148 134.835 281.843 134.914 283.535 135.029C283.894 135.053 284.323 134.857 284.57 134.625C284.817 134.392 285.015 133.993 284.999 133.65C284.963 132.858 284.354 132.324 283.535 132.271C280.691 132.079 277.839 131.989 274.989 132.001C272.14 132.013 269.314 132.126 266.488 132.339C263.662 132.552 260.607 132.893 257.687 133.319C254.767 133.745 252.095 134.24 249.334 134.848C246.572 135.455 243.806 136.168 241.087 136.976C240.751 137.077 240.413 137.177 240.078 137.28C239.717 137.39 239.397 137.601 239.202 137.914C239.017 138.211 238.939 138.647 239.054 138.978C239.288 139.664 240.075 140.18 240.855 139.94L240.853 139.935Z" fill="#555A60"/>
<path d="M239.225 121.797C242.986 119.524 246.817 117.362 250.709 115.311C254.58 113.272 258.511 111.347 262.497 109.536C264.749 108.513 267.017 107.528 269.3 106.577L268.947 106.724C271.505 105.662 274.085 104.647 276.683 103.678C277.424 103.402 278.168 103.129 278.914 102.861C279.281 102.73 279.593 102.536 279.797 102.194C279.983 101.882 280.061 101.423 279.946 101.075C279.831 100.727 279.608 100.385 279.268 100.207C278.927 100.029 278.5 99.9286 278.131 100.06C275.408 101.042 272.702 102.078 270.018 103.163C267.334 104.248 264.482 105.461 261.75 106.691C259.1 107.884 256.473 109.126 253.873 110.42C251.272 111.713 248.719 113.046 246.181 114.432C243.643 115.818 241.135 117.254 238.654 118.736C238.348 118.918 238.039 119.104 237.733 119.29C237.075 119.686 236.766 120.606 237.204 121.276C237.641 121.946 238.518 122.222 239.223 121.797H239.225Z" fill="#555A60"/>
<path d="M116.567 182.369C121.441 179.772 122.764 172.726 119.522 166.631C116.28 160.537 109.7 157.701 104.826 160.298C99.9513 162.895 98.6284 169.941 101.871 176.036C105.113 182.13 111.693 184.966 116.567 182.369Z" fill="#555A60"/>
<path d="M180.839 154.162C186.038 152.299 188.366 145.519 186.04 139.019C183.713 132.519 177.612 128.761 172.413 130.625C167.214 132.489 164.886 139.269 167.213 145.769C169.54 152.268 175.64 156.026 180.839 154.162Z" fill="#555A60"/>
<path d="M152.39 177.384C156.549 175.528 159.535 170.018 158.92 166.799C158.624 165.244 157.444 162.464 154.559 162.061C151.467 161.629 146.667 163.634 146.667 163.634C146.667 163.634 138.649 166.629 139.012 171.581C139.082 172.526 139.99 175.214 142.509 176.596C145.433 178.201 150.154 178.382 152.388 177.384H152.39Z" fill="#555A60"/>
<path d="M151.261 176.922C152.319 179.296 153.379 181.667 154.436 184.041C154.621 184.458 155.162 184.819 155.58 184.935C156.037 185.063 156.648 185.004 157.052 184.739C157.457 184.474 157.82 184.073 157.932 183.577L158 183.06C158 182.71 157.911 182.383 157.739 182.078C156.681 179.704 155.621 177.333 154.564 174.959C154.379 174.542 153.838 174.181 153.42 174.065C152.963 173.937 152.352 173.996 151.948 174.261C151.543 174.526 151.18 174.927 151.068 175.423L151 175.94C151 176.29 151.089 176.617 151.261 176.922Z" fill="#555A60"/>
<path d="M169.469 179.953C169.237 180.385 168.968 180.796 168.674 181.186L168.971 180.799C168.472 181.448 167.896 182.029 167.258 182.534L167.64 182.233C166.961 182.765 166.214 183.207 165.424 183.548L165.876 183.354C165.127 183.671 164.344 183.891 163.54 184.003L164.044 183.935C163.23 184.045 162.406 184.042 161.592 183.935L162.096 184.003C161.228 183.885 160.383 183.65 159.577 183.307L160.029 183.501C159.257 183.168 158.526 182.739 157.862 182.218L158.244 182.519C157.808 182.173 157.402 181.791 157.03 181.372L157.327 181.759C157.281 181.676 157.244 181.584 157.206 181.495L156.909 181.108C156.738 180.922 156.534 180.788 156.299 180.712C155.922 180.553 155.467 180.484 155.067 180.615C154.754 180.717 154.472 180.882 154.232 181.108C154.049 181.28 153.917 181.487 153.842 181.725C153.723 181.953 153.669 182.199 153.679 182.464C153.754 183.207 153.741 183.953 153.646 184.692L153.713 184.181C153.597 185.045 153.369 185.891 153.036 186.697L153.227 186.239C152.899 187.027 152.473 187.771 151.959 188.449L152.256 188.061C151.778 188.684 151.23 189.242 150.615 189.726L150.998 189.425C150.352 189.925 149.646 190.339 148.897 190.661L149.349 190.467C148.551 190.805 147.714 191.035 146.859 191.156L147.363 191.088C146.523 191.2 145.673 191.206 144.834 191.093L145.337 191.161C145.02 191.117 144.702 191.056 144.389 190.98C143.903 190.863 143.369 190.915 142.932 191.174C142.539 191.407 142.165 191.863 142.061 192.321C141.95 192.811 141.976 193.363 142.253 193.798C142.516 194.211 142.901 194.562 143.384 194.68C146.185 195.363 149.176 194.939 151.7 193.538C154.224 192.138 156.056 189.742 156.955 187.001C157.219 186.2 157.353 185.38 157.451 184.543C157.531 183.854 157.536 183.158 157.464 182.466L153.938 183.435C153.966 183.498 153.994 183.558 154.023 183.621C154.131 183.857 154.317 184.05 154.493 184.239C154.71 184.474 154.94 184.7 155.183 184.912C155.772 185.427 156.407 185.907 157.084 186.299C158.314 187.009 159.691 187.514 161.094 187.708C161.882 187.818 162.659 187.894 163.455 187.836C164.251 187.779 164.997 187.666 165.741 187.456C166.485 187.247 167.188 186.956 167.87 186.616C168.415 186.344 168.935 186.022 169.423 185.653C170.095 185.145 170.73 184.608 171.283 183.969C171.836 183.33 172.342 182.637 172.745 181.89C172.985 181.445 173.071 180.906 172.936 180.414C172.815 179.969 172.477 179.487 172.066 179.267C171.627 179.031 171.094 178.914 170.609 179.073C170.123 179.233 169.717 179.513 169.477 179.956L169.469 179.953Z" fill="#555A60"/>
<path d="M65 95.1419C54.8582 90.2877 43.7523 87.5123 32.5433 87.0324C31.1718 86.975 29.7745 86.9515 28.4546 87.3376C27.1347 87.7236 25.887 88.5766 25.3301 89.8468C24.4098 91.944 25.5879 94.3254 26.7325 96.3052C32.2649 105.87 37.7972 115.435 43.3295 125C43.3295 125 49.8673 114.979 53.9998 108.844C58.1323 102.709 64.9974 95.1419 64.9974 95.1419H65Z" fill="#FAC985"/>
<path d="M157 55.1794C160.321 44.4109 165.848 34.3123 173.151 25.6675C174.044 24.6095 174.984 23.5567 176.171 22.8351C177.357 22.1134 178.845 21.7538 180.17 22.1884C182.357 22.9049 183.324 25.3649 184.013 27.5377C187.342 38.0243 190.671 48.5134 194 59C194 59 182.085 57.1738 174.701 56.1494C167.317 55.1277 157.003 55.1794 157.003 55.1794H157Z" fill="#FAC985"/>
<path d="M196 236C215.585 225.978 239 209 239 209L196 236Z" fill="white"/>
<path d="M266.19 257.58C268.789 261.365 271.328 265.188 273.575 269.202C276.51 274.444 278.967 279.943 281.122 285.56C285.354 296.591 288.058 308.092 290.354 319.68C291.292 324.417 292.213 329.177 292.844 333.966C293.024 335.335 295.173 335.354 294.989 333.966C293.665 323.93 291.536 313.933 289.122 304.118C286.213 292.291 282.163 280.672 276.43 269.933C273.934 265.259 271.038 260.842 268.045 256.485C267.26 255.342 265.4 256.43 266.193 257.583L266.19 257.58Z" fill="#555A60"/>
<path d="M119.495 312L139 245.683C139 245.683 109.644 253.823 98.7586 251.481C87.8736 249.141 59.0963 244.462 40.6119 238.747C35.1084 237.047 29.5347 235.33 23.7819 235.04C18.029 234.749 11.9827 236.032 7.57257 239.732C-0.0996405 246.166 -0.673628 258.38 3.87671 267.296C8.42705 276.212 16.9096 282.421 25.5168 287.536C52.5539 303.598 115.009 311.507 115.009 311.507L119.495 312Z" fill="white"/>
<path d="M8.05011 254.898C10.2909 255.852 12.5292 256.806 14.77 257.757C15.8396 258.212 17.0871 258.065 17.7248 256.997C18.2583 256.103 18.0246 254.56 16.9499 254.102C14.7091 253.148 12.4708 252.194 10.23 251.243C9.16036 250.788 7.91292 250.935 7.27523 252.003C6.7417 252.897 6.97543 254.44 8.05011 254.898Z" fill="#555A60"/>
<path d="M12.5978 247.197C14.8225 247.674 16.8219 248.466 18.7453 249.639C19.3166 248.332 19.8905 247.025 20.4617 245.718L20.0634 245.572C18.9393 245.158 17.6212 246.031 17.3224 247.071C16.9765 248.279 17.7496 249.293 18.879 249.71L19.2773 249.856C21.7169 250.757 23.0377 247.184 20.9937 245.935C18.7794 244.583 16.3398 243.606 13.7822 243.059C10.9888 242.461 9.79648 246.594 12.5978 247.194V247.197Z" fill="#555A60"/>
<path d="M111.942 308.808C103.171 308.338 94.4423 306.792 85.8456 305.054C76.8757 303.241 67.9706 301.069 59.1769 298.546C43.069 293.924 26.3082 288.447 13.7732 276.85C6.94603 270.534 1.70454 262.32 2.26937 252.724C2.51551 248.564 3.93275 244.36 6.76466 241.233C10.0137 237.646 14.7448 235.818 19.494 235.343C21.0356 235.188 22.6368 235.1 24.1836 235.273C23.9375 235.245 24.6085 235.34 24.7484 235.364C25.1086 235.426 25.4661 235.495 25.8237 235.568C27.8835 235.983 29.9251 236.495 31.9642 237.006C38.2369 238.584 44.4759 240.296 50.7175 241.985C65.0169 245.853 79.3216 249.907 93.8335 252.92C95.1782 253.199 96.528 253.465 97.8805 253.708C99.233 253.951 99.86 251.844 98.4661 251.591C83.8635 248.951 69.5045 244.784 55.1947 240.918C48.3494 239.069 41.5093 237.189 34.6407 235.42C30.9719 234.475 27.0285 233.114 23.2042 233.011C18.3332 232.882 13.2472 233.863 9.07838 236.466C5.37332 238.78 2.70205 242.297 1.27703 246.398C-1.71292 254.997 0.815845 264.427 6.07288 271.57C16.7346 286.053 34.309 293.072 50.8911 298.335C68.0924 303.794 85.944 308.059 103.873 310.262C106.552 310.593 109.242 310.854 111.939 310.998C113.356 311.073 113.351 308.878 111.939 308.803L111.942 308.808Z" fill="#555A60"/>
<path d="M222.003 252.007C222.003 252.007 248.391 266.976 254.404 276.308C257.883 281.706 270.861 290.367 278.001 301.288C283.207 309.249 282.571 319.121 286.36 326.323C289.035 331.407 291.749 336.549 295.593 340.812C299.437 345.075 304.594 348.436 310.303 348.937C320.232 349.807 329.232 341.595 332.308 332.089C335.384 322.583 333.784 312.219 331.326 302.535C323.605 272.123 284.098 223 284.098 223L222 252.005L222.003 252.007Z" fill="white"/>
<path d="M251.069 203.204C255.053 203.238 258.883 204.874 262.325 206.757C266.313 208.94 270.014 211.637 273.518 214.521C277.928 218.151 282.15 222.09 285.993 226.322C291.617 232.514 296.456 239.464 301.094 246.408C307.047 255.318 312.598 264.513 317.678 273.952C322.058 282.092 326.272 290.473 329.19 299.266C330.986 304.681 332.175 310.362 332.631 316.049C333.147 322.477 332.769 329.406 330.029 335.344C327.702 340.385 323.74 344.814 318.671 347.187C313.207 349.744 307.164 349.015 302.077 345.927C300.802 345.154 299.604 344.264 298.485 343.276C297.917 342.776 297.368 342.255 296.839 341.71C296.645 341.511 296.432 341.3 296.251 341.09C296.209 341.041 296.041 340.826 296.217 341.062C295.732 340.416 295.375 339.667 295.028 338.943C293.784 336.337 292.781 333.609 291.76 330.91C284.594 311.978 277.887 292.693 267.736 275.09C266.43 272.824 265.059 270.599 263.613 268.418C262.832 267.241 260.923 268.346 261.71 269.531C273.634 287.493 280.942 308.202 288.429 328.28C289.663 331.592 290.889 334.911 292.278 338.16C293.213 340.351 294.139 342.177 295.862 343.852C300.2 348.066 306.003 351.217 312.189 350.988C317.699 350.786 322.794 348.043 326.603 344.15C335.923 334.631 336.101 320.281 333.704 307.969C331.859 298.486 328.044 289.617 323.786 280.992C318.901 271.1 313.376 261.513 307.478 252.196C302.235 243.916 296.704 235.748 290.474 228.173C287.048 224.009 283.246 220.187 279.248 216.572C272.696 210.652 265.188 204.496 256.602 201.895C254.809 201.353 252.943 201.016 251.064 201C249.647 200.987 249.644 203.191 251.064 203.204H251.069Z" fill="#555A60"/>
<path d="M219 224.832L245.972 204.363C245.972 204.363 245.456 199.682 255.421 203.497C265.385 207.311 286 227.606 286 227.606L262.133 255.011L226.563 259L219.005 224.829L219 224.832Z" fill="white"/>
</g>
<defs>
<clipPath id="clip0_2647_101956">
<rect width="331" height="306" fill="white"/>
</clipPath>
</defs>
</svg>
