<svg width="20" height="24" viewBox="0 0 20 24" fill="none" xmlns="http://www.w3.org/2000/svg">
<path d="M5.18964 8.3821C6.77724 8.8699 7.82844 10.3735 8.33424 11.2759C8.55624 11.6719 8.40384 12.1681 7.99764 12.3715C7.07184 12.8347 5.35824 13.4893 3.77064 13.0021C2.18304 12.5143 1.13184 11.0107 0.626044 10.1083C0.404044 9.7123 0.556444 9.2161 0.962644 9.0127C1.88844 8.5495 3.60204 7.8949 5.18964 8.3821Z" fill="#0A9F60"/>
<path d="M14.5102 5.48094C16.108 4.58574 18.1072 4.89294 19.213 5.17674C19.6978 5.30094 19.9774 5.80074 19.8304 6.27894C19.495 7.36974 18.7126 9.23515 17.1148 10.1303C15.517 11.0255 13.5178 10.7183 12.412 10.4345C11.9272 10.3103 11.6476 9.81054 11.7946 9.33234C12.13 8.24154 12.9124 6.37614 14.5102 5.48094Z" fill="#0A9F60"/>
<path d="M10.7826 3.45006C11.9328 5.94846 10.38 9.11766 10.38 9.11766C10.38 9.11766 6.96301 8.23566 5.81341 5.73726C5.02681 4.02786 5.50441 2.00526 5.88541 0.897663C6.05161 0.413463 6.58381 0.168663 7.05961 0.357063C8.14861 0.788463 9.99601 1.74126 10.7826 3.45006Z" fill="#0A9F60"/>
<path d="M10.5049 8.41406H9.86768V14.9571H10.5049V8.41406Z" fill="#0A9F60"/>
<path d="M8.25735 11.4969L8.07812 12.1084L10.0594 12.6891L10.2386 12.0776L8.25735 11.4969Z" fill="#0A9F60"/>
<path d="M11.957 9.53189L10.0186 10.7402L10.356 11.2815L12.2944 10.0731L11.957 9.53189Z" fill="#0A9F60"/>
<path d="M14.4004 23.1985H5.974C5.6458 23.1985 5.3644 22.9651 5.3038 22.6429L4.021 15.8413H16.354L15.0712 22.6429C15.0106 22.9651 14.728 23.1985 14.4004 23.1985Z" fill="#6E483D"/>
<path d="M16.8006 14.0645H3.57241C3.17079 14.0645 2.84521 14.39 2.84521 14.7917V15.7931C2.84521 16.1947 3.17079 16.5203 3.57241 16.5203H16.8006C17.2022 16.5203 17.5278 16.1947 17.5278 15.7931V14.7917C17.5278 14.39 17.2022 14.0645 16.8006 14.0645Z" fill="#86584A"/>
</svg>
