<svg width="23" height="21" viewBox="0 0 23 21" fill="none" xmlns="http://www.w3.org/2000/svg">
<path d="M13.2 9.99993C13.2 10.5304 12.9892 11.0391 12.6142 11.4141C12.2391 11.7892 11.7304 11.9999 11.2 11.9999C10.6695 11.9999 10.1608 11.7892 9.78575 11.4141C9.41068 11.0391 9.19996 10.5304 9.19996 9.99993C9.19996 8.93906 9.62139 7.92165 10.3715 7.1715C11.1217 6.42135 12.1391 5.99993 13.2 5.99993C14.2608 5.99993 15.2782 6.42135 16.0284 7.1715C16.7785 7.92165 17.2 8.93906 17.2 9.99993C17.2 11.5912 16.5678 13.1173 15.4426 14.2426C14.3174 15.3678 12.7913 15.9999 11.2 15.9999C9.60866 15.9999 8.08254 15.3678 6.95732 14.2426C5.8321 13.1173 5.19996 11.5912 5.19996 9.99993C5.19996 7.8782 6.04282 5.84336 7.54311 4.34307C9.0434 2.84278 11.0782 1.99993 13.2 1.99993C15.3217 1.99993 17.3565 2.84278 18.8568 4.34307C20.3571 5.84336 21.2 7.8782 21.2 9.99993C21.2 12.6521 20.1464 15.1956 18.271 17.071C16.3957 18.9464 13.8521 19.9999 11.2 19.9999C8.5478 19.9999 6.00426 18.9464 4.1289 17.071C2.25353 15.1956 1.19996 12.6521 1.19996 9.99993C1.19628 7.39352 2.04626 4.85762 3.61996 2.77993C3.77319 2.55395 3.97106 2.36174 4.20139 2.21513C4.43172 2.06853 4.68962 1.97063 4.95922 1.92748C5.22882 1.88433 5.50439 1.89683 5.76897 1.96423C6.03355 2.03162 6.28153 2.15247 6.49764 2.31933C6.71374 2.4862 6.89339 2.69554 7.02552 2.93447C7.15765 3.1734 7.23946 3.43685 7.2659 3.70859C7.29235 3.98034 7.26289 4.25462 7.17931 4.51454C7.09574 4.77446 6.95983 5.01452 6.77996 5.21993" stroke="#F79009" stroke-width="2" stroke-linecap="round" stroke-linejoin="round"/>
</svg>
