<svg width="56" height="17" viewBox="0 0 56 17" fill="none" xmlns="http://www.w3.org/2000/svg">
<circle cx="3.5" cy="8.5" r="3" fill="#E98080"/>
<path d="M12.1339 3.144H17.1259V10.212H12.1339V3.144ZM16.1659 3.936H13.1179V9.408H16.1659V3.936ZM19.4059 2.076H20.4019V12.948H19.4059V2.076ZM28.3089 3.684H30.7449V4.5H28.3089V3.684ZM28.3089 5.904H30.7449V6.72H28.3089V5.904ZM25.2849 2.688H26.0889V4.068C26.0889 4.78 25.9649 5.448 25.7169 6.072C25.4689 6.688 25.1209 7.228 24.6729 7.692C24.2329 8.148 23.7129 8.5 23.1129 8.748L22.5849 7.956C22.9929 7.796 23.3609 7.588 23.6889 7.332C24.0169 7.068 24.2969 6.764 24.5289 6.42C24.7689 6.076 24.9529 5.708 25.0809 5.316C25.2169 4.916 25.2849 4.5 25.2849 4.068V2.688ZM25.4649 2.688H26.2689V4.068C26.2689 4.468 26.3289 4.856 26.4489 5.232C26.5769 5.608 26.7569 5.96 26.9889 6.288C27.2209 6.616 27.4969 6.908 27.8169 7.164C28.1449 7.42 28.5009 7.624 28.8849 7.776L28.3329 8.556C27.7649 8.324 27.2649 7.984 26.8329 7.536C26.4009 7.08 26.0649 6.556 25.8249 5.964C25.5849 5.372 25.4649 4.74 25.4649 4.068V2.688ZM30.4929 2.088H31.4889V10.188H30.4929V2.088ZM24.5169 11.88H31.7409V12.696H24.5169V11.88ZM24.5169 9.36H25.5129V12.312H24.5169V9.36ZM41.496 2.088H42.492V10.008H41.496V2.088ZM35.52 11.88H42.828V12.696H35.52V11.88ZM35.52 9.204H36.516V12.156H35.52V9.204ZM36.672 2.844C37.216 2.844 37.7 2.956 38.124 3.18C38.548 3.404 38.884 3.72 39.132 4.128C39.38 4.528 39.504 4.988 39.504 5.508C39.504 6.028 39.38 6.492 39.132 6.9C38.884 7.3 38.548 7.616 38.124 7.848C37.7 8.072 37.216 8.184 36.672 8.184C36.136 8.184 35.652 8.072 35.22 7.848C34.796 7.616 34.46 7.3 34.212 6.9C33.964 6.492 33.84 6.028 33.84 5.508C33.84 4.988 33.964 4.528 34.212 4.128C34.46 3.72 34.796 3.404 35.22 3.18C35.652 2.956 36.136 2.844 36.672 2.844ZM36.672 3.708C36.32 3.708 36.004 3.784 35.724 3.936C35.444 4.088 35.22 4.3 35.052 4.572C34.892 4.844 34.812 5.156 34.812 5.508C34.812 5.868 34.892 6.184 35.052 6.456C35.22 6.72 35.444 6.928 35.724 7.08C36.004 7.232 36.32 7.308 36.672 7.308C37.024 7.308 37.34 7.232 37.62 7.08C37.908 6.928 38.132 6.72 38.292 6.456C38.452 6.184 38.532 5.868 38.532 5.508C38.532 5.156 38.452 4.844 38.292 4.572C38.132 4.3 37.908 4.088 37.62 3.936C37.34 3.784 37.024 3.708 36.672 3.708ZM44.6391 7.236H54.4431V8.052H44.6391V7.236ZM49.5351 8.988C50.6951 8.988 51.6031 9.16 52.2591 9.504C52.9151 9.848 53.2431 10.332 53.2431 10.956C53.2431 11.58 52.9151 12.06 52.2591 12.396C51.6031 12.74 50.6951 12.912 49.5351 12.912C48.3751 12.912 47.4631 12.74 46.7991 12.396C46.1431 12.06 45.8151 11.58 45.8151 10.956C45.8151 10.332 46.1431 9.848 46.7991 9.504C47.4631 9.16 48.3751 8.988 49.5351 8.988ZM49.5351 9.78C48.9671 9.78 48.4791 9.824 48.0711 9.912C47.6711 10 47.3631 10.132 47.1471 10.308C46.9311 10.484 46.8231 10.7 46.8231 10.956C46.8231 11.204 46.9311 11.416 47.1471 11.592C47.3631 11.76 47.6711 11.892 48.0711 11.988C48.4791 12.076 48.9671 12.12 49.5351 12.12C50.1031 12.12 50.5871 12.076 50.9871 11.988C51.3951 11.892 51.7071 11.76 51.9231 11.592C52.1391 11.416 52.2471 11.204 52.2471 10.956C52.2471 10.7 52.1391 10.484 51.9231 10.308C51.7071 10.132 51.3951 10 50.9871 9.912C50.5871 9.824 50.1031 9.78 49.5351 9.78ZM48.8991 3.06H49.7751V3.384C49.7751 3.736 49.6991 4.064 49.5471 4.368C49.4031 4.664 49.1991 4.936 48.9351 5.184C48.6711 5.432 48.3591 5.652 47.9991 5.844C47.6471 6.036 47.2631 6.196 46.8471 6.324C46.4311 6.444 45.9951 6.532 45.5391 6.588L45.1791 5.796C45.5711 5.756 45.9471 5.684 46.3071 5.58C46.6751 5.476 47.0151 5.352 47.3271 5.208C47.6471 5.056 47.9231 4.888 48.1551 4.704C48.3871 4.512 48.5671 4.308 48.6951 4.092C48.8311 3.868 48.8991 3.632 48.8991 3.384V3.06ZM49.3071 3.06H50.1831V3.384C50.1831 3.632 50.2471 3.868 50.3751 4.092C50.5111 4.308 50.6951 4.512 50.9271 4.704C51.1591 4.896 51.4311 5.068 51.7431 5.22C52.0631 5.364 52.4031 5.488 52.7631 5.592C53.1311 5.688 53.5111 5.756 53.9031 5.796L53.5431 6.588C53.0871 6.532 52.6511 6.444 52.2351 6.324C51.8191 6.196 51.4311 6.036 51.0711 5.844C50.7191 5.652 50.4111 5.432 50.1471 5.184C49.8831 4.936 49.6751 4.66 49.5231 4.356C49.3791 4.052 49.3071 3.728 49.3071 3.384V3.06ZM45.5391 2.628H53.5551V3.444H45.5391V2.628Z" fill="#6F757B"/>
</svg>
