<svg width="56" height="17" viewBox="0 0 56 17" fill="none" xmlns="http://www.w3.org/2000/svg">
<circle cx="3.5" cy="8.5" r="3" fill="#2A2A2A"/>
<path d="M18.8779 2.076H19.8619V12.936H18.8779V2.076ZM19.6339 6.54H21.6379V7.38H19.6339V6.54ZM11.4619 3.816H17.8579V4.632H11.4619V3.816ZM14.7139 5.52C15.2259 5.52 15.6779 5.628 16.0699 5.844C16.4699 6.06 16.7819 6.356 17.0059 6.732C17.2379 7.1 17.3539 7.528 17.3539 8.016C17.3539 8.504 17.2379 8.936 17.0059 9.312C16.7819 9.688 16.4699 9.984 16.0699 10.2C15.6779 10.408 15.2259 10.512 14.7139 10.512C14.2019 10.512 13.7459 10.408 13.3459 10.2C12.9539 9.984 12.6419 9.688 12.4099 9.312C12.1779 8.936 12.0619 8.504 12.0619 8.016C12.0619 7.528 12.1779 7.1 12.4099 6.732C12.6419 6.356 12.9539 6.06 13.3459 5.844C13.7459 5.628 14.2019 5.52 14.7139 5.52ZM14.7139 6.348C14.3859 6.348 14.0939 6.42 13.8379 6.564C13.5819 6.708 13.3779 6.904 13.2259 7.152C13.0819 7.4 13.0099 7.688 13.0099 8.016C13.0099 8.344 13.0819 8.636 13.2259 8.892C13.3779 9.14 13.5819 9.336 13.8379 9.48C14.0939 9.616 14.3859 9.684 14.7139 9.684C15.0339 9.684 15.3219 9.616 15.5779 9.48C15.8339 9.336 16.0339 9.14 16.1779 8.892C16.3299 8.636 16.4059 8.344 16.4059 8.016C16.4059 7.688 16.3299 7.4 16.1779 7.152C16.0339 6.904 15.8339 6.708 15.5779 6.564C15.3219 6.42 15.0339 6.348 14.7139 6.348ZM14.1979 2.208H15.1939V4.176H14.1979V2.208ZM23.7249 2.508H31.2009V5.352H24.7569V7.212H23.7609V4.584H30.1929V3.312H23.7249V2.508ZM23.7609 6.732H31.4409V7.548H23.7609V6.732ZM22.5489 8.664H32.3889V9.48H22.5489V8.664ZM26.9529 8.976H27.9489V12.948H26.9529V8.976ZM36.648 2.472C37.192 2.472 37.672 2.576 38.088 2.784C38.512 2.984 38.844 3.264 39.084 3.624C39.324 3.984 39.444 4.404 39.444 4.884C39.444 5.356 39.324 5.776 39.084 6.144C38.844 6.504 38.512 6.784 38.088 6.984C37.672 7.184 37.192 7.284 36.648 7.284C36.112 7.284 35.632 7.184 35.208 6.984C34.784 6.784 34.448 6.504 34.2 6.144C33.96 5.776 33.84 5.356 33.84 4.884C33.84 4.404 33.96 3.984 34.2 3.624C34.448 3.264 34.784 2.984 35.208 2.784C35.632 2.576 36.112 2.472 36.648 2.472ZM36.648 3.3C36.296 3.3 35.98 3.368 35.7 3.504C35.428 3.632 35.212 3.816 35.052 4.056C34.892 4.296 34.812 4.572 34.812 4.884C34.812 5.196 34.892 5.472 35.052 5.712C35.212 5.944 35.428 6.128 35.7 6.264C35.98 6.4 36.296 6.468 36.648 6.468C37 6.468 37.312 6.4 37.584 6.264C37.864 6.128 38.084 5.944 38.244 5.712C38.404 5.472 38.484 5.196 38.484 4.884C38.484 4.572 38.404 4.296 38.244 4.056C38.084 3.816 37.864 3.632 37.584 3.504C37.312 3.368 37 3.3 36.648 3.3ZM41.496 2.076H42.492V7.632H41.496V2.076ZM35.472 8.172H42.492V10.8H36.468V12.432H35.508V10.056H41.508V8.964H35.472V8.172ZM35.508 11.988H42.864V12.792H35.508V11.988ZM52.5471 2.076H53.5431V12.936H52.5471V2.076ZM49.3671 3.252H50.3511C50.3511 4.036 50.2551 4.792 50.0631 5.52C49.8791 6.248 49.5871 6.94 49.1871 7.596C48.7871 8.244 48.2671 8.848 47.6271 9.408C46.9871 9.968 46.2111 10.468 45.2991 10.908L44.7711 10.104C45.8191 9.6 46.6831 9.012 47.3631 8.34C48.0431 7.668 48.5471 6.92 48.8751 6.096C49.2031 5.264 49.3671 4.368 49.3671 3.408V3.252ZM45.2751 3.252H49.7871V4.056H45.2751V3.252Z" fill="#6F757B"/>
</svg>
