<svg width="462" height="178" viewBox="0 0 462 178" fill="none" xmlns="http://www.w3.org/2000/svg">
<path d="M16.33 137.62C14.22 139.29 13.49 142.42 14.7 144.84C15.91 147.26 18.76 148.48 21.29 147.88C22.62 147.56 23.97 146.61 23.99 145.12C24 143.88 22.98 143.03 21.78 143.1C18.89 143.26 17.97 146.91 19.23 149.09C21.1 152.32 25.38 152.17 28.15 150.31C28.63 149.99 28.18 149.21 27.7 149.53C25.69 150.88 22.91 151.37 20.92 149.7C19.4 148.43 18.84 145.46 20.84 144.29C21.72 143.77 23.23 143.9 23.07 145.25C22.93 146.47 21.52 147.01 20.46 147.11C18.46 147.3 16.36 146.2 15.47 144.38C14.45 142.29 15.17 139.67 16.96 138.25C17.41 137.89 16.77 137.26 16.32 137.61L16.33 137.62Z" fill="#FEC84B"/>
<path d="M429.68 129.35C427.35 127.97 424.1 128.35 422.27 130.41C420.44 132.47 420.32 135.67 421.96 137.81C422.76 138.86 424.07 139.65 425.4 139.12C426.56 138.66 426.94 137.39 426.42 136.3C425.18 133.67 421.43 134.21 419.88 136.2C417.59 139.15 419.31 143 422.03 144.93C422.5 145.27 422.95 144.49 422.48 144.15C420.62 142.83 419.27 140.61 419.86 138.27C420.36 136.27 422.82 134.49 424.82 135.79C425.73 136.38 426.28 137.99 424.87 138.35C423.69 138.65 422.69 137.5 422.23 136.56C421.34 134.78 421.61 132.43 422.97 130.96C424.54 129.25 427.25 128.95 429.22 130.12C429.72 130.42 430.17 129.64 429.67 129.34L429.68 129.35Z" fill="#FEC84B"/>
<path d="M435.31 144.83L436.43 149.96L428.31 151.99L427.25 147.14C427.25 147.14 435.23 144.78 435.31 144.83Z" fill="#CBD9F8"/>
<path d="M26.0301 89.6299L33.3101 93.7299L26.7601 105.34L19.8701 101.46C19.8701 101.46 25.8701 89.6699 26.0201 89.6299H26.0301Z" fill="#44C7B4"/>
<path d="M67.79 16.84L65.55 24.89L52.71 21.33L54.82 13.71C54.82 13.71 67.7 16.7 67.78 16.84H67.79Z" fill="#CBD9F8"/>
<path d="M35.6099 44.2302L34.3599 35.9702L47.5399 33.9702L48.7299 41.7902C48.7299 41.7902 35.7499 44.3302 35.6199 44.2402L35.6099 44.2302Z" fill="#FFDB6D"/>
<path d="M35.6299 141.69L39.6599 138.8L44.1099 145.34L40.2999 148.07C40.2999 148.07 35.6199 141.78 35.6299 141.69Z" fill="#ED83A6"/>
<path d="M427.74 28.1398L433.41 21.5698L443.67 30.8598L438.31 37.0798C438.31 37.0798 427.76 28.3098 427.75 28.1498L427.74 28.1398Z" fill="#44C7B4"/>
<path d="M438.13 109.22L442.65 112.63L437.04 119.7L432.77 116.48C432.77 116.48 438.03 109.24 438.13 109.23V109.22Z" fill="#ED83A6"/>
<path d="M21 25.8901C23.2091 25.8901 25 24.0993 25 21.8901C25 19.681 23.2091 17.8901 21 17.8901C18.7909 17.8901 17 19.681 17 21.8901C17 24.0993 18.7909 25.8901 21 25.8901Z" fill="#D3D570"/>
<path d="M433.22 97.2202C435.429 97.2202 437.22 95.4294 437.22 93.2202C437.22 91.0111 435.429 89.2202 433.22 89.2202C431.011 89.2202 429.22 91.0111 429.22 93.2202C429.22 95.4294 431.011 97.2202 433.22 97.2202Z" fill="#D3D570"/>
<path d="M409.89 21.2202C412.099 21.2202 413.89 19.4294 413.89 17.2202C413.89 15.0111 412.099 13.2202 409.89 13.2202C407.681 13.2202 405.89 15.0111 405.89 17.2202C405.89 19.4294 407.681 21.2202 409.89 21.2202Z" fill="#FFDE54"/>
<path d="M53.5498 156.32L62.2498 150.16L63.9498 161.79L65.6498 173.42L55.2398 167.95L44.8398 162.49L53.5498 156.32Z" fill="#7651FA"/>
<path d="M416.17 157.55L407.46 151.38L405.76 163.01L404.06 174.64L414.47 169.17L424.87 163.71L416.17 157.55Z" fill="#7651FA"/>
<path d="M23.32 53.6598C26.45 54.1698 27.88 57.3598 26.4 60.1498C25.7 61.4698 24.27 62.3198 22.76 61.9398C21.92 61.7298 20.91 60.8698 21.58 59.9598C21.97 59.4298 22.76 59.2298 23.38 59.1998C26.31 59.0598 28.23 62.4498 28.39 64.9998C28.57 67.9298 26.77 70.4398 24.4 71.9898C23.92 72.3098 24.37 73.0898 24.85 72.7698C27.39 71.1098 29.34 68.4498 29.29 65.3098C29.25 62.5198 27.52 59.2398 24.67 58.4598C23.54 58.1498 22.13 58.2898 21.2 59.0598C20.35 59.7698 20.23 60.9198 20.89 61.7998C21.75 62.9398 23.45 63.1598 24.73 62.7298C26.01 62.2998 26.88 61.3398 27.39 60.1498C28.76 56.9298 27.09 53.3698 23.56 52.7898C22.99 52.6998 22.75 53.5598 23.32 53.6598Z" fill="#97C6FF"/>
<path d="M42.7199 103.61C44.7599 104.91 47.4799 107 46.6199 109.8C45.6899 112.85 41.2999 111.9 41.2499 108.86L40.7999 109.31C43.1699 109.29 45.4499 110.94 45.9099 113.33C46.1399 114.51 45.8699 115.77 45.2799 116.81C44.8099 117.63 43.4199 119.27 42.2899 118.99C41.8099 119.15 41.6699 118.95 41.8499 118.39C41.6199 117.92 41.6799 117.71 42.0299 117.75C42.2799 117.64 42.6599 117.78 42.9199 117.87C43.4899 118.07 44.0199 118.49 44.4099 118.94C45.1699 119.81 45.5699 121.01 45.4399 122.16C45.1799 124.62 42.5199 126.1 40.2399 125.47C39.6799 125.32 39.4399 126.19 39.9999 126.34C42.5099 127.03 45.4099 125.63 46.1799 123.07C46.9099 120.66 45.4299 117.57 42.8999 116.92C41.9999 116.69 40.7899 116.88 40.4399 117.86C40.0599 118.94 41.0899 119.9 42.1199 119.95C44.8999 120.06 46.8599 116.69 46.8999 114.27C46.9399 110.98 44.0099 108.39 40.8099 108.41C40.5699 108.41 40.3599 108.61 40.3599 108.86C40.4099 112.16 44.4699 113.94 46.7499 111.37C47.8299 110.16 47.8599 108.38 47.2599 106.93C46.4899 105.07 44.8099 103.87 43.1699 102.82C42.6799 102.51 42.2299 103.29 42.7199 103.6V103.61Z" fill="#7651FA"/>
<path d="M444.11 52.3702C446.57 54.0102 447.67 57.2802 446.54 60.0502C446 61.3702 445 62.5202 443.76 63.2302C442.43 64.0002 440.46 64.4102 439.15 63.3702C438.03 62.4902 437.8 60.7102 439.16 59.9502C440.52 59.1902 442 59.8902 442.9 60.9802C444.69 63.1502 444.53 66.5002 442.95 68.7302C441.02 71.4502 437.04 72.0302 434.27 70.3102C433.72 69.9702 433.22 70.8302 433.77 71.1702C436.79 73.0402 441.11 72.5202 443.42 69.7502C445.73 66.9802 445.88 62.7802 443.49 60.1202C442.35 58.8502 440.57 58.2102 438.95 58.9302C437.42 59.6102 436.82 61.2902 437.49 62.8002C438.28 64.5702 440.25 65.1802 442.06 64.8802C443.87 64.5802 445.44 63.4902 446.52 62.0602C449.07 58.6802 448.11 53.8202 444.62 51.5002C444.08 51.1402 443.58 52.0102 444.12 52.3602L444.11 52.3702Z" fill="#B1A2F9"/>
<path d="M53.2201 165.63C56.0701 163.3 58.9201 160.97 61.7701 158.64C62.3801 158.14 62.3301 157.03 61.7701 156.52C61.1201 155.93 60.3001 155.99 59.6501 156.52C56.8001 158.85 53.9501 161.18 51.1001 163.51C50.4901 164.01 50.5401 165.12 51.1001 165.63C51.7501 166.22 52.5701 166.16 53.2201 165.63Z" fill="#7651FA"/>
<path d="M51.4499 168.27C55.5799 165.4 59.7099 162.52 63.8399 159.65C64.4999 159.19 64.8099 158.34 64.3799 157.6C63.9999 156.94 62.9999 156.6 62.3299 157.06C58.1999 159.93 54.0699 162.81 49.9399 165.68C49.2799 166.14 48.9699 166.99 49.3999 167.73C49.7799 168.39 50.7799 168.73 51.4499 168.27Z" fill="white"/>
<path d="M405.83 161.58C409.93 164.32 414.03 167.05 418.14 169.79C418.81 170.24 419.8 169.92 420.19 169.25C420.62 168.51 420.33 167.65 419.65 167.2C415.55 164.46 411.45 161.73 407.34 158.99C406.67 158.54 405.68 158.86 405.29 159.53C404.86 160.27 405.15 161.13 405.83 161.58Z" fill="white"/>
</svg>
