<svg width="25" height="24" viewBox="0 0 25 24" fill="none" xmlns="http://www.w3.org/2000/svg">
<path d="M18.1 19.2L16.3 11L19.8 7.5C21.3 6 21.8 4 21.3 3C20.3 2.5 18.3 3 16.8 4.5L13.3 8L5.10005 6.2C4.60005 6.1 4.20005 6.3 4.00005 6.7L3.70005 7.2C3.50005 7.7 3.60005 8.2 4.00005 8.5L9.30005 12L7.30005 15H4.30005L3.30005 16L6.30005 18L8.30005 21L9.30005 20V17L12.3 15L15.8 20.3C16.1 20.7 16.6 20.8 17.1 20.6L17.6 20.4C18 20.1 18.2 19.7 18.1 19.2Z" stroke="#F79009" stroke-width="2" stroke-linecap="round" stroke-linejoin="round"/>
</svg>
