<svg width="20" height="20" viewBox="0 0 20 20" fill="none" xmlns="http://www.w3.org/2000/svg">
<path fill-rule="evenodd" clip-rule="evenodd" d="M3.34694 2.16753L12.4735 3.71935L8.42293 7.76989L1.25621 4.00735C0.984027 3.86444 0.92839 3.49844 1.14603 3.28135L1.75257 2.67535C2.17039 2.25753 2.76439 2.06826 3.34694 2.16753Z" fill="#93C9FF"/>
<path fill-rule="evenodd" clip-rule="evenodd" d="M16.0978 7.34527L17.6507 16.4718C17.75 17.0549 17.5602 17.6495 17.1423 18.0673L16.5363 18.6727C16.3187 18.8898 15.9532 18.8342 15.8103 18.562L12.0483 11.3953L16.0978 7.34527Z" fill="#93C9FF"/>
<path fill-rule="evenodd" clip-rule="evenodd" d="M18.7662 4.67762L9.25834 14.1854V16.6449C9.25834 17.1287 9.06634 17.5923 8.72434 17.9343L7.33779 19.3209C7.07216 19.5865 6.61725 19.4349 6.56434 19.0629L5.88634 14.3191C5.85743 14.1183 5.70034 13.9607 5.49961 13.9323L0.755794 13.2543C0.383794 13.2014 0.232158 12.7465 0.497794 12.4809L1.88434 11.0949C2.22634 10.7529 2.68998 10.5609 3.17325 10.5609H5.6327L15.1405 1.05307C16.1507 0.110524 17.726 0.137797 18.7029 1.11525C19.6803 2.09161 19.7082 3.66689 18.7662 4.67762Z" fill="#C8E1FF"/>
</svg>
