<svg width="221" height="142" viewBox="0 0 221 142" fill="none" xmlns="http://www.w3.org/2000/svg">
<rect width="221" height="142" fill="#F8F9FA"/>
<path d="M166.435 116.899C185.568 116.899 201.079 114.012 201.079 110.45C201.079 106.888 185.568 104 166.435 104C147.301 104 131.791 106.888 131.791 110.45C131.791 114.012 147.301 116.899 166.435 116.899Z" fill="#E8E4DC"/>
<path d="M197.804 25.6633L199.43 26.7443C200.361 27.3632 200.614 28.6211 199.995 29.5519L191.497 42.3326L186.499 39.009L194.996 26.2284C195.615 25.2975 196.873 25.0443 197.804 25.6633Z" fill="#7F6A4E"/>
<path d="M197.657 25.5618L199.376 26.7052C200.341 27.3462 200.6 28.6473 199.961 29.6084L191.503 42.3286L186.296 38.8663L194.752 26.1491C195.393 25.1851 196.694 24.9258 197.655 25.5648L197.657 25.5618Z" stroke="#404040" stroke-width="1.08876" stroke-miterlimit="10"/>
<path d="M180.211 30.8347L202.055 45.0031C203.394 45.8705 205.187 45.3479 205.855 43.8962C207.789 39.6791 209.894 31.2339 200.037 25.0352C190.899 19.2865 183.535 23.569 179.935 26.6611C178.61 27.797 178.752 29.8838 180.214 30.8347H180.211Z" fill="#EFD09F"/>
<path d="M190.986 23.2938C193.795 23.2938 196.644 24.1903 199.456 25.9577C203.492 28.4945 205.793 31.6664 206.29 35.3755C206.718 38.5547 205.742 41.5306 204.853 43.4686C204.606 44.0021 204.069 44.3469 203.485 44.3469C203.198 44.3469 202.919 44.2634 202.675 44.1038L180.773 29.899C180.374 29.6413 180.127 29.2203 180.094 28.7486C180.062 28.2731 180.25 27.8195 180.613 27.5074C182.845 25.5839 186.456 23.2902 190.982 23.2902M190.986 22.2051C186.083 22.2051 182.21 24.6983 179.906 26.6872C178.599 27.8158 178.733 29.8772 180.181 30.8172L202.084 45.0219C202.519 45.305 203.006 45.4393 203.485 45.4393C204.457 45.4393 205.401 44.8877 205.844 43.9259C207.782 39.716 209.916 31.2491 200.037 25.0359C196.76 22.9781 193.711 22.2051 190.986 22.2051Z" fill="#555A60"/>
<path d="M144.481 39.0088L139.483 42.3324L130.985 29.5517C130.366 28.6209 130.619 27.363 131.55 26.7441L133.176 25.663C134.107 25.0441 135.365 25.2973 135.984 26.2281L144.481 39.0088Z" fill="#7F6A4E"/>
<path d="M144.692 38.8682L139.485 42.3304L131.027 29.6102C130.386 28.6461 130.65 27.346 131.611 26.707L133.331 25.5636C134.295 24.9226 135.595 25.1869 136.234 26.1479L144.692 38.8682Z" stroke="#404040" stroke-width="1.08876" stroke-miterlimit="10"/>
<path d="M150.77 30.8347L128.926 45.0031C127.587 45.8705 125.794 45.3479 125.126 43.8962C123.196 39.6791 121.091 31.2339 130.948 25.0352C140.086 19.2865 147.45 23.569 151.05 26.6611C152.375 27.797 152.233 29.8838 150.77 30.8347Z" fill="#EFD09F"/>
<path d="M139.999 22.2051V23.2938C144.525 23.2938 148.136 25.5875 150.368 27.511C150.73 27.8231 150.919 28.2768 150.887 28.7522C150.854 29.224 150.607 29.645 150.208 29.9026L128.309 44.1074C128.066 44.2671 127.787 44.3505 127.5 44.3505C126.916 44.3505 126.378 44.0058 126.132 43.4723C125.239 41.5343 124.266 38.5583 124.695 35.3791C125.192 31.6664 127.493 28.4981 131.528 25.9613C134.341 24.1939 137.19 23.2975 139.999 23.2975V22.2051ZM139.999 22.2051C137.27 22.2051 134.225 22.9781 130.948 25.0359C121.069 31.2491 123.207 39.716 125.141 43.9259C125.584 44.8877 126.527 45.4393 127.5 45.4393C127.979 45.4393 128.465 45.305 128.901 45.0219L150.803 30.8172C152.251 29.8772 152.389 27.8122 151.079 26.6872C148.771 24.6983 144.902 22.2051 139.999 22.2051Z" fill="#555A60"/>
<path d="M188.532 98.5339C186.413 100.051 184.29 101.564 182.17 103.081L182.138 103.539C183.176 104.918 184.308 106.228 185.524 107.454C186.638 108.58 187.999 109.701 189.581 109.628C191.127 109.556 192.441 108.26 192.84 106.765C193.239 105.27 192.858 103.651 192.122 102.29C191.385 100.929 190.3 99.3251 189.269 98.0439L188.529 98.5339H188.532Z" fill="#615943"/>
<path d="M188.257 98.0664C187.15 98.8575 186.039 99.6523 184.932 100.443L183.343 101.579L182.475 102.2C182.232 102.374 181.855 102.548 181.702 102.81C181.59 103.002 181.557 103.47 181.615 103.688C181.677 103.92 181.913 104.138 182.058 104.327C182.297 104.635 182.541 104.94 182.787 105.241C183.579 106.199 184.41 107.125 185.295 107.996C186.787 109.469 188.83 110.812 190.964 109.836C192.971 108.914 193.78 106.642 193.472 104.566C193.279 103.263 192.681 102.106 192.006 100.995C191.331 99.8846 190.507 98.7269 189.661 97.6635C189.52 97.4857 189.186 97.4566 189.001 97.58L188.26 98.07C187.68 98.4547 188.224 99.3983 188.808 99.01L189.549 98.52L188.888 98.4365C189.875 99.6777 190.783 100.999 191.552 102.385C192.321 103.771 192.76 105.361 192.241 106.874C191.821 108.108 190.648 109.154 189.298 109.092C187.828 109.023 186.638 107.825 185.676 106.838C184.998 106.141 184.344 105.416 183.716 104.668C183.415 104.305 183.143 103.869 182.809 103.539C182.806 103.536 182.566 103.245 182.682 103.528C182.671 103.499 182.689 103.434 182.689 103.401C182.689 103.296 182.704 103.191 182.711 103.089L182.443 103.561C184.562 102.044 186.685 100.531 188.805 99.0136C189.371 98.6107 188.826 97.6635 188.257 98.0736V98.0664Z" fill="#404040"/>
<path d="M141.404 98.5339C143.523 100.051 145.646 101.564 147.766 103.081L147.798 103.539C146.76 104.918 145.628 106.228 144.412 107.454C143.298 108.58 141.937 109.701 140.355 109.628C138.809 109.556 137.495 108.26 137.096 106.765C136.697 105.27 137.078 103.651 137.814 102.29C138.551 100.929 139.636 99.3251 140.667 98.0439L141.407 98.5339H141.404Z" fill="#615943"/>
<path d="M141.128 99.0062C143.247 100.523 145.37 102.037 147.49 103.554L147.221 103.082L147.239 103.31C147.239 103.35 147.25 103.39 147.247 103.43C147.247 103.535 147.21 103.499 147.239 103.459C147.33 103.332 147.127 103.528 147.127 103.532C147.047 103.615 146.978 103.724 146.905 103.819C146.749 104.014 146.593 104.21 146.434 104.403C145.904 105.049 145.352 105.677 144.782 106.286C143.784 107.353 142.659 108.624 141.189 109.001C139.814 109.353 138.536 108.533 137.901 107.332C137.19 105.985 137.459 104.308 138.079 102.98C138.838 101.354 139.941 99.8264 141.055 98.4291L140.395 98.5126L141.135 99.0025C141.719 99.3909 142.267 98.4473 141.683 98.0626L140.943 97.5726C140.761 97.4529 140.427 97.4783 140.282 97.6561C139.531 98.5961 138.827 99.576 138.184 100.592C137.542 101.608 136.961 102.595 136.646 103.724C136.058 105.829 136.529 108.159 138.373 109.476C140.217 110.794 142.474 109.926 144.056 108.536C144.978 107.727 145.813 106.798 146.611 105.869C147.011 105.404 147.399 104.933 147.776 104.446C147.932 104.247 148.161 104.033 148.27 103.808C148.361 103.619 148.339 103.459 148.324 103.263C148.31 103.049 148.303 102.864 148.15 102.69C147.943 102.458 147.573 102.269 147.315 102.087L145.436 100.745C144.183 99.8481 142.928 98.9554 141.676 98.0589C141.106 97.6525 140.561 98.5961 141.128 98.9989V99.0062Z" fill="#404040"/>
<path d="M165.574 107.44C186.401 107.44 203.285 90.556 203.285 69.7287C203.285 48.9014 186.401 32.0176 165.574 32.0176C144.747 32.0176 127.863 48.9014 127.863 69.7287C127.863 90.556 144.747 107.44 165.574 107.44Z" fill="#ECCC97"/>
<path d="M165.574 107.44C186.401 107.44 203.285 90.556 203.285 69.7287C203.285 48.9014 186.401 32.0176 165.574 32.0176C144.747 32.0176 127.863 48.9014 127.863 69.7287C127.863 90.556 144.747 107.44 165.574 107.44Z" stroke="#555A60" stroke-width="1.08876" stroke-miterlimit="10"/>
<path d="M165.574 100.476C182.555 100.476 196.321 86.7101 196.321 69.7291C196.321 52.7482 182.555 38.9824 165.574 38.9824C148.593 38.9824 134.827 52.7482 134.827 69.7291C134.827 86.7101 148.593 100.476 165.574 100.476Z" stroke="#404040" stroke-width="1.08876" stroke-miterlimit="10"/>
<path d="M165.574 100.476C182.555 100.476 196.321 86.7101 196.321 69.7291C196.321 52.7482 182.555 38.9824 165.574 38.9824C148.593 38.9824 134.827 52.7482 134.827 69.7291C134.827 86.7101 148.593 100.476 165.574 100.476Z" fill="white" stroke="#404040" stroke-width="1.08876" stroke-miterlimit="10"/>
<path d="M165.574 100.476C182.555 100.476 196.321 86.7101 196.321 69.7291C196.321 52.7482 182.555 38.9824 165.574 38.9824C148.593 38.9824 134.827 52.7482 134.827 69.7291C134.827 86.7101 148.593 100.476 165.574 100.476Z" stroke="#555A60" stroke-width="1.08876" stroke-miterlimit="10"/>
<path d="M165.687 73.2531C167.837 73.2531 169.581 71.5097 169.581 69.359C169.581 67.2083 167.837 65.4648 165.687 65.4648C163.536 65.4648 161.792 67.2083 161.792 69.359C161.792 71.5097 163.536 73.2531 165.687 73.2531Z" fill="#463F22"/>
<path d="M183.111 54.1003C183.648 54.6715 183.623 55.5719 183.049 56.1113L168.775 69.5294L166.829 67.4589L181.103 54.0408C181.674 53.5039 182.574 53.5292 183.114 54.103L183.111 54.1003Z" fill="#3D3823"/>
<path d="M150.351 58.0403L150.549 57.7893C150.979 57.2416 151.774 57.1465 152.322 57.5772L163.893 66.6762L162.137 68.9099L150.566 59.811C150.018 59.3802 149.923 58.5852 150.353 58.0375L150.351 58.0403Z" fill="#3D3823"/>
<path d="M165.687 43.9219V49.6851" stroke="#463F22" stroke-width="2.17753" stroke-linecap="round" stroke-linejoin="round"/>
<path d="M139.153 69.3594H144.917" stroke="#463F22" stroke-width="2.17753" stroke-linecap="round" stroke-linejoin="round"/>
<path d="M186.253 69.3594H192.017" stroke="#463F22" stroke-width="2.17753" stroke-linecap="round" stroke-linejoin="round"/>
<path d="M165.687 95.3514V89.5918" stroke="#463F22" stroke-width="2.17753" stroke-linecap="round" stroke-linejoin="round"/>
</svg>
