<svg width="222" height="142" viewBox="0 0 222 142" fill="none" xmlns="http://www.w3.org/2000/svg">
<rect width="221" height="142" transform="translate(0.25)" fill="#F8F9FA"/>
<g clip-path="url(#clip0_739_2588)">
<path d="M194.801 51.8505C194.801 51.8505 191.875 18.6826 159.676 16.9893C127.476 15.2959 123.846 52.8041 123.846 52.8041C125.721 50.1571 127.955 50.7264 127.955 50.7264C127.955 50.7264 131.167 17.5585 159.636 19.0598C188.108 20.5573 190.693 49.8851 190.693 49.8851C190.693 49.8851 194.098 49.7945 194.801 51.8505Z" fill="#EDCB99"/>
<path d="M194.802 51.8505C194.802 51.8505 191.875 18.6826 159.676 16.9893C127.476 15.2959 123.846 52.8041 123.846 52.8041C125.721 50.1571 127.955 50.7264 127.955 50.7264C127.955 50.7264 131.167 17.5585 159.636 19.0598C188.108 20.5573 190.693 49.8851 190.693 49.8851C190.693 49.8851 194.098 49.7945 194.802 51.8505Z" stroke="#555A60" stroke-width="0.725218" stroke-linecap="round" stroke-linejoin="round"/>
<path d="M159.748 123.11C181.01 123.11 198.246 118.453 198.246 112.707C198.246 106.961 181.01 102.304 159.748 102.304C138.486 102.304 121.25 106.961 121.25 112.707C121.25 118.453 138.486 123.11 159.748 123.11Z" fill="#E8E4DC"/>
<path d="M185.689 22.3091C185.689 22.3091 191.727 22.4577 192.075 15.376C192.075 15.376 192.974 22.2112 197.811 22.61C197.811 22.61 192.075 23.5564 192.126 29.7933C192.126 29.7933 192.126 23.5093 185.689 22.3091Z" fill="#F6DBAA" stroke="#555A60" stroke-width="0.725218" stroke-linecap="round" stroke-linejoin="round"/>
<path d="M178.111 33.1106C178.111 33.1106 183.84 33.2521 184.174 26.5293C184.174 26.5293 185.026 33.0164 189.62 33.3971C189.62 33.3971 184.174 34.2964 184.221 40.2178C184.221 40.2178 184.221 34.2492 178.111 33.1143V33.1106Z" fill="#FFE180" stroke="#555A60" stroke-width="0.725218" stroke-linecap="round" stroke-linejoin="round"/>
<path d="M159.676 64.3164C180.133 64.3164 196.716 59.2431 196.716 52.9848C196.716 46.7266 180.133 41.6533 159.676 41.6533C139.219 41.6533 122.635 46.7266 122.635 52.9848C122.635 59.2431 139.219 64.3164 159.676 64.3164Z" fill="#EDCB99"/>
<path d="M159.676 64.3164C180.133 64.3164 196.716 59.2431 196.716 52.9848C196.716 46.7266 180.133 41.6533 159.676 41.6533C139.219 41.6533 122.635 46.7266 122.635 52.9848C122.635 59.2431 139.219 64.3164 159.676 64.3164Z" stroke="#555A60" stroke-width="0.725218" stroke-linecap="round" stroke-linejoin="round"/>
<path d="M194.359 57.1084C194.433 57.061 194.499 57.0176 194.558 56.9787L186.852 109.658C186.849 109.663 186.847 109.668 186.844 109.674C186.838 109.685 186.831 109.699 186.822 109.715C186.793 109.769 186.746 109.85 186.677 109.955C186.539 110.165 186.313 110.468 185.965 110.835C185.269 111.568 184.083 112.554 182.134 113.544C178.233 115.524 171.273 117.518 159.066 117.518C146.859 117.518 140.052 115.524 136.304 113.545C134.431 112.556 133.322 111.571 132.683 110.84C132.364 110.475 132.162 110.172 132.04 109.963C131.98 109.859 131.939 109.778 131.914 109.725C131.902 109.698 131.893 109.678 131.888 109.665L124.943 57.1942C125.173 57.3817 125.516 57.6375 125.998 57.9417C127.029 58.5923 128.695 59.4638 131.249 60.3614C136.355 62.1563 145.013 64.0566 159.242 64.5012C171.347 64.8808 180.256 62.9455 186.143 60.9119C189.087 59.8952 191.274 58.8542 192.728 58.0661C193.454 57.6721 193.997 57.3413 194.359 57.1084Z" fill="#EDCB99" stroke="#555A60" stroke-width="0.362609"/>
<path d="M124.698 56.7233L131.711 109.711C131.711 109.711 134.616 117.7 159.066 117.7C183.517 117.7 187.027 109.711 187.027 109.711L194.798 56.5928C194.798 56.5928 183.412 65.0778 159.248 64.32C130.815 63.4316 124.695 56.7269 124.695 56.7269L124.698 56.7233Z" stroke="#555A60" stroke-linecap="round" stroke-linejoin="round"/>
<path d="M159.465 61.2637C178.666 61.2637 194.232 56.8528 194.232 51.4117C194.232 45.9705 178.666 41.5596 159.465 41.5596C140.264 41.5596 124.698 45.9705 124.698 51.4117C124.698 56.8528 140.264 61.2637 159.465 61.2637Z" fill="#A7906C"/>
<path d="M159.465 61.2637C178.666 61.2637 194.232 56.8528 194.232 51.4117C194.232 45.9705 178.666 41.5596 159.465 41.5596C140.264 41.5596 124.698 45.9705 124.698 51.4117C124.698 56.8528 140.264 61.2637 159.465 61.2637Z" stroke="#555A60" stroke-width="0.725218" stroke-linecap="round" stroke-linejoin="round"/>
<path d="M162.54 60.658C162.54 60.658 166.536 60.0524 168.835 62.5943C171.134 65.1362 170.772 73.1245 169.803 76.3952C168.835 79.6623 168.955 91.1643 170.046 93.8258C171.134 96.4874 172.951 98.547 175.979 96.248C179.006 93.9491 181.062 91.7698 183.122 91.7698C185.182 91.7698 188.449 93.2239 192.564 92.1324C196.68 91.0446 197.285 89.3476 196.317 85.4749C195.349 81.6023 192.321 74.4589 192.688 68.8928C193.05 63.3232 190.871 56.4263 186.15 54.6097C181.429 52.793 169.807 55.3349 167.628 56.303C165.448 57.2712 162.544 60.6616 162.544 60.6616L162.54 60.658Z" fill="white" stroke="#555A60" stroke-width="0.725218" stroke-linecap="round" stroke-linejoin="round"/>
<path d="M184.692 67.4395C184.692 67.4395 186.023 80.0292 187.959 80.5115" stroke="#555A60" stroke-width="0.725218" stroke-linecap="round" stroke-linejoin="round"/>
<path d="M179.63 77.7266C179.63 77.7266 179.126 84.2644 180.58 85.8381" stroke="#555A60" stroke-width="0.725218" stroke-linecap="round" stroke-linejoin="round"/>
</g>
<defs>
<clipPath id="clip0_739_2588">
<rect width="77" height="108.097" fill="white" transform="translate(121.25 15.0117)"/>
</clipPath>
</defs>
</svg>
