<svg width="221" height="142" viewBox="0 0 221 142" fill="none" xmlns="http://www.w3.org/2000/svg">
<rect width="221" height="142" fill="#F8F9FA"/>
<g clip-path="url(#clip0_739_2604)">
<path d="M162.304 122.472C181.021 122.472 196.195 118.925 196.195 114.549C196.195 110.174 181.021 106.627 162.304 106.627C143.586 106.627 128.413 110.174 128.413 114.549C128.413 118.925 143.586 122.472 162.304 122.472Z" fill="#E8E4DC"/>
<path d="M161.32 116.962C184.87 116.962 203.961 97.8704 203.961 74.3201C203.961 50.7699 184.87 31.6787 161.32 31.6787C137.77 31.6787 118.678 50.7699 118.678 74.3201C118.678 97.8704 137.77 116.962 161.32 116.962Z" fill="#F0C78E" stroke="#555A60" stroke-width="1.35714" stroke-miterlimit="10"/>
<path d="M132.525 43.1934C132.525 43.1934 148.349 42.1755 159.321 49.5278C170.291 56.8802 180.357 63.4385 185.107 62.5327C189.857 61.6268 195.751 60.2187 196.195 49.7823" stroke="#555A60" stroke-width="1.01786" stroke-miterlimit="10" stroke-linecap="round"/>
<path d="M164.027 31.7637C164.027 31.7637 189.494 42.6039 187.709 75.8776C185.925 109.151 166.297 116.477 166.297 116.477" stroke="#555A60" stroke-width="1.01786" stroke-miterlimit="10" stroke-linecap="round"/>
<path d="M131.911 105.195C131.911 105.195 141.112 106.827 151.518 102.453C161.924 98.0801 172.024 88.882 178.512 87.6742C184.999 86.4663 193.759 85.764 195.248 91.9153C196.738 98.0665 195.608 99.6679 195.608 99.6679" stroke="#555A60" stroke-width="1.01786" stroke-miterlimit="10"/>
<path d="M118.678 74.3196C118.678 74.3196 190.203 73.027 203.961 74.3196" stroke="#555A60" stroke-width="1.01786" stroke-miterlimit="10"/>
</g>
<defs>
<clipPath id="clip0_739_2604">
<rect width="86.64" height="91.4714" fill="white" transform="translate(118 31)"/>
</clipPath>
</defs>
</svg>
