<svg width="221" height="142" viewBox="0 0 221 142" fill="none" xmlns="http://www.w3.org/2000/svg">
<rect width="221" height="142" fill="#F8F9FA"/>
<mask id="mask0_739_2517" style="mask-type:luminance" maskUnits="userSpaceOnUse" x="113" y="22" width="92" height="90">
<path d="M113 22H205V112H113V22Z" fill="white"/>
</mask>
<g mask="url(#mask0_739_2517)">
<path d="M160.407 112.001C143.108 112.001 129.085 109.371 129.085 106.126C129.085 102.881 143.108 100.251 160.407 100.251C177.705 100.251 191.729 102.881 191.729 106.126C191.729 109.371 177.705 112.001 160.407 112.001Z" fill="#E8E4DC"/>
<path d="M123.913 40.4893C124.013 40.3752 124.113 40.2678 124.216 40.1603C125.077 39.2707 126.125 38.5791 127.242 38.0587C127.808 37.7935 128.397 37.5719 128.992 37.3873C129.398 37.2597 130.349 37.2161 130.655 36.9374C130.961 36.6588 131.041 35.7657 131.201 35.3662C131.423 34.7955 131.699 34.2449 132.022 33.7279C132.661 32.7073 133.492 31.7908 134.513 31.1496C135.544 30.5016 136.486 29.8839 137.693 29.5986C138.292 29.4542 138.91 29.3837 139.526 29.3871C139.689 29.3871 141.195 29.612 141.212 29.5885C141.212 29.5885 143.484 26.0634 145.769 25.3651C148.054 24.6668 150.612 24.9052 152.734 26.0198C152.734 26.0198 156.076 23.0184 158.302 22.6559C163.095 21.8736 165.716 26.0668 165.716 26.0668C167.668 24.2136 170.628 23.522 173.189 24.3177C175.75 25.1133 177.813 27.366 178.395 30.0081C178.395 30.0081 182.802 28.0039 186.793 31.2839C188.908 33.0229 189.421 36.36 188.293 38.8645L188.652 38.7906C191.24 38.3273 194.044 39.4956 195.557 41.661C197.071 43.8298 197.217 46.8848 195.917 49.1912C195.917 49.1912 199.825 48.7581 201.438 53.2937C202.183 55.3886 200.663 59.847 200.663 59.847C200.556 59.6489 202.296 59.8168 203.35 61.0455C203.863 61.6431 204.352 62.3313 204.238 63.1169C204.238 63.1169 201.245 70.8687 159.852 70.8687C118.458 70.8687 114.39 65.0473 114.39 65.0473C113.838 63.4359 114.164 61.5457 115.222 60.2163C116.283 58.8868 120.161 57.6682 120.161 57.6682C118.345 56.2447 117.613 53.5657 118.458 51.4036C119.303 49.2416 123.341 48.6474 123.341 48.6474C121.428 46.388 121.967 42.7252 123.913 40.4927V40.4893Z" fill="white"/>
<path d="M123.314 40.0992C124.455 38.8134 125.912 37.9069 127.489 37.2691C128.17 36.9938 128.826 36.8326 129.537 36.6883C129.764 36.6413 130.026 36.6144 130.126 36.4365C130.273 36.1713 130.299 35.8121 130.376 35.52C130.758 34.0126 131.816 32.5119 132.953 31.4846C133.575 30.9273 134.287 30.4875 135.006 30.0645C135.724 29.6415 136.496 29.2722 137.314 29.0741C138.039 28.8996 138.827 28.7821 139.572 28.8727C139.848 28.9063 140.124 28.9466 140.404 28.9801C140.52 28.9969 140.637 29.0103 140.753 29.0238C140.83 29.0338 141.046 29.0238 140.833 29.0607L140.534 29.2924C141.495 27.8051 142.745 26.3145 144.249 25.3745C145.413 24.646 146.88 24.421 148.227 24.4278C149.797 24.4345 151.337 24.8273 152.737 25.5424L152.132 25.6196C152.74 25.0757 153.389 24.5688 154.051 24.0887C155.122 23.3132 156.309 22.5209 157.603 22.1919C160.158 21.5406 162.842 22.5511 164.698 24.3371C165.14 24.7635 165.569 25.2402 165.898 25.7639L165.113 25.6632C167.262 23.6623 170.468 22.8935 173.259 23.847C176.05 24.8004 177.989 27.0732 178.624 29.8261L177.892 29.524C182.053 27.6473 187.997 29.6885 188.965 34.4826C189.278 36.0336 189.108 37.6249 188.473 39.0719L187.911 38.3333C189.993 37.9069 192.155 38.293 193.911 39.5352C195.843 40.9016 196.978 43.0938 197.047 45.4707C197.087 46.8405 196.758 48.2035 196.096 49.402L195.664 48.6433C197.057 48.4956 198.557 49.1133 199.612 49.9895C200.666 50.8658 201.441 52.1247 201.754 53.4105C202.066 54.6963 201.84 56.0392 201.594 57.2847C201.415 58.1778 201.188 59.0708 200.896 59.9369L200.413 59.2991C201.578 59.2856 202.758 59.8396 203.517 60.7158C204.009 61.2832 204.508 61.8908 204.804 62.5891C204.954 62.945 205.103 63.4251 204.92 63.7977C204.84 63.9589 204.691 64.1066 204.568 64.2342C203.789 65.0634 202.762 65.6744 201.764 66.1914C199.435 67.3933 196.894 68.1688 194.36 68.7865C189.783 69.8978 185.08 70.4786 180.394 70.8579C172.89 71.4622 165.353 71.479 157.833 71.2877C150.632 71.103 143.424 70.7841 136.246 70.1428C131.849 69.7501 127.449 69.2498 123.108 68.4374C120.87 68.0177 118.618 67.5309 116.473 66.7521C115.654 66.4566 114.786 66.1276 114.078 65.6039C113.981 65.5334 113.868 65.4562 113.792 65.3655C113.542 65.0701 113.492 64.5497 113.439 64.1771C113.373 63.7071 113.363 63.2404 113.416 62.7671C113.516 61.8808 113.805 61.0112 114.297 60.2659C115.032 59.1547 116.266 58.5471 117.45 58.0334C118.212 57.701 118.994 57.3955 119.785 57.1437L119.566 57.9864C117.76 56.5327 116.955 53.9611 117.573 51.7185C118.079 49.8821 119.792 48.9891 121.482 48.4721C121.967 48.3244 122.463 48.1968 122.965 48.1229L122.746 48.9656C120.607 46.3705 121.242 42.5265 123.318 40.0958C123.737 39.6023 124.442 40.3174 124.023 40.8076C122.333 42.7883 121.685 46.1052 123.451 48.2505C123.66 48.5057 123.64 49.0327 123.231 49.0932C121.864 49.298 120.264 49.7646 119.243 50.7449C118.425 51.5305 118.269 52.8062 118.398 53.8906C118.558 55.2234 119.23 56.4387 120.271 57.2747C120.58 57.5231 120.374 58.0133 120.051 58.1173C119.273 58.3624 118.505 58.6545 117.76 58.9902C116.542 59.5374 115.405 60.1249 114.813 61.394C114.434 62.2098 114.294 63.1599 114.424 64.0529C114.45 64.2409 114.513 64.4222 114.543 64.6068C114.573 64.7915 114.583 64.7646 114.5 64.6572C114.5 64.6572 114.5 64.6572 114.503 64.6605C114.523 64.6874 114.55 64.7075 114.577 64.7277C114.623 64.768 114.733 64.8418 114.557 64.7142C114.593 64.7411 114.627 64.768 114.666 64.7948C114.776 64.8653 114.883 64.9358 114.996 65.003C115.159 65.097 115.328 65.1843 115.498 65.2682C115.604 65.3219 115.714 65.3689 115.824 65.4193C115.861 65.436 116.033 65.5099 115.954 65.4763C115.874 65.4428 116.063 65.5233 116.107 65.5401C117.873 66.2586 119.745 66.7151 121.601 67.1147C125.283 67.9036 129.029 68.4005 132.77 68.8C139.03 69.4681 145.316 69.8407 151.606 70.0858C159.459 70.3946 167.329 70.5524 175.182 70.1865C180.433 69.9414 185.702 69.4882 190.874 68.5146C193.864 67.9506 196.864 67.2254 199.688 66.0605C199.934 65.9598 200.044 65.9128 200.344 65.7785C200.553 65.6845 200.759 65.5871 200.966 65.483C201.328 65.3018 201.687 65.1138 202.04 64.9056C202.319 64.7411 202.595 64.5665 202.861 64.3819C202.974 64.3013 203.084 64.2207 203.197 64.1368C203.33 64.0394 203.124 64.2006 203.244 64.0999C203.287 64.0629 203.334 64.0294 203.377 63.9924C203.61 63.7977 203.816 63.5829 204.022 63.3613C204.125 63.2505 203.992 63.4822 204.055 63.3143C204.055 63.3076 204.065 63.2975 204.069 63.2941C203.839 63.5224 204.099 63.4922 204.009 63.3613C203.999 63.3445 203.969 63.18 203.972 63.1968C203.929 63.0323 203.853 62.8812 203.769 62.7335C203.58 62.3877 203.344 62.0721 203.094 61.7666C202.412 60.9307 201.538 60.3029 200.42 60.3163C200.111 60.3197 199.835 59.9907 199.938 59.6784C200.513 57.983 201.012 56.0694 200.886 54.2666C200.803 53.0614 200.091 51.836 199.243 51.0068C198.604 50.3823 197.812 49.9593 196.948 49.7646C196.545 49.674 196.123 49.6135 195.67 49.6605C195.278 49.7042 195.072 49.2073 195.238 48.9018C196.515 46.582 196.292 43.4766 194.546 41.4522C192.97 39.6258 190.515 38.8335 188.18 39.3136C187.728 39.4076 187.438 38.9779 187.618 38.575C188.556 36.4365 188.243 33.6198 186.563 31.9378C184.884 30.2559 182.196 29.5609 179.835 30.0074C179.466 30.0779 179.096 30.1686 178.737 30.2894C178.631 30.323 178.528 30.3633 178.421 30.4036C178.295 30.4506 178.348 30.4338 178.401 30.4103C178.122 30.5345 177.749 30.4539 177.669 30.1082C177.117 27.7044 175.331 25.6296 173.003 24.8306C170.548 23.9913 167.728 24.6225 165.829 26.3884C165.586 26.6133 165.223 26.5663 165.044 26.2877C164.98 26.1903 164.914 26.0963 164.844 26.0023C164.844 26.0023 164.731 25.8579 164.654 25.7673C164.535 25.6229 164.408 25.4819 164.279 25.3476C163.6 24.6359 162.808 24.0417 161.92 23.622C160.753 23.0714 159.369 22.8767 158.102 23.1252C156.925 23.3535 155.844 24.0719 154.872 24.7501C154.167 25.2436 153.485 25.7706 152.843 26.3447C152.667 26.5025 152.448 26.5294 152.238 26.4219C150.997 25.7841 149.624 25.4517 148.233 25.445C147.033 25.4383 145.739 25.6229 144.711 26.2843C143.317 27.1773 142.413 28.5236 141.408 29.7993C141.013 30.3029 140.085 29.9504 139.542 29.8866C138.302 29.7389 136.995 30.1283 135.914 30.7192C134.693 31.3839 133.545 32.146 132.691 33.2639C132.252 33.838 131.882 34.4725 131.586 35.1339C131.354 35.6543 131.297 36.2149 131.091 36.742C130.885 37.2691 130.479 37.5209 129.927 37.6451C129.291 37.7861 128.696 37.8935 128.081 38.1252C126.544 38.7026 125.127 39.5822 124.026 40.821C123.597 41.3044 122.892 40.5894 123.321 40.1093L123.314 40.0992Z" fill="#555A60"/>
<path d="M183.866 56.3347C184.372 53.8 182.373 51.4835 179.838 51.5473C179.472 51.5574 179.2 51.1075 179.406 50.7886C180.021 49.8418 180.088 48.5963 179.489 47.6194C178.89 46.6424 177.816 46.1993 176.745 46.2865C176.106 46.3369 176.11 45.3297 176.745 45.2794C178.165 45.1652 179.599 45.887 180.35 47.1091C181.102 48.3311 181.069 50.06 180.267 51.2955L179.835 50.5368C181.335 50.4998 182.848 51.1511 183.803 52.3329C184.757 53.5146 185.127 55.0925 184.824 56.6032C184.698 57.2378 183.736 56.9692 183.863 56.3347H183.866Z" fill="#555A60"/>
<path d="M157.7 45.0275C158.432 44.0069 158.425 42.4962 157.527 41.5696C156.629 40.643 155.229 40.5725 154.204 41.2271C153.805 41.4823 153.216 40.9485 153.522 40.5389C154.221 39.6022 154.184 38.2023 153.313 37.3798C152.441 36.5573 151.018 36.6546 150.193 37.4402C149.727 37.8867 149.019 37.175 149.488 36.7285C150.695 35.577 152.664 35.4964 153.935 36.5908C155.205 37.6853 155.358 39.7399 154.384 41.0458L153.702 40.3576C155.096 39.4646 157.068 39.656 158.235 40.8578C159.403 42.0597 159.559 44.1513 158.565 45.5344C158.192 46.0548 157.324 45.5512 157.703 45.0275H157.7Z" fill="#555A60"/>
<path d="M147.678 58.0625C147.928 56.9244 147.512 55.6654 146.6 54.9336C145.689 54.2017 144.292 54.0808 143.238 54.6348C142.972 54.7758 142.569 54.6684 142.506 54.3326C142.107 52.2679 139.775 50.9687 137.829 51.714C137.227 51.9457 136.968 50.9721 137.563 50.7438C139.988 49.8138 142.975 51.5025 143.467 54.0674L142.735 53.7653C144.159 53.0166 145.942 53.1341 147.212 54.1446C148.483 55.1551 148.975 56.7968 148.639 58.3311C148.5 58.9622 147.538 58.697 147.678 58.0625Z" fill="#555A60"/>
<path d="M113.502 64.4149C114.264 72.8348 118.059 81.7415 123.327 88.3149C128.596 94.8883 136.346 100.599 143.83 102.345C151.313 104.087 160.247 104.94 168.084 103.513C177.766 101.75 187.096 97.2618 193.874 90.0606C200.649 82.8594 204.677 72.8482 203.846 62.9512C203.846 62.9512 196.821 71.596 153.711 70.2363C116.02 69.0445 113.499 64.4149 113.499 64.4149H113.502Z" fill="#F0D4A7"/>
<path d="M114.001 64.4148C114.407 68.7993 115.591 73.1167 117.307 77.1621C119.02 81.2008 121.272 85.0415 124.059 88.4222C126.847 91.8029 130.159 94.8311 133.821 97.2617C135.598 98.4434 137.467 99.4909 139.423 100.34C141.378 101.19 143.288 101.723 145.306 102.157C149.84 103.123 154.467 103.691 159.103 103.728C163.59 103.761 168.017 103.211 172.348 102.029C180.487 99.8132 188.18 95.5629 193.924 89.2682C199.668 82.9734 203.307 74.6408 203.45 66.0699C203.467 65.0292 203.43 63.9884 203.347 62.951L204.198 63.3069C203.932 63.6326 203.557 63.8944 203.224 64.1328C202.199 64.8714 201.052 65.432 199.894 65.9255C197.653 66.8857 195.308 67.5773 192.94 68.1379C189.181 69.0276 185.349 69.5916 181.514 69.9978C175.83 70.5988 170.106 70.8338 164.392 70.8774C157.141 70.9311 149.88 70.6793 142.639 70.2395C137.483 69.9273 132.331 69.501 127.212 68.7959C124.262 68.3897 121.305 67.9029 118.425 67.1274C117.031 66.7548 115.614 66.3217 114.334 65.6435C113.915 65.4219 113.349 65.1332 113.096 64.7035C113.09 64.6901 113.08 64.68 113.073 64.6666C112.761 64.0992 113.622 63.5889 113.935 64.1596C113.975 64.2335 113.921 64.1361 113.885 64.0958C113.918 64.1294 113.945 64.1697 113.981 64.2033C114.041 64.2604 114.264 64.4316 114.084 64.3006C114.191 64.3779 114.297 64.4551 114.41 64.5256C114.776 64.7572 115.172 64.9452 115.568 65.1198C115.601 65.1332 115.634 65.1467 115.668 65.1601C115.741 65.1903 115.814 65.2205 115.887 65.2507C116.043 65.3112 116.2 65.3716 116.359 65.4287C116.732 65.5629 117.108 65.6905 117.487 65.8047C119.925 66.56 122.443 67.0368 124.957 67.443C129.468 68.1715 134.028 68.6113 138.581 68.9537C145.543 69.4741 152.531 69.7729 159.512 69.8535C165.636 69.9273 171.769 69.8031 177.872 69.323C182.07 68.9907 186.264 68.4938 190.395 67.6646C193.043 67.1308 195.677 66.4694 198.211 65.5227C198.441 65.4354 198.674 65.3481 198.903 65.2574C199.01 65.2172 199.113 65.1735 199.219 65.1299C199.269 65.1097 199.322 65.0862 199.372 65.0661C199.445 65.0359 199.499 65.0124 199.459 65.0292C199.831 64.8714 200.197 64.7035 200.563 64.5256C201.118 64.2536 201.664 63.9582 202.186 63.6292C202.376 63.5117 202.559 63.3875 202.738 63.2565C202.811 63.2028 202.885 63.1491 202.958 63.092C203.051 63.0215 202.855 63.176 202.961 63.092C202.991 63.0652 203.024 63.0417 203.054 63.0148C203.197 62.8973 203.327 62.7664 203.46 62.6422C203.477 62.6287 203.49 62.612 203.503 62.5952C203.803 62.2259 204.325 62.5616 204.355 62.951C205.07 71.7369 202.04 80.5529 196.735 87.4721C191.42 94.4014 183.843 99.2894 175.667 102.069C171.426 103.513 167.006 104.409 162.536 104.654C157.749 104.916 152.933 104.53 148.21 103.731C146.028 103.362 143.82 102.952 141.711 102.271C139.695 101.619 137.75 100.736 135.9 99.7024C131.999 97.5202 128.446 94.6632 125.373 91.4067C119.256 84.934 114.986 76.4806 113.446 67.6646C113.256 66.5869 113.113 65.5025 113.013 64.4114C112.953 63.7668 113.951 63.7702 114.011 64.4114L114.001 64.4148Z" fill="#555A60"/>
<path d="M138.751 100.7L138.648 104.84C138.648 104.84 143.391 108.533 158.677 108.533C173.964 108.533 178.707 104.84 178.707 104.84C178.74 103.46 178.777 102.08 178.81 100.7C178.81 100.7 168.669 104.232 158.91 104.067C144.941 103.832 138.751 100.7 138.751 100.7Z" fill="#CBA378"/>
<path d="M139.25 100.699C139.216 102.079 139.18 103.459 139.147 104.839L138.901 104.402C139.08 104.54 139.28 104.654 139.476 104.765C140.121 105.127 140.673 105.362 141.302 105.604C144.116 106.682 147.133 107.232 150.116 107.575C155.222 108.162 160.44 108.193 165.556 107.746C168.852 107.457 172.185 106.947 175.325 105.869C176.166 105.581 176.775 105.342 177.533 104.953C177.836 104.798 178.119 104.57 178.425 104.429C178.435 104.422 178.448 104.412 178.458 104.406L178.212 104.842C178.245 103.462 178.282 102.082 178.315 100.703L178.947 101.189C177.184 101.804 175.371 102.284 173.562 102.724C169.604 103.684 165.553 104.362 161.485 104.54C157.417 104.718 153.126 104.409 149.019 103.835C146.457 103.479 143.906 102.982 141.428 102.227C140.444 101.928 139.429 101.606 138.508 101.139C137.933 100.85 138.438 99.9811 139.01 100.269C139.054 100.293 139.1 100.313 139.147 100.333C139.203 100.36 139.26 100.384 139.316 100.41C139.353 100.427 139.483 100.481 139.316 100.41C139.363 100.431 139.409 100.451 139.459 100.471C140.015 100.696 140.577 100.901 141.149 101.085C143.404 101.817 145.736 102.314 148.071 102.687C151.969 103.308 155.953 103.607 159.898 103.576C163.843 103.546 168.137 102.932 172.158 102.022C174.353 101.525 176.555 100.964 178.681 100.222C178.983 100.115 179.319 100.397 179.313 100.709C179.289 101.592 179.269 102.475 179.246 103.358C179.236 103.798 179.233 104.241 179.213 104.684C179.2 104.956 179.176 105.114 178.96 105.285C178.89 105.342 178.81 105.389 178.734 105.44C178.158 105.806 177.537 106.088 176.911 106.353C173.748 107.679 170.282 108.266 166.896 108.636C161.109 109.267 155.155 109.247 149.378 108.508C146.188 108.098 142.948 107.477 139.995 106.158C139.489 105.933 138.984 105.688 138.525 105.376C138.275 105.208 138.149 105.017 138.159 104.681C138.185 103.596 138.212 102.509 138.242 101.424C138.249 101.186 138.255 100.951 138.259 100.713C138.275 100.065 139.273 100.065 139.256 100.713L139.25 100.699Z" fill="#555A60"/>
</g>
</svg>
